<svg xmlns="http://www.w3.org/2000/svg" width="169.319" height="175.047" viewBox="0 0 169.319 175.047">
  <g id="Group_24_" data-name="Group (24)" transform="translate(-0.377)">
    <path id="Trazado_719018" data-name="Trazado 719018" d="M449.679,159.844l-21.883,8.43V123.366l21.883,8.43a2.039,2.039,0,0,1,1.306,1.9v24.242A2.039,2.039,0,0,1,449.679,159.844Z" transform="translate(-281.289 -81.189)" fill="#006f6e"/>
    <path id="Trazado_719019" data-name="Trazado 719019" d="M449.679,52.714,427.8,61.144V16.236l21.883,8.43a2.039,2.039,0,0,1,1.306,1.9V50.811A2.038,2.038,0,0,1,449.679,52.714Z" transform="translate(-281.289 -10.685)" fill="#ffa95f"/>
    <path id="Trazado_719020" data-name="Trazado 719020" d="M72.674,1.787v148.1a1.787,1.787,0,0,0,1.787,1.787H196.772a1.787,1.787,0,0,0,1.787-1.787V1.787A1.787,1.787,0,0,0,196.772,0H74.461A1.787,1.787,0,0,0,72.674,1.787Z" transform="translate(-47.579)" fill="#6cbff8"/>
    <path id="Trazado_719021" data-name="Trazado 719021" d="M411.245,0h-12.68a1.787,1.787,0,0,1,1.787,1.787v148.1a1.787,1.787,0,0,1-1.787,1.787h12.68a1.787,1.787,0,0,0,1.787-1.787V1.787A1.787,1.787,0,0,0,411.245,0Z" transform="translate(-262.052)" fill="#5fa7ee"/>
    <path id="Trazado_719022" data-name="Trazado 719022" d="M116.608,91.236V232.128a1.787,1.787,0,0,1-1.787,1.787H34.833L.377,199.459V91.236a1.787,1.787,0,0,1,1.787-1.787H114.822A1.787,1.787,0,0,1,116.608,91.236Z" transform="translate(0 -58.868)" fill="#c4e8ff"/>
    <path id="Trazado_719023" data-name="Trazado 719023" d="M310.713,89.449h-12.68a1.787,1.787,0,0,1,1.787,1.787V232.128a1.787,1.787,0,0,1-1.787,1.787h12.68a1.787,1.787,0,0,0,1.787-1.787V91.236A1.787,1.787,0,0,0,310.713,89.449Z" transform="translate(-195.891 -58.868)" fill="#b0d3e9"/>
    <path id="Trazado_719024" data-name="Trazado 719024" d="M89.212,147.416H77.844a.786.786,0,0,1-.786-.786V135.262a1.179,1.179,0,0,0-1.179-1.179H64.309a1.179,1.179,0,0,0-1.179,1.179V146.63a.786.786,0,0,1-.786.786H50.977a1.179,1.179,0,0,0-1.179,1.179v11.57a1.179,1.179,0,0,0,1.179,1.179H62.345a.786.786,0,0,1,.786.786V173.5a1.179,1.179,0,0,0,1.179,1.179H75.88a1.179,1.179,0,0,0,1.179-1.179V162.129a.786.786,0,0,1,.786-.786H89.212a1.179,1.179,0,0,0,1.179-1.179v-11.57A1.179,1.179,0,0,0,89.212,147.416Z" transform="translate(-32.525 -88.242)" fill="#006f6e"/>
    <path id="Trazado_719025" data-name="Trazado 719025" d="M257.021,151.135H242.1a1.067,1.067,0,0,1-1.067-1.067V135.149a1.067,1.067,0,0,1,1.067-1.067h14.918a1.067,1.067,0,0,1,1.067,1.067v14.918A1.067,1.067,0,0,1,257.021,151.135Z" transform="translate(-158.38 -88.241)" fill="#265e91"/>
    <path id="Trazado_719026" data-name="Trazado 719026" d="M34.833,445.675V414.754a3.535,3.535,0,0,0-3.535-3.535H.377Z" transform="translate(0 -270.628)" fill="#b0d3e9"/>
    <path id="Trazado_719027" data-name="Trazado 719027" d="M185.578,426.137H133.5a2.641,2.641,0,0,1,0-5.283h52.08a2.641,2.641,0,1,1,0,5.283Z" transform="translate(-85.87 -276.969)" fill="#407194"/>
    <path id="Trazado_719028" data-name="Trazado 719028" d="M56.02,308.96H44.714a2.641,2.641,0,0,1,0-5.283H56.02a2.641,2.641,0,1,1,0,5.283Z" transform="translate(-27.441 -199.853)" fill="#407194"/>
    <path id="Trazado_719029" data-name="Trazado 719029" d="M185.578,308.96H133.5a2.641,2.641,0,0,1,0-5.283h52.08a2.641,2.641,0,1,1,0,5.283Z" transform="translate(-85.87 -199.853)" fill="#407194"/>
    <path id="Trazado_719030" data-name="Trazado 719030" d="M56.02,367.549H44.714a2.641,2.641,0,0,1,0-5.283H56.02a2.641,2.641,0,1,1,0,5.283Z" transform="translate(-27.441 -238.411)" fill="#407194"/>
    <path id="Trazado_719031" data-name="Trazado 719031" d="M185.578,367.549H133.5a2.641,2.641,0,0,1,0-5.283h52.08a2.641,2.641,0,1,1,0,5.283Z" transform="translate(-85.87 -238.411)" fill="#407194"/>
  </g>
</svg>
