<svg xmlns="http://www.w3.org/2000/svg" width="198.5" height="131.848" viewBox="0 0 198.5 131.848">
  <g id="Group_17" data-name="Group 17" transform="translate(0 -0.667)">
    <path id="Trazado_719060" data-name="Trazado 719060" d="M83,31.97H11.4A11.4,11.4,0,0,1,0,20.57v-8.5A11.4,11.4,0,0,1,11.4.667H83a15.652,15.652,0,1,1,0,31.3Z" transform="translate(0 0)" fill="#ffa93f"/>
    <path id="Trazado_719061" data-name="Trazado 719061" d="M23.97,20.57v-8.5a11.4,11.4,0,0,1,11.4-11.4H11.4A11.4,11.4,0,0,0,0,12.068v8.5a11.4,11.4,0,0,0,11.4,11.4H35.373A11.4,11.4,0,0,1,23.97,20.57Z" transform="translate(0 0)" fill="#ffa93f"/>
    <path id="Trazado_719062" data-name="Trazado 719062" d="M392.677,17.587l1.667,3.377,3.726.542a3.6,3.6,0,0,1,2,6.146l-2.7,2.628.636,3.712a3.6,3.6,0,0,1-5.226,3.8l-3.333-1.752-3.333,1.752a3.6,3.6,0,0,1-5.226-3.8l.636-3.712-2.7-2.628a3.6,3.6,0,0,1,2-6.146l3.727-.542,1.666-3.377A3.6,3.6,0,0,1,392.677,17.587Z" transform="translate(-267.9 -10.576)" fill="#ffa031"/>
    <path id="Trazado_719063" data-name="Trazado 719063" d="M504.863,17.587l1.666,3.377,3.727.542a3.6,3.6,0,0,1,2,6.146l-2.7,2.628.636,3.712a3.6,3.6,0,0,1-5.228,3.8l-3.333-1.754L498.3,37.788a3.6,3.6,0,0,1-5.228-3.8l.636-3.712-2.7-2.629a3.6,3.6,0,0,1,2-6.144l3.727-.542,1.666-3.377A3.6,3.6,0,0,1,504.863,17.587Z" transform="translate(-347.465 -10.576)" fill="#ffa031"/>
    <path id="Trazado_719064" data-name="Trazado 719064" d="M617.051,17.587l1.666,3.377,3.727.542a3.6,3.6,0,0,1,2,6.146l-2.7,2.628.636,3.712a3.6,3.6,0,0,1-5.228,3.8l-3.333-1.752-3.332,1.752a3.6,3.6,0,0,1-5.228-3.8l.636-3.712-2.7-2.628a3.6,3.6,0,0,1,2-6.146l3.727-.542,1.666-3.377A3.6,3.6,0,0,1,617.051,17.587Z" transform="translate(-427.031 -10.576)" fill="#ffa031"/>
    <path id="Trazado_719065" data-name="Trazado 719065" d="M57.006,204.863H11.4A11.4,11.4,0,0,1,0,193.46v-8.5a11.4,11.4,0,0,1,11.4-11.4H57.006a15.652,15.652,0,1,1,0,31.3Z" transform="translate(0 -122.619)" fill="#115089"/>
    <path id="Trazado_719066" data-name="Trazado 719066" d="M23.97,193.46v-8.5a11.4,11.4,0,0,1,11.4-11.4H11.4A11.4,11.4,0,0,0,0,184.96v8.5a11.4,11.4,0,0,0,11.4,11.4H35.373A11.4,11.4,0,0,1,23.97,193.46Z" transform="translate(0 -122.619)" fill="#115089"/>
    <path id="Trazado_719067" data-name="Trazado 719067" d="M303.281,190.482l1.668,3.376,3.727.542a3.6,3.6,0,0,1,2,6.146l-2.7,2.627.638,3.712a3.6,3.6,0,0,1-5.228,3.8l-3.333-1.752-3.333,1.752a3.6,3.6,0,0,1-5.226-3.8l.636-3.712-2.7-2.627a3.6,3.6,0,0,1,2-6.146l3.725-.542,1.668-3.376A3.6,3.6,0,0,1,303.281,190.482Z" transform="translate(-204.498 -133.198)" fill="#ffa031"/>
    <path id="Trazado_719068" data-name="Trazado 719068" d="M415.468,190.482l1.666,3.376,3.727.542a3.6,3.6,0,0,1,2,6.146l-2.7,2.627.636,3.712a3.6,3.6,0,0,1-5.228,3.8l-3.332-1.752-3.333,1.752a3.6,3.6,0,0,1-5.228-3.8l.636-3.712-2.7-2.627a3.6,3.6,0,0,1,2-6.146l3.727-.542,1.667-3.376A3.6,3.6,0,0,1,415.468,190.482Z" transform="translate(-284.063 -133.198)" fill="#ffa031"/>
    <path id="Trazado_719069" data-name="Trazado 719069" d="M38.517,377.756H11.4A11.4,11.4,0,0,1,0,366.355v-8.5a11.4,11.4,0,0,1,11.4-11.4H38.517a15.652,15.652,0,0,1,0,31.3Z" transform="translate(0 -245.241)" fill="#065958"/>
    <path id="Trazado_719070" data-name="Trazado 719070" d="M23.97,366.355v-8.5a11.4,11.4,0,0,1,11.4-11.4H11.4A11.4,11.4,0,0,0,0,357.854v8.5a11.4,11.4,0,0,0,11.4,11.4H35.373A11.4,11.4,0,0,1,23.97,366.355Z" transform="translate(0 -245.241)" fill="#065958"/>
    <path id="Trazado_719071" data-name="Trazado 719071" d="M239.692,363.372l1.666,3.377,3.727.541a3.6,3.6,0,0,1,2,6.146l-2.7,2.629.636,3.711a3.6,3.6,0,0,1-5.226,3.8l-3.333-1.752-3.333,1.752a3.6,3.6,0,0,1-5.228-3.8l.638-3.711-2.7-2.629a3.6,3.6,0,0,1,2-6.146l3.727-.541,1.666-3.377A3.6,3.6,0,0,1,239.692,363.372Z" transform="translate(-159.399 -255.816)" fill="#ffa031"/>
  </g>
</svg>
