<svg xmlns="http://www.w3.org/2000/svg" width="396" height="280.739" viewBox="0 0 396 280.739">
  <g id="Group_14_" data-name="Group (14)" transform="translate(0 -0.001)">
    <path id="Trazado_718240" data-name="Trazado 718240" d="M430.822,189.278s30.578-88.13-67.951-120.711c0,0-28.879-8.011-52.1-6.943S232.065,24.235,185.631,42.4c-45.037,17.614-65.384,53.419-70.783,69.969,0,0-52.662,36.32-16.421,102.551,0,0,17.625,45.141,34.046,49.948l220.77-4.548S413.834,246.428,430.822,189.278Z" transform="translate(-44.712 -19.573)" fill="#f5f5f7"/>
    <path id="Trazado_718241" data-name="Trazado 718241" d="M515.966,440.729s-31.392-28.435-37.795-30.986c-4.879-1.943-18.591-18.164-28.527-29.5-1.2-1.372-5.783-.247-6.882-1.517-3.718-4.3-6.729-7.869-8.284-9.708-3.173-3.75-21.449-2.02-24.437,0-1.535,1.037-12.38,16.338-19.284,23.589-2.218,2.33-16.786,3.818-22.77,5.012-5.779,1.155-21.293,23.161-25.784,24.76-24.815,8.835-30.948,16.733-35.881,18.337H515.966v.007Z" transform="translate(-159.821 -191.38)" fill="#bfbfbf"/>
    <path id="Trazado_718242" data-name="Trazado 718242" d="M515.966,440.729s-31.392-28.435-37.795-30.986c-4.879-1.943-18.591-18.164-28.527-29.5-1.2-1.372-5.783-.247-6.882-1.517-3.718-4.3-6.729-7.869-8.284-9.708-3.173-3.75-21.449-2.02-24.437,0-1.535,1.037-12.38,16.338-19.284,23.589-2.218,2.33-16.786,3.818-22.77,5.012-5.779,1.155-21.293,23.161-25.784,24.76-24.815,8.835-30.948,16.733-35.881,18.337H515.966v.007Z" transform="translate(-159.821 -191.38)" fill="#b5cae8"/>
    <path id="Trazado_718243" data-name="Trazado 718243" d="M744.664,521.349v.007a.042.042,0,0,1-.01-.007Z" transform="translate(-388.515 -272.008)" opacity="0.4"/>
    <path id="Trazado_718244" data-name="Trazado 718244" d="M744.656,521.349v.009a.035.035,0,0,0-.012-.009Z" transform="translate(-388.51 -272.008)" opacity="0.2"/>
    <path id="Trazado_718245" data-name="Trazado 718245" d="M608.408,442.238H483.525c7.543-3.77,23.624-11.934,25.029-13.689,1.843-2.3,4.237-18.9,4.923-21.106s13.472-15.361,14-17.732c.532-2.35-1.582-19.632-1.626-19.986v0a.135.135,0,0,1,.028.016.922.922,0,0,1,.135.074,1.592,1.592,0,0,1,.156.095c.053.033.1.067.148.095s.088.062.129.095l.14.111c.016.016.036.029.053.045a1.4,1.4,0,0,1,.112.1c.023.025.048.046.068.07.036.041.073.075.1.116.072.087.148.173.228.269l.248.294c.085.1.177.207.265.313s.188.219.284.335c1.686,1.986,4.238,5,7.259,8.493a.764.764,0,0,0,.136.127.714.714,0,0,0,.144.1,1.412,1.412,0,0,0,.2.108,1.685,1.685,0,0,0,.168.066s.408,8.32.321,9.06-3.778,6.02-4,7.168.332,5.562-.024,6.508c-.2.55-3.894,6.331-4.864,7.747-.268.384,2.652.133,2.732.133.368,0,3.817-5.141,4.479-5.509s1.213-7.281,1.674-7.8,4.955-6.244,5.545-6.876.368-9.312.368-9.312c1.863,2.122,3.862,4.418,5.905,6.763.509.583,1.026,1.174,1.542,1.76.172.194.344.392.517.591q.709.812,1.421,1.619.974,1.1,1.944,2.193c.324.364.645.726.968,1.086s.641.715.962,1.069.637.71.954,1.057c1.266,1.4,2.512,2.747,3.71,4.018.3.318.6.631.892.937,2.271,2.375,4.358,4.426,6.117,5.93.289.243.565.475.833.69q.278.222.54.421c.109.083.213.162.317.235.312.227.608.429.886.6,0,0-11.012,6.158-12.639,7.9s-5.58,12.826-6.854,14.1-9.735,6.367-9.386,6.78,15.975-2.069,17.742-4.459,5.545-11.455,7.291-12.686c1.334-.942,7.69-5.052,11.14-7,14.747,11.385,30.884,26.455,31.508,26.863Z" transform="translate(-252.274 -192.897)" fill="#d1dbed"/>
    <path id="Trazado_718246" data-name="Trazado 718246" d="M466.732,442.07c-.482.28-9.428-1.55-9.963-1.674s-3.448-5.659-4.013-5.56-7.964-1.525-8.959-2.238-3.58-6.066-3.58-6.066l.022,0s.95-.19,2.435-.495c5.53-.853,12.72-1.876,16.181-3.2.189,1.152,1.083,6.794.915,7.676-.189.986-1.653,3.271-1.211,4S467.217,441.79,466.732,442.07Z" transform="translate(-229.678 -220.607)" opacity="0.1"/>
    <path id="Trazado_718247" data-name="Trazado 718247" d="M322.205,469.244s-44.2-12.072-49.8-13.647c-3.565-1-20.055-17.5-31.307-26.98-.87-.734-5.208-.083-5.735-.367-4.535-2.433-8.011-6.766-10.8-6.766-3.035,0-26.3,27.172-28.726,29.458s-15.535,10.533-19.6,11.369-15.255,6.932-15.255,6.932H322.205Z" transform="translate(-83.994 -219.904)" fill="#bfbfbf"/>
    <path id="Trazado_718248" data-name="Trazado 718248" d="M322.205,469.244s-44.2-12.072-49.8-13.647c-3.565-1-20.055-17.5-31.307-26.98-.87-.734-5.208-.083-5.735-.367-4.535-2.433-8.011-6.766-10.8-6.766-3.035,0-26.3,27.172-28.726,29.458s-15.535,10.533-19.6,11.369-15.255,6.932-15.255,6.932H322.205Z" transform="translate(-83.994 -219.904)" fill="#d1dbed"/>
    <path id="Trazado_718249" data-name="Trazado 718249" d="M228.519,451.775c-.561-.38-.742-4.828-.913-5.631-.16-.753-8.106-7.845-8.174-8.856s5.56-15.8,5.56-15.8c-3.036,0-26.306,27.174-28.726,29.458-.154.142-.345.308-.574.5-.116.094-.24.192-.374.294-.466.362-1.037.774-1.687,1.231-.185.13-.378.264-.578.4-.3.206-.607.416-.932.629-.214.142-.433.289-.658.434-.334.221-.683.444-1.036.672q-.354.228-.72.456c-.727.46-1.48.926-2.244,1.386a83.733,83.733,0,0,1-8,4.354c-.207.09-.407.181-.6.264s-.381.159-.564.232c-.273.109-.531.2-.771.282-.16.054-.309.1-.454.142s-.28.073-.407.1c-.255.051-.535.126-.84.218-.153.044-.312.094-.476.149s-.331.112-.505.173-.353.126-.535.2l-.561.217c-.378.148-.775.311-1.178.485s-.821.354-1.243.543c-.312.142-.633.285-.953.434-.105.047-.21.1-.319.149-.214.1-.426.2-.64.3l-.319.152c-.214.1-.426.2-.636.308-3.7,1.787-6.66,8.316-6.66,8.316l96.472-4.706c-9.749-5.631-29.345-17.193-29.756-17.473Zm-22.148-1.336c-.316-.087-2.425-2.475-2.724-2.558a3.747,3.747,0,0,1-.771-2.052,11.1,11.1,0,0,1,1.29-.5c.157-.021,1.007,1.155,1.163,1.155a22.229,22.229,0,0,1,3.371.178,17.768,17.768,0,0,1,2.432,3.782c-.121.391-4.451.087-4.763,0Z" transform="translate(-84.42 -219.906)" fill="#b5cae8"/>
    <path id="Trazado_718250" data-name="Trazado 718250" d="M608.378,267.545l-16.586,4.367,9.287-14.951,3.117-9.494-1.6.036-2.857,8.281-4.4,5.3-12.907-21.2-2.838.79,13.73,22.386L578,284.552l-1.611-.568-.532-1.022.129-6.878-14.932-26.492,20.712-35.662-2.649-.255-20.954,34.134H556l-15.174-21.652,10.116-19.106-2.649-.255-10.116,17.068-4.335-6.878-3.613-14.265H527.82l3.853,16.048,9.634,16.049-15.655-2.8-17.823-15.793.482-20.889h-1.927l-.722,18.851-10.116-15.029h-2.167l8.911,14.774,22.158,20.633,17.582,4.659L562.26,274.81,559.611,319.9l-5.781,3.311L547,347.914h28.216l-.193-20.374.488-26.091L592.3,274.438l15.913-3.749,17.8-17.708-1.6.036Z" transform="translate(-257.415 -101.913)" fill="#1c466d"/>
    <path id="Trazado_718251" data-name="Trazado 718251" d="M688.369,158.374c-1.976-.159-4.028.143-5.9-.507-4.055-1.409-5.676-6.633-9.634-8.3-2.959-1.243-6.365-.137-9.233,1.3s-5.7,3.251-8.907,3.454c-2.787.178-5.814-.853-8.253.505-1.817,1.012-2.77,3.1-4.444,4.331a10.626,10.626,0,0,1-5.809,1.57,16.41,16.41,0,0,0-5.989.976c-1.851.845-3.383,2.8-3,4.79l70.289-.692C698.028,161.912,692.514,158.707,688.369,158.374Z" transform="translate(-327.204 -77.755)" fill="#dee8f9"/>
    <path id="Trazado_718252" data-name="Trazado 718252" d="M339.128,66.34c-2.158-.173-4.4.156-6.445-.554-4.431-1.539-6.2-7.245-10.523-9.063-3.233-1.359-6.953-.149-10.087,1.422s-6.23,3.55-9.731,3.774c-3.044.194-6.352-.931-9.016.551-1.985,1.105-3.025,3.385-4.854,4.73-1.79,1.316-4.125,1.594-6.346,1.715s-4.521.143-6.543,1.066-3.7,3.055-3.276,5.232l76.783-.756c.587-4.256-5.436-7.755-9.963-8.119Z" transform="translate(-142.039 -29.286)" fill="#dee8f9"/>
    <path id="Trazado_718253" data-name="Trazado 718253" d="M497.844,6.462a16.321,16.321,0,0,1-4.081-.351c-2.8-.974-3.925-4.587-6.662-5.738-2.047-.86-4.4-.095-6.386.9s-3.944,2.248-6.16,2.389c-1.928.123-4.021-.59-5.708.349-1.256.7-1.915,2.143-3.073,2.995a7.352,7.352,0,0,1-4.018,1.086,11.33,11.33,0,0,0-4.142.675,3.264,3.264,0,0,0-2.075,3.313L504.15,11.6c.372-2.694-3.441-4.909-6.307-5.14Z" transform="translate(-237.652 0)" fill="#dee8f9"/>
    <path id="Trazado_718254" data-name="Trazado 718254" d="M305.419,543.025c90.707,0,164.24-7.816,164.24-17.457s-73.533-17.456-164.24-17.456-164.24,7.816-164.24,17.456S214.712,543.025,305.419,543.025Z" transform="translate(-73.659 -265.101)" fill="#7a8db0"/>
    <path id="Trazado_718255" data-name="Trazado 718255" d="M572.815,22.282a46.786,46.786,0,0,0-46.806,46.661v8.844h16.41V68.943a30.4,30.4,0,0,1,60.792,0V268.406h16.411V68.943a46.787,46.787,0,0,0-46.806-46.661Z" transform="translate(-274.439 -11.625)"/>
    <path id="Trazado_718256" data-name="Trazado 718256" d="M572.815,22.282a46.786,46.786,0,0,0-46.806,46.661v8.844h16.41V68.943a30.4,30.4,0,0,1,60.792,0V268.406h16.411V68.943a46.787,46.787,0,0,0-46.806-46.661Z" transform="translate(-274.439 -11.625)" fill="#5681bf"/>
    <path id="Trazado_718257" data-name="Trazado 718257" d="M524.105,132.164a1.83,1.83,0,0,0,1.825,1.659h13.887a1.831,1.831,0,0,0,1.826-1.659l.667-7.184H523.438Z" transform="translate(-273.098 -65.206)"/>
    <path id="Trazado_718258" data-name="Trazado 718258" d="M699,393.662H673.475a4.054,4.054,0,0,0-4.06,4.048v64.46h33.644V397.71a4.053,4.053,0,0,0-4.06-4.048Z" transform="translate(-349.26 -205.388)" fill="#49709e"/>
    <path id="Trazado_718259" data-name="Trazado 718259" d="M718.957,442.923h-8.21c-7.216,0-13.064,6.918-13.064,15.451s5.849,15.451,13.064,15.451h8.21c7.216,0,13.064-6.918,13.064-15.451S726.172,442.923,718.957,442.923Z" transform="translate(-364.008 -231.09)"/>
    <path id="Trazado_718260" data-name="Trazado 718260" d="M718.957,442.923h-8.21c-7.216,0-13.064,6.918-13.064,15.451s5.849,15.451,13.064,15.451h8.21c7.216,0,13.064-6.918,13.064-15.451S726.172,442.923,718.957,442.923Z" transform="translate(-364.008 -231.09)" fill="#b5cae8"/>
    <path id="Trazado_718261" data-name="Trazado 718261" d="M727.914,473.825c7.215,0,13.064-6.918,13.064-15.451s-5.849-15.451-13.064-15.451-13.065,6.918-13.065,15.451S720.7,473.825,727.914,473.825Z" transform="translate(-372.965 -231.09)" fill="#fff" opacity="0.2"/>
    <path id="Trazado_718262" data-name="Trazado 718262" d="M730.151,447.2c-6.073,0-11.013,6.014-11.013,13.406s4.941,13.407,11.013,13.407,11.013-6.014,11.013-13.407S736.224,447.2,730.151,447.2Z" transform="translate(-375.202 -233.321)" fill="#668dbc"/>
    <path id="Trazado_718263" data-name="Trazado 718263" d="M746.628,410.379V375.47H730.668v34.909c-5.137,1.528-8.922,6.689-8.922,12.841,0,7.353,5.4,13.313,12.064,13.313h9.675c6.663,0,12.065-5.961,12.065-13.313C755.55,417.068,751.764,411.906,746.628,410.379Z" transform="translate(-376.563 -195.897)"/>
    <path id="Trazado_718264" data-name="Trazado 718264" d="M746.628,410.379V375.47H730.668v34.909c-5.137,1.528-8.922,6.689-8.922,12.841,0,7.353,5.4,13.313,12.064,13.313h9.675c6.663,0,12.065-5.961,12.065-13.313C755.55,417.068,751.764,411.906,746.628,410.379Z" transform="translate(-376.563 -195.897)" fill="#1c466d" opacity="0.86"/>
    <path id="Trazado_718265" data-name="Trazado 718265" d="M757.182,410.379V375.47H750.9v34.909c-5.136,1.528-8.922,6.689-8.922,12.841,0,7.353,5.4,13.313,12.064,13.313S766.1,430.572,766.1,423.22C766.1,417.068,762.318,411.906,757.182,410.379Z" transform="translate(-387.117 -195.897)" fill="#99b1da"/>
    <path id="Trazado_718266" data-name="Trazado 718266" d="M524.105,132.164a1.83,1.83,0,0,0,1.825,1.659h13.887a1.831,1.831,0,0,0,1.826-1.659l.667-7.184H523.438Z" transform="translate(-273.098 -65.206)" fill="#1c466d"/>
    <path id="Trazado_718267" data-name="Trazado 718267" d="M690.463,526.064h-49.1a6.229,6.229,0,0,0-4.537,1.959l-6.368,6.771h70.909L695,528.023A6.23,6.23,0,0,0,690.463,526.064Z" transform="translate(-328.935 -274.468)" fill="#1c466d"/>
    <path id="Trazado_718268" data-name="Trazado 718268" d="M163.177,135.381l-.98-25.558h-2.613l.654,28.322-24.166,21.414-21.225,3.8L127.909,141.6l5.225-21.758h-3.266l-4.9,19.341-5.878,9.325-13.715-23.14-3.592.345,13.715,25.9L94.927,180.971H91.988L63.579,134.691l-3.592.345L88.069,183.39,67.824,219.309,68,228.636l-.722,1.385-2.185.769L44.32,201.649,62.936,171.3l-3.85-1.07-17.5,28.741-5.969-7.18-3.873-11.227-2.167-.05L33.8,193.381,46.4,213.654l-22.488-5.923-21.741-19.7L0,187.985,24.129,212l21.577,5.082L68.467,253.7l.662,35.376L68.868,316.7l33.66-.22-3.595-10.163-6.705-7.173-5.792-81.564,27.43-48.252,23.839-6.318,30.042-27.976L179.831,115h-2.939Z" transform="translate(0 -57.298)" fill="#1c466d"/>
    <path id="Trazado_718269" data-name="Trazado 718269" d="M422.039,530.963l-.083-.024-.08.016Z" transform="translate(-220.109 -277.011)" fill="#1c466d"/>
    <path id="Trazado_718270" data-name="Trazado 718270" d="M404.439,526.512l.756-.583c-.3-.086-.578-.166-.845-.241Z" transform="translate(-210.965 -274.271)" fill="#1c466d"/>
    <path id="Trazado_718271" data-name="Trazado 718271" d="M497.226,531.888h-.04c-.012.01-.023.016-.034.023l.075-.023Z" transform="translate(-259.384 -277.506)" fill="#1c466d"/>
    <path id="Trazado_718272" data-name="Trazado 718272" d="M550.109,524.909l-.165-.116-.178.056Z" transform="translate(-286.834 -273.805)" fill="#1c466d"/>
    <path id="Trazado_718273" data-name="Trazado 718273" d="M610.272,519.349l-.27-.006-.058.373.33-.367Z" transform="translate(-318.231 -270.961)" fill="#1c466d"/>
    <path id="Trazado_718274" data-name="Trazado 718274" d="M515.085,521.952l.053,0,.057-.035-.111.04Z" transform="translate(-268.739 -272.301)" fill="#1c466d"/>
    <path id="Trazado_718275" data-name="Trazado 718275" d="M611.3,515.825l.212-.034.024-.253Z" transform="translate(-318.941 -268.976)" fill="#1c466d"/>
    <path id="Trazado_718276" data-name="Trazado 718276" d="M458.924,525.49l.08.038.071-.015-.151-.022Z" transform="translate(-239.439 -274.168)" fill="#1c466d"/>
    <path id="Trazado_718277" data-name="Trazado 718277" d="M508.722,513.561c-2.251.163-4.5.346-6.749.564l-.042.269-.306,1.933.27.006-.33.367.059-.373-1.484-.029c-.976-.012-4.307-.042-5.263-.054-2.145-.264-7.225-.837-9.532-1.091l-.081-.009-.081.024-6.2,1.887-6.017,1.878.166.116-.343-.061.178-.055-5.1-3.553-.123-.086-.131.016-5.734.717c-1.933.239-3.863.5-5.8.757l-.048.032-4.2,2.772c-1.215.8-2.966,1.956-4.174,2.739h.04l-.075.022.034-.022-5.205.222c-1.55.08-3.664.117-5.247.176-1.924-1.077-5.452-2.937-7.649-4.161l-.068-.037-.083.014c-4.3.751-9.089,1.583-13.345,2.444l-4.358.887.083.024-.163-.008.08-.016c-2.188-.65-5.278-1.595-7.617-2.269l-.756.582-.089-.823c.267.075.55.157.845.241,2.375-1.836,5.3-4.125,7.486-5.92l-.048-.112c-1.439.933-2.855,1.918-4.283,2.875-.428.308-4.737,3.289-5.015,3.5,2.754.941,6.592,2.141,9.363,3.035,5.794-.968,12.059-2.406,17.833-3.672l-.079-.039.151.023-.072.015c2.343,1.119,5.5,2.758,7.794,3.85,1.56-.066,3.7-.159,5.246-.2l5.247-.154h.039c1.24-.78,3.04-1.862,4.3-2.64l4.21-2.569-.053,0,.111-.04-.057.035c3.3-.29,7.926-.757,11.3-1.094l-.116-.083.254.069-.138.014,5.114,3.668.161.115c3.2-.935,9.4-2.8,12.6-3.779,1.409.244,7.355.711,9.422.934,1.12-.025,4.24-.126,5.3-.156l1.754-.069.3-.011.034-.356.2-2.082-.212.034.236-.288-.024.254q3.154-.5,6.3-1.07l-.01-.128Z" transform="translate(-209.855 -267.943)" fill="#1c466d"/>
    <path id="Trazado_718278" data-name="Trazado 718278" d="M538.579,519.524l.116.083.138-.014Z" transform="translate(-280.998 -271.055)" fill="#1c466d"/>
    <path id="Trazado_718279" data-name="Trazado 718279" d="M546.017,548.977c.023-.1.125-.506.262-1.049l-.84.153.578.895Z" transform="translate(-284.577 -285.875)" fill="#1c466d"/>
    <path id="Trazado_718280" data-name="Trazado 718280" d="M517.38,539.893l-.153,0-.12.115Z" transform="translate(-269.795 -281.682)" fill="#1c466d"/>
    <path id="Trazado_718281" data-name="Trazado 718281" d="M488.208,557.055c-.056-.022-.121-.052-.2-.087l-.112.148Z" transform="translate(-254.557 -290.591)" fill="#1c466d"/>
    <path id="Trazado_718282" data-name="Trazado 718282" d="M590.555,532.743l-.09,0-.052.11.142-.105Z" transform="translate(-308.042 -277.95)" fill="#1c466d"/>
    <path id="Trazado_718283" data-name="Trazado 718283" d="M565.023,544.624c-.1.017-.207.037-.311.054-.025.138-.051.276-.076.414Z" transform="translate(-294.593 -284.151)" fill="#1c466d"/>
    <path id="Trazado_718284" data-name="Trazado 718284" d="M567.774,533.5l.3,0c.019-.123.038-.247.055-.37Z" transform="translate(-296.23 -278.153)" fill="#1c466d"/>
    <path id="Trazado_718285" data-name="Trazado 718285" d="M546.62,540.37l-.151.6.449.246Z" transform="translate(-285.114 -281.932)" fill="#1c466d"/>
    <path id="Trazado_718286" data-name="Trazado 718286" d="M501.528,541.543l.157.006.118-.149Z" transform="translate(-261.667 -282.469)" fill="#1c466d"/>
    <path id="Trazado_718287" data-name="Trazado 718287" d="M529.722,526.743l.09,0-.142.106.051-.11c-3.719-.17-7.439-.264-11.158-.4-.385,2.045-.772,4.091-1.144,6.141l.311-.055-.387.469c.024-.138.05-.276.076-.414-2.808.493-5.611,1.013-8.417,1.527-.137.543-.239.952-.262,1.049l-.578-.895.84-.153c.35-1.391.922-3.659.953-3.8l-.451-.239-9.144-4.861-.252-.133-.215.207-5.162,4.977.154,0-.273.112.12-.114-7.554-.124-.165,0-.11.146-6.147,8.147a1.9,1.9,0,0,0,.2.087l-.308.062.112-.149c-1.485-.727-6.173-4.183-6.173-4.183l-.592.371s6.774,4.57,6.868,4.65l.158-.2,6.3-7.934-.157-.006.275-.143-.118.15,7.547.3.149.006.125-.118,5.1-4.814-.247-.134.467-.074-.22.208,8.414,4.588.151-.6.3.845-.45-.246-.917,3.637-.268,1.062.846-.167c3.291-.651,6.585-1.286,9.874-1.964.331-2.083.646-4.172.959-6.26l-.3,0,.359-.373c-.019.123-.038.247-.055.37,3.586-.044,7.173-.053,10.759-.133l.043-.1,2.419-5.755-.086-.065-2.562,5.5Z" transform="translate(-247.3 -271.954)" fill="#1c466d"/>
    <path id="Trazado_718288" data-name="Trazado 718288" d="M528.36,531.669l.246.134.221-.208Z" transform="translate(-275.666 -277.353)" fill="#1c466d"/>
    <path id="Trazado_718289" data-name="Trazado 718289" d="M404.31,545.206l-.112-.071-.119.02.231.053Z" transform="translate(-210.824 -284.418)" fill="#1c466d"/>
    <path id="Trazado_718290" data-name="Trazado 718290" d="M432.662,540.544l-.1.016-.09.079Z" transform="translate(-225.636 -282.022)" fill="#1c466d"/>
    <path id="Trazado_718291" data-name="Trazado 718291" d="M455.548,550.573l-.049-.074-.083.006Z" transform="translate(-237.608 -287.216)" fill="#1c466d"/>
    <path id="Trazado_718292" data-name="Trazado 718292" d="M381.865,532.565l.08.054.1-.021Z" transform="translate(-199.234 -277.859)" fill="#1c466d"/>
    <path id="Trazado_718293" data-name="Trazado 718293" d="M405.468,540.367l.049.074-.132-.068c.022,0,.051,0,.083-.006-.958-1.408-1.894-2.843-2.834-4.271l-3.469-4.15-.21-.252c-1.492,1.3-2.973,2.612-4.455,3.928l.1-.016-.193.1.09-.079-3.342.516c-2.186.341-7.831,1.27-10.206,1.662l.112.072-.231-.053.119-.02c-2.677-1.716-7.873-5.023-10.493-6.665l-.088-.055-.087.022q-2.694.682-5.383,1.392c-1.351.347-4.025,1.067-5.378,1.43l.018.126,2.713-.538c2.6-.53,5.438-1.114,8.033-1.669l-.079-.054.176.033-.1.021c2.629,1.782,7.825,5.257,10.413,6.977l.107.071.124-.019c3.895-.591,9.929-1.511,13.776-2.154l.108-.017.086-.078c1.336-1.225,2.673-2.45,4-3.688l-.232-.247.462.033-.23.214,3.418,3.633c.38.54,1.026,1.4,1.479,2.05.514.726,1.034,1.444,1.54,2.18l.174.35c1.529-.235,7.592-.955,9.056-1.621l-.01-.128c-.752-.16-7.973.876-9.091.968Z" transform="translate(-187.577 -277.084)" fill="#1c466d"/>
    <path id="Trazado_718294" data-name="Trazado 718294" d="M441.375,534.444l.232.247.229-.214-.462-.033Z" transform="translate(-230.282 -278.84)" fill="#1c466d"/>
    <path id="Trazado_718295" data-name="Trazado 718295" d="M364.34,527.69c-.066-.148-.133-.294-.2-.439l-.354.144Z" transform="translate(-189.799 -275.087)" fill="#1c466d"/>
    <path id="Trazado_718296" data-name="Trazado 718296" d="M359.253,518.39c.018.038.035.078.053.117l.1-.011-.148-.105Z" transform="translate(-187.436 -270.464)" fill="#1c466d"/>
    <path id="Trazado_718297" data-name="Trazado 718297" d="M404.9,517.013h-.045l-.067.047.111-.048Z" transform="translate(-211.191 -269.745)" fill="#1c466d"/>
    <path id="Trazado_718298" data-name="Trazado 718298" d="M362.826,515.218h.045l-.111.048.066-.047c-1.984.049-4.191.184-6.176.324l-2.07.173-.05,0-.06.022c-3.181,1.226-7.664,3.028-10.964,4.37.069.145.138.291.2.439l-.558-.295.355-.144c-.738-1.539-1.677-2.912-2.289-4.55-2.769.227-6.651.057-8.849.476a80.065,80.065,0,0,0-8.1-2.469l-.027.124c.647.337,1.3.645,1.954.949,1.983.914,3.99,1.739,6.006,2.51,2.961-.159,5.891-.814,8.84-1.159-.018-.039-.034-.078-.053-.117l.148.105-.1.012c.8,1.782,1.239,3.8,2,5.611,3.469-1.332,8.262-3.156,11.687-4.542l-.062.008.11-.027-.048.019,2-.247c2.021-.276,4.258-.6,6.257-.97.762-.707,1.519-1.425,2.266-2.16l-.053-.109c-.8.532-1.585,1.083-2.37,1.642Z" transform="translate(-169.168 -267.949)" fill="#1c466d"/>
    <path id="Trazado_718299" data-name="Trazado 718299" d="M387.852,520.858l.062-.008.048-.019Z" transform="translate(-202.358 -271.737)" fill="#1c466d"/>
    <path id="Trazado_718300" data-name="Trazado 718300" d="M462.06,570.115l.251-.295c-.1-.087-.192-.173-.289-.258Z" transform="translate(-241.054 -297.162)" fill="#1c466d"/>
    <path id="Trazado_718301" data-name="Trazado 718301" d="M373.261,548.767l-.069-.06-.068-.007Z" transform="translate(-194.673 -286.278)" fill="#1c466d"/>
    <path id="Trazado_718302" data-name="Trazado 718302" d="M407.558,562.964l-.2-.143-.212.1Z" transform="translate(-212.423 -293.645)" fill="#1c466d"/>
    <path id="Trazado_718303" data-name="Trazado 718303" d="M470.617,577.3c-.021-.018-.041-.036-.061-.054l-.077.028.139.026Z" transform="translate(-245.467 -301.169)" fill="#1c466d"/>
    <path id="Trazado_718304" data-name="Trazado 718304" d="M531.222,562.836l-.1-.1-.133.006Z" transform="translate(-277.038 -293.603)" fill="#1c466d"/>
    <path id="Trazado_718305" data-name="Trazado 718305" d="M487.753,570.209l-.087.038-.045.077Z" transform="translate(-254.411 -297.5)" fill="#1c466d"/>
    <path id="Trazado_718306" data-name="Trazado 718306" d="M440.112,564.127l-.1-.054-.11.006Z" transform="translate(-229.516 -294.298)" fill="#1c466d"/>
    <path id="Trazado_718307" data-name="Trazado 718307" d="M515.2,550.256l.212.2c.076-.049.154-.1.23-.145l-.441-.051Z" transform="translate(-268.798 -287.09)" fill="#1c466d"/>
    <path id="Trazado_718308" data-name="Trazado 718308" d="M544.656,563.51l.057.028.05,0Z" transform="translate(-284.168 -294.005)" fill="#1c466d"/>
    <path id="Trazado_718309" data-name="Trazado 718309" d="M448.236,549.076l-.047-.025-.061,0-6.484.285.1.1-.232-.09.133-.006c-1.831-1.778-5.406-5.183-7.179-6.884l-.206-.2-.235.145q-5.56,3.425-11.055,7.024l-.077.051-.044.074-2.032,3.4c.029-.013.057-.026.087-.037l-.132.115.045-.078c-1.35.593-2.7,1.18-4.062,1.731-1.208.469-2.884,1.16-4.105,1.593.021.018.041.036.061.054l-.139-.026.077-.028c-1.287-1.118-2.556-2.274-3.833-3.416l-.251.3-.038-.553.289.258c.77-.906,2.574-3.034,2.975-3.506l-.955.041c-3.177.126-9.529.415-12.775.583l.1.054-.206-.048.11-.006-7.427-4.134-.184-.1-.192.087-3.991,1.812-3.772,1.738.2.143-.414-.044.212-.1-4.038-2.841-4.251-2.958-.082-.057-.082-.009c-2.3-.272-5.688-.654-7.963-.88l.069.06-.137-.067.068.007q-3.251-2.824-6.536-5.578l-.056.105q3.167,3.147,6.382,6.208c2.266.385,5.68.914,7.99,1.261l-.071-.053.165.066-.092-.014c2.207,1.622,6.368,4.638,8.541,6.205l.218-.1,3.994-1.8,3.8-1.734-.187-.1.375.015-.188.085,7.374,3.972.1.055.1-.007,6.437-.441,5.52-.413.661-.853.255.784-.916.069-1.76,2.269-.248.32.287.233c1.433,1.166,2.877,2.309,4.3,3.5l.066.056c.716-.3,1.438-.576,2.157-.866,2.047-.8,4.322-1.621,6.379-2.316l.06-.09,2.153-3.248-.064.039.121-.124-.056.085q2.766-1.644,5.513-3.336c1.774-1.1,3.546-2.205,5.312-3.327l-.212-.2.441.052c-.076.049-.153.1-.229.145l3.462,3.231,3.684,3.409.109.1.124-.01,6.557-.559-.057-.028.108.023-.05,0c2.188,1.042,5.394,2.6,7.529,3.576l.036-.119c-1.233-.7-2.472-1.387-3.711-2.071l-3.719-2.043Z" transform="translate(-187.558 -280.2)" fill="#1c466d"/>
    <path id="Trazado_718310" data-name="Trazado 718310" d="M389.384,552.775l.071.053.092.014-.165-.067Z" transform="translate(-203.156 -288.404)" fill="#1c466d"/>
    <path id="Trazado_718311" data-name="Trazado 718311" d="M492.867,564.546l.065-.039.056-.086-.121.124Z" transform="translate(-257.147 -294.481)" fill="#1c466d"/>
    <path id="Trazado_718312" data-name="Trazado 718312" d="M423.757,558.066l.187.1.188-.087Z" transform="translate(-221.091 -291.164)" fill="#1c466d"/>
    <path id="Trazado_718313" data-name="Trazado 718313" d="M465.66,563.114l-.661.853.916-.069Z" transform="translate(-242.608 -293.798)" fill="#1c466d"/>
    <path id="Trazado_718314" data-name="Trazado 718314" d="M351.982,527.339l-.007,0C351.984,527.341,351.986,527.341,351.982,527.339Z" transform="translate(-183.639 -275.133)" fill="#1c466d"/>
    <path id="Trazado_718315" data-name="Trazado 718315" d="M345.9,523.3l.007,0c-.073-.062-3.639-1.176-4.432-1.434l.04.174-.2-.227s.053.02.156.053l-.517-2.274-.624.272.682,2.394.055.2.139.032,4.726,1.084.021-.009,2.885-1.267-2.937,1.01s0,0-.007,0Z" transform="translate(-177.566 -271.087)" fill="#1c466d"/>
    <path id="Trazado_718316" data-name="Trazado 718316" d="M342.593,524.457l-.04-.174c-.1-.034-.16-.053-.155-.053Z" transform="translate(-178.642 -273.511)" fill="#1c466d"/>
    <path id="Trazado_718317" data-name="Trazado 718317" d="M390.464,527.391l.01,0C390.461,527.385,390.459,527.385,390.464,527.391Z" transform="translate(-203.719 -275.158)" fill="#1c466d"/>
    <path id="Trazado_718318" data-name="Trazado 718318" d="M393.659,526.5c-.014-.006-3.921.674-4.455.771l.045.047-.106-.035.062-.012-3.492-3.629-.035-.019-4.493-2.393-.236.8,4.553,2.152s0-.006.01,0l-.01,0c.089.114,3.633,3.468,3.578,3.43l.051.048.056-.013c-.029,0,4.414-.992,4.448-1.02l2.38.84-2.354-.964Z" transform="translate(-198.755 -271.944)" fill="#1c466d"/>
    <path id="Trazado_718319" data-name="Trazado 718319" d="M398.188,533.906s-.018-.017-.045-.047l-.062.012.107.035Z" transform="translate(-207.694 -278.535)" fill="#1c466d"/>
    <path id="Trazado_718320" data-name="Trazado 718320" d="M448.539,515.775l.06.014.05-.036-.109.022Z" transform="translate(-234.02 -269.088)" fill="#1c466d"/>
    <path id="Trazado_718321" data-name="Trazado 718321" d="M436.992,522.815l-.062-.006-.06.041Z" transform="translate(-227.932 -272.769)" fill="#1c466d"/>
    <path id="Trazado_718322" data-name="Trazado 718322" d="M421.284,522.724l.142.01.092-.131Z" transform="translate(-219.8 -272.662)" fill="#1c466d"/>
    <path id="Trazado_718323" data-name="Trazado 718323" d="M444.413,518.255c-.06,0-13.274-3.379-13.33-3.378l-.054.036-5.474,3.757.064.006-.122.034.06-.041-7.475-.738-.137-.014-.1.134-2.775,3.825.482.583,2.63-3.758-.142-.01.234-.121-.092.132,7.4.558.067,0,.055-.04,5.426-3.9-.06-.014.109-.022-.05.036,13.258,3.039c.017.009,4.529-1.437,4.9-1.55-.37.109-4.949,1.447-4.879,1.434Z" transform="translate(-216.56 -268.631)" fill="#1c466d"/>
    <path id="Trazado_718324" data-name="Trazado 718324" d="M350.481,523.254l.033,0,.022-.021Z" transform="translate(-182.86 -272.993)" fill="#1c466d"/>
    <path id="Trazado_718325" data-name="Trazado 718325" d="M348.536,522.837l-.027-.006-.028.022-1.768,1.412.184.355,1.651-1.574-.033,0,.055-.016-.022.021,1.891.22Z" transform="translate(-180.894 -272.781)" fill="#1c466d"/>
    <path id="Trazado_718326" data-name="Trazado 718326" d="M452.955,533.18l.052-.042-.04-.056Z" transform="translate(-236.324 -278.129)" fill="#1c466d"/>
    <path id="Trazado_718327" data-name="Trazado 718327" d="M457.322,539.3l-.035-.049-.048,0Z" transform="translate(-238.559 -281.348)" fill="#1c466d"/>
    <path id="Trazado_718328" data-name="Trazado 718328" d="M461.663,533.8l-.143.008-6.58.359.035.049-.083-.047.048,0-2.045-2.9-.052.042.012-.1.04.056,2.218-1.77-2.32,1.7-.052.037.04.061,2.034,3.1.031.048h.053l6.479-.041-.058-.17.213.17h-.154l1.526,4.421.592-.371-1.762-4.479Z" transform="translate(-236.213 -276.26)" fill="#1c466d"/>
    <path id="Trazado_718329" data-name="Trazado 718329" d="M470.677,539.4l.058.17h.155Z" transform="translate(-245.571 -281.425)" fill="#1c466d"/>
    <path id="Trazado_718330" data-name="Trazado 718330" d="M380.96,515.98l.094.053.078-.03Z" transform="translate(-198.762 -269.206)" fill="#1c466d"/>
    <path id="Trazado_718331" data-name="Trazado 718331" d="M369.939,514.619c-.75.189-1.5.4-2.242.625-.589.194-1.753.509-2.05.66a45.027,45.027,0,0,0-6.009.2l-.094.213a46.41,46.41,0,0,0,6.1.418c.738-.187,1.469-.458,2.2-.692q1.019-.344,2.032-.725l-.093-.053.172.023-.078.029c1.038.582,2.086,1.136,3.162,1.617-1.011-.836-2.051-1.591-3.1-2.32Z" transform="translate(-187.588 -268.496)" fill="#1c466d"/>
    <path id="Trazado_718332" data-name="Trazado 718332" d="M410.229,534.19l-6.344,3.981.286.772,6.444-4.044,2.171-2.808-.463-.608Z" transform="translate(-210.723 -277.294)" fill="#1c466d"/>
    <path id="Trazado_718333" data-name="Trazado 718333" d="M448.217,515.457l5.043,4.5.372-.707-5.256-4.372Z" transform="translate(-233.852 -268.63)" fill="#1c466d"/>
    <path id="Trazado_718334" data-name="Trazado 718334" d="M514.99,520.53l-.877.583,1.253,3.2L521,525.945l.214-1.254-5.184-1.5Z" transform="translate(-268.233 -271.58)" fill="#1c466d"/>
    <path id="Trazado_718335" data-name="Trazado 718335" d="M429.1,567.31l.046-.01-.068.031.022-.02-3.321.778,3.41-.352.024,0,.042-.028,3.559-2.371-.518-1.092Z" transform="translate(-222.147 -294.387)" fill="#1c466d"/>
    <path id="Trazado_718336" data-name="Trazado 718336" d="M432.747,570.635l-.047.01-.021.02Z" transform="translate(-225.746 -297.722)" fill="#1c466d"/>
    <path id="Trazado_718337" data-name="Trazado 718337" d="M387.535,550.819l-2.1,2.188-.124.13.056.142.862,2.157-.5-2.122-.114.069.067-.272.047.2,2.325-1.4Z" transform="translate(-201.032 -287.383)" fill="#1c466d"/>
    <path id="Trazado_718338" data-name="Trazado 718338" d="M385.943,555.882l.115-.069-.047-.2Z" transform="translate(-201.362 -289.883)" fill="#1c466d"/>
    <path id="Trazado_718339" data-name="Trazado 718339" d="M506.479,543.187l.046-.011-.067.032.021-.021-3.321.778,3.41-.351.024,0,.044-.029,3.717-2.519-.521-1.091Z" transform="translate(-262.517 -281.724)" fill="#1c466d"/>
    <path id="Trazado_718340" data-name="Trazado 718340" d="M510.124,546.673l-.046.01-.021.021Z" transform="translate(-266.117 -285.22)" fill="#1c466d"/>
    <path id="Trazado_718341" data-name="Trazado 718341" d="M498.668,566.725l-.052-.033-.072.01Z" transform="translate(-260.11 -295.665)" fill="#1c466d"/>
    <path id="Trazado_718342" data-name="Trazado 718342" d="M500.175,564.058l-.015-.01-.022,0-4.8.708.052.033-.124-.022.072-.011-2.808-1.772-.267.782,2.944,1.557.067.035.057-.013,4.805-1.13-.02-.011.037.008-.018,0,1.742,1.031Z" transform="translate(-256.834 -293.732)" fill="#1c466d"/>
    <path id="Trazado_718343" data-name="Trazado 718343" d="M508.687,565.538l.02.012.018,0Z" transform="translate(-265.402 -295.063)" fill="#1c466d"/>
    <path id="Trazado_718344" data-name="Trazado 718344" d="M540.723,525.235l.066-.166-.1-.169Z" transform="translate(-282.096 -273.86)" fill="#1c466d"/>
    <path id="Trazado_718345" data-name="Trazado 718345" d="M543.524,531.7l-.013-.075-.066-.02Z" transform="translate(-283.536 -277.361)" fill="#1c466d"/>
    <path id="Trazado_718346" data-name="Trazado 718346" d="M541.587,525.8l-.079-.095.066.02-.228-1.32-.006-.036-.027-.043-1.022-1.661-.066.166-.038-.335.1.169.8-2.016-.6-.359-.705,2.281-.062.2.1.133,1.232,1.657-.013-.053.033.078-.02-.026.329,1.307.021.084.059.011,2.13.365-2.029-.6Z" transform="translate(-281.599 -271.454)" fill="#1c466d"/>
    <path id="Trazado_718347" data-name="Trazado 718347" d="M542.491,529.112l.013.053.02.026Z" transform="translate(-283.039 -276.058)" fill="#1c466d"/>
    <path id="Trazado_718348" data-name="Trazado 718348" d="M524.926,541.549l-5.141,2h-4.058v1.284h4.2l5.263-2.05,6.012-2.03-.248-1.243Z" transform="translate(-269.075 -281.485)" fill="#1c466d"/>
    <path id="Trazado_718349" data-name="Trazado 718349" d="M534.868,552.922l5.352-2.879-.286-.772Z" transform="translate(-279.062 -286.576)" fill="#1c466d"/>
    <path id="Trazado_718350" data-name="Trazado 718350" d="M560.478,557.931l0-.007S560.476,557.931,560.478,557.931Z" transform="translate(-292.423 -291.09)" fill="#1c466d"/>
    <path id="Trazado_718351" data-name="Trazado 718351" d="M566.2,552.964l-.143.109.03.191.113-.3Z" transform="translate(-295.333 -288.502)" fill="#1c466d"/>
    <path id="Trazado_718352" data-name="Trazado 718352" d="M561.811,545.729l-.648.142.548,3.427.143-.109-.113.3-.03-.19c-.586.443-2.774,2.1-2.8,2.115l-.01.021-1.176,2.484,1.317-2.35s0,0,0-.007l0,.007c.061,0,3.037-1.909,3.014-1.875l.134-.084-.021-.214-.361-3.665Z" transform="translate(-290.989 -284.728)" fill="#1c466d"/>
    <path id="Trazado_718353" data-name="Trazado 718353" d="M549.71,526.147l8.5,3.21.275-1.087-8.5-3.357Z" transform="translate(-286.805 -273.867)" fill="#1c466d"/>
    <path id="Trazado_718354" data-name="Trazado 718354" d="M488,516.221c-1.232-.3-5.879-2.581-7.141-2.652l-.028.123a10.574,10.574,0,0,0,1.685,1.093c1.151.648,4.808,1.59,5.392,1.877a20.626,20.626,0,0,0,9.276.592l-.088-.464a48.007,48.007,0,0,0-9.1-.57Z" transform="translate(-250.869 -267.949)" fill="#1c466d"/>
    <path id="Trazado_718355" data-name="Trazado 718355" d="M430.85,548.708l-.059.027-6.989,3.221.363,1.194,6.741-3.876-.062-.007.1-.018-.042.025,5.539.6C436.345,549.854,430.969,548.727,430.85,548.708Z" transform="translate(-221.114 -286.282)" fill="#1c466d"/>
    <path id="Trazado_718356" data-name="Trazado 718356" d="M438.526,549.858l.062.007.042-.025Z" transform="translate(-228.796 -286.873)" fill="#1c466d"/>
    <path id="Trazado_718357" data-name="Trazado 718357" d="M460.318,583.808l-.131.084.131.076Z" transform="translate(-240.098 -304.595)" fill="#1c466d"/>
    <path id="Trazado_718358" data-name="Trazado 718358" d="M453.31,571.206l.156-.171-.053.138,3.276-1.032-.171-.827-3.333,1.285-.113.043-.042.128L452,573.847l-.073.215.157.09,3.8,2.179.131-.085v.161l-.131-.076-2.267,1.442,2.454-1.366.133-.074-.131-.085-3.674-2.405-.076.2-.084-.3.16.105,1.024-2.669Z" transform="translate(-235.786 -297.033)" fill="#1c466d"/>
    <path id="Trazado_718359" data-name="Trazado 718359" d="M454.824,573.083l.1-.033.053-.138Z" transform="translate(-237.299 -298.91)" fill="#1c466d"/>
    <path id="Trazado_718360" data-name="Trazado 718360" d="M452.648,578.866l.076-.2-.16-.105Z" transform="translate(-236.12 -301.858)" fill="#1c466d"/>
    <path id="Trazado_718361" data-name="Trazado 718361" d="M488.233,540.786l-.04-.056-.049-.007Z" transform="translate(-254.684 -282.116)" fill="#1c466d"/>
    <path id="Trazado_718362" data-name="Trazado 718362" d="M485.673,537.795l.023.039.044,0Z" transform="translate(-253.395 -280.588)" fill="#1c466d"/>
    <path id="Trazado_718363" data-name="Trazado 718363" d="M484.115,539.046l-.088-.065.048.007-1.1-1.558c-.031-.041-.02-.046-.068-.041l-2.66.116,2.616.114-.023-.039.068.041-.043,0,1.027,1.67.03.05.057.014,5.4,1.323.1-.847-5.4-.843.04.056Z" transform="translate(-250.566 -280.376)" fill="#1c466d"/>
    <path id="Trazado_718364" data-name="Trazado 718364" d="M477.617,560.054l.059.033.05-.022Z" transform="translate(-249.191 -292.202)" fill="#1c466d"/>
    <path id="Trazado_718365" data-name="Trazado 718365" d="M472.046,559.262,472,559.23l-.062.021-5.249,1.756.184.823,5.1-2.172-.059-.033.109.01-.05.023,3.643,2.018Z" transform="translate(-243.49 -291.772)" fill="#1c466d"/>
    <path id="Trazado_718366" data-name="Trazado 718366" d="M430.088,521.557l-.066-.038-.082.013c-.009,0-.023,0-.033,0l-.293.052c-.158.03-.316.056-.476.085h0c-4.085.715-8.549,1.495-12.54,2.3l-4.358.887a.593.593,0,0,1-.073-.021c-.092-.026-.187-.056-.286-.082-.634-.193-1.331-.4-2.058-.621-.095-.031-.194-.06-.292-.09-.138-.038-.28-.082-.418-.124-.007,0-.009,0-.016,0-1.531-.458-3.5-1.167-4.843-1.557l.366-.284c1.5-1.152,3.208-2.488,4.819-3.764-.556.372-1.108.75-1.664,1.122-.28.2-2.225,1.552-3.613,2.514l-.349.244c-.214.145-.407.283-.565.394.187.065.378.124.572.188.129.047.26.09.391.133,1.561.518,3.314,1.075,4.967,1.606l.312.1c.7.222,1.372.441,2.006.642l-.316.407c.109.034.21.069.316.1.145.047.289.09.43.137l.332-.429.033-.047c5.561-.933,11.55-2.3,17.113-3.521.184-.044.369-.082.552-.12a.8.8,0,0,1,.073.034c1.922.917,4.371,2.176,6.442,3.191-1.94-1.054-4.545-2.441-6.32-3.423-.02-.013-.04-.021-.06-.034Z" transform="translate(-210.39 -270.425)" fill="#586b89"/>
    <path id="Trazado_718367" data-name="Trazado 718367" d="M552.01,515.5l-.4.039-.044.27-.227,1.422-.04.261-.04.253-1.482-.03c-.976-.013-4.309-.044-5.263-.056-2.147-.265-7.228-.835-9.536-1.092l-.078-.008-.082.026-6.2,1.884-5.335,1.666h0l-.677.214-.026-.017-5.072-3.538-.125-.085-.131.018-5.733.719c-1.716.214-3.431.441-5.145.668-.217.031-.434.056-.65.086l-.049.034s-.105.069-.285.184c-.164.111-.391.261-.65.433-1.235.817-3.264,2.155-3.268,2.155-1.193.784-2.9,1.918-4.109,2.7h.026c1.239-.779,3.037-1.864,4.3-2.639l3.826-2.335.023.056.138.356.223-.137.608-.052h0c.062-.008.125-.013.191-.018l-.191-.492c3.244-.291,7.518-.724,10.686-1.044l1.056.758-.129.42.129.095.385.274.161-.4.158.116,3.356,2.408.158.116.04-.013h.01l.759.286c.368-.111.766-.227,1.183-.351.24-.069.483-.142.736-.219l-.736-.291c3.35-.993,7.988-2.39,10.607-3.191,1.388.24,7.182.7,9.329.925l-.227.484a1.153,1.153,0,0,1,.138.018l.2-.493h0c1.144-.026,4.22-.129,5.276-.158l1.755-.069.3-.008.033-.355.147-1.563.02-.2.032-.325q1.134-.174,2.268-.368c-.75.064-1.5.129-2.251.2-.023,0-.046,0-.069,0Z" transform="translate(-259.488 -268.851)" fill="#586b89"/>
    <path id="Trazado_718368" data-name="Trazado 718368" d="M519.4,531.489a.9.9,0,0,1-.114,0c-.1,0-.2,0-.3-.008-.033.167-.062.338-.095.506s-.06.317-.089.475q-.439,2.312-.865,4.634c-.016.095-.033.188-.049.283s-.032.163-.045.244c-2.807.493-5.611,1.015-8.415,1.526.044-.167.086-.348.134-.536l-.134.026c.263-1.044.65-2.591.841-3.345l-.341-.18-.251-.133-.454-.24-8.442-4.485-.076-.044-.04-.021-.007,0-.036-.018-.093-.052-.026.026h0l-.187.184-.454.436-.407.395-4.224,4.073-.073.069-.6-.008-6.958-.111-.164,0-.112.146-.716.951-.187.245-.214.286-.329.433-4.7,6.232c-1.489-.727-6.173-4.18-6.173-4.18l-.2.124c1.446.977,6.393,4.318,6.473,4.385l.158-.2,4.954-6.233.175-.222,1.177-1.482,6.176.244-.509.493.509.021.861.03.594-.4.184-.124-.023-.052.025-.026,4.717-4.45.267-.248v0l.118-.111,7.471,4.078.452.286.38.676.095.051.016.008-.138.544-.727,2.879-.053.214-.105.408v0l-.029.116-.062.248.7-.377h0l.062-.012h.007c3.059-.6,6.12-1.2,9.174-1.825a.5.5,0,0,0,.082-.018l.078.5c.178-.039.354-.072.532-.111h.007c.01-.06.02-.116.026-.175v0l-.033-.334h.007c.332-2.081.647-4.171.959-6.262,3.05-.039,6.1-.047,9.148-.1-3.106-.129-6.213-.214-9.319-.33h0Z" transform="translate(-247.727 -276.58)" fill="#586b89"/>
    <path id="Trazado_718369" data-name="Trazado 718369" d="M590.753,530.16l.044-.1,1.291-3.075-1.479,3.183a1.445,1.445,0,0,1,.145,0Z" transform="translate(-308.144 -274.947)" fill="#586b89"/>
    <path id="Trazado_718370" data-name="Trazado 718370" d="M360.146,537.872c.044.043.082.085.125.124l.214-.044c-.053-.043-.105-.09-.158-.129-.062.018-.125.031-.181.047Z" transform="translate(-187.902 -280.603)" fill="#586b89"/>
    <path id="Trazado_718371" data-name="Trazado 718371" d="M409.19,537.159l-3.471-4.15-.211-.253c-1.492,1.3-2.974,2.617-4.454,3.932l-3.343.513c-1.67.261-5.372.87-8.083,1.31h0c-.395.069-.767.129-1.108.184h0l-.954.158a.2.2,0,0,1-.053.008c-.036-.021-.073-.047-.109-.069-2.708-1.735-7.8-4.977-10.387-6.6l-.086-.056-.089.021q-2.377.6-4.751,1.225c1.6-.33,3.221-.668,4.753-.993,2.629,1.782,7.826,5.256,10.413,6.978l.106.072.085-.012.04-.009.911-.137c3.875-.591,9.308-1.422,12.865-2.018l.109-.017.085-.077c1.337-1.225,2.672-2.449,4-3.688l3.419,3.632c.381.539,1.026,1.4,1.479,2.052.513.724,1.035,1.443,1.539,2.18l.175.347c1.183-.184,5.075-.655,7.455-1.165-2.4.227-6.656.827-7.5.895-.959-1.409-1.9-2.844-2.834-4.271Z" transform="translate(-194.132 -277.638)" fill="#586b89"/>
    <path id="Trazado_718372" data-name="Trazado 718372" d="M334.34,517.51h0l-.207.039a.139.139,0,0,0-.023-.008c-2.147-.753-4.305-1.474-6.489-2.057l.336.154c1.936.895,3.891,1.7,5.857,2.454l.02.082.142.488c.167-.008.338-.021.506-.03a.945.945,0,0,1,.115-.009l-.115-.5c2.356-.175,4.694-.629,7.038-.964C339.059,517.257,336.187,517.2,334.34,517.51Z" transform="translate(-170.931 -268.948)" fill="#586b89"/>
    <path id="Trazado_718373" data-name="Trazado 718373" d="M375.021,517.549l-2.071.175H372.9l-.06.026c-.007,0-.01,0-.016,0l-.062.026c-.121.047-.243.095-.369.142-.078.034-.158.064-.236.09l-2.031.8c-.069.026-.142.056-.21.082-2.6,1.028-5.5,2.193-7.839,3.144,0,0,0,0-.007,0l-.194.077c-.04-.082-.076-.158-.118-.24-.029-.06-.059-.12-.092-.184-.661-1.3-1.437-2.5-1.982-3.885-.033-.082-.066-.158-.095-.24a1.378,1.378,0,0,1-.142.008c.023.052.045.1.069.154v0l-.023.046c.013,0,.029,0,.044,0,.723,1.7,1.154,3.6,1.87,5.311,2.449-.938,5.552-2.124,8.373-3.225.125-.051.247-.1.371-.145h0l.592.278.382-.154c.184-.072.369-.146.549-.214l-.549-.3c.69-.274,1.353-.54,1.973-.789l2-.244c2.022-.274,4.26-.6,6.259-.968.322-.3.645-.6.963-.908-.374.261-.75.523-1.121.788-1.982.047-4.195.184-6.177.325Z" transform="translate(-187.538 -269.445)" fill="#586b89"/>
    <path id="Trazado_718374" data-name="Trazado 718374" d="M411.831,555.918c-.082-.073-.164-.146-.247-.219.4-.475,1.092-1.289,1.713-2.022.085-.1.167-.2.25-.3.029-.034.06-.069.089-.108l.194-.227.678-.286s0,0,0,0a.658.658,0,0,0,.049-.056l-.454.021-.438.017h-.007l-.029,0H413.6c-.029,0-.062,0-.095,0-.142,0-.289.013-.444.018-3.31.137-9.17.4-12.241.562l-.187-.108h0l-.308-.171h0l-5.848-3.259-.451-.248h0l-.618-.348-.145-.082-.04-.021-.076.034-.118.052-3.991,1.812-3.77,1.739-4.04-2.84-4.142-2.882-.109-.077-.082-.06-.082-.008c-.1-.013-.2-.026-.309-.034-2.281-.27-5.483-.629-7.656-.843q-2.016-1.76-4.049-3.486,1.913,1.87,3.842,3.709c2.06.351,5.072.822,7.34,1.165l-.427.446.427.064c.227.034.447.065.654.1l.02.013.016-.009.013-.008.352-.209c.082.059.167.12.256.188h0c2.3,1.688,5.9,4.3,7.879,5.722l.217-.1,3.993-1.8,3.8-1.735.1.056h0l.336.185,6.14,3.307-.338.325.341.184.592.322.46-.309.089-.056,6.3-.433,5.519-.411-.418.54.418-.031-1.368,1.765-.049.064-.154.2-.194.253-.243.312.421-.133.033-.008.154.124c.04.031.076.065.115.095,1.288,1.041,2.583,2.073,3.862,3.144l.066.056a.035.035,0,0,1,.01,0c-1.272-1.105-2.527-2.248-3.79-3.375l.25-.291Z" transform="translate(-190.327 -283.042)" fill="#586b89"/>
    <path id="Trazado_718375" data-name="Trazado 718375" d="M512.243,555.8l-.062,0-6.486.286c-1.489-1.452-4.135-3.98-6.026-5.787-.187-.18-.368-.351-.539-.513-.224-.209-.427-.407-.615-.587l-.191-.184-.012-.013-.02.013-.029.018-.187.116q-5.3,3.263-10.535,6.686c-.121.077-.24.158-.362.235h0c-.053.034-.1.069-.154.1l-.078.051-.044.073-2.035,3.4q-1.306.579-2.613,1.131c.992-.36,1.986-.706,2.929-1.024l.059-.09,1.808-2.725.251-.376.374.2.306-.18c.138-.082.276-.167.414-.253l-.414-.261c1.647-.98,3.29-1.983,4.93-2.985,1.775-1.105,3.546-2.206,5.312-3.328l.043.039.5.462,2.923,2.728,3.684,3.409.109.1.125-.009,6.554-.561c.921.437,2.025.972,3.152,1.511l-3.017-1.657-.046-.026Z" transform="translate(-251.61 -286.436)" fill="#586b89"/>
    <path id="Trazado_718376" data-name="Trazado 718376" d="M341.5,522.411l-.007-.034-.24-1.049-.115-.505-.04-.171-.407.18-.086.038.142.488.411,1.448.056.2.138.031c.007,0,.118.025.305.069.378.09,1.059.244,1.779.407-.78-.248-1.506-.48-1.818-.578l-.118-.518Z" transform="translate(-177.708 -271.644)" fill="#586b89"/>
    <path id="Trazado_718377" data-name="Trazado 718377" d="M385.727,524.683l-3.333-1.778-.552-.291-.608-.325-.105.356-.082.283c.125-.052.247-.1.371-.145h0l.592.278,3.537,1.671c.105.121,2.038,1.957,3.021,2.891-1.032-1.07-2.794-2.9-2.807-2.916l-.036-.021Z" transform="translate(-198.807 -272.498)" fill="#586b89"/>
    <path id="Trazado_718378" data-name="Trazado 718378" d="M418.083,519.408l-.134-.013-.1.133-2.281,3.144-.3.412-.007.008-.191.261.273.334.312.1.332-.475.3-.424c-.1-.026-.2-.056-.3-.085l2.193-3.132,7.406.557.069,0,.053-.038,4.832-3.47-4.986,3.426-7.475-.74Z" transform="translate(-216.561 -269.595)" fill="#586b89"/>
    <path id="Trazado_718379" data-name="Trazado 718379" d="M448.4,515.939l-.056.039-.082.056.089.082.391.348h0l.387.09h0l.841.193-.7-.587c-.543-.137-.868-.219-.874-.219Z" transform="translate(-233.876 -269.185)" fill="#586b89"/>
    <path id="Trazado_718380" data-name="Trazado 718380" d="M346.921,526.335l-.01.008.407.129.036-.034.365-.348c-.115-.038-.233-.072-.352-.111Z" transform="translate(-180.997 -274.423)" fill="#586b89"/>
    <path id="Trazado_718381" data-name="Trazado 718381" d="M453.212,533.771l.063.09.095-.077-.059-.086Z" transform="translate(-236.458 -278.451)" fill="#586b89"/>
    <path id="Trazado_718382" data-name="Trazado 718382" d="M469.442,539.732l-.069-.176-.145.008-.089,0-.078,0-1.544.09,1.572-.013,1.433,4.158c-.053,0-.109,0-.171,0l.106.3c.056-.017.109-.034.158-.051v0l.394.265.2-.124-.162-.412-1.6-4.069Z" transform="translate(-243.921 -281.507)" fill="#586b89"/>
    <path id="Trazado_718383" data-name="Trazado 718383" d="M359.638,518.777l-.073.163v0l-.023.047c.013,0,.029,0,.044,0,.049.008.1.017.147.021.076.013.154.021.231.03q-.069-.147-.129-.3l-.2.026Z" transform="translate(-187.587 -270.652)" fill="#586b89"/>
    <path id="Trazado_718384" data-name="Trazado 718384" d="M369.163,516.314c-.592.193-1.755.51-2.051.659-1.617.021-3.172-.047-4.76.069,1.584.171,3.172.235,4.76.257.739-.188,1.47-.458,2.2-.693.681-.227,1.353-.467,2.031-.724.456.257.917.505,1.38.75-.438-.322-.877-.634-1.321-.943-.75.188-1.5.4-2.238.626Z" transform="translate(-189.054 -269.055)" fill="#586b89"/>
    <path id="Trazado_718385" data-name="Trazado 718385" d="M385.2,518.832l-.371.142q.286.147.572.286c.276.133.552.266.832.39-.2-.163-.395-.325-.595-.48-.145-.116-.289-.232-.438-.338Z" transform="translate(-200.78 -270.694)" fill="#586b89"/>
    <path id="Trazado_718386" data-name="Trazado 718386" d="M412.322,532.553l-.181.235-.316.407-1.6,2.065-4.974,3.118-1.1.694-.112.073-.154.095.151.412.04-.009.91-.137,1.23-.775h0l1.1-.694-1.114.188,4.405-2.766,1.644-2.124.332-.428-.026-.034-.24-.317Z" transform="translate(-210.722 -277.853)" fill="#586b89"/>
    <path id="Trazado_718387" data-name="Trazado 718387" d="M453.187,519.841l-3.951-3.289h0l-.733-.613-.049.176.391.347h0l3.875,3.461c-.158.026-.316.056-.476.082l.476.428h0l.263.235c.184-.043.369-.082.552-.12.023.008.045.021.072.033l.122-.231.02-.038-.187-.154-.378-.317Z" transform="translate(-233.974 -269.185)" fill="#586b89"/>
    <path id="Trazado_718388" data-name="Trazado 718388" d="M521.182,525.7l-.4-.116-4.576-1.323-.789-2.018h0l-.195-.5-.056-.145-.263.176h0l-.187.124-.122.082s0,0-.007,0h0l-.134.09,1.1,2.8,5.637,1.631.131-.77-.118-.034h0Z" transform="translate(-268.402 -272.139)" fill="#586b89"/>
    <path id="Trazado_718389" data-name="Trazado 718389" d="M432.684,571.735l.066-.029-.046.008Z" transform="translate(-225.748 -298.281)" fill="#586b89"/>
    <path id="Trazado_718390" data-name="Trazado 718390" d="M436.023,565.311l-.382.365L435.3,566l-2.387,2.291h.023l.042-.031,2.912-1.94.461-.308-.023-.046Z" transform="translate(-225.87 -294.944)" fill="#586b89"/>
    <path id="Trazado_718391" data-name="Trazado 718391" d="M387.691,551.888l-.427.446-.427.445-1.226,1.277.158.389v0l.322.8-.207-.866.105-.065-.105-.446,1.628-.981.016-.008.013-.008.352-.21c.082.06.167.121.256.188l-.125-.27Z" transform="translate(-201.188 -287.941)" fill="#586b89"/>
    <path id="Trazado_718392" data-name="Trazado 718392" d="M513.581,541.107l-.007-.012-.022-.052-.608.583-.513.493-2.147,2.055.027,0,.042-.026,2.939-2,.595-.4-.039-.085Z" transform="translate(-266.235 -282.283)" fill="#586b89"/>
    <path id="Trazado_718393" data-name="Trazado 718393" d="M493.2,564.482l-.418-.266-.253-.158-.118.346-.149.433.007,0,.249-.377.374.2,2.314,1.225.066.034.059-.012.894-.21-.887.133Z" transform="translate(-256.833 -294.291)" fill="#586b89"/>
    <path id="Trazado_718394" data-name="Trazado 718394" d="M541.46,525.436l-.026-.042-1.023-1.658.122-.309v0l-.122-.2.443-1.118.162-.4.158.116.042-.112-.164-.1-.434-.256-.016.055-.131.42-.51,1.64,1.223,1.645.329,1.307.02.085.06.01.055.008-.18-1.057Z" transform="translate(-281.719 -272.013)" fill="#586b89"/>
    <path id="Trazado_718395" data-name="Trazado 718395" d="M530.955,540.585l-.888.3-.576.193h0l-4.565,1.542-5.141,2h-4.056v.822l.5.462h1.44c-.184-.175-.362-.347-.532-.513h2.8l5.263-2.047,5.1-1.722-.138.557.138-.046.91-.309-.095-.48Z" transform="translate(-269.074 -282.044)" fill="#586b89"/>
    <path id="Trazado_718396" data-name="Trazado 718396" d="M542.98,550.337l-.54.386v0l-.158.111-1.577,1.135,1.643-.882.7-.378h0l.062-.011-.007-.018Z" transform="translate(-282.107 -287.132)" fill="#586b89"/>
    <path id="Trazado_718397" data-name="Trazado 718397" d="M565.33,546.9l-.009-.1-.569.124-.078.017.013.09a.544.544,0,0,0,.082-.018l.078.5.374,2.343a.353.353,0,0,0-.073.056l.073.454c-.162.121-.443.335-.766.583.3-.193.578-.368.779-.493.026-.017.049-.034.073-.046.158-.1.256-.158.26-.158l.089-.056-.276-2.792-.049-.5Z" transform="translate(-294.498 -285.286)" fill="#586b89"/>
    <path id="Trazado_718398" data-name="Trazado 718398" d="M558.591,529.334l-.106-.043-.368-.145-6.238-2.462-.74-.291-1.042-.411-.167.763,0,0h.009l.759.286,7.3,2.758c-.029.158-.059.317-.089.475l.089.034.332.124.164-.655.009-.039v0l.1-.389-.007,0h0Z" transform="translate(-286.918 -274.424)" fill="#586b89"/>
    <path id="Trazado_718399" data-name="Trazado 718399" d="M483.327,515.508a28.916,28.916,0,0,0,4.06,1.43c-1.531-.625-3.724-1.611-5-1.982C482.7,515.157,483.013,515.337,483.327,515.508Z" transform="translate(-251.681 -268.672)" fill="#586b89"/>
    <path id="Trazado_718400" data-name="Trazado 718400" d="M505.146,521.063l-.066-.361a.319.319,0,0,1-.044-.017h-.007a4.4,4.4,0,0,0-.529-.111,55.877,55.877,0,0,0-8.369-.446,21.959,21.959,0,0,0,7.961.715c-.273.18-.582.386-.9.6.3-.021.6-.051.9-.09.256-.034.512-.073.772-.124h.007c.053-.008.1-.021.154-.031l.007,0,.131-.025-.01-.056-.009-.051Z" transform="translate(-258.851 -271.353)" fill="#586b89"/>
    <path id="Trazado_718401" data-name="Trazado 718401" d="M430.792,549.8l-6.246,2.879h0l-.5.232-.105.047-.134.064.263.874h0l.336.185.854-.493.451-.257-.451-.253,5.641-3.246.5.056-.549-.111-.06.026Z" transform="translate(-221.115 -286.841)" fill="#586b89"/>
    <path id="Trazado_718402" data-name="Trazado 718402" d="M459.309,584.417l.129.074.19-.1-.135-.09Z" transform="translate(-239.639 -304.85)" fill="#586b89"/>
    <path id="Trazado_718403" data-name="Trazado 718403" d="M456.68,570.4l0-.021-.21.081-3.126,1.2-.112.043-.042.129-.963,2.861.013.009.318.184.149-.39-.158-.1,1.025-2.672,2.755-.866.42-.133-.006-.042Z" transform="translate(-235.943 -297.59)" fill="#586b89"/>
    <path id="Trazado_718404" data-name="Trazado 718404" d="M487.582,540.915l.033.047.047.013-.34-.48Z" transform="translate(-254.255 -281.997)" fill="#586b89"/>
    <path id="Trazado_718405" data-name="Trazado 718405" d="M494.929,542.846l-.343-.052-3.477-.544,3.281.8-.325.433.322.077.512.129.175-.222.069-.592-.058-.008Z" transform="translate(-256.231 -282.913)" fill="#586b89"/>
    <path id="Trazado_718406" data-name="Trazado 718406" d="M466.831,562.4h-.007l-.029.013-.106.034.109.488c.066-.077.131-.154.194-.227l.677-.286s0,0,0,0l3.3-1.4-3.553,1.191-.592.2Z" transform="translate(-243.49 -292.701)" fill="#586b89"/>
    <path id="Trazado_718407" data-name="Trazado 718407" d="M435.62,257.837l-1.439-4.03c-3.287,7.744-3.059,19.428.79,27.7,3.02.474,5.638.809,7.914,1.038-.577-2.164-1.166-4.326-1.783-6.48C439.36,269.977,436.836,264.059,435.62,257.837Z" transform="translate(-225.332 -132.421)"/>
    <path id="Trazado_718408" data-name="Trazado 718408" d="M537.814,159.365l-.021-.034c-.063-.11-.129-.216-.2-.321l-5.195-8.514-5.194,8.511c-.07.108-.137.217-.2.33l-.019.031a6.2,6.2,0,1,0,10.825,0Z" transform="translate(-274.541 -78.519)" fill="#265e91" stroke="#4db1f0" stroke-miterlimit="10" stroke-width="1"/>
    <g id="Grupo_1013459" data-name="Grupo 1013459" transform="translate(251.662 79.561)" opacity="0.15">
      <g id="Grupo_1013458" data-name="Grupo 1013458" opacity="0.9">
        <path id="Trazado_718409" data-name="Trazado 718409" d="M527.772,166.354l-.565.925q-.105.161-.2.33l-.019.03h0a6.191,6.191,0,1,0,11.493,4.188c-6.081,2.378-11.141-2.09-10.709-5.472Z" transform="translate(-526.203 -166.354)" fill="#2f4171"/>
      </g>
    </g>
    <path id="Trazado_718410" data-name="Trazado 718410" d="M545.019,172.356a2.413,2.413,0,1,0,1,2.823A2.155,2.155,0,0,0,545.019,172.356Z" transform="translate(-282.958 -89.882)" fill="#fff" opacity="0.28"/>
    <path id="Trazado_718411" data-name="Trazado 718411" d="M393.633,369.953c-.2-.5-.4-.992-.616-1.478a5.562,5.562,0,0,0-1.95-2.546c-.293-.181-1.491-.485-1.227.251.1.284.444.518.628.757a4.882,4.882,0,0,1,.56.924,8.675,8.675,0,0,1,.319.827c.255.749.482,1.509.743,2.257a3.427,3.427,0,0,0,.439.924,1.269,1.269,0,0,0,.845.535.787.787,0,0,0,.827-.473,1.289,1.289,0,0,0-.126-.875Z" transform="translate(-203.375 -190.805)" fill="#f18a8b"/>
    <path id="Trazado_718412" data-name="Trazado 718412" d="M395.219,370.5c-.2-.5-.4-.992-.617-1.478a5.563,5.563,0,0,0-1.95-2.545c-.292-.181-1.491-.485-1.227.25.1.284.445.518.628.757a4.86,4.86,0,0,1,.559.924,8.684,8.684,0,0,1,.319.827c.255.75.482,1.509.743,2.257a3.445,3.445,0,0,0,.439.924,1.27,1.27,0,0,0,.845.534.788.788,0,0,0,.827-.473,1.292,1.292,0,0,0-.127-.875C395.512,371.238,395.364,370.871,395.219,370.5Z" transform="translate(-204.202 -191.092)" fill="#f5b0a6"/>
    <path id="Trazado_718413" data-name="Trazado 718413" d="M384.665,361.118a14.37,14.37,0,0,0-2.457-2.82,37.143,37.143,0,0,0-4.157-3.574c-.022-.016-.044-.03-.065-.046a1.853,1.853,0,0,1-.545-.528c-.039-.065.018-.267.133-.553-.378.072-.759.117-1.15.164a11.888,11.888,0,0,0-2.191.5c-.377.119-.751.249-1.123.381a9.435,9.435,0,0,0,1.455,4.1,21.071,21.071,0,0,0,1.166,1.983,19.865,19.865,0,0,0,2.563,2.511,3.308,3.308,0,0,0,.568.495c.994.62,1.445-.625,1.129-1.411a1.767,1.767,0,0,0-.1-.212,4.967,4.967,0,0,0-.93-1.028,3.294,3.294,0,0,1-.523-.611c-.12-.193-.312-.432-.2-.669a.981.981,0,0,1,.646-.418,1.456,1.456,0,0,1,.8.09,4.123,4.123,0,0,1,.553.261c.466.251.91.527,1.368.786a4.509,4.509,0,0,1,1.6,1.386,13.462,13.462,0,0,1,1,2c.331.727.743,1.736,1.577,1.992a.605.605,0,0,0,.731-.617,1.629,1.629,0,0,0-.164-.591,27.339,27.339,0,0,0-1.67-3.572Z" transform="translate(-194.665 -184.485)" fill="#f5b0a6"/>
    <path id="Trazado_718414" data-name="Trazado 718414" d="M383.741,366.862a3.279,3.279,0,0,1-.523-.611c-.12-.193-.312-.431-.2-.669a.986.986,0,0,1,.646-.417,1.455,1.455,0,0,1,.8.09,5.014,5.014,0,0,0-.454-.292,1.8,1.8,0,0,0-.907-.284.827.827,0,0,0-.77.476.957.957,0,0,0,.1.774,4.16,4.16,0,0,0,1.451,1.315,4.432,4.432,0,0,1,.786.648,4.981,4.981,0,0,0-.93-1.028Z" transform="translate(-199.454 -190.267)" fill="#f18a8b"/>
    <path id="Trazado_718415" data-name="Trazado 718415" d="M286.616,525.683l5.466,2.671,1.5-3.418.321-8.546-7.393.32Z" transform="translate(-149.483 -269.42)" fill="#f5b0a6"/>
    <path id="Trazado_718416" data-name="Trazado 718416" d="M339.5,525.683l5.465,2.671,1.5-3.418.321-8.546-7.393.32Z" transform="translate(-177.072 -269.42)" fill="#f5b0a6"/>
    <path id="Trazado_718417" data-name="Trazado 718417" d="M318.552,340.589c-2.091-8.983-7.616-22.807-7.616-22.807l-5.466.413-16.494,1.242,8.465,32.547,2.8,5.02,1.61,2.892,2.73,4.9,4.918,8.837.031,42.855,14.192-.484c.75-4.487,2.493-25,1.971-43.312C325.441,363.983,321.927,355.1,318.552,340.589Z" transform="translate(-150.77 -165.799)" fill="#2e6a90"/>
    <path id="Trazado_718418" data-name="Trazado 718418" d="M313.157,360.548c-1.441,1.29-2.9,2.572-4.336,3.875l1.128,12.243.55,2.275.091.375,1.322,5.48.287-2.589,2.729,4.905q-.021-10.13-1.035-20.228Q313.575,363.712,313.157,360.548Z" transform="translate(-161.124 -188.111)" fill="#1c466d" opacity="0.66"/>
    <path id="Trazado_718419" data-name="Trazado 718419" d="M280.505,313.7a52.465,52.465,0,0,0-6.565,18.995c-3.573,24.779,2,81.911,2,81.911h14.07l3.072-54.251.287-2.588,1.694-15.324,2.9-26.24-.974-.139L280.5,313.7Z" transform="translate(-142.302 -163.669)" fill="#2e6a90"/>
    <path id="Trazado_718420" data-name="Trazado 718420" d="M350.575,290.346q-1.537-2.992-3.1-5.971c-2.027-3.875-4.1-7.8-6.077-11.653-1.062-2.066-1-4.888-1.327-7.186-.357-2.528-.733-5.053-1.194-7.565q-.545-2.978-1.181-5.938a23.729,23.729,0,0,0-1.431-5.231c-1.984-4.2-6.392-6.177-10.657-7.351a1.086,1.086,0,0,0-1.356,1.031,52.543,52.543,0,0,0,.192,9.611c.484,4.341,2.251,8.471,3.691,12.556,1.365,3.871,1.992,8.007,3.673,11.757.709,1.583,1.23,3.93,2.114,5.425,2.239,3.785,3.961,7.507,6.51,11.044,1.156,1.605,2.119,3.1,3.316,4.676.7.922,1.625,3.252,3.093,2.841a29.463,29.463,0,0,0,2.736-1.26c.947-.622,2.395-1.211,2.9-2.279.256-.544-.165-1.109-.406-1.583Q351.325,291.806,350.575,290.346Z" transform="translate(-169.104 -124.91)" fill="#ffb662"/>
    <path id="Trazado_718421" data-name="Trazado 718421" d="M306.089,247.117c-.118-2.01-.428-6.73-.428-6.73s-3.031-1.817-4.608-2.564a24.2,24.2,0,0,0-6.79-2.037,27.7,27.7,0,0,0-10.743.743,31.139,31.139,0,0,0-4.527,1.5.08.08,0,0,1-.016.007,4.123,4.123,0,0,1,2.036,3.311,30.7,30.7,0,0,1-4.068,19.857s-1.57,9.631-2.469,14.54c-.571,3.117-2.144,13.781-1.714,14.1,3.067,2.292,36.97,2.456,36.97.855,0-6.113-1.384-13.015-1.822-19.122C307.537,266.384,306.261,250.012,306.089,247.117Z" transform="translate(-142.272 -122.892)" fill="#ffa031"/>
    <path id="Trazado_718422" data-name="Trazado 718422" d="M293.59,309.333l-2.768-1.748-2.77-1.747-1.774,2.794s-7.069-1.577-10.895,4.45l8.532,5.382,8.532,5.382c3.826-6.027-.631-11.72-.631-11.72l1.772-2.794Z" transform="translate(-143.679 -159.568)" fill="#99b1da"/>
    <path id="Trazado_718423" data-name="Trazado 718423" d="M286.635,331.554,270.1,321.122a1.254,1.254,0,0,0-1.721.386l-3.439,5.418a1.245,1.245,0,0,0,.386,1.716l16.537,10.433a1.253,1.253,0,0,0,1.721-.386l3.44-5.418a1.247,1.247,0,0,0-.387-1.716Z" transform="translate(-138.128 -167.442)" fill="#99b1da"/>
    <path id="Trazado_718424" data-name="Trazado 718424" d="M270.441,357.063,253.9,346.63a1.253,1.253,0,0,0-1.721.386l-3.44,5.417a1.245,1.245,0,0,0,.387,1.716l16.537,10.433a1.253,1.253,0,0,0,1.721-.386l3.44-5.418A1.245,1.245,0,0,0,270.441,357.063Z" transform="translate(-129.679 -180.75)" fill="#99b1da"/>
    <path id="Trazado_718425" data-name="Trazado 718425" d="M252.759,382.568l-16.537-10.433a1.254,1.254,0,0,0-1.721.385l-4.807,7.574a1.246,1.246,0,0,0,.386,1.716l16.537,10.432a1.254,1.254,0,0,0,1.721-.385l4.807-7.574a1.244,1.244,0,0,0-.387-1.715Z" transform="translate(-119.74 -194.057)" fill="#99b1da"/>
    <path id="Trazado_718426" data-name="Trazado 718426" d="M259.193,341.386l17.063,10.764,2.971-4.679-17.063-10.765Z" transform="translate(-135.231 -175.672)" fill="#99b1da"/>
    <path id="Trazado_718427" data-name="Trazado 718427" d="M243,366.892l17.062,10.765,2.97-4.68-17.062-10.764Z" transform="translate(-126.784 -188.98)" fill="#99b1da"/>
    <path id="Trazado_718428" data-name="Trazado 718428" d="M243.739,372.948l.073.11a1.3,1.3,0,0,1,.34.15Z" transform="translate(-127.168 -194.581)" fill="#b5cae8"/>
    <path id="Trazado_718429" data-name="Trazado 718429" d="M235.943,373.758l-4.037,6.358a1.394,1.394,0,0,0,.383,1.931l15.074,9.51a1.4,1.4,0,0,0,1.914-.482l-11.76-17.947a1.428,1.428,0,0,0-1.575.631Z" transform="translate(-120.874 -194.649)" fill="#b5cae8"/>
    <path id="Trazado_718430" data-name="Trazado 718430" d="M307.642,304.926l-6.743-4.253a.548.548,0,0,0-.753.17l-1.391,2.191a.542.542,0,0,0,.168.75l6.743,4.254a.547.547,0,0,0,.752-.168l1.391-2.191a.545.545,0,0,0-.169-.751Z" transform="translate(-155.827 -156.828)" fill="#668dbc"/>
    <g id="Grupo_1013460" data-name="Grupo 1013460" transform="translate(142.879 145.806)" opacity="0.3">
      <path id="Trazado_718431" data-name="Trazado 718431" d="M299.047,304.867l-.2.319a.638.638,0,0,0,.2.878l6.587,4.155a.639.639,0,0,0,.88-.2l1.292-2.035a.627.627,0,0,0,.062-.525,10.58,10.58,0,0,1-8.816-2.595Z" transform="translate(-298.747 -304.866)" fill="#1c466d"/>
    </g>
    <g id="Grupo_1013461" data-name="Grupo 1013461" transform="translate(143.225 144.15)" opacity="0.4">
      <path id="Trazado_718432" data-name="Trazado 718432" d="M301.109,301.45l-.04-.024a.135.135,0,0,0-.187.042l-1.39,2.189a.138.138,0,0,0,.042.188l.04.024a.136.136,0,0,0,.187-.042l1.39-2.189A.138.138,0,0,0,301.109,301.45Z" transform="translate(-299.471 -301.404)" fill="#1c466d"/>
    </g>
    <g id="Grupo_1013462" data-name="Grupo 1013462" transform="translate(143.704 144.439)" opacity="0.4">
      <path id="Trazado_718433" data-name="Trazado 718433" d="M302.02,302.012a.026.026,0,0,0-.037.008l-1.506,2.372a.027.027,0,0,0,.008.037l.224.142a.027.027,0,0,0,.037-.008l1.507-2.372a.027.027,0,0,0-.008-.038l-.224-.14Z" transform="translate(-300.472 -302.007)" fill="#1c466d"/>
    </g>
    <g id="Grupo_1013463" data-name="Grupo 1013463" transform="translate(144.265 144.807)" opacity="0.4">
      <path id="Trazado_718434" data-name="Trazado 718434" d="M303.284,302.823l-.039-.024a.138.138,0,0,0-.188.042l-1.39,2.19a.135.135,0,0,0,.042.187l.038.024a.137.137,0,0,0,.188-.043l1.39-2.189A.136.136,0,0,0,303.284,302.823Z" transform="translate(-301.646 -302.777)" fill="#1c466d"/>
    </g>
    <g id="Grupo_1013464" data-name="Grupo 1013464" transform="translate(144.785 145.136)" opacity="0.4">
      <path id="Trazado_718435" data-name="Trazado 718435" d="M304.37,303.51l-.039-.025a.138.138,0,0,0-.188.043l-1.39,2.189a.137.137,0,0,0,.042.188l.04.025a.138.138,0,0,0,.188-.042l1.39-2.19a.137.137,0,0,0-.043-.188Z" transform="translate(-302.732 -303.464)" fill="#1c466d"/>
    </g>
    <g id="Grupo_1013465" data-name="Grupo 1013465" transform="translate(145.304 145.462)" opacity="0.4">
      <path id="Trazado_718436" data-name="Trazado 718436" d="M305.456,304.193l-.039-.025a.137.137,0,0,0-.188.042l-1.39,2.189a.136.136,0,0,0,.042.187l.04.026a.137.137,0,0,0,.188-.043l1.39-2.189a.135.135,0,0,0-.043-.187Z" transform="translate(-303.818 -304.147)" fill="#1c466d"/>
    </g>
    <g id="Grupo_1013466" data-name="Grupo 1013466" transform="translate(145.824 145.791)" opacity="0.4">
      <path id="Trazado_718437" data-name="Trazado 718437" d="M306.544,304.88l-.04-.024a.138.138,0,0,0-.188.042l-1.39,2.19a.136.136,0,0,0,.042.187l.04.024a.136.136,0,0,0,.188-.042l1.39-2.189a.137.137,0,0,0-.042-.187Z" transform="translate(-304.904 -304.834)" fill="#1c466d"/>
    </g>
    <g id="Grupo_1013467" data-name="Grupo 1013467" transform="translate(146.345 146.119)" opacity="0.4">
      <path id="Trazado_718438" data-name="Trazado 718438" d="M307.631,305.567l-.039-.025a.138.138,0,0,0-.188.042l-1.39,2.19a.138.138,0,0,0,.042.188l.04.024a.136.136,0,0,0,.187-.042l1.39-2.188a.137.137,0,0,0-.044-.188Z" transform="translate(-305.993 -305.521)" fill="#1c466d"/>
    </g>
    <g id="Grupo_1013468" data-name="Grupo 1013468" transform="translate(146.865 146.448)" opacity="0.4">
      <path id="Trazado_718439" data-name="Trazado 718439" d="M308.72,306.254l-.038-.024a.137.137,0,0,0-.188.042l-1.39,2.189a.135.135,0,0,0,.043.188l.039.024a.138.138,0,0,0,.188-.042l1.39-2.189A.136.136,0,0,0,308.72,306.254Z" transform="translate(-307.082 -306.209)" fill="#1c466d"/>
    </g>
    <g id="Grupo_1013469" data-name="Grupo 1013469" transform="translate(147.385 146.776)" opacity="0.4">
      <path id="Trazado_718440" data-name="Trazado 718440" d="M309.807,306.94l-.039-.024a.137.137,0,0,0-.188.042l-1.39,2.19a.136.136,0,0,0,.043.187l.039.024a.136.136,0,0,0,.188-.042l1.39-2.189a.136.136,0,0,0-.042-.187Z" transform="translate(-308.169 -306.894)" fill="#1c466d"/>
    </g>
    <g id="Grupo_1013470" data-name="Grupo 1013470" transform="translate(147.904 147.103)" opacity="0.4">
      <path id="Trazado_718441" data-name="Trazado 718441" d="M310.893,307.625l-.04-.026a.138.138,0,0,0-.188.042l-1.39,2.189a.138.138,0,0,0,.042.188l.04.025a.138.138,0,0,0,.188-.042l1.39-2.189A.135.135,0,0,0,310.893,307.625Z" transform="translate(-309.254 -307.578)" fill="#1c466d"/>
    </g>
    <g id="Grupo_1013471" data-name="Grupo 1013471" transform="translate(148.424 147.432)" opacity="0.4">
      <path id="Trazado_718442" data-name="Trazado 718442" d="M311.979,308.312l-.04-.024a.138.138,0,0,0-.188.042l-1.39,2.189a.136.136,0,0,0,.042.187l.04.025a.136.136,0,0,0,.188-.042l1.39-2.189a.137.137,0,0,0-.042-.188Z" transform="translate(-310.34 -308.266)" fill="#1c466d"/>
    </g>
    <g id="Grupo_1013472" data-name="Grupo 1013472" transform="translate(148.945 147.759)" opacity="0.4">
      <path id="Trazado_718443" data-name="Trazado 718443" d="M313.068,309l-.039-.025a.138.138,0,0,0-.188.042l-1.389,2.19a.135.135,0,0,0,.042.187l.04.025a.135.135,0,0,0,.188-.044l1.39-2.188a.136.136,0,0,0-.042-.187Z" transform="translate(-311.431 -308.95)" fill="#1c466d"/>
    </g>
    <g id="Grupo_1013473" data-name="Grupo 1013473" transform="translate(149.464 148.088)" opacity="0.4">
      <path id="Trazado_718444" data-name="Trazado 718444" d="M314.154,309.684l-.04-.024a.138.138,0,0,0-.188.042l-1.39,2.189a.138.138,0,0,0,.042.188l.04.024a.138.138,0,0,0,.188-.042l1.39-2.189a.135.135,0,0,0-.042-.187Z" transform="translate(-312.515 -309.638)" fill="#1c466d"/>
    </g>
    <g id="Grupo_1013474" data-name="Grupo 1013474" transform="translate(149.983 148.416)" opacity="0.4">
      <path id="Trazado_718445" data-name="Trazado 718445" d="M315.241,310.368l-.04-.025a.136.136,0,0,0-.188.044l-1.39,2.189a.137.137,0,0,0,.044.188l.04.024a.136.136,0,0,0,.187-.042l1.39-2.189a.138.138,0,0,0-.042-.188Z" transform="translate(-313.602 -310.323)" fill="#1c466d"/>
    </g>
    <path id="Trazado_718446" data-name="Trazado 718446" d="M275.8,319.721a4.876,4.876,0,0,0-.418.6l8.532,5.382,8.532,5.382a9.6,9.6,0,0,0,1.486-4.167c-4.588,2.211-17.319-6.285-18.133-7.2Z" transform="translate(-143.679 -166.81)" fill="#5681bf"/>
    <path id="Trazado_718447" data-name="Trazado 718447" d="M286.675,339.171l-3.213,5.061a1.466,1.466,0,0,1-2.013.451l-16.179-10.207a1.394,1.394,0,0,1-.3-.263,1.455,1.455,0,0,0,.659,1.445l16.18,10.207a1.466,1.466,0,0,0,2.013-.451l3.212-5.061a1.451,1.451,0,0,0-.151-1.743A1.413,1.413,0,0,1,286.675,339.171Z" transform="translate(-138.236 -174.371)" fill="#5681bf"/>
    <path id="Trazado_718448" data-name="Trazado 718448" d="M270.485,364.68l-3.213,5.061a1.466,1.466,0,0,1-2.013.451l-16.18-10.208a1.424,1.424,0,0,1-.3-.263,1.455,1.455,0,0,0,.66,1.445l16.18,10.207a1.465,1.465,0,0,0,2.013-.451l3.213-5.061a1.451,1.451,0,0,0-.151-1.743,1.423,1.423,0,0,1-.207.562Z" transform="translate(-129.789 -187.68)" fill="#5681bf"/>
    <path id="Trazado_718449" data-name="Trazado 718449" d="M245.693,373.694,243,372S244.057,372.7,245.693,373.694Z" transform="translate(-126.784 -194.085)" fill="#5681bf"/>
    <path id="Trazado_718450" data-name="Trazado 718450" d="M248.627,375.546,263,384.614l1.486-2.34c-4.049.1-11.772-4.239-15.858-6.728Z" transform="translate(-129.718 -195.936)" fill="#5681bf"/>
    <path id="Trazado_718451" data-name="Trazado 718451" d="M277.813,358.315l1.5-2.366c-4.96-.3-13.428-5.21-16.9-7.349Z" transform="translate(-136.911 -181.878)" fill="#5681bf"/>
    <path id="Trazado_718452" data-name="Trazado 718452" d="M260.715,347.529l-1.556-.981S259.741,346.929,260.715,347.529Z" transform="translate(-135.213 -180.807)" fill="#5681bf"/>
    <path id="Trazado_718453" data-name="Trazado 718453" d="M287.774,310.955a10.362,10.362,0,0,0-9.506,4.4l1.646,1.038c2.436-3.838,7.823-4.527,7.823-4.527l1.138-1.792-.386-.243Z" transform="translate(-145.183 -161.649)" fill="#fff" opacity="0.5"/>
    <path id="Trazado_718454" data-name="Trazado 718454" d="M273.781,323.706l-1.021-.643a.646.646,0,0,0-.887.2l-3.554,5.6a.642.642,0,0,0,.2.884l1.021.643a.645.645,0,0,0,.887-.2l3.554-5.6a.643.643,0,0,0-.2-.885Z" transform="translate(-139.94 -168.503)" fill="#fff" opacity="0.5"/>
    <path id="Trazado_718455" data-name="Trazado 718455" d="M257.336,350.022l-1.889-1.191a.131.131,0,0,0-.179.04l-4.1,6.463a.13.13,0,0,0,.04.179l1.888,1.191a.131.131,0,0,0,.179-.04l4.1-6.461a.131.131,0,0,0-.04-.179Z" transform="translate(-131.033 -181.988)" fill="#fff" opacity="0.5"/>
    <path id="Trazado_718456" data-name="Trazado 718456" d="M239.5,375.8l-1.473-.929a.646.646,0,0,0-.887.2l-4.643,7.314a.643.643,0,0,0,.2.884l1.473.93a.645.645,0,0,0,.887-.2l4.642-7.313a.641.641,0,0,0-.2-.884Z" transform="translate(-121.25 -195.533)" fill="#fff" opacity="0.5"/>
    <path id="Trazado_718457" data-name="Trazado 718457" d="M264.652,341.964a7.979,7.979,0,0,1,.618-3.159l-1.522,2.4a1.611,1.611,0,0,0,.5,2.227l10.831,6.832S264.775,343.386,264.652,341.964Z" transform="translate(-137.477 -176.767)" fill="#fff" opacity="0.5"/>
    <path id="Trazado_718458" data-name="Trazado 718458" d="M248.162,367.743a7.984,7.984,0,0,1,.619-3.16l-1.688,2.659a1.3,1.3,0,0,0,.406,1.8l11.093,7S248.285,369.164,248.162,367.743Z" transform="translate(-128.811 -190.217)" fill="#fff" opacity="0.5"/>
    <path id="Trazado_718459" data-name="Trazado 718459" d="M283.784,314.318l1.773-2.794-2.363-1.49-1.772,2.794a11.437,11.437,0,0,1,2.115,7.553h0c0,.029-.012.061-.015.091-.035.291-.078.584-.144.882-.021.1-.055.2-.079.3-.062.243-.122.487-.206.734-.061.179-.145.36-.219.54s-.133.35-.218.528a10.619,10.619,0,0,1-.607,1.094l-.441-.278a1.411,1.411,0,0,1,.309.272c0-.011.007-.023.009-.035a1.452,1.452,0,0,1,.151,1.743l-.016.026-3.2,5.036-.016.026a1.467,1.467,0,0,1-1.756.578l-.034.012.22.139-2.971,4.679-.106-.068-.017.027a1.452,1.452,0,0,1,.151,1.743l-.016.026-3.2,5.036-.016.025a1.465,1.465,0,0,1-2,.459h0l.43.27-1.485,2.341-1.486,2.34-.441-.278a1.456,1.456,0,0,1,.453,2.006l-4.582,7.217a1.465,1.465,0,0,1-2.013.451l2.362,1.49a1.465,1.465,0,0,0,2.013-.45l4.582-7.217a1.455,1.455,0,0,0-.453-2.006l.441.278,1.485-2.341,1.486-2.339-.429-.272h0a1.466,1.466,0,0,0,2-.459l.016-.027,3.2-5.036.018-.026a1.45,1.45,0,0,0-.152-1.743c0,.011-.006.022-.008.035-.026-.028-.047-.061-.075-.087l.083.053.016-.026.108.066,2.971-4.68-.22-.138.035-.013a1.464,1.464,0,0,0,1.756-.579l.017-.025,3.2-5.036.016-.026a1.451,1.451,0,0,0-.151-1.743c0,.013-.007.024-.01.035a1.459,1.459,0,0,0-.309-.273l.441.278a10.606,10.606,0,0,0,.607-1.094c.086-.178.145-.352.218-.528s.157-.362.218-.54c.084-.247.145-.49.206-.734.024-.1.058-.2.081-.3.066-.3.109-.591.144-.882,0-.029.011-.061.015-.091h0a11.44,11.44,0,0,0-2.116-7.555Z" transform="translate(-135.642 -161.756)" fill="#b5cae8"/>
    <path id="Trazado_718460" data-name="Trazado 718460" d="M259.32,382.655c-.406-.681-.844-1.342-1.255-2.019a8.377,8.377,0,0,1-.429-.775,4.888,4.888,0,0,1-.35-1.021,3.553,3.553,0,0,0-.177-.967c-.4-.675-.933.435-.981.776a5.549,5.549,0,0,0,.7,3.127c.231.482.485.952.738,1.422.187.349.375.7.562,1.045a1.293,1.293,0,0,0,.59.659.787.787,0,0,0,.9-.326,1.261,1.261,0,0,0,.133-.989,3.39,3.39,0,0,0-.427-.93Z" transform="translate(-133.613 -197.039)" fill="#f18a8b"/>
    <path id="Trazado_718461" data-name="Trazado 718461" d="M258.723,384.221c-.406-.681-.844-1.342-1.255-2.019a8.563,8.563,0,0,1-.429-.776,4.868,4.868,0,0,1-.35-1.021,3.546,3.546,0,0,0-.177-.966c-.4-.675-.932.435-.981.775a5.549,5.549,0,0,0,.7,3.127c.232.482.485.952.738,1.422.187.349.375.7.563,1.045a1.292,1.292,0,0,0,.59.66.787.787,0,0,0,.895-.327,1.26,1.26,0,0,0,.133-.988,3.392,3.392,0,0,0-.427-.93Z" transform="translate(-133.302 -197.856)" fill="#f18a8b"/>
    <path id="Trazado_718462" data-name="Trazado 718462" d="M259.607,364.192a20.979,20.979,0,0,0-.772-2.165,9.44,9.44,0,0,0-2.216-3.751c-.341.2-.681.4-1.016.613a11.791,11.791,0,0,0-1.792,1.353c-.287.268-.568.531-.866.773.294.1.484.184.509.255a1.855,1.855,0,0,1,.054.756c0,.027,0,.054-.006.08a36.984,36.984,0,0,0,.07,5.471,14.326,14.326,0,0,0,.585,3.689,27.244,27.244,0,0,0,1.67,3.572,1.629,1.629,0,0,0,.349.506.607.607,0,0,0,.945-.16c.34-.8-.169-1.765-.515-2.486a13.472,13.472,0,0,1-.894-2.05,4.464,4.464,0,0,1-.036-2.11c.095-.516.17-1.034.276-1.55a4.222,4.222,0,0,1,.157-.591,1.45,1.45,0,0,1,.442-.665.99.99,0,0,1,.736-.224c.256.066.316.366.386.582a3.309,3.309,0,0,1,.133.792,4.9,4.9,0,0,0,.19,1.372,1.489,1.489,0,0,0,.1.215c.4.746,1.645,1.2,1.809.045a3.315,3.315,0,0,0-.014-.751A19.678,19.678,0,0,0,259.607,364.192Z" transform="translate(-131.971 -186.926)" fill="#f5b0a6"/>
    <path id="Trazado_718463" data-name="Trazado 718463" d="M260.851,371.682a.831.831,0,0,0-.861.281,1.807,1.807,0,0,0-.365.875,5.173,5.173,0,0,0-.066.534,1.45,1.45,0,0,1,.442-.665.985.985,0,0,1,.736-.223c.256.066.316.366.386.581a3.286,3.286,0,0,1,.132.792,4.92,4.92,0,0,0,.191,1.372,4.417,4.417,0,0,1,.008-1.018,4.146,4.146,0,0,0-.076-1.953.955.955,0,0,0-.527-.577Z" transform="translate(-135.422 -193.902)" fill="#f18a8b"/>
    <path id="Trazado_718464" data-name="Trazado 718464" d="M266.506,239.1a.078.078,0,0,1-.016.007,21.716,21.716,0,0,0-4.715,3.1c-5.894,5.449-11.439,22.408-12.377,26.989-1.124,5.486-.624,28.886.355,29.135,1.384.352,9.872-.481,10.036-.58.742-.448-1.136-23.771,0-25.757.628-1.095,2.16-5.4,4.664-9.637,2.363-4,4.784-8.2,5.782-10.326,1.866-3.982,1.078-13.381.8-14.428a31.086,31.086,0,0,0-4.527,1.5Z" transform="translate(-129.785 -123.967)" fill="#ffb662"/>
    <path id="Trazado_718465" data-name="Trazado 718465" d="M528.491,255.991c-.451-.229,7.182-3.837,5.6-4.3-.566-.165-6.015,3.249-6.224,2.849-.4-.77,4.46-5.53,4.026-6.116-.809-1.089-7.888,7.9-8.292,7.352s1.979-4.774.847-4.781c-1.155-.007-4.125,7.425-4.125,7.425s-16.473,12.616-16.5,12.28L499.1,282.026c3.674,3.512,24.357-18.165,24.357-18.165a19.9,19.9,0,0,0,5.824-4.072c.319-.4,5.182-2.811,4.233-3.178s-3.859,1.556-3.948,1.058,5.149-3.034,5.1-3.76c-.083-1.174-5.722,2.311-6.174,2.082Z" transform="translate(-260.399 -129.565)" fill="#f5b0a6"/>
    <path id="Trazado_718466" data-name="Trazado 718466" d="M481.541,247.756c-15.323,7.484,5.57,34.082,5.57,34.082l5.954-10.108s-6.56-11.067-7.763-14.873a85.65,85.65,0,0,0-3.762-9.1Z" transform="translate(-248.309 -129.263)" fill="#f5b0a6"/>
    <path id="Trazado_718467" data-name="Trazado 718467" d="M470.5,243.721c-16.866,2.586.88,26.988.88,26.988l12.377-9.9C478.917,249.185,475.919,242.89,470.5,243.721Z" transform="translate(-241.681 -127.12)" fill="#008f8d"/>
    <path id="Trazado_718468" data-name="Trazado 718468" d="M510.018,220.7c-11.675.034-21.137,1.168-21.133,2.53l8.224,48.273a2.558,2.558,0,0,0,2.532,2.124l10.539-.032,10.539-.033a2.555,2.555,0,0,0,2.518-2.138l7.927-48.323c0-1.363-9.471-2.438-21.148-2.4Z" transform="translate(-255.07 -115.145)" fill="#ffb662"/>
    <path id="Trazado_718469" data-name="Trazado 718469" d="M510.018,220.7c-11.675.034-21.137,1.168-21.133,2.53s9.472,2.438,21.147,2.4,21.139-1.169,21.134-2.531S521.695,220.661,510.018,220.7Z" transform="translate(-255.07 -115.145)" fill="#ffa031" opacity="0.43"/>
    <path id="Trazado_718470" data-name="Trazado 718470" d="M493.866,255.218l5.843,34.294a2.558,2.558,0,0,0,2.532,2.124l10.539-.032,10.539-.033a2.555,2.555,0,0,0,2.518-2.138l.791-4.824c-17.769.569-26.552-14.332-32.761-29.391Z" transform="translate(-257.669 -133.157)" fill="#f2b08b" opacity="0.53"/>
    <path id="Trazado_718471" data-name="Trazado 718471" d="M534.565,232.613s-.831,23.779-5.074,32.828c-4.746,10.124-14.027,10.928-14.027,10.928s18.137.63,19.189-2.54c1.775-5.341,7.411-43.37,7.411-43.37s-4.915,2.534-7.5,2.154Z" transform="translate(-268.937 -120.239)" fill="#ffa031" opacity="0.64"/>
    <path id="Trazado_718472" data-name="Trazado 718472" d="M542.963,315.787c7.441-1.277,6.961-7.4,6.961-7.4C549.424,313.1,542.963,315.787,542.963,315.787Z" transform="translate(-283.285 -160.898)" fill="#fff"/>
    <path id="Trazado_718473" data-name="Trazado 718473" d="M495.667,240.228s3.851,26.642,5.225,28.281,4.142,2.631,4.263,1.482-5.878-24.811-6.432-26.114a17.547,17.547,0,0,0-3.055-3.648Z" transform="translate(-258.609 -125.336)" fill="#fff" opacity="0.5"/>
    <path id="Trazado_718474" data-name="Trazado 718474" d="M506.644,304.637s.915,4.222,1.23,4.348,3.021,1.109,3.2.333a8.141,8.141,0,0,0-.428-3.641C510.315,305.364,506.425,303.661,506.644,304.637Z" transform="translate(-264.331 -158.785)" fill="#fff" opacity="0.5"/>
    <path id="Trazado_718475" data-name="Trazado 718475" d="M294.631,545.8l-11.938.668-.477,2.29s12.156-.33,13.754-.108a56.564,56.564,0,0,0,8.423-.345c.893-.167-.057-1.721-.057-1.721l-9.7-.784Z" transform="translate(-147.243 -284.767)" fill="#1c466d"/>
    <path id="Trazado_718476" data-name="Trazado 718476" d="M292.316,530.926s-5.865.331-7.651-1.4l-1.449,8.455,12.945.539s6.613,1.367,8.7-.423c0,0-10.947-2.811-12.542-7.17Z" transform="translate(-147.765 -276.272)" fill="#2e6a90"/>
    <path id="Trazado_718477" data-name="Trazado 718477" d="M306.7,540.458l.336.3,1.2-1.35-.337-.3Z" transform="translate(-160.015 -281.273)" fill="#e8e8e8"/>
    <path id="Trazado_718478" data-name="Trazado 718478" d="M304.028,538.539l.328.307,1-1.067-.328-.307Z" transform="translate(-158.623 -280.42)" fill="#e8e8e8"/>
    <path id="Trazado_718479" data-name="Trazado 718479" d="M301.107,536.13l.282.349,1.347-1.078-.281-.35Z" transform="translate(-157.099 -279.157)" fill="#e8e8e8"/>
    <path id="Trazado_718480" data-name="Trazado 718480" d="M299.525,533.179l.167.415,1.5-.6-.167-.415Z" transform="translate(-156.274 -277.866)" fill="#e8e8e8"/>
    <path id="Trazado_718481" data-name="Trazado 718481" d="M347.388,545.68l-11.938.668-.477,2.29s12.156-.33,13.753-.108a56.572,56.572,0,0,0,8.423-.345c.893-.167-.057-1.721-.057-1.721l-9.7-.783Z" transform="translate(-174.768 -284.702)" fill="#1c466d"/>
    <path id="Trazado_718482" data-name="Trazado 718482" d="M345.07,530.8s-5.865.331-7.651-1.4l-1.449,8.455,12.945.54s6.613,1.367,8.7-.423c0,0-10.947-2.811-12.542-7.17Z" transform="translate(-175.289 -276.206)" fill="#2e6a90"/>
    <path id="Trazado_718483" data-name="Trazado 718483" d="M359.452,540.333l.336.3,1.2-1.349-.336-.3Z" transform="translate(-187.54 -281.209)" fill="#e8e8e8"/>
    <path id="Trazado_718484" data-name="Trazado 718484" d="M356.785,538.411l.328.307,1-1.067-.328-.307Z" transform="translate(-186.149 -280.353)" fill="#e8e8e8"/>
    <path id="Trazado_718485" data-name="Trazado 718485" d="M353.864,536l.281.35,1.348-1.078-.282-.349Z" transform="translate(-184.625 -279.091)" fill="#e8e8e8"/>
    <path id="Trazado_718486" data-name="Trazado 718486" d="M352.281,533.052l.167.415,1.5-.6-.167-.415Z" transform="translate(-183.799 -277.8)" fill="#e8e8e8"/>
    <path id="Trazado_718487" data-name="Trazado 718487" d="M446.716,550.221l-.163,2.31,21.372-1.4-.571-1.812Z" transform="translate(-232.984 -286.6)" fill="#2e6a90"/>
    <path id="Trazado_718488" data-name="Trazado 718488" d="M454.752,520.426c.2-3.125.862-7.852.862-7.852l-7.216-.441s-.188,4.895-.3,8.73a75.615,75.615,0,0,1-1.206,9.96s6.47.044,12.355-.177a53.338,53.338,0,0,0,7.975-.663A45.792,45.792,0,0,1,461.43,528c-5.044-2-6.93-3.538-6.677-7.569Z" transform="translate(-233.161 -267.199)" fill="#1c466d"/>
    <path id="Trazado_718489" data-name="Trazado 718489" d="M449.415,520.86l6.655-.437c.2-3.125.862-7.851.862-7.851l-7.216-.441s-.188,4.894-.3,8.73Z" transform="translate(-234.477 -267.198)" fill="#f5b0a6"/>
    <path id="Trazado_718490" data-name="Trazado 718490" d="M461.734,528.3a2.019,2.019,0,0,0-.929.615,8.684,8.684,0,0,0-.777.944,8.546,8.546,0,0,0-.636,1.028,5.471,5.471,0,0,0-.264.574c-.021.055-.035.111-.051.167a11.091,11.091,0,0,0-1.312-2,8.512,8.512,0,0,0-.88-.954,1.524,1.524,0,0,0-1.035-.443.911.911,0,0,0-.833.549,1.265,1.265,0,0,0,.083,1.061,4.8,4.8,0,0,0,1.729,1.7,6.032,6.032,0,0,0,1.052.532,4.2,4.2,0,0,0,.941.28c-.172.085-.342.174-.508.269q-.4.228-.788.493c-.136.095-.366.3-.176.464.157.137.344-.014.477-.109a10.438,10.438,0,0,1,1.6-.939.215.215,0,0,0,.133-.266.165.165,0,0,0-.022-.036.151.151,0,0,0,0-.021,8.82,8.82,0,0,0,2.051-1.231,8.514,8.514,0,0,0,.851-.8,1.74,1.74,0,0,0,.535-.964.951.951,0,0,0-1.244-.914ZM458,531.693a5.677,5.677,0,0,1-1.007-.482,4.651,4.651,0,0,1-1.542-1.434.912.912,0,0,1-.066-1,.746.746,0,0,1,.984-.06,3.786,3.786,0,0,1,.806.745,11.17,11.17,0,0,1,.735.908,12.638,12.638,0,0,1,.961,1.552c-.289-.075-.587-.123-.87-.225Zm4.384-2.025a7.05,7.05,0,0,1-1.508,1.3,8.641,8.641,0,0,1-1.579.851c.049-.091.1-.181.145-.275.088-.179.172-.36.265-.537a8.5,8.5,0,0,1,.6-.984,7.453,7.453,0,0,1,.629-.776,2.015,2.015,0,0,1,.812-.6.757.757,0,0,1,.765.151C462.766,529.067,462.575,529.433,462.385,529.668Z" transform="translate(-237.358 -275.601)" fill="#e8e8e8"/>
    <path id="Trazado_718491" data-name="Trazado 718491" d="M463.459,538.573c-.377.254-.755.5-1.127.765l-.55.384c-.094.065-.193.128-.282.2a.327.327,0,0,0-.154.278.13.13,0,0,0,.1.114c.214.069.433-.164.594-.28l.525-.382c.362-.263.717-.536,1.074-.8C463.809,538.721,463.636,538.455,463.459,538.573Z" transform="translate(-240.702 -280.979)" fill="#e8e8e8"/>
    <path id="Trazado_718492" data-name="Trazado 718492" d="M465.247,540.726a12.237,12.237,0,0,0-1.267,1.061c-.365.332-.732.661-1.09,1-.1.1-.357.391-.121.494.217.1.434-.183.571-.31.354-.329.7-.667,1.044-1.008a11.922,11.922,0,0,0,1.009-1.073c.075-.1-.037-.24-.145-.166Z" transform="translate(-241.394 -282.106)" fill="#e8e8e8"/>
    <path id="Trazado_718493" data-name="Trazado 718493" d="M469.315,542.694c-.282.3-.56.6-.834.914l-.734.828a.406.406,0,0,0-.146.291.192.192,0,0,0,.132.185c.212.058.336-.159.445-.3.451-.578.9-1.154,1.337-1.744A.133.133,0,0,0,469.315,542.694Z" transform="translate(-243.966 -283.121)" fill="#e8e8e8"/>
    <path id="Trazado_718494" data-name="Trazado 718494" d="M473.09,547.259a6.793,6.793,0,0,0-.365.69c3.2.476,6.69.075,8.283-.727a49.824,49.824,0,0,1-6.1-1.923A6.762,6.762,0,0,0,473.09,547.259Z" transform="translate(-246.639 -284.503)" fill="#fff"/>
    <path id="Trazado_718495" data-name="Trazado 718495" d="M451.65,538.218a1.454,1.454,0,0,0-.888,2.666,1.548,1.548,0,0,0,1.6.142c1.407-.724.667-2.653-.709-2.808Z" transform="translate(-234.85 -280.803)" fill="#fff"/>
    <path id="Trazado_718496" data-name="Trazado 718496" d="M477.395,533.467l19.883,6.892.179-1.858-19.027-7.063Z" transform="translate(-249.076 -277.271)" fill="#2e6a90"/>
    <path id="Trazado_718497" data-name="Trazado 718497" d="M490.666,507.2c1.378-2.755,3.8-6.777,3.8-6.777l-6.363-3.155s-2.051,4.359-3.627,7.787a74.569,74.569,0,0,1-4.918,8.556s5.84,2.511,11.251,4.559a52.428,52.428,0,0,0,7.474,2.446,44.808,44.808,0,0,1-4.479-4.011c-3.8-3.74-4.913-5.849-3.135-9.4Z" transform="translate(-250.203 -259.446)" fill="#1c466d"/>
    <path id="Trazado_718498" data-name="Trazado 718498" d="M489.843,505.056l6.192,2.147c1.378-2.755,3.8-6.778,3.8-6.778l-6.362-3.155s-2.051,4.358-3.627,7.787Z" transform="translate(-255.57 -259.445)" fill="#f5b0a6"/>
    <path id="Trazado_718499" data-name="Trazado 718499" d="M501.277,516.682a1.98,1.98,0,0,0-1.078.2,8.858,8.858,0,0,0-2.037,1.245,5.456,5.456,0,0,0-.46.419c-.04.042-.075.087-.11.131a10.941,10.941,0,0,0-.418-2.311,8.269,8.269,0,0,0-.43-1.2,1.493,1.493,0,0,0-.767-.8.9.9,0,0,0-.964.179,1.245,1.245,0,0,0-.332.992,4.713,4.713,0,0,0,.911,2.2,5.886,5.886,0,0,0,.748.883,4.155,4.155,0,0,0,.744.613c-.188.012-.376.028-.563.051-.3.035-.6.083-.9.145-.159.033-.446.13-.337.353.089.184.317.12.473.085a10.244,10.244,0,0,1,1.808-.24.213.213,0,0,0,.223-.191.26.26,0,0,0-.006-.042.092.092,0,0,0,.008-.019,8.655,8.655,0,0,0,2.33-.331,8.427,8.427,0,0,0,1.078-.4,1.707,1.707,0,0,0,.854-.668.932.932,0,0,0-.775-1.3Zm-4.681,1.641a5.484,5.484,0,0,1-.726-.821,4.577,4.577,0,0,1-.845-1.887.893.893,0,0,1,.325-.935c.331-.2.716.051.913.321a3.686,3.686,0,0,1,.443.983,11.133,11.133,0,0,1,.317,1.1,12.34,12.34,0,0,1,.274,1.772c-.233-.179-.484-.334-.7-.536Zm4.747-.158a6.951,6.951,0,0,1-1.865.6,8.441,8.441,0,0,1-1.757.167c.08-.063.161-.126.238-.193.149-.129.3-.26.446-.385a8.5,8.5,0,0,1,.923-.661,7.643,7.643,0,0,1,.867-.462,1.969,1.969,0,0,1,.964-.228.742.742,0,0,1,.634.428c.125.335-.188.593-.451.732Z" transform="translate(-258.092 -268.333)" fill="#e8e8e8"/>
    <path id="Trazado_718500" data-name="Trazado 718500" d="M498.707,527.234c-.438.087-.877.168-1.314.262l-.645.138c-.11.023-.223.042-.332.074a.324.324,0,0,0-.247.193.126.126,0,0,0,.048.143c.167.144.455.017.645-.028l.623-.145c.428-.1.855-.21,1.282-.318a.161.161,0,0,0-.058-.317Z" transform="translate(-258.867 -275.077)" fill="#e8e8e8"/>
    <path id="Trazado_718501" data-name="Trazado 718501" d="M499.163,530.05a12.1,12.1,0,0,0-1.555.476c-.457.161-.917.319-1.371.49-.13.049-.473.217-.3.4s.462,0,.637-.063c.447-.161.891-.336,1.331-.513a11.784,11.784,0,0,0,1.325-.586.11.11,0,0,0-.068-.206Z" transform="translate(-258.725 -276.545)" fill="#e8e8e8"/>
    <path id="Trazado_718502" data-name="Trazado 718502" d="M502.24,533.04q-.557.247-1.107.509l-.983.469c-.1.048-.2.095-.244.209a.189.189,0,0,0,.049.219c.168.133.365-.015.518-.1.63-.351,1.26-.7,1.881-1.068a.131.131,0,0,0-.114-.235Z" transform="translate(-260.813 -278.101)" fill="#e8e8e8"/>
    <path id="Trazado_718503" data-name="Trazado 718503" d="M503.677,538.779a6.765,6.765,0,0,0-.6.485c2.711,1.652,6.026,2.623,7.776,2.5a48.651,48.651,0,0,1-4.782-4.07,6.689,6.689,0,0,0-2.4,1.081Z" transform="translate(-262.478 -280.539)" fill="#fff"/>
    <path id="Trazado_718504" data-name="Trazado 718504" d="M488.128,521.936c-1.32-.742-2.546.854-1.827,2.074a1.522,1.522,0,0,0,1.391.738c1.551-.118,1.623-2.146.438-2.813Z" transform="translate(-253.611 -272.215)" fill="#fff"/>
    <path id="Trazado_718505" data-name="Trazado 718505" d="M483.733,350.613c-2.529-6.345-5.518-10.209-7.866-14.617-4.982,1.177-10.968.219-16.093-.209a81.037,81.037,0,0,0,1.894,20.053q.367,1.739.792,3.43c.132.53.269,1.056.409,1.576.364,1.354.753,2.674,1.159,3.942.956,2.98,5.476,8.36,9.542,12.81a75.137,75.137,0,0,1,5.817,7.053c-1.265,6.245-6.62,19.474-7.885,34.342l11.887,2.54c8.491-22.372,12.642-31.062,11.837-38.8s-8.01-23.374-11.495-32.118Z" transform="translate(-239.847 -175.192)" fill="#2e6a90"/>
    <path id="Trazado_718506" data-name="Trazado 718506" d="M471.652,356.2c-2.495,4.4-3.754,9.294-6.191,13.719.133.53.269,1.056.409,1.575.364,1.355.754,2.674,1.16,3.942.956,2.979,5.476,8.36,9.541,12.81a188.255,188.255,0,0,0-1.7-22.54,28.947,28.947,0,0,0-3.224-9.507Z" transform="translate(-242.849 -185.842)" fill="#1c466d" opacity="0.66"/>
    <path id="Trazado_718507" data-name="Trazado 718507" d="M443.621,334.038c-1.954,2.612-4.345.761-6.184,7.134-1.4,4.836-1.686,15.157-1.632,17,.335,11.41,2.118,25.321,2.118,25.321s-.569,23.456,2.3,42.686c1.149,0,10.253-.6,11.4-.6,3.793-26.07,2.616-36.029,3.536-39.995,2.063-8.895,2.837-42.808,4.138-49.96a52.813,52.813,0,0,1-15.682-1.586Z" transform="translate(-227.373 -174.28)" fill="#2e6a90"/>
    <path id="Trazado_718508" data-name="Trazado 718508" d="M459.492,262.993c.228-4.552-7.387-18.769-8.033-19.286.125,1.628.411,5.945-.695,5.961-2.433.034-8.524-6.085-8.524-6.085-1.668.123-10.387,3.313-10.387,3.313-6.482,6.513-3.5,35.7,1.358,46.155,19.69,3.09,30.43-4.755,30.43-4.755s-4.378-20.718-4.147-25.3Z" transform="translate(-223.372 -127.086)" fill="#006f6e"/>
    <path id="Trazado_718509" data-name="Trazado 718509" d="M468.259,303c-2.375-1.138-6.6-1.1-6.6-1.1s-20.863-2.125-20.724-2.432l-1.39-10.784-11.864,3.448,1.923,15.106c1.494,4.851,28.642-.492,28.642-.492s6.442,2.487,7.378,2.507l8.891-.635c-1.46-2.08-6.132-5.554-6.258-5.613Z" transform="translate(-223.138 -150.616)" fill="#f5b0a6"/>
    <path id="Trazado_718510" data-name="Trazado 718510" d="M433.573,247.793c-17.04-.9-8.888,23.64-8.888,23.64l12.559-3.223a98.2,98.2,0,0,0,.3-13.313c-.341-3.977-3.97-7.1-3.97-7.1Z" transform="translate(-220.558 -129.27)" fill="#008f8d"/>
    <path id="Trazado_718511" data-name="Trazado 718511" d="M301.91,200.066l2.255,1.076,3.517-.792-.89-9.367s-7.789-.885-4.882,9.082Z" transform="translate(-157.179 -99.632)"/>
    <path id="Trazado_718512" data-name="Trazado 718512" d="M307.715,226.117a8.345,8.345,0,0,0,4.571,1.221,15.35,15.35,0,0,0,4.714-.417l.908-10.4-9.176-2.049-1.015,11.647Z" transform="translate(-160.547 -111.897)" fill="#f5b0a6"/>
    <path id="Trazado_718513" data-name="Trazado 718513" d="M320.484,233.745l.261-2.987-6.346-3.31Z" transform="translate(-164.034 -118.668)" fill="#f18a8b"/>
    <path id="Trazado_718514" data-name="Trazado 718514" d="M312.26,206.466a1.858,1.858,0,0,0,.991,1.806l6.656,3.471a1.849,1.849,0,0,0,1.795-.04l3.939-2.28a1.85,1.85,0,0,0,.915-1.441l1.189-13.625-14.434-3.67-1.051,15.777Z" transform="translate(-162.915 -99.488)" fill="#f5b0a6"/>
    <path id="Trazado_718515" data-name="Trazado 718515" d="M337.269,215.15a2.7,2.7,0,0,0,2.457,2.916l.468-5.366A2.7,2.7,0,0,0,337.269,215.15Z" transform="translate(-175.961 -110.968)" fill="#f18a8b"/>
    <path id="Trazado_718516" data-name="Trazado 718516" d="M333.2,204.985a.207.207,0,0,0-.2.211l.091,5.646-1.845-.16a.207.207,0,1,0-.036.412l2.075.18a.208.208,0,0,0,.159-.055.2.2,0,0,0,.066-.154l-.095-5.875A.208.208,0,0,0,333.2,204.985Z" transform="translate(-172.705 -106.948)" fill="#f18a8b"/>
    <path id="Trazado_718517" data-name="Trazado 718517" d="M304.465,207.1a3.408,3.408,0,1,0,3.11,3.69A3.415,3.415,0,0,0,304.465,207.1Z" transform="translate(-156.913 -108.043)" fill="#f5b0a6"/>
    <path id="Trazado_718518" data-name="Trazado 718518" d="M324.438,202.208c.07.725,2.706.44,2.789-.341C327.358,200.633,324.322,201,324.438,202.208Z" transform="translate(-169.27 -104.923)"/>
    <path id="Trazado_718519" data-name="Trazado 718519" d="M339.5,202.565c-.267.615,1.987,1.552,2.4.96C342.553,202.586,339.94,201.543,339.5,202.565Z" transform="translate(-177.118 -105.466)"/>
    <path id="Trazado_718520" data-name="Trazado 718520" d="M318.189,210.416a2.694,2.694,0,1,0,2.458,2.917A2.7,2.7,0,0,0,318.189,210.416Z" transform="translate(-164.48 -109.776)" fill="#f18a8b"/>
    <path id="Trazado_718521" data-name="Trazado 718521" d="M327.544,206.813c-.316-.035-.62.375-.68.916s.148,1.006.463,1.041.62-.375.68-.916S327.86,206.848,327.544,206.813Z" transform="translate(-170.532 -107.901)"/>
    <path id="Trazado_718522" data-name="Trazado 718522" d="M339.365,207.83c-.316-.035-.62.376-.68.916s.148,1.006.463,1.041.62-.375.68-.916S339.681,207.865,339.365,207.83Z" transform="translate(-176.7 -108.431)"/>
    <path id="Trazado_718523" data-name="Trazado 718523" d="M306.264,209.878a.206.206,0,1,0-.091.4c.089.02,2.118.506,1.736,2.216a2.5,2.5,0,0,1-.572,1.185.206.206,0,0,0,.011.292.206.206,0,0,0,.293-.011,2.891,2.891,0,0,0,.673-1.376c.378-1.693-1.175-2.513-2.049-2.71Z" transform="translate(-159.658 -109.498)" fill="#f18a8b"/>
    <path id="Trazado_718524" data-name="Trazado 718524" d="M306.232,213.569a.207.207,0,0,0,.195.365,1.111,1.111,0,0,1,1.558.542.206.206,0,0,0,.165.108.215.215,0,0,0,.116-.023.205.205,0,0,0,.084-.28,1.521,1.521,0,0,0-2.119-.71Z" transform="translate(-159.716 -111.332)" fill="#f18a8b"/>
    <path id="Trazado_718525" data-name="Trazado 718525" d="M326.3,184.853a2.964,2.964,0,0,0-.322-1.1,3.5,3.5,0,0,0-2.463-1.819,2.618,2.618,0,0,0-1.176-2.482,4.208,4.208,0,0,0-2.827-.637,8.925,8.925,0,0,0-2.814.873,4.344,4.344,0,0,0-4.735,1.137,6.514,6.514,0,0,0-1.363,2.2,10.239,10.239,0,0,0-.563,2.319c-1.351-.056-2.2,2.066-2.289,3.047,1.94,3.573,1.611,3.866,2.492,7.469,1.526-2.618,1.64-5.491,1.743-8.913.853.969,4.531,1.288,6,.308a6.439,6.439,0,0,0,5.676.926c.615,1.8,1.435,3.429,1.259,5.793,1.036-2.98,1.251-4.916.71-7.036a2.767,2.767,0,0,0,.667-2.089Z" transform="translate(-160.563 -93.283)"/>
    <path id="Trazado_718526" data-name="Trazado 718526" d="M326.613,181.938a2.618,2.618,0,0,0-1.176-2.482,4.207,4.207,0,0,0-2.827-.637,8.922,8.922,0,0,0-2.814.873,4.345,4.345,0,0,0-4.735,1.137,6.521,6.521,0,0,0-1.363,2.2,6.18,6.18,0,0,1,1.531-1.375,3.747,3.747,0,0,1,4.028-.054,5.675,5.675,0,0,1,3.17-.836,2.452,2.452,0,0,1,2.393,2,4.981,4.981,0,0,1,3.618,1.045,4.875,4.875,0,0,1,.963,1.043,2.844,2.844,0,0,0-.326-1.093,3.5,3.5,0,0,0-2.463-1.819Z" transform="translate(-163.669 -93.283)"/>
    <path id="Trazado_718527" data-name="Trazado 718527" d="M310.016,183.445c-.358-.352-1.1.3-.071,3.167,0,0-2.1-1.036-1.884-.522s2.455,1.388,2.455,1.388l-.084-.428S310.374,183.8,310.016,183.445Z" transform="translate(-160.719 -95.665)"/>
    <path id="Trazado_718528" data-name="Trazado 718528" d="M307.715,238.423a5.86,5.86,0,0,0,5.215,3.213c3.76,0,4.2-2.308,4.2-2.308l-4.156-1.273-5.257.366Z" transform="translate(-160.547 -124.203)" fill="#f5b0a6"/>
    <path id="Trazado_718529" data-name="Trazado 718529" d="M328.556,221.761l3.538.766C331.022,220.754,328.556,221.761,328.556,221.761Z" transform="translate(-171.421 -115.552)" fill="#f18a8b"/>
    <path id="Trazado_718530" data-name="Trazado 718530" d="M468.8,221.838l1.948,6.373a5.009,5.009,0,0,0,2.966-.791,4.109,4.109,0,0,0,1.809-2.145l.579,1.272.494-1.716c1.506-3.57-2.493-8.832-2.493-8.832Z" transform="translate(-244.593 -112.694)"/>
    <path id="Trazado_718531" data-name="Trazado 718531" d="M460.3,219.1l-8.761.6,1.923,11.257a8.517,8.517,0,0,0,4.97.46c3.535-.659,4.15-1.69,4.15-1.69l-1.46-6.93-.82-3.692Z" transform="translate(-235.584 -114.311)" fill="#f5b0a6"/>
    <path id="Trazado_718532" data-name="Trazado 718532" d="M457.9,228.923l7.91,4.357-1.372-6.46Z" transform="translate(-238.904 -118.34)" fill="#f18a8b"/>
    <path id="Trazado_718533" data-name="Trazado 718533" d="M463.777,206.279l-1.686-5.933-.976-3.445a5.421,5.421,0,0,0-6.686-3.722l-7.508,2.123,4.213,14.836a1.716,1.716,0,0,0,1.442,1.228l6.858.821a1.722,1.722,0,0,0,1.532-.62l2.635-3.243a1.7,1.7,0,0,0,.32-1.537Z" transform="translate(-233.177 -100.682)" fill="#f5b0a6"/>
    <path id="Trazado_718534" data-name="Trazado 718534" d="M476.893,212.994a2.469,2.469,0,0,0,2.3,2.025l-1.177-4.459A2.433,2.433,0,0,0,476.893,212.994Z" transform="translate(-248.798 -109.857)" fill="#f18a8b"/>
    <path id="Trazado_718535" data-name="Trazado 718535" d="M470.1,205.118a.225.225,0,0,0-.39.226l2.82,4.846-1.859,1.27a.224.224,0,0,0,.169.405.248.248,0,0,0,.085-.035l2.031-1.387a.224.224,0,0,0,.068-.3l-2.925-5.027Z" transform="translate(-245.049 -106.959)" fill="#f18a8b"/>
    <path id="Trazado_718536" data-name="Trazado 718536" d="M446.613,215.128a3.135,3.135,0,1,0,3.881,2.162A3.132,3.132,0,0,0,446.613,215.128Z" transform="translate(-231.822 -112.178)" fill="#f5b0a6"/>
    <path id="Trazado_718537" data-name="Trazado 718537" d="M471.773,200.871c.044.615,2.282.425,2.367-.234C474.275,199.594,471.7,199.851,471.773,200.871Z" transform="translate(-246.142 -104.331)"/>
    <path id="Trazado_718538" data-name="Trazado 718538" d="M457.727,204.724c.45.49,2.389-.638,2.071-1.166C459.269,202.681,457.014,203.949,457.727,204.724Z" transform="translate(-238.742 -106.049)"/>
    <path id="Trazado_718539" data-name="Trazado 718539" d="M458.568,215.006a2.368,2.368,0,1,0,2.771,1.893A2.368,2.368,0,0,0,458.568,215.006Z" transform="translate(-238.241 -112.155)" fill="#f18a8b"/>
    <path id="Trazado_718540" data-name="Trazado 718540" d="M463.75,210.708c-.331.094-.469.629-.309,1.2s.561.951.891.858.469-.629.309-1.2S464.081,210.615,463.75,210.708Z" transform="translate(-241.761 -109.927)"/>
    <path id="Trazado_718541" data-name="Trazado 718541" d="M475.451,207.492c-.319.09-.453.607-.3,1.155s.54.918.861.828.453-.607.3-1.155S475.771,207.4,475.451,207.492Z" transform="translate(-247.872 -108.249)"/>
    <path id="Trazado_718542" data-name="Trazado 718542" d="M448.265,220.238l2.224,1.281.16-.278-2.223-1.28Z" transform="translate(-233.877 -114.762)" fill="#a5a5a5"/>
    <path id="Trazado_718543" data-name="Trazado 718543" d="M449.266,222.371l.275.165.577-.955-.275-.165Z" transform="translate(-234.4 -115.521)" fill="#a5a5a5"/>
    <path id="Trazado_718544" data-name="Trazado 718544" d="M448.27,186.894c-1-.633-4.431.1-4.431.1-9.871,2.92-9.882,12.1-6.636,21.1s8.68,6.993,8.68,6.993c-.494.036-1.323-.991-1.323-.991,6.344,2.053,8.272-2.589,8.272-2.589-8.473-1.727-9.237-11.876-9.237-11.876,2.884-2.017,4.815-7.726,4.815-7.726l-.493,3.342c4.047-2.566,3.447-5.362,3.447-5.362a8.2,8.2,0,0,1,4.052,4.835s2.871-.628,1.064-5.115-8.208-2.709-8.208-2.709Z" transform="translate(-227.098 -97.328)"/>
    <path id="Trazado_718545" data-name="Trazado 718545" d="M466.622,240.3l-1.547-.574c-1.728,2.9-6,2.57-6,2.57,1,1.3,6.216,5.593,7.836,5.358s.695-5.961.695-5.961l-.98-1.394Z" transform="translate(-239.515 -125.075)" fill="#f5b0a6"/>
    <path id="Trazado_718546" data-name="Trazado 718546" d="M476.573,243.583l2.061,4.655,1.063.847-2.124-5.442Z" transform="translate(-248.647 -127.086)" fill="#006f6e"/>
    <path id="Trazado_718547" data-name="Trazado 718547" d="M471.8,222.16l.136.37a7.088,7.088,0,0,1,2.579-.563l.125-.373C473.988,221.377,472.024,222.079,471.8,222.16Z" transform="translate(-246.158 -115.592)" fill="#f18a8b"/>
    <path id="Trazado_718548" data-name="Trazado 718548" d="M428.107,296.986l11.463-6.5L427.623,293.6Z" transform="translate(-223.108 -151.558)" fill="#f18a8b"/>
    <path id="Trazado_718549" data-name="Trazado 718549" d="M438.235,343.629a50.266,50.266,0,0,0-1.294,7.619s22.886-2.378,28.506-10.279l-.4-.524S454.853,346.048,438.235,343.629Z" transform="translate(-227.969 -177.623)" fill="#1c466d" opacity="0.66"/>
  </g>
</svg>
