<svg id="Grupo_1027742" data-name="Grupo 1027742" xmlns="http://www.w3.org/2000/svg" width="293.204" height="353.07" viewBox="0 0 293.204 353.07">
  <g id="Grupo_1027750" data-name="Grupo 1027750" transform="translate(0 0)">
    <g id="Grupo_1027743" data-name="Grupo 1027743" transform="translate(0)">
      <g id="Grupo_1027742-2" data-name="Grupo 1027742" transform="translate(0)">
        <path id="Trazado_726373" data-name="Trazado 726373" d="M388.338,98.815a46.038,46.038,0,0,1,28.55-13.083,51.2,51.2,0,0,1,30.647,7.419,54.283,54.283,0,0,1,21.578,25c5.873,13.867,5.457,30.563-2.325,43.456s-23.162,21.19-38.1,19.3a23.739,23.739,0,0,0,15.772,10.361c-11.582,4.049-24.733,2.721-35.755-2.668s-19.943-14.625-25.89-25.357a61.568,61.568,0,0,1-7.983-33.285C375.537,118.412,380.176,107.008,388.338,98.815Z" transform="translate(-374.73 -85.565)" fill="#e8e8e8"/>
      </g>
    </g>
    <g id="Grupo_1027745" data-name="Grupo 1027745" transform="translate(94.967 31.728)">
      <g id="Grupo_1027744" data-name="Grupo 1027744" transform="translate(0)">
        <path id="Trazado_726374" data-name="Trazado 726374" d="M372.85,162.491a42.787,42.787,0,0,0-2.449-45.2C378.05,130.812,377.662,147.722,372.85,162.491Z" transform="translate(-370.401 -117.293)" fill="#e8e8e8"/>
      </g>
    </g>
    <g id="Grupo_1027747" data-name="Grupo 1027747" transform="translate(81.178 84.154)">
      <g id="Grupo_1027746" data-name="Grupo 1027746" transform="translate(0)">
        <path id="Trazado_726375" data-name="Trazado 726375" d="M391.945,169.719a37.151,37.151,0,0,1-9.557,7.6,8.583,8.583,0,0,0,9.557-7.6Z" transform="translate(-382.388 -169.719)" fill="#e8e8e8"/>
      </g>
    </g>
    <g id="Grupo_1027749" data-name="Grupo 1027749" transform="translate(5.943 82.423)">
      <g id="Grupo_1027748" data-name="Grupo 1027748" transform="translate(0)">
        <path id="Trazado_726376" data-name="Trazado 726376" d="M455.826,167.988a64.913,64.913,0,0,0,11.354,14.543A19.391,19.391,0,0,1,455.826,167.988Z" transform="translate(-455.826 -167.988)" fill="#e8e8e8"/>
      </g>
    </g>
  </g>
  <g id="Grupo_1027906" data-name="Grupo 1027906" transform="translate(19.173 33.506)">
    <g id="Grupo_1027752" data-name="Grupo 1027752" transform="translate(8.072 71.265)">
      <g id="Grupo_1027751" data-name="Grupo 1027751" transform="translate(0)">
        <path id="Trazado_726377" data-name="Trazado 726377" d="M369.577,190.337a422.875,422.875,0,0,0-2.9,59.09c26.474-14.069,26.72-21.51,48.181-40.22,10-8.717,21.59-12.226,24.613-11.794,4.3.616,3.161,3.514,4.359,7.692,3.147,10.984,2.876,23.131-2.319,33.308-3.154,6.179-12.7,10.413-18.448,14.294-21.985,14.837-38.274,25.469-60.1,31.241a19.176,19.176,0,0,1-24.05-17.762c-1.029-25.326.841-51.234,6.445-75.85Z" transform="translate(-338.648 -190.336)" fill="#378099"/>
      </g>
    </g>
    <g id="Grupo_1027754" data-name="Grupo 1027754" transform="translate(230.508 167.782)">
      <g id="Grupo_1027753" data-name="Grupo 1027753" transform="translate(0)">
        <path id="Trazado_726378" data-name="Trazado 726378" d="M222.076,288.743l1.366-1.89Z" transform="translate(-222.076 -286.853)" fill="#378099"/>
      </g>
    </g>
    <g id="Grupo_1027756" data-name="Grupo 1027756" transform="translate(12.395 25.533)">
      <g id="Grupo_1027755" data-name="Grupo 1027755" transform="translate(0)">
        <path id="Trazado_726379" data-name="Trazado 726379" d="M440.86,144.753l.7-.149Z" transform="translate(-440.86 -144.604)" fill="#378099"/>
      </g>
    </g>
    <g id="Grupo_1027758" data-name="Grupo 1027758" transform="translate(70.326 90.706)">
      <g id="Grupo_1027757" data-name="Grupo 1027757" transform="translate(0)">
        <path id="Trazado_726380" data-name="Trazado 726380" d="M361.344,266.032l.944-.332c-2.528-7.182.587-15.088,3.645-20.456,1.26-2.211,2.687-4.391,4.068-6.5a67.684,67.684,0,0,0,6.943-12.44c.63-1.634,1.149-3.354,1.651-5.017,1.167-3.864,2.373-7.859,5.029-10.847l-.747-.664c-2.8,3.152-4.041,7.255-5.239,11.222-.5,1.646-1.01,3.347-1.627,4.946a66.9,66.9,0,0,1-6.847,12.252c-1.388,2.121-2.824,4.314-4.1,6.552C361.9,250.3,358.691,258.494,361.344,266.032Z" transform="translate(-360.36 -209.777)"/>
      </g>
    </g>
    <g id="Grupo_1027905" data-name="Grupo 1027905">
      <g id="Grupo_1027864" data-name="Grupo 1027864" transform="translate(0 25.883)">
        <g id="Grupo_1027776" data-name="Grupo 1027776" transform="translate(0)">
          <g id="Grupo_1027770" data-name="Grupo 1027770" transform="translate(0)">
            <g id="Grupo_1027763" data-name="Grupo 1027763" transform="translate(3.932)">
              <g id="Grupo_1027760" data-name="Grupo 1027760" transform="translate(19.16 6.654)">
                <g id="Grupo_1027759" data-name="Grupo 1027759" transform="translate(0)">
                  <path id="Trazado_726381" data-name="Trazado 726381" d="M430.208,156.318c.222-.892.8-2.163.615-3.063s-.552-1.744-1.465-1.638c-.587.069-2.574,2.113-2.929,2.585-1.366,1.815-.745,3.721-2.241,5.429-2.424,2.768-5.891,4.9-7.152,8.358,6.391,5.326,8.662,10.424,9.12,18.731,2.808-1.877,4.021-5.458,4.135-8.834s-.676-6.711-.975-10.076A34.926,34.926,0,0,1,430.208,156.318Z" transform="translate(-417.036 -151.608)" fill="#ea8f7d"/>
                </g>
              </g>
              <g id="Grupo_1027762" data-name="Grupo 1027762" transform="translate(0)">
                <g id="Grupo_1027761" data-name="Grupo 1027761" transform="translate(0)">
                  <path id="Trazado_726382" data-name="Trazado 726382" d="M420.407,146.135a1.069,1.069,0,0,1,1.241-.039,3.065,3.065,0,0,1,.9.967c2.681,3.907,5.228,8.041,8.588,11.32q.559-.12,1.121-.217a31.858,31.858,0,0,1-6.564-12.031,1.316,1.316,0,0,1-.073-.551.918.918,0,0,1,1.209-.58,2.51,2.51,0,0,1,1.123,1c1.736,2.367,3.117,4.97,4.67,7.461a32.619,32.619,0,0,0,3.169,4.328l.132-.008c.164-.006.329-.007.494-.01a30.386,30.386,0,0,1-4.957-8.691,1.34,1.34,0,0,1-.11-.826.876.876,0,0,1,.812-.562,1.8,1.8,0,0,1,.989.315c1.328.817,2.029,2.325,2.772,3.7a29.312,29.312,0,0,0,5.254,6.961c.1.05.2.094.3.15a10.322,10.322,0,0,1,3.021,2.945,28.725,28.725,0,0,1,5.107,21.78l-1.7-.68a49.669,49.669,0,0,1-8.649.061,64.915,64.915,0,0,0-13.578-22.78c.658-.291,1.33-.549,2.009-.788a34.739,34.739,0,0,1-7.337-11.507C420.129,147.278,419.96,146.546,420.407,146.135Z" transform="translate(-420.126 -144.954)" fill="#ea8f7d"/>
                </g>
              </g>
            </g>
            <g id="Grupo_1027765" data-name="Grupo 1027765" transform="translate(0 3.014)">
              <g id="Grupo_1027764" data-name="Grupo 1027764" transform="translate(0)">
                <path id="Trazado_726383" data-name="Trazado 726383" d="M433.837,160.144c4.857,2.058,10.306,3.175,14.263,6.663,2.9,2.557,3.515,7.466,4.247,11.263s1.7,9.964,1.594,13.83a83.955,83.955,0,0,0-14.992-1.809c2.585-12.15-1.3-12.893-3.793-16.915s-5.775-7.483-8.6-11.276-5.745-8.926-6.09-13.643C423.4,146.189,423.482,155.753,433.837,160.144Z" transform="translate(-420.466 -147.968)" fill="#f9b9b9"/>
              </g>
            </g>
            <g id="Grupo_1027767" data-name="Grupo 1027767" transform="translate(19.412 35.363)">
              <g id="Grupo_1027766" data-name="Grupo 1027766" transform="translate(0)">
                <path id="Trazado_726384" data-name="Trazado 726384" d="M433.319,186.041a81.3,81.3,0,0,0-14.58-3.705q-.033-.921-.067-1.843a42.535,42.535,0,0,1,15.866,1.555Q433.929,184.044,433.319,186.041Z" transform="translate(-418.672 -180.317)"/>
              </g>
            </g>
            <g id="Grupo_1027769" data-name="Grupo 1027769" transform="translate(15.606 36.901)">
              <g id="Grupo_1027768" data-name="Grupo 1027768" transform="translate(0)">
                <path id="Trazado_726385" data-name="Trazado 726385" d="M417.243,194.808a53.775,53.775,0,0,0,2.524-12.869,45.953,45.953,0,0,1,18.577,2.719,29.019,29.019,0,0,0-1.054,10.531A70.508,70.508,0,0,0,417.243,194.808Z" transform="translate(-417.243 -181.854)" fill="#ffa031"/>
              </g>
            </g>
          </g>
          <g id="Grupo_1027775" data-name="Grupo 1027775" transform="translate(8.071 45.382)">
            <g id="Grupo_1027772" data-name="Grupo 1027772" transform="translate(11.894)">
              <g id="Grupo_1027771" data-name="Grupo 1027771" transform="translate(0)">
                <path id="Trazado_726386" data-name="Trazado 726386" d="M362.307,254.586c-3.1,5.17-9.306,8.272-14.476,12.408-3.985-24.9-10.843-50.762-7.644-76.658H358.4a422.9,422.9,0,0,0-2.9,59.091c26.474-14.069,26.72-21.51,48.181-40.22,10-8.717,21.59-12.226,24.613-11.794,4.3.616,3.161,3.514,4.359,7.692a53.639,53.639,0,0,1,1.331,5.9C406.747,212.8,379.972,230.377,362.307,254.586Z" transform="translate(-339.362 -190.336)" fill="#378099"/>
              </g>
            </g>
            <g id="Grupo_1027774" data-name="Grupo 1027774" transform="translate(0)">
              <g id="Grupo_1027773" data-name="Grupo 1027773" transform="translate(0)">
                <path id="Trazado_726387" data-name="Trazado 726387" d="M345.368,190.336h6.005c-3.2,25.9,3.659,51.757,7.644,76.658,5.17-4.136,11.374-7.238,14.476-12.408,28.434-21.714,44.44-41.786,71.677-43.576,1.561,9.3.629,19.021-3.65,27.4-3.154,6.179-12.7,10.413-18.448,14.294-22.942,15.483-39.682,26.388-62.983,31.967a17.014,17.014,0,0,1-21.036-15.587C337.757,242.842,339.55,215.893,345.368,190.336Z" transform="translate(-338.653 -190.336)" fill="#22697c"/>
              </g>
            </g>
          </g>
        </g>
        <g id="Grupo_1027838" data-name="Grupo 1027838" transform="translate(66.45 22.892)">
          <g id="Grupo_1027778" data-name="Grupo 1027778" transform="translate(0 150.616)">
            <g id="Grupo_1027777" data-name="Grupo 1027777">
              <path id="Trazado_726388" data-name="Trazado 726388" d="M278.078,438.637q5.77-60.088,11.542-120.175c26.356,2.266,52.462,9.73,78.818,12,15.591,34.537,24.107,72.273,15.852,108.179Z" transform="translate(-278.078 -318.462)"/>
            </g>
          </g>
          <g id="Grupo_1027837" data-name="Grupo 1027837" transform="translate(1.276)">
            <g id="Grupo_1027805" data-name="Grupo 1027805" transform="translate(0 26.729)">
              <g id="Grupo_1027780" data-name="Grupo 1027780" transform="translate(46.435)">
                <g id="Grupo_1027779" data-name="Grupo 1027779" transform="translate(0)">
                  <path id="Trazado_726389" data-name="Trazado 726389" d="M284.785,197.161l55,16.81c-.075-1.862-2.642-5.886-3.726-7.4-5.575-7.792-13.3-9.986-22.771-11.409S294.142,195.1,284.785,197.161Z" transform="translate(-284.785 -194.575)" fill="#22697c"/>
                </g>
              </g>
              <g id="Grupo_1027782" data-name="Grupo 1027782" transform="translate(18.354 2.7)">
                <g id="Grupo_1027781" data-name="Grupo 1027781">
                  <path id="Trazado_726390" data-name="Trazado 726390" d="M299.11,234.165c5.31-10.766,13.829-25.181,17.941-36.89a241.155,241.155,0,0,1,50.819,13.108c-34.246,40.41-51.384,85.92-54.8,133.126-6.274-1.97-20.474-6.565-26.884-8.013C289.187,300.623,279.74,273.432,299.11,234.165Z" transform="translate(-286.185 -197.275)" fill="#ffa031"/>
                </g>
              </g>
              <g id="Grupo_1027784" data-name="Grupo 1027784" transform="translate(18.354 2.7)">
                <g id="Grupo_1027783" data-name="Grupo 1027783">
                  <path id="Trazado_726391" data-name="Trazado 726391" d="M299.11,234.165c5.31-10.766,13.829-25.181,17.941-36.89a241.155,241.155,0,0,1,50.819,13.108,243.041,243.041,0,0,0-22.885,31.811c-9.685-5.034-14.7-16.195-18.216-25.866-12.408,7.238-23.782,19.388-26.884,32.83-7.97,29.886-8.321,57.964-7.939,87.85-2.223-.631-4.22-1.164-5.761-1.512C289.187,300.623,279.74,273.432,299.11,234.165Z" transform="translate(-286.185 -197.275)" fill="#d5801c"/>
                </g>
              </g>
              <g id="Grupo_1027786" data-name="Grupo 1027786" transform="translate(0 1.477)">
                <g id="Grupo_1027785" data-name="Grupo 1027785" transform="translate(0)">
                  <path id="Trazado_726392" data-name="Trazado 726392" d="M342.428,306.1c.367-10.661-2.354-41.379-.512-52.027,1.068-6.175,9.121-19.34,11.891-25.074,6.311-13.068,6.7-19.66,23.089-32.943,3.213.389,6.31.8,9.328,1.223-4.112,11.709-9.669,20.6-15.615,33.271-3.368,7.176-7.707,18.31-8.789,26.108-6.367,45.9-2.065,90-3.407,135.293-7.294-.813-14.15-4.661-21.409-5.7C337.244,355.743,341.39,336.233,342.428,306.1Z" transform="translate(-337.004 -196.052)" fill="#378099"/>
                </g>
              </g>
              <g id="Grupo_1027788" data-name="Grupo 1027788" transform="translate(10.686 1.408)">
                <g id="Grupo_1027787" data-name="Grupo 1027787" transform="translate(0)">
                  <path id="Trazado_726393" data-name="Trazado 726393" d="M337.64,253.531a34.065,34.065,0,0,0-3.607,10.767c-.632,4.376,9.514,16.385,10.819,25.709-.109-16.548,3.814-32.924,9.609-48.425s13.447-30.23,21.077-44.914c-1.778-1.2-4.289-.706-6,.589a15.628,15.628,0,0,0-3.846,5.1l-9.359,16.8C349.985,230.551,343.637,241.948,337.64,253.531Z" transform="translate(-334.005 -195.983)" fill="#22697c"/>
                </g>
              </g>
              <g id="Grupo_1027790" data-name="Grupo 1027790" transform="translate(13.264 81.162)">
                <g id="Grupo_1027789" data-name="Grupo 1027789" transform="translate(0)">
                  <path id="Trazado_726394" data-name="Trazado 726394" d="M372.96,277.722c-.517,9.306-1.174,16.4-1.292,24.3-.159,10.613-.339,21.053-.388,31.666-1.762-12.2-4.029-24.647-5.791-36.851q-.894-6.2-1.789-12.393a8.958,8.958,0,0,1,.093-4.363,6.017,6.017,0,0,1,3.346-3.243,17.844,17.844,0,0,1,4.647-1.1Z" transform="translate(-363.476 -275.737)" fill="#22697c"/>
                </g>
              </g>
              <g id="Grupo_1027792" data-name="Grupo 1027792" transform="translate(42.986 14.463)">
                <g id="Grupo_1027791" data-name="Grupo 1027791" transform="translate(0)">
                  <path id="Trazado_726395" data-name="Trazado 726395" d="M343.238,222.532l-.269,13.009c2.252,37.726-28.063,50.337-25.839,88.064,1.228,20.828,20.891,53.071,17.233,73.672-23.07.4-44.554-1.29-67.539-3.1-7.239-64.84,6.227-130.089,52.879-185.139C327.106,211.825,334.708,216.587,343.238,222.532Z" transform="translate(-264.988 -209.038)" fill="#378099"/>
                </g>
              </g>
              <g id="Grupo_1027794" data-name="Grupo 1027794" transform="translate(50.592 9.647)">
                <g id="Grupo_1027793" data-name="Grupo 1027793" transform="translate(0)">
                  <path id="Trazado_726396" data-name="Trazado 726396" d="M331.6,204.222l4.033,5.514a157.379,157.379,0,0,0-24.389,77.885,4.823,4.823,0,0,1-3.922,4.535,101.814,101.814,0,0,0-20.992,6.45c4.238-25.669,18.7-48.325,32.876-70.139C324.173,220.824,329.221,213.022,331.6,204.222Z" transform="translate(-286.329 -204.222)" fill="#22697c"/>
                </g>
              </g>
              <g id="Grupo_1027796" data-name="Grupo 1027796" transform="translate(43.209 98.907)">
                <g id="Grupo_1027795" data-name="Grupo 1027795" transform="translate(0)">
                  <path id="Trazado_726397" data-name="Trazado 726397" d="M322.511,352.815c3.176-16.171,8.871-29.123,17.767-43,1.532-2.39,3.217-5.088,2.609-7.86-.453-2.068-2.109-3.656-3.857-4.85a36.506,36.506,0,0,1-5.2-3.627c-3.673,4.8-5.474,10.741-6.9,16.61A157.431,157.431,0,0,0,322.511,352.815Z" transform="translate(-322.465 -293.482)" fill="#22697c"/>
                </g>
              </g>
              <g id="Grupo_1027798" data-name="Grupo 1027798" transform="translate(81.362 28.641)">
                <g id="Grupo_1027797" data-name="Grupo 1027797" transform="translate(0)">
                  <path id="Trazado_726398" data-name="Trazado 726398" d="M268.428,315.592c3.1-10.34-2.068-19.646-3.1-29.986-2.068-21.714,12.408-40.326,27.918-54.8,2.782-3.478,6.972-6.944,11.618-7.588l-.255,12.325c2.252,37.726-28.063,50.337-25.839,88.064C280,344.433,299.659,376.676,296,397.277c-9.074.159-17.9-.014-26.671-.384.043-.562.1-1.118.132-1.684C269.462,368.325,260.156,342.475,268.428,315.592Z" transform="translate(-265.002 -223.216)" fill="#22697c"/>
                </g>
              </g>
              <g id="Grupo_1027800" data-name="Grupo 1027800" transform="translate(89.213 79.676)">
                <g id="Grupo_1027799" data-name="Grupo 1027799" transform="translate(0)">
                  <path id="Trazado_726399" data-name="Trazado 726399" d="M295.868,398.324a112.223,112.223,0,0,0-8.375-43.259c-.6-1.451-1.226-2.893-1.856-4.337-2.091-4.794-4.253-9.751-5.132-14.941-1.47-8.677.7-17.763,2.616-25.779,2.8-11.707,5.967-24.977,13.89-35.142l-.79-.615c-8.055,10.337-11.252,23.719-14.073,35.524-1.937,8.11-4.133,17.3-2.629,26.179.9,5.31,3.086,10.324,5.2,15.174.627,1.437,1.253,2.873,1.848,4.317a111.229,111.229,0,0,1,8.3,42.871Z" transform="translate(-279.02 -274.251)"/>
                </g>
              </g>
              <g id="Grupo_1027802" data-name="Grupo 1027802" transform="translate(54.989 142.3)">
                <g id="Grupo_1027801" data-name="Grupo 1027801" transform="translate(0)">
                  <path id="Trazado_726400" data-name="Trazado 726400" d="M328.65,336.875l2.585,7.065s-16.243,18.311-35.113,16.76l-2.269-6.513Z" transform="translate(-293.853 -336.875)" fill="#378099"/>
                </g>
              </g>
              <g id="Grupo_1027804" data-name="Grupo 1027804" transform="translate(100.869 41.32)">
                <g id="Grupo_1027803" data-name="Grupo 1027803" transform="translate(0)">
                  <path id="Trazado_726401" data-name="Trazado 726401" d="M283.414,269.952c-2.04-11.275-.871-22.949,1.941-34.057-5.442,5.027-7.752,12.754-7.726,20.163s2.125,14.638,4.314,21.716a4.686,4.686,0,0,0,1.91-3.617A16.307,16.307,0,0,0,283.414,269.952Z" transform="translate(-277.629 -235.895)"/>
                </g>
              </g>
            </g>
            <g id="Grupo_1027813" data-name="Grupo 1027813" transform="translate(54.801)">
              <g id="Grupo_1027807" data-name="Grupo 1027807" transform="translate(22.768)">
                <g id="Grupo_1027806" data-name="Grupo 1027806" transform="translate(0)">
                  <path id="Trazado_726402" data-name="Trazado 726402" d="M268.452,185.937a32.552,32.552,0,0,1,29.157-18.088c4.042.059,8.633,1.31,10.371,4.959,1.664,3.493-.012,7.657-2.188,10.857a36.861,36.861,0,0,1-29.961,15.844c-2.456,0-5.1-.333-6.912-1.992a7.35,7.35,0,0,1-2.14-5.637A15,15,0,0,1,268.452,185.937Z" transform="translate(-266.775 -167.846)"/>
                </g>
              </g>
              <g id="Grupo_1027812" data-name="Grupo 1027812" transform="translate(0 8.285)">
                <g id="Grupo_1027809" data-name="Grupo 1027809" transform="translate(0)">
                  <g id="Grupo_1027808" data-name="Grupo 1027808" transform="translate(0)">
                    <path id="Trazado_726403" data-name="Trazado 726403" d="M295.06,205.462a80.752,80.752,0,0,0,12.071-29.331,90.9,90.9,0,0,0,23.463,3.349c-1.577,12.247-3.566,18.415.829,29.955C317.481,210.39,306.745,213.128,295.06,205.462Z" transform="translate(-295.06 -176.131)" fill="#f9b9b9"/>
                  </g>
                </g>
                <g id="Grupo_1027811" data-name="Grupo 1027811" transform="translate(4.846)">
                  <g id="Grupo_1027810" data-name="Grupo 1027810" transform="translate(0)">
                    <path id="Trazado_726404" data-name="Trazado 726404" d="M312.73,196.682a38.079,38.079,0,0,1-14.8.431,80.723,80.723,0,0,0,7.225-20.982,90.939,90.939,0,0,0,21.423,3.293C324.486,187.018,321.149,194.811,312.73,196.682Z" transform="translate(-297.929 -176.131)" fill="#ea8f7d"/>
                  </g>
                </g>
              </g>
            </g>
            <g id="Grupo_1027815" data-name="Grupo 1027815" transform="translate(54.989 170.063)">
              <g id="Grupo_1027814" data-name="Grupo 1027814" transform="translate(0)">
                <path id="Trazado_726405" data-name="Trazado 726405" d="M297.128,354.187c14.16-.957,24.992-5.4,34.107-16.278C319.4,345.045,309.869,348.824,297.128,354.187Z" transform="translate(-297.128 -337.909)"/>
              </g>
            </g>
            <g id="Grupo_1027817" data-name="Grupo 1027817" transform="translate(3.764 154.76)">
              <g id="Grupo_1027816" data-name="Grupo 1027816" transform="translate(0)">
                <path id="Trazado_726406" data-name="Trazado 726406" d="M382.46,335.656a9.972,9.972,0,0,1-4.6-13.05A34.879,34.879,0,0,0,382.46,335.656Z" transform="translate(-376.968 -322.606)"/>
              </g>
            </g>
            <g id="Grupo_1027822" data-name="Grupo 1027822" transform="translate(45.009 27.415)">
              <g id="Grupo_1027819" data-name="Grupo 1027819" transform="translate(16.59 3.948)">
                <g id="Grupo_1027818" data-name="Grupo 1027818" transform="translate(0)">
                  <path id="Trazado_726407" data-name="Trazado 726407" d="M311.772,222.644a37.565,37.565,0,0,1-3.386,6.082,7.831,7.831,0,0,1-5.853,3.334c-2.586.01-4.892-1.831-6.179-4.074a22.386,22.386,0,0,1-2.193-7.4,21.7,21.7,0,0,0-2.236-7.382,2.947,2.947,0,0,1-.673-2.2,3.18,3.18,0,0,1,1.936-2.05c3.774-.723,7.751.967,11.58.643,5.961-.5,10.963-4.916,13.494-10.337,2.456-.775,3.867,6.446,6.363,8.707A40.441,40.441,0,0,0,311.772,222.644Z" transform="translate(-291.196 -199.209)" fill="#fefefe"/>
                </g>
              </g>
              <g id="Grupo_1027821" data-name="Grupo 1027821" transform="translate(0)">
                <g id="Grupo_1027820" data-name="Grupo 1027820" transform="translate(0)">
                  <path id="Trazado_726408" data-name="Trazado 726408" d="M339.616,212.479a14.343,14.343,0,0,0-7.844,3.209c-1.608,1.328-3.317,3.14-5.364,2.745-1.581-.3-2.617-1.9-2.937-3.477-.668-3.284.969-6.6,2.953-9.3s4.395-5.166,5.661-8.269c2.028-.582,4.815-1.543,6.843-2.125-1.684,2.075-2.326,5.04-2.957,7.871-.581,2.609,2.668,4.11,4.767,5.764.7.551.576,2.559-.021,3.218A1.613,1.613,0,0,1,339.616,212.479Z" transform="translate(-323.319 -195.261)" fill="#fefefe"/>
                </g>
              </g>
            </g>
            <g id="Grupo_1027836" data-name="Grupo 1027836" transform="translate(30.194 43.548)">
              <g id="Grupo_1027824" data-name="Grupo 1027824" transform="translate(0)">
                <g id="Grupo_1027823" data-name="Grupo 1027823" transform="translate(0)">
                  <path id="Trazado_726409" data-name="Trazado 726409" d="M325.41,341.4l.983-.181c-.973-5.246-2.077-11.189-.491-16.648a36.333,36.333,0,0,1,1.992-4.959,41.238,41.238,0,0,0,1.886-4.583c1.522-4.747,1.267-9.807,1.02-14.7-.106-2.1-.215-4.266-.182-6.372.145-9.034,1.284-31.664,8.716-46.649a89.354,89.354,0,0,1,7.237-11.565c5.2-7.417,10.107-14.423,9.388-24.352l-1,.072c.693,9.574-4.117,16.438-9.209,23.7a90.1,90.1,0,0,0-7.314,11.7c-7.524,15.167-8.675,37.975-8.821,47.077-.034,2.139.077,4.326.183,6.439.243,4.8.494,9.772-.973,14.346a40.255,40.255,0,0,1-1.843,4.47,37.106,37.106,0,0,0-2.043,5.1C323.289,329.984,324.416,336.052,325.41,341.4Z" transform="translate(-324.102 -211.394)"/>
                </g>
              </g>
              <g id="Grupo_1027835" data-name="Grupo 1027835" transform="translate(4.492 9.234)">
                <g id="Grupo_1027826" data-name="Grupo 1027826" transform="translate(26.511)">
                  <g id="Grupo_1027825" data-name="Grupo 1027825" transform="translate(0)">
                    <path id="Trazado_726410" data-name="Trazado 726410" d="M323.966,220.656a1.357,1.357,0,0,1,.186,2.593,1.357,1.357,0,1,1-.186-2.593Z" transform="translate(-322.313 -220.628)" fill="#fefefe"/>
                  </g>
                </g>
                <g id="Grupo_1027828" data-name="Grupo 1027828" transform="translate(13.077 22.686)">
                  <g id="Grupo_1027827" data-name="Grupo 1027827" transform="translate(0)">
                    <path id="Trazado_726411" data-name="Trazado 726411" d="M338.311,243.435a2.162,2.162,0,0,1-1.726,2.886,1.7,1.7,0,0,1,1.726-2.886Z" transform="translate(-335.973 -243.315)" fill="#fefefe"/>
                  </g>
                </g>
                <g id="Grupo_1027830" data-name="Grupo 1027830" transform="translate(4.571 47.362)">
                  <g id="Grupo_1027829" data-name="Grupo 1027829" transform="translate(0)">
                    <path id="Trazado_726412" data-name="Trazado 726412" d="M345.868,268.047a1.554,1.554,0,0,1,.31,2.839,1.554,1.554,0,1,1-.31-2.839Z" transform="translate(-343.861 -267.99)" fill="#fefefe"/>
                  </g>
                </g>
                <g id="Grupo_1027832" data-name="Grupo 1027832" transform="translate(3.206 72.718)">
                  <g id="Grupo_1027831" data-name="Grupo 1027831" transform="translate(0)">
                    <path id="Trazado_726413" data-name="Trazado 726413" d="M345.938,295.6a2.115,2.115,0,0,1,.234-1.693,1.234,1.234,0,0,1,1.545-.434,3.793,3.793,0,0,1,.6,2.068c-.076.725-.77,1.431-1.471,1.231A1.5,1.5,0,0,1,345.938,295.6Z" transform="translate(-345.863 -293.346)" fill="#fefefe"/>
                  </g>
                </g>
                <g id="Grupo_1027834" data-name="Grupo 1027834" transform="translate(0 98.271)">
                  <g id="Grupo_1027833" data-name="Grupo 1027833" transform="translate(0)">
                    <path id="Trazado_726414" data-name="Trazado 726414" d="M349.437,322.389a1.557,1.557,0,0,1-.318-1.137,3.7,3.7,0,0,1,.2-1.533,1.263,1.263,0,0,1,1.206-.814,1.2,1.2,0,0,1,.942.89,2.546,2.546,0,0,1-.061,1.356,2.244,2.244,0,0,1-.68,1.209A1.013,1.013,0,0,1,349.437,322.389Z" transform="translate(-349.118 -318.899)" fill="#fefefe"/>
                  </g>
                </g>
              </g>
            </g>
          </g>
        </g>
        <g id="Grupo_1027863" data-name="Grupo 1027863" transform="translate(170.982 53.156)">
          <g id="Grupo_1027843" data-name="Grupo 1027843" transform="translate(0 24.137)">
            <g id="Grupo_1027840" data-name="Grupo 1027840" transform="translate(0)">
              <g id="Grupo_1027839" data-name="Grupo 1027839" transform="translate(0)">
                <path id="Trazado_726415" data-name="Trazado 726415" d="M259.092,325.269c-.627-2.157-5.164-11.385-5.656-13.415-2.885-11.895-6.617-23.621-8.348-35.738s-6.947-23.542-1.855-34.672c2.951-6.45,7.941-20.524,14.888-19.1,5.6,1.152,10.987,10.164,12.946,15.535,5.656,15.5,6.473,30.1,10.37,51.936,1.666,9.331,1.686,18.813,1.375,28.329Z" transform="translate(-241.059 -222.247)" fill="#378099"/>
              </g>
            </g>
            <g id="Grupo_1027842" data-name="Grupo 1027842" transform="translate(0 19.031)">
              <g id="Grupo_1027841" data-name="Grupo 1027841" transform="translate(0)">
                <path id="Trazado_726416" data-name="Trazado 726416" d="M248.007,241.444c.025-.054.051-.112.075-.166,4.334,28.252,12.254,60.163,34.886,78.257l-19.1,5.734c-.627-2.157-5.164-11.385-5.656-13.415-2.885-11.895-6.617-23.621-8.348-35.738S242.915,252.574,248.007,241.444Z" transform="translate(-245.832 -241.278)" fill="#22697c"/>
              </g>
            </g>
          </g>
          <g id="Grupo_1027862" data-name="Grupo 1027862" transform="translate(11.468)">
            <g id="Grupo_1027854" data-name="Grupo 1027854" transform="translate(33.913)">
              <g id="Grupo_1027845" data-name="Grupo 1027845" transform="translate(3.324 6.933)">
                <g id="Grupo_1027844" data-name="Grupo 1027844" transform="translate(0)">
                  <path id="Trazado_726417" data-name="Trazado 726417" d="M234.263,209.374c-2.177,2.289-5.761,2.225-8.919,2.259a57.729,57.729,0,0,0-11.811,1.35c-3.283.725-6.851,1.71-9.88.247-3.605-1.741-5.184-6.421-8.918-7.867a3.642,3.642,0,0,0-2.848-.052,2.037,2.037,0,0,0-1.129,2.414,4.048,4.048,0,0,0,1.155,1.358c2.482,2.33,3.234,6,3.13,9.4s-.925,6.753-1.023,10.156.667,7.067,3.16,9.385q17.667-12.109,34.363-25.561Z" transform="translate(-190.656 -205.043)" fill="#ea8f7d"/>
                </g>
              </g>
              <g id="Grupo_1027847" data-name="Grupo 1027847" transform="translate(23.678 1.674)">
                <g id="Grupo_1027846" data-name="Grupo 1027846" transform="translate(0)">
                  <path id="Trazado_726418" data-name="Trazado 726418" d="M206.715,203.68c-6.63,5.666-15.257,8.3-23.615,10.792a57.924,57.924,0,0,0,9.473,1.391,19.4,19.4,0,0,0,9.326-1.746c5.666-2.816,8.8-8.869,12.01-14.322C211.113,199.6,208.846,201.859,206.715,203.68Z" transform="translate(-183.1 -199.784)" fill="#ea8f7d"/>
                </g>
              </g>
              <g id="Grupo_1027849" data-name="Grupo 1027849" transform="translate(0)">
                <g id="Grupo_1027848" data-name="Grupo 1027848" transform="translate(0)">
                  <path id="Trazado_726419" data-name="Trazado 726419" d="M198.789,252.647c.554-6.863,2.086-14.519,6-20.181,4.46-6.446,12.205-9.6,18.447-14.343a42.089,42.089,0,0,0,14.348-20.013c-2.651.473-4.8,2.413-6.5,4.5s-3.142,4.42-5.175,6.185c-3.915,3.4-9.366,4.192-14.354,5.613a95.15,95.15,0,0,0-10.727,3.974c-3.463,1.457-7.024,3.024-9.549,5.8-3.32,3.657-4.326,8.815-4.919,13.718s-4.025,10.7-6.442,15a95.333,95.333,0,0,1,16.544,2.456Z" transform="translate(-179.919 -198.11)" fill="#f9b9b9"/>
                </g>
              </g>
              <g id="Grupo_1027851" data-name="Grupo 1027851" transform="translate(0 35.565)">
                <g id="Grupo_1027850" data-name="Grupo 1027850" transform="translate(0)">
                  <path id="Trazado_726420" data-name="Trazado 726420" d="M222.81,233.675c4.875,1.587,9.765,3.263,14.777,4.6a52.054,52.054,0,0,0-3.014,14.372l-2.326,2.715a95.333,95.333,0,0,0-16.544-2.456c2.417-4.307,5.848-10.1,6.442-15C222.315,236.5,222.528,235.078,222.81,233.675Z" transform="translate(-215.703 -233.675)"/>
                </g>
              </g>
              <g id="Grupo_1027853" data-name="Grupo 1027853" transform="translate(7.107)">
                <g id="Grupo_1027852" data-name="Grupo 1027852" transform="translate(0)">
                  <path id="Trazado_726421" data-name="Trazado 726421" d="M184.173,224.185c2.525-2.781,6.086-4.348,9.549-5.8a95.079,95.079,0,0,1,10.727-3.974c4.988-1.421,10.439-2.211,14.354-5.613,2.033-1.765,3.472-4.1,5.175-6.185s3.851-4.025,6.5-4.5a42.085,42.085,0,0,1-14.349,20.013c-6.241,4.741-13.986,7.9-18.446,14.343a27.754,27.754,0,0,0-2.989,5.809c-5.012-1.337-9.9-3.013-14.777-4.6A19.472,19.472,0,0,1,184.173,224.185Z" transform="translate(-179.919 -198.11)" fill="#f9b9b9"/>
                </g>
              </g>
            </g>
            <g id="Grupo_1027861" data-name="Grupo 1027861" transform="translate(4.673 38.283)">
              <g id="Grupo_1027856" data-name="Grupo 1027856" transform="translate(30.305)">
                <g id="Grupo_1027855" data-name="Grupo 1027855">
                  <path id="Trazado_726422" data-name="Trazado 726422" d="M236.522,240.3a45.953,45.953,0,0,0-3.039,11.836,106.544,106.544,0,0,0-20.241-5.631q1.709-5.058,3.418-10.116Z" transform="translate(-213.242 -236.393)" fill="#ffa031"/>
                </g>
              </g>
              <g id="Grupo_1027858" data-name="Grupo 1027858" transform="translate(0 7.589)">
                <g id="Grupo_1027857" data-name="Grupo 1027857" transform="translate(0)">
                  <path id="Trazado_726423" data-name="Trazado 726423" d="M219.595,330.032c-4.48-3.094-6.288-9.023-5.872-14.452s2.689-10.519,4.929-15.481l25.333-56.117,22.842,4.827c-3.907,23.143-7.987,46.8-19.37,67.322-2.847,5.135-6.281,10.176-11.247,13.307S224.426,333.368,219.595,330.032Z" transform="translate(-213.665 -243.982)" fill="#22697c"/>
                </g>
              </g>
              <g id="Grupo_1027860" data-name="Grupo 1027860" transform="translate(2.746 29.008)">
                <g id="Grupo_1027859" data-name="Grupo 1027859" transform="translate(0)">
                  <path id="Trazado_726424" data-name="Trazado 726424" d="M245.47,317.6l1-.045c-.379-8.255,1.342-17.313,5.115-26.921,3.385-8.618,8.017-16.817,12.5-24.745l-.871-.493c-4.5,7.959-9.146,16.188-12.557,24.872C246.828,300.013,245.084,309.209,245.47,317.6Z" transform="translate(-245.418 -265.401)"/>
                </g>
              </g>
            </g>
            <path id="Trazado_726425" data-name="Trazado 726425" d="M271.1,256l.395-.4Z" transform="translate(-271.105 -198.11)" fill="#378099"/>
          </g>
        </g>
      </g>
      <g id="Grupo_1027904" data-name="Grupo 1027904" transform="translate(117.509)">
        <g id="Grupo_1027890" data-name="Grupo 1027890">
          <g id="Grupo_1027866" data-name="Grupo 1027866">
            <g id="Grupo_1027865" data-name="Grupo 1027865">
              <path id="Trazado_726426" data-name="Trazado 726426" d="M269.134,153.772c-.354-4.89,3.835-4.136,3.576-12.8-.407-13.636,8.868-9.7,12.279-13.227,2.978-3.075,4.2-8.091,8.444-8.616s8.008,2.434,12.236,3.1c4.64.732,6.956-1.6,11.374,0a30.434,30.434,0,0,1,18.1,18.095c1.927,4.989,1.319,11.06.689,16.371-1.064,8.963,2.93,21.2-10.841,25.456-5.444,1.683-9.985.368-15.6,1.343-4.55.79-9.62,5.568-14.225,5.222a22.4,22.4,0,0,1-12.778-4.741c-4.3-3.612-4.411-9.3-5.408-14.829S269.541,159.372,269.134,153.772Z" transform="translate(-269.112 -119.071)"/>
            </g>
          </g>
          <g id="Grupo_1027873" data-name="Grupo 1027873" transform="translate(4.365 11.849)">
            <g id="Grupo_1027868" data-name="Grupo 1027868" transform="translate(0)">
              <g id="Grupo_1027867" data-name="Grupo 1027867" transform="translate(0)">
                <path id="Trazado_726427" data-name="Trazado 726427" d="M332.072,156.206c-.117,5.51-2.379,10.787-5.4,15.4a47.617,47.617,0,0,1-18.8,16.655,30.832,30.832,0,0,1-16.324,3.168c-6.926-.526-10.52-2.893-11.133-10.958-.747-9.812-3.389-9.254-1.491-18.935.3-1.517,2.935-6,3.332-7.539.379-1.473.583-4.813,1.052-6.312,1.2-3.827,3.74-9,6.727-11.678,2.948-2.639,4.592-4.248,8.523-4.767,7.846-1.037,16.162.443,22.684,4.926S332.238,148.294,332.072,156.206Z" transform="translate(-278.247 -130.92)" fill="#f9b9b9"/>
              </g>
            </g>
            <g id="Grupo_1027870" data-name="Grupo 1027870" transform="translate(5.314 17.572)">
              <g id="Grupo_1027869" data-name="Grupo 1027869" transform="translate(0)">
                <path id="Trazado_726428" data-name="Trazado 726428" d="M321.043,171.424c-1.986-.93-3.761-2.7-3.936-4.889a7.175,7.175,0,0,1,1.69-4.661,39.607,39.607,0,0,0,3.027-4.057,9.437,9.437,0,0,0-.2-9.325,9.624,9.624,0,0,1,3.874,2.676,5.162,5.162,0,0,1,1.131,4.443,8.3,8.3,0,0,1-2.844,3.77l-3.337,2.991a6.808,6.808,0,0,0-1.914,2.311,4.589,4.589,0,0,0,.269,3.683A13.6,13.6,0,0,0,321.043,171.424Z" transform="translate(-317.092 -148.492)" fill="#ea8f7d"/>
              </g>
            </g>
            <g id="Grupo_1027872" data-name="Grupo 1027872" transform="translate(10.861)">
              <g id="Grupo_1027871" data-name="Grupo 1027871" transform="translate(0)">
                <path id="Trazado_726429" data-name="Trazado 726429" d="M303.826,149.522c-1.755-7.761-8.74-3.363-16.721-8.8-2.843-1.938-6.769-1.808-9.051-2.679,1.1-1.673-.38-.694,1.117-2.035,2.948-2.639,4.592-4.248,8.522-4.767,7.847-1.037,16.163.443,22.685,4.926s11,12.132,10.833,20.044c-.116,5.51-2.379,10.787-5.4,15.4a47.617,47.617,0,0,1-18.8,16.655,33.731,33.731,0,0,1-4.3,1.741C306.456,182.746,308.822,171.613,303.826,149.522Z" transform="translate(-278.053 -130.92)" fill="#ea8f7d"/>
              </g>
            </g>
          </g>
          <g id="Grupo_1027875" data-name="Grupo 1027875" transform="translate(40.462 52.332)">
            <g id="Grupo_1027874" data-name="Grupo 1027874" transform="translate(0)">
              <path id="Trazado_726430" data-name="Trazado 726430" d="M295.979,174.436a5.752,5.752,0,0,1-.991,3.266,11.465,11.465,0,0,1-3.844,3.116A15.089,15.089,0,0,1,286.2,183a7.7,7.7,0,0,1-5.167-.934l8.706-8.554a8.56,8.56,0,0,1,2.273-1.776,2.9,2.9,0,0,1,2.774.045A3.162,3.162,0,0,1,295.979,174.436Z" transform="translate(-281.031 -171.403)" fill="#f9b9b9"/>
            </g>
          </g>
          <g id="Grupo_1027889" data-name="Grupo 1027889" transform="translate(4.502 1.502)">
            <g id="Grupo_1027877" data-name="Grupo 1027877" transform="translate(0 3.305)">
              <g id="Grupo_1027876" data-name="Grupo 1027876" transform="translate(0)">
                <path id="Trazado_726431" data-name="Trazado 726431" d="M291.934,138.348a37.18,37.18,0,0,0-8.444,7.669c-3.619,5.083-3.911,3.891-7.066,3.446a39.766,39.766,0,0,1,11.407-18.27,26.785,26.785,0,0,1,19.2-7.281,25.981,25.981,0,0,1,19.294,11.054,32.6,32.6,0,0,1,5.454,21.849,43.942,43.942,0,0,1-8.326,21.16,31.478,31.478,0,0,1-6.483-18.592c-.063-4.31.864-7.56.17-11.815s-2.731-7.028-6.721-8.66c-2.844-1.163-6.2-.388-9.823.9a4.843,4.843,0,0,0-4.007-2.758A8.239,8.239,0,0,0,291.934,138.348Z" transform="translate(-276.424 -123.878)"/>
              </g>
            </g>
            <path id="Trazado_726432" data-name="Trazado 726432" d="M285.011,137c3.971-4.121,9.462-7.153,15.176-6.821a18.2,18.2,0,0,1,10.166,4.174,31.675,31.675,0,0,1,7.116,8.53c2.537,4.225,4.477,8.937,4.684,13.861a42.722,42.722,0,0,1-1.28,10.375,37.61,37.61,0,0,1-.983,12.869c.012.066.017.132.03.2-.021-.024-.039-.05-.06-.074-.021.084-.037.169-.059.253-.059.219-.175.483-.4.484-.159,0-.281-.136-.378-.262a23.262,23.262,0,0,1-4.515-9.033c-.074-.333-.129-.672-.181-1.011-.219-.622-.411-1.252-.587-1.887a22.625,22.625,0,0,0,2.936,16.419l-1.41-.5a36.963,36.963,0,0,1-2.3-19.6c-.089-.624-.173-1.25-.221-1.879-.208-2.74-.029-5.5-.188-8.24A16.271,16.271,0,0,0,310.388,147c-2.637-4.138-7.819-5.97-12.718-6.24a10.516,10.516,0,0,0-14.815,1.4Z" transform="translate(-273.088 -120.573)"/>
            <g id="Grupo_1027888" data-name="Grupo 1027888" transform="translate(0.748)">
              <g id="Grupo_1027879" data-name="Grupo 1027879" transform="translate(45.439 13.013)">
                <g id="Grupo_1027878" data-name="Grupo 1027878" transform="translate(0)">
                  <path id="Trazado_726433" data-name="Trazado 726433" d="M284.245,161.714a31.5,31.5,0,0,0-1.806-19.036q-.6,2.6-1.21,5.192-1.941-3.61-3.884-7.22c.077.618-.781,1-1.346.733a2.749,2.749,0,0,1-1.133-1.435,2.521,2.521,0,0,0-1.173-1.4c-.34-.134-.726-.118-1.062-.261-1.621-.689-.311-3.685-1.746-4.706l4.033,3.823a3.657,3.657,0,0,1,4.309,2.362,1.919,1.919,0,0,1,2.371,1.739,1.259,1.259,0,0,1,1.846-.287,3.371,3.371,0,0,1,1.04,1.829A32.183,32.183,0,0,1,284.245,161.714Z" transform="translate(-270.885 -133.586)" fill="#22697c"/>
                </g>
              </g>
              <g id="Grupo_1027881" data-name="Grupo 1027881" transform="translate(0 11.425)">
                <g id="Grupo_1027880" data-name="Grupo 1027880" transform="translate(0)">
                  <path id="Trazado_726434" data-name="Trazado 726434" d="M327.252,142.185A7,7,0,0,1,331.191,132,13.112,13.112,0,0,0,327.252,142.185Z" transform="translate(-326.315 -131.998)" fill="#22697c"/>
                </g>
              </g>
              <g id="Grupo_1027883" data-name="Grupo 1027883" transform="translate(2.256 19.562)">
                <g id="Grupo_1027882" data-name="Grupo 1027882" transform="translate(0)">
                  <path id="Trazado_726435" data-name="Trazado 726435" d="M328.716,140.135a5.428,5.428,0,0,0,.032,3.44A7.393,7.393,0,0,0,328.716,140.135Z" transform="translate(-328.452 -140.135)" fill="#22697c"/>
                </g>
              </g>
              <g id="Grupo_1027885" data-name="Grupo 1027885" transform="translate(19.691)">
                <g id="Grupo_1027884" data-name="Grupo 1027884" transform="translate(0)">
                  <path id="Trazado_726436" data-name="Trazado 726436" d="M309.685,123.657c-1.9-1.788-4.358-3.2-6.962-3.077,3.5,1.092,6.211,3.8,8.775,6.417A4.689,4.689,0,0,0,309.685,123.657Z" transform="translate(-302.723 -120.573)" fill="#22697c"/>
                </g>
              </g>
              <g id="Grupo_1027887" data-name="Grupo 1027887" transform="translate(29.232 3.01)">
                <g id="Grupo_1027886" data-name="Grupo 1027886" transform="translate(0)">
                  <path id="Trazado_726437" data-name="Trazado 726437" d="M301.772,129.021a13.4,13.4,0,0,0-3.019-1.913c-.52-.211-1.066-.356-1.577-.586a20.888,20.888,0,0,1-2.293-1.416,10.289,10.289,0,0,0-5.211-1.523l2.79,4.329c.382-.676.86-1.423,1.626-1.556a2.038,2.038,0,0,1,1.746.765c.45.486.78,1.077,1.246,1.548,1.228,1.244,3.135,1.442,4.879,1.569Q301.866,129.629,301.772,129.021Z" transform="translate(-289.672 -123.583)" fill="#22697c"/>
                </g>
              </g>
            </g>
          </g>
        </g>
        <g id="Grupo_1027903" data-name="Grupo 1027903" transform="translate(7.475 28.124)">
          <g id="Grupo_1027892" data-name="Grupo 1027892" transform="translate(0)">
            <g id="Grupo_1027891" data-name="Grupo 1027891" transform="translate(0)">
              <path id="Trazado_726438" data-name="Trazado 726438" d="M321.629,149.471l1.02-.51c2.187-1.094,3.337-1.042,5.858.26l.459-.888c-2.742-1.416-4.256-1.5-6.651-.322-.393.017-1.121.142-1.235.537l-.138.48.485.144.138-.477.181.369Z" transform="translate(-320.942 -147.195)"/>
            </g>
          </g>
          <g id="Grupo_1027894" data-name="Grupo 1027894" transform="translate(2.892 27.311)">
            <g id="Grupo_1027893" data-name="Grupo 1027893" transform="translate(0)">
              <path id="Trazado_726439" data-name="Trazado 726439" d="M326.074,178.577a96.677,96.677,0,0,1-9.032-4.071,4.157,4.157,0,0,0,1.17,4.052,5.17,5.17,0,0,0,3.888,1.3A9.9,9.9,0,0,0,326.074,178.577Z" transform="translate(-316.898 -174.506)" fill="#fefefe"/>
            </g>
          </g>
          <g id="Grupo_1027896" data-name="Grupo 1027896" transform="translate(20.04 11.261)">
            <g id="Grupo_1027895" data-name="Grupo 1027895" transform="translate(0)">
              <path id="Trazado_726440" data-name="Trazado 726440" d="M308.9,159.312a5.753,5.753,0,0,1-.41,2.735,1.721,1.721,0,0,1-1.187,1.165,1.357,1.357,0,0,1-1.311-.612,1.945,1.945,0,0,1-.21-1.362,3.867,3.867,0,0,1,1.535-2.446,1.173,1.173,0,0,1,1.214-.244A.934.934,0,0,1,308.9,159.312Z" transform="translate(-305.746 -158.456)"/>
            </g>
          </g>
          <g id="Grupo_1027898" data-name="Grupo 1027898" transform="translate(2.574 4.952)">
            <g id="Grupo_1027897" data-name="Grupo 1027897" transform="translate(0)">
              <path id="Trazado_726441" data-name="Trazado 726441" d="M324.031,155.795a2.679,2.679,0,0,1-.02-2.31,2.8,2.8,0,0,1,1.255-1.272.634.634,0,0,1,.865.333,3.339,3.339,0,0,1-.305,3.156c-.307.443-.892.839-1.374.583A1.066,1.066,0,0,1,324.031,155.795Z" transform="translate(-323.759 -152.147)"/>
            </g>
          </g>
          <g id="Grupo_1027900" data-name="Grupo 1027900" transform="translate(2.427 3.449)">
            <g id="Grupo_1027899" data-name="Grupo 1027899" transform="translate(0)">
              <path id="Trazado_726442" data-name="Trazado 726442" d="M322.514,172.35a3.442,3.442,0,0,0,.575-.049l-.171-.986a3.3,3.3,0,0,1-2.62-.864,11.029,11.029,0,0,1-1.962-2.433,2.319,2.319,0,0,1,.535-3.785l5.094-4.847a8.617,8.617,0,0,0,2.174-2.743c.8-1.885.261-3.913-.413-6l-.951.307c.613,1.9,1.108,3.733.443,5.3a7.845,7.845,0,0,1-1.943,2.409l-5.093,4.847a4.105,4.105,0,0,0-1.594,2.648,4.164,4.164,0,0,0,.914,2.413,11.747,11.747,0,0,0,2.155,2.648A4.526,4.526,0,0,0,322.514,172.35Z" transform="translate(-316.585 -150.644)"/>
            </g>
          </g>
          <g id="Grupo_1027902" data-name="Grupo 1027902" transform="translate(19.182 4.468)">
            <g id="Grupo_1027901" data-name="Grupo 1027901" transform="translate(0)">
              <path id="Trazado_726443" data-name="Trazado 726443" d="M308.92,159.723l.864-.5c-2.186-3.76-6.287-7.989-10.653-7.521l.105.994C303.126,152.287,306.883,156.222,308.92,159.723Z" transform="translate(-299.131 -151.663)"/>
            </g>
          </g>
        </g>
      </g>
    </g>
  </g>
  <g id="Grupo_1027913" data-name="Grupo 1027913" transform="translate(10.239 7.378)">
    <path id="Trazado_726444" data-name="Trazado 726444" d="M407.8,119.18a22.127,22.127,0,0,1,11.109,4.59,13.446,13.446,0,0,1,5.007,10.452,26.324,26.324,0,0,1,5.109,4.428V125.132c-1.145-1.171-7.34-7.875-7.34-15.995,0-8.943,7.538-16.194,7.538-16.194s7.539,7.251,7.539,16.194c0,7.144-4.8,13.2-6.737,15.347V137.9a21.846,21.846,0,0,1,4.606-4.841,13.758,13.758,0,0,1,4.987-9.292,22.12,22.12,0,0,1,11.108-4.59,66.12,66.12,0,0,1,12.154-.276,20.4,20.4,0,0,1-28.273,15.491c0-.01,0-.021,0-.031a20.743,20.743,0,0,0-4.583,5.392v17.128c2.361,1.008,4.013,3.48,6.628,4.483-1.245,2.211-4.108,2.961-6.643,2.846a15.222,15.222,0,0,1-10.468-4.931c3.391-2.021,5.8-3.195,9.024-2.8.157.019.308.05.459.083V140.171a25.3,25.3,0,0,0-6.1-5.381A20.393,20.393,0,0,1,395.65,118.9,66.12,66.12,0,0,1,407.8,119.18Z" transform="translate(-395.65 -92.943)" fill="#065958"/>
    <g id="Grupo_1027908" data-name="Grupo 1027908" transform="translate(8.927 30.086)">
      <g id="Grupo_1027907" data-name="Grupo 1027907" transform="translate(0)">
        <path id="Trazado_726445" data-name="Trazado 726445" d="M453.957,131.391a28.121,28.121,0,0,0-14.893-8.362q6.877,3.63,13.469,7.769Z" transform="translate(-439.064 -123.029)" fill="#88d0a6"/>
      </g>
    </g>
    <g id="Grupo_1027910" data-name="Grupo 1027910" transform="translate(33.291 5.632)">
      <g id="Grupo_1027909" data-name="Grupo 1027909" transform="translate(0)">
        <path id="Trazado_726446" data-name="Trazado 726446" d="M429.287,119.578a135.266,135.266,0,0,1-.485-21A106.3,106.3,0,0,1,429.287,119.578Z" transform="translate(-428.6 -98.575)" fill="#88d0a6"/>
      </g>
    </g>
    <g id="Grupo_1027912" data-name="Grupo 1027912" transform="translate(42.556 28.544)">
      <g id="Grupo_1027911" data-name="Grupo 1027911" transform="translate(0)">
        <path id="Trazado_726447" data-name="Trazado 726447" d="M404.033,130.173a26.754,26.754,0,0,1,16.3-8.686q-8.753,4.56-17.291,9.52Z" transform="translate(-403.037 -121.487)" fill="#88d0a6"/>
      </g>
    </g>
  </g>
</svg>
