<svg xmlns="http://www.w3.org/2000/svg" width="105" height="105" viewBox="0 0 105 105">
  <g id="Grupo_1022848" data-name="Grupo 1022848" transform="translate(-180 -19650)">
    <path id="Trazado_726353" data-name="Trazado 726353" d="M52.5,0A52.5,52.5,0,1,1,0,52.5,52.5,52.5,0,0,1,52.5,0Z" transform="translate(180 19650)" fill="#115089"/>
    <g id="Grupo_1027723" data-name="Grupo 1027723" transform="translate(185.397 19650.15)">
      <g id="Grupo_1027723-2" data-name="Grupo 1027723" transform="translate(19.924 15.36)">
        <path id="Trazado_726353-2" data-name="Trazado 726353" d="M105.186,27.092V79.8H74.981v5.286a5.575,5.575,0,0,1-5.588,5.588,5.414,5.414,0,0,1-5.437-5.437V27.092A5.575,5.575,0,0,0,58.368,21.5H99.6a5.674,5.674,0,0,1,5.588,5.588Z" transform="translate(-57.462 -20.598)" fill="#115089"/>
        <path id="Trazado_726354" data-name="Trazado 726354" d="M64.155,86.342A6.381,6.381,0,0,1,57.812,80V21.854a4.705,4.705,0,0,0-4.682-4.682.871.871,0,0,1-.906-.906.8.8,0,0,1,.906-.906H94.36a6.542,6.542,0,0,1,6.494,6.494V74.562a.713.713,0,0,1-.755.755H70.649v4.531A6.644,6.644,0,0,1,64.155,86.342ZM57.51,17.172a6.491,6.491,0,0,1,2.114,4.682V80a4.578,4.578,0,0,0,4.531,4.682,4.739,4.739,0,0,0,4.682-4.833V74.562c0-.453.3-.755.906-.755h29.45V21.854a4.739,4.739,0,0,0-4.833-4.682Z" transform="translate(-52.224 -15.36)" fill="#fff"/>
      </g>
      <g id="Grupo_1027724" data-name="Grupo 1027724" transform="translate(14.336 15.36)">
        <path id="Trazado_726355" data-name="Trazado 726355" d="M31.5,35.4V27.092A5.575,5.575,0,0,0,25.917,21.5a5.448,5.448,0,0,0-5.437,5.588V35.4Z" transform="translate(-19.574 -20.598)" fill="#115089"/>
        <path id="Trazado_726356" data-name="Trazado 726356" d="M26.267,31.067H15.242a.871.871,0,0,1-.906-.906V21.854a6.32,6.32,0,0,1,6.343-6.494,6.542,6.542,0,0,1,6.494,6.494V30.16A.974.974,0,0,1,26.267,31.067ZM16.148,29.254h9.364v-7.4a4.705,4.705,0,0,0-4.682-4.682A4.578,4.578,0,0,0,16.3,21.854v7.4Z" transform="translate(-14.336 -15.36)" fill="#fff"/>
      </g>
      <g id="Grupo_1027725" data-name="Grupo 1027725" transform="translate(30.949 73.958)">
        <path id="Trazado_726357" data-name="Trazado 726357" d="M179.938,416.768v5.286a5.575,5.575,0,0,1-5.588,5.588H133.12a5.575,5.575,0,0,0,5.588-5.588v-5.286Z" transform="translate(-132.214 -416.164)" fill="#115089"/>
        <path id="Trazado_726358" data-name="Trazado 726358" d="M169.112,425.056h-41.23a.846.846,0,0,1-.906-.755c0-.453.3-.755.906-.755a4.74,4.74,0,0,0,4.682-4.833v-5.286c0-.453.3-.755.906-.755H174.7a.713.713,0,0,1,.755.755v5.286A6.482,6.482,0,0,1,169.112,425.056Zm-36.85-1.661h36.85a4.866,4.866,0,0,0,4.833-4.833v-4.531H134.376v4.531A7.128,7.128,0,0,1,132.262,423.395Z" transform="translate(-126.976 -412.672)" fill="#fff"/>
      </g>
      <path id="Trazado_726359" data-name="Trazado 726359" d="M141.747,150.374a4.544,4.544,0,0,1-4.531-4.531,4.531,4.531,0,1,1,9.062,0A4.544,4.544,0,0,1,141.747,150.374Zm0-7.249a2.707,2.707,0,0,0-2.718,2.718,2.839,2.839,0,0,0,2.718,2.869,2.744,2.744,0,0,0,2.718-2.869A2.617,2.617,0,0,0,141.747,143.124Z" transform="translate(-104.757 -107.376)" fill="#fff"/>
      <g id="Grupo_1027729" data-name="Grupo 1027729" transform="translate(45.145 35.446)">
        <g id="Grupo_1027726" data-name="Grupo 1027726">
          <path id="Trazado_726360" data-name="Trazado 726360" d="M238.637,153.364h-14.5a.87.87,0,0,1-.906-.906.8.8,0,0,1,.906-.906h14.5c.453,0,.755.3.755.906S239.09,153.364,238.637,153.364Z" transform="translate(-223.232 -151.552)" fill="#fff"/>
        </g>
        <g id="Grupo_1027728" data-name="Grupo 1027728" transform="translate(0 4.38)">
          <g id="Grupo_1027727" data-name="Grupo 1027727">
            <path id="Trazado_726361" data-name="Trazado 726361" d="M234.408,183.06h-10.27a.87.87,0,0,1-.906-.906.8.8,0,0,1,.906-.906h10.27c.453,0,.755.3.755.906S234.861,183.06,234.408,183.06Z" transform="translate(-223.232 -181.248)" fill="#fff"/>
          </g>
        </g>
      </g>
      <path id="Trazado_726362" data-name="Trazado 726362" d="M141.747,239.462a4.544,4.544,0,0,1-4.531-4.531,4.531,4.531,0,0,1,9.062,0A4.544,4.544,0,0,1,141.747,239.462Zm0-7.249a2.707,2.707,0,0,0-2.718,2.718,2.839,2.839,0,0,0,2.718,2.87,2.744,2.744,0,0,0,2.718-2.87A2.707,2.707,0,0,0,141.747,232.212Z" transform="translate(-104.757 -183.325)" fill="#fff"/>
      <g id="Grupo_1027733" data-name="Grupo 1027733" transform="translate(45.145 48.586)">
        <g id="Grupo_1027730" data-name="Grupo 1027730">
          <path id="Trazado_726363" data-name="Trazado 726363" d="M232.445,242.452h-8.306a.87.87,0,0,1-.906-.906.8.8,0,0,1,.906-.906h8.306c.453,0,.755.3.755.906S232.9,242.452,232.445,242.452Z" transform="translate(-223.232 -240.64)" fill="#fff"/>
        </g>
        <g id="Grupo_1027732" data-name="Grupo 1027732" transform="translate(0 4.531)">
          <g id="Grupo_1027731" data-name="Grupo 1027731">
            <path id="Trazado_726364" data-name="Trazado 726364" d="M232.9,272.87h-8.759a.846.846,0,0,1-.906-.755c0-.453.3-.755.906-.755H232.9a.755.755,0,1,1,0,1.51Z" transform="translate(-223.232 -271.36)" fill="#fff"/>
          </g>
        </g>
      </g>
      <path id="Trazado_726365" data-name="Trazado 726365" d="M141.747,328.4a4.456,4.456,0,1,1,0-8.911,4.45,4.45,0,0,1,4.531,4.531A4.514,4.514,0,0,1,141.747,328.4Zm0-7.249a2.744,2.744,0,0,0-2.718,2.869,2.718,2.718,0,0,0,5.437,0A2.839,2.839,0,0,0,141.747,321.149Z" transform="translate(-104.757 -259.273)" fill="#fff"/>
      <g id="Grupo_1027737" data-name="Grupo 1027737" transform="translate(45.145 61.876)">
        <g id="Grupo_1027734" data-name="Grupo 1027734">
          <path id="Trazado_726366" data-name="Trazado 726366" d="M237.126,332.262H224.138a.846.846,0,0,1-.906-.755c0-.453.3-.755.906-.755h12.988a.755.755,0,1,1,0,1.51Z" transform="translate(-223.232 -330.752)" fill="#fff"/>
        </g>
        <g id="Grupo_1027736" data-name="Grupo 1027736" transform="translate(0 4.229)">
          <g id="Grupo_1027735" data-name="Grupo 1027735">
            <path id="Trazado_726367" data-name="Trazado 726367" d="M232.9,360.934h-8.759a.846.846,0,0,1-.906-.755c0-.453.3-.755.906-.755H232.9a.755.755,0,1,1,0,1.51Z" transform="translate(-223.232 -359.424)" fill="#fff"/>
          </g>
        </g>
      </g>
      <g id="Grupo_1027738" data-name="Grupo 1027738" transform="translate(32.459 22.307)">
        <path id="Trazado_726368" data-name="Trazado 726368" d="M165.307,64.276H138.122a.87.87,0,0,1-.906-.906.8.8,0,0,1,.906-.906h27.185c.453,0,.755.3.755.906S165.76,64.276,165.307,64.276Z" transform="translate(-137.216 -62.464)" fill="#fff"/>
      </g>
      <g id="Grupo_1027739" data-name="Grupo 1027739" transform="translate(32.459 27.442)">
        <path id="Trazado_726369" data-name="Trazado 726369" d="M165.307,99.092H138.122a.871.871,0,0,1-.906-.906.8.8,0,0,1,.906-.906h27.185c.453,0,.755.3.755.906S165.76,99.092,165.307,99.092Z" transform="translate(-137.216 -97.28)" fill="#fff"/>
      </g>
      <path id="Trazado_726370" data-name="Trazado 726370" d="M351.844,177.134v10.119c0,6.645-12.082,14.2-12.082,14.2s-12.082-7.551-12.082-14.2V177.134a7.352,7.352,0,0,0,1.812.151,15.038,15.038,0,0,0,10.27-4.229,14.485,14.485,0,0,0,10.27,4.229,7.353,7.353,0,0,1,1.812-.151Z" transform="translate(-267.13 -134.438)" fill="#115089"/>
      <path id="Trazado_726371" data-name="Trazado 726371" d="M334.524,198.427a.555.555,0,0,1-.453-.151c-.453-.3-12.535-7.853-12.535-14.952V173.205a.785.785,0,0,1,.3-.6,1.132,1.132,0,0,1,.755-.151,5.663,5.663,0,0,0,1.661.151,14.119,14.119,0,0,0,9.666-3.927.919.919,0,0,1,1.208,0,13.24,13.24,0,0,0,9.515,3.927,4.8,4.8,0,0,1,1.963-.3c.453,0,.755.3.755.906v10.119c0,7.1-11.931,14.649-12.535,14.952a.527.527,0,0,1-.3.151ZM323.2,174.111v9.213c0,5.437,9.061,11.78,11.327,13.139,2.114-1.359,11.327-7.853,11.327-13.139v-9.213a1.362,1.362,0,0,0-.755.151h-.151a15.315,15.315,0,0,1-10.27-3.927,15.315,15.315,0,0,1-10.27,3.927,3.325,3.325,0,0,1-1.208-.151Z" transform="translate(-261.892 -130.51)" fill="#fff"/>
      <g id="Grupo_1027740" data-name="Grupo 1027740" transform="translate(67.572 47.906)">
        <path id="Trazado_726372" data-name="Trazado 726372" d="M378.09,244.263a1.145,1.145,0,0,1-.6-.3L375.523,242a.854.854,0,0,1,1.208-1.208l1.359,1.359,5.89-5.89a.854.854,0,0,1,1.208,1.208l-6.494,6.494A1.145,1.145,0,0,1,378.09,244.263Z" transform="translate(-375.296 -236.032)" fill="#fff"/>
      </g>
    </g>
  </g>
</svg>
