<svg xmlns="http://www.w3.org/2000/svg" width="153.399" height="153.398" viewBox="0 0 153.399 153.398">
  <g id="Group_19_" data-name="Group (19)" transform="translate(0 -68.003)">
    <path id="Trazado_718841" data-name="Trazado 718841" d="M421.25,357.935a4.629,4.629,0,0,1-6.547,0L384.366,327.6l6.547-6.547,30.337,30.336A4.629,4.629,0,0,1,421.25,357.935Z" transform="translate(-269.207 -177.233)" fill="#1c466d"/>
    <path id="Trazado_718842" data-name="Trazado 718842" d="M96.026,261.083H1.2a1.2,1.2,0,0,1-1.2-1.2V125.858a1.2,1.2,0,0,1,1.2-1.2H96.026a1.2,1.2,0,0,1,1.2,1.2V259.885A1.2,1.2,0,0,1,96.026,261.083Z" transform="translate(0 -39.682)" fill="#e2f1fb"/>
    <path id="Trazado_718843" data-name="Trazado 718843" d="M50.8,427.289H34.679a1.2,1.2,0,0,1-1.2-1.2v-47.6a1.2,1.2,0,0,1,1.2-1.2H50.8a1.2,1.2,0,0,1,1.2,1.2v47.6A1.2,1.2,0,0,1,50.8,427.289Z" transform="translate(-23.45 -216.621)" fill="#065958"/>
    <path id="Trazado_718844" data-name="Trazado 718844" d="M147.639,384H131.516a1.2,1.2,0,0,1-1.2-1.2V316.675a1.2,1.2,0,0,1,1.2-1.2h16.122a1.2,1.2,0,0,1,1.2,1.2V382.8A1.2,1.2,0,0,1,147.639,384Z" transform="translate(-91.274 -173.329)" fill="#ffa031"/>
    <path id="Trazado_718845" data-name="Trazado 718845" d="M246.536,399.871H230.413a1.2,1.2,0,0,1-1.2-1.2V339.339a1.2,1.2,0,0,1,1.2-1.2h16.122a1.2,1.2,0,0,1,1.2,1.2v59.333A1.2,1.2,0,0,1,246.536,399.871Z" transform="translate(-160.54 -189.203)" fill="#4db1f0"/>
    <path id="Trazado_718846" data-name="Trazado 718846" d="M64.386,377.288v50h8.061a1.2,1.2,0,0,0,1.2-1.2v-47.6a1.2,1.2,0,0,0-1.2-1.2Z" transform="translate(-45.095 -216.621)" fill="#065958"/>
    <path id="Trazado_718847" data-name="Trazado 718847" d="M161.223,315.477V384h8.061a1.2,1.2,0,0,0,1.2-1.2V316.675a1.2,1.2,0,0,0-1.2-1.2Z" transform="translate(-112.919 -173.329)" fill="#ffa031"/>
    <path id="Trazado_718848" data-name="Trazado 718848" d="M260.121,338.141v61.73h8.061a1.2,1.2,0,0,0,1.2-1.2V339.339a1.2,1.2,0,0,0-1.2-1.2Z" transform="translate(-182.187 -189.203)" fill="#4db1f0"/>
    <path id="Trazado_718849" data-name="Trazado 718849" d="M40.59,163.1h67.9a2.247,2.247,0,0,0,0-4.494H40.59a2.247,2.247,0,1,0,0,4.494Z" transform="translate(-26.855 -63.454)" fill="#265e91"/>
    <path id="Trazado_718850" data-name="Trazado 718850" d="M108.493,192.94H40.59a2.247,2.247,0,1,0,0,4.494h67.9a2.247,2.247,0,1,0,0-4.494Z" transform="translate(-26.855 -87.505)" fill="#265e91"/>
    <path id="Trazado_718851" data-name="Trazado 718851" d="M108.493,227.28H40.59a2.247,2.247,0,1,0,0,4.494h67.9a2.247,2.247,0,1,0,0-4.494Z" transform="translate(-26.855 -111.557)" fill="#265e91"/>
    <path id="Trazado_718852" data-name="Trazado 718852" d="M57.9,261.619H40.59a2.247,2.247,0,1,0,0,4.494H57.9a2.247,2.247,0,1,0,0-4.494Z" transform="translate(-26.855 -135.607)" fill="#265e91"/>
    <path id="Trazado_718853" data-name="Trazado 718853" d="M217.094,151.779a49.075,49.075,0,1,0-69.4,0A49.075,49.075,0,0,0,217.094,151.779Z" transform="translate(-93.375)" fill="#265e91"/>
    <path id="Trazado_718854" data-name="Trazado 718854" d="M232.238,166.919a39.816,39.816,0,1,1,0-56.308A39.861,39.861,0,0,1,232.238,166.919Z" transform="translate(-115.065 -21.687)" fill="#b5fcff"/>
    <path id="Trazado_718855" data-name="Trazado 718855" d="M314.449,110.614A39.765,39.765,0,0,0,281.665,99.24a39.795,39.795,0,0,1,0,79.056,39.8,39.8,0,0,0,32.784-67.682Z" transform="translate(-197.276 -21.691)" fill="#d0fdff"/>
  </g>
</svg>
