<svg xmlns="http://www.w3.org/2000/svg" width="125.975" height="141.399" viewBox="0 0 125.975 141.399">
  <g id="layer1" transform="translate(-0.275 -0.009)">
    <path id="Trazado_718856" data-name="Trazado 718856" d="M10.173,47.276H116.352a9.877,9.877,0,0,1,9.9,9.9V165.41a9.876,9.876,0,0,1-9.9,9.9H10.173a9.877,9.877,0,0,1-9.9-9.9V57.174A9.877,9.877,0,0,1,10.173,47.276Z" transform="translate(0 -33.899)" fill="#ffb155"/>
    <path id="Trazado_718857" data-name="Trazado 718857" d="M91.984,121.639h77.771a8.466,8.466,0,0,1,8.484,8.484v84.841a8.466,8.466,0,0,1-8.484,8.484H91.984a8.466,8.466,0,0,1-8.484-8.484V130.123A8.466,8.466,0,0,1,91.984,121.639Z" transform="translate(-59.689 -87.232)" fill="#ffa031"/>
    <path id="Trazado_718858" data-name="Trazado 718858" d="M63.984,95.639h77.771a8.466,8.466,0,0,1,8.484,8.484V189.53a8.466,8.466,0,0,1-8.484,8.484H63.984A8.466,8.466,0,0,1,55.5,189.53V104.123A8.466,8.466,0,0,1,63.984,95.639Z" transform="translate(-39.607 -68.585)" fill="#115089"/>
    <path id="Trazado_718859" data-name="Trazado 718859" d="M55.639,368.589v9.952a8.479,8.479,0,0,0,8.5,8.5h86.25a8.614,8.614,0,0,0,.141-1.558V368.589Z" transform="translate(-39.707 -264.344)" fill="#265e91"/>
    <path id="Trazado_718860" data-name="Trazado 718860" d="M64.137,95.8a8.479,8.479,0,0,0-8.5,8.5v71.945a8.479,8.479,0,0,0,8.5,8.5H142.03a8.479,8.479,0,0,0,8.5-8.5V104.294a8.479,8.479,0,0,0-8.5-8.5Z" transform="translate(-39.707 -68.698)" fill="#d0edff"/>
    <path id="Trazado_718861" data-name="Trazado 718861" d="M149.026.009a11.1,11.1,0,0,0-10.609,7.726h-11.6a7.066,7.066,0,0,0-7.081,7.081V29.642a5.653,5.653,0,0,0,5.665,5.665h47.869a5.653,5.653,0,0,0,5.665-5.665V14.816a7.066,7.066,0,0,0-7.081-7.081H159.7A10.654,10.654,0,0,0,149.026.009Z" transform="translate(-85.68)" fill="#4db1f0"/>
    <path id="Trazado_718862" data-name="Trazado 718862" d="M119.74,95.8V98.34A5.653,5.653,0,0,0,125.405,104h47.869c3.138,0,4.983-2.6,5.665-5.665V95.8Z" transform="translate(-85.68 -68.698)" fill="#265e91"/>
    <path id="Trazado_718863" data-name="Trazado 718863" d="M99.818,349.054v2.726a8.479,8.479,0,0,1-8.5,8.5h84.408a8.479,8.479,0,0,0,8.5-8.5v-2.726a8.479,8.479,0,0,0-8.5-8.5H108.575A8.461,8.461,0,0,0,99.818,349.054Z" transform="translate(-65.297 -244.24)" fill="#4db1f0"/>
    <path id="Trazado_718864" data-name="Trazado 718864" d="M194.4,160.646a1.132,1.132,0,0,0,0,2.263h8.868a1.132,1.132,0,0,0,0-2.263Z" transform="translate(-138.415 -115.208)" fill="#265e91"/>
    <path id="Trazado_718865" data-name="Trazado 718865" d="M102.289,145.677a2.822,2.822,0,0,0-2.828,2.828v3.311h-3.31a2.822,2.822,0,0,0-2.828,2.828v3.708a2.822,2.822,0,0,0,2.828,2.828h3.31v3.311a2.822,2.822,0,0,0,2.828,2.828H106a2.822,2.822,0,0,0,2.828-2.828V161.18h3.311a2.822,2.822,0,0,0,2.828-2.828v-3.708a2.822,2.822,0,0,0-2.828-2.828h-3.311v-3.311A2.822,2.822,0,0,0,106,145.677Z" transform="translate(-66.733 -104.472)" fill="#f45558"/>
    <path id="Trazado_718866" data-name="Trazado 718866" d="M194.4,202.365a1.132,1.132,0,0,0,0,2.263h8.868a1.132,1.132,0,0,0,0-2.263Z" transform="translate(-138.415 -145.129)" fill="#265e91"/>
    <path id="Trazado_718867" data-name="Trazado 718867" d="M250.575,160.646a1.132,1.132,0,0,0,0,2.263h26.4a1.132,1.132,0,0,0,0-2.263Z" transform="translate(-178.703 -115.208)" fill="#265e91"/>
    <path id="Trazado_718868" data-name="Trazado 718868" d="M250.575,202.365a1.132,1.132,0,0,0,0,2.263h26.4a1.132,1.132,0,0,0,0-2.263Z" transform="translate(-178.703 -145.129)" fill="#265e91"/>
    <path id="Trazado_718869" data-name="Trazado 718869" d="M130.277,91.63v1.132h2.263V91.63Zm5.656,0v1.132H138.2V91.63Zm5.656,0v1.132h2.263V91.63Zm5.657,0v1.132h2.263V91.63Zm5.656,0v1.132h2.263V91.63Zm5.656,0v1.132h2.263V91.63Zm5.657,0v1.132h2.263V91.63Zm5.585,0v1.132h2.194V91.63Zm5,0v1.132h2.263V91.63Zm5.657,0v1.132h2.263V91.63Z" transform="translate(-93.237 -65.71)" fill="#1c466d"/>
    <path id="Trazado_718870" data-name="Trazado 718870" d="M135,384.045v1.132h2.263v-1.132Zm5.656,0v1.132h2.263v-1.132Zm5.657,0v1.132h2.263v-1.132Zm5.656,0v1.132h2.263v-1.132Zm5.656,0v1.132h2.263v-1.132Zm5.657,0v1.132h2.263v-1.132Zm5.656,0v1.132H171.2v-1.132Zm5.655,0v1.132h2.263v-1.132Zm5.657,0v1.132h2.263v-1.132Zm5.656,0v1.132h2.263v-1.132Zm5.656,0v1.132h2.263v-1.132Zm5.657,0v1.132h2.263v-1.132Zm5.584,0v1.132H205v-1.132Zm5,0v1.132h2.263v-1.132Z" transform="translate(-96.626 -275.429)" fill="#1c466d"/>
    <path id="Trazado_718871" data-name="Trazado 718871" d="M101.622,244h6.222a7.055,7.055,0,0,1,7.07,7.07v6.222a7.055,7.055,0,0,1-7.07,7.07h-6.222a7.055,7.055,0,0,1-7.07-7.07v-6.222A7.055,7.055,0,0,1,101.622,244Z" transform="translate(-67.615 -174.99)" fill="#065958"/>
    <path id="Trazado_718872" data-name="Trazado 718872" d="M122.009,268.99l-3.35,3.348-1.4-1.4a1.131,1.131,0,0,0-1.6,1.6l2.2,2.2a1.131,1.131,0,0,0,1.6,0l4.148-4.15a1.131,1.131,0,1,0-1.6-1.6Z" transform="translate(-82.517 -192.673)" fill="#d9defb"/>
    <path id="Trazado_718873" data-name="Trazado 718873" d="M194.4,294.038a1.13,1.13,0,1,0,0,2.261h39.524a1.13,1.13,0,1,0,0-2.261Z" transform="translate(-138.415 -210.876)" fill="#265e91"/>
    <path id="Trazado_718874" data-name="Trazado 718874" d="M194.4,257.97a1.132,1.132,0,0,0,0,2.263h39.41a1.132,1.132,0,0,0,0-2.263Z" transform="translate(-138.415 -185.009)" fill="#265e91"/>
    <path id="Trazado_718875" data-name="Trazado 718875" d="M214.092,32.845a5.8,5.8,0,1,1-1.7-4.1A5.8,5.8,0,0,1,214.092,32.845Z" transform="translate(-145.031 -19.391)" fill="#d9defb"/>
  </g>
</svg>
