<svg id="Group_20_" data-name="Group (20)" xmlns="http://www.w3.org/2000/svg" width="126.956" height="145.165" viewBox="0 0 126.956 145.165">
  <path id="Trazado_718902" data-name="Trazado 718902" d="M172.254,400.558h24.839v14.149H172.254Z" transform="translate(-121.195 -281.399)" fill="#939598"/>
  <path id="Trazado_718903" data-name="Trazado 718903" d="M194.118,400.558v8.2a2.975,2.975,0,0,1-2.975,2.975H172.254v2.975h24.839V400.558Z" transform="translate(-121.195 -281.399)" fill="#808285"/>
  <path id="Trazado_718904" data-name="Trazado 718904" d="M113.662,459.973h58.03a1.19,1.19,0,0,0,1.19-1.19v-4.717a5.95,5.95,0,0,0-5.95-5.95h-48.51a5.95,5.95,0,0,0-5.95,5.95v4.717A1.19,1.19,0,0,0,113.662,459.973Z" transform="translate(-79.199 -314.809)" fill="#4a4b4c"/>
  <path id="Trazado_718905" data-name="Trazado 718905" d="M169.377,449.9a5.921,5.921,0,0,1,.53,2.445v4.717a1.19,1.19,0,0,1-1.19,1.19H112.472v1.785a1.19,1.19,0,0,0,1.19,1.19h58.03a1.19,1.19,0,0,0,1.19-1.19v-4.717A5.947,5.947,0,0,0,169.377,449.9Z" transform="translate(-79.199 -316.06)" fill="#414042"/>
  <path id="Trazado_718906" data-name="Trazado 718906" d="M6.58,199.235H121.636a5.95,5.95,0,0,0,5.95-5.95V119.926a5.95,5.95,0,0,0-5.95-5.95H6.58a5.95,5.95,0,0,0-5.95,5.95v73.359A5.95,5.95,0,0,0,6.58,199.235Z" transform="translate(-0.63 -80.076)" fill="#49494a"/>
  <path id="Trazado_718907" data-name="Trazado 718907" d="M125.331,115.755a5.921,5.921,0,0,1,.53,2.445V191.56a5.95,5.95,0,0,1-5.95,5.95H4.855a5.923,5.923,0,0,1-2.445-.53,5.947,5.947,0,0,0,5.42,3.5H122.887a5.95,5.95,0,0,0,5.95-5.95V121.175A5.947,5.947,0,0,0,125.331,115.755Z" transform="translate(-1.88 -81.326)" fill="#414042"/>
  <path id="Trazado_718908" data-name="Trazado 718908" d="M30.633,210.788H135.558a2.975,2.975,0,0,0,2.975-2.975V145.48a2.975,2.975,0,0,0-2.975-2.975H30.633a2.975,2.975,0,0,0-2.975,2.975v62.333A2.975,2.975,0,0,0,30.633,210.788Z" transform="translate(-19.617 -100.118)" fill="#115089"/>
  <path id="Trazado_718909" data-name="Trazado 718909" d="M135.557,142.505v62.333a2.975,2.975,0,0,1-2.975,2.975H27.658a2.975,2.975,0,0,0,2.975,2.975H135.558a2.975,2.975,0,0,0,2.975-2.975V145.48A2.976,2.976,0,0,0,135.557,142.505Z" transform="translate(-19.617 -100.118)" fill="#3b8ad2"/>
  <path id="Trazado_718910" data-name="Trazado 718910" d="M154.263,110.7H66.5V3A2.975,2.975,0,0,1,69.475.028h81.813A2.975,2.975,0,0,1,154.263,3Z" transform="translate(-46.904 -0.028)" fill="#f1f2f2"/>
  <path id="Trazado_718911" data-name="Trazado 718911" d="M75.69,48.214a1.19,1.19,0,0,1-1.19-1.19V18.464a1.19,1.19,0,1,1,2.38,0v28.56A1.19,1.19,0,0,1,75.69,48.214Zm0-33.32A1.19,1.19,0,0,1,74.5,13.7v-.488a1.19,1.19,0,0,1,2.38,0V13.7A1.19,1.19,0,0,1,75.69,14.894Z" transform="translate(-52.523 -8.456)" fill="#fff"/>
  <path id="Trazado_718912" data-name="Trazado 718912" d="M151.288.028h-2.975V101.774a2.975,2.975,0,0,1-2.975,2.975H66.5v5.95h87.763V3A2.975,2.975,0,0,0,151.288.028Z" transform="translate(-46.904 -0.028)" fill="#e6e7e8"/>
  <path id="Trazado_718913" data-name="Trazado 718913" d="M151.288.028V104.749a2.975,2.975,0,0,1-2.975,2.975H66.5V110.7h87.763V3A2.975,2.975,0,0,0,151.288.028Z" transform="translate(-46.904 -0.028)" fill="#d1d3d4"/>
  <path id="Trazado_718914" data-name="Trazado 718914" d="M173.93,340.726H119.19a1.19,1.19,0,1,1,0-2.38h54.74a1.19,1.19,0,1,1,0,2.38Z" transform="translate(-83.082 -237.696)" fill="#414042"/>
  <path id="Trazado_718915" data-name="Trazado 718915" d="M256.574,166.536V206.1h10.963V166.536a1.19,1.19,0,0,0-1.19-1.19h-8.583A1.19,1.19,0,0,0,256.574,166.536Z" transform="translate(-180.43 -116.163)" fill="#065958"/>
  <path id="Trazado_718916" data-name="Trazado 718916" d="M266.347,165.346h-1.785v34.808a2.975,2.975,0,0,1-2.975,2.975h-5.013V206.1h10.963V166.536A1.19,1.19,0,0,0,266.347,165.346Z" transform="translate(-180.43 -116.163)" fill="#065958"/>
  <path id="Trazado_718917" data-name="Trazado 718917" d="M134.576,251.326v14.343h10.963V251.326a1.19,1.19,0,0,0-1.19-1.19h-8.583A1.19,1.19,0,0,0,134.576,251.326Z" transform="translate(-94.727 -175.728)" fill="#115089"/>
  <path id="Trazado_718918" data-name="Trazado 718918" d="M144.349,250.136h-1.785v9.583a2.975,2.975,0,0,1-2.975,2.975h-5.013v2.975h10.963V251.326A1.19,1.19,0,0,0,144.349,250.136Z" transform="translate(-94.727 -175.728)" fill="#115089"/>
  <path id="Trazado_718919" data-name="Trazado 718919" d="M195.576,204.848v28.17h10.963v-28.17a1.19,1.19,0,0,0-1.19-1.19h-8.583A1.19,1.19,0,0,0,195.576,204.848Z" transform="translate(-137.579 -143.078)" fill="#ffa031"/>
  <path id="Trazado_718920" data-name="Trazado 718920" d="M205.347,203.658h-1.785v23.41a2.975,2.975,0,0,1-2.975,2.975h-5.013v2.975h10.963v-28.17A1.19,1.19,0,0,0,205.347,203.658Z" transform="translate(-137.578 -143.078)" fill="#ffa91a"/>
  <path id="Trazado_718921" data-name="Trazado 718921" d="M173.93,300.726H119.19a1.19,1.19,0,0,1,0-2.38h54.74a1.19,1.19,0,1,1,0,2.38Z" transform="translate(-83.082 -209.596)" fill="#414042"/>
  <path id="Trazado_718922" data-name="Trazado 718922" d="M168.338,68.839A19.338,19.338,0,1,0,149,49.5,19.337,19.337,0,0,0,168.338,68.839Z" transform="translate(-104.86 -21.198)" fill="#115089"/>
  <path id="Trazado_718923" data-name="Trazado 718923" d="M190.5,44.484a19.333,19.333,0,0,1-27.18,27.18,19.334,19.334,0,1,0,27.18-27.18Z" transform="translate(-114.919 -31.258)" fill="#115089"/>
  <path id="Trazado_718924" data-name="Trazado 718924" d="M211.19,92.127a1.19,1.19,0,0,1-1.19-1.19v-18a1.19,1.19,0,1,1,2.38,0v18A1.19,1.19,0,0,1,211.19,92.127Z" transform="translate(-147.712 -50.411)" fill="#fff"/>
  <path id="Trazado_718925" data-name="Trazado 718925" d="M210.488,57.055A1.488,1.488,0,1,0,209,55.568,1.488,1.488,0,0,0,210.488,57.055Z" transform="translate(-147.009 -37.999)" fill="#fff"/>
</svg>
