<svg id="Group_14" data-name="Group 14" xmlns="http://www.w3.org/2000/svg" width="129.133" height="141.922" viewBox="0 0 129.133 141.922">
  <path id="Trazado_718926" data-name="Trazado 718926" d="M94.169,0H195.644V123.03H94.169Z" transform="translate(-66.511)" fill="#abc7f0"/>
  <path id="Trazado_718927" data-name="Trazado 718927" d="M.626,63.9H102.1v123.03H.626Z" transform="translate(-0.626 -45.003)" fill="#e4f0fd"/>
  <path id="Trazado_718928" data-name="Trazado 718928" d="M94.169,0l73.818,18.892H94.169Z" transform="translate(-66.511)" fill="#92abd7" fill-rule="evenodd"/>
  <path id="Trazado_718929" data-name="Trazado 718929" d="M42.421,101.334H58a3.1,3.1,0,0,1,3.093,3.093v11.358A3.1,3.1,0,0,1,58,118.878H42.421a3.094,3.094,0,0,1-3.093-3.093V104.427a3.1,3.1,0,0,1,3.093-3.093Z" transform="translate(-27.885 -71.373)" fill="#4db1f0"/>
  <path id="Trazado_718930" data-name="Trazado 718930" d="M42.42,101.334H53.042a3.1,3.1,0,0,1,3.093,3.093v11.358a3.1,3.1,0,0,1-3.093,3.093H42.42a3.094,3.094,0,0,1-3.093-3.093V104.427A3.1,3.1,0,0,1,42.42,101.334Z" transform="translate(-27.884 -71.373)" fill="#4db1f0"/>
  <path id="Trazado_718931" data-name="Trazado 718931" d="M136.374,120.419a1.478,1.478,0,0,1,0-2.957h11.251a1.478,1.478,0,0,1,0,2.957Zm20.448,70.99a1.478,1.478,0,0,1,0-2.957h28.407a1.478,1.478,0,0,1,0,2.957Zm-20.448,12.357a1.478,1.478,0,1,1,0-2.957h48.854a1.478,1.478,0,1,1,0,2.957Zm0-6.179a1.478,1.478,0,1,1,0-2.957h48.854a1.478,1.478,0,1,1,0,2.957Zm0-6.179a1.478,1.478,0,0,1,0-2.957h11.251a1.478,1.478,0,0,1,0,2.957Zm20.448-15.425a1.478,1.478,0,0,1,0-2.957h28.407a1.478,1.478,0,0,1,0,2.957Zm-20.448-12.357a1.478,1.478,0,0,1,0-2.957h48.854a1.478,1.478,0,1,1,0,2.957Zm0,6.179a1.478,1.478,0,1,1,0-2.957h48.854a1.478,1.478,0,1,1,0,2.957Zm0,6.179a1.478,1.478,0,1,1,0-2.957h11.251a1.478,1.478,0,0,1,0,2.957Zm20.448-40.14a1.478,1.478,0,0,1,0-2.957h28.407a1.478,1.478,0,0,1,0,2.957ZM136.374,148.2a1.478,1.478,0,0,1,0-2.957h48.854a1.478,1.478,0,0,1,0,2.957Zm0-6.179a1.478,1.478,0,0,1,0-2.957h48.854a1.478,1.478,0,0,1,0,2.957Zm0-6.179a1.478,1.478,0,0,1,0-2.957h11.251a1.478,1.478,0,0,1,0,2.957Zm20.448-15.425a1.478,1.478,0,0,1,0-2.957h28.407a1.478,1.478,0,0,1,0,2.957Zm-20.448-12.357a1.478,1.478,0,1,1,0-2.957h48.854a1.478,1.478,0,1,1,0,2.957Zm0,6.179a1.478,1.478,0,0,1,0-2.957h48.854a1.478,1.478,0,0,1,0,2.957Z" transform="translate(-95.196 -74.029)" fill="#265e91" fill-rule="evenodd"/>
  <path id="Trazado_718932" data-name="Trazado 718932" d="M42.421,195.3H58a3.094,3.094,0,0,1,3.093,3.093v11.358A3.1,3.1,0,0,1,58,212.842H42.421a3.094,3.094,0,0,1-3.093-3.093V198.391a3.094,3.094,0,0,1,3.093-3.093Z" transform="translate(-27.885 -137.554)" fill="#065958"/>
  <path id="Trazado_718933" data-name="Trazado 718933" d="M42.42,195.3H53.042a3.094,3.094,0,0,1,3.093,3.093v11.358a3.1,3.1,0,0,1-3.093,3.093H42.42a3.094,3.094,0,0,1-3.093-3.093V198.391A3.1,3.1,0,0,1,42.42,195.3Z" transform="translate(-27.884 -137.554)" fill="#065958"/>
  <path id="Trazado_718934" data-name="Trazado 718934" d="M42.42,289.262H58a3.1,3.1,0,0,1,3.093,3.093v11.358A3.094,3.094,0,0,1,58,306.806H42.42a3.094,3.094,0,0,1-3.093-3.093V292.355a3.1,3.1,0,0,1,3.093-3.093Z" transform="translate(-27.884 -203.736)" fill="#115089"/>
  <path id="Trazado_718935" data-name="Trazado 718935" d="M42.42,289.262H53.042a3.1,3.1,0,0,1,3.093,3.093v11.358a3.094,3.094,0,0,1-3.093,3.093H42.42a3.094,3.094,0,0,1-3.093-3.093V292.355a3.1,3.1,0,0,1,3.093-3.093Z" transform="translate(-27.884 -203.736)" fill="#115089"/>
  <path id="Trazado_718936" data-name="Trazado 718936" d="M42.421,383.226H58a3.1,3.1,0,0,1,3.093,3.093v11.358A3.1,3.1,0,0,1,58,400.77H42.421a3.094,3.094,0,0,1-3.093-3.093V386.319a3.094,3.094,0,0,1,3.093-3.093Z" transform="translate(-27.885 -269.918)" fill="#ffa031"/>
  <path id="Trazado_718937" data-name="Trazado 718937" d="M42.42,383.226H53.042a3.1,3.1,0,0,1,3.093,3.093v11.358a3.1,3.1,0,0,1-3.093,3.093H42.42a3.094,3.094,0,0,1-3.093-3.093V386.319A3.1,3.1,0,0,1,42.42,383.226Z" transform="translate(-27.884 -269.918)" fill="#ffa031"/>
  <path id="Trazado_718938" data-name="Trazado 718938" d="M320.228,63.9h6.978v123.03h-6.978Z" transform="translate(-225.731 -45.003)" fill="#cadbfd"/>
  <path id="Trazado_718939" data-name="Trazado 718939" d="M413.771,0h6.978V123.03h-6.978Z" transform="translate(-291.616)" fill="#a2beef"/>
</svg>
