<svg id="Group_15" data-name="Group 15" xmlns="http://www.w3.org/2000/svg" width="131.765" height="145.567" viewBox="0 0 131.765 145.567">
  <path id="Trazado_718940" data-name="Trazado 718940" d="M74.323,141.738l-6.505,3.419a3.574,3.574,0,0,1-3.325,0l-6.505-3.419C22.268,122.964.273,88.32.273,50.834v-22.9a3.554,3.554,0,0,1,3.152-3.549c12.312-1.3,22.1-10.113,23.661-21.261A3.6,3.6,0,0,1,30.631,0H101.68a3.6,3.6,0,0,1,3.545,3.127c1.56,11.147,11.349,19.961,23.661,21.261a3.554,3.554,0,0,1,3.152,3.549v22.9C132.038,88.32,110.043,122.964,74.323,141.738Z" transform="translate(-0.273)" fill="#dae1e6"/>
  <path id="Trazado_718941" data-name="Trazado 718941" d="M292.209,24.388c-12.312-1.3-22.1-10.113-23.661-21.261A3.6,3.6,0,0,0,265,0h-4.837c.7,15.455,11.71,26.416,23.625,27.673a3.554,3.554,0,0,1,3.152,3.549v22.9c0,37.486-22,72.13-57.715,90.9l-.751.395a3.569,3.569,0,0,0,2.664-.261l6.505-3.419c35.719-18.774,57.715-53.418,57.715-90.9v-22.9A3.553,3.553,0,0,0,292.209,24.388Z" transform="translate(-163.597)" fill="#cbcbcb"/>
  <path id="Trazado_718942" data-name="Trazado 718942" d="M90.113,157.42a102.342,102.342,0,0,1-38.962-35.384A88.664,88.664,0,0,1,37.116,74.508v-13a4.589,4.589,0,0,1,2.891-4.27,40.275,40.275,0,0,0,21.658-19.9,4.578,4.578,0,0,1,4.14-2.6h53.437a4.578,4.578,0,0,1,4.14,2.6A40.277,40.277,0,0,0,145.04,57.241a4.589,4.589,0,0,1,2.891,4.27v13A88.664,88.664,0,0,1,133.9,122.036,102.344,102.344,0,0,1,94.935,157.42l-.27.142a4.6,4.6,0,0,1-4.283,0Z" transform="translate(-26.641 -24.863)" fill="#115089"/>
  <path id="Trazado_718943" data-name="Trazado 718943" d="M284.517,57.241l-.225-.092L283.917,57q-.319-.132-.635-.269l-.365-.159q-.338-.15-.672-.306c-.1-.047-.2-.093-.3-.14q-.481-.228-.955-.467l-.071-.037q-.439-.223-.871-.456l-.3-.167q-.314-.172-.625-.349l-.343-.2q-.293-.171-.583-.347l-.336-.205q-.3-.188-.6-.381c-.1-.063-.2-.124-.292-.187q-.409-.268-.811-.544l-.06-.041q-.431-.3-.854-.608c-.088-.064-.175-.13-.262-.195q-.29-.215-.577-.435c-.1-.079-.2-.159-.305-.238q-.264-.208-.525-.419l-.3-.247q-.267-.221-.529-.447c-.09-.077-.181-.154-.27-.231q-.325-.283-.643-.573l-.132-.119q-.382-.351-.753-.71c-.071-.069-.141-.14-.212-.209q-.264-.259-.524-.523c-.088-.09-.175-.181-.262-.271q-.232-.241-.46-.485l-.265-.287q-.228-.249-.451-.5c-.081-.091-.162-.182-.242-.274q-.262-.3-.517-.61c-.049-.059-.1-.118-.149-.178q-.327-.4-.643-.8c-.054-.069-.106-.14-.16-.209-.156-.2-.31-.407-.462-.613-.073-.1-.144-.2-.216-.3q-.2-.271-.388-.545-.111-.16-.221-.321-.188-.276-.37-.554c-.068-.1-.136-.206-.2-.31q-.2-.317-.4-.638c-.048-.078-.1-.156-.146-.235q-.265-.438-.519-.884c-.036-.063-.07-.127-.1-.189q-.2-.354-.39-.711c-.056-.105-.111-.212-.166-.318q-.156-.3-.308-.6-.087-.173-.171-.348c-.043-.088-.088-.175-.13-.264a4.578,4.578,0,0,0-4.14-2.6H232V158.09a4.6,4.6,0,0,0,2.141-.529l.27-.142a102.344,102.344,0,0,0,38.961-35.384,88.661,88.661,0,0,0,14.035-47.529v-13A4.589,4.589,0,0,0,284.517,57.241Z" transform="translate(-166.117 -24.863)" fill="#115089"/>
  <path id="Trazado_718944" data-name="Trazado 718944" d="M284.517,57.24c-.075-.03-.15-.062-.225-.092l-.374-.153q-.319-.132-.635-.269l-.365-.159q-.338-.15-.672-.306c-.1-.047-.2-.093-.3-.14q-.481-.228-.955-.467l-.071-.037q-.439-.223-.871-.456l-.3-.167q-.314-.172-.625-.349l-.343-.2q-.293-.171-.583-.347l-.336-.205q-.3-.188-.6-.381c-.1-.063-.2-.124-.292-.187q-.409-.268-.811-.545l-.06-.041q-.431-.3-.854-.608c-.088-.064-.175-.13-.262-.195q-.29-.215-.577-.435c-.1-.079-.2-.159-.305-.238q-.264-.208-.525-.419l-.3-.247q-.267-.221-.529-.447c-.09-.077-.181-.154-.27-.231q-.325-.283-.643-.573l-.132-.119q-.382-.351-.753-.71c-.071-.069-.141-.14-.212-.209q-.264-.259-.524-.523c-.088-.09-.175-.181-.262-.271q-.232-.241-.46-.485-.133-.143-.265-.287-.228-.249-.451-.5c-.081-.091-.162-.182-.242-.274q-.262-.3-.517-.61c-.049-.059-.1-.118-.149-.178q-.327-.4-.643-.8c-.054-.069-.106-.14-.16-.209-.156-.2-.31-.407-.462-.613-.073-.1-.144-.2-.216-.3q-.2-.271-.388-.545-.111-.16-.221-.321-.188-.275-.37-.554c-.068-.1-.136-.206-.2-.31q-.2-.317-.4-.638c-.048-.078-.1-.156-.146-.235q-.265-.438-.519-.884c-.036-.063-.07-.127-.1-.189q-.2-.354-.39-.711c-.056-.105-.111-.212-.166-.318q-.156-.3-.308-.6-.087-.173-.171-.348c-.043-.088-.088-.175-.13-.264a4.578,4.578,0,0,0-4.14-2.6h-7.395a41.064,41.064,0,0,1,3.251,4.9c.049.085.087.176.13.264q.084.174.171.348.151.3.308.6c.055.106.11.212.166.318q.191.358.39.711c.035.063.069.127.1.189q.253.446.519.884c.048.079.1.157.146.235.131.214.264.427.4.638.067.1.135.207.2.31q.183.278.37.554.11.161.221.321.191.275.388.545c.072.1.143.2.216.3q.228.309.462.613c.053.07.105.14.16.209q.316.406.643.8c.049.06.1.118.149.178q.255.307.517.61c.08.092.161.183.242.274q.223.253.451.5.132.144.265.287.228.244.46.485c.087.091.174.181.262.271q.259.264.524.523c.071.07.141.14.212.209q.372.36.753.71l.132.119q.318.29.643.573c.089.078.18.154.27.231q.263.225.529.447l.3.247q.261.212.525.419c.1.08.2.159.305.238q.286.22.577.435c.087.065.174.131.262.195q.423.308.854.608l.06.041q.4.277.811.544c.1.063.194.125.292.187q.3.192.6.381c.111.069.224.137.336.205q.29.176.583.347l.343.2c.207.118.416.234.625.349.1.056.2.113.3.167q.432.232.871.456l.071.037q.474.24.955.467c.1.048.2.094.3.14q.334.156.672.306l.365.159q.316.137.635.269l.374.153c.075.03.15.062.225.092a4.589,4.589,0,0,1,2.891,4.27v13a88.664,88.664,0,0,1-14.035,47.529c-8.144,12.828-19.5,25.065-33.088,33.625v.121a4.6,4.6,0,0,0,2.141-.529l.27-.142a102.344,102.344,0,0,0,38.961-35.384,88.661,88.661,0,0,0,14.035-47.529v-13A4.589,4.589,0,0,0,284.517,57.24Z" transform="translate(-166.117 -24.862)" fill="#1c466d"/>
  <path id="Trazado_718945" data-name="Trazado 718945" d="M168.469,112.882V98.057a15.092,15.092,0,0,1,30.184,0v14.825h4.265V98.057a19.357,19.357,0,0,0-38.714,0v14.825Z" transform="translate(-117.597 -56.325)" fill="#ffa031"/>
  <path id="Trazado_718946" data-name="Trazado 718946" d="M183.651,227.022H134.967a4.649,4.649,0,0,1-4.649-4.649V191.842a4.649,4.649,0,0,1,4.649-4.649h48.683a4.649,4.649,0,0,1,4.649,4.649v30.531A4.65,4.65,0,0,1,183.651,227.022Z" transform="translate(-93.345 -133.972)" fill="#f7ab51"/>
  <path id="Trazado_718947" data-name="Trazado 718947" d="M296.714,187.194H288.3a4.649,4.649,0,0,1,4.649,4.649v30.531a4.649,4.649,0,0,1-4.649,4.649h8.418a4.649,4.649,0,0,0,4.649-4.649V191.843A4.649,4.649,0,0,0,296.714,187.194Z" transform="translate(-206.408 -133.973)" fill="#ffa031"/>
  <path id="Trazado_718948" data-name="Trazado 718948" d="M224.709,236.554a4.994,4.994,0,1,0-7.127,4.511v6.071a2.132,2.132,0,1,0,4.265,0v-6.071A4.991,4.991,0,0,0,224.709,236.554Z" transform="translate(-153.75 -165.724)" fill="#f1f1f1"/>
</svg>
