<svg id="Layer_2" data-name="Layer 2" xmlns="http://www.w3.org/2000/svg" width="139.931" height="139.931" viewBox="0 0 139.931 139.931">
  <path id="Trazado_718949" data-name="Trazado 718949" d="M205.666,243.476V215.031a23.786,23.786,0,0,0-2.17-41.6v25.177a19.786,19.786,0,0,1-20.264,0V173.431a23.786,23.786,0,0,0-2.177,41.6v28.445Z" transform="translate(-123.411 -126.046)" fill="#ffa031"/>
  <path id="Trazado_718950" data-name="Trazado 718950" d="M136.409,61.306H127a54.131,54.131,0,0,0-3.275-12.216l8.182-4.72a3.482,3.482,0,0,0,1.232-4.787l-5.259-9.133a3.5,3.5,0,0,0-4.746-1.252l-8.182,4.72a58.422,58.422,0,0,0-8.907-8.934L110.76,16.8a3.435,3.435,0,0,0-1.285-4.72L100.382,6.8A3.555,3.555,0,0,0,95.6,8.049l-4.66,8.181a56.031,56.031,0,0,0-12.209-3.269V3.523a3.5,3.5,0,0,0-3.5-3.462H64.693A3.5,3.5,0,0,0,61.2,3.523v9.44a56.7,56.7,0,0,0-12.216,3.269L44.3,8.049A3.548,3.548,0,0,0,39.523,6.8L30.43,12.077a3.456,3.456,0,0,0-1.292,4.72l4.72,8.188a57.843,57.843,0,0,0-8.934,8.934L16.769,29.2a3.555,3.555,0,0,0-4.78,1.252L6.737,39.584a3.482,3.482,0,0,0,1.285,4.78l8.155,4.72A54.834,54.834,0,0,0,12.9,61.306H3.5A3.428,3.428,0,0,0,0,64.754V75.286A3.488,3.488,0,0,0,3.5,78.807H12.9A56.468,56.468,0,0,0,16.177,91l-8.155,4.66a3.515,3.515,0,0,0-1.285,4.786l5.252,9.12a3.541,3.541,0,0,0,4.78,1.258l8.155-4.713a55.815,55.815,0,0,0,8.934,8.927l-4.72,8.181A3.541,3.541,0,0,0,30.43,128l9.093,5.206a3.548,3.548,0,0,0,4.78-1.265l4.66-8.175a57.5,57.5,0,0,0,12.216,3.275v9.493a3.462,3.462,0,0,0,3.488,3.462H75.225a3.461,3.461,0,0,0,3.495-3.462v-9.466a56.8,56.8,0,0,0,12.209-3.275l4.66,8.175a3.555,3.555,0,0,0,4.786,1.265L109.468,128a3.514,3.514,0,0,0,1.285-4.78l-4.713-8.188a56.378,56.378,0,0,0,8.934-8.927l8.182,4.713a3.5,3.5,0,0,0,4.746-1.258l5.259-9.12a3.521,3.521,0,0,0-1.258-4.786L123.721,91A55.713,55.713,0,0,0,127,78.787H136.4a3.521,3.521,0,0,0,3.528-3.521V64.754a3.462,3.462,0,0,0-3.521-3.448ZM69.945,111.58A41.566,41.566,0,0,1,28.412,69.96c1.93-54.98,81.162-54.96,83.08,0a41.566,41.566,0,0,1-41.547,41.613Z" transform="translate(0 -0.061)" fill="#115089"/>
</svg>
