<svg xmlns="http://www.w3.org/2000/svg" xmlns:xlink="http://www.w3.org/1999/xlink" width="786.261" height="451" viewBox="0 0 786.261 451">
  <defs>
    <linearGradient id="linear-gradient" x1="0.193" y1="-7.487" x2="0.744" y2="-6.958" gradientUnits="objectBoundingBox">
      <stop offset="0" stop-color="#9a5331"/>
      <stop offset="1" stop-color="#b27449"/>
    </linearGradient>
  </defs>
  <g id="Grupo_1029690" data-name="Grupo 1029690" transform="translate(-1998 11491)">
    <g id="Grupo_1027307" data-name="Grupo 1027307">
      <path id="Trazado_720385" data-name="Trazado 720385" d="M539.675,238.721c-2.115,20.36-2.021,46.3,6.632,69.3,0,0-35.394-17.246-44.948-69.3Z" transform="translate(2211.749 -10762.454) rotate(-90)" fill="#fff"/>
      <rect id="Rectángulo_347501" data-name="Rectángulo 347501" width="462" height="451" rx="25" transform="translate(1998 -11491)" fill="#fff"/>
    </g>
    <g id="Grupo_1027303" data-name="Grupo 1027303" transform="translate(176.798)">
      <text id="_I_:_Muy_bien_este_proceso_busca_principalmente:" data-name="(I): Muy bien, este proceso busca principalmente:" transform="translate(1854.926 -11466.375)" fill="#115089" font-size="16" font-family="Roboto-Bold, Roboto" font-weight="700"><tspan x="0" y="15">(I):</tspan><tspan y="15" font-family="Roboto-Regular, Roboto" font-weight="400"> </tspan><tspan y="15" fill="#12263f" font-family="Roboto-Regular, Roboto" font-weight="400">Muy bien, este proceso busca principalmente:</tspan></text>
      <text id="Proteger_la_salud_de_los_consumidores_a_través_del_autocuidado_prevención_y_control_de_riesgos_asociados_a_los_bienes_y_servicios_de_consumo_humano._Garantizar_la_seguridad_de_los_bienes_y_servicios_de_uso_y_consumo_humano._Orientar_acciones_para_el_mej" data-name="Proteger la salud de los consumidores a través del autocuidado, prevención y control de riesgos asociados a los bienes y servicios de consumo humano.

Garantizar la seguridad de los bienes y servicios de uso y consumo humano.

Orientar acciones para el mej" transform="translate(1884.926 -11421)" fill="#12263f" font-size="16" font-family="Roboto-Regular, Roboto"><tspan x="0" y="15">Proteger la salud de los consumidores a través </tspan><tspan x="0" y="39">del autocuidado, prevención y control de </tspan><tspan x="0" y="63">riesgos asociados a los bienes y servicios de </tspan><tspan x="0" y="87">consumo humano.</tspan><tspan x="0" y="111"></tspan><tspan x="0" y="135">Garantizar la seguridad de los bienes y </tspan><tspan x="0" y="159">servicios de uso y consumo humano.</tspan><tspan x="0" y="183"></tspan><tspan x="0" y="207">Orientar acciones para el mejoramiento de la </tspan><tspan x="0" y="231">calidad de los bienes y servicios de consumo </tspan><tspan x="0" y="255">humano.</tspan><tspan x="0" y="279"></tspan><tspan x="0" y="303">Garantizar la salubridad de entornos </tspan><tspan x="0" y="327">ambientales de cadenas productivas de bienes </tspan><tspan x="0" y="351" xml:space="preserve">y servicios de consumo humano.  </tspan></text>
      <g id="Grupo_1027286" data-name="Grupo 1027286" transform="translate(1854.926 -11421)">
        <path id="Trazado_712721" data-name="Trazado 712721" d="M10,0A10,10,0,1,1,0,10,10,10,0,0,1,10,0Z" fill="#115089"/>
        <path id="Trazado_231796" data-name="Trazado 231796" d="M169.487,199.589c1.621-1.624,3.173-3.187,4.737-4.739a1.056,1.056,0,0,1,1.769.207.976.976,0,0,1-.18,1.175q-2.773,2.8-5.571,5.572a1.007,1.007,0,0,1-1.512-.028q-1.345-1.309-2.655-2.655a1.053,1.053,0,1,1,1.484-1.491c.645.625,1.261,1.278,1.929,1.959" transform="translate(-160.922 -188.3)" fill="#fff"/>
      </g>
      <g id="Grupo_1027287" data-name="Grupo 1027287" transform="translate(1854.926 -11301)">
        <path id="Trazado_712721-2" data-name="Trazado 712721" d="M10,0A10,10,0,1,1,0,10,10,10,0,0,1,10,0Z" fill="#115089"/>
        <path id="Trazado_231796-2" data-name="Trazado 231796" d="M169.487,199.589c1.621-1.624,3.173-3.187,4.737-4.739a1.056,1.056,0,0,1,1.769.207.976.976,0,0,1-.18,1.175q-2.773,2.8-5.571,5.572a1.007,1.007,0,0,1-1.512-.028q-1.345-1.309-2.655-2.655a1.053,1.053,0,1,1,1.484-1.491c.645.625,1.261,1.278,1.929,1.959" transform="translate(-160.922 -188.3)" fill="#fff"/>
      </g>
      <g id="Grupo_1027288" data-name="Grupo 1027288" transform="translate(1854.926 -11231)">
        <path id="Trazado_712721-3" data-name="Trazado 712721" d="M10,0A10,10,0,1,1,0,10,10,10,0,0,1,10,0Z" fill="#115089"/>
        <path id="Trazado_231796-3" data-name="Trazado 231796" d="M169.487,199.589c1.621-1.624,3.173-3.187,4.737-4.739a1.056,1.056,0,0,1,1.769.207.976.976,0,0,1-.18,1.175q-2.773,2.8-5.571,5.572a1.007,1.007,0,0,1-1.512-.028q-1.345-1.309-2.655-2.655a1.053,1.053,0,1,1,1.484-1.491c.645.625,1.261,1.278,1.929,1.959" transform="translate(-160.922 -188.3)" fill="#fff"/>
      </g>
      <g id="Grupo_1027289" data-name="Grupo 1027289" transform="translate(1854.926 -11132)">
        <path id="Trazado_712721-4" data-name="Trazado 712721" d="M10,0A10,10,0,1,1,0,10,10,10,0,0,1,10,0Z" fill="#115089"/>
        <path id="Trazado_231796-4" data-name="Trazado 231796" d="M169.487,199.589c1.621-1.624,3.173-3.187,4.737-4.739a1.056,1.056,0,0,1,1.769.207.976.976,0,0,1-.18,1.175q-2.773,2.8-5.571,5.572a1.007,1.007,0,0,1-1.512-.028q-1.345-1.309-2.655-2.655a1.053,1.053,0,1,1,1.484-1.491c.645.625,1.261,1.278,1.929,1.959" transform="translate(-160.922 -188.3)" fill="#fff"/>
      </g>
    </g>
    <g id="Grupo_1027302" data-name="Grupo 1027302" transform="translate(-66.217 582.889)">
      <ellipse id="Elipse_8538" data-name="Elipse 8538" cx="152" cy="16" rx="152" ry="16" transform="translate(2532.448 -11664.753)" fill="#e8e8e8"/>
      <g id="Grupo_1027301" data-name="Grupo 1027301" transform="translate(29 19.651)">
        <path id="Trazado_718628" data-name="Trazado 718628" d="M511.644,154.694V0H283.19V154.694Z" transform="translate(2309.834 -12033.676)" fill="#12263f"/>
        <path id="Trazado_718629" data-name="Trazado 718629" d="M506.322,10.92H294.11V149.38H506.33V10.92Z" transform="translate(2307.031 -12036.479)" fill="#b0d3e9"/>
        <path id="Trazado_718630" data-name="Trazado 718630" d="M469.969,135.185A30.333,30.333,0,0,0,430.3,156.518a51.045,51.045,0,0,0-70.5-11.633q-10.291-10.949-20.568-21.913c-4.326-4.616-8.7-9.262-13.826-12.971a50.525,50.525,0,0,0-31.287-9.373v71.761H506.34V103.5a53.283,53.283,0,0,0-10.986,4.1,54.145,54.145,0,0,0-25.377,27.577h-.007Z" transform="translate(2307.029 -12059.495)" fill="#fffcf9"/>
      </g>
      <g id="Grupo_1027296" data-name="Grupo 1027296" transform="translate(1563.54 116.483)">
        <path id="Trazado_718763" data-name="Trazado 718763" d="M499.626,191.186c.366-4.1-.236-8.145.236-12.254a35.3,35.3,0,0,1,3.426-11.725c2.783-5.606,9.309-9.626,14.931-11.546,7.624-2.62,15.956-2.254,23.621-.033a24.2,24.2,0,0,1,15.493,13.263c4.085,8.706,3.393,19.471-1.237,27.861a34.474,34.474,0,0,1-22,16.526c1.172-1.261,2.335-2.506,3.515-3.767a36.828,36.828,0,0,1-36.144-3.6c1.139-.391,2.286-.8,3.417-1.188a12.03,12.03,0,0,1-10.033-4.614c3.279-1.2,4.475-5.338,4.8-8.934h-.008Z" transform="translate(537.676 -12209.991)"/>
        <path id="Trazado_718764" data-name="Trazado 718764" d="M494.314,282.2l-20.358-25.3-10.936,4.247s8.08,25.737,18.357,30.676c5.175,2.482,12.93-9.626,12.93-9.626h0Z" transform="translate(543.607 -12229.195)" fill="#a5bed4"/>
        <path id="Trazado_718765" data-name="Trazado 718765" d="M519.588,244.415l-8.055-8.055s-9.113.561-12.571,5.549-17.616,32.759-17.616,32.759-1.066,20.961,12.116,9.17S519.588,244.415,519.588,244.415Z" transform="translate(540.196 -12225.368)" fill="#a5bed4"/>
        <path id="Trazado_718766" data-name="Trazado 718766" d="M487.272,270.759a.261.261,0,0,1,.366.065,37.525,37.525,0,0,0,3.434,3.881c.431.448.871.9,1.3,1.367a19.734,19.734,0,0,1,4.15,5.72.265.265,0,1,1-.5.187,18.943,18.943,0,0,0-4.044-5.549c-.423-.448-.846-.9-1.278-1.334a39.536,39.536,0,0,1-3.507-3.971.261.261,0,0,1,.065-.366Z" transform="translate(539.11 -12231.769)" fill="#333" fill-rule="evenodd"/>
        <path id="Trazado_718767" data-name="Trazado 718767" d="M449.832,238.086a1.623,1.623,0,0,1,.415-1.416,5.871,5.871,0,0,1-.382-1.652,1.905,1.905,0,0,1,.61-1.522.682.682,0,0,0,.252-.252,1.059,1.059,0,0,0,.081-.293.941.941,0,0,1,.854-.6,2.425,2.425,0,0,1,1.082.252c.472-1.017,2.14.244,2.482.749a12.914,12.914,0,0,1,1,2.083c1.115,2.335,3.3,3.93,5.4,5.444a1.742,1.742,0,0,0,.594.317c.659.146.627-.431.5-.887-.5-1.871-1.88-3.434-2.335-5.322a1.012,1.012,0,0,1,.081-.871c.342-.391.976-.114,1.4.179a15.945,15.945,0,0,1,4.085,3.645c1.806,2.579,2.815,5.859,3.694,8.853.537,1.863,1.823,5.509,1.823,5.509l-7.234,3.515A8.794,8.794,0,0,0,462.135,253c-1.123-.749-2.181-1.562-3.32-2.286a16.337,16.337,0,0,1-4.093-3.45,17.614,17.614,0,0,1-2.246-3.352c-.716-1.473-1.44-2.929-2.148-4.4a5.114,5.114,0,0,1-.529-1.44h.024Z" transform="translate(546.07 -12224.596)" fill="#b27449"/>
        <path id="Trazado_718768" data-name="Trazado 718768" d="M458.876,247.531a.265.265,0,0,1,.342-.155,13.715,13.715,0,0,1,6.07,4.475.267.267,0,0,1-.423.326,13.224,13.224,0,0,0-5.834-4.3A.265.265,0,0,1,458.876,247.531Z" transform="translate(544.382 -12227.417)" fill="#333" fill-rule="evenodd"/>
        <path id="Trazado_718769" data-name="Trazado 718769" d="M450.165,237.532a.26.26,0,0,1,.342-.146,2.316,2.316,0,0,1,1.017.846,7.678,7.678,0,0,1,.627,1.123h0a23.56,23.56,0,0,0,2.6,4.459.267.267,0,0,1-.423.325,23.441,23.441,0,0,1-2.653-4.557,6.735,6.735,0,0,0-.578-1.042,1.79,1.79,0,0,0-.781-.667.26.26,0,0,1-.146-.342Z" transform="translate(546.005 -12225.555)" fill="#333" fill-rule="evenodd"/>
        <path id="Trazado_718770" data-name="Trazado 718770" d="M450.96,233.252a.265.265,0,0,1,.366-.081,6.517,6.517,0,0,1,2.173,3.051c.024.057.049.106.073.163h0a40.833,40.833,0,0,0,2.767,5.118.265.265,0,1,1-.448.285,40.811,40.811,0,0,1-2.8-5.183c-.016-.033-.033-.073-.049-.106a6.2,6.2,0,0,0-2-2.88.265.265,0,0,1-.081-.366Z" transform="translate(545.861 -12224.767)" fill="#333" fill-rule="evenodd"/>
        <path id="Trazado_718771" data-name="Trazado 718771" d="M453.464,232.661a.268.268,0,0,1,.374-.016,6.619,6.619,0,0,1,1.424,2.286c.041.1.09.2.13.293h0a23.43,23.43,0,0,0,2.767,4.614.267.267,0,1,1-.423.325,23.494,23.494,0,0,1-2.832-4.719c-.049-.1-.09-.2-.13-.3a6.025,6.025,0,0,0-1.294-2.107A.268.268,0,0,1,453.464,232.661Z" transform="translate(545.4 -12224.663)" fill="#333" fill-rule="evenodd"/>
        <path id="Trazado_718772" data-name="Trazado 718772" d="M486.418,321.269c-.252,1.684-.464,3.5.358,4.988a7.422,7.422,0,0,0,3.214,2.661,52.181,52.181,0,0,0,19.048,5.761q1.819-37.47,1.481-75.006c-.065-6.965.4-14.3-.415-21.213a14.962,14.962,0,0,0-6.892,8.861c-1.839,5.891-3.54,11.831-5.142,17.8q-4.76,17.7-8.194,35.721-1.928,10.179-3.458,20.432h0Z" transform="translate(539.289 -12225.759)" fill="#a5bed4"/>
        <path id="Trazado_718773" data-name="Trazado 718773" d="M516.048,231.62c1.139-.675,2.156-1.172,2.718-1.481a.186.186,0,0,0,.081-.057,10.573,10.573,0,0,0,5.191-5.549,12.58,12.58,0,0,0,.708-2.88,11.875,11.875,0,0,0-.61-5.753l12.287-6.379a103.346,103.346,0,0,0-1.473,11.514,18.9,18.9,0,0,0,.448,6.575,4.222,4.222,0,0,0,1.123,1.619,8.216,8.216,0,0,0,1.66,1.155q-9.74,5.993-19.764,11.5a31.708,31.708,0,0,1-2.352-10.293l-.024.024Z" transform="translate(533.728 -12220.367)" fill="#b27449"/>
        <path id="Trazado_718774" data-name="Trazado 718774" d="M502.946,271.051s-3.011-7.282-2.254-13.727c.765-6.428,5.216-12.449,6.981-15.875,1.123-2.181,3.5-3.881,5.484-5.045a31.39,31.39,0,0,0,2.352,10.293q10.021-5.5,19.764-11.5a1.143,1.143,0,0,0,.138.073,28.96,28.96,0,0,0,4.98,1.831c2.075.61,3.841,1.131,4.239,1.88.993,1.871,2.213,9.187-3.6,21.66-.456.976-.911,1.9-1.351,2.775-.106.212-.22.423-.326.635-4.036,7.811-9.789,14.5-6.119,23.638.171.415.342.822.521,1.229a59.755,59.755,0,0,1-32,1.538,138.1,138.1,0,0,0,1.2-19.39Z" transform="translate(536.61 -12225.151)" fill="#f9f1e8"/>
        <path id="Trazado_718775" data-name="Trazado 718775" d="M516.3,273.247a.258.258,0,0,1,.358-.114,37.629,37.629,0,0,0,13.361,3.824.262.262,0,1,1-.049.521,38.381,38.381,0,0,1-13.548-3.873.26.26,0,0,1-.114-.358Z" transform="translate(533.683 -12232.214)" fill="#333" fill-rule="evenodd"/>
        <path id="Trazado_718776" data-name="Trazado 718776" d="M551.573,506.192a8.788,8.788,0,0,1-5.859-1.375,6.046,6.046,0,0,1-1.814-2.083c.057-.138.114-.26.179-.4,1.53-3.385,3.572-6.257,3.727-9.951.032-.789-.2-9.154-.448-9.154h10.057c-.024,1.668-.033,2.97,0,3.767.114,3.133.911,6.094,1.343,9.162.252,1.847.382,3.751.456,5.655a7.994,7.994,0,0,1-1.318,1.668,10.415,10.415,0,0,1-6.314,2.71h0Z" transform="translate(528.537 -12271.363)" fill="#b27449"/>
        <path id="Trazado_718777" data-name="Trazado 718777" d="M543.615,507a6.3,6.3,0,0,0,1.815,2.083,8.835,8.835,0,0,0,5.859,1.375,10.415,10.415,0,0,0,6.314-2.71,8.1,8.1,0,0,0,1.318-1.668c.057,1.269.081,2.539.106,3.8.008.6.024,1.2.041,1.8a5.067,5.067,0,0,1-.35,2.465c-.968,1.9-4.793,3.287-6.721,3.792a7.971,7.971,0,0,1-7.673-1.9c-2.8-2.539-2.059-5.891-.708-9.024v-.024Z" transform="translate(528.815 -12275.621)" fill="#2e6a90"/>
        <path id="Trazado_718778" data-name="Trazado 718778" d="M494.041,502.116a6.442,6.442,0,0,1-3.824-1.334,2.83,2.83,0,0,1-.627-.854,61.093,61.093,0,0,0,7.445-3.914c2.059-1.538,4-2.783,4.988-5.3a20.615,20.615,0,0,0,1.058-6.729c.033-.8.033-2.091,0-3.767H515.14c-.342,2.384-.683,4.939-1.033,7.754-.252,2.018.187,6.737.561,10.366a37.5,37.5,0,0,1-20.619,3.776Z" transform="translate(538.656 -12270.803)" fill="#b27449"/>
        <path id="Trazado_718779" data-name="Trazado 718779" d="M483.6,506.829a20.424,20.424,0,0,1,4.687-2.742,2.642,2.642,0,0,0,.627.854,6.591,6.591,0,0,0,3.824,1.334,37.629,37.629,0,0,0,20.619-3.776c.252,2.4.48,4.337.464,4.687-.163,3.385-6.737,2.856-8.967,3.108-3.694.423-7.258,1.562-10.936,2.05-3.133.415-7.4.423-10.261-1.131-1.8-.985-1.269-3.059-.057-4.378h-.008Z" transform="translate(539.979 -12274.954)" fill="#2e6a90"/>
        <path id="Trazado_718780" data-name="Trazado 718780" d="M497.749,322.2q.757-4.3,1.481-8.609c.594-3.6,1.139-7.234,1.595-10.863a59.834,59.834,0,0,0,32-1.53c3.206,7.494,7.787,14.394,10.4,22.14,2.921,8.625,5.265,17.332,5.411,26.542.138,8.112-.667,16.127-.374,24.256a235.118,235.118,0,0,0,2.726,25.826c2.571,17.266,5.818,34.7,4.231,52.23a6.91,6.91,0,0,1-1.269,4.028c-1.139,1.318-3.059,1.627-4.8,1.766a58.909,58.909,0,0,1-18.975-1.579c-.114,0-.708-47.584-.773-51.921-.114-8.056.749-16.493-1.587-24.232-2.392-7.917-5.622-15.558-7.787-23.548-.252,2.2-.5,4.41-.781,6.607-.326,2.636-1.164,5.216-1.481,7.8-.4,3.3.635,7.12,1.009,10.407q1.269,11.436,2.229,22.9,1.941,22.922,2.693,45.924c.057,1.611.065,3.344-.887,4.63-1.058,1.44-2.994,1.9-4.768,2.132a43.4,43.4,0,0,1-21.131-2.457c-.643-.244,1.652-21.465,1.741-23.605q.537-12.156.358-24.321c-.236-15.663-1.652-31.083-2.9-46.632a145.939,145.939,0,0,1,1.619-37.9h.008Z" transform="translate(537.544 -12237.448)" fill="#2e6a90"/>
        <g id="Grupo_1013536" data-name="Grupo 1013536" transform="translate(1057.677 -12010.847)" opacity="0.7">
          <path id="Trazado_718781" data-name="Trazado 718781" d="M527.453,225.224a3.076,3.076,0,0,1-1.693-.488,1.319,1.319,0,0,0,.081-.2,12.394,12.394,0,0,0,.1-8.633l12.287-6.379s-.635,3.328-1.09,7.234c-1.619,2.685-5.614,8.544-9.675,8.462h-.008Z" transform="translate(-525.76 -209.52)" fill="#b27449"/>
        </g>
        <path id="Trazado_718782" data-name="Trazado 718782" d="M507.8,179.1c-4.4,13.157.5,29.3,8.226,31.88,10.838,3.629,26.485-4.337,30.9-17.494s.4-27.7-10.44-31.319-24.288,3.775-28.691,16.933Z" transform="translate(535.573 -12211.374)" fill="#b27449"/>
        <path id="Trazado_718788" data-name="Trazado 718788" d="M525.463,196.241a2.306,2.306,0,1,0,2.921-1.448A2.315,2.315,0,0,0,525.463,196.241Z" transform="translate(531.995 -12217.602)"/>
        <path id="Trazado_718789" data-name="Trazado 718789" d="M509.773,195.221a2.306,2.306,0,1,0,2.921-1.448,2.315,2.315,0,0,0-2.921,1.448Z" transform="translate(534.918 -12217.411)"/>
        <path id="Trazado_718790" data-name="Trazado 718790" d="M524.12,189.931a11.368,11.368,0,0,1,2.62-1.758,5.919,5.919,0,0,1,2.9-.561,7.053,7.053,0,0,1,2.856.871,21.143,21.143,0,0,1,2.677,1.741,8.494,8.494,0,0,0-2.27-2.4,6.894,6.894,0,0,0-1.505-.814,6.7,6.7,0,0,0-1.7-.382,5.5,5.5,0,0,0-3.32.871,6.277,6.277,0,0,0-2.254,2.433Z" transform="translate(532.223 -12216.101)" fill="#543621"/>
        <path id="Trazado_718791" data-name="Trazado 718791" d="M514.395,188.645a5.77,5.77,0,0,0-1.375-2.042,5.36,5.36,0,0,0-2.164-1.334,3.379,3.379,0,0,0-1.351-.171,3.015,3.015,0,0,0-1.3.464,3.194,3.194,0,0,0-1.343,2.124,5.1,5.1,0,0,1,1.733-1.44,2.755,2.755,0,0,1,1.977-.057,7.335,7.335,0,0,1,1.977.976,17.846,17.846,0,0,1,1.847,1.473Z" transform="translate(535.438 -12215.815)" fill="#543621"/>
        <path id="Trazado_718792" data-name="Trazado 718792" d="M530.831,195.046l-.163.212.163-.212a.269.269,0,0,1,.049.374.26.26,0,0,1-.366.049h0l-.016-.016a.849.849,0,0,0-.081-.057,2.259,2.259,0,0,0-.309-.179A4.173,4.173,0,0,0,529,194.81a3.755,3.755,0,0,0-3.4,1.009.265.265,0,1,1-.35-.4,4.3,4.3,0,0,1,3.857-1.131,4.865,4.865,0,0,1,1.253.456c.146.081.269.155.35.212.041.024.073.049.1.065l.024.016h.008Z" transform="translate(532.03 -12217.513)" fill="#333" fill-rule="evenodd"/>
        <path id="Trazado_718793" data-name="Trazado 718793" d="M514.821,194.069l-.179.2.179-.2a.261.261,0,0,1,.008.374.268.268,0,0,1-.374.008h0m0,0h0l-.016-.016s-.041-.033-.065-.057a2.507,2.507,0,0,0-.26-.187,3.665,3.665,0,0,0-.944-.439,3.081,3.081,0,0,0-3.011.83.265.265,0,0,1-.35-.4,3.583,3.583,0,0,1,3.5-.944,4.028,4.028,0,0,1,1.09.5,2.439,2.439,0,0,1,.3.22c.033.033.065.049.081.065l.024.024h.008" transform="translate(534.906 -12217.309)" fill="#333" fill-rule="evenodd"/>
        <path id="Trazado_718794" data-name="Trazado 718794" d="M517.1,196.068a3.773,3.773,0,0,1-1.082,3.743c-.594.537-1.375.9-1.766,1.595a2.285,2.285,0,0,0,0,2.091,4.234,4.234,0,0,0,1.448,1.587,3.318,3.318,0,0,0,3.32-1.44c1.383-1.9,1.058-5.012.391-7s-2.3-.586-2.3-.586H517.1Z" transform="translate(534.109 -12217.771)" fill="url(#linear-gradient)"/>
        <path id="Trazado_718795" data-name="Trazado 718795" d="M516.963,195.858a.264.264,0,0,1,.326.179,4.043,4.043,0,0,1-1.155,4.011,8.612,8.612,0,0,1-.684.537q-.159.11-.293.22a2.684,2.684,0,0,0-.74.781h0a2.05,2.05,0,0,0,0,1.847h0a3.875,3.875,0,0,0,1.359,1.481.263.263,0,1,1-.3.431,4.414,4.414,0,0,1-1.538-1.692,2.569,2.569,0,0,1,.008-2.335,3.035,3.035,0,0,1,.879-.936c.114-.09.228-.171.334-.252a5.768,5.768,0,0,0,.6-.48h0a3.516,3.516,0,0,0,1-3.474.262.262,0,0,1,.187-.326Z" transform="translate(534.172 -12217.819)" fill="#333" fill-rule="evenodd"/>
        <path id="Trazado_718797" data-name="Trazado 718797" d="M536.033,179.078c-3.7-2.994-8.576-4.508-11.693-8.1a22.183,22.183,0,0,0,10.415,8.8,17.75,17.75,0,0,1-16.282-9.911c-4.98,2.815-10.106,5.753-13.523,10.342-.065-6.778,4.02-13.174,9.626-16.982,5.33-3.613,12.726-5.85,19.13-4.833,5.964.944,11.815,4.117,14.972,9.39,2.742,4.581,3.214,10.277,2.091,15.493a40.143,40.143,0,0,1-6.8,14.37c.106-.146-.919-1.562-1-1.8a5.867,5.867,0,0,1-.236-1.692,22.3,22.3,0,0,0-.635-5.688,18.285,18.285,0,0,0-6.062-9.4Z" transform="translate(535.795 -12210.796)"/>
        <path id="Trazado_718798" data-name="Trazado 718798" d="M551.61,198c-2.474,3.5-3.222,7.079-.74,8.828s7.266,1.033,9.74-2.474,2.466-7.771-.024-9.528-6.5-.334-8.991,3.165h.008Z" transform="translate(527.524 -12217.489)" fill="#b27449"/>
        <path id="Trazado_718799" data-name="Trazado 718799" d="M562.595,197.35l-.024.26.024-.26a.266.266,0,0,1-.057.529h-.2a3.9,3.9,0,0,0-.618.041,9.125,9.125,0,0,0-2.295.618c-1.928.789-4.589,2.506-7.429,6.249a.267.267,0,1,1-.423-.325c2.889-3.808,5.622-5.59,7.657-6.42a9.088,9.088,0,0,1,2.433-.651,6.191,6.191,0,0,1,.683-.041h.26Z" transform="translate(527.117 -12218.1)" fill="#333" fill-rule="evenodd"/>
        <path id="Trazado_718800" data-name="Trazado 718800" d="M532.209,171.075c-5.02-1.245-10.122-2.506-15.289-2.368a29.866,29.866,0,0,0-13.67,3.784,34.128,34.128,0,0,1,1.611-3.816,19.935,19.935,0,0,1,6.1-6.924,43.051,43.051,0,0,1,8.47,1.033c4.158.944,8.129,2.5,12.238,3.637,4.1,1.155,8.405,1.9,12.6,1.188a14.72,14.72,0,0,0,9.008-5.012,24.946,24.946,0,0,1,5.566,7.624,21.5,21.5,0,0,1-11.326,3.255c-5.167.114-10.269-1.155-15.289-2.4h-.008Z" transform="translate(536.111 -12211.467)" fill="rgba(28,70,109,0.3)"/>
        <path id="Trazado_718801" data-name="Trazado 718801" d="M505.961,347.854a.261.261,0,0,1,.366-.065,21.591,21.591,0,0,0,8.942,3.6h.008a2.212,2.212,0,0,1,1.221.448,2.107,2.107,0,0,1,.488.757,130.013,130.013,0,0,1,5.053,13.084.265.265,0,1,1-.5.163A131.028,131.028,0,0,0,516.5,352.81h0a1.6,1.6,0,0,0-.358-.578h0a1.688,1.688,0,0,0-.944-.317h0a22.006,22.006,0,0,1-9.162-3.694.262.262,0,0,1-.065-.366Z" transform="translate(535.613 -12246.12)" fill="#333" fill-rule="evenodd"/>
        <path id="Trazado_718802" data-name="Trazado 718802" d="M515.612,497.17a.264.264,0,0,1,.269.26,5.539,5.539,0,0,1-3.393,5.061.255.255,0,0,1-.342-.146.257.257,0,0,1,.146-.342,5,5,0,0,0,3.059-4.565.264.264,0,0,1,.26-.268Z" transform="translate(534.458 -12273.961)" fill="#333" fill-rule="evenodd"/>
        <path id="Trazado_718803" data-name="Trazado 718803" d="M544.487,420.066a.27.27,0,0,1,.366-.057,5.3,5.3,0,0,0,5.72.285.267.267,0,1,1,.277.456,5.844,5.844,0,0,1-6.314-.309.27.27,0,0,1-.057-.366Z" transform="translate(528.439 -12259.576)" fill="#333" fill-rule="evenodd"/>
        <path id="Trazado_718804" data-name="Trazado 718804" d="M507.456,420.855a.269.269,0,0,1,.13.35,3.687,3.687,0,0,1-3.2,2.1.264.264,0,1,1-.008-.529,3.163,3.163,0,0,0,2.726-1.79.269.269,0,0,1,.35-.13Z" transform="translate(535.949 -12259.738)" fill="#333" fill-rule="evenodd"/>
        <path id="Trazado_718805" data-name="Trazado 718805" d="M539.068,233.862c-3.393,3.141-4.939,7.1-5.9,11.611a58.068,58.068,0,0,0-.814,13.808c.757,24.622,5.126,48.968,9.488,73.207a37.2,37.2,0,0,0,21.774-5.574,80.144,80.144,0,0,0-7.592-28.015c-2.107-4.386-4.638-8.649-5.777-13.4-1.31-5.517-.635-11.294.057-16.933q1.733-14.195,3.466-28.4c-3.775-3.059-14.109-6.884-14.7-6.33h0Z" transform="translate(530.701 -12224.888)" fill="#a5bed4"/>
        <path id="Trazado_718806" data-name="Trazado 718806" d="M582.009,363.033c-.073,1.741-.146,3.5-.22,5.248a5.438,5.438,0,0,1-.244,1.627,1.755,1.755,0,0,1-1.123,1.123,6.129,6.129,0,0,1-.488,1.758,2.016,2.016,0,0,1-1.367,1.123.951.951,0,0,0-.374.106,1.615,1.615,0,0,0-.236.236,1.036,1.036,0,0,1-1.123.138,2.672,2.672,0,0,1-.887-.8.791.791,0,0,1-.928-.1,1.914,1.914,0,0,1-.659-1.155,5.357,5.357,0,0,1-.032-1.351c.057-.879.1-1.766.138-2.644a14.492,14.492,0,0,0,0-2.059,9.949,9.949,0,0,0-1.343-3.7c-.309-.537-.659-1.05-.911-1.611-.155-.342-.358-.806-.806-.814-.521-.024-.822.561-.944,1.058-.488,2.034.008,4.2-.529,6.217a1.036,1.036,0,0,1-.529.773c-.521.2-.977-.391-1.212-.887a16.9,16.9,0,0,1-1.977-5.533c-.382-3.352.342-6.973,1.05-10.236.391-1.806.887-3.523,1.131-5.3l9.138-.765a44.281,44.281,0,0,0,2.514,8.584,25.393,25.393,0,0,1,1.546,4.654,18.167,18.167,0,0,1,.4,4.3Z" transform="translate(524.399 -12245.7)" fill="#b27449"/>
        <path id="Trazado_718807" data-name="Trazado 718807" d="M579.217,369.578a.264.264,0,0,1,.268.26,30.209,30.209,0,0,1-1.025,8.088.265.265,0,1,1-.513-.138,30.136,30.136,0,0,0,1.009-7.95.264.264,0,0,1,.26-.269Z" transform="translate(522.196 -12250.187)" fill="#333" fill-rule="evenodd"/>
        <path id="Trazado_718808" data-name="Trazado 718808" d="M581.614,368.87a.264.264,0,0,1,.277.252,36.285,36.285,0,0,1-.651,9,.265.265,0,1,1-.521-.1,36.047,36.047,0,0,0,.643-8.869.27.27,0,0,1,.252-.277Z" transform="translate(521.678 -12250.057)" fill="#333" fill-rule="evenodd"/>
        <path id="Trazado_718809" data-name="Trazado 718809" d="M583.828,367.59a.276.276,0,0,1,.277.252,40.9,40.9,0,0,1-.366,6.981.272.272,0,0,1-.3.228.267.267,0,0,1-.228-.3,40.645,40.645,0,0,0,.358-6.892A.264.264,0,0,1,583.828,367.59Z" transform="translate(521.214 -12249.818)" fill="#333" fill-rule="evenodd"/>
        <path id="Trazado_718810" data-name="Trazado 718810" d="M545.677,237.538A19.864,19.864,0,0,1,564,249.28c5.753,12.458,9.634,22.824,10.806,35.786s1.3,41.791,1.3,41.791-1.774,2.36-7.063,3.393a16.258,16.258,0,0,1-8.739-.415l-3.214-42.19s-9.178-21.961-13.2-32.694,1.774-17.4,1.774-17.4Z" transform="translate(528.803 -12225.586)" fill="#a5bed4"/>
        <path id="Trazado_718811" data-name="Trazado 718811" d="M545.033,261.176a.265.265,0,0,1,.342.155c1.92,5,4.589,11.6,6.957,17.4a.263.263,0,0,1-.488.2c-2.368-5.793-5.037-12.409-6.957-17.413a.265.265,0,0,1,.155-.342Z" transform="translate(528.357 -12229.989)" fill="#333" fill-rule="evenodd"/>
        <path id="Trazado_718812" data-name="Trazado 718812" d="M561.484,313.49a.27.27,0,0,1,.285.244l2.3,30.237a.27.27,0,0,1-.244.285.265.265,0,0,1-.285-.244l-2.3-30.237A.27.27,0,0,1,561.484,313.49Z" transform="translate(525.307 -12239.738)" fill="#333" fill-rule="evenodd"/>
        <path id="Trazado_718813" data-name="Trazado 718813" d="M554.184,240.9a.268.268,0,0,1-.155.342,9.6,9.6,0,0,0-5.647,5.842.262.262,0,1,1-.5-.171,10.1,10.1,0,0,1,5.964-6.168.265.265,0,0,1,.342.155Z" transform="translate(527.798 -12226.183)" fill="#333" fill-rule="evenodd"/>
        <path id="Trazado_718814" data-name="Trazado 718814" d="M538.334,235.549a.267.267,0,0,1,.366.057l1.7,2.335h0c.57.773,1.139,1.554,1.7,2.335a.257.257,0,0,1,.032.252c-.5,1.278-.993,2.547-1.489,3.824q-2.587,6.664-5.2,13.336c2.181.5,3.572,2.791,3.792,4.964a16,16,0,0,1-.985,6.119c-.049.171-.1.334-.146.5a74.343,74.343,0,0,0-2.929,18.511.271.271,0,0,1-.277.26.264.264,0,0,1-.26-.268,74.7,74.7,0,0,1,2.954-18.65h0l.146-.488a15.734,15.734,0,0,0,.968-5.932c-.22-2.14-1.635-4.264-3.67-4.557a.24.24,0,0,1-.187-.13.252.252,0,0,1-.016-.228q2.661-6.811,5.313-13.629.72-1.843,1.432-3.694c-.537-.74-1.074-1.473-1.619-2.213h0c-.57-.781-1.139-1.554-1.7-2.335a.26.26,0,0,1,.057-.366Z" transform="translate(530.263 -12225.207)" fill="#333" fill-rule="evenodd"/>
        <path id="Trazado_718815" data-name="Trazado 718815" d="M542.094,317.968a.27.27,0,0,1,.374.049,41.636,41.636,0,0,0,11.554,10.374.267.267,0,1,1-.277.456,42.344,42.344,0,0,1-11.709-10.5.27.27,0,0,1,.049-.374Z" transform="translate(528.895 -12240.563)" fill="#333" fill-rule="evenodd"/>
        <path id="Trazado_718816" data-name="Trazado 718816" d="M514.183,305.16a.264.264,0,0,1,.228.293,109.556,109.556,0,0,0,1.432,37.706.267.267,0,0,1-.2.317.257.257,0,0,1-.309-.2,109.984,109.984,0,0,1-1.44-37.885A.264.264,0,0,1,514.183,305.16Z" transform="translate(534.316 -12238.187)" fill="#333" fill-rule="evenodd"/>
        <path id="Trazado_718818" data-name="Trazado 718818" d="M240.218,250.482a.265.265,0,0,0-.448.285l.228-.138-.228.138h0l.016.033s.033.049.057.09c.049.073.13.179.228.3a6.892,6.892,0,0,0,.887.911,5.17,5.17,0,0,0,3.409,1.334,4.967,4.967,0,0,0,3.222-1.147,5.136,5.136,0,0,0,.765-.781c.081-.106.146-.2.187-.26a.55.55,0,0,0,.049-.073l.016-.024h0l-.228-.138.228.13a.262.262,0,1,0-.456-.26h0v.016a.488.488,0,0,0-.049.057,2.684,2.684,0,0,1-.163.228,4.206,4.206,0,0,1-.692.7,4.443,4.443,0,0,1-2.889,1.025,4.711,4.711,0,0,1-3.059-1.2,5.812,5.812,0,0,1-.814-.846c-.09-.114-.163-.212-.212-.277a.549.549,0,0,1-.049-.073v-.016h-.016" transform="translate(808.698 -12259.71)" fill="#333" fill-rule="evenodd"/>
      </g>
    </g>
  </g>
</svg>
