<svg xmlns="http://www.w3.org/2000/svg" xmlns:xlink="http://www.w3.org/1999/xlink" width="102.108" height="139.67" viewBox="0 0 102.108 139.67">
  <defs>
    <clipPath id="clip-path">
      <rect id="Rectángulo_346374" data-name="Rectángulo 346374" width="20.178" height="45.944" transform="translate(0 0)" fill="none" stroke="#12263f" stroke-width="1"/>
    </clipPath>
  </defs>
  <g id="Grupo_1013606" data-name="Grupo 1013606" transform="translate(-997.086 -137.67)">
    <g id="Grupo_1002605" data-name="Grupo 1002605" transform="matrix(-0.946, 0.326, -0.326, -0.946, 1071.712, 270.771)">
      <g id="Grupo_1002212" data-name="Grupo 1002212" clip-path="url(#clip-path)">
        <path id="Trazado_707910" data-name="Trazado 707910" d="M15,1.5C9.476,12.543,10.089,29.267,11.93,41.536" fill="none" stroke="#12263f" stroke-linecap="round" stroke-linejoin="round" stroke-width="3"/>
        <path id="Trazado_707911" data-name="Trazado 707911" d="M1.5,35.242c3.681,3.681,7.976,6.135,11.656,9.2a34.1,34.1,0,0,1,5.522-10.429" fill="none" stroke="#12263f" stroke-linecap="round" stroke-linejoin="round" stroke-width="3"/>
      </g>
    </g>
    <g id="Grupo_1013629" data-name="Grupo 1013629" transform="translate(997.086 106.46)">
      <g id="Grupo_1013617" data-name="Grupo 1013617" transform="translate(1.496 36.634)">
        <path id="Trazado_719344" data-name="Trazado 719344" d="M48.877,156.5l-7.685,5.323a6.2,6.2,0,0,1-7.058,0L26.448,156.5A44,44,0,0,1,7.5,120.325V104.479a5.431,5.431,0,0,1,3.073-4.892L34.9,87.856a6.355,6.355,0,0,1,5.519,0l24.331,11.73a5.431,5.431,0,0,1,3.073,4.892v15.846A44,44,0,0,1,48.877,156.5Z" transform="translate(-7.5 -81.478)" fill="#60b7ff"/>
        <path id="Trazado_719345" data-name="Trazado 719345" d="M176.9,104.482v15.847A44.007,44.007,0,0,1,157.955,156.5l-7.686,5.323a6.2,6.2,0,0,1-6.519.331,5.963,5.963,0,0,0,.536-.331l7.686-5.323a44.007,44.007,0,0,0,18.948-36.172V104.482a5.43,5.43,0,0,0-3.073-4.892l-24.1-11.619.231-.112a6.36,6.36,0,0,1,5.518,0l24.33,11.73A5.43,5.43,0,0,1,176.9,104.482Z" transform="translate(-116.578 -81.481)" fill="#26a6fe"/>
        <circle id="Elipse_8502" data-name="Elipse 8502" cx="20.166" cy="20.166" r="20.166" transform="translate(9.997 21.72)" fill="#dcf5f8"/>
        <path id="Trazado_719346" data-name="Trazado 719346" d="M166.906,187.483a20.175,20.175,0,0,1-23.156,19.945,20.169,20.169,0,0,0,0-39.89,20.175,20.175,0,0,1,23.156,19.945Z" transform="translate(-116.578 -145.597)" fill="#c2eef2"/>
        <path id="Trazado_719347" data-name="Trazado 719347" d="M118.743,216.269h-5.27a.914.914,0,0,1-.914-.914V210a2.992,2.992,0,0,0-2.991-2.991h0A2.992,2.992,0,0,0,106.577,210v5.354a.914.914,0,0,1-.914.914h-5.27a3.047,3.047,0,0,0-3.072,2.847,2.992,2.992,0,0,0,2.988,3.136h5.354a.914.914,0,0,1,.914.914v5.354a2.991,2.991,0,0,0,2.991,2.991h0a2.991,2.991,0,0,0,2.991-2.991v-5.354a.914.914,0,0,1,.914-.914h5.354a2.992,2.992,0,0,0,2.988-3.136A3.047,3.047,0,0,0,118.743,216.269Z" transform="translate(-79.406 -177.374)" fill="#ffa031"/>
        <g id="Grupo_1013615" data-name="Grupo 1013615" transform="translate(79.971 13.048)">
          <circle id="Elipse_8503" data-name="Elipse 8503" cx="7.041" cy="7.041" r="7.041" fill="#065958"/>
        </g>
        <circle id="Elipse_8504" data-name="Elipse 8504" cx="10.343" cy="10.343" r="10.343" transform="translate(67.541 45.473)" fill="#065958"/>
        <circle id="Elipse_8505" data-name="Elipse 8505" cx="3.349" cy="3.349" r="3.349" transform="translate(71.186 49.118)" fill="#dcf5f8"/>
        <g id="Grupo_1013616" data-name="Grupo 1013616" transform="translate(61.084)">
          <circle id="Elipse_8506" data-name="Elipse 8506" cx="5.461" cy="5.461" r="5.461" fill="#065958"/>
        </g>
      </g>
      <g id="Grupo_1013628" data-name="Grupo 1013628" transform="translate(0 31.21)">
        <path id="Trazado_719349" data-name="Trazado 719349" d="M71.788,203.143A21.663,21.663,0,0,1,58.852,164.1a1.5,1.5,0,0,1,1.788,2.4,18.582,18.582,0,1,0,5.8-2.915,1.5,1.5,0,1,1-.855-2.867,21.664,21.664,0,1,1,6.2,42.422Z" transform="translate(-40.129 -134.171)"/>
        <path id="Trazado_719350" data-name="Trazado 719350" d="M103.564,227a4.492,4.492,0,0,1-4.487-4.487v-4.772H94.3a4.508,4.508,0,0,1-3.247-1.39,4.452,4.452,0,0,1-1.235-3.312,4.524,4.524,0,0,1,4.567-4.272h4.688V204a4.487,4.487,0,1,1,8.974,0v4.772h4.687a4.525,4.525,0,0,1,4.567,4.272,4.453,4.453,0,0,1-1.235,3.313,4.508,4.508,0,0,1-3.247,1.39h-4.772v4.772A4.492,4.492,0,0,1,103.564,227Zm-9.175-15.242a1.557,1.557,0,0,0-1.578,1.421,1.5,1.5,0,0,0,1.494,1.57h5.354a2.412,2.412,0,0,1,2.409,2.409v5.354a1.5,1.5,0,0,0,2.991,0v-5.354a2.412,2.412,0,0,1,2.409-2.409h5.354a1.5,1.5,0,0,0,1.494-1.57,1.557,1.557,0,0,0-1.579-1.421h-5.27a2.412,2.412,0,0,1-2.409-2.409V204a1.5,1.5,0,1,0-2.991,0v5.354a2.412,2.412,0,0,1-2.409,2.409Z" transform="translate(-71.905 -165.946)"/>
        <g id="Grupo_1013620" data-name="Grupo 1013620" transform="translate(76.54 11.912)">
          <path id="Trazado_719351" data-name="Trazado 719351" d="M409.534,133.408a8.537,8.537,0,1,1,8.537-8.537A8.546,8.546,0,0,1,409.534,133.408Zm0-14.082a5.545,5.545,0,1,0,5.545,5.545A5.551,5.551,0,0,0,409.534,119.326Z" transform="translate(-397.567 -111.271)"/>
          <g id="Grupo_1013618" data-name="Grupo 1013618">
            <path id="Trazado_719352" data-name="Trazado 719352" d="M437.8,99a1.5,1.5,0,0,1-1.5-1.5V92.438a1.5,1.5,0,0,1,2.991,0V97.5A1.5,1.5,0,0,1,437.8,99Z" transform="translate(-425.831 -90.942)"/>
            <path id="Trazado_719353" data-name="Trazado 719353" d="M478.166,154.631H473.1a1.5,1.5,0,1,1,0-2.991h5.064a1.5,1.5,0,1,1,0,2.991Z" transform="translate(-454.094 -139.535)"/>
            <path id="Trazado_719354" data-name="Trazado 719354" d="M437.8,195.881a1.5,1.5,0,0,1-1.5-1.5v-5.945a1.5,1.5,0,0,1,2.991,0v5.945A1.5,1.5,0,0,1,437.8,195.881Z" transform="translate(-425.831 -167.799)"/>
            <path id="Trazado_719355" data-name="Trazado 719355" d="M388.723,154.631h-3.43a1.5,1.5,0,1,1,0-2.991h3.43a1.5,1.5,0,1,1,0,2.991Z" transform="translate(-383.797 -139.535)"/>
          </g>
          <g id="Grupo_1013619" data-name="Grupo 1013619" transform="translate(1.911 3.545)">
            <path id="Trazado_719356" data-name="Trazado 719356" d="M462.761,115.292a1.5,1.5,0,0,1-1.058-2.553l3.581-3.581a1.5,1.5,0,0,1,2.115,2.115l-3.581,3.581A1.492,1.492,0,0,1,462.761,115.292Z" transform="translate(-447.727 -108.72)"/>
            <path id="Trazado_719357" data-name="Trazado 719357" d="M464.552,181.386a1.491,1.491,0,0,1-1.058-.438l-1.79-1.79a1.5,1.5,0,1,1,2.115-2.115l1.791,1.79a1.5,1.5,0,0,1-1.058,2.553Z" transform="translate(-447.727 -163.066)"/>
            <path id="Trazado_719358" data-name="Trazado 719358" d="M394.876,183.177a1.5,1.5,0,0,1-1.058-2.553l3.581-3.581a1.5,1.5,0,0,1,2.116,2.115l-3.581,3.581A1.491,1.491,0,0,1,394.876,183.177Z" transform="translate(-393.38 -163.066)"/>
            <path id="Trazado_719359" data-name="Trazado 719359" d="M398.457,115.293a1.491,1.491,0,0,1-1.058-.438l-3.581-3.581a1.5,1.5,0,0,1,2.116-2.115l3.581,3.581a1.5,1.5,0,0,1-1.058,2.553Z" transform="translate(-393.38 -108.72)"/>
          </g>
        </g>
        <path id="Trazado_719360" data-name="Trazado 719360" d="M350.51,302.6a11.9,11.9,0,0,1-9.491-4.761,1.5,1.5,0,1,1,2.4-1.79,8.848,8.848,0,1,0-1.754-5.288,1.5,1.5,0,1,1-2.991,0A11.839,11.839,0,1,1,350.51,302.6Z" transform="translate(-271.13 -229.523)"/>
        <g id="Grupo_1013621" data-name="Grupo 1013621" transform="translate(64.817 41.962)">
          <path id="Trazado_719361" data-name="Trazado 719361" d="M392.032,252.05a1.5,1.5,0,0,1-1.5-1.5v-7.44a1.5,1.5,0,1,1,2.991,0v7.44A1.5,1.5,0,0,1,392.032,252.05Z" transform="translate(-377.469 -241.619)"/>
          <path id="Trazado_719362" data-name="Trazado 719362" d="M451.336,333.781H443.9a1.5,1.5,0,0,1,0-2.991h7.44a1.5,1.5,0,1,1,0,2.991Z" transform="translate(-418.99 -313.007)"/>
          <path id="Trazado_719363" data-name="Trazado 719363" d="M392.032,393.086a1.5,1.5,0,0,1-1.5-1.5v-7.44a1.5,1.5,0,0,1,2.991,0v7.44A1.5,1.5,0,0,1,392.032,393.086Z" transform="translate(-377.469 -354.528)"/>
          <path id="Trazado_719364" data-name="Trazado 719364" d="M329.233,333.781h-2.724a1.5,1.5,0,1,1,0-2.991h2.724a1.5,1.5,0,1,1,0,2.991Z" transform="translate(-325.013 -313.007)"/>
        </g>
        <g id="Grupo_1013622" data-name="Grupo 1013622" transform="translate(65.31 49.402)">
          <path id="Trazado_719365" data-name="Trazado 719365" d="M428.706,284.946a1.5,1.5,0,0,1-1.058-2.553l3.03-3.03a1.5,1.5,0,0,1,2.115,2.116l-3.03,3.029A1.491,1.491,0,0,1,428.706,284.946Z" transform="translate(-407.322 -278.925)"/>
          <path id="Trazado_719366" data-name="Trazado 719366" d="M431.735,373.485a1.491,1.491,0,0,1-1.058-.438l-3.03-3.03a1.5,1.5,0,0,1,2.116-2.116l3.03,3.03a1.5,1.5,0,0,1-1.058,2.553Z" transform="translate(-407.322 -349.807)"/>
          <path id="Trazado_719367" data-name="Trazado 719367" d="M328.979,375.716a1.5,1.5,0,0,1-1.057-2.553l5.261-5.261a1.5,1.5,0,0,1,2.115,2.116l-5.261,5.26A1.492,1.492,0,0,1,328.979,375.716Z" transform="translate(-327.483 -349.806)"/>
          <path id="Trazado_719368" data-name="Trazado 719368" d="M344.8,286.548a1.49,1.49,0,0,1-1.057-.438l-2.631-2.63a1.5,1.5,0,1,1,2.115-2.115l2.63,2.63a1.5,1.5,0,0,1-1.058,2.553Z" transform="translate(-338.041 -280.527)"/>
        </g>
        <path id="Trazado_719369" data-name="Trazado 719369" d="M361.791,306.89a4.845,4.845,0,1,1,4.845-4.845A4.851,4.851,0,0,1,361.791,306.89Zm0-6.7a1.854,1.854,0,1,0,1.854,1.854A1.856,1.856,0,0,0,361.791,300.191Z" transform="translate(-285.761 -244.154)"/>
        <path id="Trazado_719370" data-name="Trazado 719370" d="M416.306,333.781a1.463,1.463,0,0,1-.293-.03,1.462,1.462,0,0,1-.537-.221,1.4,1.4,0,0,1-.227-.187,1.5,1.5,0,0,1-.188-.227,1.524,1.524,0,0,1-.137-.257,1.556,1.556,0,0,1-.084-.279,1.453,1.453,0,0,1,0-.587,1.554,1.554,0,0,1,.084-.279,1.519,1.519,0,0,1,.137-.257,1.4,1.4,0,0,1,.188-.227,1.386,1.386,0,0,1,.227-.187,1.458,1.458,0,0,1,.537-.222,1.449,1.449,0,0,1,.584,0,1.561,1.561,0,0,1,.281.084,1.54,1.54,0,0,1,.257.138,1.466,1.466,0,0,1,.227.187,1.379,1.379,0,0,1,.188.227,1.491,1.491,0,0,1,.135.257,1.412,1.412,0,0,1,.086.279,1.453,1.453,0,0,1,0,.587,1.413,1.413,0,0,1-.086.279,1.5,1.5,0,0,1-.135.257,1.548,1.548,0,0,1-.415.415,1.526,1.526,0,0,1-.257.138,1.541,1.541,0,0,1-.281.084A1.43,1.43,0,0,1,416.306,333.781Z" transform="translate(-332.085 -271.045)"/>
        <path id="Trazado_719371" data-name="Trazado 719371" d="M392.036,355.941a1.466,1.466,0,0,1-.293-.03,1.372,1.372,0,0,1-.279-.086,1.4,1.4,0,0,1-.259-.136,1.57,1.57,0,0,1-.228-.187,1.455,1.455,0,0,1-.185-.228,1.516,1.516,0,0,1-.138-.257,1.469,1.469,0,0,1-.114-.572,1.506,1.506,0,0,1,.437-1.057,1.6,1.6,0,0,1,.228-.187,1.519,1.519,0,0,1,.259-.138,1.488,1.488,0,0,1,.279-.084,1.436,1.436,0,0,1,.585,0,1.484,1.484,0,0,1,.279.084,1.521,1.521,0,0,1,.259.138,1.6,1.6,0,0,1,.227.187,1.511,1.511,0,0,1,.439,1.057,1.429,1.429,0,0,1-.03.291,1.587,1.587,0,0,1-.086.281,1.5,1.5,0,0,1-.138.257,1.459,1.459,0,0,1-.185.228,1.575,1.575,0,0,1-.227.187,1.4,1.4,0,0,1-.259.136,1.369,1.369,0,0,1-.279.086A1.458,1.458,0,0,1,392.036,355.941Z" transform="translate(-312.655 -288.785)"/>
        <path id="Trazado_719372" data-name="Trazado 719372" d="M338.276,430.819a1.447,1.447,0,0,1-.293-.03,1.519,1.519,0,0,1-.279-.086,1.543,1.543,0,0,1-.259-.138,1.45,1.45,0,0,1-.227-.185,1.512,1.512,0,0,1-.437-1.057,1.608,1.608,0,0,1,.028-.293,1.511,1.511,0,0,1,.086-.279,1.528,1.528,0,0,1,.138-.259,1.566,1.566,0,0,1,.185-.227,1.5,1.5,0,0,1,.487-.323,1.481,1.481,0,0,1,1.143,0,1.525,1.525,0,0,1,.259.138,1.551,1.551,0,0,1,.228.186,1.447,1.447,0,0,1,.185.227,1.528,1.528,0,0,1,.138.259,1.511,1.511,0,0,1,.086.279,1.466,1.466,0,0,1,.028.293,1.5,1.5,0,0,1-.437,1.057,1.453,1.453,0,0,1-.228.185,1.539,1.539,0,0,1-.538.223A1.428,1.428,0,0,1,338.276,430.819Z" transform="translate(-269.616 -348.73)"/>
        <path id="Trazado_719373" data-name="Trazado 719373" d="M442.636,146.354a1.462,1.462,0,0,1-.293-.03,1.5,1.5,0,0,1-.279-.084,1.6,1.6,0,0,1-.259-.138,1.708,1.708,0,0,1-.227-.185,1.511,1.511,0,0,1-.437-1.059,1.465,1.465,0,0,1,.114-.572,1.593,1.593,0,0,1,.137-.257,1.475,1.475,0,0,1,.186-.227,1.444,1.444,0,0,1,.227-.185,1.463,1.463,0,0,1,.259-.138,1.5,1.5,0,0,1,.279-.086,1.479,1.479,0,0,1,.584,0,1.576,1.576,0,0,1,.281.086,1.392,1.392,0,0,1,.257.138,1.462,1.462,0,0,1,.413.413,1.5,1.5,0,0,1,.223.538,1.432,1.432,0,0,1,.03.291,1.495,1.495,0,0,1-1.5,1.5Z" transform="translate(-353.164 -120.997)"/>
        <g id="Grupo_1013625" data-name="Grupo 1013625" transform="translate(57.155)">
          <path id="Trazado_719374" data-name="Trazado 719374" d="M313.249,64.821a6.957,6.957,0,1,1,6.957-6.957A6.965,6.965,0,0,1,313.249,64.821Zm0-10.923a3.966,3.966,0,1,0,3.966,3.966A3.97,3.97,0,0,0,313.249,53.9Z" transform="translate(-302.364 -46.979)"/>
          <g id="Grupo_1013623" data-name="Grupo 1013623">
            <path id="Trazado_719375" data-name="Trazado 719375" d="M335.173,38.13a1.5,1.5,0,0,1-1.5-1.5V32.706a1.5,1.5,0,0,1,2.991,0v3.928A1.5,1.5,0,0,1,335.173,38.13Z" transform="translate(-324.287 -31.21)"/>
            <path id="Trazado_719376" data-name="Trazado 719376" d="M292.019,81.283h-3.928a1.5,1.5,0,0,1,0-2.991h3.928a1.5,1.5,0,1,1,0,2.991Z" transform="translate(-286.595 -68.902)"/>
            <path id="Trazado_719377" data-name="Trazado 719377" d="M335.173,113.281a1.5,1.5,0,0,1-1.5-1.5v-4.611a1.5,1.5,0,0,1,2.991,0v4.611A1.5,1.5,0,0,1,335.173,113.281Z" transform="translate(-324.287 -90.827)"/>
            <path id="Trazado_719378" data-name="Trazado 719378" d="M365.219,81.283h-2.661a1.5,1.5,0,1,1,0-2.991h2.661a1.5,1.5,0,1,1,0,2.991Z" transform="translate(-346.211 -68.902)"/>
          </g>
          <g id="Grupo_1013624" data-name="Grupo 1013624" transform="translate(2.75 2.75)">
            <path id="Trazado_719379" data-name="Trazado 719379" d="M304.658,50.769a1.491,1.491,0,0,1-1.058-.438l-2.778-2.778a1.5,1.5,0,0,1,2.115-2.115l2.778,2.778a1.5,1.5,0,0,1-1.058,2.553Z" transform="translate(-300.384 -45)"/>
            <path id="Trazado_719380" data-name="Trazado 719380" d="M308.844,102.037a1.5,1.5,0,0,1-1.058-2.553l1.389-1.389a1.5,1.5,0,0,1,2.115,2.115L309.9,101.6A1.491,1.491,0,0,1,308.844,102.037Z" transform="translate(-305.959 -87.156)"/>
            <path id="Trazado_719381" data-name="Trazado 719381" d="M357.314,103.426a1.491,1.491,0,0,1-1.058-.438l-2.778-2.778a1.5,1.5,0,1,1,2.116-2.115l2.777,2.778a1.5,1.5,0,0,1-1.058,2.553Z" transform="translate(-342.54 -87.156)"/>
            <path id="Trazado_719382" data-name="Trazado 719382" d="M354.537,50.769a1.5,1.5,0,0,1-1.058-2.553l2.778-2.778a1.5,1.5,0,0,1,2.115,2.115l-2.777,2.778A1.491,1.491,0,0,1,354.537,50.769Z" transform="translate(-342.54 -45)"/>
          </g>
        </g>
        <path id="Trazado_719383" data-name="Trazado 719383" d="M335.176,81.287a1.6,1.6,0,0,1-.293-.028,1.667,1.667,0,0,1-.279-.086,1.533,1.533,0,0,1-.259-.138,1.457,1.457,0,0,1-.413-.413,1.613,1.613,0,0,1-.137-.259,1.524,1.524,0,0,1-.086-.279,1.621,1.621,0,0,1-.028-.293,1.493,1.493,0,0,1,.251-.83,1.477,1.477,0,0,1,.186-.227,1.446,1.446,0,0,1,.227-.185,1.4,1.4,0,0,1,.259-.138,1.478,1.478,0,0,1,1.143,0,1.4,1.4,0,0,1,.259.138,1.433,1.433,0,0,1,.227.185,1.467,1.467,0,0,1,.186.227,1.6,1.6,0,0,1,.138.257,1.578,1.578,0,0,1,.086.281,1.427,1.427,0,0,1,.03.291,1.462,1.462,0,0,1-.03.293,1.51,1.51,0,0,1-.086.279,1.619,1.619,0,0,1-.138.259,1.461,1.461,0,0,1-.413.413,1.534,1.534,0,0,1-.259.138,1.674,1.674,0,0,1-.279.086A1.583,1.583,0,0,1,335.176,81.287Z" transform="translate(-267.134 -68.907)"/>
        <g id="Grupo_1013626" data-name="Grupo 1013626" transform="translate(45.444 1.696)">
          <path id="Trazado_719384" data-name="Trazado 719384" d="M241.612,47.593a1.5,1.5,0,0,1-1.5-1.5V41.212a1.5,1.5,0,0,1,2.991,0V46.1A1.5,1.5,0,0,1,241.612,47.593Z" transform="translate(-237.673 -39.716)"/>
          <path id="Trazado_719385" data-name="Trazado 719385" d="M234.249,54.955h-4.885a1.5,1.5,0,1,1,0-2.991h4.885a1.5,1.5,0,1,1,0,2.991Z" transform="translate(-227.868 -49.521)"/>
        </g>
        <g id="Grupo_1013627" data-name="Grupo 1013627" transform="translate(58.641 81.783)">
          <path id="Trazado_719386" data-name="Trazado 719386" d="M307.788,449.171a1.5,1.5,0,0,1-1.5-1.5V442.79a1.5,1.5,0,0,1,2.991,0v4.885A1.5,1.5,0,0,1,307.788,449.171Z" transform="translate(-303.849 -441.294)"/>
          <path id="Trazado_719387" data-name="Trazado 719387" d="M300.425,456.533H295.54a1.5,1.5,0,1,1,0-2.991h4.885a1.5,1.5,0,1,1,0,2.991Z" transform="translate(-294.044 -451.099)"/>
        </g>
        <path id="Trazado_719388" data-name="Trazado 719388" d="M31.659,158.388a7.69,7.69,0,0,1-4.381-1.361L19.593,151.7c-1.022-.708-2.027-1.467-2.987-2.256a1.5,1.5,0,1,1,1.9-2.311c.9.737,1.835,1.446,2.79,2.107l7.685,5.323a4.725,4.725,0,0,0,5.355,0l7.685-5.323a42.512,42.512,0,0,0,18.3-34.942V98.457A3.957,3.957,0,0,0,58.1,94.911L33.769,83.181a4.832,4.832,0,0,0-4.22,0L5.218,94.911a3.957,3.957,0,0,0-2.227,3.545V114.3a42.459,42.459,0,0,0,10.765,28.272,1.5,1.5,0,1,1-2.234,1.99A45.448,45.448,0,0,1,0,114.3V98.457a6.965,6.965,0,0,1,3.919-6.24l24.331-11.73a7.81,7.81,0,0,1,6.818,0L59.4,92.217a6.965,6.965,0,0,1,3.919,6.24V114.3a45.5,45.5,0,0,1-19.593,37.4l-7.685,5.323A7.689,7.689,0,0,1,31.659,158.388Z" transform="translate(0 -70.032)"/>
      </g>
    </g>
  </g>
</svg>
