<svg xmlns="http://www.w3.org/2000/svg" width="375.19" height="407.353" viewBox="0 0 375.19 407.353">
  <g id="Group_4_" data-name="Group (4)" transform="translate(-21.977 -17.202)">
    <path id="Trazado_716943" data-name="Trazado 716943" d="M640.95,531.732c4.359-3.309,9.751-7.606,15.689-7.244,3.7.23,1.977,3.706.079,5.038-4.324,3.045-10.747,3.671-15.865,3.265l.106-1.059Z" transform="translate(-289.795 -237.169)" fill="#ffa031"/>
    <path id="Trazado_716947" data-name="Trazado 716947" d="M660.73,552.905c.326,4.615.6,10.438,4.13,14,2.206,2.223,3.459-.812,3.247-2.762-.477-4.438-3.653-8.868-6.768-11.9l-.609.653Z" transform="translate(-298.784 -249.73)" fill="#ffa031"/>
    <path id="Trazado_716948" data-name="Trazado 716948" d="M641.594,540.63c.662,6.071,1.306,13.721,6.265,18.574,3.088,3.027,4.641-.9,4.262-3.468-.856-5.85-5.374-11.815-9.732-15.944l-.794.829Z" transform="translate(-290.13 -244.099)" fill="#ffa031"/>
    <path id="Trazado_716950" data-name="Trazado 716950" d="M634.012,548.017c-1.183-3.088-5.85-12.742-7.324-16.58-1.032-.618-2.047-1.262-3.07-1.906.794,6.839,3.626,17.559,5.286,20.048.714,1.076,2.647,3.15,4.015,3.124C635.38,552.658,634.524,549.358,634.012,548.017Z" transform="translate(-282.002 -239.459)" fill="#ffa031"/>
    <path id="Trazado_716951" data-name="Trazado 716951" d="M602.174,536.638c-.547-4.032-3.424-16.9-4.1-21.9-1.059-1.032-2.1-2.082-3.141-3.15-.971,8.409-.592,22.033.7,25.492.556,1.491,2.285,4.509,3.927,4.87,2.956.635,2.868-3.547,2.629-5.3Z" transform="translate(-268.782 -231.345)" fill="#ffa031"/>
    <path id="Trazado_716952" data-name="Trazado 716952" d="M620.187,518.951c1.482-1.112,4.87-7.209,14.665-8.726,1.385-.212,3.256-.371,4.271.821,1.4,1.659-.688,2.585-2.029,3.141-2.639,1.094-12.945,4.509-15.389,5.692" transform="translate(-280.45 -230.662)" fill="#ffa031"/>
    <path id="Trazado_716953" data-name="Trazado 716953" d="M608.278,519.783c.15,2.073-.317,4.385-.229,6.565.1,2.339,2.409,14.639,4.518,18.018.909,1.465,1.941,4.606,4.1,4.253,2.092-.344,2.427-3.168,2.365-4.88-.141-3.988-7.535-20.348-10.015-24.292" transform="translate(-274.956 -234.9)" fill="#ffa031"/>
    <path id="Trazado_716954" data-name="Trazado 716954" d="M606.205,507.208c4.624-6.706,16.906-13.227,18.618-12.645,3.706,1.28.362,5.85-1.579,7.227-4.351,3.088-16.165,6.114-16.633,5.365" transform="translate(-274.127 -223.63)" fill="#ffa031"/>
    <path id="Trazado_716956" data-name="Trazado 716956" d="M411.814,203.859c-2.206-8.286-5.585-16.554-7.085-25.015-3.371-19.033,2.912-38.489,2.876-57.9-.035-21.856-9.936-45.027-27.892-52.969a36.732,36.732,0,0,0-8.5-2.577c-16.668-2.991-34.518,4.633-51.875,5.488C275.4,73.073,237.166,31.919,193.179,31.407c-27.945-.318-55.519,17.462-69.54,44.869-4.615,9-7.976,19.112-14.542,26.383-8.091,8.956-19.668,12.159-30.248,16.712-21.512,9.238-35.083,32.886-23.789,58.052,4.694,10.474,11.462,20.03,13.65,31.519a48.594,48.594,0,0,1,.821,9.3C69.505,231.044,65.376,244,64.758,257c-1.544,32.789,23.568,64.449,52.51,65.207,22.272.582,42.345-14.506,64.078-20.065,21.089-5.383,43.51-1.527,63.425,8,15.5,7.412,29.586,18.08,44.569,26.772s31.448,15.477,48.23,14.153,33.8-12.344,39.486-30.3c5.321-16.774.256-36.433,7.015-52.519,7.077-16.818,25.633-26,29.215-44.18,1.35-6.812.318-13.527-1.474-20.233Z" transform="translate(-23.052 -14.201)" fill="#d4efff"/>
    <g id="Grupo_1013255" data-name="Grupo 1013255" transform="translate(21.977 66.143)">
      <path id="Trazado_716957" data-name="Trazado 716957" d="M601.377,146.6c-1.976-4.774-3.644-10-6.856-14.039l1.765,3.521c-3.494-5.559-18.627-6.388-24.23-5.673a21.528,21.528,0,0,0-10.835,5.109c-5.542,4.792-7.341,8.815-9.856,15.989-3.009,8.6-2.859,15.4-.282,24.186,2.038,6.979,5.338,14.241,12.124,17.533,8.383,4.068,19.712,3.159,27.486-1.782,8.091-5.136,13.121-15.177,13.792-24.98a41.783,41.783,0,0,0-3.1-19.862Z" transform="translate(-270.293 -125.015)"/>
      <path id="Trazado_716958" data-name="Trazado 716958" d="M543.878,666.915l14.4-97.882h13.165l3.9,97.882H601.93l3.83-109.114H519.9c-4.023,29.965-6.8,67.775-9.009,109.114h32.983Z" transform="translate(-253.004 -318.386)" fill="#3d8dc0"/>
      <path id="Trazado_716959" data-name="Trazado 716959" d="M600.71,425.12H514.854a332.859,332.859,0,0,1,7.279-39.346l-14.886-61.66-7.5-31.059c.838-8.542,25.112-19.209,39.5-24.821,1.791-.7,3.441-1.323,4.862-1.853,3.406-1.262,5.559-1.985,5.559-1.985h19.386l3.759,1.562,4.985,2.065,17.647,7.315v79.581q0,5.559.45,11.1Z" transform="translate(-247.963 -185.705)" fill="#4196cc"/>
      <path id="Trazado_716960" data-name="Trazado 716960" d="M536.938,473.675l-15.891.494a332.824,332.824,0,0,1,7.28-39.345l-14.886-61.66,18.344.088S533.073,361,536.938,473.675Z" transform="translate(-254.155 -234.754)" fill="#3d8dc0" opacity="0.5"/>
      <path id="Trazado_716961" data-name="Trazado 716961" d="M610.459,270.483c0,11.753-8.691,21.292-19.394,21.292s-19.395-9.539-19.395-21.292c0-.759.035-1.517.106-2.25,1.8-.7,3.441-1.323,4.862-1.853,3.406-1.262,5.559-1.985,5.559-1.985h19.386l3.759,1.562,4.985,2.073a22.644,22.644,0,0,1,.132,2.462Z" transform="translate(-280.487 -185.705)" fill="#fff"/>
      <path id="Trazado_716962" data-name="Trazado 716962" d="M609.736,271.3a15.247,15.247,0,0,1-30.495,0,14.985,14.985,0,0,1,.829-4.933c3.406-1.262,5.559-1.985,5.559-1.985h19.386l3.759,1.562a15.185,15.185,0,0,1,.971,5.356Z" transform="translate(-283.91 -185.698)" fill="#ebb591"/>
      <path id="Trazado_716963" data-name="Trazado 716963" d="M609.548,235.433H583.783v22.58h25.765Z" transform="translate(-285.964 -172.608)" fill="#ebb591"/>
      <path id="Trazado_716964" data-name="Trazado 716964" d="M644.67,169.214c-.468-4.765-7.562-18.971-12.089-10.606a9.585,9.585,0,0,0,.768,5.815c2.374,4.782,5.153,14,5.462,17.674.432,5.039.794,13.209-1.544,17.948,6.865-8.215,8.3-21.557,7.4-30.821Z" transform="translate(-307.965 -136.698)"/>
      <path id="Trazado_716965" data-name="Trazado 716965" d="M547.418,174.382c1.57,6.009,6.212,7.756,10.482,8.841.176.353.353.671.565,1.015a44.058,44.058,0,0,0,9.689,11.788c5.179,4.412,11.091,7.006,16.412,5.912,8.718-1.826,15.512-9.141,18.513-17.85.15-.432.291-.874.415-1.306a29.289,29.289,0,0,0,1.173-11.118c-3-33.61-14.471-39.672-27.433-38.145-9.927,1.165-19.518,16.624-22.068,30.309a6.951,6.951,0,0,0-3.909-1.023c-3.971.467-5.074,6.812-3.838,11.568Z" transform="translate(-269.303 -126.426)" fill="#efc3a6"/>
      <path id="Trazado_716966" data-name="Trazado 716966" d="M623.034,123.683c-2.25,2.144-3.009,5.144-6.679,5.594-.1-1,1.182-2.621,1.306-3.891a20.491,20.491,0,0,0-.036-3.371c-1.041,3.133-7.121,5.63-10.05,5.895.292-1.324,2.083-2.454,2.771-3.706a16.238,16.238,0,0,0,1.474-3.459c-3.521,3.962-8.577,4.2-13.483,4.685-3.371.335-6.821.212-10.218.247-2.355.018-4.677.821-6.988,1.244A25.488,25.488,0,0,0,562.2,141.507c-1.12,2.55-3.388,8.524-1.773,11.762-.274,3.371.679,6.741,1.341,10.253a56.852,56.852,0,0,0,4.139,12.935c.688,1.535,2.073,3.83,2.806,5.877-.088-2.294.221-4.809.221-6.839a49.82,49.82,0,0,1,1.923-15.265l.027-.079a16.816,16.816,0,0,1,12.874-11.374c.5-.1,1.006-.176,1.518-.238,6.635-.829,13.483.079,20.091-1.015a36.131,36.131,0,0,0,9.592-3.035c2.832-1.359,4.182-3.291,5.25-6.159C621.844,133.936,623.414,128.413,623.034,123.683Z" transform="translate(-275.15 -120.745)"/>
      <path id="Trazado_716967" data-name="Trazado 716967" d="M602.564,195.619a2.385,2.385,0,1,0,2.444-2.55A2.5,2.5,0,0,0,602.564,195.619Z" transform="translate(-294.457 -153.45)"/>
      <path id="Trazado_716968" data-name="Trazado 716968" d="M632.428,195.78a2.385,2.385,0,1,0,2.444-2.551A2.5,2.5,0,0,0,632.428,195.78Z" transform="translate(-307.962 -153.523)"/>
      <path id="Trazado_716969" data-name="Trazado 716969" d="M591.6,184.305a.8.8,0,0,0,.767-.415,5.09,5.09,0,0,1,6.821-2.471.822.822,0,0,0,1.086-.37.812.812,0,0,0-.38-1.086,6.677,6.677,0,0,0-8.947,3.142.813.813,0,0,0,.318,1.1.765.765,0,0,0,.327.1Z" transform="translate(-289.158 -147.228)"/>
      <path id="Trazado_716970" data-name="Trazado 716970" d="M611.351,221.423a.815.815,0,0,0-.724-.494A5.094,5.094,0,0,1,605.306,216a.815.815,0,0,0-.829-.794.8.8,0,0,0-.786.829,6.684,6.684,0,0,0,6.892,6.52.809.809,0,0,0,.767-1.12Z" transform="translate(-294.967 -163.459)"/>
      <path id="Trazado_716971" data-name="Trazado 716971" d="M632.214,181.028a.669.669,0,0,0,.714.159,4.28,4.28,0,0,1,5.692,2.179.678.678,0,1,0,1.244-.538,5.615,5.615,0,0,0-7.412-2.921.675.675,0,0,0-.4.874.776.776,0,0,0,.15.247Z" transform="translate(-307.773 -147.295)"/>
      <path id="Trazado_716972" data-name="Trazado 716972" d="M627.055,207.545a2.686,2.686,0,0,0,1.323-.812c1.121-1.262.909-3.388-.574-5.692l-4.077-7.9a.621.621,0,1,0-1.1.574l4.1,7.95c1.394,2.18,1.279,3.618.715,4.244-.583.653-1.721.679-2.93.1a.661.661,0,0,0-.865.256.591.591,0,0,0,.23.812,4.587,4.587,0,0,0,3.168.468Z" transform="translate(-303.497 -153.332)"/>
      <path id="Trazado_716973" data-name="Trazado 716973" d="M653.126,284.362s12.927,2.859,15.619,13.465l11.426,57.6a31.483,31.483,0,0,1,.653,6.742c-.4,20.824-29.33,14.965-53.533,7.641l25.386-19.756.441-65.7Z" transform="translate(-305.639 -194.73)" fill="#ebb591"/>
      <path id="Trazado_716974" data-name="Trazado 716974" d="M673.021,336.72l25.81-2.2s-2.912-24.107-11.162-41.472c-2.338-4.915-7.959-7.412-13.853-8.682l-.786,52.361Z" transform="translate(-326.319 -194.737)" fill="#3d8dc0"/>
      <path id="Trazado_716975" data-name="Trazado 716975" d="M576.63,376.669l-32.71,25.466a68.383,68.383,0,0,1-14.056,7.615c-10.147,3.856-21.274-2.2-24.239-13.086-8.674-31.889-11.135-66.2-7.421-81.134,5.082-3.909,10.985.7,15.627,6.282,4.871,5.868,12.742,55.493,12.742,55.493l43.14-9.688.088-.088c1.809,2.285,4.879,6.459,6.838,9.141Z" transform="translate(-246.508 -208.171)" fill="#efc3a6"/>
      <path id="Trazado_716976" data-name="Trazado 716976" d="M495.736,314.963c-4.482,15.742,1.43,56.614,1.43,56.614l29.965-12.2s-4.677-54.336-25.721-49.748a7.639,7.639,0,0,0-5.683,5.338Z" transform="translate(-245.389 -206.034)" fill="#3d8dc0"/>
      <path id="Trazado_716977" data-name="Trazado 716977" d="M539.882,399.851s-10.9-1.394-15.662-5.708c0,0-2.259-.406-1.959,2.232a4.727,4.727,0,0,0,1.165,2.576c1.2,1.377,3.821,3.442,8.895,3.741Z" transform="translate(-258.131 -244.368)" fill="#ebb591"/>
      <path id="Trazado_716978" data-name="Trazado 716978" d="M547.186,408.643a9.442,9.442,0,0,1-4.977-1.059c-4.314-2.285-14.471-6.2-22.633,1.8l-10.218,10.907a7.576,7.576,0,0,0-1.394,2.629,2.732,2.732,0,0,0-.036,1.279,1.756,1.756,0,0,0,.5.856,2.5,2.5,0,0,0,.821.538,10.674,10.674,0,0,0,5.083.388,28.628,28.628,0,0,0,10.915-3.415l7.959-4.324,8.3-1.773,36.989-7.906-31.3.088Z" transform="translate(-251.635 -249.101)" fill="#ebb591"/>
      <path id="Trazado_716979" data-name="Trazado 716979" d="M523.68,414.67c-1.094.318-9.442,7.836-15.751,13.685a2.732,2.732,0,0,1,.036-1.279c4.95-4.571,14.021-12.865,15.459-13.28Z" transform="translate(-251.635 -253.266)" fill="#e49b6a"/>
      <path id="Trazado_716980" data-name="Trazado 716980" d="M525.276,422.52,509.7,433.346a2.467,2.467,0,0,1-.821-.538l15.874-11.039.521.741Z" transform="translate(-252.093 -256.872)" fill="#e49b6a"/>
      <path id="Trazado_716981" data-name="Trazado 716981" d="M654.033,401.594l-16.924,13.165c-1.959-2.674-5.029-6.856-6.839-9.142C643.206,391.985,654.033,401.594,654.033,401.594Z" transform="translate(-306.986 -246.261)" fill="#efc3a6"/>
      <path id="Trazado_716982" data-name="Trazado 716982" d="M578.827,337.944H556.335v3.909h22.492Z" transform="translate(-273.552 -218.965)" fill="#fff"/>
      <path id="Trazado_716983" data-name="Trazado 716983" d="M178.531,187.219c3.741-4.156,5.674-11.638,1.183-15.838-3.441-3.221-8.533-2.983-12.68-4.315-7.421-2.382-14.974-3-22.686-3-4.915,0-10.721.459-14.621-3.177l6.821-3.176c-3.035,1.191-7.65,1.923-11.2,3.344-2,.8-4.518,1.668-5.02,4.244-.495,2.515,1.385,3.494,2.462,5.391-2.285,1.156-11.162,7.341-4.2,9.238-3.715,1.58-7.28,4.377-8.691,8.824-1.482,4.695.565,7.941,5.418,6.891-.062,3.256-4.87,21.769,4.686,15.433,1.509,3.591,1.1,7.9,4.976,10.289,3.053,1.888,5.842.529,7.359-2.9,1.668,3.671,13.006,12.036,12.715,2.833,2.638,1.6,3.591,5.136,7.589,4.835,3.079-.238,5.974-2.629,4.818-6.265,5.6,4.959,16.474,2.6,13.059-7.006,4.571-.432,11.727-4.862,5.48-9.786,4.738-1.12,8.091-.918,8.718-7.253.38-3.865-1.95-8.991-6.177-8.6Z" transform="translate(-71.455 -137.462)"/>
      <path id="Trazado_716984" data-name="Trazado 716984" d="M93.373,299.237c-12.018,10.359-12.6,38.251-9.971,67.8L55.025,365.4,58.8,380.971l30.142,6.036a9.245,9.245,0,0,0,11.065-9.062V301.663Z" transform="translate(-46.854 -201.461)" fill="#007473"/>
      <path id="Trazado_716985" data-name="Trazado 716985" d="M104.857,703.208h33.636l4.553-53.022,3.97-.468,6.327,53.5h35.965l5.383-82.555c.018-.194.018-.371.036-.556.088-1.28.141-2.567.141-3.865H96.889c.053,1.332.159,2.6.318,3.865l7.65,83.12Z" transform="translate(-65.786 -344.813)" fill="#065958"/>
      <path id="Trazado_716986" data-name="Trazado 716986" d="M194.859,615.29H96.889V620.6h97.97Z" transform="translate(-65.786 -344.383)" fill="#f8faff"/>
      <path id="Trazado_716987" data-name="Trazado 716987" d="M155.715,259.788l1.076-.141a3.629,3.629,0,0,0,1.853-.706,3.883,3.883,0,0,0,1.6-3.106c.018-.944.07-1.888.141-2.815.018-.362.036-.724.071-1.086.053-1.42.15-2.832.291-4.2l.688-7.518,19.439-7.941c-1.015,1.871-2.435,16.606-2.3,19.491.035.759.106,1.58.22,2.435v.036c.053.238.106.467.168.688a8.19,8.19,0,0,0,1.6,3.291c-14.974,19.112-23.312,19.765-24.839,1.562Z" transform="translate(-92.388 -171.18)" fill="#c26951"/>
      <path id="Trazado_716988" data-name="Trazado 716988" d="M194.835,465.856H96.865c-.821-23.33,15.953-55.863,22.439-65.093.247-.309.45-.618.653-.9a6.7,6.7,0,0,0,1.288-3.68,5.851,5.851,0,0,0-.37-2.259c-.186-.574-.468-1.394-.856-2.426-3.583-10.456-14.224-41.7-15.98-51.646-2.33-13.191,8.25-47.64,8.25-47.64L125.8,284.6c-7.245,16.395,5.383,28.695,5.383,28.695,17.656-6.777,23.33-21.486,25.147-29.568a6.366,6.366,0,0,0,1.086.467l.035.018h.018l9.574,1.438v.036c1.624.141,9.336,2.108,10.342,4.129A6.386,6.386,0,0,1,178.07,293a2.881,2.881,0,0,1-.018.388c-.574,6.547-1.227,13.262-.053,19.553.918,5.082,2.444,10.033,3.265,15.124a36.019,36.019,0,0,1-2.567,19.607c-1.368,3.371-6.036,25.58-8.656,38.339a26.725,26.725,0,0,0-.415,3.423,22.06,22.06,0,0,0,1.439,8.859,21.758,21.758,0,0,0,2.162,4.236l.371.555s21.265,32.851,21.247,62.772Z" transform="translate(-65.762 -194.446)" fill="#065958"/>
      <path id="Trazado_716989" data-name="Trazado 716989" d="M243.529,470.889H235.1c-6.635-21.9-16.165-42.256-23.577-56.437a61.834,61.834,0,0,1-5.02-44.172l19.553-75.426.688,3.185a2.876,2.876,0,0,1-.018.388c-.574,6.547-1.227,13.262-.053,19.553.918,5.082,2.444,10.033,3.265,15.124a36.024,36.024,0,0,1-2.567,19.606c-1.368,3.371-6.036,25.58-8.656,38.339a26.534,26.534,0,0,0-.415,3.424,22.057,22.057,0,0,0,1.438,8.859,21.791,21.791,0,0,0,2.162,4.236l.37.556s21.265,32.851,21.248,62.772Z" transform="translate(-114.456 -199.479)" fill="#006f6e" opacity="0.29"/>
      <path id="Trazado_716990" data-name="Trazado 716990" d="M135.039,348.044H115.4v4.967h19.642Z" transform="translate(-74.155 -223.532)" fill="#fff"/>
      <path id="Trazado_716991" data-name="Trazado 716991" d="M182.19,189.544c1.562-4.129,1.174-9.918-2.338-10.712a6.059,6.059,0,0,0-3.583.53c-.988-12.495-8.118-27.248-16.889-29.233-11.471-2.6-22.315,1.739-28.21,31.563-2.338,11.8,4.006,25.448,15.133,29.013,8.356,2.683,19.615-5.162,25.659-14.233C175.9,195.914,180.214,194.776,182.19,189.544Z" transform="translate(-81.071 -133.742)" fill="#c97a65"/>
      <path id="Trazado_716992" data-name="Trazado 716992" d="M150.119,231.11a10.315,10.315,0,0,1-1.182-.211.738.738,0,0,1-.521-.891.708.708,0,0,1,.891-.52c.353.1,8.851,2.241,12.106-5.868a.732.732,0,0,1,1.359.547c-2.973,7.4-9.891,7.306-12.662,6.944Z" transform="translate(-89.077 -167.058)"/>
      <path id="Trazado_716993" data-name="Trazado 716993" d="M173.163,205.872a2.148,2.148,0,1,1-1.941-2.515A2.26,2.26,0,0,1,173.163,205.872Z" transform="translate(-98.346 -158.101)"/>
      <path id="Trazado_716994" data-name="Trazado 716994" d="M146.391,203.183a2.147,2.147,0,1,1-1.941-2.514A2.259,2.259,0,0,1,146.391,203.183Z" transform="translate(-86.24 -156.885)"/>
      <path id="Trazado_716995" data-name="Trazado 716995" d="M180.639,196.459a.723.723,0,0,1-.653-.45,4.582,4.582,0,0,0-5.877-2.859.731.731,0,1,1-.494-1.376,6.02,6.02,0,0,1,7.721,3.661.723.723,0,0,1-.388.953.751.751,0,0,1-.309.062Z" transform="translate(-100.264 -152.711)"/>
      <path id="Trazado_716996" data-name="Trazado 716996" d="M145.576,189.939a.617.617,0,0,1-.662.071,3.845,3.845,0,0,0-5.3,1.412.628.628,0,0,1-.839.238.617.617,0,0,1-.229-.839,5.053,5.053,0,0,1,6.917-1.906.607.607,0,0,1,.274.821A.614.614,0,0,1,145.576,189.939Z" transform="translate(-84.586 -151.273)"/>
      <path id="Trazado_716997" data-name="Trazado 716997" d="M151.512,220.4a.67.67,0,0,0,.671-.671.683.683,0,0,0-.671-.679c-.009,0-1.3-.036-1.624-.724-.15-.318-.3-1.306,1.562-3.626a.672.672,0,1,0-1.05-.839c-1.747,2.18-2.312,3.83-1.729,5.047.7,1.465,2.736,1.482,2.824,1.482Z" transform="translate(-89.102 -162.741)"/>
      <path id="Trazado_716998" data-name="Trazado 716998" d="M232.927,560.927l6.246-6.245-21.794-21.794-6.245,6.245Z" transform="translate(-117.448 -307.12)" fill="#006f6e"/>
      <path id="Trazado_716999" data-name="Trazado 716999" d="M209.041,544.273l-2.539,2.539L228.3,568.606l2.54-2.54Z" transform="translate(-115.354 -312.269)" fill="#f8faff"/>
      <path id="Trazado_717000" data-name="Trazado 717000" d="M135.777,539.127l-6.245-6.246-21.794,21.794,6.246,6.245Z" transform="translate(-70.691 -307.117)" fill="#006f6e"/>
      <path id="Trazado_717001" data-name="Trazado 717001" d="M119.131,566.081l2.54,2.54,21.794-21.794-2.54-2.54Z" transform="translate(-75.844 -312.275)" fill="#f8faff"/>
      <path id="Trazado_717002" data-name="Trazado 717002" d="M178.373,282.365c-1.818,8.091-7.5,22.792-25.147,29.569,0,0-12.618-12.3-5.383-28.686l3.07-.962c1.553,18.539,10.05,17.877,25.307-1.588a5.955,5.955,0,0,0,1.676,1.412c.159.088.318.176.468.265Z" transform="translate(-87.815 -193.077)" fill="#fff"/>
      <path id="Trazado_717003" data-name="Trazado 717003" d="M186.056,157.3c-3.759-7.191-11-12.309-18.53-14.321-6.812-1.818-16.157-1.527-22.156,2.92-5.462,4.05-10.165,10.871-9.689,18.371a1.791,1.791,0,0,0,3.177,1.085c1.341-1.676,2.744-3.326,4.13-3.83a6.1,6.1,0,0,0,5.082,4.015c2.329.22,4.606,0,5.841-1.624a3.937,3.937,0,0,0,5.815,2.444,38.261,38.261,0,0,1,3.574-1.871q2.793,9.808,5.577,19.606c.494,1.747,1.112,3.653,2.586,4.544s3.335.432,4.9-.265c10.941-4.871,15.512-19.933,9.7-31.068Z" transform="translate(-83.313 -130.325)"/>
      <path id="Trazado_717004" data-name="Trazado 717004" d="M275.239,367.715c-11.983,13.086-30.865,22.43-53.772,29.577,0,0,1.447,7.879-13.668,7.288a4.509,4.509,0,0,1-2.056-.6,5.486,5.486,0,0,1-.829-.591l-.326-.326c-.23-.238-.468-.5-.715-.786-.2-.221-.388-.441-.6-.688a20.483,20.483,0,0,1-1.43-1.968,8.132,8.132,0,0,1-.459-.785c-.786-1.474-1.165-2.973-.477-4.121,1.041-1.738,3.035-3.794,6.45-6.2,0,0,7.544-5.18,10.068-1.818l1.076,1.6L250.3,362.6l-18.009-18.936a34.556,34.556,0,0,1-9.512-23.171l-.538-28.518c4.429,1.112,38.728,45.213,53.181,62.181a10.615,10.615,0,0,1-.176,13.571Z" transform="translate(-112.662 -198.176)" fill="#c97a65"/>
      <path id="Trazado_717005" data-name="Trazado 717005" d="M220.138,485.522l-10.791,5.63a5.487,5.487,0,0,1-.829-.591l11.2-5.842Z" transform="translate(-116.265 -285.338)" fill="#c26951"/>
      <path id="Trazado_717006" data-name="Trazado 717006" d="M216.614,479.194,206.1,486.615c-.2-.221-.388-.441-.6-.688l10.579-7.474Z" transform="translate(-114.903 -282.504)" fill="#c26951"/>
      <path id="Trazado_717007" data-name="Trazado 717007" d="M212.477,473.361l-9.945,7.968a8.205,8.205,0,0,1-.458-.786l9.847-7.888.565.706Z" transform="translate(-113.352 -279.882)" fill="#c26951"/>
      <path id="Trazado_717008" data-name="Trazado 717008" d="M44.671,355.344l38.86-.5a4.642,4.642,0,0,1,4.58,3.591l14.276,61.925a4.63,4.63,0,0,1-4.456,5.674l-39.16.5a4.634,4.634,0,0,1-4.58-3.618L40.224,360.982a4.638,4.638,0,0,1,4.465-5.656Z" transform="translate(-40.11 -226.605)" fill="#1c466d"/>
      <path id="Trazado_717009" data-name="Trazado 717009" d="M55.424,435.6a2.059,2.059,0,0,1-1.544-.485c-3.653-3.079-4.341-9.291-4.43-12.573a2.335,2.335,0,0,1,1.862-2.462c7.447-1.12,11.189,1.377,13.059,4.042a9.719,9.719,0,0,1,.627,1,10.6,10.6,0,0,1,.529,1.121c.124.309.238.609.318.883a11.342,11.342,0,0,1,.291,1.129,8.8,8.8,0,0,1,.124.9v.027c.494,4.827-8.144,6.141-10.844,6.432Z" transform="translate(-44.333 -255.981)" fill="#c97a65"/>
      <path id="Trazado_717010" data-name="Trazado 717010" d="M68.578,428.16a105.013,105.013,0,0,0-11.25-.7v-.909c.741,0,7.006.132,10.624.609A9.713,9.713,0,0,1,68.578,428.16Z" transform="translate(-47.896 -259.035)" fill="#c26951"/>
      <path id="Trazado_717011" data-name="Trazado 717011" d="M69.424,432.414l-12.009,1.059-.071-.909,11.771-1.032c.124.309.238.609.318.882Z" transform="translate(-47.903 -261.286)" fill="#c26951"/>
      <path id="Trazado_717012" data-name="Trazado 717012" d="M70.458,436.1a87.757,87.757,0,0,1-11.568,3.142l-.176-.9A80.653,80.653,0,0,0,70.325,435.2a8.793,8.793,0,0,1,.124.9Z" transform="translate(-48.523 -262.946)" fill="#c26951"/>
      <path id="Trazado_717013" data-name="Trazado 717013" d="M239,292.084l.953,31.589a27.763,27.763,0,0,0,6.15,16.589l14.286,17.656,18.794-22.642s-35.075-45.6-40.183-43.184Z" transform="translate(-130.05 -198.188)" fill="#007473"/>
      <path id="Trazado_717014" data-name="Trazado 717014" d="M307.941,174.8c-1.968,5.348-2.506,10.871-4.932,16.086-3.733,8.038-11.992,10.43-17.595,16.836-2.215,2.532-3.327,4.827-3.1,8.18.344,4.932,4.2,6,5.965,10.174,3.512,8.286-5.012,9.115-10.712,13.051-19.862,13.7-11.48,38.11,10.13,42.795,10.906,2.365,20.286-.194,29.921,6.689,8.232,5.885,13.421,10.836,23.833,12.362a113.131,113.131,0,0,0,30.257.309c11.3-1.535,17.083-8.391,27.256-11.956,7.977-2.8,18.477,2.674,24.548-3.653,5.268-5.488,7.712-17.4,2.426-23.127-8.056-8.735-19.315-10.915-21.654-24.1-1.456-8.224,1.809-16.756.194-24.892-2.021-10.139-14.9-17.638-22.236-23.859-7.147-6.071-5.444-10.853-7.024-19.545-3-16.562-18.036-34.906-36.177-33.477-19.139,1.509-32.719,21.433-31.713,39.936" transform="translate(-142.408 -127.913)"/>
      <path id="Trazado_717015" data-name="Trazado 717015" d="M301.382,302.056s-11.956,1.632-11.956,20.171l-2.586,60.081-26.277,78.611a29.1,29.1,0,0,0-1.5,9.2V488.4l13.1,10.544s2.876-1.6-7.986-10.544l.635-14.383s1.915,13.421,4.156,13.421c1.482-.141,1.121-9.344.979-17.454a7.011,7.011,0,0,0-.582-2.682l-1.668-3.794,33.142-63.275a42.913,42.913,0,0,0,4.835-22.368Z" transform="translate(-139.123 -202.736)" fill="#efc3a6"/>
      <path id="Trazado_717016" data-name="Trazado 717016" d="M322.519,302.056s-19.906.441-16.271,55.625h20.136Z" transform="translate(-160.26 -202.736)" fill="#3d8dc0"/>
      <path id="Trazado_717017" data-name="Trazado 717017" d="M403.019,447.824c-23.242,7.862-49.007,12.935-70.881,7.721a58.407,58.407,0,0,1-22.351-10.306s8.78-31.545,17.86-55.272a41.63,41.63,0,0,0,2.391-14.435c-.662-13.3-6.644-23.056-8.321-35.878-1.455-10.986,2.621-43.439,2.621-43.439s20.321-7.042,22.051-7.059a2.263,2.263,0,0,0,.344-.018,47.315,47.315,0,0,0,.195,8.259c1.385,11.471,16.359,15.547,23.171,6.212a29.46,29.46,0,0,0,5.082-12.044l1.888.282.732.106c4.985.741,14.286,1.959,14.286,1.959-.786,7.809-2.691,16.192-1.579,24.027.662,4.65,1.871,9.265,2.391,13.942a32.886,32.886,0,0,1-3.123,17.877c-3.23,7.059-6.106,15.1-6.874,22.951-1.65,16.8,5.656,31.845,11.63,47.154a213.236,213.236,0,0,1,8.506,27.962Z" transform="translate(-162.061 -196.894)" fill="#449ad0"/>
      <path id="Trazado_717018" data-name="Trazado 717018" d="M373.108,395.78l14.409,52.343a4.549,4.549,0,0,0,5.691,3.15l34.148-10.191a4.551,4.551,0,0,0,3.1-5.533l-13.562-50.878a4.544,4.544,0,0,0-5.5-3.239L376.4,390.16a4.546,4.546,0,0,0-3.282,5.62Z" transform="translate(-190.624 -238.568)" fill="#1c466d"/>
      <path id="Trazado_717019" data-name="Trazado 717019" d="M362.732,359.915H345.4v3.962h17.33Z" transform="translate(-178.166 -228.9)" fill="#fff"/>
      <path id="Trazado_717020" data-name="Trazado 717020" d="M404.8,291.832C405.131,311.165,386.222,326,386.222,326c-16.227-8.118-15.062-36.115-15.062-36.115a15.136,15.136,0,0,1,3.3-.759,47.3,47.3,0,0,0,.194,8.259c1.385,11.471,16.359,15.547,23.172,6.212a29.459,29.459,0,0,0,5.082-12.044Z" transform="translate(-189.806 -196.88)" fill="#fff"/>
      <path id="Trazado_717021" data-name="Trazado 717021" d="M403.378,320.027v-.812c-.026-14.347-.053-29.189-13.35-36.724a25.145,25.145,0,0,0-20.7-2.012c-13.306,4.668-13.368,19.624-13.359,20.259l-3.221.026c0-.176.018-17.885,15.512-23.321a28.4,28.4,0,0,1,23.357,2.25c14.93,8.462,14.956,24.247,14.983,39.521v.812Z" transform="translate(-181.488 -190.909)" fill="#265e91"/>
      <path id="Trazado_717022" data-name="Trazado 717022" d="M448.945,358.152a4.809,4.809,0,1,1-4.809-4.809A4.809,4.809,0,0,1,448.945,358.152Z" transform="translate(-220.64 -225.928)" fill="#265e91"/>
      <path id="Trazado_717023" data-name="Trazado 717023" d="M448.586,359.849a2.753,2.753,0,1,1-2.753-2.753A2.757,2.757,0,0,1,448.586,359.849Z" transform="translate(-222.337 -227.625)" fill="#1c466d"/>
      <path id="Trazado_717024" data-name="Trazado 717024" d="M348.845,359.207a16.391,16.391,0,0,1-5.974-4.491,10.778,10.778,0,0,1-5.092,2.779l-.609-3.159a8.064,8.064,0,0,0,3.821-2.268,25.9,25.9,0,0,1-3.106-8.779c-1.6-9.107.538-19.465,4.87-23.569a5.653,5.653,0,0,1,4.35-1.509,5.811,5.811,0,0,1,4.165,2.25c3.821,5,2.268,14.409-.458,21.547a39.419,39.419,0,0,1-5.718,10.332,13.186,13.186,0,0,0,5.038,3.909l-1.288,2.947Zm-2.215-37.792a2.358,2.358,0,0,0-1.659.644c-3.124,2.965-5.444,11.983-3.909,20.683a24.151,24.151,0,0,0,2.188,6.732,37.324,37.324,0,0,0,4.553-8.6c2.991-7.827,3.353-15.238.909-18.441a2.62,2.62,0,0,0-1.862-1h-.22Z" transform="translate(-174.444 -210.033)" fill="#265e91"/>
      <path id="Trazado_717025" data-name="Trazado 717025" d="M360.741,388.731l-3.161-2.033a1.677,1.677,0,0,0-2.317.5l-.334.519a1.677,1.677,0,0,0,.5,2.317l3.162,2.033a1.677,1.677,0,0,0,2.317-.5l.334-.519A1.676,1.676,0,0,0,360.741,388.731Z" transform="translate(-182.353 -240.891)" fill="#1c466d"/>
      <path id="Trazado_717026" data-name="Trazado 717026" d="M333.348,383.42l-3.655.876a1.676,1.676,0,0,0-1.239,2.021l.143.6a1.677,1.677,0,0,0,2.021,1.239l3.655-.876a1.677,1.677,0,0,0,1.24-2.021l-.144-.6A1.677,1.677,0,0,0,333.348,383.42Z" transform="translate(-170.481 -239.508)" fill="#1c466d"/>
      <path id="Trazado_717027" data-name="Trazado 717027" d="M400.548,275.908a2.452,2.452,0,0,1-2.083-2.621L398.8,270v-.026l1.4-8.886-17.047-4.879s-1.271,9.6-1.377,10.9c-.079.741-.168,1.491-.194,2.232h-.009l-.327,1.377a4.556,4.556,0,0,1-4.077,3.486l-.053.044a47.3,47.3,0,0,0,.194,8.259c1.385,11.471,16.35,15.539,23.172,6.212a29.288,29.288,0,0,0,5.082-12.044Z" transform="translate(-192.467 -182.005)" fill="#ebb591"/>
      <path id="Trazado_717028" data-name="Trazado 717028" d="M348.712,179.159a6.356,6.356,0,0,1,3.582,1.209,49.054,49.054,0,0,1,11.356-20.515,16.587,16.587,0,0,1,7.183-5.268,11.936,11.936,0,0,1,4.236-1.068,27.748,27.748,0,0,1,2.85.018,25.949,25.949,0,0,1,2.841.23,12.024,12.024,0,0,1,4.12,1.429,16.671,16.671,0,0,1,6.706,5.868,49.03,49.03,0,0,1,9.547,21.415,6.385,6.385,0,0,1,3.671-.9c3.723.485,4.685,6.459,3.467,10.9-1.544,5.63-5.921,7.227-9.945,8.188a41.387,41.387,0,0,1-7.835,10.209,22.49,22.49,0,0,1-12.053,7.006l-.406.079c-.265.044-.529.114-.8.15-.185.026-.37.018-.555.026l-.468.026a8.467,8.467,0,0,1-1.068,0c-.362-.018-.715-.053-1.068-.1-.15-.018-.309-.035-.459-.062-.185-.035-.37-.035-.547-.079-.265-.061-.52-.15-.785-.22-.133-.036-.265-.071-.4-.115a22.469,22.469,0,0,1-11.409-8.021,41.633,41.633,0,0,1-6.926-10.844c-3.935-1.306-8.153-3.274-9.2-9.018-.838-4.526.644-10.394,4.386-10.562Z" transform="translate(-177.585 -135.552)" fill="#efc3a6"/>
      <path id="Trazado_717029" data-name="Trazado 717029" d="M401.056,242.734a9.7,9.7,0,0,0,7-6.8.673.673,0,0,0-1.28-.415c-2.5,7.677-10.447,6.229-10.783,6.168a.685.685,0,0,0-.794.529.671.671,0,0,0,.529.786,13.379,13.379,0,0,0,5.329-.274Z" transform="translate(-200.679 -172.435)"/>
      <path id="Trazado_717030" data-name="Trazado 717030" d="M419.286,218.093a2.282,2.282,0,1,1-2.012-2.532A2.288,2.288,0,0,1,419.286,218.093Z" transform="translate(-209.52 -163.615)"/>
      <path id="Trazado_717031" data-name="Trazado 717031" d="M385.524,216.643a2.282,2.282,0,1,1-2.012-2.532A2.289,2.289,0,0,1,385.524,216.643Z" transform="translate(-194.252 -162.959)"/>
      <path id="Trazado_717032" data-name="Trazado 717032" d="M422.78,205.992s.044-.018.071-.026a.679.679,0,0,0,.388-.874,5.556,5.556,0,0,0-7.024-3.6.673.673,0,0,0-.432.847.648.648,0,0,0,.847.432,4.261,4.261,0,0,1,5.338,2.806.671.671,0,0,0,.8.406Z" transform="translate(-209.978 -157.144)"/>
      <path id="Trazado_717033" data-name="Trazado 717033" d="M385.076,202.009s.027-.044.036-.062a.669.669,0,0,0-.256-.918,5.561,5.561,0,0,0-7.712,1.667.672.672,0,0,0,.2.926.656.656,0,0,0,.935-.2,4.28,4.28,0,0,1,5.912-1.226.687.687,0,0,0,.883-.194Z" transform="translate(-192.471 -156.646)"/>
      <path id="Trazado_717034" data-name="Trazado 717034" d="M395.449,230.853a.65.65,0,0,0,.679-.618.657.657,0,0,0-.617-.688c-.009,0-1.253-.088-1.544-.767-.133-.318-.238-1.288,1.667-3.468a.646.646,0,0,0-.061-.918.657.657,0,0,0-.927.062c-1.782,2.038-2.409,3.626-1.888,4.835.618,1.447,2.6,1.562,2.682,1.562Z" transform="translate(-199.501 -167.543)"/>
      <path id="Trazado_717035" data-name="Trazado 717035" d="M406.592,159.577c-.838-5.859-5.391-11-10.429-13.571-5.339-2.726-11.727-2.93-17.462-1.5-7.218,1.791-15.256,5.9-20.074,11.621-2.753,3.256-4.933,8.974-6.036,15.494-1.262,7.412,8.515,10.977,12.6,4.668.141-.212.282-.424.423-.618,2.833-3.838,8.126-3.653,12.636-3.274,6.724.565,12.794.556,18.344-3.838a25.6,25.6,0,0,0,.776,7.226c1.606,7.862,13.245,11.842,9.221-16.192Z" transform="translate(-181.366 -131.095)"/>
      <path id="Trazado_717036" data-name="Trazado 717036" d="M463.947,377.731c-15.053,8.188-43.713,11.391-71.331,14.974,0,0-5.418,3.185-9.715,4.033a3.512,3.512,0,0,1-3.83-1.906c-1.279-2.576-3.247-7.068-3.406-10.429a3.193,3.193,0,0,1,2.973-3.336l7.615-.53-6.264-1.491a1.026,1.026,0,0,1-.459-1.773c1.818-1.544,7.535-2.206,13.844,3.4,13.43-1.615,32.463-8.656,52.272-16.447l-7.9-9.406L420.49,334.247l-.344-.406s-.036-.194-.1-.555c-.68-4.05-4.509-29,1.809-35.419L429,302a28.4,28.4,0,0,1,9.627,9.142l18.159,28.033,12.044,18.591A14.045,14.045,0,0,1,463.947,377.731Z" transform="translate(-191.85 -200.841)" fill="#efc3a6"/>
      <path id="Trazado_717037" data-name="Trazado 717037" d="M318.669,679.774l17.912-71.322h14.868l-1.9,71.322h30.663l11.427-103.079L298.4,574.118,284.627,679.774Z" transform="translate(-150.683 -325.765)" fill="#3d8dc0"/>
      <path id="Trazado_717038" data-name="Trazado 717038" d="M493.545,337.882l-1.571,1.3L472.95,354.823l-3.415,2.806a110.794,110.794,0,0,1-13.844-23.365,7.574,7.574,0,0,1-.609-2.047c-.971-6.221-3.918-28.35,1.976-34.333,15.027,1.985,36.486,40.007,36.486,40.007Z" transform="translate(-227.042 -200.849)" fill="#3d8dc0"/>
    </g>
  </g>
</svg>
