<svg xmlns="http://www.w3.org/2000/svg" width="461.574" height="328.376" viewBox="0 0 461.574 328.376">
  <g id="Grupo_1026677" data-name="Grupo 1026677" transform="translate(4570 10554.626)">
    <path id="Trazado_717039" data-name="Trazado 717039" d="M424.934,243.687c.015,14.175-5.352,32.608-15.054,47.865q-1.024,1.606-2.108,3.162c-.15.218-.3.434-.456.65q-.856,1.2-1.748,2.364-.562.741-1.145,1.463c-10.2,12.7-23.851,21.686-40.163,21.318l-308.525-4.2a136.872,136.872,0,0,1-19.057-20c-33.058-42.03-53.728-110.85-17.809-151.876,15.167-17.321,30.9-30.624,43.064-50.737C73.69,74.271,83.984,53.592,100.194,37.186a112.175,112.175,0,0,1,16.534-13.743c.266-.185.534-.365.8-.541,18.106-12.151,39.7-19.43,61.6-21.881,41.8-4.683,82.606,7.493,121.334,21.294q2.671.955,5.4,1.893c.265.091.53.18.8.274,28.477,9.824,60.05,19.486,74.648,47.728,12.878,24.919,9.818,54.894,18.162,81.3,9.419,29.8,25.426,58.238,25.466,90.179Z" transform="translate(-4570 -10554.626)" fill="#d4efff"/>
    <path id="Trazado_717040" data-name="Trazado 717040" d="M242.052,475.134c109.447,0,198.172-10.284,198.172-22.97s-88.725-22.97-198.172-22.97S43.879,439.477,43.879,452.163,132.6,475.134,242.052,475.134Z" transform="translate(-4585.004 -10701.384)" fill="#b4e2ff"/>
    <path id="Trazado_717041" data-name="Trazado 717041" d="M328.094,56.57h-4.545V319.356h4.545Z" transform="translate(-4680.634 -10573.97)" fill="#9ddaff"/>
    <path id="Trazado_717042" data-name="Trazado 717042" d="M411.033,56.57h-4.545V319.356h4.545Z" transform="translate(-4708.994 -10573.97)" fill="#9ddaff"/>
    <path id="Trazado_717043" data-name="Trazado 717043" d="M381.582,86.647H327V92.5h54.58Z" transform="translate(-4681.814 -10584.254)" fill="#9ddaff"/>
    <path id="Trazado_717044" data-name="Trazado 717044" d="M381.582,176.761H327v5.849h54.58Z" transform="translate(-4681.814 -10615.067)" fill="#9ddaff"/>
    <path id="Trazado_717045" data-name="Trazado 717045" d="M381.582,221.818H327v5.85h54.58Z" transform="translate(-4681.814 -10630.475)" fill="#9ddaff"/>
    <path id="Trazado_717046" data-name="Trazado 717046" d="M381.582,266.875H327v5.85h54.58Z" transform="translate(-4681.814 -10645.881)" fill="#9ddaff"/>
    <path id="Trazado_717047" data-name="Trazado 717047" d="M381.582,311.928H327v5.849h54.58Z" transform="translate(-4681.814 -10661.286)" fill="#9ddaff"/>
    <path id="Trazado_717048" data-name="Trazado 717048" d="M381.582,356.985H327v5.85h54.58Z" transform="translate(-4681.814 -10676.693)" fill="#9ddaff"/>
    <path id="Trazado_717049" data-name="Trazado 717049" d="M381.582,131.7H327v5.849h54.58Z" transform="translate(-4681.814 -10599.661)" fill="#9ddaff"/>
    <path id="Trazado_717050" data-name="Trazado 717050" d="M442.73,56.57h-4.545V319.356h4.545Z" transform="translate(-4719.833 -10573.97)" fill="#9ddaff"/>
    <path id="Trazado_717051" data-name="Trazado 717051" d="M525.669,56.57h-4.545V319.356h4.545Z" transform="translate(-4748.192 -10573.97)" fill="#9ddaff"/>
    <path id="Trazado_717052" data-name="Trazado 717052" d="M496.218,86.647h-54.58V92.5h54.58Z" transform="translate(-4721.013 -10584.254)" fill="#9ddaff"/>
    <path id="Trazado_717053" data-name="Trazado 717053" d="M496.218,176.761h-54.58v5.849h54.58Z" transform="translate(-4721.013 -10615.067)" fill="#9ddaff"/>
    <path id="Trazado_717054" data-name="Trazado 717054" d="M496.218,221.818h-54.58v5.85h54.58Z" transform="translate(-4721.013 -10630.475)" fill="#9ddaff"/>
    <path id="Trazado_717055" data-name="Trazado 717055" d="M496.218,266.875h-54.58v5.85h54.58Z" transform="translate(-4721.013 -10645.881)" fill="#9ddaff"/>
    <path id="Trazado_717056" data-name="Trazado 717056" d="M496.218,311.928h-54.58v5.849h54.58Z" transform="translate(-4721.013 -10661.286)" fill="#9ddaff"/>
    <path id="Trazado_717057" data-name="Trazado 717057" d="M496.218,356.985h-54.58v5.85h54.58Z" transform="translate(-4721.013 -10676.693)" fill="#9ddaff"/>
    <path id="Trazado_717058" data-name="Trazado 717058" d="M496.218,131.7h-54.58v5.849h54.58Z" transform="translate(-4721.013 -10599.661)" fill="#9ddaff"/>
    <path id="Trazado_717091" data-name="Trazado 717091" d="M227.667,87.111h33.505a8.754,8.754,0,0,1,8.75,8.753v3.614H218.915V95.864a8.755,8.755,0,0,1,8.75-8.753Z" transform="translate(-4644.855 -10584.412)" fill="#fff"/>
    <path id="Trazado_717092" data-name="Trazado 717092" d="M257.952,34.806V72.08h-1.158V35.347C257.179,35.162,257.567,34.982,257.952,34.806Z" transform="translate(-4657.808 -10566.527)" fill="#fff"/>
    <path id="Trazado_717098" data-name="Trazado 717098" d="M616.24,432.211s-1.129,11.149,1.146,12.414c4.12,2.289,11.721,4.474,11.085,6.442s-18.853,2.044-19.36.249.91-8.056-.156-18.931Z" transform="translate(-4778.226 -10702.416)" fill="#fb9391"/>
    <path id="Trazado_717099" data-name="Trazado 717099" d="M609.334,454.648a16.131,16.131,0,0,0-.182,4.006c.507,1.792,18.723,1.716,19.36-.249.472-1.459-3.55-3.1-7.37-4.741C620.241,455.18,618.316,457.545,609.334,454.648Z" transform="translate(-4778.267 -10709.751)" fill="#1c466d"/>
    <path id="Trazado_717100" data-name="Trazado 717100" d="M562.761,431.624s-3.009,10.795-.984,12.427c3.67,2.959,10.788,6.406,9.824,8.234s-18.926-1.2-19.117-3.05,2.751-6.914,2.439-17.809Z" transform="translate(-4758.913 -10702.147)" fill="#fb9391"/>
    <path id="Trazado_717101" data-name="Trazado 717101" d="M553.346,452.539a16.145,16.145,0,0,0-.861,3.915c.191,1.852,18.156,4.881,19.117,3.051.713-1.356-2.971-3.663-6.452-5.928-1.146,1.34-3.446,3.342-11.8-1.04Z" transform="translate(-4758.914 -10709.366)" fill="#1c466d"/>
    <path id="Trazado_717102" data-name="Trazado 717102" d="M626.381,233.62s3.826,5.126,7.016,5.126,14.029-13.558,14.029-13.558l2.551,4.106s-9.088,19.817-17.379,19.977-14.51-9.092-14.35-9.57,5.42-6.083,5.42-6.083h2.711Z" transform="translate(-4781.402 -10631.627)" fill="#fb9391"/>
    <path id="Trazado_717103" data-name="Trazado 717103" d="M596.016,282.031a44.829,44.829,0,0,1,7.18,13.014c2.233,7.018-5.317,90.169-5.317,90.169h-6.716s-6.787-74.05-6.787-74.709c0-2.585-21.486,74.709-21.486,74.709H556.02s4.363-90.5,16.758-103.183l11.6.717Z" transform="translate(-4760.125 -10651.063)" fill="#1c466d"/>
    <path id="Trazado_717104" data-name="Trazado 717104" d="M568.213,229.41c-5.753,4.531-3.746,37.484,0,53.885h4.071s.325-44.2,1.787-47.123l-5.859-6.764Z" transform="translate(-4763.063 -10633.069)" fill="#fb9391"/>
    <path id="Trazado_717105" data-name="Trazado 717105" d="M603.62,236.92a6.993,6.993,0,0,1-3.917,7.871l-.185,2.476-.767,10.207v3.111s-5.9,5.742-23.238,0l-.042-3.111s-.672-5.823-1.316-10.207c-.483-3.271-.948-5.738-1.106-4.4-.247,2.077-9.033-6.373-9.033-6.373s.8-11.556,5.607-14.115a27.177,27.177,0,0,1,14.772-2.968l8.459.544s6.145-.228,9.264,1.925c2.23,1.541,7.154,10.228,7.154,10.228l-5.653,4.807Z" transform="translate(-4762.859 -10629.617)" fill="#fff"/>
    <path id="Trazado_717106" data-name="Trazado 717106" d="M611.938,190.217s.677-1.327,1.378-.9c1.792,1.091.2,2.995-.85,3.484l-.528-2.587Z" transform="translate(-4779.246 -10619.332)" fill="#fb9391"/>
    <path id="Trazado_717107" data-name="Trazado 717107" d="M589.283,169.694a10.125,10.125,0,0,0-6.893,15.1,43.54,43.54,0,0,0,4.914,7.924,10.065,10.065,0,0,1,2.56,6.918l-.073,2.576c6.183,2.258,8.6.7,8.6.7l-.859-7.518c6.241-1.478,4.064-13.061,3.668-16.513h-.011c-.009-.127-.018-.256-.033-.388a10.122,10.122,0,0,0-11.873-8.809Z" transform="translate(-4768.661 -10612.595)" fill="#fb9391"/>
    <path id="Trazado_717108" data-name="Trazado 717108" d="M588.748,179.691a42.169,42.169,0,0,0-4.223,7.1c-.115.278-.923,2.374-.6,2.568a13.076,13.076,0,0,1-4.12-4.536,10.547,10.547,0,0,1,7.443-15.811c3.619-.715,7.743.055,10.326,2.85,2.422,2.623,2.86,6.054,3.043,9.267-.249-4.356-5.636-5.7-8.859-6.7.094.029-1.908,3.554-2.014,3.727-.32.517-.655,1.027-.995,1.537Z" transform="translate(-4767.756 -10612.33)"/>
    <path id="Trazado_717109" data-name="Trazado 717109" d="M586.275,196.078a1.49,1.49,0,0,0-.863-.619,2.534,2.534,0,0,0-2.731.573c-1.093,1.376,1.765,4.366,4.033,2.459C586.714,198.49,587.335,197.708,586.275,196.078Z" transform="translate(-4769.159 -10621.408)" fill="#fb9391"/>
    <path id="Trazado_717110" data-name="Trazado 717110" d="M608.508,190.714a.883.883,0,1,0-.866.9.881.881,0,0,0,.866-.9Z" transform="translate(-4777.469 -10619.542)"/>
    <path id="Trazado_717111" data-name="Trazado 717111" d="M596.083,193.563a.884.884,0,1,0-.868.9.881.881,0,0,0,.868-.9Z" transform="translate(-4773.22 -10620.516)"/>
    <path id="Trazado_717112" data-name="Trazado 717112" d="M605.589,200.2s-1.162-.839-1.61-.7a1.313,1.313,0,0,0-.677.692,1.023,1.023,0,0,0-.835-.525c-.549.009-1.685,1.527-1.685,1.527s1.638,2.367,3.29,2.008c1.683-.365,1.5-2.879,1.5-2.879l.016-.122Z" transform="translate(-4775.431 -10622.839)" fill="#f0744d"/>
    <path id="Trazado_717113" data-name="Trazado 717113" d="M592.592,191.522a.362.362,0,0,1-.3-.1.37.37,0,0,1-.02-.519,4.4,4.4,0,0,1,2.68-1.225.369.369,0,0,1,.4.336.376.376,0,0,1-.336.4,3.641,3.641,0,0,0-2.2.995.368.368,0,0,1-.222.114Z" transform="translate(-4772.489 -10619.485)"/>
    <path id="Trazado_717114" data-name="Trazado 717114" d="M605.441,187.86a.362.362,0,0,1-.265-.163.37.37,0,0,1,.1-.51,4.358,4.358,0,0,1,2.891-.557.367.367,0,0,1-.111.726,3.651,3.651,0,0,0-2.375.446.364.364,0,0,1-.243.058Z" transform="translate(-4776.913 -10618.425)"/>
    <path id="Trazado_717115" data-name="Trazado 717115" d="M603.131,195.931a1.574,1.574,0,0,0,1.255-1.548.319.319,0,0,0-.093-.209,4.572,4.572,0,0,1-1.155-2.718.31.31,0,0,0-.619.029,5.187,5.187,0,0,0,1.242,3.032c-.034.249-.22.819-1.211.884a.31.31,0,0,0,.038.619,2.715,2.715,0,0,0,.544-.087Z" transform="translate(-4775.936 -10619.991)" fill="#ff7976"/>
    <path id="Trazado_717116" data-name="Trazado 717116" d="M605.589,200.575l-4.806,1a5.756,5.756,0,0,0,3.1.984C605.19,202.359,605.589,200.575,605.589,200.575Z" transform="translate(-4775.431 -10623.21)" fill="#fafafc"/>
    <path id="Trazado_717117" data-name="Trazado 717117" d="M622.68,243.391a.167.167,0,0,1-.165-.147,9.529,9.529,0,0,0-2.707-5.206.168.168,0,0,1-.007-.236.166.166,0,0,1,.234-.007,9.674,9.674,0,0,1,2.809,5.409.165.165,0,0,1-.144.185h-.02Z" transform="translate(-4781.919 -10635.922)" fill="#7c9af2"/>
    <path id="Trazado_717118" data-name="Trazado 717118" d="M661.162,223.4s3.637-5.46,4.389-5.95,4.271-.873,4.271-.873l1.972,4.789-7.5,5.2Z" transform="translate(-4796.077 -10628.682)" fill="#fb9391"/>
    <path id="Trazado_717119" data-name="Trazado 717119" d="M664.561,218.713a36.852,36.852,0,0,1,3.177-4.852c1.024-1.027,2.288-2.645,2.551-2.3.7.917-2.1,3.71-2.742,5.8s-2.985,1.356-2.985,1.356Z" transform="translate(-4797.239 -10626.951)" fill="#fb9391"/>
    <path id="Trazado_717120" data-name="Trazado 717120" d="M674.451,220.873s-3.356,1.846-3.768,1.233,3.544-3,3.544-3-4.285,2.489-4.63,1.982,3.619-3.342,3.619-3.342-3.853,2.725-4.169,2.307,3.559-3.852,3.559-3.852-2.936,3.006-3.7,2.586,3.029-3.992,3.842-4.271.852,1.078.852,1.078.673.423.6.984c0,0,1.079,1.058.773,1.7S676.009,219.548,674.451,220.873Z" transform="translate(-4798.689 -10627.964)" fill="#ef7d7d"/>
    <path id="Trazado_717121" data-name="Trazado 717121" d="M675.229,214.629a8.616,8.616,0,1,1,8.617,8.619A8.617,8.617,0,0,1,675.229,214.629Z" transform="translate(-4800.887 -10625.068)" fill="#265e91"/>
    <path id="Trazado_717122" data-name="Trazado 717122" d="M671.928,214.629a8.616,8.616,0,1,1,8.616,8.619A8.617,8.617,0,0,1,671.928,214.629Z" transform="translate(-4799.758 -10625.068)" fill="#4db1f0"/>
    <path id="Trazado_717123" data-name="Trazado 717123" d="M661.873,214.58h15.053a2.98,2.98,0,0,1,.027,5.961H661.876a1.466,1.466,0,0,1-1.465-1.465v-3.028a1.466,1.466,0,0,1,1.465-1.465Z" transform="translate(-4795.82 -10627.999)" fill="#265e91"/>
    <path id="Trazado_717124" data-name="Trazado 717124" d="M654.354,223.249a8.619,8.619,0,1,0-8.616-8.619A8.618,8.618,0,0,0,654.354,223.249Z" transform="translate(-4790.803 -10625.068)" fill="#265e91"/>
    <path id="Trazado_717125" data-name="Trazado 717125" d="M643.053,214.629a8.616,8.616,0,1,1,8.616,8.619A8.617,8.617,0,0,1,643.053,214.629Z" transform="translate(-4789.885 -10625.068)" fill="#4db1f0"/>
    <path id="Trazado_717126" data-name="Trazado 717126" d="M579.176,316.545a8.616,8.616,0,1,1,8.616,8.619A8.618,8.618,0,0,1,579.176,316.545Z" transform="translate(-4768.043 -10659.918)" fill="#265e91"/>
    <path id="Trazado_717127" data-name="Trazado 717127" d="M575.872,316.545a8.616,8.616,0,1,1,8.616,8.619A8.617,8.617,0,0,1,575.872,316.545Z" transform="translate(-4766.913 -10659.918)" fill="#4db1f0"/>
    <path id="Trazado_717128" data-name="Trazado 717128" d="M580.9,322.455H565.819a1.465,1.465,0,0,1-1.464-1.465v-3.028a1.465,1.465,0,0,1,1.464-1.465h15.053a2.98,2.98,0,0,1,.024,5.961Z" transform="translate(-4762.975 -10662.849)" fill="#265e91"/>
    <path id="Trazado_717129" data-name="Trazado 717129" d="M549.682,316.545a8.616,8.616,0,1,1,8.616,8.619A8.617,8.617,0,0,1,549.682,316.545Z" transform="translate(-4757.958 -10659.918)" fill="#265e91"/>
    <path id="Trazado_717130" data-name="Trazado 717130" d="M569.715,304.386s-2.333,6.578-1.573,7.736,3.448,4.256,3.757,4.848,1.2,4,1.689,4.426.136-3.965.136-3.965.83,3.7,1.531,3.752.153-4,.153-4,.723,3.781,1.351,3.625-.024-3.838-.024-3.838.6,2.928,1.1,2.792.253-5.137-1.182-6.511c-3.392-3.242-3.319-5.515-3.319-5.515Z" transform="translate(-4764.218 -10658.707)" fill="#fb9391"/>
    <path id="Trazado_717131" data-name="Trazado 717131" d="M547,316.545a8.616,8.616,0,1,1,8.616,8.619A8.617,8.617,0,0,1,547,316.545Z" transform="translate(-4757.041 -10659.918)" fill="#4db1f0"/>
    <path id="Trazado_717132" data-name="Trazado 717132" d="M604.783,261.8,604.015,272v3.111s-5.9,5.742-23.237,0L580.735,272s-.673-5.823-1.315-10.207c0,0,10.857,3.135,25.361,0Z" transform="translate(-4768.126 -10644.145)" fill="#fb9391"/>
    <path id="Trazado_717133" data-name="Trazado 717133" d="M575.289,172.289s-5.422-5.587-11.421-2.418-2.1,12.806-6.241,16.455-7.307,4.115-4.872,8.4.547,5.066,1.858,7.346,9.042,2.158,9.255-1.011,2.814-3.65,5.859-6.945-4.933-8.557-2.435-9.7c2.012-.922.605-3.859.447-7.664-.2-4.894,6.49-3.228,6.49-3.228Z" transform="translate(-4758.718 -10612.379)"/>
    <path id="Trazado_717134" data-name="Trazado 717134" d="M266.275,464.453H443.69l-35.484-24.31H305.015Z" transform="translate(-4661.05 -10705.128)" fill="#265e91"/>
    <path id="Trazado_717135" data-name="Trazado 717135" d="M391.322,329.762s-11.087-5.206-6.766-18.466c0,0,8.785-8.315,15.917-3.625s5.213,12.164,4.964,13.14-14.114,8.954-14.114,8.954Z" transform="translate(-4701.153 -10659.341)"/>
    <path id="Trazado_717136" data-name="Trazado 717136" d="M397.075,308.788a9.527,9.527,0,0,0-8.692,12.986,41.19,41.19,0,0,0,3.363,8.109,9.482,9.482,0,0,1,1.329,6.816l-.459,2.382c5.4,3.035,7.957.383,7.957.383l.265-5.538c6.021-.425,5.753-11.516,5.911-14.785h-.009q.017-.18.026-.367a9.527,9.527,0,0,0-9.7-9.984Z" transform="translate(-4702.581 -10660.213)" fill="#fb9391"/>
    <path id="Trazado_717137" data-name="Trazado 717137" d="M412.536,330.562a.831.831,0,1,0-.942.7A.83.83,0,0,0,412.536,330.562Z" transform="translate(-4710.497 -10667.333)"/>
    <path id="Trazado_717138" data-name="Trazado 717138" d="M400.563,331.327a.831.831,0,1,0-.942.7A.83.83,0,0,0,400.563,331.327Z" transform="translate(-4706.402 -10667.595)"/>
    <path id="Trazado_717139" data-name="Trazado 717139" d="M397.715,327.223a.345.345,0,0,1-.24-.6,4.142,4.142,0,0,1,2.618-.913.344.344,0,0,1,.343.349.353.353,0,0,1-.349.343,3.463,3.463,0,0,0-2.153.737A.34.34,0,0,1,397.715,327.223Z" transform="translate(-4705.873 -10665.998)"/>
    <path id="Trazado_717140" data-name="Trazado 717140" d="M409.942,325.4a.346.346,0,0,1,.122-.639,4.1,4.1,0,0,1,2.7.641.346.346,0,0,1-.378.579,3.435,3.435,0,0,0-2.21-.536A.345.345,0,0,1,409.942,325.4Z" transform="translate(-4710.117 -10665.664)"/>
    <path id="Trazado_717141" data-name="Trazado 717141" d="M406.461,334.574a1.478,1.478,0,0,0,1.4-1.247.3.3,0,0,0-.056-.209,4.29,4.29,0,0,1-.661-2.7.291.291,0,1,0-.579-.067,4.884,4.884,0,0,0,.694,3.006c-.068.228-.329.728-1.259.637a.291.291,0,0,0-.058.579,2.5,2.5,0,0,0,.517,0Z" transform="translate(-4708.718 -10667.497)" fill="#ff7976"/>
    <path id="Trazado_717142" data-name="Trazado 717142" d="M388.72,324.64c.932,1.67,4.22-10.3,10-10.555s7.45,8.215,7.45,8.215,1.538-4.71-.425-8.564-7.366-7.778-13.188-5.1S384.267,316.669,388.72,324.64Z" transform="translate(-4702.137 -10659.859)"/>
    <path id="Trazado_717143" data-name="Trazado 717143" d="M387.661,307.741a4.381,4.381,0,1,0-4.158,4.6A4.381,4.381,0,0,0,387.661,307.741Z" transform="translate(-4699.562 -10658.431)"/>
    <path id="Trazado_717144" data-name="Trazado 717144" d="M391.019,332.241a1.409,1.409,0,0,0-.708-.705,2.39,2.39,0,0,0-2.624.116c-1.224,1.113.977,4.324,3.375,2.9C391.061,334.548,391.758,333.916,391.019,332.241Z" transform="translate(-4702.446 -10667.874)" fill="#fb9391"/>
    <path id="Trazado_717145" data-name="Trazado 717145" d="M408.248,338.175s-1.156-.655-1.578-.515a1.257,1.257,0,0,0-.634.671.971.971,0,0,0-.8-.488,9.324,9.324,0,0,0-2.217,1.086s1.749,2.142,3.316,1.779c1.6-.372,1.917-2.532,1.917-2.532Z" transform="translate(-4707.807 -10670.078)" fill="#ff6231"/>
    <path id="Trazado_717146" data-name="Trazado 717146" d="M403.018,339.206a49.813,49.813,0,0,0,5.233-.753s-.868,1.672-2.092,1.739a7.921,7.921,0,0,1-3.141-.984Z" transform="translate(-4707.808 -10670.356)" fill="#fff"/>
    <path id="Trazado_717147" data-name="Trazado 717147" d="M417.294,421.605s-15.835-.293-21.408,0-43.17-1.2-44.871-.932S356,427.179,356,427.179l23.02,8.946,8.943,1.027L417.291,421.6Z" transform="translate(-4689.932 -10698.459)" fill="#1c466d"/>
    <path id="Trazado_717148" data-name="Trazado 717148" d="M345.02,421.982c-4.579,4.685,1.444,9.312,8.665,12.523,6.063,2.7,31.593,9.472,35.935,11.4s16.538,10.274,17.822,9.152-4.011-5.457-4.654-6.9-2.245-6.9-4.011-7.063-5.008.8-7.238-.32-39.459-26.008-46.522-18.782Z" transform="translate(-4687.431 -10698.471)" fill="#f78484"/>
    <path id="Trazado_717149" data-name="Trazado 717149" d="M424.711,421.982c4.579,4.685-1.444,9.312-8.665,12.523-6.063,2.7-31.6,9.472-35.936,11.4s-16.538,10.274-17.822,9.152,4.011-5.457,4.654-6.9,2.246-6.9,4.011-7.063,5.008.8,7.238-.32,39.459-26.008,46.522-18.782Z" transform="translate(-4693.812 -10698.471)" fill="#fb9391"/>
    <path id="Trazado_717150" data-name="Trazado 717150" d="M383.565,353.393s13.618,5.614,15.232,8.693,6.724,17.268,7.782,19.065c1.467,2.494,15.678,12.325,15.678,12.325l-2.092,3.227s-17.558-4.547-21.809-10.561a44.21,44.21,0,0,1-6.012-13.5l-7.688,3.52-16.744-1.12-1.959-1.668s-4.692,10.12-7.623,13.055-18.474,9.388-18.474,9.388l-2.053-3.962s13.493-8.946,15.249-13.2,6.744-16.135,10.116-18.776,12.38-5.557,12.38-5.557l8.02-.935Z" transform="translate(-4685.508 -10675.464)" fill="#fb9391"/>
    <path id="Trazado_717151" data-name="Trazado 717151" d="M381.1,358.2l-.7,10.565s-2.477,3.432-2.477,6.958,1.589,4.776,1.589,4.776-1.148,15.028-5.18,18.736c0,0,22.725,10.011,33.943.514,0,0-5.5-11.915-5.13-19.1a17.928,17.928,0,0,0,1.687-6.747,7.828,7.828,0,0,0-2.2-5.353l.467-10.69-1.687-.819s-1.271,12.757-8.9,12.757-9.7-12.307-9.7-12.307Z" transform="translate(-4697.999 -10676.709)" fill="#fff"/>
    <path id="Trazado_717152" data-name="Trazado 717152" d="M463.26,412.471s5.525,3.3,5.647,4.54-.125,4.358,0,4.95,3.251-1.131,3.25.354c0,.59-4.151,1.6-4.151,1.6s2.693,2.425,2.228,2.857-3.555-2.076-3.555-2.076,2.6,3.082,2.07,3.329-3.123-2.726-3.123-2.726,1.24,2.4.817,2.587-3.1-3.467-2.867-5.246c.543-4.208-.8-5.763-.8-5.763l.494-4.406Z" transform="translate(-4728.238 -10695.666)" fill="#fb9391"/>
    <path id="Trazado_717153" data-name="Trazado 717153" d="M469.232,416.247s2.867,2.1,3.343,3.159,1.707,3.1,1.244,3.294-2.364-2.554-2.749-2.541-.969-1.345-.969-1.345Z" transform="translate(-4730.449 -10696.957)" fill="#fb9391"/>
    <path id="Trazado_717154" data-name="Trazado 717154" d="M334.036,411.395s-5.524,3.3-5.649,4.54.125,4.358,0,4.95-3.251-1.131-3.249.354c0,.59,4.151,1.6,4.151,1.6s-2.693,2.425-2.228,2.857,3.555-2.076,3.555-2.076-2.6,3.082-2.07,3.329,3.123-2.726,3.123-2.726-1.24,2.4-.817,2.587,3.1-3.467,2.866-5.246c-.543-4.208,1.794-5.9,1.794-5.9l-1.487-4.264Z" transform="translate(-4681.179 -10695.298)" fill="#fb9391"/>
    <path id="Trazado_717155" data-name="Trazado 717155" d="M330.505,415.171s-2.867,2.1-3.344,3.159-1.707,3.1-1.244,3.294,2.364-2.554,2.749-2.541.968-1.345.968-1.345Z" transform="translate(-4681.409 -10696.589)" fill="#fb9391"/>
    <path id="Trazado_717156" data-name="Trazado 717156" d="M26.665,308.029a6.869,6.869,0,0,1-1.976-.274c-2.346-.7-3.938-2.715-4.732-5.99-2.239-9.256-.334-33.779,11.3-47.642,6.482-7.724,14.984-11.354,25.377-10.648,17.419,1.086,37.995-6.246,57.876-13.362,18.926-6.776,36.8-13.182,48.369-10.286,23.182,5.783,26.659,31,26.692,31.256l-1.283.165c-.031-.247-3.41-24.6-25.724-30.167-11.182-2.786-28.882,3.543-47.621,10.249-20,7.164-40.695,14.569-58.394,13.432-9.925-.613-18.1,2.8-24.3,10.191-11.361,13.536-13.221,37.473-11.036,46.508.686,2.834,1.943,4.489,3.842,5.052,7.532,2.251,23.887-13.144,32.673-21.409,15.512-14.6,26.3-9.85,26.748-9.637l-.541,1.175c-.1-.053-10.493-4.545-25.319,9.4C47.2,296.789,34.549,308.031,26.663,308.031Z" transform="translate(-4576.543 -10629.55)" fill="#265e91"/>
    <path id="Trazado_717157" data-name="Trazado 717157" d="M156.41,254.459s-3.7,12.624-6.651,18.3-13.976,16.215-13.976,16.215l-2.395-5.371s12.841-15.468,14.129-29.153l8.892.011Z" transform="translate(-4615.61 -10641.633)" fill="#fb9391"/>
    <path id="Trazado_717158" data-name="Trazado 717158" d="M129.979,298.13a46.645,46.645,0,0,0-6.012,1.854c-1.531.757-3.575.35-3.463,1.334s3.394.813,3.394.813-2.072,2.786-2.842,3.548-1.794,2.467-1.282,3.07,3.942-3.3,3.942-3.3-2.566,3.574-2.212,4.233,4.287-3.409,4.287-3.409-2.924,3.679-2.9,4.168.648.479,2-.572a16.345,16.345,0,0,0,2.462-2.474,36.484,36.484,0,0,0-1.97,3.146c-.109.405.038,1.044,1.876-.723s5.184-6.237,5.95-9.154Z" transform="translate(-4610.908 -10656.568)" fill="#fb9391"/>
    <path id="Trazado_717159" data-name="Trazado 717159" d="M209.95,240.237s8.451,10.078,13.428,14.1,19.3,9.245,19.3,9.245l.04-5.88s-17.964-9.021-24.631-21.038l-8.142,3.578Z" transform="translate(-4641.79 -10635.549)" fill="#fb9391"/>
    <path id="Trazado_717160" data-name="Trazado 717160" d="M256.7,268.2a46.687,46.687,0,0,1,6.25-.715c1.707.078,3.417-1.113,3.706-.167s-2.782,2.106-2.782,2.106,3.016,1.721,4.024,2.108,2.633,1.541,2.4,2.3-4.935-1.441-4.935-1.441,3.784,2.245,3.724,2.99-5.293-1.4-5.293-1.4,4.153,2.2,4.329,2.654-.4.7-2.061.278a16.279,16.279,0,0,1-3.245-1.278,36.255,36.255,0,0,1,3.065,2.093c.263.328.383.973-2.008.09s-7.249-3.635-9.119-6Z" transform="translate(-4657.112 -10645.907)" fill="#fb9391"/>
    <path id="Trazado_717161" data-name="Trazado 717161" d="M143.024,395.238s-13.676,3.182-14.858,4.95c-.679,1.011,1.093,17.766,3.386,17.749s2.57-13.126,6.406-14.93a133.106,133.106,0,0,0,11.461-6.858Z" transform="translate(-4613.775 -10689.773)" fill="#fb9391"/>
    <path id="Trazado_717162" data-name="Trazado 717162" d="M133.194,399.278c-2.439,9.3-.385,11.781,1.177,12.409-.939,3.8-1.591,7.615-2.826,7.622-2.293.018-4.064-16.735-3.388-17.747.434-.648,2.539-1.483,5.035-2.284Z" transform="translate(-4613.772 -10691.154)" fill="#1c466d"/>
    <path id="Trazado_717163" data-name="Trazado 717163" d="M209.146,421.129s.686,8.114.868,9.608-.765,6.165.447,6.775,14.348,6.9,15.457,4.794-9.965-10.169-10.137-12.2-.585-10.4-.585-10.4l-6.048,1.421Z" transform="translate(-4641.515 -10698.141)" fill="#fb9391"/>
    <path id="Trazado_717164" data-name="Trazado 717164" d="M221.611,442.1c2.678,2.554,5.219,5.134,4.66,6.2-1.108,2.111-14.243-4.179-15.456-4.794-1.1-.552-.42-4.451-.423-6.286,5.416,6.2,9.506,5.538,11.219,4.881Z" transform="translate(-4641.871 -10704.126)" fill="#1c466d"/>
    <path id="Trazado_717165" data-name="Trazado 717165" d="M166.632,280.091s-6.079,11.987-7.216,22.681.138,27.273-.57,30.688-18.332,23.175-18.332,23.175l1.716,6.012s30.058-12.895,33.045-25.185,3.933-33.422,3.933-33.422,2.282,29.572,3.541,37.74,3.341,35.406,3.341,35.406h5.959a218.286,218.286,0,0,0,4.124-46.887c-.683-24.929-6.789-53.092-6.789-53.092l-22.754,2.886Z" transform="translate(-4618.047 -10649.413)" fill="#1c466d"/>
    <path id="Trazado_717166" data-name="Trazado 717166" d="M173.745,216.647c-5.689.5-14.427,3.469-19.075,12.171a79.433,79.433,0,0,0-6.579,16.627l12.464,3.825,1.024-4.921s3.933,15.259,7.163,16.368,5.224-1.32,7.114-1.625,8.1,1.292,13.1-.441,5.015-5.54,5.426-10.006,1.058-8.519,1.058-8.519,1.2-20.127-5.231-21.712-16.462-1.768-16.462-1.768Z" transform="translate(-4620.638 -10628.705)" fill="#4db1f0"/>
    <path id="Trazado_717167" data-name="Trazado 717167" d="M210.75,193.479s.894-1.1,1.46-.554c1.442,1.376-.416,2.818-1.493,3.061Z" transform="translate(-4642.052 -10620.543)" fill="#fb9391"/>
    <path id="Trazado_717168" data-name="Trazado 717168" d="M192.818,170.684a9.612,9.612,0,0,0-9.453,12.619,41.488,41.488,0,0,0,2.956,8.347,9.563,9.563,0,0,1,.975,6.936l-.588,2.376c5.282,3.347,8,.813,8,.813l.563-5.567c6.09-.109,6.413-11.3,6.746-14.58h-.009c.018-.122.033-.243.047-.37a9.611,9.611,0,0,0-9.235-10.576Z" transform="translate(-4632.534 -10612.987)" fill="#fb9391"/>
    <path id="Trazado_717169" data-name="Trazado 717169" d="M190.231,180.053a41.022,41.022,0,0,0-3.595,3.525,10.38,10.38,0,0,0-2.9,4.4,12.424,12.424,0,0,1-2.9-5.043,9.08,9.08,0,0,1-.625-2.643,10.006,10.006,0,0,1,.823-3.743,10.47,10.47,0,0,1,2.38-4.318,8.008,8.008,0,0,1,2.867-1.586,13.543,13.543,0,0,1,7.572-.5,9.757,9.757,0,0,1,6.094,4.355c1.673,2.85,1.533,6.371,1.346,9.67a9.727,9.727,0,0,0-1.743-3.814,8.221,8.221,0,0,0-1.734-2.12,40.173,40.173,0,0,1-3.771-2.618c-.808,1.964-2.2,3.086-3.813,4.429Z" transform="translate(-4631.619 -10612.693)"/>
    <path id="Trazado_717170" data-name="Trazado 717170" d="M185.7,193.779a1.424,1.424,0,0,0-.677-.753,2.409,2.409,0,0,0-2.651-.024c-1.293,1.057.755,4.411,3.246,3.1,0,0,.734-.6.08-2.325Z" transform="translate(-4632.224 -10620.484)" fill="#fb9391"/>
    <path id="Trazado_717171" data-name="Trazado 717171" d="M207.483,193.216a.84.84,0,1,0-.988.657A.839.839,0,0,0,207.483,193.216Z" transform="translate(-4640.378 -10620.351)"/>
    <path id="Trazado_717172" data-name="Trazado 717172" d="M195.38,193.344a.839.839,0,1,0-.988.657A.84.84,0,0,0,195.38,193.344Z" transform="translate(-4636.24 -10620.395)"/>
    <path id="Trazado_717173" data-name="Trazado 717173" d="M202.28,202.387s-.688-.554-1.119-.454a1.253,1.253,0,0,0-.692.605.973.973,0,0,0-.752-.561,11.89,11.89,0,0,0-2,.3s1.249,2.278,2.822,1.962a2.1,2.1,0,0,0,1.716-1.779l.027-.074Z" transform="translate(-4637.607 -10623.671)" fill="#ff3d31"/>
    <path id="Trazado_717174" data-name="Trazado 717174" d="M200.532,203.216a4.972,4.972,0,0,1-3.5-1.118.12.12,0,0,1-.013-.167.122.122,0,0,1,.167-.015c.109.093,2.722,2.269,4.841.285a.117.117,0,0,1,.167,0,.119.119,0,0,1,0,.167,3.14,3.14,0,0,1-1.656.846Z" transform="translate(-4637.359 -10623.66)" fill="#240d39"/>
    <path id="Trazado_717175" data-name="Trazado 717175" d="M192.1,191.032a.345.345,0,0,1-.245-.165.349.349,0,0,1,.12-.479,4.2,4.2,0,0,1,2.767-.414.35.35,0,0,1,.274.412.356.356,0,0,1-.41.274,3.5,3.5,0,0,0-2.272.33.338.338,0,0,1-.234.044Z" transform="translate(-4635.586 -10619.56)"/>
    <path id="Trazado_717176" data-name="Trazado 717176" d="M205.26,190.293a.352.352,0,0,1-.009-.659,4.153,4.153,0,0,1,2.8.091.347.347,0,0,1,.2.452.351.351,0,0,1-.451.2,3.446,3.446,0,0,0-2.293-.085.347.347,0,0,1-.236,0Z" transform="translate(-4640.106 -10619.401)"/>
    <path id="Trazado_717177" data-name="Trazado 717177" d="M201.06,196.943a1.49,1.49,0,0,0,1.478-1.182.285.285,0,0,0-.045-.212,4.321,4.321,0,0,1-.52-2.759.294.294,0,1,0-.579-.1,4.934,4.934,0,0,0,.539,3.064c-.08.227-.369.717-1.3.574a.294.294,0,0,0-.087.581,2.534,2.534,0,0,0,.519.029Z" transform="translate(-4638.488 -10620.432)" fill="#ff7e7b"/>
    <path id="Trazado_717178" data-name="Trazado 717178" d="M182.616,257.1a13.158,13.158,0,0,0,6.537-2.425.074.074,0,0,0-.089-.118c-.056.045-5.594,4.235-10.711,1.45a.074.074,0,1,0-.072.129,8.076,8.076,0,0,0,4.331.962Z" transform="translate(-4630.949 -10641.664)" fill="#272035"/>
    <path id="Trazado_717179" data-name="Trazado 717179" d="M214.984,221.155A68.387,68.387,0,0,1,225.8,236.77l-9.054,8.925-1.758-24.54Z" transform="translate(-4643.511 -10630.247)" fill="#4db1f0"/>
    <path id="Trazado_717180" data-name="Trazado 717180" d="M171.112,167.994s-1.053-5.9-6.424-6.11-6.528-6.847-12.845-6.635-5.16,2.843-7.9,3.687-6.421,9.058-1.473,10.323,10-2.948,13.477,0,7.476,1.158,9.371-.421,4.739.528,4.739.528L171.112,168Z" transform="translate(-4617.884 -10607.71)"/>
    <path id="Trazado_717181" data-name="Trazado 717181" d="M132.712,309.367a2.377,2.377,0,0,1-2.967,1.558l-10.228-3.184a2.37,2.37,0,0,1,1.407-4.527l10.228,3.184a2.377,2.377,0,0,1,1.558,2.966Z" transform="translate(-4610.298 -10658.271)" fill="#265e91"/>
    <path id="Trazado_717182" data-name="Trazado 717182" d="M261.434,279.247a2.377,2.377,0,0,1-.251-3.342l6.982-8.127a2.369,2.369,0,1,1,3.592,3.09L264.775,279A2.375,2.375,0,0,1,261.434,279.247Z" transform="translate(-4659.113 -10645.908)" fill="#265e91"/>
    <path id="Trazado_717183" data-name="Trazado 717183" d="M269.579,418.752a8.616,8.616,0,1,1,8.617,8.619A8.618,8.618,0,0,1,269.579,418.752Z" transform="translate(-4662.18 -10694.866)" fill="#265e91"/>
    <path id="Trazado_717184" data-name="Trazado 717184" d="M266.275,418.752a8.616,8.616,0,1,1,8.616,8.619A8.618,8.618,0,0,1,266.275,418.752Z" transform="translate(-4661.05 -10694.866)" fill="#4db1f0"/>
    <path id="Trazado_717185" data-name="Trazado 717185" d="M256.219,418.7h15.053a2.98,2.98,0,0,1,.024,5.961H256.219a1.466,1.466,0,0,1-1.465-1.465v-3.028a1.466,1.466,0,0,1,1.465-1.465Z" transform="translate(-4657.11 -10697.796)" fill="#265e91"/>
    <path id="Trazado_717186" data-name="Trazado 717186" d="M240.085,418.752a8.616,8.616,0,1,1,8.616,8.619A8.618,8.618,0,0,1,240.085,418.752Z" transform="translate(-4652.094 -10694.866)" fill="#265e91"/>
    <path id="Trazado_717187" data-name="Trazado 717187" d="M237.4,418.752a8.616,8.616,0,1,1,8.617,8.619A8.618,8.618,0,0,1,237.4,418.752Z" transform="translate(-4651.176 -10694.866)" fill="#4db1f0"/>
  </g>
</svg>
