<svg xmlns="http://www.w3.org/2000/svg" width="404.431" height="422.745" viewBox="0 0 404.431 422.745">
  <g id="Group_6" data-name="Group 6" transform="translate(-0.103)">
    <path id="Trazado_717490" data-name="Trazado 717490" d="M45.067,240.091s.015-1.137.046-3.34c.011-.551,0-1.169.035-1.851s.056-1.43.087-2.244.052-1.689.116-2.627.124-1.941.193-3c.312-4.252.8-9.493,1.761-15.6a185.877,185.877,0,0,1,4.49-20.76c.132-.48.259-.964.4-1.449l.435-1.459q.441-1.468.894-2.972c.657-1.99,1.289-4.043,2.045-6.109.711-2.08,1.531-4.176,2.348-6.325.869-2.13,1.734-4.314,2.72-6.5A183.134,183.134,0,0,1,75.445,138.6a186.243,186.243,0,0,1,52.093-52.475,188.878,188.878,0,0,1,17.968-10.591,183.373,183.373,0,0,1,19.8-8.771A180.243,180.243,0,0,1,186.714,60.2c1.839-.468,3.705-.848,5.572-1.257.931-.213,1.876-.374,2.817-.559s1.885-.365,2.832-.532l2.855-.471,1.431-.236,1.44-.2q1.44-.2,2.886-.4c.964-.124,1.934-.223,2.9-.337,1.937-.24,3.89-.391,5.847-.565.978-.1,1.962-.139,2.946-.206s1.968-.13,2.958-.176l2.976-.11,1.491-.054,1.486-.017,2.976-.035c1.019,0,2,.023,3.009.033,2,.005,4.009.109,6.022.184,1.007.027,2.013.117,3.021.175s2.019.115,3.028.209c2.019.188,4.046.338,6.068.595,1.012.121,2.027.225,3.04.36l3.038.427c1.017.134,2.028.305,3.041.476s2.028.33,3.042.514c2.02.4,4.057.751,6.075,1.218,4.054.849,8.082,1.908,12.1,3.044,2,.6,4.018,1.181,6.008,1.852,2,.63,3.982,1.353,5.973,2.052.994.356,1.976.748,2.965,1.119l1.482.565c.494.191.982.4,1.472.6l2.945,1.208,2.921,1.281a184.831,184.831,0,0,1-.175,337.872l-2.917,1.271-2.94,1.2c-.49.2-.977.4-1.469.594l-1.48.56c-.988.37-1.968.758-2.96,1.111-1.986.695-3.961,1.411-5.962,2.034-1.987.666-4,1.244-6,1.837-4.016,1.122-8.034,2.172-12.079,3.011-2.014.462-4.044.807-6.059,1.2-1.012.18-2.026.338-3.036.506s-2.02.339-3.033.467l-3.032.422c-1.011.131-2.022.234-3.032.352-2.017.252-4.038.4-6.05.58-1.006.091-2.014.133-3.02.2s-2.007.144-3.012.168c-2.008.07-4.014.169-6,.171-1,.006-1.988.028-2.99.027l-2.979-.041-1.487-.02-1.484-.057-2.96-.116c-.985-.048-1.966-.123-2.947-.182s-1.96-.112-2.933-.211c-1.951-.177-3.9-.332-5.827-.577-.967-.114-1.932-.214-2.893-.341s-1.917-.27-2.874-.406l-1.434-.2-1.425-.238-2.842-.473c-.944-.167-1.882-.358-2.821-.536s-1.878-.348-2.806-.562c-1.859-.41-3.718-.793-5.548-1.263a179.743,179.743,0,0,1-21.314-6.58,182.469,182.469,0,0,1-19.7-8.776,187.909,187.909,0,0,1-17.87-10.583,185.383,185.383,0,0,1-51.739-52.328A182.247,182.247,0,0,1,61.58,313.924c-.975-2.179-1.831-4.353-2.691-6.471-.809-2.139-1.62-4.224-2.322-6.3-.747-2.054-1.371-4.1-2.021-6.077l-.882-2.957c-.144-.487-.288-.972-.429-1.451s-.263-.964-.393-1.442a184.617,184.617,0,0,1-4.421-20.643C47.484,262.512,47,257.3,46.7,253.077q-.1-1.586-.186-2.986c-.061-.933-.074-1.805-.11-2.612s-.058-1.551-.084-2.229-.021-1.292-.031-1.838c-.025-2.19-.039-3.32-.039-3.32H45.067Zm1.183,0s.015,1.13.046,3.321c.012.547,0,1.16.036,1.838s.055,1.422.087,2.229.051,1.678.115,2.612.123,1.929.192,2.985c.311,4.227.8,9.434,1.749,15.5a184.488,184.488,0,0,0,4.462,20.625c.13.476.256.959.4,1.44s.288.963.433,1.449l.887,2.954c.652,1.976,1.281,4.016,2.031,6.068.706,2.068,1.521,4.15,2.334,6.284.865,2.116,1.724,4.287,2.7,6.459a182.023,182.023,0,0,0,14.715,27.073,185.094,185.094,0,0,0,51.761,52.14A187.123,187.123,0,0,0,146.049,403.6a182.192,182.192,0,0,0,19.669,8.714,179.172,179.172,0,0,0,21.272,6.521c1.825.465,3.681.842,5.536,1.247.926.213,1.863.372,2.8.556s1.873.364,2.814.529l2.836.467,1.423.234,1.429.2q1.431.2,2.867.4c.957.123,1.921.221,2.884.334,1.925.24,3.866.389,5.81.562.973.1,1.95.14,2.927.206s1.957.129,2.937.175l2.951.109,1.478.054,1.482.018q1.485.017,2.971.034c.985,0,1.986-.023,2.982-.032,1.995-.006,3.986-.109,5.984-.183,1-.025,2-.117,3-.173s2.006-.114,3.008-.207c2.005-.187,4.02-.335,6.029-.59,1.005-.121,2.014-.224,3.021-.358l3.02-.427c1.009-.133,2.014-.3,3.021-.471s2.016-.33,3.024-.512c2.007-.4,4.031-.747,6.035-1.21,4.028-.842,8.029-1.9,12.028-3.024,1.991-.6,3.991-1.174,5.97-1.842,1.991-.626,3.956-1.343,5.934-2.04.986-.353,1.963-.743,2.945-1.112l1.474-.562c.49-.19.975-.4,1.462-.594l2.925-1.2q1.45-.634,2.9-1.272a183.648,183.648,0,0,0-.176-335.709q-1.45-.634-2.9-1.263l-2.921-1.191c-.487-.2-.971-.4-1.461-.589l-1.47-.557c-.981-.367-1.955-.753-2.94-1.1-1.974-.689-3.936-1.4-5.923-2.022-1.974-.661-3.971-1.234-5.957-1.825-3.991-1.116-7.984-2.159-12-2.991-2-.458-4.02-.8-6.021-1.194-1.006-.18-2.011-.336-3.016-.5s-2.006-.336-3.014-.465l-3.011-.418c-1-.13-2.01-.232-3.013-.349-2-.251-4.012-.4-6.011-.577-1-.091-2-.132-3-.2-1-.054-1.995-.142-2.994-.166-1.994-.069-3.981-.169-5.966-.169-.987-.008-1.992-.031-2.961-.028l-2.976.041-1.484.019-1.47.058-2.935.115c-.977.048-1.953.121-2.928.181s-1.947.111-2.915.21c-1.938.177-3.872.329-5.79.571-.961.114-1.92.215-2.876.34l-2.855.4-1.425.2-1.416.236q-1.413.238-2.824.471c-.939.166-1.87.356-2.8.533s-1.866.345-2.787.558c-1.848.409-3.694.788-5.512,1.256a178.652,178.652,0,0,0-21.178,6.538,181.489,181.489,0,0,0-19.57,8.72,186.95,186.95,0,0,0-17.755,10.514,184.209,184.209,0,0,0-51.408,51.994A180.933,180.933,0,0,0,62.66,166.732c-.97,2.162-1.819,4.323-2.674,6.428-.8,2.123-1.61,4.2-2.307,6.253-.742,2.041-1.362,4.071-2.007,6.038q-.444,1.485-.876,2.936c-.143.486-.286.965-.427,1.442s-.261.958-.39,1.432a183.363,183.363,0,0,0-4.393,20.509c-.931,6.037-1.406,11.214-1.707,15.413q-.1,1.576-.185,2.968c-.059.927-.073,1.793-.109,2.6s-.057,1.54-.081,2.214-.021,1.285-.032,1.828c-.025,2.176-.038,3.3-.038,3.3H46.25Z" transform="translate(-19.489 -23.859)" fill="#63b6e8"/>
    <path id="Trazado_717491" data-name="Trazado 717491" d="M584.945,187.292a32.547,32.547,0,1,0,32.548-32.549A32.547,32.547,0,0,0,584.945,187.292Z" transform="translate(-253.498 -67.073)" fill="#c5e2f6"/>
    <path id="Trazado_717492" data-name="Trazado 717492" d="M475.855,71.63A35.815,35.815,0,1,0,440.04,35.815,35.815,35.815,0,0,0,475.855,71.63Z" transform="translate(-190.689)" fill="#c5e2f6"/>
    <path id="Trazado_717493" data-name="Trazado 717493" d="M171.806,45.765A37.089,37.089,0,1,0,208.894,8.676,37.089,37.089,0,0,0,171.806,45.765Z" transform="translate(-74.424 -3.761)" fill="#c5e2f6"/>
    <path id="Trazado_717494" data-name="Trazado 717494" d="M82.373,200.8A33.571,33.571,0,1,1,48.8,167.228,33.571,33.571,0,0,1,82.373,200.8Z" transform="translate(-6.557 -72.484)" fill="#c5e2f6"/>
    <path id="Trazado_717495" data-name="Trazado 717495" d="M650.536,417.4a25.062,25.062,0,1,0-25.063-25.062A25.062,25.062,0,0,0,650.536,417.4Z" transform="translate(-271.065 -159.192)" fill="#95c5c5"/>
    <path id="Trazado_717496" data-name="Trazado 717496" d="M235.235,673.137A28.864,28.864,0,1,0,264.1,644.272,28.865,28.865,0,0,0,235.235,673.137Z" transform="translate(-101.917 -279.258)" fill="#c5e2f6"/>
    <path id="Trazado_717497" data-name="Trazado 717497" d="M591.9,560.53a32.548,32.548,0,1,0,32.548-32.549A32.547,32.547,0,0,0,591.9,560.53Z" transform="translate(-256.513 -228.852)" fill="#c5e2f6"/>
    <path id="Trazado_717498" data-name="Trazado 717498" d="M31.525,583.88a35.815,35.815,0,1,0,7.638-50.072A35.815,35.815,0,0,0,31.525,583.88Z" transform="translate(-10.602 -228.359)" fill="#95c5c5"/>
    <path id="Trazado_717499" data-name="Trazado 717499" d="M.1,391.255a32.547,32.547,0,1,0,32.548-32.549A32.547,32.547,0,0,0,.1,391.255Z" transform="translate(0 -155.48)" fill="#c5e2f6"/>
    <path id="Trazado_717500" data-name="Trazado 717500" d="M282.591,701.046H276.87v-5.724h-5.726v-7.153h5.723v-5.72h5.723v5.72h5.722v7.153h-5.721Z" transform="translate(-117.482 -295.805)" fill="#fff"/>
    <path id="Trazado_717501" data-name="Trazado 717501" d="M248.53,677.309v19.729a5.353,5.353,0,0,0,5.338,5.34h32.118a5.354,5.354,0,0,0,5.344-5.34V677.309a5.05,5.05,0,0,0-5.344-4.97h-6.042v-.011H277.08v.011H253.868A5.048,5.048,0,0,0,248.53,677.309Zm12.812,6.474h5.723v-5.721h5.723v5.721h5.723v7.152h-5.722v5.724h-5.721v-5.724h-5.726Z" transform="translate(-107.68 -291.418)" fill="#265e91"/>
    <path id="Trazado_717502" data-name="Trazado 717502" d="M285.789,664.594a2.561,2.561,0,0,0-2.48-2.482h-9.347a2.562,2.562,0,0,0-2.478,2.482v2.077h-2.862v-2.077a5.354,5.354,0,0,1,5.339-5.343h9.347a5.359,5.359,0,0,1,5.343,5.343v2.066h-2.864v-2.066Z" transform="translate(-116.389 -285.75)" fill="#265e91"/>
    <path id="Trazado_717503" data-name="Trazado 717503" d="M203.376,55.464,201.7,68.285,193,70.879s-.458,6.257-1.831,7.02-4.121-.152-4.121-.152V71.642L193,65.995l2.595-9.615,7.784-.916Z" transform="translate(-81.03 -24.04)" fill="#fff"/>
    <path id="Trazado_717504" data-name="Trazado 717504" d="M253.911,54.38h-18.7V69.987h18.7Z" transform="translate(-101.908 -23.571)" fill="#fff"/>
    <path id="Trazado_717505" data-name="Trazado 717505" d="M197.943,94.851a5.979,5.979,0,1,0,5.978-5.979A5.979,5.979,0,0,0,197.943,94.851Zm7.185,1.313a1.786,1.786,0,0,1-2.992-1.313,1.747,1.747,0,0,1,.032-.324,1.784,1.784,0,1,1,2.961,1.637Z" transform="translate(-85.753 -38.521)" fill="#265e91"/>
    <path id="Trazado_717506" data-name="Trazado 717506" d="M262.183,94.851a5.979,5.979,0,1,0,5.979-5.979A5.98,5.98,0,0,0,262.183,94.851Zm4.194,0a1.851,1.851,0,0,1,.031-.324,1.784,1.784,0,0,1,3.509,0,1.845,1.845,0,0,1,.031.324,1.784,1.784,0,0,1-3.569,0Z" transform="translate(-113.598 -38.521)" fill="#265e91"/>
    <path id="Trazado_717507" data-name="Trazado 717507" d="M230.271,51.488V71.013h22.188V51.488Zm5.229,7.749h4.323V54.913h4.323v4.325h4.324v4.324h-4.324v4.324h-4.323V63.561H235.5Z" transform="translate(-99.766 -22.317)" fill="#265e91"/>
    <path id="Trazado_717508" data-name="Trazado 717508" d="M184.426,72.818c0,.951.025,1.927.025,2.879,2.278,0,4.556,0,6.835-.025.751-3.3,3.956-5.958,7.41-5.458,3.039.171,5.179,2.7,6.1,5.39v.244h23.047a6.7,6.7,0,0,1,12.992-1.038,6.592,6.592,0,0,1,.247,1.038h1.223V47.47H214.139v-.094H207.53v.094H204.8v1.537c-3.5-.024-7.008-.049-10.536,0,.275,3.455-1.378,6.584-2.178,9.864-.5,1.252-.425,3.055-1.9,3.63-1.478.726-2.98,1.4-4.456,2.078-.1,2.73-.026,5.433-.05,8.162l-1.253.076Zm28.942-13.2a8.746,8.746,0,1,1,8.745,8.745A8.746,8.746,0,0,1,213.369,59.616ZM192.614,62c.7-2.653,1.552-5.258,2.253-7.886,1.777-.076,3.58-.05,5.357-.05.1,2.654.05,5.308.025,7.961-2.553,0-5.082.025-7.635-.025Zm-6.62,8.193q2.32-.04,4.641,0c.027.933.027,1.84,0,2.774-1.547.026-3.12.026-4.667-.027C185.941,72.034,185.941,71.127,185.993,70.194Z" transform="translate(-79.893 -20.535)" fill="#1c466d"/>
    <path id="Trazado_717509" data-name="Trazado 717509" d="M225.2,38.569a3.308,3.308,0,0,1,6.617,0c0,.615,0,2.847,0,3.557h-6.609c0-.721,0-2.941,0-3.557Z" transform="translate(-97.569 -15.284)" fill="#265e91"/>
    <path id="Trazado_717510" data-name="Trazado 717510" d="M224.3,46.676a.6.6,0,0,0,.6.6h6.643a.6.6,0,0,0,0-1.2H224.9A.6.6,0,0,0,224.3,46.676Z" transform="translate(-97.18 -19.971)" fill="#1c466d"/>
    <path id="Trazado_717511" data-name="Trazado 717511" d="M458.641,46.916a13.515,13.515,0,0,0,.369,3.129c.009.035.018.069.025.1.014.059.03.119.044.179a19.248,19.248,0,0,0,2.3,5.35,34.463,34.463,0,0,0,4.854,6.114h13.885a1.082,1.082,0,0,1,1.008.69l2.252,5.869L491.336,48.6a1.082,1.082,0,0,1,.963-.675,1.106,1.106,0,0,1,1.006.606l3.662,7.531h6.89a1,1,0,0,1,.165.016,22.67,22.67,0,0,0,1.5-2.772,17.194,17.194,0,0,0,1.043-2.978c.013-.06.029-.121.043-.179.007-.035.016-.069.025-.1A13.515,13.515,0,0,0,507,46.916c0-.059,0-.119,0-.177a13.412,13.412,0,0,0-8.051-12.118c-.188-.066-.376-.127-.567-.182A13.223,13.223,0,0,0,483.1,38.585c-.171.127-.258.2-.258.2s-.011-.007-.014-.011l0,0a13.387,13.387,0,0,0-10.652-5.266h-.118a13.369,13.369,0,0,0-5.356,1.113,11.951,11.951,0,0,0-6.324,5.6,14.7,14.7,0,0,0-.842,1.733,12.08,12.08,0,0,0-.885,4.781c0,.059,0,.118,0,.177Zm44.412-.013a.533.533,0,0,1-.05-.2,9.836,9.836,0,0,0-9.1-9.1c-.379-.022-.694-.482-.7-1.031a.864.864,0,0,1,.844-.95,11.832,11.832,0,0,1,10.938,10.939.716.716,0,0,1-.063.335.939.939,0,0,1-.888.507,1.092,1.092,0,0,1-.979-.507Z" transform="translate(-198.752 -14.524)" fill="#265e91"/>
    <path id="Trazado_717512" data-name="Trazado 717512" d="M489.862,85.568a1.077,1.077,0,0,0,1,.692h.01a1.079,1.079,0,0,0,1-.678l8.079-20.038,2.894,5.953a1.077,1.077,0,0,0,.97.6h6.236c-4.639,6.078-11.45,10.576-12.919,11.6-1.424,1-3.233,2.137-4.628,2.992-1.344.87-2.144,1.311-2.144,1.311a.119.119,0,0,1-.017-.01l-.017.01s-.8-.441-2.144-1.311c-1.4-.855-3.2-1.994-4.629-2.992a71.047,71.047,0,0,1-7.563-5.878l10.9,0,2.971,7.736Z" transform="translate(-206.27 -28.41)" fill="#265e91"/>
    <path id="Trazado_717513" data-name="Trazado 717513" d="M89.259,587.864,62.828,572.649,60.64,573.9l-1.946,4.119,1.252,2.188,25.63,14.309Z" transform="translate(-25.396 -248.213)" fill="#fff"/>
    <path id="Trazado_717514" data-name="Trazado 717514" d="M93.34,594.681l-1.992,3.474.777.446,1.992-3.474Z" transform="translate(-39.55 -257.763)" fill="#1c466d"/>
    <path id="Trazado_717515" data-name="Trazado 717515" d="M99.3,602.7l1.991-3.473-.777-.447-1.992,3.475Z" transform="translate(-42.658 -259.538)" fill="#1c466d"/>
    <path id="Trazado_717516" data-name="Trazado 717516" d="M96.421,598.284l-1.474,2.573.777.445,1.474-2.573Z" transform="translate(-41.11 -259.324)" fill="#1c466d"/>
    <path id="Trazado_717517" data-name="Trazado 717517" d="M103.584,602.4l-1.474,2.572.777.445,1.474-2.572Z" transform="translate(-44.215 -261.109)" fill="#1c466d"/>
    <path id="Trazado_717518" data-name="Trazado 717518" d="M61.713,576.749s1.121-2.608,3.2-1.414L80,583.982,77.121,589,61.7,580.159S60.227,579.313,61.713,576.749Z" transform="translate(-26.417 -249.242)" fill="#265e91"/>
    <path id="Trazado_717519" data-name="Trazado 717519" d="M58.188,579.576l.01-.031h0l-.011.029Z" transform="translate(-25.177 -251.202)" fill="#1c466d"/>
    <path id="Trazado_717520" data-name="Trazado 717520" d="M61.112,573.945a5.791,5.791,0,0,1,.582-.56,5.477,5.477,0,0,0-.562.578l-.02-.018Z" transform="translate(-26.444 -248.532)" fill="#1c466d"/>
    <path id="Trazado_717521" data-name="Trazado 717521" d="M55.3,573.492l.02-.035c.21-.365.847-.395,1.422-.065l.932.534a.454.454,0,0,1,.6-.137.372.372,0,0,1,.076.059,7.69,7.69,0,0,0-1.647,2.931.447.447,0,0,1-.117-.044.452.452,0,0,1-.184-.585l-.931-.535c-.576-.33-.873-.9-.663-1.261l.02-.034.475-.829Z" transform="translate(-23.683 -248.435)" fill="#009f9f"/>
    <path id="Trazado_717522" data-name="Trazado 717522" d="M35.607,562.206l11.4,6.537-.475.828-10-5.733Z" transform="translate(-15.389 -243.686)" fill="#fff"/>
    <path id="Trazado_717523" data-name="Trazado 717523" d="M58.922,579.912l25.192,14.443-.5.879,1.568.9.424-.739.839-1.462,3.012-5.289.031-.019,1.076-1.878-1.569-.9-.492.859L63.308,572.263a2.518,2.518,0,0,0-3.09.487,5.6,5.6,0,0,0-.562.578l-.02-.018a7.7,7.7,0,0,0-1.647,2.932h0l-.011.029c-.392,1.148-.583,2.765.944,3.641Zm.891-4.765s1.4-2.969,3.542-1.743l24.772,14.2-.434.757-.015.026-2.552,4.45-.015.027-.436.76-24.941-14.3s-1.517-1.4.079-4.182Z" transform="translate(-24.966 -247.898)" fill="#1c466d"/>
    <path id="Trazado_717524" data-name="Trazado 717524" d="M108.425,606.707l3.011-5.289.033-.019-.217.379L122.1,608l-2.827,4.93Z" transform="translate(-46.952 -260.674)" fill="#555f6d"/>
    <path id="Trazado_717525" data-name="Trazado 717525" d="M129.14,610.829l1.662-2.9,2.036,1.168L126.7,619.8l-2.036-1.168,1.648-2.875Z" transform="translate(-53.991 -263.506)" fill="#1c466d"/>
    <path id="Trazado_717526" data-name="Trazado 717526" d="M79.147,193.964H63.784v4.768H79.147Z" transform="translate(-27.602 -84.073)" fill="#36393c"/>
    <path id="Trazado_717527" data-name="Trazado 717527" d="M48.846,209.394c0-6.157,4.342-11.15,9.7-11.15H71.436c5.357,0,9.7,4.993,9.7,11.15v24.985c0,.343-.019.679-.048,1.014a1.515,1.515,0,0,1,.015.17,1.541,1.541,0,0,1-.1.54c-.006.04-.009.083-.015.124h-.044a1.173,1.173,0,0,1-1.035.7H50.069a1.172,1.172,0,0,1-1.034-.7H48.99c-.006-.043-.009-.084-.015-.127a1.548,1.548,0,0,1-.1-.538,1.475,1.475,0,0,1,.015-.167c-.031-.335-.049-.673-.049-1.017V209.393Z" transform="translate(-21.127 -85.928)" fill="#494c55"/>
    <path id="Trazado_717528" data-name="Trazado 717528" d="M53.224,231.414c0,3.506,2.472,6.35,5.522,6.35H75.028c3.051,0,5.523-2.842,5.523-6.35v-4.3c0-3.506-2.472-6.349-5.523-6.349H58.746c-3.05,0-5.522,2.843-5.522,6.349Z" transform="translate(-23.025 -95.689)" fill="#f0f8f9"/>
    <path id="Trazado_717529" data-name="Trazado 717529" d="M79.626,225.566H60.185v2.568H79.626Z" transform="translate(-26.042 -97.771)" fill="#ffa031"/>
    <path id="Trazado_717530" data-name="Trazado 717530" d="M79.626,233.868H60.185v2.568H79.626Z" transform="translate(-26.042 -101.369)" fill="#ffa031"/>
    <path id="Trazado_717531" data-name="Trazado 717531" d="M79.131,242.169H63.9v2.568H79.131Z" transform="translate(-27.655 -104.967)" fill="#ffa031"/>
    <path id="Trazado_717532" data-name="Trazado 717532" d="M71.243,182.791h-.769v6.331h.769Z" transform="translate(-30.502 -79.23)" fill="#ffa031"/>
    <path id="Trazado_717533" data-name="Trazado 717533" d="M74.351,182.791h-.769v6.331h.769Z" transform="translate(-31.849 -79.23)" fill="#ffa031"/>
    <path id="Trazado_717534" data-name="Trazado 717534" d="M93,182.791h-.77v6.331H93Z" transform="translate(-39.933 -79.23)" fill="#ffa031"/>
    <path id="Trazado_717535" data-name="Trazado 717535" d="M89.891,182.791h-.769v6.331h.769Z" transform="translate(-38.585 -79.23)" fill="#ffa031"/>
    <path id="Trazado_717536" data-name="Trazado 717536" d="M77.459,182.791H76.69v6.331h.769Z" transform="translate(-33.196 -79.23)" fill="#ffa031"/>
    <path id="Trazado_717537" data-name="Trazado 717537" d="M80.568,182.791H79.8v6.331h.77Z" transform="translate(-34.544 -79.23)" fill="#ffa031"/>
    <path id="Trazado_717538" data-name="Trazado 717538" d="M68.135,182.791h-.769v6.331h.769Z" transform="translate(-29.155 -79.23)" fill="#ffa031"/>
    <path id="Trazado_717539" data-name="Trazado 717539" d="M86.783,182.791h-.769v6.331h.769Z" transform="translate(-37.238 -79.23)" fill="#ffa031"/>
    <path id="Trazado_717540" data-name="Trazado 717540" d="M65.026,182.791h-.77v6.331h.77Z" transform="translate(-27.807 -79.23)" fill="#ffa031"/>
    <path id="Trazado_717541" data-name="Trazado 717541" d="M61.918,182.791h-.769v6.331h.769Z" transform="translate(-26.46 -79.23)" fill="#ffa031"/>
    <path id="Trazado_717542" data-name="Trazado 717542" d="M83.675,182.791h-.769v6.331h.769Z" transform="translate(-35.891 -79.23)" fill="#ffa031"/>
    <path id="Trazado_717543" data-name="Trazado 717543" d="M58.883,182.791h-.678v6.331h.678Z" transform="translate(-25.185 -79.23)" fill="#ffa031"/>
    <path id="Trazado_717544" data-name="Trazado 717544" d="M95.984,182.791h-.646v6.331h.646Z" transform="translate(-41.28 -79.23)" fill="#ffa031"/>
    <path id="Trazado_717545" data-name="Trazado 717545" d="M94.58,182.791H93.59v6.331h.991Z" transform="translate(-40.522 -79.23)" fill="#e5b35f"/>
    <path id="Trazado_717546" data-name="Trazado 717546" d="M91.473,182.791h-.992v6.331h.992Z" transform="translate(-39.174 -79.23)" fill="#e5b35f"/>
    <path id="Trazado_717547" data-name="Trazado 717547" d="M88.365,182.791h-.992v6.331h.992Z" transform="translate(-37.827 -79.23)" fill="#e5b35f"/>
    <path id="Trazado_717548" data-name="Trazado 717548" d="M85.257,182.791h-.992v6.331h.992Z" transform="translate(-36.48 -79.23)" fill="#e5b35f"/>
    <path id="Trazado_717549" data-name="Trazado 717549" d="M82.147,182.791h-.992v6.331h.992Z" transform="translate(-35.132 -79.23)" fill="#e5b35f"/>
    <path id="Trazado_717550" data-name="Trazado 717550" d="M79.04,182.791h-.991v6.331h.991Z" transform="translate(-33.786 -79.23)" fill="#e5b35f"/>
    <path id="Trazado_717551" data-name="Trazado 717551" d="M75.931,182.791h-.992v6.331h.992Z" transform="translate(-32.438 -79.23)" fill="#e5b35f"/>
    <path id="Trazado_717552" data-name="Trazado 717552" d="M72.823,182.791h-.991v6.331h.991Z" transform="translate(-31.091 -79.23)" fill="#e5b35f"/>
    <path id="Trazado_717553" data-name="Trazado 717553" d="M69.715,182.791h-.992v6.331h.992Z" transform="translate(-29.743 -79.23)" fill="#e5b35f"/>
    <path id="Trazado_717554" data-name="Trazado 717554" d="M66.607,182.791h-.992v6.331h.992Z" transform="translate(-28.396 -79.23)" fill="#e5b35f"/>
    <path id="Trazado_717555" data-name="Trazado 717555" d="M63.5,182.791h-.991v6.331H63.5Z" transform="translate(-27.049 -79.23)" fill="#e5b35f"/>
    <path id="Trazado_717556" data-name="Trazado 717556" d="M60.391,182.791H59.4v6.331h.991Z" transform="translate(-25.702 -79.23)" fill="#e5b35f"/>
    <path id="Trazado_717557" data-name="Trazado 717557" d="M55.784,251.523a4.239,4.239,0,0,1,1.455,5.4l-6.993-4.658a4.239,4.239,0,0,1,5.539-.738Z" transform="translate(-21.734 -108.714)" fill="#fff"/>
    <path id="Trazado_717558" data-name="Trazado 717558" d="M50.283,260.395A4.238,4.238,0,0,1,48.828,255l6.993,4.657A4.239,4.239,0,0,1,50.283,260.395Z" transform="translate(-20.932 -110.529)" fill="#fff"/>
    <path id="Trazado_717559" data-name="Trazado 717559" d="M644.986,403.2c.053-6.656,4.742-11,11-12.375v-10.5h-.914a1.345,1.345,0,0,1,0-2.691h3.925V403.2H644.986Z" transform="translate(-279.522 -163.687)" fill="#efeceb"/>
    <path id="Trazado_717560" data-name="Trazado 717560" d="M669.711,377.641h3.927a1.345,1.345,0,1,1,0,2.691h-.916v10.5c6.258,1.372,10.944,5.719,11,12.375H669.712V377.642Z" transform="translate(-290.239 -163.687)" fill="#fffcfb"/>
    <path id="Trazado_717561" data-name="Trazado 717561" d="M683.718,422.758c0,.039.009.075.009.113,0,7.741-6.139,12.7-13.88,12.7-.045,0-.091-.006-.136-.006V422.757h14.007Z" transform="translate(-290.239 -183.243)" fill="#286caa"/>
    <path id="Trazado_717562" data-name="Trazado 717562" d="M644.97,422.871c0-.037.009-.074.009-.112h14.008v12.807c-7.68-.057-14.017-5-14.017-12.694Z" transform="translate(-279.516 -183.243)" fill="#265e91"/>
    <path id="Trazado_717563" data-name="Trazado 717563" d="M61.944,394.007H57.426a.677.677,0,1,1,0-1.355h4.518a.677.677,0,1,1,0,1.355Z" transform="translate(-24.553 -170.194)" fill="#1c466d"/>
    <path id="Trazado_717564" data-name="Trazado 717564" d="M61.944,386.83H57.426a.678.678,0,1,1,0-1.355h4.518a.678.678,0,1,1,0,1.355Z" transform="translate(-24.553 -167.083)" fill="#1c466d"/>
    <path id="Trazado_717565" data-name="Trazado 717565" d="M44.537,397.282a33.318,33.318,0,0,0-6.285.833v10.131s2.482,5.009,10.831,5.009,9.455-5.38,9.455-5.38V398.11c-1.415-.288-5.026-.866-7.586.135A29.067,29.067,0,0,0,44.537,397.282Zm4.194,10.255a.677.677,0,0,1,.678-.678h4.518a.678.678,0,1,1,0,1.355H49.409A.678.678,0,0,1,48.731,407.537Zm0-3.729a.677.677,0,0,1,.678-.677h4.518a.678.678,0,1,1,0,1.355H49.409A.678.678,0,0,1,48.731,403.809Zm0-3.727a.678.678,0,0,1,.678-.679h4.518a.678.678,0,0,1,0,1.357H49.409A.678.678,0,0,1,48.731,400.081Z" transform="translate(-16.535 -172.201)" fill="#265e91"/>
    <path id="Trazado_717566" data-name="Trazado 717566" d="M35.134,372.371v23.583a7.709,7.709,0,0,0,7.687,7.687h1.358c.027.741.9,1.357,2.1,1.571v4.375h-.041a1.286,1.286,0,0,0-1.283,1.279v4.444a1.285,1.285,0,0,0,1.283,1.28h.041v8.093h1.81v-8.093h.042a1.286,1.286,0,0,0,1.281-1.28v-4.444a1.287,1.287,0,0,0-1.281-1.279h-.042v-4.375c1.2-.214,2.074-.831,2.1-1.571h1.361a7.708,7.708,0,0,0,7.686-7.687V372.371a1.806,1.806,0,0,0-1.807-1.807H36.941a1.806,1.806,0,0,0-1.806,1.807Zm1.765,3.023H57.186v20.9s-1.1,5.379-9.455,5.379S36.9,396.666,36.9,396.666Z" transform="translate(-15.184 -160.62)" fill="#1c466d"/>
    <path id="Trazado_717567" data-name="Trazado 717567" d="M637.874,186.479l10.811,29.377-2.832,5.293-5.592-1.491-11.333-30.123Z" transform="translate(-272.562 -80.829)" fill="#fbfcfd"/>
    <path id="Trazado_717568" data-name="Trazado 717568" d="M629,189.252l10.987,29.478,4.064,1.649,1.354-.5,1.994-3.906L636.41,186.49l1.48-.64,11.153,29.925-2.807,5.495,2.086,5.6-.929.346-.049.018-.929.346-2.085-5.6-5.718-2.318-11.152-29.925Z" transform="translate(-271.927 -80.556)" fill="#455052"/>
    <path id="Trazado_717569" data-name="Trazado 717569" d="M647.093,213.151l5.222,14.011-1.629,3.592-1.165.435-3.583-1.649-5.222-14.011Z" transform="translate(-277.671 -92.39)" fill="#265e91"/>
    <path id="Trazado_717570" data-name="Trazado 717570" d="M625.076,178.664l-1.937-5.2a4.875,4.875,0,0,1,2.866-6.271l3.64,9.767Z" transform="translate(-269.919 -72.47)" fill="#265e91"/>
    <path id="Trazado_717571" data-name="Trazado 717571" d="M628.434,166.958a4.876,4.876,0,0,1,6.271,2.866l1.938,5.2-4.569,1.7-3.64-9.768Z" transform="translate(-272.348 -72.234)" fill="#265e91"/>
    <path id="Trazado_717572" data-name="Trazado 717572" d="M639.428,180.887l1.627-.606a1.95,1.95,0,0,1,1.356,3.637l-6.2,2.309-.5-1.337-.858-2.3Z" transform="translate(-275.133 -78.098)" fill="#373c3c"/>
    <path id="Trazado_717573" data-name="Trazado 717573" d="M623.078,186.744l1.627-.607,4.569-1.7.857,2.3.5,1.336-6.2,2.309a1.95,1.95,0,0,1-1.356-3.637Z" transform="translate(-269.548 -79.943)" fill="#455052"/>
    <path id="Trazado_717574" data-name="Trazado 717574" d="M649.32,545.875c.069.063.137.13.205.2l4.5-3.476a13.035,13.035,0,0,0-12.977-11.368c-11.857.641-13,11.349-13,11.349l4.6,3.555c.173-.184.279-.279.279-.279l0,.014a10.444,10.444,0,0,1,9.332-2.985,12.019,12.019,0,0,1,7.037,2.972s.01.008.024.023Zm-4.236-7.491h-2.82v2.823h-2.456v-2.823h-2.824v-2.456h2.824v-2.819h2.456v2.819h2.82Z" transform="translate(-272.18 -230.258)" fill="#265e91"/>
    <path id="Trazado_717575" data-name="Trazado 717575" d="M642.155,584.567l.267.525,0,.007.265-.532,3.691-7.246.114-.207.113-.24-.066-.28-.352-1.5a9.772,9.772,0,0,0,1.383-.793c1.391,2.19,5.954,1.984,5.954,1.984-1.309-2.589-.146-2.865.346-9.559a9.7,9.7,0,0,0,.064-2.752,12.343,12.343,0,0,0-3.539-7.5c-.068-.066-.135-.133-.205-.2l-.024-.023a12.023,12.023,0,0,0-7.037-2.971,10.442,10.442,0,0,0-9.332,2.984l0-.014s-.1.095-.279.279a13.5,13.5,0,0,0-3.425,10.189c.491,6.693,1.655,6.97.346,9.558,0,0,4.26.193,5.8-1.771a6.3,6.3,0,0,0,.989.211,9.849,9.849,0,0,0,1.173.572l-.277,1.178-.023.1.329.687,3.719,7.3Zm3.944-9.891a1.243,1.243,0,0,0-.125.061,9.27,9.27,0,0,1-10.7-2.08,10.854,10.854,0,0,1-1.43-7.157,19.72,19.72,0,0,0,9.287-6.966c2.547,6.966,8.529,5.666,6.749,11.549a7.129,7.129,0,0,1-1.917,3.416,9.377,9.377,0,0,1-1.864,1.178Zm-3.677,9.366-3.818-7.5.007-.029.246-1.045a9.674,9.674,0,0,0,6.89-.179l.358,1.519-3.682,7.23Z" transform="translate(-273.052 -239.765)" fill="#373c3c"/>
    <path id="Trazado_717576" data-name="Trazado 717576" d="M656.71,575.247a.834.834,0,1,1,.834.834A.834.834,0,0,1,656.71,575.247Z" transform="translate(-284.604 -248.977)" fill="#455052"/>
    <path id="Trazado_717577" data-name="Trazado 717577" d="M644.113,575.98a.784.784,0,1,1,.782-.784A.784.784,0,0,1,644.113,575.98Z" transform="translate(-278.804 -248.977)" fill="#455052"/>
    <path id="Trazado_717578" data-name="Trazado 717578" d="M656.894,594.994a17.2,17.2,0,0,1,9.475,5.932,12.366,12.366,0,0,1,2.688,7.611H653.129v-5.655h4.42Z" transform="translate(-283.052 -257.898)" fill="#373c3c"/>
    <path id="Trazado_717579" data-name="Trazado 717579" d="M611.542,605.686l.661-.3a5.627,5.627,0,0,1,4.564.122l.358.153.228.1.041-.86.163-3.391a2.9,2.9,0,1,0-5.8-.279l-.215,4.459Zm.952-1.356.148-3.06a2.018,2.018,0,0,1,4.031.193l-.145,3a6.572,6.572,0,0,0-4.034-.138Z" transform="translate(-265.026 -259.402)" fill="#373c3c"/>
    <path id="Trazado_717580" data-name="Trazado 717580" d="M622.94,610.667l.052.026.042.021-.116.016.023-.063Z" transform="translate(-269.958 -264.692)" fill="#1c466d"/>
    <path id="Trazado_717581" data-name="Trazado 717581" d="M622.7,606.851l.052.026.042.021.6-.083a5.626,5.626,0,0,1,4.338,1.423l.49.407,1.414-4.014a2.9,2.9,0,1,0-5.478-1.928l-.109.309-1.015,2.882-.269.763-.068.194Zm1.278-.964L625,603a2.028,2.028,0,0,1,.627-.893,2.018,2.018,0,0,1,3.18,2.233l-1,2.838A6.574,6.574,0,0,0,623.982,605.887Z" transform="translate(-269.864 -260.398)" fill="#373c3c"/>
    <path id="Trazado_717582" data-name="Trazado 717582" d="M611.346,615.011a2.777,2.777,0,0,0,4.5,2.312,2.746,2.746,0,0,0,.323-.3c.042-.046.083-.093.122-.143s.088-.114.13-.174a2.772,2.772,0,0,0,.435-1.078,2.832,2.832,0,0,0,.039-.348l.07-1.445.068-1.413.057-1.185.01-.208-.034-.017-.116.015.023-.064c-.079-.041-.17-.084-.269-.128a5.888,5.888,0,0,0-3.525-.488c.025.043-.487.129-.487.129a4.6,4.6,0,0,0-1.1.513l-.058.036-.191,3.987Zm.779-3.761,1.317-.4a1.394,1.394,0,0,0-.716.805c-1.322,4.069.082,5.422.082,5.422C610.841,615.911,612.126,611.25,612.126,611.25Z" transform="translate(-264.94 -264.51)" fill="#265e91"/>
    <path id="Trazado_717583" data-name="Trazado 717583" d="M620.87,617.809c.058-.054.325-.355.342-.378s.053-.071.079-.108.053-.08.078-.122a2.772,2.772,0,0,0,.359-.956,2.931,2.931,0,0,0,.038-.347l.069-1.445.125-2.6a4.172,4.172,0,0,1,1.906-.114v0a6.162,6.162,0,0,1,3.233,1.683l.061.058-.973,2.761-.442,1.253a2.771,2.771,0,0,1-5.03.445c.053-.042.105-.087.156-.133Z" transform="translate(-269.002 -265.13)" fill="#265e91"/>
    <path id="Trazado_717584" data-name="Trazado 717584" d="M632.6,605.978c.045-.1.087-.193.128-.291a.063.063,0,0,0,.006-.014c.035-.061.066-.124.095-.187,0-.009.007-.016.011-.024l.041.034,1.414-4.014a2.908,2.908,0,0,0-3.05-3.853,18.637,18.637,0,0,1,7.177-3.032l-.673,8.112h4.514v5.655H631.7l.754-2.14A1.759,1.759,0,0,0,632.6,605.978Z" transform="translate(-273.568 -257.726)" fill="#373c3c"/>
    <path id="Trazado_717585" data-name="Trazado 717585" d="M468.781,667.205a29.4,29.4,0,1,0,29.393-29.394A29.395,29.395,0,0,0,468.781,667.205Z" transform="translate(-203.147 -276.457)" fill="#95c5c5"/>
    <path id="Trazado_717586" data-name="Trazado 717586" d="M524.386,659.363a7.268,7.268,0,1,0-7.268,7.268A7.281,7.281,0,0,0,524.386,659.363Z" transform="translate(-220.949 -282.645)" fill="#fff"/>
    <path id="Trazado_717587" data-name="Trazado 717587" d="M522.262,678.568c4.514,1.731,4.475,4.9,4.491,5.055l.023,11.239a2.6,2.6,0,0,1-.605,1.672,1.894,1.894,0,0,1-1.416.518l-.428,0-2.065-18.481Zm-26.41,22.689V684.579c.577-6.841,8.4-6.82,8.736-6.818h12.161l-3.74,14.06h-2.142a3.093,3.093,0,0,0,0,6.186h8.679l0,5.236-17.844.013.007-17.082-1.137,1.469v13.094l-.006.5a2.358,2.358,0,1,1-4.716.025h0Zm15.959-4.245-.944,0a2.1,2.1,0,0,1,0-4.2h1.784C512.21,693.927,511.561,695.853,511.811,697.013Z" transform="translate(-214.88 -293.773)" fill="#fff"/>
    <path id="Trazado_717588" data-name="Trazado 717588" d="M536.309,697.03l-1.859-18.444a9.083,9.083,0,0,0-3.7-.782s-5.272,18.673-4.942,19.179c.016.023.031.047.125.047Z" transform="translate(-227.859 -293.792)" fill="#265e91"/>
    <path id="Trazado_717589" data-name="Trazado 717589" d="M281.812,470.809l.006-1.441c.084-1.538.172-3.191.256-4.93l-13.555,26.01a12.3,12.3,0,0,1-8.776,6.431l-32.937.625-7.184,1.293L208.4,501.782A126.919,126.919,0,0,0,280.5,538.558l.273-32.672Z" transform="translate(-90.288 -201.309)" fill="#5aa6d4"/>
    <path id="Trazado_717590" data-name="Trazado 717590" d="M398.66,275.728a127.253,127.253,0,1,0-246.268,45.141,12.3,12.3,0,0,1,21.624-8.685q1.471,5.762,3.436,11.315l2.406,20.607L186.165,343l35.485-6.253,18.342-35.2a14.639,14.639,0,0,1,14.224-18.106c.079,0,.157,0,.237.006,0-.024,0-.049-.006-.074H266.78v0a24.454,24.454,0,0,0,9.818-2.588c.018.025.037.049.057.076l-1.447.855-5.863,24.046,8.045,2.011-5.362,10.055,22.5,44.5,4.181,6.146,5.31,10.548.022-.557,2.337-6.671,27.283-53.969L328.3,307.767l8.044-2.011-5.863-24.046-1.447-.855c.018-.026.037-.051.057-.076a24.447,24.447,0,0,0,9.817,2.588v0h13.929s7.169-.124,9.418,2.139L353.005,319.8l-.02-.013v.084l-.011.041.011.03c.038,11.579.336,24.523,1.112,37.953l-.28-1.233.239,15.832a126.968,126.968,0,0,0,44.6-96.761Z" transform="translate(-62.439 -64.356)" fill="#5aa6d4"/>
    <path id="Trazado_717591" data-name="Trazado 717591" d="M476.022,459.111c-.774-13.43-1.074-26.375-1.111-37.953l-.011-.03.011-.041V421l.02.013,9.246-34.286c-2.25-2.262-9.418-2.139-9.418-2.139H460.829v0A24.436,24.436,0,0,1,451.012,382c-.02.025-.039.049-.058.076l1.447.855,5.863,24.046-8.044,2.011,5.362,10.055L428.3,473.01l-2.336,6.671-.022.557,1.6,3.178-2.092,16.7a126.916,126.916,0,0,0,50.533-26.4l-.24-15.832Z" transform="translate(-184.365 -165.576)" fill="#fcfcfd"/>
    <path id="Trazado_717592" data-name="Trazado 717592" d="M158.759,453.51l4.471,38.3a12.306,12.306,0,0,0,4.873,8.441c2.139,1.593,5.236-1.01,7.865-1.01a12.294,12.294,0,0,0,2.135-.186l8.756-2.33a127.345,127.345,0,0,1-28.162-43.96c.014.249.033.5.062.75Z" transform="translate(-68.742 -196.248)" fill="#fcfcfd"/>
    <path id="Trazado_717593" data-name="Trazado 717593" d="M309.518,500.188l.784-19.953-5.31-10.549-4.181-6.146-22.5-44.5,5.362-10.055-8.045-2.011,5.863-24.046,1.447-.854-.057-.077a24.444,24.444,0,0,1-9.818,2.587v0H260.734c0,.024,0,.05.006.074-.079,0-.156-.007-.237-.007a14.637,14.637,0,0,0-14.224,18.106l-18.343,35.2-35.485,6.253-6.307,1.112-2.406-20.608q-1.96-5.549-3.436-11.315a12.3,12.3,0,0,0-21.623,8.685,127.346,127.346,0,0,0,28.162,43.96l11.217-2.986,7.184-1.293,32.937-.624a12.308,12.308,0,0,0,8.776-6.431L260.51,428.7c-.084,1.74-.172,3.392-.257,4.93l-.005,1.441L259.2,470.15l-.273,32.672a128.381,128.381,0,0,0,50.584-2.636Z" transform="translate(-68.726 -165.575)" fill="#fcfcfd"/>
    <path id="Trazado_717594" data-name="Trazado 717594" d="M425.224,575.271l2.092-16.7-1.6-3.178-.784,19.953Z" transform="translate(-184.141 -240.734)" fill="#fcfcfd"/>
    <path id="Trazado_717595" data-name="Trazado 717595" d="M430.823,375.218c-5.721-7.862-15.53-11.849-29.156-11.849-15.437,0-26.308,4.1-32.316,12.2a.162.162,0,0,1-.01.014,31.689,31.689,0,0,0,6.353-2.607c5.854-4.562,14.555-6.869,25.972-6.869,9.955,0,17.675,2.217,23.041,6.6,1.893.944,4.709,2.095,6.256,2.713-.047-.067-.094-.134-.141-.2Z" transform="translate(-160.046 -157.501)" fill="#13110c"/>
    <path id="Trazado_717596" data-name="Trazado 717596" d="M199.744,444.013a12.239,12.239,0,0,0-2.882-6.58q1.471,5.762,3.436,11.315Z" transform="translate(-85.285 -189.604)" fill="#fcfcfd"/>
    <path id="Trazado_717597" data-name="Trazado 717597" d="M425.5,554.147V553.8H424.38v.512l.575,1.388Z" transform="translate(-183.902 -240.044)" fill="#edeced"/>
    <path id="Trazado_717598" data-name="Trazado 717598" d="M424.955,555.966l-.575-1.388v.846l.217,0c.3,0,.6,0,.9-.006v-1.008l-.544,1.555Z" transform="translate(-183.902 -240.308)" fill="#edeced"/>
    <path id="Trazado_717599" data-name="Trazado 717599" d="M512.745,451.062v-.071l-.011.041Z" transform="translate(-222.198 -195.481)" fill="#134466"/>
    <path id="Trazado_717600" data-name="Trazado 717600" d="M424.827,353.324l.012.01v-4.942h-30.2v7.139h-.1a24.711,24.711,0,0,1-5.233,7.48c23.575,2.258,35.521-9.689,35.521-9.689Z" transform="translate(-168.699 -151.009)" fill="#dcb69a"/>
    <path id="Trazado_717601" data-name="Trazado 717601" d="M420.121,361.71v-4.6l-.012-.01s-11.946,11.945-35.521,9.688a24.675,24.675,0,0,1-6.166,4.419,31.962,31.962,0,0,0,11.5,10.05v6.641h.037v.451h28.7v-.451h1.458v-7.277a32.005,32.005,0,0,0,10.392-9.506,24.751,24.751,0,0,1-10.392-9.4Z" transform="translate(-163.981 -154.783)" fill="#f6cfad"/>
    <path id="Trazado_717602" data-name="Trazado 717602" d="M430.016,390.893a31.651,31.651,0,0,1-41.789,1.256l21.045,92.963,20.744-94.219Z" transform="translate(-168.231 -169.431)" fill="#dbdce4"/>
    <path id="Trazado_717603" data-name="Trazado 717603" d="M422.6,479.858l4.753-11.633-5.654-52.864-4.467-1.3V414l-.1.028-.1-.028v.057l-4.467,1.3-6.044,56.367,7.192,13.634,3.44,9.632,1.126-2,2.815-7.943Z" transform="translate(-176.161 -179.447)" fill="#445879"/>
    <path id="Trazado_717604" data-name="Trazado 717604" d="M425.574,400.345l-6.992-.958-6.993.958-1.359,3.884,3.3,5.243,5.05.2,5.05-.2,3.3-5.243Z" transform="translate(-177.768 -173.113)" fill="#445879"/>
    <path id="Trazado_717605" data-name="Trazado 717605" d="M380.774,378.107,403.2,390.163l-15.913,15.913-11.814-24.834Z" transform="translate(-162.701 -163.889)" fill="#c9d1cd"/>
    <path id="Trazado_717606" data-name="Trazado 717606" d="M446.927,378.107,424.5,390.163l15.913,15.913L451.942,381.5Z" transform="translate(-183.955 -163.889)" fill="#c9d1cd"/>
    <path id="Trazado_717607" data-name="Trazado 717607" d="M463.8,236.823c0-27.215-16.363-35.784-37.63-35.784-.262,0-.522,0-.782.007v93.379C446.611,294.34,463.8,264,463.8,236.823Z" transform="translate(-184.338 -87.14)" fill="#f6cfad"/>
    <path id="Trazado_717608" data-name="Trazado 717608" d="M394.891,201.077c-20.494.667-37.623,9.289-37.623,35.752s16.769,56.977,37.623,57.576c.3.009.588.029.88.029l.09,0V201.054Q395.375,201.062,394.891,201.077Z" transform="translate(-154.812 -87.146)" fill="#f6cfad"/>
    <path id="Trazado_717609" data-name="Trazado 717609" d="M433.546,227.3a55.353,55.353,0,0,0-5.882-20.974c3.318-14.809-10.524-18.934-25.119-19.29-13.494-.326-27.627,2.564-29.453,3.229a24.692,24.692,0,0,1-6.965,1.045c-2.024.067-3.566-.009-3.566-.009a15.963,15.963,0,0,0,.726,1.829c.33.76.653,1.448.653,1.448a5.467,5.467,0,0,1-1.943-.467,77.665,77.665,0,0,1-7.728-3.674,19.48,19.48,0,0,0,1.514,10.061,19.962,19.962,0,0,0,2.286,4.1c-.866.174-3.283-.863-3.283-.863a26.879,26.879,0,0,0,1.386,4.837c-5.2,3.791-6.4,14.737-6.494,23.3l8.905,10.4,3.079-7.464c.066.01.128.011.2.02,2.174-7.858,3.984-19.694,3.984-19.694,23.233,14.916,44.612,3,48.305.709.7-.768,1.071-1.23,1.071-1.23,1.318,14.926,11.41,25.021,11.41,25.021-.842-6.339,6.429-11.309,6.971-11.67l.05-.034c-.029-.217-.067-.416-.1-.63Z" transform="translate(-151.522 -81.06)"/>
    <path id="Trazado_717610" data-name="Trazado 717610" d="M483.782,268.642c-1.453,5.553-.42,10.639,2.3,11.356s6.115-3.2,7.573-8.754.419-10.636-2.3-11.355S485.24,263.087,483.782,268.642Z" transform="translate(-209.364 -112.611)" fill="#f6cfad"/>
    <path id="Trazado_717611" data-name="Trazado 717611" d="M356.915,269.036c1.51,5.427.716,10.388-1.759,11.077s-5.7-3.15-7.209-8.58-.716-10.389,1.757-11.079,5.71,3.152,7.211,8.582Z" transform="translate(-150.441 -112.859)" fill="#f6cfad"/>
    <path id="Trazado_717612" data-name="Trazado 717612" d="M399.257,479.572l-21.045-92.964-1.923-8.5-3.857,2.28-1.448.855-5.862,24.044,8.045,2.011L367.8,417.352Z" transform="translate(-158.216 -163.889)" fill="#edeced"/>
    <path id="Trazado_717613" data-name="Trazado 717613" d="M458.878,405.455l-5.863-24.044-.064-.039-5.378-2.878-1.457,7.025-20.744,94.22L456.2,417.52l-5.364-10.055Z" transform="translate(-184.332 -164.057)" fill="#edeced"/>
    <path id="Trazado_717614" data-name="Trazado 717614" d="M222.972,290.337,126.043,309.9l24.778,122.776,96.929-19.562Z" transform="translate(-54.588 -125.846)" fill="#1c606c"/>
    <path id="Trazado_717615" data-name="Trazado 717615" d="M224.073,303.559l-86.727,17.5,22.17,109.853,86.727-17.5Z" transform="translate(-59.488 -131.577)" fill="#fff"/>
    <path id="Trazado_717616" data-name="Trazado 717616" d="M166.853,379.725l-6.463,1.3,1.3,6.461,6.463-1.3Z" transform="translate(-69.476 -164.59)" fill="#2e6a90"/>
    <path id="Trazado_717617" data-name="Trazado 717617" d="M236.826,358.322l-53.659,10.829,1.3,6.461,53.659-10.83Z" transform="translate(-79.349 -155.313)" fill="#2e6a90"/>
    <path id="Trazado_717618" data-name="Trazado 717618" d="M171.216,401.394l-6.46,1.3,1.305,6.461,6.46-1.305Z" transform="translate(-71.368 -173.983)" fill="#2e6a90"/>
    <path id="Trazado_717619" data-name="Trazado 717619" d="M234.435,382.4l-46.894,9.464,1.3,6.461,46.894-9.464Z" transform="translate(-81.245 -165.75)" fill="#2e6a90"/>
    <path id="Trazado_717620" data-name="Trazado 717620" d="M175.636,423.03l-6.462,1.305,1.3,6.46,6.462-1.305Z" transform="translate(-73.283 -183.361)" fill="#2e6a90"/>
    <path id="Trazado_717621" data-name="Trazado 717621" d="M234.349,405.651l-42.436,8.565,1.3,6.46,42.436-8.564Z" transform="translate(-83.14 -175.828)" fill="#2e6a90"/>
    <path id="Trazado_717622" data-name="Trazado 717622" d="M180.017,444.69,173.555,446l1.3,6.46,6.462-1.305Z" transform="translate(-75.182 -192.749)" fill="#2e6a90"/>
    <path id="Trazado_717623" data-name="Trazado 717623" d="M251.321,422.828l-55.033,11.107,1.3,6.46,55.033-11.106Z" transform="translate(-85.036 -183.273)" fill="#2e6a90"/>
    <path id="Trazado_717624" data-name="Trazado 717624" d="M185.664,472.838l-6.462,1.3-1.3-6.46,6.463-1.3Z" transform="translate(-77.064 -202.15)" fill="#2e6a90"/>
    <path id="Trazado_717625" data-name="Trazado 717625" d="M255.694,444.494,200.661,455.6l1.3,6.46L257,450.955Z" transform="translate(-86.931 -192.664)" fill="#2e6a90"/>
    <path id="Trazado_717626" data-name="Trazado 717626" d="M128.181,416.178a5.119,5.119,0,0,0,.728-.053l14.142-2.02a5.1,5.1,0,1,0-1.444-10.1l-14.142,2.02a5.1,5.1,0,0,0,.716,10.154Z" transform="translate(-53.306 -175.092)" fill="#e7c0a0"/>
    <path id="Trazado_717627" data-name="Trazado 717627" d="M126.412,435.956l13.853-1.731A5.1,5.1,0,0,0,139,424.1l-13.854,1.733a5.1,5.1,0,1,0,1.265,10.124Z" transform="translate(-52.262 -183.807)" fill="#e7c0a0"/>
    <path id="Trazado_717628" data-name="Trazado 717628" d="M145.249,452.057a5.1,5.1,0,0,0-1.88-10.03l-13.854,2.6a5.1,5.1,0,1,0,1.88,10.029l13.853-2.6Z" transform="translate(-54.289 -191.557)" fill="#e7c0a0"/>
    <path id="Trazado_717629" data-name="Trazado 717629" d="M155.821,464.013a4.567,4.567,0,0,0-5.258-3.757l-12.408,2.068a4.569,4.569,0,1,0,1.5,9.013l12.408-2.067a4.569,4.569,0,0,0,3.756-5.258Z" transform="translate(-58.183 -199.469)" fill="#e7c0a0"/>
    <path id="Trazado_717630" data-name="Trazado 717630" d="M522,395.786c3.467,7.342,1.333,15.629-4.766,18.51s-13.855-.736-17.323-8.079-1.334-15.63,4.766-18.51S518.533,388.444,522,395.786Z" transform="translate(-215.92 -167.621)" fill="#fcfcfd"/>
    <path id="Trazado_717631" data-name="Trazado 717631" d="M421.7,515.576a1.7,1.7,0,1,1-1.7-1.7A1.7,1.7,0,0,1,421.7,515.576Z" transform="translate(-181.268 -222.739)" fill="#3b3739"/>
    <path id="Trazado_717632" data-name="Trazado 717632" d="M430.812,516.475a1.7,1.7,0,1,1-1.7-1.7A1.7,1.7,0,0,1,430.812,516.475Z" transform="translate(-185.219 -223.129)" fill="#3b3739"/>
    <path id="Trazado_717633" data-name="Trazado 717633" d="M481.011,515.352c-7.3-5.089-22.3-7.651-35.883-8.375l-6.61,13.49,42.959,2.023-.466-7.136Z" transform="translate(-190.03 -219.747)" fill="#edeced"/>
    <path id="Trazado_717634" data-name="Trazado 717634" d="M360.27,400.675a36.734,36.734,0,0,0,1.269,9.086l2.619-.792c-.042-.14-4.146-14.2,3.468-24.439a21.84,21.84,0,0,1,4.135-4.207,31.688,31.688,0,0,1-6.353,2.607c-3.494,4.715-5.27,10.851-5.136,17.746Z" transform="translate(-156.111 -164.85)" fill="#13110c"/>
    <path id="Trazado_717635" data-name="Trazado 717635" d="M479.033,447.137l1.3.42-1.3-.422Z" transform="translate(-207.591 -193.81)" fill="#13110c"/>
    <path id="Trazado_717636" data-name="Trazado 717636" d="M473.322,382.56c-1.548-.617-4.363-1.769-6.256-2.713a22.042,22.042,0,0,1,3.9,4.114c4.924,6.762,5.461,15.6,5.045,21.817a56.831,56.831,0,0,1-2.161,12.192l1.3.421,1.3.421a58.413,58.413,0,0,0,2.283-12.778c.648-9.489-1.223-17.6-5.41-23.474Z" transform="translate(-202.404 -164.643)" fill="#13110c"/>
    <path id="Trazado_717637" data-name="Trazado 717637" d="M483.723,441.491a8.336,8.336,0,1,1-8.336-8.336A8.336,8.336,0,0,1,483.723,441.491Z" transform="translate(-202.398 -187.75)" fill="#edeced"/>
    <path id="Trazado_717638" data-name="Trazado 717638" d="M474.93,449.968a8.934,8.934,0,1,1,8.935-8.934A8.944,8.944,0,0,1,474.93,449.968Zm0-16.672a7.738,7.738,0,1,0,7.737,7.738A7.747,7.747,0,0,0,474.93,433.3Z" transform="translate(-201.94 -187.292)" fill="#13110c"/>
    <path id="Trazado_717639" data-name="Trazado 717639" d="M481.416,447.519a6.028,6.028,0,1,0-8.524,0A6.028,6.028,0,0,0,481.416,447.519Z" transform="translate(-204.163 -189.515)" fill="#bebbbb"/>
    <path id="Trazado_717640" data-name="Trazado 717640" d="M356.564,503.056c-6.645-.353-7.434-4.622-7.464-4.8l-4.464-26.7,2.027-.339,4.464,26.7c.02.1.624,2.828,5.545,3.089Z" transform="translate(-149.337 -204.248)" fill="#bebbbb"/>
    <path id="Trazado_717641" data-name="Trazado 717641" d="M392.091,494.824c6.169-2.5,5.526-6.789,5.5-6.97l-4.463-26.7-2.027.339,4.463,26.7c.014.1.33,2.876-4.239,4.724Z" transform="translate(-169.475 -199.888)" fill="#bebbbb"/>
    <path id="Trazado_717642" data-name="Trazado 717642" d="M365.688,521.551c1.952.388,3.331,1.726,3.08,2.989s-2.037,1.973-3.99,1.585-3.331-1.726-3.081-2.99,2.038-1.973,3.99-1.584Z" transform="translate(-156.719 -226.018)" fill="#312c2a"/>
    <path id="Trazado_717643" data-name="Trazado 717643" d="M386.389,517.876c-1.719,1-2.589,2.717-1.94,3.829s2.568,1.2,4.288.2,2.589-2.717,1.94-3.83-2.569-1.2-4.288-.2Z" transform="translate(-166.501 -224.17)" fill="#312c2a"/>
    <path id="Trazado_717644" data-name="Trazado 717644" d="M343.263,452.892a45.949,45.949,0,0,1-.213-11.858c1.045-8.394,4.856-13.376,11.023-14.407,14.621-2.445,18.58,20.2,18.741,21.162l-3.04.51c-.035-.206-3.6-20.569-15.193-18.631-4.75.794-7.6,4.747-8.472,11.746a43.4,43.4,0,0,0,.194,10.97Z" transform="translate(-148.523 -184.84)" fill="#312c2a"/>
    <path id="Trazado_717645" data-name="Trazado 717645" d="M207.422,332.327a9.794,9.794,0,1,0,11.43,7.822A9.794,9.794,0,0,0,207.422,332.327Zm8.56,10.364-4.457.836.835,4.455-3.878.727-.835-4.455-4.452.834-.727-3.876,4.453-.834-.835-4.451,3.878-.727.834,4.451,4.456-.836.726,3.876Z" transform="translate(-86.398 -143.972)" fill="#265e91"/>
    <path id="Trazado_717646" data-name="Trazado 717646" d="M214.669,295.532,197,299.654l-17.884,3.057a20.484,20.484,0,0,1,.216,11.663l19.136-3.864,1.387-.28L219.3,306.3a22.418,22.418,0,0,1-4.636-10.771Z" transform="translate(-77.593 -128.097)" fill="#345157"/>
    <path id="Trazado_717647" data-name="Trazado 717647" d="M219.1,312.468a2.116,2.116,0,0,1-1.655,2.495L180.7,322.38a2.117,2.117,0,1,1-.839-4.151l36.742-7.418A2.117,2.117,0,0,1,219.1,312.468Z" transform="translate(-77.179 -134.702)" fill="#2e6a90"/>
    <path id="Trazado_717648" data-name="Trazado 717648" d="M214.835,294.464a1.912,1.912,0,0,1-1.5,2.253l-33.19,6.7a1.912,1.912,0,1,1-.756-3.749l33.189-6.7A1.912,1.912,0,0,1,214.835,294.464Z" transform="translate(-77.047 -126.969)" fill="#2e6a90"/>
    <path id="Trazado_717649" data-name="Trazado 717649" d="M211.69,286.99A10.9,10.9,0,1,0,190.32,291.3l.636,3.149,21.37-4.314-.636-3.151Zm-10.544,2.845a4.234,4.234,0,1,1,3.312-4.987,4.236,4.236,0,0,1-3.312,4.987Z" transform="translate(-82.355 -120.604)" fill="#2e6a90"/>
    <path id="Trazado_717650" data-name="Trazado 717650" d="M391.34,473.48s1.523,1.71,5.691,2.847l-1.263,22.863a13.768,13.768,0,0,0-7.451.9l3.022-26.613Z" transform="translate(-168.27 -205.228)" fill="#e7c0a0"/>
    <path id="Trazado_717651" data-name="Trazado 717651" d="M409.117,472.66l-8.838-.429a2.218,2.218,0,0,0-2.323,2.108l-.564,11.617-.564,11.617a2.218,2.218,0,0,0,2.108,2.322l8.838.43a2.218,2.218,0,0,0,2.322-2.108l.564-11.617.564-11.618a2.217,2.217,0,0,0-2.106-2.322Z" transform="translate(-171.958 -204.686)" fill="#fff"/>
    <path id="Trazado_717652" data-name="Trazado 717652" d="M326.589,486.252a3.568,3.568,0,0,1,3.517-3.365.224.224,0,0,0-.014-.048l-3.33-.162a3.581,3.581,0,0,1,.347-7.153l-3.576-.173a3.58,3.58,0,1,1,.348-7.151l-14.3-.695a3.579,3.579,0,1,1,.347-7.15l2.284.111,19.172.933,2.584.126a1.1,1.1,0,0,0,.989-.773,1.069,1.069,0,0,0-.343-1.185c-3.3-2.8-6.7-2.8-6.517-6.589a2.482,2.482,0,0,1,3.792-1.994l23.568,12.375a1.792,1.792,0,0,1,.841,1.609c-.152,3.129-.688,14.163-1.015,20.888a5.368,5.368,0,0,1-5.624,5.1L329.991,490a3.588,3.588,0,0,1-3.4-3.748Z" transform="translate(-132.665 -195.315)" fill="#e7c0a0"/>
    <path id="Trazado_717653" data-name="Trazado 717653" d="M488.138,476.892c-.216,0-.431,0-.648-.014l-83.308-3.471,1.292-31L468.8,447.4l-13.63-32.28,26.622-10.142,20.126,49.283a15.513,15.513,0,0,1-13.781,22.629Z" transform="translate(-175.147 -175.537)" fill="#fcfcfd"/>
  </g>
</svg>
