<svg xmlns="http://www.w3.org/2000/svg" xmlns:xlink="http://www.w3.org/1999/xlink" width="98.955" height="99.541" viewBox="0 0 98.955 99.541">
  <defs>
    <radialGradient id="radial-gradient" cx="0.076" cy="0.019" r="1.465" gradientTransform="translate(0.001)" gradientUnits="objectBoundingBox">
      <stop offset="0" stop-color="#f6f6f7"/>
      <stop offset="0.477" stop-color="#f9f9fa"/>
      <stop offset="0.715" stop-color="#fff"/>
    </radialGradient>
    <filter id="Trazado_40937" x="0" y="0.684" width="98.955" height="98.856" filterUnits="userSpaceOnUse">
      <feOffset dy="7" input="SourceAlpha"/>
      <feGaussianBlur stdDeviation="2.5" result="blur"/>
      <feFlood flood-opacity="0.102"/>
      <feComposite operator="in" in2="blur"/>
      <feComposite in="SourceGraphic"/>
    </filter>
  </defs>
  <g id="Grupo_1027614" data-name="Grupo 1027614" transform="translate(6.414)">
    <g id="Grupo_997987" data-name="Grupo 997987" transform="translate(0)">
      <g id="Grupo_18423" data-name="Grupo 18423" transform="translate(0 0)">
        <g id="Grupo_18421" data-name="Grupo 18421">
          <g id="Grupo_18420" data-name="Grupo 18420">
            <g id="Grupo_18419" data-name="Grupo 18419">
              <path id="Trazado_40936" data-name="Trazado 40936" d="M279.664,2188.24a42.521,42.521,0,1,1-42.52-42.519A42.52,42.52,0,0,1,279.664,2188.24Z" transform="translate(-194.623 -2145.721)" fill="#fff"/>
            </g>
          </g>
        </g>
        <g transform="matrix(1, 0, 0, 1, -6.41, 0)" filter="url(#Trazado_40937)">
          <path id="Trazado_40937-2" data-name="Trazado 40937" d="M279.432,2187.987a42.52,42.52,0,1,0-42.52,42.521A42.352,42.352,0,0,0,279.432,2187.987Z" transform="translate(-187.98 -2145.47)" fill="url(#radial-gradient)"/>
        </g>
        <path id="Trazado_40938" data-name="Trazado 40938" d="M267.371,2186.006a32.456,32.456,0,1,0-32.456,32.456A32.336,32.336,0,0,0,267.371,2186.006Z" transform="translate(-192.266 -2143.346)" fill="none" stroke="#4db1f0" stroke-miterlimit="10" stroke-width="4"/>
        <g id="Grupo_18422" data-name="Grupo 18422" transform="translate(7.533 23.872)">
          <path id="Trazado_40939" data-name="Trazado 40939" d="M273.754,2164.488a42.526,42.526,0,0,1-73.209,42.344,42.391,42.391,0,0,0,73.209-42.344Z" transform="translate(-200.545 -2164.488)" fill="#eceef0"/>
        </g>
      </g>
    </g>
    <g id="Grupo_1027646" data-name="Grupo 1027646" transform="translate(25 15.566)">
      <g id="Grupo_1027642" data-name="Grupo 1027642" transform="translate(0.644 6.121)">
        <path id="Trazado_726112" data-name="Trazado 726112" d="M37.965,63.853A3.733,3.733,0,0,1,41.7,67.586V97.427a3.733,3.733,0,0,1-3.733,3.733H11.249a3.733,3.733,0,0,1-3.733-3.733V67.586a3.733,3.733,0,0,1,3.733-3.733H37.965Z" transform="translate(-7.516 -59.493)" fill="#4db1f0"/>
        <path id="Trazado_726113" data-name="Trazado 726113" d="M104.533,63.854v1.393a3.529,3.529,0,0,0,3.525,3.525h10.5a3.529,3.529,0,0,0,3.525-3.525V63.854Z" transform="translate(-96.215 -59.494)" fill="#6bd9e7"/>
        <path id="Trazado_726114" data-name="Trazado 726114" d="M269.9,158.945c-.08.034-.159.069-.239.106l-1.081.5-1.081-.5a7.3,7.3,0,0,0-7.545,12.386l7.063,5.455a2.551,2.551,0,0,0,2.883.164v-18.11Z" transform="translate(-235.714 -145.903)" fill="#6bd9e7"/>
        <path id="Trazado_726115" data-name="Trazado 726115" d="M65.456,93.922a1.156,1.156,0,0,1,1.155,1.155v29.842a1.156,1.156,0,0,1-1.155,1.155H38.74a1.156,1.156,0,0,1-1.155-1.155V95.077a1.156,1.156,0,0,1,1.155-1.155Z" transform="translate(-35.007 -86.984)" fill="#f9f7f8"/>
        <path id="Trazado_726116" data-name="Trazado 726116" d="M267.319,177.092V158.971a7.3,7.3,0,0,0-7.368,12.466l7.063,5.455a2.548,2.548,0,0,0,.305.2Z" transform="translate(-235.715 -145.903)" fill="#efedef"/>
        <path id="Trazado_726117" data-name="Trazado 726117" d="M106.931,93.922a3.53,3.53,0,0,0,3.319,2.339h10.5a3.53,3.53,0,0,0,3.319-2.339Z" transform="translate(-98.408 -86.984)" fill="#efedef"/>
        <path id="Trazado_726118" data-name="Trazado 726118" d="M136.882,14.911h-1.031a.216.216,0,0,1-.216-.216v-.636a1.065,1.065,0,0,0-1.065-1.065H128.7a1.065,1.065,0,0,0-1.065,1.065v.636a.216.216,0,0,1-.216.216h-1.031a1.806,1.806,0,0,0-1.806,1.806v2.031a1.806,1.806,0,0,0,1.806,1.806h10.5a1.806,1.806,0,0,0,1.806-1.806V16.716A1.806,1.806,0,0,0,136.882,14.911Z" transform="translate(-114.542 -12.994)" fill="#f9f7f8"/>
        <path id="Trazado_726119" data-name="Trazado 726119" d="M295.773,180.976a5.578,5.578,0,0,0-7.052-2.041l-1.467.685a.806.806,0,0,1-.681,0l-1.467-.685a5.577,5.577,0,0,0-7.6,6.952l.526.232.359.855-.218.2a5.567,5.567,0,0,0,1.168,1.228l7.063,5.455a.839.839,0,0,0,1.026,0l7.063-5.455a5.561,5.561,0,0,0,1.369-1.537l-.1-.24.3-.757.366-.291a5.569,5.569,0,0,0-.652-4.6Z" transform="translate(-254.051 -164.229)" fill="#ffa031"/>
      </g>
      <g id="Grupo_1027643" data-name="Grupo 1027643" transform="translate(0 5.476)">
        <path id="Trazado_726120" data-name="Trazado 726120" d="M34.826,84.092a.645.645,0,0,0-.644.644v5.82a3.092,3.092,0,0,1-3.088,3.088H4.377a3.092,3.092,0,0,1-3.088-3.088V60.714a3.092,3.092,0,0,1,3.088-3.088H8.1a.644.644,0,0,0,0-1.289H4.377A4.382,4.382,0,0,0,0,60.714V90.556a4.382,4.382,0,0,0,4.377,4.377H31.094a4.382,4.382,0,0,0,4.377-4.377v-5.82a.644.644,0,0,0-.644-.644Z" transform="translate(0 -51.977)"/>
        <path id="Trazado_726121" data-name="Trazado 726121" d="M312.348,57.626h3.726a3.092,3.092,0,0,1,3.088,3.088v4.024a.644.644,0,1,0,1.289,0V60.714a4.382,4.382,0,0,0-4.377-4.377h-3.726a.644.644,0,0,0,0,1.289Z" transform="translate(-284.981 -51.977)"/>
        <path id="Trazado_726122" data-name="Trazado 726122" d="M30.712,178.012a.644.644,0,0,0-.644.644V201.8a1.8,1.8,0,0,0,1.8,1.8H58.584a1.8,1.8,0,0,0,1.8-1.8V196a.644.644,0,0,0-1.289,0V201.8a.511.511,0,0,1-.51.51H31.867a.511.511,0,0,1-.51-.51V178.656a.645.645,0,0,0-.644-.644Z" transform="translate(-27.49 -163.22)"/>
        <path id="Trazado_726123" data-name="Trazado 726123" d="M35.757,86.4h-3.89a1.8,1.8,0,0,0-1.8,1.8v3.953a.644.644,0,0,0,1.289,0V88.2a.511.511,0,0,1,.51-.51h3.89a.644.644,0,0,0,0-1.289Z" transform="translate(-27.49 -79.467)"/>
        <path id="Trazado_726124" data-name="Trazado 726124" d="M310.433,87.694h3.89a.511.511,0,0,1,.51.51v4.048a.644.644,0,0,0,1.289,0V88.2a1.8,1.8,0,0,0-1.8-1.8h-3.89a.644.644,0,1,0,0,1.289Z" transform="translate(-283.23 -79.467)"/>
        <path id="Trazado_726125" data-name="Trazado 726125" d="M119.511,14.324h3a.644.644,0,0,0,0-1.289h-3a1.163,1.163,0,0,1-1.162-1.161V9.843a1.163,1.163,0,0,1,1.162-1.162h1.031a.861.861,0,0,0,.86-.86V7.185a.421.421,0,0,1,.42-.42H127.7a.421.421,0,0,1,.42.42v.636a.861.861,0,0,0,.86.86h1.031a1.163,1.163,0,0,1,1.162,1.162v2.031a1.163,1.163,0,0,1-1.162,1.161h-4.755a.644.644,0,0,0,0,1.289h4.755a2.453,2.453,0,0,0,2.45-2.45V9.843a2.453,2.453,0,0,0-2.45-2.45h-.6V7.185A1.711,1.711,0,0,0,127.7,5.476h-5.874a1.711,1.711,0,0,0-1.709,1.709v.207h-.6a2.453,2.453,0,0,0-2.45,2.45v2.031a2.453,2.453,0,0,0,2.45,2.45Z" transform="translate(-107.025 -5.476)"/>
        <path id="Trazado_726126" data-name="Trazado 726126" d="M180.888,54.373a.645.645,0,0,0-.644-.644h-4.087a.644.644,0,1,0,0,1.289h4.087A.644.644,0,0,0,180.888,54.373Z" transform="translate(-160.465 -49.592)"/>
        <path id="Trazado_726127" data-name="Trazado 726127" d="M289.434,173.806a6.243,6.243,0,0,0-7.867-2.277l-1.467.685a.16.16,0,0,1-.136,0l-1.467-.685a6.222,6.222,0,0,0-6.434,10.563l7.063,5.455a1.484,1.484,0,0,0,1.814,0l2.694-2.08a.645.645,0,0,0-.788-1.02l-2.694,2.08a.2.2,0,0,1-.238,0l-7.063-5.455a4.943,4.943,0,0,1-.75-.718h2.7a.644.644,0,0,0,.621-.473l.726-2.624,2.017,5.595a.645.645,0,0,0,.6.426h0a.644.644,0,0,0,.6-.42l1.915-5.161.579,1.893a.644.644,0,0,0,.616.456H288.2a4.938,4.938,0,0,1-.991,1.027l-2.178,1.682a.645.645,0,1,0,.788,1.02L288,182.091a6.222,6.222,0,0,0,1.433-8.286Zm-6.47,4.95-1-3.26a.644.644,0,0,0-1.221-.036l-1.965,5.3-2.107-5.843a.644.644,0,0,0-1.227.047l-1.135,4.1h-3a4.933,4.933,0,0,1,6.639-6.368l1.467.685a1.446,1.446,0,0,0,1.226,0l1.467-.685a4.931,4.931,0,0,1,6.756,6.059h-5.9Z" transform="translate(-246.525 -156.763)"/>
        <path id="Trazado_726128" data-name="Trazado 726128" d="M76.682,149.384h3.028a1.335,1.335,0,0,0,1.333-1.333v-3.339a1.335,1.335,0,0,0-1.333-1.333H76.682a1.335,1.335,0,0,0-1.333,1.333v3.339A1.335,1.335,0,0,0,76.682,149.384Zm-.044-4.673a.044.044,0,0,1,.044-.044h3.028a.044.044,0,0,1,.044.044v3.339a.044.044,0,0,1-.044.044H76.682a.044.044,0,0,1-.044-.044Z" transform="translate(-68.889 -131.555)"/>
        <path id="Trazado_726129" data-name="Trazado 726129" d="M75.349,247a1.335,1.335,0,0,0,1.333,1.333h3.028A1.335,1.335,0,0,0,81.044,247v-3.339a1.335,1.335,0,0,0-1.333-1.333H76.682a1.335,1.335,0,0,0-1.333,1.333Zm1.289-3.339a.044.044,0,0,1,.044-.044h3.028a.044.044,0,0,1,.044.044V247a.044.044,0,0,1-.044.044H76.682a.044.044,0,0,1-.044-.044Z" transform="translate(-68.889 -222.02)"/>
        <path id="Trazado_726130" data-name="Trazado 726130" d="M75.349,345.946a1.335,1.335,0,0,0,1.333,1.333h3.028a1.335,1.335,0,0,0,1.333-1.333v-3.339a1.335,1.335,0,0,0-1.333-1.333H76.682a1.335,1.335,0,0,0-1.333,1.333Zm1.289-3.339a.044.044,0,0,1,.044-.044h3.028a.044.044,0,0,1,.044.044v3.339a.044.044,0,0,1-.044.044H76.682a.044.044,0,0,1-.044-.044Z" transform="translate(-68.889 -312.485)"/>
        <path id="Trazado_726131" data-name="Trazado 726131" d="M157.214,148.38h7.5a.644.644,0,1,0,0-1.289h-7.5a.644.644,0,0,0,0,1.289Z" transform="translate(-143.147 -134.95)"/>
        <path id="Trazado_726132" data-name="Trazado 726132" d="M157.214,196.5h7.5a.644.644,0,1,0,0-1.289h-7.5a.644.644,0,0,0,0,1.289Z" transform="translate(-143.147 -178.943)"/>
        <path id="Trazado_726133" data-name="Trazado 726133" d="M157.214,247.064h7.5a.644.644,0,1,0,0-1.289h-7.5a.644.644,0,0,0,0,1.289Z" transform="translate(-143.147 -225.173)"/>
        <path id="Trazado_726134" data-name="Trazado 726134" d="M165.743,293.894h-8.528a.644.644,0,0,0,0,1.289h8.528a.644.644,0,0,0,0-1.289Z" transform="translate(-143.147 -269.167)"/>
        <path id="Trazado_726135" data-name="Trazado 726135" d="M169.079,344.46H157.214a.644.644,0,0,0,0,1.289h11.865a.644.644,0,1,0,0-1.289Z" transform="translate(-143.147 -315.398)"/>
        <path id="Trazado_726136" data-name="Trazado 726136" d="M171.8,392.578H157.214a.644.644,0,0,0,0,1.289H171.8a.644.644,0,0,0,0-1.289Z" transform="translate(-143.147 -359.39)"/>
      </g>
    </g>
  </g>
</svg>
