<svg xmlns="http://www.w3.org/2000/svg" width="345.663" height="339.832" viewBox="0 0 345.663 339.832">
  <g id="Grupo_1027706" data-name="Grupo 1027706" transform="translate(-3.624 -7.88)">
    <path id="Trazado_726292" data-name="Trazado 726292" d="M401.206,43.887c-5.107-1.682-9.1-2.769-11.767-14.273a3.646,3.646,0,0,0-7.1,0c-2.612,11.249-6.254,12.453-11.767,14.274a3.646,3.646,0,0,0,0,6.918c9.157,3.026,10.2,7.5,11.767,14.273a3.644,3.644,0,0,0,7.1,0c2.609-11.247,6.45-12.517,11.767-14.273A3.647,3.647,0,0,0,401.206,43.887Z" transform="translate(-114.871 -5.965)"/>
    <path id="Trazado_726293" data-name="Trazado 726293" d="M397.08,54.064a18.057,18.057,0,0,0-5.383,6.081,18.881,18.881,0,0,0-5.711-6.026,17.984,17.984,0,0,0,5.643-6.355A18.624,18.624,0,0,0,397.08,54.064Z" transform="translate(-120.514 -12.571)" fill="#f0c020"/>
    <path id="Trazado_726294" data-name="Trazado 726294" d="M125.032,43.887c-5.107-1.682-9.1-2.769-11.767-14.273a3.646,3.646,0,0,0-7.1,0C103.557,40.863,99.915,42.067,94.4,43.888a3.646,3.646,0,0,0,0,6.918c9.157,3.026,10.2,7.5,11.767,14.273a3.644,3.644,0,0,0,7.1,0c2.609-11.247,6.45-12.517,11.767-14.273A3.647,3.647,0,0,0,125.032,43.887Z" transform="translate(-27.826 -5.965)"/>
    <path id="Trazado_726295" data-name="Trazado 726295" d="M120.908,54.064a18.058,18.058,0,0,0-5.383,6.081,18.882,18.882,0,0,0-5.711-6.026,17.984,17.984,0,0,0,5.643-6.355A18.624,18.624,0,0,0,120.908,54.064Z" transform="translate(-33.469 -12.571)" fill="#f0c020"/>
    <path id="Trazado_726296" data-name="Trazado 726296" d="M269.928,288.536V318.48a33.1,33.1,0,0,1-.551,6.247c-3.386,19.547-19.439,29.447-35.453,29.447-15.893,0-31.745-9.726-35.2-29.447a32.79,32.79,0,0,1-.578-6.247V288.536Z" transform="translate(-61.311 -88.458)" fill="#ffb69f"/>
    <path id="Trazado_726297" data-name="Trazado 726297" d="M192.307,331.881H188.13a10.322,10.322,0,1,1,0-20.643h3.6V325.63a33.232,33.232,0,0,0,.574,6.251Z" transform="translate(-54.895 -95.613)" fill="#ffb69f"/>
    <path id="Trazado_726298" data-name="Trazado 726298" d="M316.679,321.552a10.324,10.324,0,0,1-10.322,10.322h-4.194a33.485,33.485,0,0,0,.548-6.251V311.214h3.646A10.329,10.329,0,0,1,316.679,321.552Z" transform="translate(-94.095 -95.606)" fill="#ffb69f"/>
    <path id="Trazado_726299" data-name="Trazado 726299" d="M274.415,267.09l-4.487,4.554H198.15v-10.4a16.291,16.291,0,0,1,16.3-16.282h38.7a12.325,12.325,0,0,0,12.1-10.022l6.5,4.447a18.141,18.141,0,0,1,2.658,27.7Z" transform="translate(-61.311 -71.566)" fill="#7c7b7a"/>
    <path id="Trazado_726300" data-name="Trazado 726300" d="M294.581,384.4v33.34h-28.2v45.218H172.011V433.679H142.564V423.213A38.812,38.812,0,0,1,181.377,384.4Z" transform="translate(-43.792 -118.673)" fill="#115089"/>
    <path id="Trazado_726302" data-name="Trazado 726302" d="M364.55,391.781V316.774a14.726,14.726,0,1,1,29.453,0v59.794a15.213,15.213,0,0,1-15.213,15.213Z" transform="translate(-113.758 -92.717)" fill="#ffb69f"/>
    <path id="Trazado_726303" data-name="Trazado 726303" d="M142.564,456.354H172.01v29.28H142.564Z" transform="translate(-43.792 -141.351)" fill="#ffb69f"/>
    <path id="Trazado_726304" data-name="Trazado 726304" d="M106.627,129.656A57.434,57.434,0,1,0,97.8,218.11l20.881,4.828-4.828-20.881A57.449,57.449,0,0,0,106.627,129.656Z" transform="translate(-1.563 -33.08)" fill="#ffa031"/>
    <path id="Trazado_726305" data-name="Trazado 726305" d="M108.267,163.9a12.477,12.477,0,0,0-11.7-8.188H85.031A12.472,12.472,0,0,0,72.6,167.527H65.367a12.471,12.471,0,0,0-12.435-11.819H41.393a12.467,12.467,0,0,0-11.2,7.029A13.713,13.713,0,0,0,18,176.347V190.13a13.706,13.706,0,0,0,11.7,13.533,12.475,12.475,0,0,0,11.7,8.189H52.934a12.471,12.471,0,0,0,12.435-11.834H72.6a12.471,12.471,0,0,0,12.435,11.834H96.572a12.473,12.473,0,0,0,11.2-7.029,13.713,13.713,0,0,0,12.191-13.609V177.43a13.706,13.706,0,0,0-11.7-13.535Z" transform="translate(-4.531 -46.593)" fill="#e8a61e"/>
    <path id="Trazado_726306" data-name="Trazado 726306" d="M352.507,129.656a57.434,57.434,0,1,1,8.823,88.454l-20.881,4.828,4.828-20.881a57.449,57.449,0,0,1,7.23-72.4Z" transform="translate(-104.661 -33.08)" fill="#ffa031"/>
    <path id="Trazado_726307" data-name="Trazado 726307" d="M412.4,147.726a7.83,7.83,0,0,1,1.933-.959,9.59,9.59,0,1,0-6.807-17.93,27.13,27.13,0,0,0-6.021,3.1,20.432,20.432,0,0,0-12.853-4.542h-6.607a9.587,9.587,0,0,0-9.587,9.587c0,2.893-.252,6.729,2.186,11.593-15.6,4.754-23.622,23.318-18.25,43,5.722,20.96,24.59,34.912,41.8,29.624a3.2,3.2,0,0,1,1.853,0c17.188,5.276,36.065-8.646,41.793-29.625,6.934-25.39-8.411-46.707-29.439-43.847Z" transform="translate(-110.663 -37.669)" fill="#e8a61e"/>
    <path id="Trazado_726308" data-name="Trazado 726308" d="M394.626,141.4h6.607a10.958,10.958,0,0,1,10.957,10.957v2.423h-6.607a10.958,10.958,0,0,1-10.957-10.957Z" transform="translate(-123.237 -42.082)" fill="#13bf6d"/>
    <path id="Trazado_726309" data-name="Trazado 726309" d="M423.729,171.006c-7.029-1.409-14.495,1.974-20.188,8.284-5.694-6.31-13.159-9.693-20.188-8.284-11.486,2.3-17.434,16.492-13.284,31.689,4.383,16.053,18.165,26.541,29.735,22.984a12.787,12.787,0,0,1,7.481,0c11.556,3.546,25.341-6.913,29.731-22.985,4.147-15.2-1.8-29.384-13.285-31.688Z" transform="translate(-115.08 -51.315)" fill="#065958"/>
    <path id="Trazado_726310" data-name="Trazado 726310" d="M286.442,69.284a56.4,56.4,0,1,0-67.548,55.294l11.147,17.852,11.147-17.852a56.416,56.416,0,0,0,45.253-55.294Z" transform="translate(-53.587 -1.577)" fill="#4db1f0"/>
    <path id="Trazado_726311" data-name="Trazado 726311" d="M110.681,177.734h-6.817v-5.147a2.879,2.879,0,0,0-2.879-2.879H89.445a2.879,2.879,0,0,0-2.879,2.879v8.94H60.225v-8.94a2.879,2.879,0,0,0-2.879-2.879H45.806a2.879,2.879,0,0,0-2.879,2.879v4.062H36.109A4.109,4.109,0,0,0,32,180.758v13.783a4.109,4.109,0,0,0,4.109,4.109h6.818V203.8a2.879,2.879,0,0,0,2.879,2.879H57.346a2.879,2.879,0,0,0,2.879-2.879v-8.953H86.565V203.8a2.879,2.879,0,0,0,2.879,2.879h11.541a2.879,2.879,0,0,0,2.879-2.879v-4.062h6.818a4.109,4.109,0,0,0,4.109-4.109V181.843a4.109,4.109,0,0,0-4.109-4.109Z" transform="translate(-8.944 -51.005)" fill="#efefef"/>
    <path id="Trazado_726313" data-name="Trazado 726313" d="M271.623,87.01l-33.364,33.364L204.9,87.021a17.694,17.694,0,0,1,0-25.025l.005-.005a17.694,17.694,0,0,1,25.023,0l8.337,8.337,8.341-8.341A17.694,17.694,0,1,1,271.623,87.01Z" transform="translate(-61.804 -15.42)" fill="#ffa031"/>
    <path id="Trazado_726314" data-name="Trazado 726314" d="M306.32,445.231Z" transform="translate(-93.246 -132.442)" fill="#c5e5fe"/>
    <path id="Trazado_726316" data-name="Trazado 726316" d="M252,111.3a3.421,3.421,0,0,1,0-4.842l2.9-2.9a3.424,3.424,0,1,1,4.842,4.842l-2.9,2.9a3.424,3.424,0,0,1-4.842,0Zm12.591-12.59a3.421,3.421,0,0,1,0-4.842l11.09-11.09a3.424,3.424,0,0,1,4.842,4.842l-11.09,11.09A3.424,3.424,0,0,1,264.593,98.706Z" transform="translate(-77.968 -23.289)" fill="#ffcbc3"/>
    <path id="Trazado_726317" data-name="Trazado 726317" d="M257.844,348.717a3.43,3.43,0,0,0-2.013-4.41,3.5,3.5,0,0,0-4.4,2.013,7.742,7.742,0,0,1-14.491,0,3.508,3.508,0,0,0-4.41-2.013,3.423,3.423,0,0,0-2.015,4.4,14.59,14.59,0,0,0,27.326.014Z" transform="translate(-71.445 -105.972)"/>
    <path id="Trazado_726318" data-name="Trazado 726318" d="M228.028,313.75a3.424,3.424,0,0,0-6.848,0v2.112a3.424,3.424,0,0,0,6.848,0Z" transform="translate(-68.57 -95.326)"/>
    <path id="Trazado_726319" data-name="Trazado 726319" d="M273.378,319.288a3.424,3.424,0,0,0,3.424-3.424v-2.112a3.424,3.424,0,0,0-6.848,0v2.112A3.424,3.424,0,0,0,273.378,319.288Z" transform="translate(-83.943 -95.326)"/>
    <path id="Trazado_726320" data-name="Trazado 726320" d="M248.99,329.9a3.424,3.424,0,0,0,3.424-3.424v-9.642a3.424,3.424,0,1,0-6.848,0v9.642A3.424,3.424,0,0,0,248.99,329.9Z" transform="translate(-76.256 -96.298)"/>
    <path id="Trazado_726321" data-name="Trazado 726321" d="M137.564,374.531v39.741a3.424,3.424,0,1,0,6.848,0V388.417h22.6v25.855a3.424,3.424,0,1,0,6.848,0c0-13.674,0-40.475,0-45.217a3.424,3.424,0,1,0-6.848,0v12.514h-22.6v-7.037A35.428,35.428,0,0,1,179.8,339.143h109.78v26.492H264.8a3.424,3.424,0,0,0-3.424,3.424v45.218a3.424,3.424,0,0,0,6.848,0V372.483l39.022,0a18.658,18.658,0,0,0,18.635-18.593c0-.012,0-.023,0-.034v-15.97a3.424,3.424,0,0,0-6.848,0v15.962a11.8,11.8,0,0,1-11.788,11.787H296.433V294.051a11.3,11.3,0,1,1,22.6,0v16.44a3.424,3.424,0,1,0,6.848,0V294.055c0-.008,0-.015,0-.022a18.15,18.15,0,0,0-36.3.019v38.24H237.671a36.916,36.916,0,0,0,15.393-22.611c10.044,0,15.162-6.758,15.162-13.746a13.77,13.77,0,0,0-13.747-13.762h-.221v-10.7l3.5-3.55a21.566,21.566,0,0,0-3.161-32.936l-6.5-4.447a3.426,3.426,0,0,0-5.3,2.187,8.9,8.9,0,0,1-8.741,7.237c-.01,0-.018,0-.026,0H213.576a3.424,3.424,0,1,0,0,6.848h20.475c.026,0,.051-.007.077-.008a15.763,15.763,0,0,0,13.715-8.141l2.887,1.976a14.717,14.717,0,0,1,2.149,22.467l-3.48,3.534H182.477v-6.974a12.831,12.831,0,0,1,6.006-10.883,3.425,3.425,0,0,0,1.082-4.725,3.524,3.524,0,0,0-4.725-1.068,19.579,19.579,0,0,0-9.211,16.76v22.437h-.179a13.77,13.77,0,0,0-13.762,13.747c0,6.529,4.666,13.746,15.169,13.746a37.173,37.173,0,0,0,15.33,22.611H179.8a42.285,42.285,0,0,0-42.237,42.238Zm116.7-85.509a6.91,6.91,0,1,1-.1,13.811c.036-.5.1-2.487.1-2.827V289.022Zm-85.725,6.914a6.913,6.913,0,0,1,7.093-6.9v10.975c0,.889.049,2.048.105,2.821a6.923,6.923,0,0,1-7.2-6.9Zm13.947,4.071c0-22.984-.005-5.492-.005-26.515h64.93v26.522c0,18.871-14.5,32.27-32.579,32.27-18.987,0-32.345-14.23-32.345-32.277Z" transform="translate(-42.216 -69.989)"/>
    <circle id="Elipse_8548" data-name="Elipse 8548" cx="3.424" cy="3.424" r="3.424" transform="translate(276.822 250.771)"/>
    <circle id="Elipse_8549" data-name="Elipse 8549" cx="3.424" cy="3.424" r="3.424" transform="translate(154.24 169.976)"/>
    <path id="Trazado_726322" data-name="Trazado 726322" d="M64.534,229.532a60.54,60.54,0,0,0,32.349-9.323l19.467,4.5a3.426,3.426,0,0,0,4.108-4.108l-4.5-19.467a60.917,60.917,0,1,0-51.424,28.4ZM26.263,130.514a54.013,54.013,0,0,1,83.183,68.08,3.416,3.416,0,0,0-.485,2.669l3.591,15.54-15.539-3.593a3.423,3.423,0,0,0-2.669.485,54.013,54.013,0,0,1-68.082-83.182Z" transform="translate(0 -31.517)"/>
    <path id="Trazado_726323" data-name="Trazado 726323" d="M340.05,201.136l-4.5,19.467a3.426,3.426,0,0,0,4.108,4.108l19.467-4.5a60.854,60.854,0,1,0-19.075-19.074Zm13.316-70.621a54.01,54.01,0,1,1,8.3,83.182,3.419,3.419,0,0,0-2.669-.485L343.459,216.8l3.591-15.54a3.429,3.429,0,0,0-.485-2.669,54.122,54.122,0,0,1,6.8-68.08Z" transform="translate(-103.098 -31.517)"/>
    <path id="Trazado_726324" data-name="Trazado 726324" d="M399.228,218.144a9.383,9.383,0,0,1,5.469,0c13.754,4.223,29.233-7.763,34.04-25.357,4.761-17.445-2.619-33.283-15.915-35.949-5.742-1.152-11.917.367-17.437,4.117v-3.6a14.355,14.355,0,0,1,9.69-13.546,3.423,3.423,0,1,0-2.332-6.437,21.067,21.067,0,0,0-8.92,6.035A14.372,14.372,0,0,0,391.5,136.4h-6.607a3.424,3.424,0,0,0-3.424,3.424v2.423a14.4,14.4,0,0,0,14.381,14.381h2.719c-.008.244-.029.485-.029.73v3.6c-5.521-3.75-11.7-5.27-17.437-4.117-13.316,2.668-20.671,18.527-15.915,35.949,4.817,17.646,20.323,29.57,34.044,25.355Zm-10.849-74.9h3.116a7.543,7.543,0,0,1,7.466,6.532h-3.116A7.543,7.543,0,0,1,388.379,143.244Zm-5.936,20.31c6.322-1.267,12.655,2.434,16.974,7.219a3.43,3.43,0,0,0,5.085,0c5.083-5.633,11.43-8.331,16.974-7.219,9.578,1.92,14.206,14.422,10.653,27.43-3.9,14.281-15.893,23.543-25.423,20.613a16.109,16.109,0,0,0-9.492,0c-9.546,2.93-21.531-6.344-25.425-20.613-3.553-13.009,1.077-25.508,10.653-27.43Z" transform="translate(-113.5 -40.506)"/>
    <path id="Trazado_726325" data-name="Trazado 726325" d="M215.182,126.045l10.379,16.621a3.425,3.425,0,0,0,5.807,0l10.379-16.621A59.828,59.828,0,0,0,228.509,7.884c-.015,0-.029,0-.044,0a59.735,59.735,0,0,0-19.956,3.41,3.422,3.422,0,0,0,2.286,6.451,52.85,52.85,0,0,1,17.641-3.012l.027,0a52.979,52.979,0,0,1,10.475,104.911,3.417,3.417,0,0,0-2.231,1.544l-8.242,13.2-8.244-13.2a3.417,3.417,0,0,0-2.231-1.544,53.09,53.09,0,0,1-42.5-51.935c0-.007,0-.014,0-.022a52.834,52.834,0,0,1,14.039-35.906,3.39,3.39,0,0,0-.192-4.835,3.512,3.512,0,0,0-4.835.192A59.583,59.583,0,0,0,168.638,67.7c0,.011,0,.022,0,.033A59.972,59.972,0,0,0,215.182,126.045Z" transform="translate(-52.01)"/>
    <path id="Trazado_726326" data-name="Trazado 726326" d="M210.977,27.762a3.416,3.416,0,0,0,.972-4.739,3.5,3.5,0,0,0-4.725-.986.013.013,0,0,0-.014.014,3.421,3.421,0,1,0,3.766,5.711Z" transform="translate(-63.681 -4.295)"/>
    <path id="Trazado_726327" data-name="Trazado 726327" d="M200.9,87.866l33.363,33.353a3.424,3.424,0,0,0,4.842,0l33.363-33.364A21.118,21.118,0,1,0,242.6,57.99l-5.92,5.92-5.917-5.915A21.121,21.121,0,1,0,200.9,87.866Zm4.844-25.03a14.26,14.26,0,0,1,20.18,0l8.338,8.337a3.424,3.424,0,0,0,4.842,0l8.341-8.341a14.27,14.27,0,0,1,20.18,20.182l-30.941,30.941L205.739,83.023a14.262,14.262,0,0,1,0-20.187Z" transform="translate(-60.225 -13.844)"/>
    <g id="Grupo_1027705" data-name="Grupo 1027705" transform="translate(23.056 118.703)">
      <path id="Trazado_726328" data-name="Trazado 726328" d="M73.216,186.966H99.555v13.316H73.216Z" transform="translate(-44.991 -175.147)" fill="#efefef"/>
      <path id="Trazado_726329" data-name="Trazado 726329" d="M65.254,172.587V203.8a2.879,2.879,0,0,1-2.879,2.879H50.835a2.879,2.879,0,0,1-2.879-2.879V172.587a2.879,2.879,0,0,1,2.879-2.879H62.376a2.879,2.879,0,0,1,2.879,2.879Z" transform="translate(-37.029 -169.708)" fill="#efefef"/>
      <path id="Trazado_726330" data-name="Trazado 726330" d="M42.927,201.845H36.109A4.109,4.109,0,0,1,32,197.736V183.955a4.109,4.109,0,0,1,4.109-4.109h6.818Z" transform="translate(-32 -172.903)" fill="#efefef"/>
      <path id="Trazado_726331" data-name="Trazado 726331" d="M111.678,203.8v-31.21a2.879,2.879,0,0,1,2.879-2.879H126.1a2.879,2.879,0,0,1,2.879,2.879V203.8a2.879,2.879,0,0,1-2.879,2.879H114.557a2.877,2.877,0,0,1-2.879-2.878Z" transform="translate(-57.113 -169.708)" fill="#efefef"/>
      <path id="Trazado_726332" data-name="Trazado 726332" d="M136.94,181.428h6.818a4.109,4.109,0,0,1,4.109,4.109V199.32a4.109,4.109,0,0,1-4.109,4.109H136.94Z" transform="translate(-65.075 -173.402)" fill="#efefef"/>
    </g>
    <path id="Trazado_726333" data-name="Trazado 726333" d="M109.105,172.735h-3.393v-1.722a6.31,6.31,0,0,0-6.3-6.3H87.868a6.311,6.311,0,0,0-6.3,6.3v5.516H62.074v-5.516a6.31,6.31,0,0,0-6.3-6.3H44.23a6.311,6.311,0,0,0-6.3,6.3v.638H34.533A7.542,7.542,0,0,0,27,179.184v13.783a7.542,7.542,0,0,0,7.533,7.533h3.394v1.722a6.31,6.31,0,0,0,6.3,6.3H55.772a6.311,6.311,0,0,0,6.3-6.3v-5.529h19.49v5.529a6.31,6.31,0,0,0,6.3,6.3H99.411a6.311,6.311,0,0,0,6.3-6.3v-.638h3.394a7.542,7.542,0,0,0,7.533-7.533V180.268a7.548,7.548,0,0,0-7.537-7.533ZM34.533,193.65a.686.686,0,0,1-.685-.685V179.184a.686.686,0,0,1,.685-.685h3.394v15.152H34.533Zm20.692,8.026H44.774V171.558H55.225Zm6.848-11.832v-6.467h19.49v6.467Zm36.791,11.832H88.413V171.558H98.865Zm10.926-7.627a.686.686,0,0,1-.685.685h-3.393V179.583h3.394a.686.686,0,0,1,.685.685v13.781Z" transform="translate(-7.368 -49.43)"/>
  </g>
</svg>
