<svg xmlns="http://www.w3.org/2000/svg" width="296.462" height="298.284" viewBox="0 0 296.462 298.284">
  <g id="Grupo_1027704" data-name="Grupo 1027704" transform="translate(-8 -4.952)">
    <g id="Grupo_1027702" data-name="Grupo 1027702" transform="translate(12.782 11.555)">
      <g id="Grupo_1027679" data-name="Grupo 1027679" transform="translate(0 66.943)">
        <path id="Trazado_726209" data-name="Trazado 726209" d="M130.759,128v28.69H25.563A9.591,9.591,0,0,1,16,147.127v-9.563A9.591,9.591,0,0,1,25.563,128h105.2Z" transform="translate(-16 -128)" fill="#d3a06c"/>
      </g>
      <g id="Grupo_1027680" data-name="Grupo 1027680" transform="translate(172.139 66.943)">
        <path id="Trazado_726210" data-name="Trazado 726210" d="M313.563,128h9.563a9.591,9.591,0,0,1,9.563,9.563v9.563a9.591,9.591,0,0,1-9.563,9.563H304V128Z" transform="translate(-304 -128)" fill="#d3a06c"/>
      </g>
      <g id="Grupo_1027681" data-name="Grupo 1027681" transform="translate(172.139 95.633)">
        <path id="Trazado_726211" data-name="Trazado 726211" d="M304,176h19.127v28.69H304Z" transform="translate(-304 -176)" fill="#dfb28b"/>
      </g>
      <g id="Grupo_1027682" data-name="Grupo 1027682" transform="translate(133.886 95.633)">
        <path id="Trazado_726212" data-name="Trazado 726212" d="M259.127,185.563V204.69H240V185.563A9.633,9.633,0,0,1,249.563,176,9.591,9.591,0,0,1,259.127,185.563Z" transform="translate(-240 -176)" fill="#dfb28b"/>
      </g>
      <g id="Grupo_1027683" data-name="Grupo 1027683" transform="translate(9.563 95.633)">
        <path id="Trazado_726213" data-name="Trazado 726213" d="M137.2,176v28.69H32V176Z" transform="translate(-32 -176)" fill="#dfb28b"/>
      </g>
      <g id="Grupo_1027684" data-name="Grupo 1027684" transform="translate(9.563 172.139)">
        <path id="Trazado_726214" data-name="Trazado 726214" d="M154.936,368.5l28.642,11.428a7.974,7.974,0,0,0,2.965.574H118.07a9.591,9.591,0,0,0-9.563,9.563H70.253A38.243,38.243,0,0,1,32,351.816V304H137.2v4.782a9.633,9.633,0,0,0,9.563,9.563,9.591,9.591,0,0,0,9.563-9.563V304H213.7v47.816H194.576V331.16a8.019,8.019,0,0,0-11-7.459L137.2,342.253a28.278,28.278,0,0,0,17.74,26.251Z" transform="translate(-32 -304)" fill="#dfb28b"/>
      </g>
      <g id="Grupo_1027685" data-name="Grupo 1027685" transform="translate(133.886 124.323)">
        <path id="Trazado_726215" data-name="Trazado 726215" d="M297.38,224v47.816H240V224h19.127v19.127a9.633,9.633,0,0,0,9.563,9.563,9.591,9.591,0,0,0,9.563-9.563V224Z" transform="translate(-240 -224)" fill="#fcd770"/>
      </g>
      <g id="Grupo_1027686" data-name="Grupo 1027686" transform="translate(9.563 124.323)">
        <path id="Trazado_726216" data-name="Trazado 726216" d="M32,224H137.2v47.816H32Z" transform="translate(-32 -224)" fill="#fcd770"/>
      </g>
      <g id="Grupo_1027687" data-name="Grupo 1027687" transform="translate(28.69)">
        <path id="Trazado_726217" data-name="Trazado 726217" d="M121.38,20.782v9.563a4.8,4.8,0,0,1-4.782,4.782H68.782A4.8,4.8,0,0,1,64,30.345V20.782A4.8,4.8,0,0,1,68.782,16H116.6A4.8,4.8,0,0,1,121.38,20.782Z" transform="translate(-64 -16)" fill="#ccd1d9"/>
      </g>
      <g id="Grupo_1027688" data-name="Grupo 1027688" transform="translate(19.127 19.127)">
        <path id="Trazado_726218" data-name="Trazado 726218" d="M124.506,87.5v8.32H48V87.5a19.241,19.241,0,0,1,9.276-16.4l14.632-8.75V48H100.6V62.345L115.23,71.1A19.241,19.241,0,0,1,124.506,87.5Z" transform="translate(-48 -48)" fill="#e6e9ed"/>
      </g>
      <g id="Grupo_1027689" data-name="Grupo 1027689" transform="translate(105.196 38.253)">
        <path id="Trazado_726219" data-name="Trazado 726219" d="M244.6,80l23.908,28.69H192L215.908,80Z" transform="translate(-192 -80)" fill="#065958"/>
      </g>
      <g id="Grupo_1027690" data-name="Grupo 1027690" transform="translate(114.759)">
        <path id="Trazado_726220" data-name="Trazado 726220" d="M236.69,39.908,255.816,16l19.127,14.345L251.035,54.253h-28.69L208,35.127l19.127-9.563Z" transform="translate(-208 -16)" fill="#065958"/>
      </g>
      <g id="Grupo_1027691" data-name="Grupo 1027691" transform="translate(114.759 66.943)">
        <path id="Trazado_726221" data-name="Trazado 726221" d="M265.38,185.38v19.127a9.591,9.591,0,0,1-9.563,9.563,9.633,9.633,0,0,1-9.563-9.563V166.253a9.591,9.591,0,0,0-9.563-9.563,9.633,9.633,0,0,0-9.563,9.563v71.725a9.591,9.591,0,0,1-9.563,9.563A9.633,9.633,0,0,1,208,237.978V128h57.38v57.38Z" transform="translate(-208 -128)" fill="#4db1f0"/>
      </g>
      <g id="Grupo_1027692" data-name="Grupo 1027692" transform="translate(224.749 52.61)">
        <path id="Trazado_726222" data-name="Trazado 726222" d="M419.072,112.711l.669,2.63a8.392,8.392,0,0,0-1.435,1.148l-6.886,6.933-6.933,6.886a8.393,8.393,0,0,0-1.148,1.434l-2.63-.669a11.1,11.1,0,0,1-5.355-3.012,11.515,11.515,0,0,1,0-16.21l4.495-4.495a11.515,11.515,0,0,1,16.21,0A11.1,11.1,0,0,1,419.072,112.711Z" transform="translate(-392.02 -104.02)" fill="#e6e9ed"/>
      </g>
      <g id="Grupo_1027693" data-name="Grupo 1027693" transform="translate(249.602 77.463)">
        <path id="Trazado_726223" data-name="Trazado 726223" d="M457.986,149.282a11.516,11.516,0,0,1,0,16.21l-4.495,4.495a11.515,11.515,0,0,1-16.21,0,11.1,11.1,0,0,1-3.012-5.355L433.6,162a8.4,8.4,0,0,0,1.434-1.148l6.933-6.886,6.886-6.933A8.4,8.4,0,0,0,450,145.6l2.63.669a11.1,11.1,0,0,1,5.355,3.012Z" transform="translate(-433.6 -145.6)" fill="#e6e9ed"/>
      </g>
      <g id="Grupo_1027694" data-name="Grupo 1027694" transform="translate(229.519 129.104)">
        <path id="Trazado_726224" data-name="Trazado 726224" d="M409.563,270.253A9.561,9.561,0,0,1,400,260.69V241.563a9.563,9.563,0,0,1,19.127,0V260.69A9.561,9.561,0,0,1,409.563,270.253Z" transform="translate(-400 -232)" fill="#a0d468"/>
      </g>
      <g id="Grupo_1027695" data-name="Grupo 1027695" transform="translate(210.392 133.886)">
        <path id="Trazado_726225" data-name="Trazado 726225" d="M368,251.237A11.224,11.224,0,0,1,379.237,240a11.676,11.676,0,0,1,5.786,1.578l2.3,1.387a7.559,7.559,0,0,0-.191,1.817v19.127a7.56,7.56,0,0,0,.191,1.817l-2.3,1.387a11.676,11.676,0,0,1-5.786,1.578A11.224,11.224,0,0,1,368,257.453Z" transform="translate(-368 -240)" fill="#e6e9ed"/>
      </g>
      <g id="Grupo_1027696" data-name="Grupo 1027696" transform="translate(248.454 133.886)">
        <path id="Trazado_726226" data-name="Trazado 726226" d="M451,257.453a11.224,11.224,0,0,1-11.237,11.237,11.676,11.676,0,0,1-5.786-1.578l-2.3-1.387a7.562,7.562,0,0,0,.191-1.817V244.782a7.561,7.561,0,0,0-.191-1.817l2.3-1.387A11.676,11.676,0,0,1,439.761,240,11.224,11.224,0,0,1,451,251.237Z" transform="translate(-431.68 -240)" fill="#e6e9ed"/>
      </g>
      <g id="Grupo_1027697" data-name="Grupo 1027697" transform="translate(234.383 62.244)">
        <path id="Trazado_726227" data-name="Trazado 726227" d="M438.61,122.972a9.79,9.79,0,0,0-12.384-1.148,8.394,8.394,0,0,0-1.435,1.148l-13.819,13.819a8.4,8.4,0,0,0-1.148,1.434,9.734,9.734,0,0,0,13.532,13.532,8.4,8.4,0,0,0,1.434-1.148l13.819-13.819a8.393,8.393,0,0,0,1.148-1.434A9.79,9.79,0,0,0,438.61,122.972Z" transform="translate(-408.138 -120.138)" fill="#a0d468"/>
      </g>
      <g id="Grupo_1027698" data-name="Grupo 1027698" transform="translate(258.209 219.956)">
        <path id="Trazado_726228" data-name="Trazado 726228" d="M448,384h9.563a19.1,19.1,0,0,1,19.127,19.127h-9.563A19.1,19.1,0,0,1,448,384Z" transform="translate(-448 -384)" fill="#ccd1d9"/>
      </g>
      <g id="Grupo_1027699" data-name="Grupo 1027699" transform="translate(258.209 200.829)">
        <path id="Trazado_726229" data-name="Trazado 726229" d="M467.127,352h9.563a19.1,19.1,0,0,1-19.127,19.127H448A19.1,19.1,0,0,1,467.127,352Z" transform="translate(-448 -352)" fill="#ccd1d9"/>
      </g>
      <g id="Grupo_1027700" data-name="Grupo 1027700" transform="translate(114.759 191.266)">
        <path id="Trazado_726230" data-name="Trazado 726230" d="M208,355.127l46.382-18.553a8.019,8.019,0,0,1,11,7.459v41.313a8.019,8.019,0,0,1-11,7.459L225.74,381.378A28.278,28.278,0,0,1,208,355.127Z" transform="translate(-208 -336)" fill="#e6e9ed"/>
      </g>
      <g id="Grupo_1027701" data-name="Grupo 1027701" transform="translate(86.07 248.645)">
        <path id="Trazado_726231" data-name="Trazado 726231" d="M250.851,432h4.782a9.633,9.633,0,0,1,9.563,9.563,9.591,9.591,0,0,0,9.563,9.563h76.506a9.633,9.633,0,0,1,9.563,9.563,9.591,9.591,0,0,1-9.563,9.563h-129.1a9.633,9.633,0,0,1-9.563-9.563,9.591,9.591,0,0,0-9.563-9.563H169.563a9.563,9.563,0,1,1,0-19.127h81.288Z" transform="translate(-160 -432)" fill="#4db1f0"/>
      </g>
    </g>
    <g id="Grupo_1027703" data-name="Grupo 1027703" transform="translate(8 4.952)">
      <circle id="Elipse_8547" data-name="Elipse 8547" cx="4.782" cy="4.782" r="4.782" transform="translate(148.231 216.996)"/>
      <path id="Trazado_726232" data-name="Trazado 726232" d="M304.462,212.385V207.6H290.117a23.953,23.953,0,0,0-23.425,19.127H244.28l15.746-15.746-6.761-6.761-22.507,22.507H215.59l15.746-15.746-6.761-6.761-15.746,15.746V111.09a14.325,14.325,0,0,0,9.563-13.465V88.062a14.362,14.362,0,0,0-14.345-14.345h-7.321L177.045,50.1l24.716-24.716L174.516,4.952,156.58,27.373l-8.272-12.418L120.283,28.97l15.512,20.681L115.735,73.717H113.2V70.2a24.024,24.024,0,0,0-11.61-20.5l-12.3-7.383V35.464H94.07a9.573,9.573,0,0,0,9.563-9.563V16.337A9.573,9.573,0,0,0,94.07,6.774H46.253a9.573,9.573,0,0,0-9.563,9.563V25.9a9.573,9.573,0,0,0,9.563,9.563h4.782v6.857L38.736,49.7a24.018,24.018,0,0,0-11.61,20.5v3.515H22.345A14.362,14.362,0,0,0,8,88.062v9.563a14.325,14.325,0,0,0,9.563,13.465V231.511A43.084,43.084,0,0,0,60.6,274.546H94.949a14.325,14.325,0,0,0,13.465,9.563h33.472a4.786,4.786,0,0,1,4.782,4.782,14.362,14.362,0,0,0,14.345,14.345h129.1a14.345,14.345,0,1,0,0-28.69H213.611a4.786,4.786,0,0,1-4.782-4.782,14.362,14.362,0,0,0-14.345-14.345h-5.25a12.518,12.518,0,0,0,.469-3.237V236.293h12.365L224.575,258.8l6.761-6.761L215.59,236.293h15.167L253.265,258.8l6.761-6.761L244.28,236.293h22.412a23.949,23.949,0,0,0,23.425,19.127h14.345v-4.782a23.823,23.823,0,0,0-9.712-19.127A23.823,23.823,0,0,0,304.462,212.385ZM98.851,153.025,86.486,140.66h24.731Zm23.908-10.386v34.294l-17.147-17.147ZM92.09,159.786,74.943,176.933,57.8,159.786l17.147-17.147Zm-41.055-6.761L38.669,140.66H63.4Zm-6.761,6.761L27.127,176.933V142.639Zm6.761,6.761L63.4,178.913H38.669Zm47.816,0,12.365,12.365H86.486ZM122.759,131.1H27.127V111.97h95.633Zm9.563-47.816h47.816V155a4.782,4.782,0,0,1-9.563,0V116.752a14.345,14.345,0,1,0-28.69,0v71.725a4.782,4.782,0,0,1-9.563,0ZM199.266,131.1H189.7V111.97h9.563Zm-38.253,0h-9.563V116.752a4.782,4.782,0,0,1,9.563,0Zm-9.563,9.563h9.563V155a14.345,14.345,0,0,0,28.69,0V140.66h9.563v38.253H151.449Zm57.38-52.6v9.563a4.786,4.786,0,0,1-4.782,4.782H189.7V83.28h14.345A4.786,4.786,0,0,1,208.829,88.062Zm-63.8-60.779,10.854,16.272,20.317-25.4,11.007,8.258L168.6,45.027H144.277L134.8,32.394Zm-.9,27.308h24.209l15.937,19.127H128.187ZM46.253,16.337H94.07l0,9.563H46.253ZM36.69,70.2a14.418,14.418,0,0,1,6.967-12.3L60.6,47.733V35.464H79.725v12.27L96.666,57.9a14.426,14.426,0,0,1,6.967,12.3v3.515H36.69ZM17.563,88.062a4.786,4.786,0,0,1,4.782-4.782H122.759v19.127H22.345a4.786,4.786,0,0,1-4.782-4.782Zm181.7,181.7a14.362,14.362,0,0,0,14.345,14.345h76.506a4.782,4.782,0,1,1,0,9.563h-129.1a4.786,4.786,0,0,1-4.782-4.782,14.362,14.362,0,0,0-14.345-14.345H108.415a4.782,4.782,0,1,1,0-9.563h86.07A4.786,4.786,0,0,1,199.266,269.764ZM175.7,255.185l-28.623-11.452A23.323,23.323,0,0,1,132.533,225.1l43.173-17.267a3.324,3.324,0,0,1,4.433,3.008v41.342a3.3,3.3,0,0,1-4.442,3Zm1.2-57.145a12.7,12.7,0,0,0-4.753.913l-49.39,19.758v3.237a32.869,32.869,0,0,0,20.767,30.669l7,2.8H108.415a14.325,14.325,0,0,0-13.465,9.563H60.6a33.511,33.511,0,0,1-33.472-33.471V188.476h95.633a14.345,14.345,0,0,0,28.69,0h47.816v38.253H189.7V210.84A12.816,12.816,0,0,0,176.9,198.04Zm117.179,47.816h-3.964a14.373,14.373,0,0,1-13.527-9.563h3.964A14.373,14.373,0,0,1,294.081,245.856ZM276.59,226.729a14.373,14.373,0,0,1,13.527-9.563h3.964a14.373,14.373,0,0,1-13.527,9.563Z" transform="translate(-8 -4.952)"/>
      <path id="Trazado_726233" data-name="Trazado 726233" d="M65.563,367.908V344H56v23.908a23.935,23.935,0,0,0,23.908,23.908H84.69v-9.563H79.908A14.362,14.362,0,0,1,65.563,367.908Z" transform="translate(-27.31 -141.349)"/>
      <path id="Trazado_726234" data-name="Trazado 726234" d="M360,251.021a15.966,15.966,0,0,0,21.91,14.866,14.238,14.238,0,0,0,23.124,0,15.966,15.966,0,0,0,21.909-14.866V244.8a15.966,15.966,0,0,0-21.909-14.866,14.238,14.238,0,0,0-23.124,0A15.966,15.966,0,0,0,360,244.8Zm33.471,11.232a4.786,4.786,0,0,1-4.782-4.782V252.69h9.563v4.782A4.786,4.786,0,0,1,393.471,262.253ZM417.38,244.8v6.226a6.458,6.458,0,0,1-6.455,6.45,6.393,6.393,0,0,1-3.108-.832V239.177a6.393,6.393,0,0,1,3.108-.832A6.458,6.458,0,0,1,417.38,244.8Zm-23.908-11.232a4.786,4.786,0,0,1,4.782,4.782v4.782H388.69v-4.782A4.786,4.786,0,0,1,393.471,233.563ZM369.563,244.8a6.406,6.406,0,0,1,9.563-5.618v17.463a6.393,6.393,0,0,1-3.108.832,6.458,6.458,0,0,1-6.455-6.45Z" transform="translate(-149.608 -93.074)"/>
      <path id="Trazado_726235" data-name="Trazado 726235" d="M393.874,131.757a14.476,14.476,0,0,0,14.307,16.86,14.77,14.77,0,0,0,2.333-.225,16.216,16.216,0,0,0,26.4,5.116l4.485-4.485a16.2,16.2,0,0,0-5.107-26.409,14.439,14.439,0,0,0-16.64-16.635,16.239,16.239,0,0,0-3.433-5.116,16.636,16.636,0,0,0-22.971,0l-4.485,4.485a16.195,16.195,0,0,0,5.112,26.409Zm10.787,5.848a4.975,4.975,0,0,1,0-7.039l3.519-3.519,7.034,7.039-3.519,3.519A5.107,5.107,0,0,1,404.661,137.605Zm29.981,4.653-4.485,4.485a6.846,6.846,0,0,1-9.453,0,6.676,6.676,0,0,1-1.688-2.931l12.69-12.69a6.661,6.661,0,0,1,2.936,11.136ZM425.5,116.767a4.975,4.975,0,0,1,0,7.039l-3.519,3.519-7.034-7.039,3.519-3.519a4.97,4.97,0,0,1,7.034,0Zm-29.981-4.653L400,107.629a6.846,6.846,0,0,1,9.453,0,6.677,6.677,0,0,1,1.688,2.931l-12.691,12.69a6.661,6.661,0,0,1-2.936-11.136Z" transform="translate(-159.263 -41.686)"/>
    </g>
  </g>
</svg>
