<svg xmlns="http://www.w3.org/2000/svg" width="225.431" height="284.4" viewBox="0 0 225.431 284.4">
  <g id="Grupo_1027678" data-name="Grupo 1027678" transform="translate(-53.08)">
    <g id="Grupo_1027666" data-name="Grupo 1027666" transform="translate(57.245 4.165)">
      <path id="Trazado_726196" data-name="Trazado 726196" d="M95.877,266.048h-35.3V30.459A22.959,22.959,0,0,1,83.539,7.5H95.878V266.048Z" transform="translate(-60.579 -7.499)" fill="#115089"/>
    </g>
    <g id="Grupo_1027668" data-name="Grupo 1027668" transform="translate(92.544 4.165)">
      <path id="Trazado_726198" data-name="Trazado 726198" d="M305.928,248.528h-181.8V7.5H302.8a3.123,3.123,0,0,1,3.123,3.123Z" transform="translate(-124.126 -7.499)" fill="#eaf6ff"/>
    </g>
    <g id="Grupo_1027669" data-name="Grupo 1027669" transform="translate(260.056 4.168)">
      <path id="Trazado_726199" data-name="Trazado 726199" d="M439.983,10.621V248.529H428.82V10.621A3.122,3.122,0,0,0,425.7,7.5h11.163a3.122,3.122,0,0,1,3.124,3.118Z" transform="translate(-425.696 -7.503)" fill="#d8ecfe"/>
    </g>
    <g id="Grupo_1027672" data-name="Grupo 1027672" transform="translate(113.93 27.938)">
      <g id="Grupo_1027670" data-name="Grupo 1027670">
        <path id="Trazado_726200" data-name="Trazado 726200" d="M291.475,52.939l-.067-.067a8.775,8.775,0,0,0-8.326-2.32c-.988.243-1.971.506-2.97.693l-31.357,5.881A8.8,8.8,0,1,0,252,74.42l6.669-1.246L242.9,88.939a50.909,50.909,0,1,0,12.448,12.44l17.344-17.344-1.606,10.686a8.8,8.8,0,0,0,17.405,2.615l5.528-36.81a8.8,8.8,0,0,0-2.543-7.587ZM237.21,154.282a33.38,33.38,0,1,1,0-47.207A33.17,33.17,0,0,1,237.21,154.282Z" transform="translate(-162.628 -50.296)" fill="#4db1f0"/>
      </g>
    </g>
    <g id="Grupo_1027673" data-name="Grupo 1027673" transform="translate(121.624 90.06)">
      <path id="Trazado_726202" data-name="Trazado 726202" d="M292.909,177.066a50.988,50.988,0,0,0-77.788,65.343l-8.965,8.965-6.193-6.193a8.8,8.8,0,0,0-12.445,12.444l6.193,6.193-14.656,14.656A8.8,8.8,0,0,0,191.5,290.919l14.656-14.656,6.193,6.193a8.8,8.8,0,1,0,12.445-12.445l-6.193-6.193,8.973-8.973a50.981,50.981,0,0,0,65.335-77.779Zm-12.445,59.651a33.381,33.381,0,1,1,0-47.208A33.418,33.418,0,0,1,280.464,236.717Z" transform="translate(-176.478 -162.134)" fill="#ffa031"/>
    </g>
    <g id="Grupo_1027675" data-name="Grupo 1027675" transform="translate(57.245 245.195)">
      <path id="Trazado_726204" data-name="Trazado 726204" d="M277.679,441.42H78.1a17.519,17.519,0,1,0,0,35.039H274.556a3.123,3.123,0,0,0,3.123-3.123Z" transform="translate(-60.579 -441.42)" fill="#f9f3f1"/>
    </g>
    <g id="Grupo_1027676" data-name="Grupo 1027676" transform="translate(260.056 245.194)">
      <path id="Trazado_726205" data-name="Trazado 726205" d="M439.983,441.418v31.919a3.122,3.122,0,0,1-3.124,3.118H425.7a3.122,3.122,0,0,0,3.124-3.118V441.418Z" transform="translate(-425.696 -441.418)" fill="#f3eae6"/>
    </g>
    <g id="Grupo_1027677" data-name="Grupo 1027677" transform="translate(53.08)">
      <path id="Trazado_726206" data-name="Trazado 726206" d="M264.592,197.316a37.548,37.548,0,1,0,26.549-11,37.3,37.3,0,0,0-26.549,11Zm5.891,5.891a29.057,29.057,0,0,1,12.374-7.367,29.16,29.16,0,0,1-20.551,23.329,28.986,28.986,0,0,1,8.177-15.961Zm41.317,0a29.215,29.215,0,0,1-41.317,41.317c-.184-.184-.357-.374-.535-.562A55.2,55.2,0,0,0,308.422,200.3a29.637,29.637,0,0,1,3.378,2.9Zm-11.229-7a46.785,46.785,0,0,1-35.691,40.481,28.906,28.906,0,0,1-2.687-8.891,37.269,37.269,0,0,0,18.4-10.1h0a37.376,37.376,0,0,0,10.816-23.036,29.208,29.208,0,0,1,9.162,1.549Z" transform="translate(-142.215 -82.825)"/>
      <path id="Trazado_726207" data-name="Trazado 726207" d="M196.191,180.679a54.438,54.438,0,0,0,4.094,8.134l-3.622,3.621-3.248-3.248a12.965,12.965,0,0,0-18.335,18.335l3.248,3.248L166.617,222.48a12.965,12.965,0,0,0,18.336,18.335l11.71-11.711,3.248,3.248a12.965,12.965,0,1,0,18.335-18.334L215,210.769l3.632-3.632a55.153,55.153,0,1,0,42.808-100.412,54.247,54.247,0,0,0-4.085-8.129l6.132-6.132a12.978,12.978,0,0,0,12.975,13.2,13.041,13.041,0,0,0,12.81-11.04l5.53-36.806a13,13,0,0,0-3.69-11.127l-.09-.093a12.98,12.98,0,0,0-12.741-3.3l-2.71.6-30.92,5.8a12.965,12.965,0,0,0-.46,25.39l-5.172,5.172a55.159,55.159,0,1,0-42.826,100.418Zm-3.211-29.786A29.64,29.64,0,0,1,189.611,148a29.216,29.216,0,0,1,41.317-41.317c.182.182.354.369.529.555a55.267,55.267,0,0,0-38.477,43.653Zm87.49-23.93a46.82,46.82,0,0,1-60,71.425,4.166,4.166,0,0,0-5.34.463l-8.973,8.972a4.164,4.164,0,0,0,0,5.89l6.193,6.194a4.634,4.634,0,1,1-6.554,6.553l-6.193-6.193a4.166,4.166,0,0,0-5.89,0l-14.656,14.656a4.634,4.634,0,0,1-6.553-6.553l14.657-14.657a4.166,4.166,0,0,0,0-5.891l-6.193-6.193a4.634,4.634,0,0,1,6.553-6.554l6.193,6.193a4.166,4.166,0,0,0,5.891,0l8.966-8.966a4.166,4.166,0,0,0,.459-5.345,46.82,46.82,0,0,1,71.436-59.994Zm-103.3-32.722a46.845,46.845,0,0,1,60-5.231,4.165,4.165,0,0,0,5.345-.458l15.766-15.767a4.166,4.166,0,0,0-3.714-7.039L247.893,67a4.635,4.635,0,1,1-1.709-9.11s34.114-6.5,34.362-6.571a4.643,4.643,0,0,1,4.552,1.138l.057.059q.033.034.067.067a4.646,4.646,0,0,1,1.34,4l-5.53,36.807a4.624,4.624,0,0,1-5.271,3.894A4.633,4.633,0,0,1,271.867,92l1.58-10.521a4.31,4.31,0,0,0-1.716-4.2,4.17,4.17,0,0,0-5.325.474L249.063,95.1a4.167,4.167,0,0,0-.459,5.346,46.039,46.039,0,0,1,2.862,4.619q-2.036-.148-4.1-.149a56.062,56.062,0,0,0-6.7.4,37.543,37.543,0,1,0-48.443,54.944,55.724,55.724,0,0,0,1.075,10.719,46.821,46.821,0,0,1-16.134-76.742Z" transform="translate(-98.442 -19.025)"/>
      <path id="Trazado_726208" data-name="Trazado 726208" d="M271.223,0H80.205A27.156,27.156,0,0,0,53.08,27.125V59.864a4.165,4.165,0,0,0,8.33,0V27.125A18.816,18.816,0,0,1,80.205,8.33h8.174v232.7H74.765a21.573,21.573,0,0,0-13.355,4.618V78.937a4.165,4.165,0,0,0-8.33,0V262.714A21.71,21.71,0,0,0,74.765,284.4H215.633a4.165,4.165,0,1,0,0-8.33H74.765a13.355,13.355,0,0,1,0-26.709H270.181v9.189H82.51a4.165,4.165,0,1,0,0,8.33H270.181v9.19H235.023a4.165,4.165,0,1,0,0,8.33h36.2a7.3,7.3,0,0,0,7.289-7.289V7.289A7.3,7.3,0,0,0,271.223,0Zm-1.042,241.03H96.709V8.33H270.18v232.7Z" transform="translate(-53.08)"/>
    </g>
  </g>
</svg>
