<svg xmlns="http://www.w3.org/2000/svg" width="292.797" height="299" viewBox="0 0 292.797 299">
  <g id="Layer_1" data-name="Layer 1" transform="translate(-12.162 -7)">
    <g id="Grupo_1027665" data-name="Grupo 1027665" transform="translate(12.162 7)">
      <g id="Grupo_1027661" data-name="Grupo 1027661" transform="translate(3.013 3.002)">
        <g id="Grupo_1027650" data-name="Grupo 1027650" transform="translate(125.091)">
          <path id="Trazado_726160" data-name="Trazado 726160" d="M249.3,12a23.775,23.775,0,0,0-23.776,23.776V49.959a23.776,23.776,0,0,0,47.552,0V35.776A23.776,23.776,0,0,0,249.3,12Z" transform="translate(-225.526 -12)" fill="#feb69f"/>
        </g>
        <g id="Grupo_1027651" data-name="Grupo 1027651" transform="translate(30.483 61.733)">
          <path id="Trazado_726161" data-name="Trazado 726161" d="M304.726,127.873a13.053,13.053,0,0,1-13.053,13.065H231.357a3.7,3.7,0,0,0-3.7,3.987l13.869,183.759,5.284,12.38a3.608,3.608,0,0,1-3.314,5.019H215.675a6.012,6.012,0,0,1-5.992-5.5l-7.3-86.434a16.1,16.1,0,0,0-32.085,0L163,340.583a6.012,6.012,0,0,1-5.992,5.5H129.181a3.608,3.608,0,0,1-3.314-5.019l5.284-12.38,2.582-34.151a12.8,12.8,0,0,0,15.406-12.524c0-6.586-4.993-12.789-13.5-12.789l9.378-124.3a3.7,3.7,0,0,0-3.7-3.987H81a13.059,13.059,0,0,1,0-26.117H291.674a13.058,13.058,0,0,1,13.053,13.053Z" transform="translate(-67.952 -114.82)" fill="#4db1f0"/>
        </g>
        <g id="Grupo_1027652" data-name="Grupo 1027652" transform="translate(139.908 94.873)">
          <circle id="Elipse_8544" data-name="Elipse 8544" cx="12.799" cy="12.799" r="12.799" transform="translate(0 0)" fill="#fff"/>
        </g>
        <g id="Grupo_1027653" data-name="Grupo 1027653" transform="translate(87.673 16.84)">
          <circle id="Elipse_8545" data-name="Elipse 8545" cx="12.799" cy="12.799" r="12.799" fill="#fff"/>
        </g>
        <g id="Grupo_1027654" data-name="Grupo 1027654" transform="translate(30.48 61.733)">
          <path id="Trazado_726162" data-name="Trazado 726162" d="M120.685,114.82v26.117H81a13.059,13.059,0,0,1,0-26.117Z" transform="translate(-67.946 -114.82)" fill="#feb69f"/>
        </g>
        <g id="Grupo_1027655" data-name="Grupo 1027655" transform="translate(214.515 61.733)">
          <path id="Trazado_726163" data-name="Trazado 726163" d="M427.205,127.873a13.053,13.053,0,0,1-13.053,13.065H374.466V114.82h39.687A13.054,13.054,0,0,1,427.205,127.873Z" transform="translate(-374.466 -114.82)" fill="#feb69f"/>
        </g>
        <g id="Grupo_1027656" data-name="Grupo 1027656" transform="translate(187.821 6.4)">
          <circle id="Elipse_8546" data-name="Elipse 8546" cx="12.799" cy="12.799" r="12.799" fill="#fff"/>
        </g>
        <g id="Grupo_1027658" data-name="Grupo 1027658" transform="translate(0 113.087)">
          <g id="Grupo_1027657" data-name="Grupo 1027657">
            <path id="Trazado_726164" data-name="Trazado 726164" d="M89.216,268.611H22.372a5.18,5.18,0,0,1-4.487-7.773l10.654-18.458,22.768-39.433a5.176,5.176,0,0,1,8.975,0L93.7,260.839a5.18,5.18,0,0,1-4.487,7.773Z" transform="translate(-17.18 -200.352)" fill="#ffa031"/>
          </g>
        </g>
        <g id="Grupo_1027660" data-name="Grupo 1027660" transform="translate(86.069 216.133)">
          <g id="Grupo_1027659" data-name="Grupo 1027659">
            <path id="Trazado_726165" data-name="Trazado 726165" d="M186.133,384.769a12.8,12.8,0,1,1-13.5-12.789c8.593,0,13.5,6.3,13.5,12.789Z" transform="translate(-160.532 -371.98)" fill="#fff"/>
          </g>
        </g>
      </g>
      <g id="Grupo_1027664" data-name="Grupo 1027664">
        <g id="Grupo_1027662" data-name="Grupo 1027662" transform="translate(178.646 86.903)">
          <path id="Trazado_726166" data-name="Trazado 726166" d="M328.68,352.694H316.993a3,3,0,1,1,0-6h7.214c-.05-.262-13.027-172.295-13.048-172.561a3,3,0,0,1,5.987-.452l12.964,171.717,1.33,3.12A3,3,0,0,1,328.68,352.694ZM313.247,164.932a3,3,0,0,1-2.99-2.776l-.543-7.184a3,3,0,1,1,5.987-.451l.543,7.184a3,3,0,0,1-2.768,3.219c-.078.006-.154.008-.229.008Z" transform="translate(-309.706 -151.742)" fill="#c5e5fe"/>
        </g>
        <path id="Trazado_726168" data-name="Trazado 726168" d="M248.212,85.182a3.011,3.011,0,0,0,3-3,5.956,5.956,0,1,1,11.912,0,3,3,0,0,0,6,0,11.96,11.96,0,0,0-23.92,0A3,3,0,0,0,248.212,85.182Z" transform="translate(-105.287 -32.263)"/>
        <path id="Trazado_726169" data-name="Trazado 726169" d="M232.137,30.147a3.019,3.019,0,0,0,.384-2.27A2.959,2.959,0,0,0,231.189,26a3.052,3.052,0,0,0-4.131.937,2.988,2.988,0,0,0,.937,4.143,3.022,3.022,0,0,0,4.143-.937Z" transform="translate(-97.847 -14.417)"/>
        <path id="Trazado_726170" data-name="Trazado 726170" d="M156.334,60.507a15.8,15.8,0,1,0-9.959-28.056l-14.4-12.075a2.977,2.977,0,0,0-1.921-.7H116.972a3,3,0,0,0,0,6h11.984l13.563,11.368a15.785,15.785,0,0,0,13.815,23.455Zm-9.073-19.482,7.14,5.985a3,3,0,1,0,3.855-4.6l-7.134-5.981a9.794,9.794,0,1,1-3.861,4.6Z" transform="translate(-52.844 -12.067)"/>
        <path id="Trazado_726171" data-name="Trazado 726171" d="M251.214,49.14v-2.8a3,3,0,0,0-6,0v2.8a3,3,0,0,0,6,0Z" transform="translate(-105.287 -21.521)"/>
        <path id="Trazado_726172" data-name="Trazado 726172" d="M281.054,49.14v-2.8a3,3,0,0,0-6,0v2.8a3,3,0,0,0,6,0Z" transform="translate(-117.211 -21.521)"/>
        <path id="Trazado_726173" data-name="Trazado 726173" d="M62.946,84.788A16.079,16.079,0,0,0,79,100.855h60.319a.715.715,0,0,1,.708.7c0,.091-9.191,121.877-9.2,121.968a15.782,15.782,0,0,0-9.591,24.229l-12.828,12.79H96.571a3,3,0,0,0,0,6H109.66a3,3,0,0,0,2.113-.877l13.716-13.676a15.977,15.977,0,0,0,3.069,1.634l-2.364,31.255L121.1,296.8a6.628,6.628,0,0,0,6.076,9.2H155a9.008,9.008,0,0,0,8.982-8.25l7.3-86.434a13.1,13.1,0,0,1,26.105,0l7.3,86.434a9.008,9.008,0,0,0,8.982,8.25h27.823a6.626,6.626,0,0,0,6.076-9.2l-5.091-11.924-6.436-85.341a3,3,0,0,0-5.992.432v.012l6.484,85.845c.061.82,0,.425,5.512,13.329a.61.61,0,0,1-.552.841H213.672a3.035,3.035,0,0,1-3-2.75l-7.3-86.434a19.1,19.1,0,0,0-38.065,0L158,297.246a3.026,3.026,0,0,1-3,2.75H127.178a.607.607,0,0,1-.552-.829c5.509-12.922,5.45-12.523,5.512-13.341l2.352-31.12a15.783,15.783,0,0,0,2.367-31.365c.042-.56,9.174-121.228,9.174-121.79a6.721,6.721,0,0,0-6.712-6.7H121.689V74.737H246.981V94.851H229.356a6.713,6.713,0,0,0-6.688,7.253l3.07,40.658-23.45-18.03a15.79,15.79,0,1,0-29.91-7.054,15.764,15.764,0,0,0,26.244,11.815L226.345,150.8l1.906,25.235a3,3,0,1,0,5.98-.456l-1.5-19.871,15.573,11.97a2.972,2.972,0,0,0,1.825.624h16.427a3,3,0,1,0,0-6H251.15l-19.026-14.628-3.478-46.06v-.06a.715.715,0,0,1,.708-.7H289.67a16.061,16.061,0,0,0,0-32.121H201.209a26.733,26.733,0,0,0,9.907-20.774V33.778a26.785,26.785,0,0,0-39.735-23.44,3.009,3.009,0,0,0-1.177,4.083,3.081,3.081,0,0,0,4.083,1.165A20.5,20.5,0,0,1,184.338,13a20.858,20.858,0,0,1,20.774,20.774V47.959a20.774,20.774,0,0,1-41.548,0c0-15.687-.012-14.157.024-15.358a3,3,0,1,0-5.992-.324c-.058,1.191-.036,1.051-.036,15.682a26.733,26.733,0,0,0,9.9,20.774H79A16.087,16.087,0,0,0,62.946,84.788Zm81.189,154.135a9.824,9.824,0,0,1-14.276,8.709l6.6-6.584a3.022,3.022,0,0,0,0-4.251,3.053,3.053,0,0,0-4.239,0l-6.6,6.579a9.779,9.779,0,0,1,8.125-14.24c6.529,0,10.376,4.746,10.387,9.787ZM197.39,120.967l-7.385-5.679a3.085,3.085,0,0,0-4.215.552,3.014,3.014,0,0,0,.552,4.215l7.385,5.676a9.893,9.893,0,1,1,3.662-4.765Zm55.595-46.23H289.67a10.057,10.057,0,0,1,0,20.113H252.985Zm-137.3,20.113H79a10.057,10.057,0,0,1,0-20.113h36.685Z" transform="translate(-32.455 -7)"/>
        <path id="Trazado_726174" data-name="Trazado 726174" d="M342.526,303.114a3,3,0,1,0,3.23,2.762,3.007,3.007,0,0,0-3.23-2.762Z" transform="translate(-143.068 -125.323)"/>
        <path id="Trazado_726175" data-name="Trazado 726175" d="M25.032,478.664h41.44a3,3,0,1,0,0-6H25.032a3,3,0,1,0,0,6Z" transform="translate(-16.105 -193.077)"/>
        <path id="Trazado_726176" data-name="Trazado 726176" d="M25.032,456.984h41.44a3,3,0,0,0,0-6H25.032a3,3,0,0,0,0,6Z" transform="translate(-16.105 -184.414)"/>
        <path id="Trazado_726177" data-name="Trazado 726177" d="M25.032,435.284h41.44a3,3,0,0,0,0-6H25.032a3,3,0,0,0,0,6Z" transform="translate(-16.105 -175.742)"/>
        <path id="Trazado_726178" data-name="Trazado 726178" d="M455.977,487.542a3,3,0,0,0-3-3H395.132a3,3,0,0,0,0,6h57.843A3,3,0,0,0,455.977,487.542Z" transform="translate(-163.996 -197.824)"/>
        <path id="Trazado_726179" data-name="Trazado 726179" d="M452.975,462.86H395.132a3,3,0,0,0,0,6h57.843a3,3,0,0,0,0-6Z" transform="translate(-163.996 -189.161)"/>
        <path id="Trazado_726180" data-name="Trazado 726180" d="M452.975,441.16H395.132a3,3,0,1,0,0,6h57.843a3,3,0,0,0,0-6Z" transform="translate(-163.996 -180.49)"/>
        <path id="Trazado_726181" data-name="Trazado 726181" d="M395.132,417.24a3,3,0,1,0,0,6h28.915a3,3,0,1,0,0-6Z" transform="translate(-163.996 -170.931)"/>
        <path id="Trazado_726182" data-name="Trazado 726182" d="M25.032,67.7h41.44a3,3,0,0,0,0-6H25.032a3,3,0,1,0,0,6Z" transform="translate(-16.105 -28.858)"/>
        <path id="Trazado_726183" data-name="Trazado 726183" d="M25.032,46.024h41.44a3,3,0,0,0,0-6H25.032a3,3,0,1,0,0,6Z" transform="translate(-16.105 -20.195)"/>
        <path id="Trazado_726184" data-name="Trazado 726184" d="M25.032,24.324h41.44a3,3,0,0,0,0-6H25.032a3,3,0,1,0,0,6Z" transform="translate(-16.105 -11.523)"/>
        <path id="Trazado_726185" data-name="Trazado 726185" d="M465.272,82.36h-41.44a3,3,0,1,0,0,6h41.44a3,3,0,0,0,0-6Z" transform="translate(-175.465 -37.114)"/>
        <path id="Trazado_726186" data-name="Trazado 726186" d="M465.272,60.66h-41.44a3,3,0,1,0,0,6h41.44a3,3,0,0,0,0-6Z" transform="translate(-175.465 -28.442)"/>
        <path id="Trazado_726187" data-name="Trazado 726187" d="M465.272,38.98h-41.44a3,3,0,1,0,0,6h41.44a3,3,0,0,0,0-6Z" transform="translate(-175.465 -19.779)"/>
        <path id="Trazado_726188" data-name="Trazado 726188" d="M356.32,36.465h15.412a3,3,0,1,0,0-6H356.321a15.806,15.806,0,1,0,0,6Zm-25.306-3a9.793,9.793,0,0,1,19.116-3h-9.317a3,3,0,1,0,0,6h9.317a9.793,9.793,0,0,1-19.116-3Z" transform="translate(-137.175 -11.26)"/>
        <path id="Trazado_726189" data-name="Trazado 726189" d="M79.494,259.46a3,3,0,0,0,3-3v-8.706a3,3,0,1,0-6,0v8.706A3,3,0,0,0,79.494,259.46Z" transform="translate(-37.868 -102.005)"/>
        <path id="Trazado_726190" data-name="Trazado 726190" d="M76.492,278.568a3,3,0,1,0,6,0v-1.826a3,3,0,1,0-6,0Z" transform="translate(-37.868 -113.589)"/>
        <path id="Trazado_726191" data-name="Trazado 726191" d="M20.368,269.617H87.217a8.19,8.19,0,0,0,7.073-12.272L60.871,199.455a8.176,8.176,0,0,0-14.169,0l-6.232,10.8a2.92,2.92,0,0,0-.3,2.282,3,3,0,0,0,1.393,1.825,3.1,3.1,0,0,0,4.107-1.1l6.232-10.8a2.174,2.174,0,0,1,3.771-.012l33.43,57.9a2.185,2.185,0,0,1-1.885,3.266H20.368a2.174,2.174,0,0,1-1.9-3.254l15.19-26.31a2.994,2.994,0,0,0-1.1-4.095,3.07,3.07,0,0,0-4.095,1.093l-15.178,26.3a8.191,8.191,0,0,0,7.085,12.272Z" transform="translate(-12.162 -82.268)"/>
        <path id="Trazado_726192" data-name="Trazado 726192" d="M49.042,236.5a3,3,0,1,0,4.095-1.093A3.07,3.07,0,0,0,49.042,236.5Z" transform="translate(-26.738 -98.118)"/>
        <path id="Trazado_726193" data-name="Trazado 726193" d="M466.685,312.042a3,3,0,0,0-3-3H423.492a3,3,0,1,0,0,6h40.191A3,3,0,0,0,466.685,312.042Z" transform="translate(-175.329 -127.695)"/>
        <path id="Trazado_726194" data-name="Trazado 726194" d="M463.683,287.36H423.492a3,3,0,1,0,0,6h40.191a3,3,0,1,0,0-6Z" transform="translate(-175.329 -119.031)"/>
        <path id="Trazado_726195" data-name="Trazado 726195" d="M463.683,265.66H423.492a3,3,0,1,0,0,6h40.191a3,3,0,1,0,0-6Z" transform="translate(-175.329 -110.36)"/>
      </g>
    </g>
  </g>
</svg>
