<svg xmlns="http://www.w3.org/2000/svg" width="266.542" height="347.4" viewBox="0 0 266.542 347.4">
  <g id="Grupo_1027649" data-name="Grupo 1027649" transform="translate(-59.584)">
    <path id="Trazado_726151" data-name="Trazado 726151" d="M221.58,177.574h0a72.646,72.646,0,0,0-72.647,72.646v95.335H294.226V250.221A72.646,72.646,0,0,0,221.58,177.574Z" transform="translate(-28.724 -57.087)" fill="#ffa031"/>
    <rect id="Rectángulo_349405" data-name="Rectángulo 349405" width="21.297" height="43.71" transform="translate(181.429 244.761)" fill="#ffa031"/>
    <rect id="Rectángulo_349406" data-name="Rectángulo 349406" width="173.809" height="33.663" transform="translate(105.951 277.73)" fill="#115089"/>
    <rect id="Rectángulo_349407" data-name="Rectángulo 349407" width="14.256" height="33.663" transform="translate(105.951 277.73)" fill="#0e7889"/>
    <rect id="Rectángulo_349408" data-name="Rectángulo 349408" width="203.921" height="39.846" transform="translate(90.895 302.462)" fill="#4db1f0"/>
    <circle id="Elipse_8543" data-name="Elipse 8543" cx="25.763" cy="25.763" r="25.763" transform="translate(166.312 204.478)" fill="#fec007"/>
    <path id="Trazado_726153" data-name="Trazado 726153" d="M284.876,203.691a5.089,5.089,0,0,0-4.684,9.036c14.592,7.564,25.038,19.24,29.414,32.876a5.089,5.089,0,0,0,9.692-3.11C314.1,226.281,301.87,212.5,284.876,203.691Z" transform="translate(-70.039 -65.3)"/>
    <path id="Trazado_726154" data-name="Trazado 726154" d="M307.239,352.051h-9.967v-19.64a5.089,5.089,0,0,0-5.089-5.089h-9.167V247.808a77.738,77.738,0,0,0-155.476,0v7.864a5.089,5.089,0,0,0,10.178,0v-7.864a67.56,67.56,0,1,1,135.12,0v79.515H220.233V311.492a30.758,30.758,0,0,0,13.013-15.38,5.089,5.089,0,0,0-9.484-3.7,20.568,20.568,0,0,1-10.5,11.238c-.09.036-.177.075-.265.116A20.679,20.679,0,1,1,223.3,276.332a5.088,5.088,0,1,0,9.255-4.233,30.848,30.848,0,1,0-43.8,39.338v15.885H137.718V275.715a5.089,5.089,0,1,0-10.178,0v51.608h-9.167a5.089,5.089,0,0,0-5.089,5.089v19.64h-9.967a5.089,5.089,0,0,0-5.089,5.089v39.846a5.089,5.089,0,0,0,5.089,5.089h118.4a5.089,5.089,0,0,0,0-10.178H108.406V362.229h9.9c.022,0,.043,0,.066,0s.043,0,.066,0H292.118c.022,0,.043,0,.066,0s.043,0,.066,0h9.9V391.9H241.766a5.089,5.089,0,1,0,0,10.178H307.24a5.089,5.089,0,0,0,5.089-5.089V357.14A5.09,5.09,0,0,0,307.239,352.051Zm-108.3-36.8a30.868,30.868,0,0,0,5.557.511,31.386,31.386,0,0,0,5.556-.5v12.055H198.941V315.255ZM123.463,337.5H287.094v14.551H123.463Z" transform="translate(-12.424 -54.675)"/>
    <path id="Trazado_726155" data-name="Trazado 726155" d="M253.589,96.9a5.089,5.089,0,0,0,5.089-5.089V5.089a5.089,5.089,0,1,0-10.178,0V91.815A5.089,5.089,0,0,0,253.589,96.9Z" transform="translate(-60.734)"/>
    <path id="Trazado_726156" data-name="Trazado 726156" d="M184.252,109.471a5.089,5.089,0,0,0,8.894-4.95L150.97,28.742a5.089,5.089,0,0,0-8.893,4.95Z" transform="translate(-26.313 -8.399)"/>
    <path id="Trazado_726157" data-name="Trazado 726157" d="M141.293,152.733a5.09,5.09,0,0,0,2.388-9.586L67.057,102.525a5.089,5.089,0,0,0-4.767,8.992l76.624,40.622A5.06,5.06,0,0,0,141.293,152.733Z" transform="translate(0 -32.769)"/>
    <path id="Trazado_726158" data-name="Trazado 726158" d="M296.02,111.443a5.087,5.087,0,0,0,6.922-1.972l42.177-75.779a5.089,5.089,0,1,0-8.893-4.95l-42.177,75.779A5.088,5.088,0,0,0,296.02,111.443Z" transform="translate(-75.17 -8.399)"/>
    <path id="Trazado_726159" data-name="Trazado 726159" d="M410.694,104.637a5.09,5.09,0,0,0-6.879-2.112l-76.624,40.622a5.089,5.089,0,1,0,4.767,8.992l76.624-40.622A5.089,5.089,0,0,0,410.694,104.637Z" transform="translate(-85.161 -32.769)"/>
  </g>
</svg>
