<svg xmlns="http://www.w3.org/2000/svg" xmlns:xlink="http://www.w3.org/1999/xlink" width="98.078" height="129.54" viewBox="0 0 98.078 129.54">
  <defs>
    <clipPath id="clip-path">
      <rect id="Rectángulo_346374" data-name="Rectángulo 346374" width="20.178" height="45.944" transform="translate(0 0)" fill="none" stroke="#12263f" stroke-width="1"/>
    </clipPath>
  </defs>
  <g id="Grupo_1013609" data-name="Grupo 1013609" transform="translate(-1270.8 -254.708)">
    <g id="Grupo_1002342" data-name="Grupo 1002342" transform="translate(-62.371 -52.09)">
      <g id="Grupo_1002315" data-name="Grupo 1002315" transform="translate(1347.438 436.338) rotate(-135)">
        <g id="Grupo_1002212" data-name="Grupo 1002212" clip-path="url(#clip-path)">
          <path id="Trazado_707910" data-name="Trazado 707910" d="M15,1.5C9.476,12.543,10.089,29.267,11.93,41.536" fill="none" stroke="#12263f" stroke-linecap="round" stroke-linejoin="round" stroke-width="3"/>
          <path id="Trazado_707911" data-name="Trazado 707911" d="M1.5,35.242c3.681,3.681,7.976,6.135,11.656,9.2a34.1,34.1,0,0,1,5.522-10.429" fill="none" stroke="#12263f" stroke-linecap="round" stroke-linejoin="round" stroke-width="3"/>
        </g>
      </g>
    </g>
    <g id="g9370" transform="translate(1260.844 254.708)">
      <g id="g9376" transform="translate(97.119 3.638)">
        <path id="path9378" d="M564.184,30l-4.851,4.851v73.083h4.851a4.865,4.865,0,0,0,4.851-4.851V34.851A4.865,4.865,0,0,0,564.184,30" transform="translate(-559.333 -30)" fill="#4db1f0"/>
      </g>
      <g id="g9380" transform="translate(42.63 3.638)">
        <path id="path9382" d="M114.851,30A4.851,4.851,0,0,0,110,34.851v68.233a4.851,4.851,0,0,0,4.851,4.851h49.638a4.865,4.865,0,0,0,4.851-4.851V91.765Z" transform="translate(-110 -30)" fill="#4db1f0"/>
      </g>
      <g id="g9384" transform="translate(34.546 55.702)">
        <path id="path9386" d="M43.333,469.034A6.468,6.468,0,0,0,49.8,475.5H104.29V459.333l-48.022,9.7Z" transform="translate(-43.333 -459.333)" fill="#c8e0ef"/>
      </g>
      <g id="g9388" transform="translate(93.077 3.638)">
        <path id="path9390" d="M530.042,30,526,97.761a6.468,6.468,0,0,0,8.893-6V30Z" transform="translate(-526 -30)" fill="#e6faff"/>
      </g>
      <g id="g9392" transform="translate(47.481 3.638)">
        <path id="path9394" d="M199.638,30H150V91.765h41.554a6.469,6.469,0,0,0,4.042,6,6.469,6.469,0,0,0,4.042-6Z" transform="translate(-150 -30)" fill="#fff"/>
      </g>
      <g id="g9396" transform="translate(71.087 4.851)">
        <path id="path9398" d="M351.943,43.638A3.638,3.638,0,1,1,348.3,40a3.638,3.638,0,0,1,3.638,3.638" transform="translate(-344.667 -40)" fill="#fff"/>
      </g>
      <g id="g9400" transform="translate(82.002 10.914)">
        <path id="path9402" d="M437.094,90h-2.425l2.425,4.851h4.851A4.851,4.851,0,0,0,437.094,90" transform="translate(-434.669 -90)" fill="#f6f6f6"/>
      </g>
      <g id="g9404" transform="translate(60.173 1.213)">
        <path id="path9406" d="M269.219,19.7a2.425,2.425,0,1,1,2.425-2.425,2.425,2.425,0,0,1-2.425,2.425m7.276,0V17.276a7.276,7.276,0,0,0-14.552,0V19.7h-2.425a4.851,4.851,0,0,0-4.851,4.851H278.92c0-2.679-1.086-4.85-2.425-4.851" transform="translate(-254.667 -10)" fill="#e8e8e8"/>
      </g>
      <g id="g9408" transform="translate(63.731 23.445)">
        <path id="path9410" d="M305.665,209.426,297.1,194.55a2.422,2.422,0,0,0-4.2,0l-8.57,14.875a2.423,2.423,0,0,0,2.1,3.634h17.139a2.423,2.423,0,0,0,2.1-3.634" transform="translate(-284 -193.334)" fill="#ffa031"/>
      </g>
      <g id="g9412" transform="translate(73.514 37.108)">
        <path id="path9414" d="M367.1,307.213A1.211,1.211,0,1,1,365.891,306a1.212,1.212,0,0,1,1.211,1.213" transform="translate(-364.68 -306)"/>
      </g>
      <g id="g9416" transform="translate(55.242 56.51)">
        <path id="Trazado_719333" data-name="Trazado 719333" d="M251.754,468.425H215.213a1.213,1.213,0,0,1,0-2.425h36.542a1.213,1.213,0,0,1,0,2.425Z" transform="translate(-214 -466)"/>
      </g>
      <g id="g9420" transform="translate(55.242 46.809)">
        <path id="Trazado_719334" data-name="Trazado 719334" d="M251.754,388.425H215.213a1.213,1.213,0,1,1,0-2.425h36.542a1.213,1.213,0,1,1,0,2.425Z" transform="translate(-214 -386)"/>
      </g>
      <g id="g9424" transform="translate(55.242 51.66)">
        <path id="Trazado_719335" data-name="Trazado 719335" d="M251.754,428.425H215.213a1.213,1.213,0,1,1,0-2.425h36.542a1.213,1.213,0,1,1,0,2.425Z" transform="translate(-214 -426)"/>
      </g>
      <g id="g9428" transform="translate(46.268 2.425)">
        <path id="Trazado_719336" data-name="Trazado 719336" d="M141.213,79.34A1.213,1.213,0,0,1,140,78.127V21.213a1.213,1.213,0,1,1,2.425,0V78.127A1.213,1.213,0,0,1,141.213,79.34Z" transform="translate(-140 -20)"/>
      </g>
      <g id="g9432" transform="translate(33.333 2.425)">
        <path id="Trazado_719337" data-name="Trazado 719337" d="M95.5,90.658H41.013a7.689,7.689,0,0,1-7.68-7.68,1.213,1.213,0,0,1,1.213-1.213H89.035a1.213,1.213,0,0,1,1.213,1.213,5.255,5.255,0,1,0,10.51,0V21.213a1.213,1.213,0,1,1,2.425,0V82.978A7.689,7.689,0,0,1,95.5,90.658ZM35.9,84.19a5.264,5.264,0,0,0,5.114,4.042H89.906a7.662,7.662,0,0,1-1.989-4.042Z" transform="translate(-33.333 -20)"/>
      </g>
      <g id="g9436" transform="translate(58.961)">
        <path id="Trazado_719338" data-name="Trazado 719338" d="M274.984,16.977h-29.1a1.213,1.213,0,0,1-1.213-1.213A6.07,6.07,0,0,1,250.73,9.7h1.213V8.489a8.489,8.489,0,0,1,16.977,0V9.7h1.213a6.07,6.07,0,0,1,6.063,6.063A1.213,1.213,0,0,1,274.984,16.977ZM247.3,14.552h26.263a3.644,3.644,0,0,0-3.43-2.425h-2.425a1.213,1.213,0,0,1-1.213-1.213V8.489a6.063,6.063,0,0,0-12.127,0v2.425a1.213,1.213,0,0,1-1.213,1.213H250.73A3.644,3.644,0,0,0,247.3,14.552Z" transform="translate(-244.667)"/>
      </g>
      <g id="g9440" transform="translate(71.087 4.851)">
        <path id="Trazado_719339" data-name="Trazado 719339" d="M348.3,47.276a3.638,3.638,0,1,1,3.638-3.638A3.642,3.642,0,0,1,348.3,47.276Zm0-4.851a1.213,1.213,0,1,0,1.213,1.213A1.214,1.214,0,0,0,348.3,42.425Z" transform="translate(-344.667 -40)"/>
      </g>
      <g id="g9444" transform="translate(41.417 2.425)">
        <path id="Trazado_719340" data-name="Trazado 719340" d="M101.213,84.19A1.213,1.213,0,0,1,100,82.978V26.063A6.07,6.07,0,0,1,106.063,20h21.823a1.213,1.213,0,1,1,0,2.425H106.063a3.642,3.642,0,0,0-3.638,3.638V82.978A1.213,1.213,0,0,1,101.213,84.19Z" transform="translate(-100 -20)"/>
      </g>
      <g id="g9448" transform="translate(41.417 2.425)">
        <path id="Trazado_719341" data-name="Trazado 719341" d="M160.552,100.359H106.063A6.07,6.07,0,0,1,100,94.3V89.445a1.213,1.213,0,1,1,2.425,0V94.3a3.642,3.642,0,0,0,3.638,3.638h54.489A3.642,3.642,0,0,0,164.19,94.3V26.063a3.642,3.642,0,0,0-3.638-3.638H138.73a1.213,1.213,0,0,1,0-2.425h21.823a6.07,6.07,0,0,1,6.063,6.063V94.3A6.07,6.07,0,0,1,160.552,100.359Z" transform="translate(-100 -20)"/>
      </g>
      <g id="g9452" transform="translate(73.513 29.832)">
        <path id="Trazado_719342" data-name="Trazado 719342" d="M365.88,252.063a1.213,1.213,0,0,1-1.213-1.213v-3.638a1.213,1.213,0,0,1,2.425,0v3.638A1.213,1.213,0,0,1,365.88,252.063Z" transform="translate(-364.667 -246)"/>
      </g>
      <g id="g9456" transform="translate(62.518 22.232)">
        <path id="Trazado_719343" data-name="Trazado 719343" d="M294.777,205.485H277.638a3.635,3.635,0,0,1-3.151-5.453l8.569-14.875a3.634,3.634,0,0,1,6.3,0l8.57,14.876a3.635,3.635,0,0,1-3.151,5.452Zm-8.57-19.726a1.217,1.217,0,0,0-1.05.61l-8.569,14.875a1.194,1.194,0,0,0-.163.6,1.214,1.214,0,0,0,1.213,1.213h17.139a1.214,1.214,0,0,0,1.213-1.213,1.192,1.192,0,0,0-.163-.6h0l-8.57-14.875A1.217,1.217,0,0,0,286.208,185.759Z" transform="translate(-274 -183.334)"/>
      </g>
    </g>
  </g>
</svg>
