<svg xmlns="http://www.w3.org/2000/svg" xmlns:xlink="http://www.w3.org/1999/xlink" width="109.752" height="110.208" viewBox="0 0 109.752 110.208">
  <defs>
    <clipPath id="clip-path">
      <rect id="Rectángulo_346374" data-name="Rectángulo 346374" width="20.178" height="45.944" fill="none" stroke="#12263f" stroke-width="1"/>
    </clipPath>
  </defs>
  <g id="Grupo_1013608" data-name="Grupo 1013608" transform="translate(-758.828 -391.559)">
    <g id="Grupo_1002341" data-name="Grupo 1002341" transform="translate(758.828 391.559)">
      <g id="Grupo_1002316" data-name="Grupo 1002316" transform="matrix(0.799, -0.602, 0.602, 0.799, 0, 12.144)">
        <g id="Grupo_1002212" data-name="Grupo 1002212" transform="translate(0)" clip-path="url(#clip-path)">
          <path id="Trazado_707910" data-name="Trazado 707910" d="M4.374,0C-1.147,11.043-.534,27.767,1.307,40.036" transform="translate(10.623 1.5)" fill="none" stroke="#12263f" stroke-linecap="round" stroke-linejoin="round" stroke-width="3"/>
          <path id="Trazado_707911" data-name="Trazado 707911" d="M0,1.227c3.681,3.681,7.976,6.135,11.656,9.2A34.1,34.1,0,0,1,17.178,0" transform="translate(1.5 34.015)" fill="none" stroke="#12263f" stroke-linecap="round" stroke-linejoin="round" stroke-width="3"/>
        </g>
      </g>
    </g>
    <g id="Grupo_1013653" data-name="Grupo 1013653" transform="translate(782.798 410.4)">
      <g id="Grupo_1013651" data-name="Grupo 1013651" transform="translate(5.03 13.233)">
        <g id="Grupo_1013649" data-name="Grupo 1013649" transform="translate(0 28.764)">
          <g id="Grupo_1013638" data-name="Grupo 1013638" transform="translate(39.386 0.005)">
            <g id="Grupo_1013637" data-name="Grupo 1013637">
              <g id="Grupo_1013636" data-name="Grupo 1013636">
                <g id="Grupo_1013635" data-name="Grupo 1013635">
                  <g id="Grupo_1013634" data-name="Grupo 1013634">
                    <g id="Grupo_1013631" data-name="Grupo 1013631" transform="translate(12.281 0.467)">
                      <path id="Trazado_719398" data-name="Trazado 719398" d="M349.792,202.117a3.173,3.173,0,0,1-.306,4.457l-11.956,10.363a3.159,3.159,0,1,1-4.152-4.763l11.956-10.363a3.146,3.146,0,0,1,4.457.306Z" transform="translate(-331.308 -200.045)" fill="#f4c984"/>
                      <path id="Trazado_719399" data-name="Trazado 719399" d="M330.255,213.537a4.127,4.127,0,0,1-2.719-7.241l11.956-10.363a4.129,4.129,0,0,1,5.423,6.227l-11.956,10.363a4.016,4.016,0,0,1-2.7,1.014Zm11.956-16.67a2.165,2.165,0,0,0-1.432.531L328.823,207.76a2.19,2.19,0,1,0,2.88,3.3L343.659,200.7a2.176,2.176,0,0,0,.209-3.089,2.237,2.237,0,0,0-1.657-.74Z" transform="translate(-326.123 -194.923)"/>
                    </g>
                    <g id="Grupo_1013632" data-name="Grupo 1013632" transform="translate(18.766)">
                      <path id="Trazado_719400" data-name="Trazado 719400" d="M389.992,199.151a3.173,3.173,0,0,1-.306,4.457l-11.956,10.363a3.159,3.159,0,0,1-4.151-4.763l11.956-10.363a3.158,3.158,0,0,1,4.457.306Z" transform="translate(-371.524 -197.095)" fill="#f4c984"/>
                      <path id="Trazado_719401" data-name="Trazado 719401" d="M370.555,210.637a4.127,4.127,0,0,1-2.719-7.241l11.956-10.363a4.129,4.129,0,0,1,5.423,6.227l-11.956,10.363a4.1,4.1,0,0,1-2.7,1.014Zm11.956-16.67a2.165,2.165,0,0,0-1.432.531L369.123,204.86a2.19,2.19,0,1,0,2.88,3.3L383.959,197.8a2.176,2.176,0,0,0,.209-3.089,2.237,2.237,0,0,0-1.657-.74Z" transform="translate(-366.423 -192.023)"/>
                    </g>
                    <g id="Grupo_1013633" data-name="Grupo 1013633" transform="translate(0 3.931)">
                      <path id="Trazado_719402" data-name="Trazado 719402" d="M255.8,250.284v-9.622c0-7.595,4.039-11.151,9.494-11.151h8.834a3.154,3.154,0,0,1,0,6.308h-8.979l-.37.016h8.56a5.46,5.46,0,0,0,3.83-1.448l12.825-11.312a3.159,3.159,0,1,1,4.151,4.763l-14,12.422c-1.529,1.529-4.859,2.977-11.135,2.977v7Z" transform="translate(-254.835 -221.361)" fill="#f4c984"/>
                      <path id="Trazado_719403" data-name="Trazado 719403" d="M263.992,246.342H250.765a.968.968,0,0,1-.965-.965v-9.622c0-3.894,1-6.951,2.961-9.075a9.909,9.909,0,0,1,7.5-3.041h8.834a4.14,4.14,0,0,1,4.1,3.653l11.135-9.816a4.169,4.169,0,0,1,2.993-1.014,4.127,4.127,0,0,1,2.832,1.416,4.129,4.129,0,0,1-.418,5.825l-13.967,12.406c-1.432,1.416-4.457,3.073-10.829,3.218v6.05a.945.945,0,0,1-.949.965Zm-12.261-1.931h11.3v-6.034a.968.968,0,0,1,.965-.965c6.742,0,9.445-1.69,10.443-2.687.016-.016.032-.032.048-.032l14-12.422a2.126,2.126,0,0,0,.756-1.513,2.2,2.2,0,0,0-2.027-2.349,2.138,2.138,0,0,0-1.593.531l-12.792,11.28a5.624,5.624,0,0,1-1.432,1,4.1,4.1,0,0,1-2.269.692h-.209c-.177.016-.37.016-.579.016h-8.56a.967.967,0,0,1-.064-1.931l.37-.016h8.754a4.757,4.757,0,0,0,1.577-.418,2.189,2.189,0,0,0-1.287-3.958h-8.834c-5.423,0-8.528,3.717-8.528,10.186v8.625Z" transform="translate(-249.8 -216.454)"/>
                    </g>
                  </g>
                </g>
              </g>
            </g>
          </g>
          <g id="Grupo_1013639" data-name="Grupo 1013639" transform="translate(39.386 31.878)">
            <path id="Trazado_719404" data-name="Trazado 719404" d="M255.8,396.2h15.753v15.56H255.8Z" transform="translate(-254.835 -395.218)" fill="#4db1f0"/>
            <path id="Trazado_719405" data-name="Trazado 719405" d="M266.519,407.591H250.765a.968.968,0,0,1-.965-.965v-15.56a.968.968,0,0,1,.965-.965h15.753a.968.968,0,0,1,.965.965v15.56A.958.958,0,0,1,266.519,407.591Zm-14.788-1.931h13.822V392.031H251.731Z" transform="translate(-249.8 -390.1)"/>
          </g>
          <g id="Grupo_1013647" data-name="Grupo 1013647">
            <g id="Grupo_1013646" data-name="Grupo 1013646">
              <g id="Grupo_1013645" data-name="Grupo 1013645">
                <g id="Grupo_1013644" data-name="Grupo 1013644">
                  <g id="Grupo_1013643" data-name="Grupo 1013643">
                    <g id="Grupo_1013640" data-name="Grupo 1013640" transform="translate(8.876 0.483)">
                      <path id="Trazado_719406" data-name="Trazado 719406" d="M66.974,202.117a3.173,3.173,0,0,0,.306,4.457l11.956,10.363a3.159,3.159,0,1,0,4.151-4.763L71.431,201.811a3.146,3.146,0,0,0-4.457.306Z" transform="translate(-65.234 -200.056)" fill="#f4c984"/>
                      <path id="Trazado_719407" data-name="Trazado 719407" d="M76.282,213.592a4.1,4.1,0,0,1-2.7-1.014L61.607,202.232A4.129,4.129,0,1,1,67.03,196l11.956,10.363a4.113,4.113,0,0,1-2.7,7.225ZM62.669,197.678a2.2,2.2,0,0,0,.209,3.089L74.834,211.13a2.195,2.195,0,1,0,2.9-3.3L65.775,197.469a2.193,2.193,0,0,0-3.106.209Z" transform="translate(-60.189 -194.989)"/>
                    </g>
                    <g id="Grupo_1013641" data-name="Grupo 1013641" transform="translate(2.407)">
                      <path id="Trazado_719408" data-name="Trazado 719408" d="M26.774,199.151a3.173,3.173,0,0,0,.306,4.457l11.956,10.363a3.159,3.159,0,1,0,4.152-4.763L31.231,198.845a3.158,3.158,0,0,0-4.457.306Z" transform="translate(-25.034 -197.09)" fill="#f4c984"/>
                      <path id="Trazado_719409" data-name="Trazado 719409" d="M36.066,210.608a4.1,4.1,0,0,1-2.7-1.014L21.407,199.232A4.129,4.129,0,0,1,26.83,193l11.956,10.363a4.127,4.127,0,0,1-2.719,7.241ZM22.453,194.694a2.2,2.2,0,0,0,.209,3.089l11.956,10.363a2.195,2.195,0,1,0,2.9-3.3L25.559,194.485a2.194,2.194,0,0,0-3.106.209Z" transform="translate(-19.989 -191.989)"/>
                    </g>
                    <g id="Grupo_1013642" data-name="Grupo 1013642" transform="translate(0 3.949)">
                      <path id="Trazado_719410" data-name="Trazado 719410" d="M50.625,250.284v-9.622c0-7.595-4.039-11.151-9.494-11.151H32.3a3.154,3.154,0,1,0,0,6.308h8.979l.37.016h-8.56a5.46,5.46,0,0,1-3.83-1.448L16.431,223.074a3.159,3.159,0,0,0-4.152,4.763l14,12.422c1.529,1.529,4.86,2.977,11.135,2.977v7Z" transform="translate(-10.209 -221.373)" fill="#f4c984"/>
                      <path id="Trazado_719411" data-name="Trazado 719411" d="M32.219,246.407a.9.9,0,0,1-.676-.29.993.993,0,0,1-.29-.676v-6.05c-6.372-.145-9.4-1.818-10.829-3.218L6.441,223.766a4.138,4.138,0,0,1-1.4-2.816,4.129,4.129,0,0,1,6.823-3.411l11.151,9.816a4.128,4.128,0,0,1,4.1-3.653h8.834a9.827,9.827,0,0,1,7.5,3.041c1.963,2.124,2.961,5.181,2.961,9.075v9.622a.968.968,0,0,1-.965.965Zm.965-1.931h11.3v-8.657c0-6.469-3.106-10.186-8.528-10.186H27.118a2.192,2.192,0,0,0-1.271,3.975,4.765,4.765,0,0,0,1.561.418h8.754l.37.016a.967.967,0,0,1-.064,1.931h-8.56c-.193,0-.386,0-.579-.016h-.209a4.154,4.154,0,0,1-2.285-.692,5.623,5.623,0,0,1-1.432-1l-12.809-11.28A2.183,2.183,0,0,0,9,218.456,2.19,2.19,0,0,0,7.729,222.3L21.744,234.74c.016.016.032.032.048.032,1,1,3.7,2.687,10.443,2.687a.968.968,0,0,1,.965.965v6.05Z" transform="translate(-5.03 -216.53)"/>
                    </g>
                  </g>
                </g>
              </g>
            </g>
          </g>
          <g id="Grupo_1013648" data-name="Grupo 1013648" transform="translate(23.697 31.878)">
            <path id="Trazado_719412" data-name="Trazado 719412" d="M158.3,396.2h15.753v15.56H158.3Z" transform="translate(-157.335 -395.218)" fill="#4db1f0"/>
            <path id="Trazado_719413" data-name="Trazado 719413" d="M169.019,407.591H153.265a.968.968,0,0,1-.965-.965v-15.56a.968.968,0,0,1,.965-.965h15.753a.968.968,0,0,1,.965.965v15.56A.958.958,0,0,1,169.019,407.591Zm-14.788-1.931h13.822V392.031H154.231Z" transform="translate(-152.3 -390.1)"/>
          </g>
        </g>
        <g id="Grupo_1013650" data-name="Grupo 1013650" transform="translate(12.341 0)">
          <path id="Trazado_719414" data-name="Trazado 719414" d="M138.312,24.294c-10.25-12.165-23.413,1.078-23.413,1.078h-.048s-13.163-13.227-23.413-1.078C80.545,37.215,95.06,55.2,114.852,57.618h.048C134.692,55.2,149.206,37.215,138.312,24.294Z" transform="translate(-86.745 -18.201)" fill="#115089"/>
          <path id="Trazado_719415" data-name="Trazado 719415" d="M109.882,53.617h-.161a37.459,37.459,0,0,1-16.783-6.324,27.284,27.284,0,0,1-9.976-11.907,15.9,15.9,0,0,1,2.719-16.67c2.929-3.476,6.372-5.31,10.234-5.471,6.42-.257,12.052,4.184,13.935,5.873,1.883-1.673,7.5-6.131,13.935-5.873,3.862.161,7.305,2,10.234,5.471a15.889,15.889,0,0,1,2.719,16.67,27.109,27.109,0,0,1-9.976,11.907,37.388,37.388,0,0,1-16.783,6.324c-.032-.016-.064,0-.1,0ZM96.462,15.159a4.369,4.369,0,0,0-.467.016c-3.3.145-6.276,1.754-8.834,4.8a13.846,13.846,0,0,0-2.4,14.707c3.379,8.609,13.694,15.592,25.1,17.008,11.409-1.416,21.723-8.4,25.1-17.008a13.84,13.84,0,0,0-2.4-14.707c-2.558-3.041-5.535-4.65-8.834-4.8-6.887-.29-13.1,5.857-13.163,5.922a1,1,0,0,1-.692.29h-.048a.962.962,0,0,1-.692-.29c-.048-.08-5.986-5.938-12.68-5.938Z" transform="translate(-81.727 -13.233)"/>
        </g>
        <path id="Trazado_719416" data-name="Trazado 719416" d="M215.587,105.476V100.6h-7.611v4.876H203.1v7.611h4.876v4.876h7.611v-4.876h4.876v-7.611Z" transform="translate(-171.228 -86.542)" fill="#fff"/>
      </g>
    </g>
  </g>
</svg>
