<svg xmlns="http://www.w3.org/2000/svg" xmlns:xlink="http://www.w3.org/1999/xlink" width="98.955" height="99.541" viewBox="0 0 98.955 99.541">
  <defs>
    <radialGradient id="radial-gradient" cx="0.076" cy="0.019" r="1.465" gradientTransform="translate(0.001)" gradientUnits="objectBoundingBox">
      <stop offset="0" stop-color="#f6f6f7"/>
      <stop offset="0.477" stop-color="#f9f9fa"/>
      <stop offset="0.715" stop-color="#fff"/>
    </radialGradient>
    <filter id="Trazado_40937" x="0" y="0.684" width="98.955" height="98.856" filterUnits="userSpaceOnUse">
      <feOffset dy="7" input="SourceAlpha"/>
      <feGaussianBlur stdDeviation="2.5" result="blur"/>
      <feFlood flood-opacity="0.102"/>
      <feComposite operator="in" in2="blur"/>
      <feComposite in="SourceGraphic"/>
    </filter>
  </defs>
  <g id="Grupo_1027614" data-name="Grupo 1027614" transform="translate(6.414)">
    <g id="Grupo_997987" data-name="Grupo 997987" transform="translate(0)">
      <g id="Grupo_18423" data-name="Grupo 18423" transform="translate(0 0)">
        <g id="Grupo_18421" data-name="Grupo 18421">
          <g id="Grupo_18420" data-name="Grupo 18420">
            <g id="Grupo_18419" data-name="Grupo 18419">
              <path id="Trazado_40936" data-name="Trazado 40936" d="M279.664,2188.24a42.521,42.521,0,1,1-42.52-42.519A42.52,42.52,0,0,1,279.664,2188.24Z" transform="translate(-194.623 -2145.721)" fill="#fff"/>
            </g>
          </g>
        </g>
        <g transform="matrix(1, 0, 0, 1, -6.41, 0)" filter="url(#Trazado_40937)">
          <path id="Trazado_40937-2" data-name="Trazado 40937" d="M279.432,2187.987a42.52,42.52,0,1,0-42.52,42.521A42.352,42.352,0,0,0,279.432,2187.987Z" transform="translate(-187.98 -2145.47)" fill="url(#radial-gradient)"/>
        </g>
        <path id="Trazado_40938" data-name="Trazado 40938" d="M267.371,2186.006a32.456,32.456,0,1,0-32.456,32.456A32.336,32.336,0,0,0,267.371,2186.006Z" transform="translate(-192.266 -2143.346)" fill="none" stroke="#4db1f0" stroke-miterlimit="10" stroke-width="4"/>
        <g id="Grupo_18422" data-name="Grupo 18422" transform="translate(7.533 23.872)">
          <path id="Trazado_40939" data-name="Trazado 40939" d="M273.754,2164.488a42.526,42.526,0,0,1-73.209,42.344,42.391,42.391,0,0,0,73.209-42.344Z" transform="translate(-200.545 -2164.488)" fill="#eceef0"/>
        </g>
      </g>
    </g>
    <g id="Grupo_1027647" data-name="Grupo 1027647" transform="translate(15.379 16.371)">
      <g id="Grupo_1027639" data-name="Grupo 1027639" transform="translate(8.647 8.647)">
        <g id="Grupo_1027629" data-name="Grupo 1027629" transform="translate(31.068 0)">
          <path id="Trazado_726090" data-name="Trazado 726090" d="M402.563,26.356l-.006.006a.314.314,0,0,0-.071-.091l-.46-.46a1.337,1.337,0,0,0-1.553-.246A1.237,1.237,0,0,1,400,25.7V16h7.767V26.356Z" transform="translate(-400 -16)" fill="#e6e9ed"/>
        </g>
        <g id="Grupo_1027630" data-name="Grupo 1027630" transform="translate(15.534 0)">
          <path id="Trazado_726091" data-name="Trazado 726091" d="M215.767,21.178v4.259a1.31,1.31,0,0,0-.731.375l-.46.46a.315.315,0,0,0-.071.091l-.006-.006H208V16h7.767Z" transform="translate(-208 -16)" fill="#e6e9ed"/>
        </g>
        <g id="Grupo_1027631" data-name="Grupo 1027631" transform="translate(0 0)">
          <path id="Trazado_726092" data-name="Trazado 726092" d="M23.767,21.178v5.178H16V16h7.767Z" transform="translate(-16 -16)" fill="#e6e9ed"/>
        </g>
        <g id="Grupo_1027632" data-name="Grupo 1027632" transform="translate(20.065 7.767)">
          <path id="Trazado_726093" data-name="Trazado 726093" d="M264.926,118.168a1.324,1.324,0,0,0,.816-.764l.1-.233a1.268,1.268,0,0,0,.1-.511,1.308,1.308,0,0,0-.142-.6,1.316,1.316,0,0,1,.175-1.463.315.315,0,0,1,.071-.091l.46-.46a1.31,1.31,0,0,1,.731-.375,1.191,1.191,0,0,1,.214-.019,1.361,1.361,0,0,1,.608.149,1.315,1.315,0,0,0,1.113.039l.233-.1a1.324,1.324,0,0,0,.764-.816,1.349,1.349,0,0,1,1.275-.926h.647a1.349,1.349,0,0,1,1.275.926,1.324,1.324,0,0,0,.764.816l.233.1a1.268,1.268,0,0,0,.511.1.866.866,0,0,0,.129-.006,1.237,1.237,0,0,0,.472-.136,1.337,1.337,0,0,1,1.553.246l.46.46a.315.315,0,0,1,.071.091,1.279,1.279,0,0,1,.324.854,1.361,1.361,0,0,1-.149.608,1.315,1.315,0,0,0-.039,1.113l.1.233a1.324,1.324,0,0,0,.816.764,1.349,1.349,0,0,1,.926,1.275v.647a1.349,1.349,0,0,1-.926,1.275,1.324,1.324,0,0,0-.816.764l-.1.233a1.267,1.267,0,0,0-.1.511,1.307,1.307,0,0,0,.142.6,1.337,1.337,0,0,1-.246,1.553l-.46.46a1.339,1.339,0,0,1-.945.395,1.361,1.361,0,0,1-.608-.149,1.315,1.315,0,0,0-1.113-.039l-.233.1a1.324,1.324,0,0,0-.764.816,1.349,1.349,0,0,1-1.275.926h-.647a1.339,1.339,0,0,1-.971-.414V123.43a3.885,3.885,0,1,0-2.589-3.663H264v-.324a1.349,1.349,0,0,1,.926-1.275Z" transform="translate(-264 -112)" fill="#ffa031"/>
        </g>
        <g id="Grupo_1027633" data-name="Grupo 1027633" transform="translate(23.948 11.65)">
          <path id="Trazado_726094" data-name="Trazado 726094" d="M314.589,166.472A2.588,2.588,0,0,0,312,163.883a3.876,3.876,0,1,1,2.589,3.663Zm0-2.589a1.295,1.295,0,1,0,1.294-1.294A1.3,1.3,0,0,0,314.589,163.883Z" transform="translate(-312 -160)" fill="#ffa031"/>
        </g>
        <g id="Grupo_1027634" data-name="Grupo 1027634" transform="translate(0 33.657)">
          <path id="Trazado_726095" data-name="Trazado 726095" d="M43.184,432H17.294A1.3,1.3,0,0,0,16,433.294a3.887,3.887,0,0,0,3.883,3.883H40.6a3.889,3.889,0,0,0,3.883-3.883A1.3,1.3,0,0,0,43.184,432Z" transform="translate(-16 -432)" fill="#969faa"/>
        </g>
        <g id="Grupo_1027635" data-name="Grupo 1027635" transform="translate(10.356 33.657)">
          <path id="Trazado_726096" data-name="Trazado 726096" d="M151.767,432v1.294a1.3,1.3,0,0,1-1.294,1.294h-5.178A1.3,1.3,0,0,1,144,433.294V432Z" transform="translate(-144 -432)" fill="#fcd770"/>
        </g>
        <g id="Grupo_1027636" data-name="Grupo 1027636" transform="translate(1.942 15.534)">
          <path id="Trazado_726097" data-name="Trazado 726097" d="M64.6,215.353v10.77H40V210.589A2.588,2.588,0,0,1,42.589,208H62.006a2.588,2.588,0,0,1,2.589,2.589v4.764Z" transform="translate(-40 -208)" fill="#ccd1d9"/>
        </g>
        <g id="Grupo_1027637" data-name="Grupo 1027637" transform="translate(4.531 18.123)">
          <path id="Trazado_726098" data-name="Trazado 726098" d="M91.417,240.647V252.3a.649.649,0,0,1-.647.647H72.647A.649.649,0,0,1,72,252.3v-11.65a.649.649,0,0,1,.647-.647H90.77A.649.649,0,0,1,91.417,240.647Z" transform="translate(-72 -240)" fill="#69d6f4"/>
        </g>
      </g>
      <g id="Grupo_1027640" data-name="Grupo 1027640" transform="translate(8 8)">
        <path id="Trazado_726100" data-name="Trazado 726100" d="M83.417,232H65.294A1.3,1.3,0,0,0,64,233.294v11.65a1.3,1.3,0,0,0,1.294,1.294H83.417a1.3,1.3,0,0,0,1.294-1.294v-11.65A1.3,1.3,0,0,0,83.417,232ZM65.294,244.945v-11.65H83.417v11.65Z" transform="translate(-59.469 -213.877)"/>
        <path id="Trazado_726102" data-name="Trazado 726102" d="M48.129,8H39.068v5.178H32.6V8H23.534v5.178H17.061V8H8V19.65h9.061V14.472h6.472V19.65h6.2a1.984,1.984,0,0,0,.2,1.114.666.666,0,0,1,.025.566c-.036.083-.071.168-.1.252a.663.663,0,0,1-.419.386,1.987,1.987,0,0,0-1.342,1.566H13.178A3.24,3.24,0,0,0,9.942,26.77V41.657A1.944,1.944,0,0,0,8,43.6a4.536,4.536,0,0,0,4.531,4.531H33.243A4.536,4.536,0,0,0,37.773,43.6a1.944,1.944,0,0,0-1.942-1.942v-9.1a1.948,1.948,0,0,0,.325.034H36.8a1.986,1.986,0,0,0,1.891-1.37.663.663,0,0,1,.384-.418c.085-.033.17-.067.254-.1a.664.664,0,0,1,.565.025,1.985,1.985,0,0,0,2.3-.369l.456-.456a1.985,1.985,0,0,0,.369-2.3A.666.666,0,0,1,43,27.033c.036-.083.071-.168.1-.252a.663.663,0,0,1,.419-.386A1.988,1.988,0,0,0,44.893,24.5v-.645a1.986,1.986,0,0,0-1.37-1.891.663.663,0,0,1-.418-.384c-.033-.085-.067-.17-.1-.254a.666.666,0,0,1,.025-.565,1.983,1.983,0,0,0,.2-1.114h4.905ZM15.767,18.356H9.294V9.294h6.472Zm23.3-3.883v3.076a.663.663,0,0,1-.376-.413A1.987,1.987,0,0,0,36.8,15.767h-.645a1.986,1.986,0,0,0-1.891,1.37.662.662,0,0,1-.386.418c-.085.033-.169.067-.253.1a.664.664,0,0,1-.565-.025,2,2,0,0,0-.467-.161v-3ZM24.828,9.294H31.3v8.325a1.973,1.973,0,0,0-.544.384l-.353.353H24.828Zm11.65,34.3a3.24,3.24,0,0,1-3.236,3.236H12.531A3.24,3.24,0,0,1,9.294,43.6a.648.648,0,0,1,.647-.647h8.414V43.6A1.944,1.944,0,0,0,20.3,45.54h5.178A1.944,1.944,0,0,0,27.417,43.6v-.647h8.414A.648.648,0,0,1,36.479,43.6ZM19.65,42.951h6.472V43.6a.648.648,0,0,1-.647.647H20.3a.648.648,0,0,1-.647-.647Zm-8.414-1.294V26.77a1.944,1.944,0,0,1,1.942-1.942H32.6a1.944,1.944,0,0,1,1.942,1.942V41.657ZM35.718,25.968a1.942,1.942,0,1,0-1.181-1.786c0,.006,0,.012,0,.018a3.214,3.214,0,0,0-1.239-.583,3.259,3.259,0,1,1,2.532,3.729V26.77a3.191,3.191,0,0,0-.113-.8Zm.113-1.786a.647.647,0,1,1,.647.647A.648.648,0,0,1,35.832,24.181ZM43.12,23.2a.694.694,0,0,1,.478.661V24.5a.7.7,0,0,1-.479.661A1.952,1.952,0,0,0,41.9,26.311c-.027.069-.056.139-.085.206a1.954,1.954,0,0,0,.056,1.665.694.694,0,0,1-.129.805l-.456.456a.693.693,0,0,1-.805.129,1.955,1.955,0,0,0-1.664-.056q-.1.044-.208.085a1.954,1.954,0,0,0-1.146,1.221.694.694,0,0,1-.661.478h-.645a.685.685,0,0,1-.325-.092V28.658a4.587,4.587,0,0,0,.647.054A4.531,4.531,0,1,0,32,23.534H29.449a.689.689,0,0,1,.389-.336,1.952,1.952,0,0,0,1.221-1.147c.027-.069.056-.139.085-.206a1.954,1.954,0,0,0-.056-1.665.7.7,0,0,1,.129-.806l.456-.456a.692.692,0,0,1,.806-.129,1.953,1.953,0,0,0,1.664.056c.069-.03.138-.058.207-.085A1.958,1.958,0,0,0,35.5,17.54a.693.693,0,0,1,.66-.479H36.8a.7.7,0,0,1,.661.479,1.955,1.955,0,0,0,1.146,1.221c.069.027.139.056.206.085a1.957,1.957,0,0,0,1.665-.056.694.694,0,0,1,.806.129l.456.456a.7.7,0,0,1,.129.806,1.953,1.953,0,0,0-.056,1.664q.044.1.085.208A1.953,1.953,0,0,0,43.12,23.2Zm3.715-4.842H42.553L42.2,18a1.98,1.98,0,0,0-1.838-.53V9.294h6.472v9.061Z" transform="translate(-8 -8)"/>
        <path id="Trazado_726103" data-name="Trazado 726103" d="M40,40h3.883v1.294H40Z" transform="translate(-37.411 -37.411)"/>
        <path id="Trazado_726104" data-name="Trazado 726104" d="M40,72h3.883v1.294H40Z" transform="translate(-37.411 -66.822)"/>
        <path id="Trazado_726105" data-name="Trazado 726105" d="M40,104h3.883v1.294H40Z" transform="translate(-37.411 -96.233)"/>
        <path id="Trazado_726106" data-name="Trazado 726106" d="M232,40h3.883v1.294H232Z" transform="translate(-213.877 -37.411)"/>
        <path id="Trazado_726107" data-name="Trazado 726107" d="M232,72h3.883v1.294H232Z" transform="translate(-213.877 -66.822)"/>
        <path id="Trazado_726108" data-name="Trazado 726108" d="M232,104h3.883v1.294H232Z" transform="translate(-213.877 -96.233)"/>
        <path id="Trazado_726109" data-name="Trazado 726109" d="M424,40h3.883v1.294H424Z" transform="translate(-390.343 -37.411)"/>
        <path id="Trazado_726110" data-name="Trazado 726110" d="M424,72h3.883v1.294H424Z" transform="translate(-390.343 -66.822)"/>
        <path id="Trazado_726111" data-name="Trazado 726111" d="M424,104h3.883v1.294H424Z" transform="translate(-390.343 -96.233)"/>
      </g>
    </g>
  </g>
</svg>
