<svg xmlns="http://www.w3.org/2000/svg" width="275" height="185.964" viewBox="0 0 275 185.964">
  <g id="Grupo_1029689" data-name="Grupo 1029689" transform="translate(-200 -10493.019)">
    <g id="Grupo_1029681" data-name="Grupo 1029681" transform="translate(10.166 297.391)">
      <path id="Trazado_113636" data-name="Trazado 113636" d="M165.184,231.61a82.592,82.592,0,1,1-82.592-82.592,82.592,82.592,0,0,1,82.592,82.592" transform="translate(189.834 10057)" fill="#0078bb"/>
      <path id="Trazado_113637" data-name="Trazado 113637" d="M1107.932,498.327a59.847,59.847,0,1,1-59.847-59.847,59.847,59.847,0,0,1,59.847,59.847" transform="translate(-643.098 9813.028)" fill="#065958"/>
      <path id="Trazado_113638" data-name="Trazado 113638" d="M1159.419,561.615a48.046,48.046,0,1,1-48.046-48.046,48.046,48.046,0,0,1,48.046,48.046" transform="translate(-706.386 9749.739)" fill="#fff"/>
      <path id="Trazado_113639" data-name="Trazado 113639" d="M609.673,662.668a29.2,29.2,0,1,1-29.2-29.2,29.2,29.2,0,0,1,29.2,29.2" transform="translate(-274.797 9648.687)" fill="#fff"/>
      <path id="Trazado_113665" data-name="Trazado 113665" d="M127.167,379.974a1.846,1.846,0,1,1-1.846-1.846,1.846,1.846,0,0,1,1.846,1.846" transform="translate(85.763 9863.896)" fill="#fff"/>
      <path id="Trazado_113666" data-name="Trazado 113666" d="M178.842,379.974A1.846,1.846,0,1,1,177,378.128a1.846,1.846,0,0,1,1.846,1.846" transform="translate(42.209 9863.896)" fill="#fff"/>
      <path id="Trazado_113667" data-name="Trazado 113667" d="M230.517,379.974a1.846,1.846,0,1,1-1.846-1.846,1.846,1.846,0,0,1,1.846,1.846" transform="translate(-1.345 9863.896)" fill="#fff"/>
      <path id="Trazado_113668" data-name="Trazado 113668" d="M282.193,379.974a1.846,1.846,0,1,1-1.846-1.846,1.846,1.846,0,0,1,1.846,1.846" transform="translate(-44.899 9863.896)" fill="#fff"/>
      <path id="Trazado_113669" data-name="Trazado 113669" d="M333.867,379.974a1.846,1.846,0,1,1-1.846-1.846,1.846,1.846,0,0,1,1.846,1.846" transform="translate(-88.453 9863.896)" fill="#fff"/>
      <path id="Trazado_113670" data-name="Trazado 113670" d="M127.167,429.3a1.846,1.846,0,1,1-1.846-1.846,1.846,1.846,0,0,1,1.846,1.846" transform="translate(85.763 9822.321)" fill="#fff"/>
      <path id="Trazado_113671" data-name="Trazado 113671" d="M178.842,429.3A1.846,1.846,0,1,1,177,427.454a1.846,1.846,0,0,1,1.846,1.846" transform="translate(42.209 9822.321)" fill="#fff"/>
      <path id="Trazado_113672" data-name="Trazado 113672" d="M230.517,429.3a1.846,1.846,0,1,1-1.846-1.846,1.846,1.846,0,0,1,1.846,1.846" transform="translate(-1.345 9822.321)" fill="#fff"/>
      <path id="Trazado_113673" data-name="Trazado 113673" d="M282.193,429.3a1.846,1.846,0,1,1-1.846-1.846,1.846,1.846,0,0,1,1.846,1.846" transform="translate(-44.899 9822.321)" fill="#fff"/>
      <path id="Trazado_113674" data-name="Trazado 113674" d="M333.867,429.3a1.846,1.846,0,1,1-1.846-1.846,1.846,1.846,0,0,1,1.846,1.846" transform="translate(-88.453 9822.321)" fill="#fff"/>
      <path id="Trazado_113675" data-name="Trazado 113675" d="M127.167,478.626a1.846,1.846,0,1,1-1.846-1.845,1.846,1.846,0,0,1,1.846,1.845" transform="translate(85.763 9780.746)" fill="#fff"/>
      <path id="Trazado_113676" data-name="Trazado 113676" d="M178.842,478.626A1.846,1.846,0,1,1,177,476.781a1.846,1.846,0,0,1,1.846,1.845" transform="translate(42.209 9780.746)" fill="#fff"/>
      <path id="Trazado_113677" data-name="Trazado 113677" d="M230.517,478.626a1.846,1.846,0,1,1-1.846-1.845,1.846,1.846,0,0,1,1.846,1.845" transform="translate(-1.345 9780.746)" fill="#fff"/>
      <path id="Trazado_113678" data-name="Trazado 113678" d="M282.193,478.626a1.846,1.846,0,1,1-1.846-1.845,1.846,1.846,0,0,1,1.846,1.845" transform="translate(-44.899 9780.746)" fill="#fff"/>
      <path id="Trazado_113679" data-name="Trazado 113679" d="M333.867,478.626a1.846,1.846,0,1,1-1.846-1.845,1.846,1.846,0,0,1,1.846,1.845" transform="translate(-88.453 9780.746)" fill="#fff"/>
      <path id="Trazado_113680" data-name="Trazado 113680" d="M127.167,527.953a1.846,1.846,0,1,1-1.846-1.846,1.846,1.846,0,0,1,1.846,1.846" transform="translate(85.763 9739.173)" fill="#fff"/>
      <path id="Trazado_113681" data-name="Trazado 113681" d="M178.842,527.953A1.846,1.846,0,1,1,177,526.107a1.846,1.846,0,0,1,1.846,1.846" transform="translate(42.209 9739.173)" fill="#fff"/>
      <path id="Trazado_113682" data-name="Trazado 113682" d="M230.517,527.953a1.846,1.846,0,1,1-1.846-1.846,1.846,1.846,0,0,1,1.846,1.846" transform="translate(-1.345 9739.173)" fill="#fff"/>
      <path id="Trazado_113683" data-name="Trazado 113683" d="M282.193,527.953a1.846,1.846,0,1,1-1.846-1.846,1.846,1.846,0,0,1,1.846,1.846" transform="translate(-44.899 9739.173)" fill="#fff"/>
      <path id="Trazado_113684" data-name="Trazado 113684" d="M333.867,527.953a1.846,1.846,0,1,1-1.846-1.846,1.846,1.846,0,0,1,1.846,1.846" transform="translate(-88.453 9739.173)" fill="#fff"/>
      <path id="Trazado_113685" data-name="Trazado 113685" d="M127.167,577.279a1.846,1.846,0,1,1-1.846-1.846,1.846,1.846,0,0,1,1.846,1.846" transform="translate(85.763 9697.598)" fill="#fff"/>
      <path id="Trazado_113686" data-name="Trazado 113686" d="M178.842,577.279A1.846,1.846,0,1,1,177,575.433a1.846,1.846,0,0,1,1.846,1.846" transform="translate(42.209 9697.598)" fill="#fff"/>
      <path id="Trazado_113687" data-name="Trazado 113687" d="M230.517,577.279a1.846,1.846,0,1,1-1.846-1.846,1.846,1.846,0,0,1,1.846,1.846" transform="translate(-1.345 9697.598)" fill="#fff"/>
      <path id="Trazado_113688" data-name="Trazado 113688" d="M282.193,577.279a1.846,1.846,0,1,1-1.846-1.846,1.846,1.846,0,0,1,1.846,1.846" transform="translate(-44.899 9697.598)" fill="#fff"/>
      <path id="Trazado_113689" data-name="Trazado 113689" d="M333.867,577.279a1.846,1.846,0,1,1-1.846-1.846,1.846,1.846,0,0,1,1.846,1.846" transform="translate(-88.453 9697.598)" fill="#fff"/>
      <rect id="Rectángulo_33843" data-name="Rectángulo 33843" width="32.423" height="7.584" transform="translate(325.81 10212.938)" fill="#ffa031"/>
    </g>
    <g id="Group_12" data-name="Group 12" transform="translate(297.543 10493.019)">
      <path id="Trazado_718550" data-name="Trazado 718550" d="M361.165,438.629a16.2,16.2,0,0,1-16.2,16.2H305.456a16.2,16.2,0,0,1,0-32.4h39.511A16.2,16.2,0,0,1,361.165,438.629Z" transform="translate(-183.708 -269)" fill="#ffebdc"/>
      <path id="Trazado_718551" data-name="Trazado 718551" d="M327.565,422.43a22.4,22.4,0,0,1-3.278,4.154L297.912,452.96a16.2,16.2,0,0,1,7.545-30.53Z" transform="translate(-183.709 -269)" fill="#ffdbb1"/>
      <path id="Trazado_718552" data-name="Trazado 718552" d="M407.994,454.83H388.239v-32.4h19.755a16.2,16.2,0,0,1,16.147,14.918c.031.425.051.852.051,1.28a16.2,16.2,0,0,1-16.2,16.2Z" transform="translate(-246.736 -269.002)" fill="#ffa031"/>
      <path id="Trazado_718553" data-name="Trazado 718553" d="M417.4,443.506H405.532a2.783,2.783,0,1,1,0-5.565H417.4a2.783,2.783,0,0,1,0,5.565Z" transform="translate(-255.975 -278.877)" fill="#115089"/>
      <path id="Trazado_718554" data-name="Trazado 718554" d="M407.049,464.933h-1.517a2.783,2.783,0,1,1,0-5.565h1.517a2.783,2.783,0,1,1,0,5.565Z" transform="translate(-255.975 -292.522)" fill="#115089"/>
      <path id="Trazado_718555" data-name="Trazado 718555" d="M110.446,128.177v99.212A13.209,13.209,0,0,1,97.238,240.6H13.98A13.21,13.21,0,0,1,.772,227.389V128.177a13.351,13.351,0,0,1,6.182-11.184A28.294,28.294,0,0,0,18.5,102.052a36.621,36.621,0,0,0,1.87-12.575H90.845a36.62,36.62,0,0,0,1.87,12.575,28.291,28.291,0,0,0,11.549,14.941A13.351,13.351,0,0,1,110.446,128.177Z" transform="translate(0 -56.978)" fill="#ffa031"/>
      <path id="Trazado_718556" data-name="Trazado 718556" d="M239.908,343.612V389.22A13.21,13.21,0,0,1,226.7,402.429H208.9a22.31,22.31,0,0,1,1.7-29.609l27.938-27.938Q239.2,344.212,239.908,343.612Z" transform="translate(-129.462 -218.809)" fill="#df8c2a"/>
      <path id="Trazado_718557" data-name="Trazado 718557" d="M49.589,102.051a36.622,36.622,0,0,0,1.87-12.575H121.93a36.62,36.62,0,0,0,1.87,12.575Z" transform="translate(-31.086 -56.978)" fill="#df8c2a"/>
      <path id="Trazado_718558" data-name="Trazado 718558" d="M255.593,128.177v99.212a13.205,13.205,0,0,1-12.085,13.16,13.181,13.181,0,0,0,4.811-10.194V131.142a13.356,13.356,0,0,0-6.182-11.184c-12.665-8.2-13.569-22.206-13.415-27.516l0-2.965h7.265c-.15,5.31.755,19.318,13.419,27.516A13.349,13.349,0,0,1,255.593,128.177Z" transform="translate(-145.148 -56.978)" fill="#df8c2a"/>
      <path id="Trazado_718559" data-name="Trazado 718559" d="M115.435,41.361h-82.6a2.968,2.968,0,0,1-2.968-2.968V7.279a2.968,2.968,0,0,1,2.968-2.968h82.6A2.968,2.968,0,0,1,118.4,7.279V38.393A2.968,2.968,0,0,1,115.435,41.361Z" transform="translate(-18.525 -2.745)" fill="#ffdbb1"/>
      <path id="Trazado_718560" data-name="Trazado 718560" d="M115.435,95.592h-82.6a2.968,2.968,0,0,1-2.968-2.968v-3.15H118.4v3.15A2.968,2.968,0,0,1,115.435,95.592Z" transform="translate(-18.525 -56.976)" fill="#ffc38b"/>
      <path id="Trazado_718561" data-name="Trazado 718561" d="M62.33,40.68A2.783,2.783,0,0,1,59.547,37.9V2.783a2.783,2.783,0,1,1,5.565,0V37.9A2.783,2.783,0,0,1,62.33,40.68Z" transform="translate(-37.427)" fill="#ffc38b"/>
      <path id="Trazado_718562" data-name="Trazado 718562" d="M118.691,40.68a2.783,2.783,0,0,1-2.783-2.783V2.783a2.783,2.783,0,1,1,5.565,0V37.9A2.783,2.783,0,0,1,118.691,40.68Z" transform="translate(-73.318)" fill="#ffc38b"/>
      <path id="Trazado_718563" data-name="Trazado 718563" d="M175.052,40.68a2.783,2.783,0,0,1-2.783-2.783V2.783a2.783,2.783,0,0,1,5.565,0V37.9A2.783,2.783,0,0,1,175.052,40.68Z" transform="translate(-109.208)" fill="#ffc38b"/>
      <path id="Trazado_718564" data-name="Trazado 718564" d="M231.413,40.68A2.783,2.783,0,0,1,228.63,37.9V2.783a2.783,2.783,0,1,1,5.565,0V37.9A2.783,2.783,0,0,1,231.413,40.68Z" transform="translate(-145.098)" fill="#ffc38b"/>
      <path id="Trazado_718565" data-name="Trazado 718565" d="M105.331,139.963H75.48a2.783,2.783,0,0,1,0-5.565h29.851a2.783,2.783,0,0,1,0,5.565Z" transform="translate(-45.801 -85.583)" fill="#df8c2a"/>
      <path id="Trazado_718566" data-name="Trazado 718566" d="M189.048,139.963H183a2.783,2.783,0,1,1,0-5.565h6.05a2.783,2.783,0,0,1,0,5.565Z" transform="translate(-114.268 -85.583)" fill="#df8c2a"/>
      <path id="Trazado_718567" data-name="Trazado 718567" d="M119.937,308.317H49.285a2.968,2.968,0,0,1-2.968-2.968V246.29a2.968,2.968,0,0,1,2.968-2.968h70.652a2.968,2.968,0,0,1,2.968,2.968v59.059A2.969,2.969,0,0,1,119.937,308.317Z" transform="translate(-29.003 -154.945)" fill="#ffebdc"/>
      <path id="Trazado_718568" data-name="Trazado 718568" d="M122.908,372.751V387.77a2.968,2.968,0,0,1-2.968,2.968H49.287a2.968,2.968,0,0,1-2.968-2.968V372.751Z" transform="translate(-29.004 -237.365)" fill="#ffc38b"/>
      <path id="Trazado_718569" data-name="Trazado 718569" d="M235.906,388.856v9.169a2.968,2.968,0,0,1-2.968,2.968h-9.169Z" transform="translate(-142.003 -247.62)" fill="#e4a162"/>
      <path id="Trazado_718570" data-name="Trazado 718570" d="M137.785,395.417H113.66a2.783,2.783,0,1,1,0-5.565h24.126a2.783,2.783,0,1,1,0,5.565Z" transform="translate(-70.114 -248.254)" fill="#df8c2a"/>
      <path id="Trazado_718571" data-name="Trazado 718571" d="M86.938,275.6H77.326a2.783,2.783,0,1,1,0-5.565h9.612a2.783,2.783,0,1,1,0,5.565Z" transform="translate(-46.977 -171.958)" fill="#e4a162"/>
      <path id="Trazado_718572" data-name="Trazado 718572" d="M80.565,310.53h-3.24a2.783,2.783,0,1,1,0-5.565h3.24a2.783,2.783,0,1,1,0,5.565Z" transform="translate(-46.977 -194.199)" fill="#e4a162"/>
      <path id="Trazado_718573" data-name="Trazado 718573" d="M80.565,336.263h-3.24a2.783,2.783,0,1,1,0-5.565h3.24a2.783,2.783,0,1,1,0,5.565Z" transform="translate(-46.977 -210.586)" fill="#e4a162"/>
      <path id="Trazado_718574" data-name="Trazado 718574" d="M167.34,310.53H141.821a2.783,2.783,0,1,1,0-5.565H167.34a2.783,2.783,0,1,1,0,5.565Z" transform="translate(-88.047 -194.199)" fill="#e4a162"/>
      <path id="Trazado_718575" data-name="Trazado 718575" d="M167.34,336.263H141.821a2.783,2.783,0,1,1,0-5.565H167.34a2.783,2.783,0,1,1,0,5.565Z" transform="translate(-88.047 -210.586)" fill="#e4a162"/>
      <path id="Trazado_718576" data-name="Trazado 718576" d="M276.387,373.541,248.45,401.479a16.2,16.2,0,0,1-22.907-22.907l27.938-27.938a16.2,16.2,0,0,1,22.907,22.907Z" transform="translate(-140.111 -220.259)" fill="#ffebdc"/>
      <path id="Trazado_718577" data-name="Trazado 718577" d="M309.194,373.544l-13.969,13.969-22.907-22.907,13.969-13.969a16.2,16.2,0,0,1,21.967-.869c.323.279.639.567.941.869a16.2,16.2,0,0,1,0,22.907Z" transform="translate(-172.918 -220.261)" fill="#115089"/>
      <path id="Trazado_718578" data-name="Trazado 718578" d="M299.5,381.313a2.783,2.783,0,0,1-1.967-4.75l8.39-8.39a2.783,2.783,0,0,1,3.935,3.935l-8.39,8.39A2.777,2.777,0,0,1,299.5,381.313Z" transform="translate(-188.455 -233.93)" fill="#ffa031"/>
      <path id="Trazado_718579" data-name="Trazado 718579" d="M314.651,409.292a2.783,2.783,0,0,1-1.967-4.75l1.073-1.073a2.783,2.783,0,0,1,3.935,3.935l-1.073,1.073A2.774,2.774,0,0,1,314.651,409.292Z" transform="translate(-198.103 -256.407)" fill="#ffa031"/>
    </g>
  </g>
</svg>
