<svg xmlns="http://www.w3.org/2000/svg" width="505" height="283.473" viewBox="0 0 505 283.473">
  <g id="Grupo_1027722" data-name="Grupo 1027722" transform="translate(-215.5 -411.488)">
    <g id="Group_12_" data-name="Group (12)" transform="translate(215.5 411.488)">
      <path id="Trazado_717921" data-name="Trazado 717921" d="M506.845,632.585c.066,13.082-109.075,14.2-250.828,14.957s-244.565.783-244.627-10.413,103.415-13.312,245.168-14.072S506.783,621.39,506.845,632.585Z" transform="translate(-6.981 -364.353)" fill="#e8e8e8"/>
      <path id="Trazado_717922" data-name="Trazado 717922" d="M498.49,194.421c12.82-40.23,11.032-92.1-24.527-122.595C459.119,59.094,439.3,42.577,398.631,42.391c-26.254-.118-67.537,28.371-94.258,13.639-36.1-19.9-65.988-48.137-106.247-53.323-28.174-3.627-57.631-4.64-85.09,4.229-26.574,8.582-50.5,22.813-73.855,48.458C15.894,80.949,6.237,111.629,1.32,146.036c-2.3,16.128,2.624,48.892,13.1,62.351,23.539,30.235,44.921,30.477,58.212,32.836,27.515,4.877,55.576,7.141,83.525,8.594,64.761,3.368,129.989,2.067,194.654-2.433,29.925-2.083,65.914,5.62,94.843-1.9,25.56-6.651,42.5-18.612,52.834-51.06Z" transform="translate(-0.763 -0.056)" fill="#e3f4fe"/>
      <path id="Trazado_717923" data-name="Trazado 717923" d="M729.065,171.665,716.7,159.3a.934.934,0,0,0,.135-.485.946.946,0,0,0-1.892,0,.963.963,0,0,0,.135.485l-12.361,12.361h-4.815V214l7.445,7.445H733.88V171.659h-4.815Zm-25.684,0,12.028-12.028a.935.935,0,0,0,.484.135.951.951,0,0,0,.485-.135l12.028,12.028Z" transform="translate(-408.68 -92.399)" fill="#fff"/>
      <path id="Trazado_717924" data-name="Trazado 717924" d="M705.32,293.108v7.467l-7.445-7.444-.022-.023Z" transform="translate(-408.648 -171.528)" fill="#afd7d7"/>
      <path id="Trazado_717925" data-name="Trazado 717925" d="M738.271,230.446c.1-.254.2-.5.3-.755a11.313,11.313,0,0,1,3.632-4.967c.344-.265.681-.541,1.036-.8a3.5,3.5,0,0,1,.558-.344c.456-.214.681-.085.71.411a4.418,4.418,0,0,1-.017.772,8.441,8.441,0,0,1-1.9,4.409,7.028,7.028,0,0,1-3.3,2.225c-.039.011-.079.017-.113.028-.935.3-1.008.377-1.047,1.379a50.753,50.753,0,0,1-1.825,11.105c-.591,2.173-1.357,4.3-2.056,6.442a3.541,3.541,0,0,1-.338.687.39.39,0,0,1-.58.146,3.156,3.156,0,0,1,.141-.636,46.242,46.242,0,0,0,2.41-7.439c.242-.991.276-1.036-.507-1.672a8.506,8.506,0,0,1-2.219-2.833,14.56,14.56,0,0,1-.968-2.855,15.538,15.538,0,0,1-.361-4.421.676.676,0,0,1,.214-.5c.2-.146.434.011.569.18a14.941,14.941,0,0,1,1.16,1.577,14.359,14.359,0,0,1,2.089,5.817c.1.885.146,1.774.22,2.658.005.079.022.152.045.293.073-.09.146-.135.152-.191.31-1.853.681-3.7.9-5.564a36.917,36.917,0,0,0,.31-5.744c-.022-.592-.051-1.188-.079-1.78a.52.52,0,0,0-.034-.231,11.846,11.846,0,0,0-1.548-2.985c-.49-.563-1-1.121-1.537-1.639a13.065,13.065,0,0,0-1.081-.828c-.2-.163-.5-.271-.445-.71a1.614,1.614,0,0,1,.428.068,7.977,7.977,0,0,1,2.715,2.258c.451.586.856,1.205,1.368,1.937-.141-.782-.219-1.441-.383-2.083-.327-1.323-.7-2.635-1.053-3.953-.051-.185-.169-.383.112-.529.355.186.456.557.6.889a22.82,22.82,0,0,1,1.092,4,2.706,2.706,0,0,0,.236.743c.31-1.014.608-2.033.94-3.035a8.517,8.517,0,0,1,1.194-2.844c.3.135.208.321.152.479-.186.541-.394,1.076-.574,1.622-.383,1.143-.772,2.286-1.126,3.435a8.347,8.347,0,0,0-.394,3.689c.1.681.062,1.374.09,2.067l.129.039Z" transform="translate(-428.523 -128.243)" fill="#afd7d7"/>
      <path id="Trazado_717926" data-name="Trazado 717926" d="M751.234,214.045a4.714,4.714,0,0,1-.259.946,1.237,1.237,0,0,1-2.089.4,2.411,2.411,0,0,1-.749-1.25,1.439,1.439,0,0,1,.8-1.673,2.426,2.426,0,0,1,.332-.129c1.149-.372,2.033.3,1.971,1.712Z" transform="translate(-438.046 -124.209)" fill="#afd7d7"/>
      <path id="Trazado_717927" data-name="Trazado 717927" d="M732.254,222.38a7.188,7.188,0,0,1-.344.923.986.986,0,0,1-1.346.5,2.865,2.865,0,0,1-.642-.293,1.48,1.48,0,0,1-.468-2.078,1.551,1.551,0,0,1,1.92-.592,1.707,1.707,0,0,1,.884,1.549Z" transform="translate(-427.006 -129.171)" fill="#afd7d7"/>
      <path id="Trazado_717928" data-name="Trazado 717928" d="M740.636,216.2a5.114,5.114,0,0,1-.242.839,1.173,1.173,0,0,1-1.7.518,2.025,2.025,0,0,1-1-1.47,1.468,1.468,0,0,1,.693-1.464,1.378,1.378,0,0,1,1.594.2,1.9,1.9,0,0,1,.653,1.368Z" transform="translate(-431.952 -125.503)" fill="#afd7d7"/>
      <path id="Trazado_717929" data-name="Trazado 717929" d="M185.806,606.134l-10.469-37.781a1.28,1.28,0,1,0-2.466.687l2.816,10.153H150.193l-3-10.835a1.28,1.28,0,0,0-2.466.687l10.469,37.781a1.28,1.28,0,0,0,1.233.941,1.433,1.433,0,0,0,.343-.045,1.277,1.277,0,0,0,.89-1.576l-2.3-8.312H180.85l2.495,9a1.279,1.279,0,0,0,1.233.941,1.439,1.439,0,0,0,.344-.045,1.277,1.277,0,0,0,.889-1.577ZM154.648,595.26,150.9,581.744H176.4l3.745,13.515Z" transform="translate(-84.971 -332.034)" fill="#afafaf"/>
      <path id="Trazado_717930" data-name="Trazado 717930" d="M134.235,564.914H79a1.808,1.808,0,1,0,0,3.615h1.74L70.725,604.671a1.289,1.289,0,0,0,.89,1.577,1.208,1.208,0,0,0,.344.045,1.284,1.284,0,0,0,1.233-.941l2.495-9h25.493l-2.3,8.312a1.288,1.288,0,0,0,.89,1.577,1.19,1.19,0,0,0,.344.045,1.284,1.284,0,0,0,1.233-.941l10.2-36.824h22.7a1.808,1.808,0,0,0,0-3.615Zm-32.352,28.878H76.39l3.745-13.515h25.493Zm4.455-16.072H80.844l2.545-9.2h25.493Z" transform="translate(-41.673 -330.565)" fill="#636363"/>
      <path id="Trazado_717931" data-name="Trazado 717931" d="M312.1,490.509q-14.309-27.563-28.624-55.12-.093-21.363-.18-42.731h-31.3q-.093,21.65-.18,43.305l-28.2,54.546c-.113.344-2.016,6.566,2.545,11.381a13.475,13.475,0,0,0,9.934,3.875h63.522a13.492,13.492,0,0,0,9.934-3.875c4.567-4.815,2.658-11.037,2.546-11.381Z" transform="translate(-130.867 -229.777)" fill="#b5dcf5"/>
      <path id="Trazado_717932" data-name="Trazado 717932" d="M258.159,543.667a38.516,38.516,0,0,0-16.517-.3L223.6,578.25c-.113.343-2.016,6.566,2.545,11.381a13.474,13.474,0,0,0,9.934,3.875h63.522a13.493,13.493,0,0,0,9.934-3.875c4.567-4.815,2.658-11.038,2.546-11.381l-16.6-32.1c-5.744,5.355-10.52,6.47-13.639,6.6-8.549.355-12.62-6.335-23.7-9.078Z" transform="translate(-130.867 -317.519)" fill="#065958"/>
      <path id="Trazado_717933" data-name="Trazado 717933" d="M319.155,383.572H283.846a3.221,3.221,0,0,1,0-6.442h35.309a3.221,3.221,0,0,1,0,6.442Z" transform="translate(-164.518 -220.692)" fill="#bed8f1"/>
      <path id="Trazado_717934" data-name="Trazado 717934" d="M317.956,418.74a3.888,3.888,0,0,1-5.462,0c-1.459-1.582-.456-5.687,2.731-9.956C318.413,413.047,319.415,417.152,317.956,418.74Z" transform="translate(-182.781 -239.213)" fill="#006f6e"/>
      <path id="Trazado_717935" data-name="Trazado 717935" d="M328.293,492.988a5.044,5.044,0,0,1-7.084,0c-1.887-2.056-.592-7.372,3.542-12.9C328.884,485.616,330.179,490.932,328.293,492.988Z" transform="translate(-187.768 -280.934)" fill="#006f6e"/>
      <path id="Trazado_717936" data-name="Trazado 717936" d="M403.736,617.759a4.646,4.646,0,1,0-5.589,3.454A4.646,4.646,0,0,0,403.736,617.759Z" transform="translate(-231.188 -358.146)" fill="#006f6e"/>
      <path id="Trazado_717937" data-name="Trazado 717937" d="M348.873,582.55a2.371,2.371,0,1,0,2.371-2.371A2.371,2.371,0,0,0,348.873,582.55Z" transform="translate(-204.451 -339.501)" fill="#006f6e"/>
      <path id="Trazado_717938" data-name="Trazado 717938" d="M245.727,633.806a1.993,1.993,0,1,0,1.993-1.993A1.993,1.993,0,0,0,245.727,633.806Z" transform="translate(-144.098 -369.713)" fill="#006f6e"/>
      <path id="Trazado_717939" data-name="Trazado 717939" d="M322.418,638.258a3.486,3.486,0,1,0,3.486-3.486A3.485,3.485,0,0,0,322.418,638.258Z" transform="translate(-188.972 -371.445)" fill="#006f6e"/>
      <path id="Trazado_717940" data-name="Trazado 717940" d="M272.223,593.39a5.964,5.964,0,1,0,5.963-5.963A5.963,5.963,0,0,0,272.223,593.39Z" transform="translate(-159.601 -343.742)" fill="#006f6e"/>
      <path id="Trazado_717941" data-name="Trazado 717941" d="M130.147,424.741h-3.8q.963-12.265,1.92-24.536Q129.2,412.47,130.147,424.741Z" transform="translate(-74.245 -234.193)" fill="#265e91"/>
      <path id="Trazado_717942" data-name="Trazado 717942" d="M132.645,206.26a9.806,9.806,0,0,0-1.521-.985,11.485,11.485,0,0,0-2.573-.975c-1.819-.028-3.621-.039-5.423-.062a19.362,19.362,0,0,0-6.065,5.862,22.137,22.137,0,0,0-1.768,20c-.321-.079-.642-.169-.974-.27a15.016,15.016,0,0,1-3.52-1.6c-7.535-5.052,5.31-37.381,11.516-41.976a9.691,9.691,0,0,1,2.968-1.447,9.142,9.142,0,0,1,6.859,1.048C136.125,188.515,134.459,197.418,132.645,206.26Z" transform="translate(-63.802 -107.999)"/>
      <path id="Trazado_717943" data-name="Trazado 717943" d="M163.374,256.658a34.259,34.259,0,0,1-10.671,2.2c-3.137.113-5.632.22-8.329-.884a12.3,12.3,0,0,1-4.437-3.159c-.062,1.329-.129,2.663-.191,3.981,0,0-.012.535-.028,1.459a28.676,28.676,0,0,0,3.39-.332c.293,1.892.575,3.8.856,5.7a31.836,31.836,0,0,1-3.582.833c-.18.028-.36.051-.535.09.028.271.039.6.062,1,.434,6.757,2.624,30.9,5.823,63.178H122.1q-1.014-13.7-2.045-27.419-1.039,13.7-2.089,27.419H112.3c.253-3.458.524-6.927.794-10.378.141-1.982.253-3.542.321-4.387,0,0,2.523-34.149,5.3-43.536.051-.169.253-.856.484-1.819a34.821,34.821,0,0,0,.884-5.862c.028-.383.051-.766.051-1.138.012-.332.028-.665.028-.985,0-.231-.011-.462-.011-.676-.169-.18-.321-.361-.473-.535a14.658,14.658,0,0,1-2.151-3.5,22.12,22.12,0,0,1,1.768-20,19.422,19.422,0,0,1,6.048-5.856c1.819.022,3.621.034,5.434.062a11.2,11.2,0,0,1,2.573.974,9.557,9.557,0,0,1,1.521.986,17.938,17.938,0,0,1,4.235,5.513c3.863,6.628,5.795,9.94,8.56,11.285,2.185,1.064,4.567,1.076,7.191,1.115a27.723,27.723,0,0,0,6.667-.7c.614,1.791,1.239,3.593,1.853,5.383Z" transform="translate(-66.024 -135.804)" fill="#115089"/>
      <path id="Trazado_717944" data-name="Trazado 717944" d="M176.987,508.395a.44.44,0,0,1-.4.309H165.55a1.647,1.647,0,0,1-.383-.4,2.3,2.3,0,0,1-.248-1.509v-.225c.028-.332.017-.681.028-1.025,0-.7,0-1.38-.039-2.033a.084.084,0,0,0,.028-.1,65.814,65.814,0,0,0-2.275-12.907c-1.943-7.523-2.968-11.274-3.531-15.1-.18-1.228-.321-3.238-.411-5.513h9.326c.242,13.628.563,30.015.833,31.935a7.519,7.519,0,0,0,.253,1.064,4.4,4.4,0,0,0,1.588,2.456,11.817,11.817,0,0,0,1.38.6c.642.27,1.047.394,1.548.6a.31.31,0,0,1,.068.028c.062.028.152.062.242.1.816.372,1.757.766,2.816,1.29a.386.386,0,0,1,.219.434Z" transform="translate(-93.187 -274.97)" fill="#f9978a"/>
      <path id="Trazado_717945" data-name="Trazado 717945" d="M131.3,502.248a.384.384,0,0,1-.371.309H119.891a.446.446,0,0,1-.27-.112,1.713,1.713,0,0,1-.119-.271,2.99,2.99,0,0,1-.118-1.762c.062-.473.175-.986.276-1.6.051-.395.112-1,.169-1.729a65.889,65.889,0,0,0-.361-13.1c-.805-7.726-1.267-11.578-1.267-15.441,0-1.076.028-2.816.079-4.809h3.137c.051-.743.112-1.486.163-2.224.051-.715.113-1.431.169-2.152h3.469c.062.715.112,1.43.169,2.152.051.743.118,1.481.169,2.224h1.369c-1.662,16.134-2.726,30.348-2.866,31.221a7.014,7.014,0,0,0-.09,1.165,5.85,5.85,0,0,0,.411,2.213,1.745,1.745,0,0,0,.5.625,8.349,8.349,0,0,0,1.543.856c.462.231.861.31,1.554.6.9.383,1.948.828,3.142,1.4a.383.383,0,0,1,.192.434Z" transform="translate(-69.48 -268.806)" fill="#f9978a"/>
      <path id="Trazado_717946" data-name="Trazado 717946" d="M132.666,559.7a.375.375,0,0,1,.191.434.384.384,0,0,1-.371.31H121.448a.447.447,0,0,1-.27-.112,1.687,1.687,0,0,1-.118-.271,2.935,2.935,0,0,1-.118-1.762h8.582C130.419,558.675,131.472,559.131,132.666,559.7Z" transform="translate(-71.036 -326.698)" fill="#1c466d"/>
      <path id="Trazado_717947" data-name="Trazado 717947" d="M185.726,560.123a.435.435,0,0,1-.4.31H174.288a1.647,1.647,0,0,1-.383-.4,2.373,2.373,0,0,1-.248-1.509V558.3h8.8c.879.388,1.9.822,3.058,1.391a.379.379,0,0,1,.219.434Z" transform="translate(-101.926 -326.698)" fill="#1c466d"/>
      <path id="Trazado_717948" data-name="Trazado 717948" d="M152.962,244.535q-1.115.574-9.241-12.508c1.819.023,3.621.034,5.434.062q4.815,11.919,3.8,12.451Z" transform="translate(-84.411 -135.788)" fill="#fff"/>
      <path id="Trazado_717949" data-name="Trazado 717949" d="M146.24,208.738c-.011-.912-.023-1.83-.028-2.742a2.582,2.582,0,0,0,1.07,0c2.438-.529,3.745-5.091,3.458-8.515a11.394,11.394,0,0,0-1.926-5.361c-.777.856-1.656,1.746-2.641,2.641a38.977,38.977,0,0,1-5.293,4.038,1.338,1.338,0,0,0-1.583-.265,1.414,1.414,0,0,0-.478,1.667,1.842,1.842,0,0,0,2.061,1.048,9.374,9.374,0,0,1-.073,7.428,4.211,4.211,0,0,0,5.434.062Z" transform="translate(-81.49 -112.437)" fill="#f9978a"/>
      <path id="Trazado_717950" data-name="Trazado 717950" d="M230.863,288.921a.538.538,0,1,1-.034-.76A.541.541,0,0,1,230.863,288.921Z" transform="translate(-134.854 -168.552)" fill="#fff"/>
      <path id="Trazado_717951" data-name="Trazado 717951" d="M225.013,290.536a.538.538,0,1,1-.034-.76A.541.541,0,0,1,225.013,290.536Z" transform="translate(-131.431 -169.497)" fill="#fff"/>
      <path id="Trazado_717952" data-name="Trazado 717952" d="M150.948,309.693a25.012,25.012,0,0,1-19.783-3.942c.028-.563.028-1.126.011-1.661a8.865,8.865,0,0,0,.935.907c2.866,2.483,6.257,3.069,9.506,3.621a28.618,28.618,0,0,0,9.263.079c.028.271.039.6.062,1Z" transform="translate(-77.065 -177.954)" fill="#4db1f0"/>
      <path id="Trazado_717953" data-name="Trazado 717953" d="M147.944,279.969a11.036,11.036,0,0,1-6.217-2.917,11.709,11.709,0,0,1-3.1-7.946c.1-.766.192-1.537.293-2.3a17.276,17.276,0,0,0,5.665,10.936,16.663,16.663,0,0,0,3.351,2.224Z" transform="translate(-81.433 -156.136)" fill="#4db1f0"/>
      <path id="Trazado_717954" data-name="Trazado 717954" d="M184.816,310.384a.539.539,0,1,1,.056-.76A.542.542,0,0,1,184.816,310.384Z" transform="translate(-107.936 -181.083)" fill="#fff"/>
      <path id="Trazado_717955" data-name="Trazado 717955" d="M178.829,311.318a.539.539,0,1,1,.056-.76A.542.542,0,0,1,178.829,311.318Z" transform="translate(-104.434 -181.628)" fill="#fff"/>
      <path id="Trazado_717956" data-name="Trazado 717956" d="M115.845,227.771l-.462.935-.141.27-6.718,13.571-.6,1.216a2.2,2.2,0,0,1-1.909,1.256,1.774,1.774,0,0,1-.845-.18,2.1,2.1,0,0,1-.805-2.838l1.126-2.275-14.382-7.113c-3.784-1.869-5.6-5.986-4.043-9.134s5.936-4.2,9.708-2.315l14.382,7.113,1.126-2.264a1.995,1.995,0,1,1,3.553,1.768Z" transform="translate(-50.932 -128.885)" fill="#12263f"/>
      <g id="Grupo_1013367" data-name="Grupo 1013367" transform="translate(57.597 100.102)">
        <path id="Trazado_717957" data-name="Trazado 717957" d="M212.836,282.713a3.9,3.9,0,0,1-5.22,1.768l-5.643-2.788a7.692,7.692,0,0,1-7.546.451L145.3,257.811l-4.708-2.326a6.567,6.567,0,0,1-1-.575l6.718-13.571s.062.028.09.039a10.274,10.274,0,0,1,.985.394l53.825,26.664a7.655,7.655,0,0,1,4.224,6.268l5.643,2.8a3.9,3.9,0,0,1,1.768,5.22Z" transform="translate(-139.594 -241.339)" fill="#b5dcf5"/>
      </g>
      <path id="Trazado_717958" data-name="Trazado 717958" d="M235.519,299.749a3.9,3.9,0,0,1-5.22,1.768l-5.643-2.788a7.692,7.692,0,0,1-7.546.451q-19.378-9.6-38.749-19.192,7.61-4.764,15.227-9.534,15.154,7.509,30.3,15.013a7.634,7.634,0,0,1,4.218,6.268l5.642,2.8a3.9,3.9,0,0,1,1.768,5.22Z" transform="translate(-104.68 -158.273)" fill="#006f6e"/>
      <path id="Trazado_717959" data-name="Trazado 717959" d="M226.824,275.106c.507-.906,2.264-.822,3.356-.4,1.712.659,3.063,2.641,2.557,3.6-.513.98-3.041,1-4.556-.158C227.252,277.438,226.323,276,226.824,275.106Z" transform="translate(-132.955 -160.582)" fill="#f9978a"/>
      <path id="Trazado_717960" data-name="Trazado 717960" d="M184.862,300.5c.428,1.042.862,2.083,1.29,3.12a3.266,3.266,0,0,1,1.948-.2c.389.1.468.2,1.492.575a7.54,7.54,0,0,0,1.752.512,5.086,5.086,0,0,0,2.106-.422,12.949,12.949,0,0,0,1.723-.7q-2.593-1.259-5.181-2.523c.349-.073.625-.118.816-.141a1.9,1.9,0,0,0,.918-.321.563.563,0,0,0,.174-.451c-.051-.2-.309-.321-.754-.411a6.589,6.589,0,0,0-2.3-.011c-1.025.129-1.538.191-1.706.231a11.12,11.12,0,0,0-2.264.738Z" transform="translate(-108.484 -175.227)" fill="#f9978a"/>
      <path id="Trazado_717961" data-name="Trazado 717961" d="M868.442,223.879c-7.282.186-12.953,6.876-14.7,12.89a200.932,200.932,0,0,0-5.305-36.97,23.055,23.055,0,0,1,6.02-6.313c9.466-6.662,19.974-2.562,24.9-9.568.529-.749,2.022-2.872,1.526-5.175-1.07-4.984-10.9-8.5-18.578-6.549-9.382,2.388-14.754,12.732-15.244,21.039a22.309,22.309,0,0,0,.462,6.009l-.085.023a22.661,22.661,0,0,0-13.262-6.043c-8.633-.709-18.589,4.021-21.084,11.9-1.4,4.409-.884,11.111,2.956,13.5a7.17,7.17,0,0,0,4.319.941c6.8-.445,8.4-9.483,17.018-15.3a26.988,26.988,0,0,1,9.838-4,197.518,197.518,0,0,1,5.035,39.1,189.854,189.854,0,0,1-.479,20.172c-.039.529-.1,1.053-.141,1.582a15.249,15.249,0,0,0-1.059-2.889c-2.906-5.834-9.827-10.4-15.875-8.937-3.385.816-7.5,3.756-7.54,7.163a5.4,5.4,0,0,0,1.076,3.148c2.94,4.206,9.376,1.712,16.478,4.995a19.992,19.992,0,0,1,6.144,4.483c-.394,3.52-.828,7.039-1.267,10.57q-1.723,13.161-2.534,26.445a16.248,16.248,0,0,0-1.757-3.429c-3.931-5.812-11.961-9.692-18.206-7.264-3.492,1.357-7.456,5.079-7.017,8.717a5.873,5.873,0,0,0,1.594,3.2c3.734,4.066,10.244.49,18.285,2.979a21.367,21.367,0,0,1,6.7,3.514c-.09,2.118-.191,4.229-.248,6.347-.27,9.838-.169,19.693.236,29.531.834,0,1.673,0,2.472.034q-.743-14.757-.479-29.514c.158-8.926.665-17.835,1.453-26.727a18.555,18.555,0,0,1,5.147-3.672c8.464-4.015,16.286.7,21.174-4.218a5.606,5.606,0,0,0,1.926-3.92c-.169-4.122-7.529-8.278-13.921-7.771-6.048.479-10.824,5.09-13.386,10.193.158-1.413.293-2.821.468-4.235.782-6.718,1.571-13.454,2.01-20.222.411-6.014.546-12.062.394-18.083a17.133,17.133,0,0,1,5.215-3.39c8.059-3.306,15.081,1.459,19.867-2.861a5.208,5.208,0,0,0,1.982-3.542c.051-3.835-6.572-8.059-12.535-7.907Z" transform="translate(-475.66 -100.457)" fill="#065958"/>
      <path id="Trazado_717962" data-name="Trazado 717962" d="M882.017,617.029H809.2a97.471,97.471,0,0,1,15.728-15.435c5.344-4.111,9.072-6.977,14.309-8.481a24.161,24.161,0,0,1,6.656-.935,23.546,23.546,0,0,1,3.029.191c6.826.805,12.316,4.218,15.5,6.257C872.3,603.716,878.114,610.964,882.017,617.029Z" transform="translate(-473.799 -346.522)" fill="#396b98"/>
      <g id="Grupo_1013368" data-name="Grupo 1013368" transform="translate(312.969 242.125)">
        <path id="Trazado_717963" data-name="Trazado 717963" d="M872.936,583.667H759.9a4.764,4.764,0,0,0,0,9.528h2.027v18.848H870.911V593.2h2.025a4.764,4.764,0,0,0,0-9.528Z" transform="translate(-755.134 -583.667)" fill="#afafaf"/>
      </g>
      <path id="Trazado_717964" data-name="Trazado 717964" d="M1071.922,425.3h-5.563q-.523-6.707-1.029-13.414c-.349-4.387-.676-8.768-1.021-13.155-.336,4.4-.664,8.78-.991,13.178-.349,4.46-.672,8.931-1.016,13.391h-23.2q2.682-28.078,5.339-56.162c.025-.366,1.938-9.371,1.9-15.616a8.355,8.355,0,0,1-1.382,1.379,12.9,12.9,0,0,1-8.053,2.59,15.672,15.672,0,0,1-8.542-2.388c.211-1.318.44-2.624.651-3.942a12.513,12.513,0,0,0,3.667.839c.274.011,5.817.315,9.484-3.452.979-1.019.552-1.019,3.307-6.757,2.547-5.35,3.692-6.972,4.356-7.85a27.359,27.359,0,0,1,3.958-4.206c1.788-.023,3.555-.039,5.327-.062a10.548,10.548,0,0,1,4.323,1.847c.938.693,3.253,2.653,4.858,9.776,1.469,6.572,2.211,9.85.714,13.594a14.2,14.2,0,0,1-4.759,6.037c.141.653.278,1.29.419,1.853.477,2.01.938,3.469,1.182,4.257,2.336,7.552,4.775,20.476,4.987,43.964q.554,7.163,1.1,14.309Z" transform="translate(-602.037 -192.925)" fill="#4db1f0"/>
      <path id="Trazado_717965" data-name="Trazado 717965" d="M1121.093,311.984c-2.817.817-5.829-1.982-7.115-3.97-1.419-2.185-.726-3.289-2.622-7.124-1.1-2.235-1.411-1.982-2.3-3.981a12.409,12.409,0,0,1-.892-2.827,7.673,7.673,0,0,0,.49-2.613,8.277,8.277,0,0,0-1.182-4.37,7.971,7.971,0,0,0-1.245-1.611c-.224-1.042-.2-1.532.178-1.92,1-1.042,3.414-.349,4.634.236a9.141,9.141,0,0,1,3.929,4.308c1.734,3.165.892,3.6,2.249,5.969,1.9,3.328,3.958,3.063,6.2,6.994a8.709,8.709,0,0,1,1.332,3.367c.348,2.816-.892,6.747-3.668,7.535Z" transform="translate(-647.516 -165.632)"/>
      <path id="Trazado_717966" data-name="Trazado 717966" d="M1104.859,286.413a1.659,1.659,0,0,1-.477.867,8.415,8.415,0,0,0-2.1-2.388,7.743,7.743,0,0,0-1.473-.879,1.262,1.262,0,0,1,.593-.58c1.266-.541,3.767,1.369,3.452,2.979Z" transform="translate(-644.429 -165.813)" fill="#265e91"/>
      <path id="Trazado_717967" data-name="Trazado 717967" d="M1090.159,290.873a7.781,7.781,0,0,1-.49,2.613,12.276,12.276,0,0,1-3.551,4.837v-3.909a1.7,1.7,0,0,0,1.933-.94,1.382,1.382,0,0,0-.465-1.645,1.327,1.327,0,0,0-1.56.265,3.989,3.989,0,0,1-.8-1.368,4.09,4.09,0,0,1-.141-2.1,12.049,12.049,0,0,1-4.472.957,11.906,11.906,0,0,1-3.937-.58,3.271,3.271,0,0,1-.606-.451c-.353-.315-1.726-1.509-1.572-2.99.187-1.757,2.361-2.715,2.979-2.979,2.614-1.143,5.248-.287,6.509.124a12.512,12.512,0,0,1,1.431.529,7.717,7.717,0,0,1,1.469.878,6.719,6.719,0,0,1,.855.766,8.547,8.547,0,0,1,1.245,1.622,8.293,8.293,0,0,1,1.182,4.37Z" transform="translate(-629.023 -165.036)"/>
      <path id="Trazado_717968" data-name="Trazado 717968" d="M1062.47,560.171c-.091,2.236-.224,4.207-.4,5.412-.552,3.756-1.56,7.439-3.468,14.822a64.378,64.378,0,0,0-2.236,12.676.28.28,0,0,0-.013.1v2c.013.338.013.687.037,1.014v.22a2.254,2.254,0,0,1-.245,1.481,1.6,1.6,0,0,1-.377.388h-10.841a.435.435,0,0,1-.39-.3.38.38,0,0,1,.216-.428c1.042-.513,1.958-.907,2.763-1.267.091-.04.174-.067.236-.09a.18.18,0,0,1,.062-.034c.49-.2.892-.327,1.523-.591a12.015,12.015,0,0,0,1.357-.592,4.356,4.356,0,0,0,1.56-2.41,7.359,7.359,0,0,0,.253-1.042c.266-1.887.581-17.976.817-31.356h9.144Z" transform="translate(-611.499 -327.794)" fill="#f9978a"/>
      <path id="Trazado_717969" data-name="Trazado 717969" d="M1108.23,591.914a2.905,2.905,0,0,1-.116,1.723,2.153,2.153,0,0,1-.112.265.409.409,0,0,1-.265.112H1096.9a.391.391,0,0,1-.174-.732c1.166-.563,2.207-1,3.095-1.374.672-.287,1.062-.371,1.514-.6a9.366,9.366,0,0,0,1.514-.839,1.748,1.748,0,0,0,.489-.614,5.72,5.72,0,0,0,.4-2.173,6.812,6.812,0,0,0-.087-1.143c-.141-.856-1.182-14.811-2.817-30.651h1.357c.075-1,.154-2.022.224-3.03H1106c.075,1,.166,2.022.236,3.03h3.066c.05,1.959.071,3.666.071,4.725,0,3.8-.448,7.574-1.245,15.159a65.5,65.5,0,0,0-.348,12.862c.054.715.112,1.306.166,1.695.1.6.212,1.115.274,1.582Z" transform="translate(-641.917 -323.513)" fill="#f9978a"/>
      <path id="Trazado_717970" data-name="Trazado 717970" d="M1096.711,648.384a.391.391,0,0,0,.175.732h10.84a.438.438,0,0,0,.265-.113,1.588,1.588,0,0,0,.112-.265,2.873,2.873,0,0,0,.112-1.723H1099.8c-.879.366-1.921.816-3.091,1.374Z" transform="translate(-641.911 -378.609)" fill="#1c466d"/>
      <path id="Trazado_717971" data-name="Trazado 717971" d="M1044.5,648.8a.436.436,0,0,0,.39.3h10.84a1.6,1.6,0,0,0,.378-.388,2.337,2.337,0,0,0,.249-1.481v-.219h-8.646c-.863.383-1.867.8-3,1.362a.378.378,0,0,0-.216.428Z" transform="translate(-611.475 -378.609)" fill="#1c466d"/>
      <path id="Trazado_717972" data-name="Trazado 717972" d="M1114.294,518.9h-3.734q.921-12.037,1.846-24.091Q1113.352,506.851,1114.294,518.9Z" transform="translate(-650.134 -289.552)" fill="#265e91"/>
      <path id="Trazado_717973" data-name="Trazado 717973" d="M1090.261,329.663c-1.166,2.174-2.962,5.378-5.4,9.146-2.3,3.542-2.626,3.666-2.829,3.6-1.378-.389.755-9.534,2.908-12.688,1.784-.022,3.551-.039,5.327-.062Z" transform="translate(-633.187 -192.917)" fill="#fff"/>
      <path id="Trazado_717974" data-name="Trazado 717974" d="M1001.823,341.613l-28.929-42.027c.328-.253.647-.507.958-.771a25.254,25.254,0,1,0-5.7,3.705c.373-.174.734-.366,1.1-.557l26.884,43.367a3.4,3.4,0,1,0,5.688-3.723Zm-61.657-50.6a20.532,20.532,0,1,1,28.421,5.952A20.527,20.527,0,0,1,940.166,291.01Z" transform="translate(-545.744 -148.982)" fill="#636363"/>
      <path id="Trazado_717975" data-name="Trazado 717975" d="M1031.64,384.271a2.427,2.427,0,0,1-1.245.732c-.929.259-2.738.766-3.6-.315a2.364,2.364,0,0,1-.129-2.444c.61-1.233,2.145-1.323,2.746-1.363.635-.045,2.062-.141,2.647.828a2.308,2.308,0,0,1-.427,2.562Z" transform="translate(-600.885 -222.871)" fill="#f9978a"/>
      <path id="Trazado_717976" data-name="Trazado 717976" d="M1090.624,302.8a1.7,1.7,0,0,1-1.937.941v7.371a4.327,4.327,0,0,1-2.937.991,4.2,4.2,0,0,1-2.406-.941c0-.89.017-1.8.029-2.692a2.586,2.586,0,0,1-1.054,0c-2.4-.513-3.693-4.939-3.39-8.351a9.472,9.472,0,0,1,.319-1.8,12.261,12.261,0,0,0,3.937.58,11.926,11.926,0,0,0,4.472-.958,4.09,4.09,0,0,0,.141,2.1,3.858,3.858,0,0,0,.8,1.369,1.325,1.325,0,0,1,1.56-.265,1.382,1.382,0,0,1,.465,1.644Z" transform="translate(-631.6 -174.356)" fill="#f9978a"/>
      <path id="Trazado_717977" data-name="Trazado 717977" d="M1091.582,406.852a59.2,59.2,0,0,1-15.753,6.42c-.49-.89-.979-1.8-1.469-2.686.153-.062.286-.112.44-.175.349.755.693,1.521,1.029,2.275a39.978,39.978,0,0,0,9.534-3.981,54.322,54.322,0,0,0,5.779-3.694c.162.648.3,1.284.44,1.847Z" transform="translate(-628.952 -237.005)" fill="#115089"/>
      <path id="Trazado_717978" data-name="Trazado 717978" d="M1066.788,417.122a4.881,4.881,0,0,1-.631.377,8.1,8.1,0,0,1-1.307.552c-.166-.225-.315-.451-.469-.676a5.407,5.407,0,0,0-1.328.743c-1.041.777-1.236,1.492-1.962,1.622a1.638,1.638,0,0,1-1.448-.512c-.979-1.205.237-4.635,2.29-5.4.826-.315,1.253.011,2.888-.315.1-.022.2-.051.3-.073.278.642.564,1.267.855,1.909.278.591.543,1.194.809,1.785Z" transform="translate(-620.14 -241.937)" fill="#f9978a"/>
      <path id="Trazado_717979" data-name="Trazado 717979" d="M1100.3,371.865c-.917,1.655-2.211,2.461-4.082,3.666-.643.4-1.344.856-2.124,1.357-.149.011-.237-.011-.274-.062-.307-.417,4.584-2.652,6.065-7.788,1.1-3.858-.369-7.034-.041-7.113.05-.011.153.062.286.225.025.1.042.2.062.287.859,3.857,1.585,6.707.1,9.421Z" transform="translate(-640.331 -211.794)" fill="#115089"/>
      <path id="Trazado_717980" data-name="Trazado 717980" d="M1079.182,419.457a.527.527,0,1,0-.423-.614A.528.528,0,0,0,1079.182,419.457Z" transform="translate(-631.521 -244.846)" fill="#fff"/>
      <path id="Trazado_717981" data-name="Trazado 717981" d="M1084.73,417.285a.527.527,0,1,0-.423-.614A.523.523,0,0,0,1084.73,417.285Z" transform="translate(-634.767 -243.575)" fill="#fff"/>
      <g id="Grupo_1013369" data-name="Grupo 1013369" transform="translate(391.073 110.264)">
        <path id="Trazado_717982" data-name="Trazado 717982" d="M981.116,275.132a20.532,20.532,0,1,1-28.423-5.952A20.527,20.527,0,0,1,981.116,275.132Z" transform="translate(-943.393 -265.832)" fill="#b3d9f2"/>
      </g>
      <path id="Trazado_717983" data-name="Trazado 717983" d="M523.588,532.321h-5.125c.76-7.6,1.791-17.846,2.4-23.73q1.394,11.783,2.72,23.73Z" transform="translate(-303.683 -297.613)" fill="#fff"/>
      <path id="Trazado_717984" data-name="Trazado 717984" d="M435.491,337.579c-1.431,1.031-2.866,2.078-4.286,3.108-.49-.771-1.047-1.678-1.627-2.669-1.267-2.128-1.549-2.686-1.447-3.4.231-1.6,2.286-2.529,3.109-2.866-.361-1.008-.682-1.791-.89-2.309-.439-1.059-.76-1.689-.462-2.129a.9.9,0,0,1,.569-.338c.648-.129,2,1.949,5.035,10.593Z" transform="translate(-250.816 -191.345)" fill="#f9af8f"/>
      <path id="Trazado_717985" data-name="Trazado 717985" d="M524.9,381.2H513.889q1.9-21.987,4.218-43.136h1.481c1.3.011,2.568.062,3.8.141-.248,9.084-.051,16.506.169,21.675.158,3.6.259,5.5,1.34,21.315Z" transform="translate(-301.006 -197.834)" fill="#265e91"/>
      <path id="Trazado_717986" data-name="Trazado 717986" d="M556.068,653.7a.391.391,0,0,1-.377.31H544.558a.4.4,0,0,1-.4-.389v-6.189h4.257c-.062,1.329-.079,1.74.18,2.23.439.839,1.289,1.1,2.54,1.577.451.169.968.36,1.56.6.9.372,1.977.845,3.176,1.408A.4.4,0,0,1,556.068,653.7Z" transform="translate(-318.718 -378.855)" fill="#f9af8f"/>
      <path id="Trazado_717987" data-name="Trazado 717987" d="M544.136,658.064v1.78a.4.4,0,0,0,.4.388h11.133a.386.386,0,0,0,.378-.309.381.381,0,0,0-.2-.451c-1.2-.575-2.27-1.031-3.176-1.408h-8.537Z" transform="translate(-318.702 -385.073)" fill="#1c466d"/>
      <path id="Trazado_717988" data-name="Trazado 717988" d="M489.007,646.978v6.369a.4.4,0,0,1-.388.389H477.474a.4.4,0,0,1-.18-.76c1.188-.569,2.258-1.036,3.159-1.408.591-.248,1.1-.439,1.549-.6,1.267-.479,2.117-.738,2.579-1.577.259-.5.22-.94.152-2.427,1.419.011,2.849.011,4.269.011Z" transform="translate(-279.465 -378.577)" fill="#f9af8f"/>
      <path id="Trazado_717989" data-name="Trazado 717989" d="M489.012,658.064v1.78a.394.394,0,0,1-.394.388H477.473a.4.4,0,0,1-.18-.76c1.183-.575,2.258-1.031,3.159-1.408Z" transform="translate(-279.463 -385.073)" fill="#1c466d"/>
      <path id="Trazado_717990" data-name="Trazado 717990" d="M519.2,493.521q-.042,16.86-.062,33.732h-7.743q-1.453-14.326-3.029-28.816c-.18-1.69-.372-3.379-.558-5.057q-1.335-11.944-2.72-23.73c-.608,5.885-1.639,16.128-2.4,23.73-.18,1.87-.36,3.576-.5,5.018-.721,7.292-2.128,21.382-2.866,28.669H497.45c-1.419,0-2.849,0-4.269-.011h-1.689q.017-16.835.051-33.676H497q1.377-22.6,3.339-46.092c0-.051.011-.1.011-.152.141-1.7.282-3.407.439-5.1H511.8c.118,1.611.231,3.368.36,5.277.209,3.086.411,6.3.648,9.8q1.183,18.212,2.349,36.413l4.049-.011Z" transform="translate(-287.901 -258.672)" fill="#12263f"/>
      <path id="Trazado_717991" data-name="Trazado 717991" d="M471.5,338.064q-2.306,21.134-4.218,43.136c-.152,1.689-.3,3.4-.439,5.1,0,.051-.011.1-.011.152q-1.993,23.474-3.339,46.092h-9.613c.281-12.31.991-25.369,2.269-39.07.98-10.632,2.23-20.813,3.666-30.505-4,6.876-7.935,7.135-8.711,7.163-6.127.152-11.06-9.624-13.87-15.227a51.575,51.575,0,0,1-3.007-7.315c.191-.141.371-.27.569-.411,1.419-1.031,2.849-2.078,4.285-3.109.282-.208.569-.411.851-.619a74.973,74.973,0,0,0,4.2,7.636c3.356,5.395,5.035,8.092,6.983,8.064,1.058-.011,2.038-.738,7.844-10.463,3.305-5.536,4.888-8.475,8.385-9.883a10.933,10.933,0,0,1,4.167-.738Z" transform="translate(-254.393 -197.832)" fill="#fff"/>
      <path id="Trazado_717992" data-name="Trazado 717992" d="M557.724,363.251a40.449,40.449,0,0,0-4.9-12.552c-4.066-6.713-8.751-9.962-10.272-10.671a21.009,21.009,0,0,0-4.888-1.481c-.349-.039-.7-.09-1.047-.13-.248,9.084-.051,16.506.169,21.676.158,3.6.259,5.5,1.34,21.315.118,1.611.231,3.368.36,5.277.208,3.086.411,6.3.648,9.8q1.183,18.212,2.348,36.413l4.049-.011,5.873-.011q-1.8-25.392-3.576-50.762a16.873,16.873,0,0,0,5.434-2.269,14.582,14.582,0,0,0,4.454-4.218c2.067-3.368,1.211-7.123.012-12.372ZM550.5,371.6a6.091,6.091,0,0,1-3.305,2.247c-.062-.788-.738-9.894-.789-10.66-.051-.58-.648-8.622-.681-9.2a36.572,36.572,0,0,1,4.049,8.312c1.318,3.909,2.3,6.966.721,9.3Z" transform="translate(-314.235 -198.04)" fill="#fff"/>
      <path id="Trazado_717993" data-name="Trazado 717993" d="M560.508,441.819a.537.537,0,0,0,.608-.462.545.545,0,0,0-.462-.614.54.54,0,1,0-.146,1.07Z" transform="translate(-328.011 -257.91)" fill="#fff"/>
      <path id="Trazado_717994" data-name="Trazado 717994" d="M566.094,439.329a.545.545,0,0,0,.614-.462.54.54,0,1,0-.608.462Z" transform="translate(-331.283 -256.457)" fill="#fff"/>
      <path id="Trazado_717995" data-name="Trazado 717995" d="M530.811,333.021c-.062.749-.1,1.486-.169,2.23a6.459,6.459,0,0,1-2.979.451,6.538,6.538,0,0,1-1.368-.248,8.154,8.154,0,0,0,4.488-2.41l.028-.028Z" transform="translate(-308.265 -194.879)" fill="#f9af8f"/>
      <path id="Trazado_717996" data-name="Trazado 717996" d="M522.578,303.194a1.855,1.855,0,0,1-2.207.732c-1.5,2.123-2.585,2.557-3.34,2.461-1.222-.152-1.768-1.639-3.469-1.853a3.724,3.724,0,0,0-1.892.31c-.011.068,0,.146-.017.231-.017-1.346-.011-3.266.152-5.536.112-1.43.191-2.421.287-3.12,2.444,1.031,5.722-1.8,7.557-.478.783.552,1.413,1.959.721,5.6a1.468,1.468,0,0,1,1.988-.31,1.527,1.527,0,0,1,.225,1.96Z" transform="translate(-299.694 -172.975)" fill="#f9af8f"/>
      <path id="Trazado_717997" data-name="Trazado 717997" d="M522.053,299.926c-.49,2.8-.771,4.269-1.9,5.586a8.191,8.191,0,0,1-4.516,2.438c-.141.039-.3.062-.439.09-2.089.31-4.088-.079-4.967-1.188-.631-.771-.67-1.976-.749-4.347a19.658,19.658,0,0,1,.079-3.018,2.39,2.39,0,0,1,.017-.248,3.86,3.86,0,0,1,1.892-.31c1.7.22,2.247,1.7,3.469,1.853.76.09,1.83-.343,3.339-2.461a1.862,1.862,0,0,0,2.208-.732,1.52,1.52,0,0,0-.225-1.96,1.479,1.479,0,0,0-1.988.31c.682-3.638.068-5.051-.721-5.6-1.83-1.329-5.107,1.515-7.557.479a2.577,2.577,0,0,1-.456-.259,3.033,3.033,0,0,1-1.329-3.266c.89-2.01,6.4-1.1,7.146-.968,2.067.338,4.179.7,5.547,2.449.89,1.121,1.031,2.36,1.318,4.854a22,22,0,0,1-.18,6.3Z" transform="translate(-297.609 -167.37)"/>
      <path id="Trazado_717998" data-name="Trazado 717998" d="M437.564,363.252a.541.541,0,1,0,.529-.552A.541.541,0,0,0,437.564,363.252Z" transform="translate(-256.346 -212.248)" fill="#fff"/>
      <path id="Trazado_717999" data-name="Trazado 717999" d="M440.93,368.356a.541.541,0,1,0,.529-.552A.541.541,0,0,0,440.93,368.356Z" transform="translate(-258.316 -215.235)" fill="#fff"/>
      <path id="Trazado_718000" data-name="Trazado 718000" d="M332.313,169.425v37.364h51.679V169.453q-25.84-.008-51.679-.022Z" transform="translate(-194.762 -99.158)" fill="#fff"/>
      <path id="Trazado_718001" data-name="Trazado 718001" d="M450.929,173.78a.772.772,0,1,1-.772-.771A.773.773,0,0,1,450.929,173.78Z" transform="translate(-263.264 -101.255)" fill="#fff"/>
      <path id="Trazado_718002" data-name="Trazado 718002" d="M450.158,253.754a.772.772,0,1,0-.772-.772A.772.772,0,0,0,450.158,253.754Z" transform="translate(-263.264 -147.598)" fill="#fff"/>
      <path id="Trazado_718003" data-name="Trazado 718003" d="M337.643,252.983a.772.772,0,1,1-.772-.772A.773.773,0,0,1,337.643,252.983Z" transform="translate(-196.977 -147.598)" fill="#fff"/>
      <path id="Trazado_718004" data-name="Trazado 718004" d="M337.643,173.78a.772.772,0,1,1-.772-.771A.773.773,0,0,1,337.643,173.78Z" transform="translate(-196.977 -101.255)" fill="#fff"/>
      <path id="Trazado_718005" data-name="Trazado 718005" d="M354.315,201.531a11.836,11.836,0,0,1,3.824,2.156c1.672,1.385,3.351,2.759,5.029,4.139l.062-.079c.738.552,1.442,1.16,2.219,1.639a23.445,23.445,0,0,0,11.358,3.869c3.694.163,6.944-1.07,10.1-2.709.991-.512.924-.98-.039-1.515a50.092,50.092,0,0,1-7.406-4.59,32.052,32.052,0,0,0-6.3-3.846,22.488,22.488,0,0,0-5.7-2.01c-4.612-.845-8.909.468-13.183,1.9-.219.073-.355.389-.529.6a2.18,2.18,0,0,0,.563.445Zm1.982-.98a14.26,14.26,0,0,1,6.127.36,1.471,1.471,0,0,0,.755.09c1.464-.338,2.923-.7,4.381-1.076.372-.1.743-.405,1.166.163a7.635,7.635,0,0,1-3.553,1.661c1.56.541,3.1,1.16,4.691,1.594,1.256.344,2.455-.3,3.672-.569.338-.073.665-.383,1.059-.017-.265.675-.912.777-1.487.957s-1.189.321-2.022.546c1.487.782,2.742,1.447,4.009,2.1a.948.948,0,0,0,.529.09c1.273-.169,2.59.045,3.818-.473.079-.034.2.028.31.045q-.315.76-2.393,1.3c.518.186.873.321,1.233.451a23.311,23.311,0,0,0,6.533,1.538,4.063,4.063,0,0,1,.974.169,2.257,2.257,0,0,1,.552.394c-.039.1-.084.2-.124.3-3.283.174-6.347-.817-9.506-1.982.2.8.378,1.481.6,2.331a1.8,1.8,0,0,1-.912-1.042,4.554,4.554,0,0,0-2.624-2.5,29.629,29.629,0,0,1-2.816-1.374c.619,1.4,1.166,2.647,1.718,3.9a3.949,3.949,0,0,1-1.543-1.7c-.608-.918-1.177-1.869-1.83-2.754a2.853,2.853,0,0,0-1.1-.867,39.335,39.335,0,0,0-4.066-1.6c1.053,1.188,2.168,2.286,2.523,3.931-.541-.558-1.1-1.1-1.616-1.684a17.88,17.88,0,0,0-3.159-2.742,4.438,4.438,0,0,0-2.236-.85c-.918-.079-1.836-.129-2.754-.2a4.622,4.622,0,0,1-1.548-.326c.214-.051.428-.118.642-.146Z" transform="translate(-207.302 -116.065)" fill="#afd7d7"/>
      <path id="Trazado_718006" data-name="Trazado 718006" d="M598.133,171.665,585.773,159.3a.933.933,0,0,0,.135-.485.946.946,0,0,0-1.892,0,.963.963,0,0,0,.135.485L571.79,171.665h-4.815V214l7.445,7.445h28.528V171.659h-4.815Zm-25.684,0,12.028-12.028a.936.936,0,0,0,.485.135.951.951,0,0,0,.484-.135l12.028,12.028Z" transform="translate(-332.068 -92.399)" fill="#fff"/>
      <path id="Trazado_718007" data-name="Trazado 718007" d="M601.879,220.59c-.079.771-.152,1.5-.231,2.264.326-.1.631-.2.929-.281a5.58,5.58,0,0,1,3.716.18c.141.056.332.073.349.259.017.2-.175.231-.315.293a5.7,5.7,0,0,1-3.368.321c-.445-.079-.884-.169-1.352-.259-.107.738-.208,1.441-.315,2.179.1-.034.175-.045.242-.079a4.346,4.346,0,0,1,1.47-.417,8,8,0,0,1,2.14.028c.518.079,1.042.1,1.566.141.146.011.36-.051.388.146.017.1-.112.259-.219.326a5.36,5.36,0,0,1-2.14,1.031,4.051,4.051,0,0,1-1.138.012,9.822,9.822,0,0,1-1.312-.344,3.17,3.17,0,0,0-1.121-.158c-.191.766-.377,1.537-.58,2.348.09-.028.169-.039.237-.068a5.663,5.663,0,0,1,2.726-.439c.546.034,1.087.129,1.633.186.389.039.783.056,1.177.079h.141c.135,0,.276.006.338.146.073.163-.045.282-.158.361a4.622,4.622,0,0,1-2.332,1,6.045,6.045,0,0,1-1.909-.214,6.845,6.845,0,0,0-1.645-.315c-.417,0-.445.022-.58.422-.129.383-.276.76-.417,1.143-.034.085-.062.175-.1.293.349-.1.664-.2.979-.265a6.992,6.992,0,0,1,2.562.023c.907.135,1.813.265,2.726.4a1.139,1.139,0,0,1,.282.051c.09.039.208.09.242.169.056.129-.068.214-.169.276-.129.079-.27.152-.411.219a6.057,6.057,0,0,1-2.579.479,10.709,10.709,0,0,1-3.1-.479c-.271-.073-.552-.124-.845-.186-.254.648-.5,1.256-.755,1.909.118-.023.208-.039.293-.062a9.311,9.311,0,0,1,4.7-.18c.563.113,1.126.2,1.689.31.158.028.372.022.394.236.022.186-.169.248-.3.309a6.03,6.03,0,0,1-1.847.529,7.925,7.925,0,0,1-2.979-.2c-.6-.152-1.216-.248-1.825-.361a3.253,3.253,0,0,0-.434-.022c-.259.676-.518,1.352-.794,2.078l1.07-.236a11.542,11.542,0,0,1,3.626-.22,19.93,19.93,0,0,1,2.8.541.9.9,0,0,1,.259.158.985.985,0,0,1-.186.276,2.158,2.158,0,0,1-.5.27,8.026,8.026,0,0,1-4.038.479,11.982,11.982,0,0,1-2.174-.558c-.315-.1-.642-.169-1-.259a29.476,29.476,0,0,0-1.385,5.158,6.382,6.382,0,0,1,.09-2.613c.175-.862.422-1.706.648-2.59a7.9,7.9,0,0,0-.822-.017,4.474,4.474,0,0,1-1.785-.315,6.571,6.571,0,0,1-2.112-1.182c-.163-.135-.361-.225-.535-.349a.226.226,0,0,1-.1-.163c.006-.051.085-.107.141-.135a.434.434,0,0,1,.208-.028c.512.039,1.025.056,1.532.124a6.035,6.035,0,0,1,2.4.974c.355.219.71.445,1.065.664a1.173,1.173,0,0,0,.2.079c.253-.71.5-1.4.755-2.112a7.354,7.354,0,0,0-.834-.068,6.7,6.7,0,0,1-2.382-.405,6.063,6.063,0,0,1-1.087-.529c-.445-.276-.862-.6-1.289-.9a.668.668,0,0,1-.13-.124c-.1-.1-.219-.2-.118-.332a.369.369,0,0,1,.31-.09,15.107,15.107,0,0,1,2.517.3,5.207,5.207,0,0,1,1.633.7l1.469,1.014a.7.7,0,0,0,.13.051c.276-.7.546-1.4.816-2.083-.693-.113-1.34-.209-1.982-.327a6,6,0,0,1-3.182-1.6c-.248-.242-.524-.456-.772-.692-.057-.056-.112-.186-.09-.236a.286.286,0,0,1,.237-.107c.417.051.828.107,1.239.186a7.758,7.758,0,0,1,2.585.9c.557.344,1.081.743,1.611,1.126.152.107.293.236.439.355a7.948,7.948,0,0,0,.839-2.045c-.338-.056-.67-.112-1.008-.175a8.756,8.756,0,0,1-4.922-2.579c-.1-.1-.208-.2-.3-.3-.039-.051-.079-.152-.056-.186.039-.056.129-.079.2-.113a.145.145,0,0,1,.068.006c.879.158,1.757.315,2.641.468a5.655,5.655,0,0,1,2.748,1.447c.287.248.552.518.862.811a21.676,21.676,0,0,0,.692-2.607c-.2-.011-.36-.017-.524-.022a9.58,9.58,0,0,1-2.157-.27,5.853,5.853,0,0,1-1.306-.563,18.558,18.558,0,0,1-1.915-1.38c-.028-.022-.068-.039-.084-.068-.039-.068-.068-.141-.107-.214.079-.039.158-.107.236-.107.439-.006.878-.012,1.323,0a6.173,6.173,0,0,1,3.379,1.222c.3.214.625.394.94.58.1.056.208.1.349.169a15.415,15.415,0,0,0,.321-2.1c-.344,0-.665.012-.986,0a6.111,6.111,0,0,1-4.178-1.684.683.683,0,0,1-.124-.129.19.19,0,0,1,.118-.321.6.6,0,0,1,.141-.011c.439.011.884.028,1.323.045a.681.681,0,0,1,.214.028,11.036,11.036,0,0,1,2.619,1.036c.287.163.574.321.923.518.079-.805.152-1.543.231-2.3-.316.017-.586.017-.856.051a7.607,7.607,0,0,1-1.926-.045,3.38,3.38,0,0,1-1.74-.862,3.892,3.892,0,0,1-.405-.4.185.185,0,0,1,.1-.327.79.79,0,0,1,.282-.022c.512.039,1.025.062,1.532.135a6.149,6.149,0,0,1,2.635.839c.113.056.231.107.394.186a16.791,16.791,0,0,0,.011-1.684c-.439-.045-.845-.112-1.255-.129a2.967,2.967,0,0,1-1.053-.315,4.454,4.454,0,0,1-1.543-1.138,1.975,1.975,0,0,1-.135-.169c-.1-.175-.045-.315.158-.327a3.383,3.383,0,0,1,.715.023,4.319,4.319,0,0,1,1.678.681c.434.293.9.529,1.391.816a2.3,2.3,0,0,0,.039-.265c-.006-.405-.011-.811-.028-1.216-.011-.27-.039-.264-.282-.315a11.787,11.787,0,0,1-1.318-.327,3.1,3.1,0,0,1-1.6-1.419c-.129-.214-.051-.344.2-.332a1.523,1.523,0,0,1,.451.09,4.967,4.967,0,0,1,2.2,1.481.815.815,0,0,0,.276.208,2.215,2.215,0,0,0-.158-1.363c-.152-.253-.281-.524-.411-.794a5.907,5.907,0,0,1-.073-4.826,1.405,1.405,0,0,1,.073-.163c.112-.186.248-.214.411-.068a1.184,1.184,0,0,1,.271.332,5.682,5.682,0,0,1,.67,4.038c-.107.468-.191.935-.31,1.4a2.1,2.1,0,0,0,.09,1.1c.129-.191.265-.383.389-.58a3.886,3.886,0,0,1,2.252-1.6c.219-.068.332.039.27.259a1.445,1.445,0,0,1-.242.473,3.921,3.921,0,0,1-1.284,1.065c-.332.163-.648.355-.969.535a.774.774,0,0,0-.428.828c.045.394.056.8.079,1.2l.084.051a1.69,1.69,0,0,1,.152-.231,4.464,4.464,0,0,1,2.551-1.34c.315-.051.625-.141.94-.2.146-.028.327-.118.422.062.079.158-.051.3-.152.405a4.727,4.727,0,0,1-1.875,1.211c-.676.236-1.368.406-2.078.614v1.768a.484.484,0,0,0,.13,0,5.34,5.34,0,0,1,3.7-.287c.31.079.631.112.952.169a1.1,1.1,0,0,1,.242.062.172.172,0,0,1,.056.31.737.737,0,0,1-.18.112,4.8,4.8,0,0,1-3.8.468c-.366-.1-.738-.169-1.132-.253Z" transform="translate(-346.356 -122.059)" fill="#afd7d7"/>
      <path id="Trazado_718008" data-name="Trazado 718008" d="M574.388,293.108v7.467l-7.445-7.444-.022-.023Z" transform="translate(-332.037 -171.528)" fill="#afd7d7"/>
      <path id="Trazado_718009" data-name="Trazado 718009" d="M674.994,370.849l-9.967-.6,6.307-28.145,3.976.242c-.7-3.4-1.791-6-3.17-7.574a14.739,14.739,0,0,0-6.459-4.376c-.1-.028-.242-.062-.394-.1a10.393,10.393,0,0,0-5.5.1,12.516,12.516,0,0,0-1.306.321,17.543,17.543,0,0,0-2.7,1.228c-2.123,1.216-5.159,3.559-8.954,11.73-3.609,7.754-6.526,14.022-3.75,17.6.563.715,1.4,1.4,4.927,2.444a48.769,48.769,0,0,0,5.192,1.239c.282.051.6.1.9.152-.028.158-.079.445-.152.8a27.727,27.727,0,0,1-.867,3.2c-2.585,7.71-5.13,41.914-5.13,41.914-.225,3.041-.608,8.064-1.115,14.382h5.665q1.039-13.355,2.084-26.715,1.022,13.355,2.05,26.715h23.629q-2.627-27.267-5.254-54.551ZM649.8,355.83c-.411-1.075.051-2.151,2.455-6.5.485-.884.946-1.712,1.4-2.506.253,3.289.783,7.828.924,11.578-3.328-1-4.364-1.521-4.77-2.574Z" transform="translate(-375.951 -193.096)" fill="#4db1f0"/>
      <path id="Trazado_718010" data-name="Trazado 718010" d="M721.463,599.8a.44.44,0,0,1-.4.31H710.026a1.65,1.65,0,0,1-.383-.4,2.3,2.3,0,0,1-.248-1.509v-.225c.028-.332.017-.681.028-1.025,0-.7,0-1.38-.039-2.033a.084.084,0,0,0,.028-.1,65.816,65.816,0,0,0-2.275-12.907c-1.943-7.523-2.968-11.274-3.531-15.1-.231-1.521-.383-4.083-.473-6.792h9.354c.253,13.662.591,31.181.867,33.214a7.534,7.534,0,0,0,.254,1.065,4.394,4.394,0,0,0,1.588,2.455,11.817,11.817,0,0,0,1.379.6c.642.271,1.048.394,1.549.6a.332.332,0,0,1,.068.028c.062.028.152.062.242.1.816.371,1.757.766,2.815,1.289a.386.386,0,0,1,.22.433Z" transform="translate(-411.738 -327.706)" fill="#f9af8f"/>
      <path id="Trazado_718011" data-name="Trazado 718011" d="M675.879,596.747a.384.384,0,0,1-.372.31H664.47a.445.445,0,0,1-.27-.113,1.667,1.667,0,0,1-.118-.27,2.944,2.944,0,0,1-.112-1.763c.062-.473.18-.985.282-1.6.051-.394.112-1,.169-1.729a65.893,65.893,0,0,0-.361-13.1c-.805-7.726-1.267-11.578-1.267-15.441,0-1.357.051-3.621.112-6.087h1.769c.051-.732.112-1.448.169-2.174h3.8c.051.732.112,1.448.169,2.174h2.956c-1.8,16.809-2.968,31.575-3.119,32.5a7.024,7.024,0,0,0-.09,1.166,5.851,5.851,0,0,0,.411,2.213,1.738,1.738,0,0,0,.5.625,8.333,8.333,0,0,0,1.543.856c.462.231.868.309,1.543.6.906.383,1.954.828,3.148,1.4a.382.382,0,0,1,.192.434Z" transform="translate(-388.133 -324.64)" fill="#f9af8f"/>
      <path id="Trazado_718012" data-name="Trazado 718012" d="M677.216,652.91a.375.375,0,0,1,.192.434.384.384,0,0,1-.372.309H666a.446.446,0,0,1-.27-.112,1.668,1.668,0,0,1-.118-.271,2.892,2.892,0,0,1-.113-1.762h8.571C674.964,651.885,676.022,652.341,677.216,652.91Z" transform="translate(-389.668 -381.237)" fill="#1c466d"/>
      <path id="Trazado_718013" data-name="Trazado 718013" d="M730.289,653.333a.434.434,0,0,1-.4.309H718.851a1.636,1.636,0,0,1-.383-.4,2.372,2.372,0,0,1-.248-1.509v-.225h8.8c.878.388,1.9.822,3.058,1.391a.379.379,0,0,1,.22.434Z" transform="translate(-420.563 -381.237)" fill="#1c466d"/>
      <path id="Trazado_718014" data-name="Trazado 718014" d="M711.921,350.248l-.693-.039c-.231-.462-.462-.935-.692-1.43a39.675,39.675,0,0,1-1.892-5.04A22.427,22.427,0,0,1,711,347.793,24.2,24.2,0,0,1,711.921,350.248Z" transform="translate(-414.962 -201.153)" fill="#115089"/>
      <path id="Trazado_718015" data-name="Trazado 718015" d="M681.584,414.674c-.129.372-.253.732-.383,1.1-.755.051-1.538.09-2.343.112a45.141,45.141,0,0,1-8.059-.512c.039-.231.1-.5.152-.8a53.2,53.2,0,0,0,9.787.721c.062-.253.141-.524.2-.783.219.051.422.1.642.152Z" transform="translate(-392.819 -242.564)" fill="#115089"/>
      <path id="Trazado_718016" data-name="Trazado 718016" d="M746.205,408.951c-.569-.49-.276-1.661-.214-1.921.479-1.9,2.686-3.475,3.756-2.934.777.394.968,1.9.558,2.956-.7,1.808-3.272,2.607-4.106,1.892Z" transform="translate(-436.739 -236.408)" fill="#f9af8f"/>
      <path id="Trazado_718017" data-name="Trazado 718017" d="M694.546,408.161c.749.22,1.684.451,2.765.676a11.04,11.04,0,0,0,1.915.3c2.2,0,4.584-1.7,4.663-3.3a1.026,1.026,0,0,0-.169-.721c-.462-.569-1.605-.118-3-.068a7.747,7.747,0,0,1-3.052-.524c.129-.529.253-1.053.383-1.582a1.853,1.853,0,0,0-.834.439,2.638,2.638,0,0,0-.372.569c-.146.219-.5.405-1.289.366-.344,1.278-.67,2.551-1.013,3.829Z" transform="translate(-406.71 -235.797)" fill="#f9af8f"/>
      <path id="Trazado_718018" data-name="Trazado 718018" d="M691.068,413.707a.537.537,0,1,1,.253-.715A.532.532,0,0,1,691.068,413.707Z" transform="translate(-404.228 -241.496)" fill="#fff"/>
      <path id="Trazado_718019" data-name="Trazado 718019" d="M685.055,413.029a.536.536,0,1,1,.253-.715A.532.532,0,0,1,685.055,413.029Z" transform="translate(-400.71 -241.099)" fill="#fff"/>
      <path id="Trazado_718020" data-name="Trazado 718020" d="M671.507,520.15h-3.8q.346-4.468.7-8.943c.394-5.192.805-10.4,1.216-15.593q.591,7.813,1.205,15.621c.219,2.968.451,5.947.676,8.92Z" transform="translate(-391.009 -290.02)" fill="#1c466d"/>
      <path id="Trazado_718021" data-name="Trazado 718021" d="M690.966,342.886q-1.326.33-6.076-12.484a10.278,10.278,0,0,1,5.5-.1c1.228,8.177,1.419,12.361.575,12.592Z" transform="translate(-401.063 -193.099)" fill="#265e91"/>
      <path id="Trazado_718022" data-name="Trazado 718022" d="M695.3,301.88c-.192.5-1.549,3.942-3.9,4.094a2.643,2.643,0,0,1-.957-.112c0,.923-.011,1.841-.011,2.765a5.429,5.429,0,0,1-3.542.806,5.1,5.1,0,0,1-1.971-.7V306.7a2.584,2.584,0,0,0,1.346-.332c1.549-.935,1.87-4.263.332-8a14.833,14.833,0,0,0,3.379-1.661,14.226,14.226,0,0,0,2.945-2.664l.079-.113c.282-.332.524-.665.755-1a6.992,6.992,0,0,0,.907,2.7,7.09,7.09,0,0,0,1.126,1.52,9.089,9.089,0,0,1-.473,4.736Z" transform="translate(-401.079 -171.425)" fill="#f9af8f"/>
      <path id="Trazado_718023" data-name="Trazado 718023" d="M688.576,298.227c-.242,1.448-.614,2.737-1.661,3.34a4.4,4.4,0,0,1-2.776.191,10.853,10.853,0,0,1-3.007-.766c-.011-.293,0-.6,0-.9a2.524,2.524,0,0,0,.957.112c2.354-.152,3.711-3.593,3.9-4.094a9.08,9.08,0,0,0,.473-4.736,7.6,7.6,0,0,1-2.033-4.218c-.231.332-.473.665-.754,1l-.079.112a14.407,14.407,0,0,1-2.946,2.664,14.817,14.817,0,0,1-3.379,1.661c1.538,3.733,1.216,7.062-.332,8a2.58,2.58,0,0,1-1.346.332,10.268,10.268,0,0,1-2.788-.524,6.351,6.351,0,0,1-3.086-1.588c-1.881-2.252.309-7.394,2.838-10.553,3.086-3.84,7.715-6.65,12.169-4.347a4.849,4.849,0,0,1,1.1.676c4.454,3.441,3.187,10.976,2.737,13.639Z" transform="translate(-391.774 -165.66)"/>
      <path id="Trazado_718024" data-name="Trazado 718024" d="M724.909,360.5,718.6,388.642l-11.094-.681-9.967-.6,6.307-28.146q10.534.642,21.062,1.279Z" transform="translate(-408.466 -210.207)" fill="#afafaf"/>
      <path id="Trazado_718025" data-name="Trazado 718025" d="M734.708,357.013a1.252,1.252,0,0,0,.068-.321,1.267,1.267,0,1,0-2.534,0c0,.062.028.113.034.175l-2.8-.175-.574,2.574,7.63.456.575-2.562-2.4-.146Zm-1.993-.321a.794.794,0,0,1,1.588,0,.717.717,0,0,1-.062.293l-1.492-.09a.8.8,0,0,1-.039-.2Z" transform="translate(-426.812 -207.991)" fill="#1c466d"/>
      <g id="Grupo_1027718" data-name="Grupo 1027718" transform="translate(447.317 125.132)">
        <path id="Trazado_717438" data-name="Trazado 717438" d="M339.482,256.58l1.365-.264a.67.67,0,0,0-.791-.561A.726.726,0,0,0,339.482,256.58Z" transform="translate(-339.473 -255.743)"/>
        <path id="Trazado_717439" data-name="Trazado 717439" d="M325.127,256.7l-1.3-.49a.665.665,0,0,1,.875-.419A.729.729,0,0,1,325.127,256.7Z" transform="translate(-319.005 -255.743)"/>
        <path id="Trazado_717440" data-name="Trazado 717440" d="M330.877,274.8l-1.943.6a.979.979,0,0,0,1.239.691A1.072,1.072,0,0,0,330.877,274.8Z" transform="translate(-326.317 -268.973)" fill="#b16668"/>
        <path id="Trazado_717441" data-name="Trazado 717441" d="M329.029,277.151a.91.91,0,0,1,.942-.871.733.733,0,0,1,.218.038,1.058,1.058,0,0,1-.716.8.967.967,0,0,1-.448.029Z" transform="translate(-325.62 -269.999)" fill="#ffa8a7"/>
        <path id="Trazado_717442" data-name="Trazado 717442" d="M335.935,261.355l-.393,3.7-1.834-.557Z" transform="translate(-332.798 -259.638)" fill="#d08064"/>
        <path id="Trazado_717444" data-name="Trazado 717444" d="M325.723,261.987a.589.589,0,1,0,.557-.62A.59.59,0,0,0,325.723,261.987Z" transform="translate(-321.322 -259.646)"/>
        <path id="Trazado_717445" data-name="Trazado 717445" d="M339.642,262.065a.59.59,0,1,0,.469-.691A.6.6,0,0,0,339.642,262.065Z" transform="translate(-339.486 -259.645)"/>
      </g>
      <g id="Grupo_1027719" data-name="Grupo 1027719" transform="translate(289.078 124.347) rotate(21)">
        <path id="Trazado_717438-2" data-name="Trazado 717438" d="M1.365.837,0,.573A.67.67,0,0,1,.791.012.726.726,0,0,1,1.365.837Z" transform="translate(4.785 0)"/>
        <path id="Trazado_717439-2" data-name="Trazado 717439" d="M.037.954l1.3-.49A.665.665,0,0,0,.464.045.73.73,0,0,0,.037.954Z" transform="translate(0 0)"/>
        <path id="Trazado_717440-2" data-name="Trazado 717440" d="M.036,0,1.979.6a.979.979,0,0,1-1.239.691A1.072,1.072,0,0,1,.036,0Z" transform="translate(1.562 5.829)" fill="#b16668"/>
        <path id="Trazado_717441-2" data-name="Trazado 717441" d="M1.16.871A.91.91,0,0,0,.218,0,.734.734,0,0,0,0,.038a1.058,1.058,0,0,0,.716.8.966.966,0,0,0,.448.029Z" transform="translate(1.59 6.281)" fill="#ffa8a7"/>
        <path id="Trazado_717442-2" data-name="Trazado 717442" d="M0,0,.393,3.7l1.834-.557Z" transform="translate(3.022 1.717)" fill="#d08064"/>
        <path id="Trazado_717444-2" data-name="Trazado 717444" d="M1.177.62A.589.589,0,1,1,.62,0,.59.59,0,0,1,1.177.62Z" transform="translate(0.58 1.721)"/>
        <path id="Trazado_717445-2" data-name="Trazado 717445" d="M1.169.7a.6.6,0,0,1-.691.469A.6.6,0,0,1,.01.479.6.6,0,0,1,.7.01.6.6,0,0,1,1.169.7Z" transform="translate(4.833 1.719)"/>
      </g>
      <g id="Grupo_1027720" data-name="Grupo 1027720" transform="translate(212.882 125.465)">
        <path id="Trazado_717438-3" data-name="Trazado 717438" d="M339.482,256.58l1.365-.264a.67.67,0,0,0-.791-.561A.726.726,0,0,0,339.482,256.58Z" transform="translate(-339.473 -255.743)"/>
        <path id="Trazado_717439-3" data-name="Trazado 717439" d="M325.127,256.7l-1.3-.49a.665.665,0,0,1,.875-.419A.729.729,0,0,1,325.127,256.7Z" transform="translate(-319.005 -255.743)"/>
        <path id="Trazado_717442-3" data-name="Trazado 717442" d="M335.935,261.355l-.393,3.7-1.834-.557Z" transform="translate(-332.798 -259.638)" fill="#d08064"/>
        <path id="Trazado_717444-3" data-name="Trazado 717444" d="M325.723,261.987a.589.589,0,1,0,.557-.62A.59.59,0,0,0,325.723,261.987Z" transform="translate(-321.322 -259.646)"/>
        <path id="Trazado_717445-3" data-name="Trazado 717445" d="M339.642,262.065a.59.59,0,1,0,.469-.691A.6.6,0,0,0,339.642,262.065Z" transform="translate(-339.486 -259.645)"/>
      </g>
      <g id="Grupo_1027721" data-name="Grupo 1027721" transform="translate(62.146 84.178)">
        <path id="Trazado_717438-4" data-name="Trazado 717438" d="M340.838,256.58l-1.365-.264a.67.67,0,0,1,.791-.561A.726.726,0,0,1,340.838,256.58Z" transform="translate(-334.688 -255.743)"/>
        <path id="Trazado_717439-4" data-name="Trazado 717439" d="M323.861,256.7l1.3-.49a.665.665,0,0,0-.875-.419A.729.729,0,0,0,323.861,256.7Z" transform="translate(-323.825 -255.743)"/>
        <path id="Trazado_717440-3" data-name="Trazado 717440" d="M328.97,274.8l1.943.6a.979.979,0,0,1-1.239.691A1.072,1.072,0,0,1,328.97,274.8Z" transform="translate(-327.372 -268.973)" fill="#b16668"/>
        <path id="Trazado_717441-3" data-name="Trazado 717441" d="M330.185,277.151a.91.91,0,0,0-.942-.871.733.733,0,0,0-.218.038,1.058,1.058,0,0,0,.716.8.966.966,0,0,0,.448.029Z" transform="translate(-327.435 -269.999)" fill="#ffa8a7"/>
        <path id="Trazado_717442-4" data-name="Trazado 717442" d="M333.708,261.355l.393,3.7,1.834-.557Z" transform="translate(-330.687 -259.638)" fill="#d08064"/>
        <path id="Trazado_717444-4" data-name="Trazado 717444" d="M326.9,261.987a.589.589,0,1,1-.557-.62A.59.59,0,0,1,326.9,261.987Z" transform="translate(-325.142 -259.646)"/>
        <path id="Trazado_717445-4" data-name="Trazado 717445" d="M340.8,262.065a.59.59,0,1,1-.469-.691A.6.6,0,0,1,340.8,262.065Z" transform="translate(-334.799 -259.645)"/>
      </g>
    </g>
  </g>
</svg>
