<svg xmlns="http://www.w3.org/2000/svg" xmlns:xlink="http://www.w3.org/1999/xlink" width="98.955" height="99.541" viewBox="0 0 98.955 99.541">
  <defs>
    <radialGradient id="radial-gradient" cx="0.076" cy="0.019" r="1.465" gradientTransform="translate(0.001)" gradientUnits="objectBoundingBox">
      <stop offset="0" stop-color="#f6f6f7"/>
      <stop offset="0.477" stop-color="#f9f9fa"/>
      <stop offset="0.715" stop-color="#fff"/>
    </radialGradient>
    <filter id="Trazado_40937" x="0" y="0.684" width="98.955" height="98.856" filterUnits="userSpaceOnUse">
      <feOffset dy="7" input="SourceAlpha"/>
      <feGaussianBlur stdDeviation="2.5" result="blur"/>
      <feFlood flood-opacity="0.102"/>
      <feComposite operator="in" in2="blur"/>
      <feComposite in="SourceGraphic"/>
    </filter>
  </defs>
  <g id="Grupo_1027614" data-name="Grupo 1027614" transform="translate(6.414)">
    <g id="Grupo_997987" data-name="Grupo 997987" transform="translate(0)">
      <g id="Grupo_18423" data-name="Grupo 18423" transform="translate(0 0)">
        <g id="Grupo_18421" data-name="Grupo 18421">
          <g id="Grupo_18420" data-name="Grupo 18420">
            <g id="Grupo_18419" data-name="Grupo 18419">
              <path id="Trazado_40936" data-name="Trazado 40936" d="M279.664,2188.24a42.521,42.521,0,1,1-42.52-42.519A42.52,42.52,0,0,1,279.664,2188.24Z" transform="translate(-194.623 -2145.721)" fill="#fff"/>
            </g>
          </g>
        </g>
        <g transform="matrix(1, 0, 0, 1, -6.41, 0)" filter="url(#Trazado_40937)">
          <path id="Trazado_40937-2" data-name="Trazado 40937" d="M279.432,2187.987a42.52,42.52,0,1,0-42.52,42.521A42.352,42.352,0,0,0,279.432,2187.987Z" transform="translate(-187.98 -2145.47)" fill="url(#radial-gradient)"/>
        </g>
        <path id="Trazado_40938" data-name="Trazado 40938" d="M267.371,2186.006a32.456,32.456,0,1,0-32.456,32.456A32.336,32.336,0,0,0,267.371,2186.006Z" transform="translate(-192.266 -2143.346)" fill="none" stroke="#4db1f0" stroke-miterlimit="10" stroke-width="4"/>
        <g id="Grupo_18422" data-name="Grupo 18422" transform="translate(7.533 23.872)">
          <path id="Trazado_40939" data-name="Trazado 40939" d="M273.754,2164.488a42.526,42.526,0,0,1-73.209,42.344,42.391,42.391,0,0,0,73.209-42.344Z" transform="translate(-200.545 -2164.488)" fill="#eceef0"/>
        </g>
      </g>
    </g>
    <g id="g1612" transform="translate(246.45 18.477)">
      <g id="g1618" transform="translate(-221.823 4.626)">
        <path id="path1620" d="M-195.715,16.188v11.22A2.187,2.187,0,0,1-197.9,29.6H-210.26a2.187,2.187,0,0,1-2.188-2.188V16.188A2.187,2.187,0,0,1-210.26,14H-197.9a2.187,2.187,0,0,1,2.187,2.188" transform="translate(212.448 -14)" fill="#eaf6ff"/>
      </g>
      <g id="g1626" transform="translate(-221.823 24.901)">
        <path id="path1628" d="M-195.717,339.464v16.913a2.186,2.186,0,0,1-2.187,2.187h-12.358a2.186,2.186,0,0,1-2.188-2.187V339.464a2.194,2.194,0,0,1,2.188-2.186H-197.9a2.19,2.19,0,0,1,2.187,2.186" transform="translate(212.45 -337.278)" fill="#eaf6ff"/>
      </g>
      <g id="g1634" transform="translate(-221.823 4.626)">
        <path id="path1636" d="M-195.716,16.187v2.589h-16.733V16.187A2.187,2.187,0,0,1-210.262,14H-197.9a2.187,2.187,0,0,1,2.186,2.187" transform="translate(212.449 -14)" fill="#99e6fc"/>
      </g>
      <g id="g1638" transform="translate(-215.781 24.901)">
        <path id="path1640" d="M-105.423,339.465v2.776a7.8,7.8,0,0,1-8.709-1.6,7.761,7.761,0,0,1-1.982-3.362h8.5a2.19,2.19,0,0,1,2.187,2.186" transform="translate(116.114 -337.279)" fill="#c8effe"/>
      </g>
      <g id="g1646" transform="translate(-221.823 24.901)">
        <path id="path1648" d="M-195.717,339.464v2.612H-212.45v-2.612a2.194,2.194,0,0,1,2.188-2.186H-197.9a2.19,2.19,0,0,1,2.187,2.186" transform="translate(212.45 -337.278)" fill="#99e6fc"/>
      </g>
      <g id="g1650" transform="translate(-215.663 14.952)">
        <path id="path1652" d="M-103.66,179.322v2.4a2.187,2.187,0,0,1-2.187,2.188h-8.386a7.752,7.752,0,0,1,1.864-2.986,7.8,7.8,0,0,1,8.709-1.6" transform="translate(114.233 -178.639)" fill="#c8effe"/>
      </g>
      <g id="g1658" transform="translate(-200.605 4.663)">
        <path id="path1660" d="M142.534,17.141v10.45a2.554,2.554,0,0,1-2.553,2.554h-5.427l-2.569,4.046a.681.681,0,0,1-1.256-.365V30.146h-2.31a2.554,2.554,0,0,1-2.554-2.554V17.141a2.554,2.554,0,0,1,2.554-2.554h11.563a2.553,2.553,0,0,1,2.553,2.554" transform="translate(-125.864 -14.587)" fill="#99e6fc"/>
      </g>
      <g id="g1662" transform="translate(-195.741 20.222)">
        <path id="path1664" d="M203.417,265.4v.943a.681.681,0,0,0,1.256.365l2.569-4.046h-1.17a1.668,1.668,0,0,0-1.408.774Z" transform="translate(-203.417 -262.665)" fill="#62dbfb"/>
      </g>
      <g id="g1670" transform="translate(-214.414 14.952)">
        <path id="path1672" d="M-81.005,180.921a7.8,7.8,0,0,1,0,11.027,7.8,7.8,0,0,1-11.027,0,7.8,7.8,0,0,1,0-11.027,7.8,7.8,0,0,1,11.027,0" transform="translate(94.316 -178.637)" fill="#0268b4"/>
      </g>
      <g id="g1674" transform="translate(-207.451 14.953)">
        <path id="path1676" d="M23.055,180.944a7.781,7.781,0,0,0-6.348-2.238,7.8,7.8,0,0,1,0,15.5,7.8,7.8,0,0,0,6.348-13.265" transform="translate(-16.707 -178.662)" fill="#015a9b"/>
      </g>
      <g id="g1678" transform="translate(-211.894 17.47)">
        <path id="path1680" d="M-48.852,229.345a5.245,5.245,0,0,1-3.733-1.546,5.285,5.285,0,0,1,0-7.466,5.245,5.245,0,0,1,3.733-1.546,5.245,5.245,0,0,1,3.733,1.546,5.285,5.285,0,0,1,0,7.466,5.245,5.245,0,0,1-3.733,1.546" transform="translate(54.13 -218.786)" fill="#c8effe"/>
      </g>
      <g id="g1686" transform="translate(-199.686 29.68)">
        <path id="path1688" d="M141.02,414.891l.918-.918a1.717,1.717,0,0,1,2.429,0l2.827,2.826a1.717,1.717,0,0,1,0,2.429l-.918.918a1.717,1.717,0,0,1-2.429,0l-2.826-2.826a1.717,1.717,0,0,1,0-2.429" transform="translate(-140.517 -413.47)" fill="#ffa031"/>
      </g>
      <g id="g1694" transform="translate(-215.037 14.329)">
        <path id="Trazado_726137" data-name="Trazado 726137" d="M-95.833,185.546a8.37,8.37,0,0,1-5.957-2.468,8.434,8.434,0,0,1,0-11.914,8.434,8.434,0,0,1,11.914,0,8.369,8.369,0,0,1,2.467,5.957,8.369,8.369,0,0,1-2.467,5.957A8.37,8.37,0,0,1-95.833,185.546Zm0-15.592a7.148,7.148,0,0,0-5.07,2.1,7.179,7.179,0,0,0,0,10.14,7.124,7.124,0,0,0,5.07,2.1,7.123,7.123,0,0,0,5.07-2.1,7.123,7.123,0,0,0,2.1-5.07,7.123,7.123,0,0,0-2.1-5.07h0A7.148,7.148,0,0,0-95.833,169.955Z" transform="translate(104.253 -168.701)"/>
      </g>
      <g id="g1698" transform="translate(-212.521 16.843)">
        <path id="Trazado_726138" data-name="Trazado 726138" d="M-58.226,220.6a5.868,5.868,0,0,1-4.177-1.73,5.866,5.866,0,0,1-1.728-4.177,5.866,5.866,0,0,1,1.728-4.177,5.868,5.868,0,0,1,4.177-1.73,5.868,5.868,0,0,1,4.177,1.73,5.929,5.929,0,0,1,1.176,6.676.627.627,0,0,1-.833.3.627.627,0,0,1-.3-.833,4.671,4.671,0,0,0-.926-5.259,4.622,4.622,0,0,0-3.29-1.363,4.622,4.622,0,0,0-3.29,1.363,4.62,4.62,0,0,0-1.36,3.29,4.62,4.62,0,0,0,1.36,3.29,4.622,4.622,0,0,0,3.29,1.363,4.628,4.628,0,0,0,2.486-.718.627.627,0,0,1,.866.193.627.627,0,0,1-.193.866A5.881,5.881,0,0,1-58.226,220.6Z" transform="translate(64.13 -208.786)"/>
      </g>
      <g id="g1702" transform="translate(-201.73 27.636)">
        <path id="Trazado_726139" data-name="Trazado 726139" d="M110.931,384.513a.625.625,0,0,1-.443-.184l-2.379-2.379a.627.627,0,0,1,.887-.887l2.379,2.379a.627.627,0,0,1-.443,1.071Z" transform="translate(-107.925 -380.88)"/>
      </g>
      <g id="g1706" transform="translate(-200.313 29.052)">
        <path id="Trazado_726140" data-name="Trazado 726140" d="M135.687,411.9a2.337,2.337,0,0,1-1.658-.686l-2.826-2.826a2.344,2.344,0,0,1,0-3.316l.918-.918a2.344,2.344,0,0,1,3.316,0l2.827,2.826a2.344,2.344,0,0,1,0,3.316l-.918.918A2.337,2.337,0,0,1,135.687,411.9Zm-1.908-7.178a1.083,1.083,0,0,0-.771.319l-.918.918h0a1.09,1.09,0,0,0,0,1.542l2.826,2.826a1.09,1.09,0,0,0,1.542,0l.918-.918a1.09,1.09,0,0,0,0-1.542l-2.826-2.826A1.083,1.083,0,0,0,133.779,404.724Zm-2.133.794h0Z" transform="translate(-130.516 -403.47)"/>
      </g>
      <g id="g1710" transform="translate(-222.45 3.999)">
        <path id="Trazado_726141" data-name="Trazado 726141" d="M-213.991,20.85h-5.641a2.818,2.818,0,0,1-2.815-2.815V6.815A2.818,2.818,0,0,1-219.632,4h12.358a2.817,2.817,0,0,1,2.814,2.815v5.253a.627.627,0,0,1-.627.627.627.627,0,0,1-.627-.627V6.815a1.562,1.562,0,0,0-1.56-1.56h-12.358a1.562,1.562,0,0,0-1.56,1.56v11.22a1.562,1.562,0,0,0,1.56,1.56h5.641a.627.627,0,0,1,.627.627A.627.627,0,0,1-213.991,20.85Z" transform="translate(222.447 -4)"/>
      </g>
      <g id="g1714" transform="translate(-222.45 3.999)">
        <path id="Trazado_726142" data-name="Trazado 726142" d="M-205.089,10.03h-16.733a.627.627,0,0,1-.627-.627V6.813A2.818,2.818,0,0,1-219.634,4h12.359a2.817,2.817,0,0,1,2.814,2.814V9.4A.627.627,0,0,1-205.089,10.03Zm-16.106-1.254h15.479V6.813a1.562,1.562,0,0,0-1.559-1.56h-12.359a1.562,1.562,0,0,0-1.56,1.56Z" transform="translate(222.449 -3.999)"/>
      </g>
      <g id="g1718" transform="translate(-201.232 4.036)">
        <path id="Trazado_726143" data-name="Trazado 726143" d="M122.039,25.762a1.328,1.328,0,0,1-.371-.053,1.3,1.3,0,0,1-.943-1.256V21.4h-1.683a3.182,3.182,0,0,1-1.644-.457.627.627,0,1,1,.659-1.067,1.928,1.928,0,0,0,.985.27h2.31a.627.627,0,0,1,.627.627v3.681c0,.022,0,.04.039.052s.048,0,.06-.023l2.57-4.046a.627.627,0,0,1,.529-.291h5.427a1.928,1.928,0,0,0,1.926-1.927V7.767a1.928,1.928,0,0,0-1.926-1.927H119.043a1.929,1.929,0,0,0-1.927,1.927V18.218c0,.031,0,.061,0,.092a.627.627,0,1,1-1.253.053q0-.072,0-.144V7.767a3.185,3.185,0,0,1,3.182-3.181h11.562a3.184,3.184,0,0,1,3.18,3.181V18.218a3.184,3.184,0,0,1-3.18,3.181h-5.082l-2.385,3.755A1.3,1.3,0,0,1,122.039,25.762ZM118.345,20.4h0Z" transform="translate(-115.861 -4.586)"/>
      </g>
      <g id="g1722" transform="translate(-196.368 17.087)">
        <path id="Trazado_726144" data-name="Trazado 726144" d="M194.042,216.447a.627.627,0,0,1-.627-.627v-2.507a.627.627,0,0,1,1.254,0v2.507A.627.627,0,0,1,194.042,216.447Z" transform="translate(-193.415 -212.685)"/>
      </g>
      <g id="g1726" transform="translate(-192.953 16.941)">
        <path id="path1728" d="M247.871,210.994a.638.638,0,1,0,.638-.638.638.638,0,0,0-.638.638" transform="translate(-247.871 -210.356)"/>
      </g>
      <g id="g1730" transform="translate(-195.625 6.24)">
        <path id="Trazado_726145" data-name="Trazado 726145" d="M208.576,49.153a.627.627,0,0,1-.627-.627V45.72a.627.627,0,0,1,.627-.627,2.057,2.057,0,0,0,2.053-2.166,2.061,2.061,0,0,0-2.01-1.945h-.042a2.055,2.055,0,0,0-2.036,1.768,2.083,2.083,0,0,0-.02.287.627.627,0,0,1-1.254,0,3.31,3.31,0,0,1,6.616-.175,3.315,3.315,0,0,1-2.678,3.427v2.237A.627.627,0,0,1,208.576,49.153Z" transform="translate(-205.266 -39.727)"/>
      </g>
      <g id="g1734" transform="translate(-219.304 6.39)">
        <path id="path1736" d="M-172.295,42.756a.638.638,0,0,0,.638.638.638.638,0,0,0,.638-.638.638.638,0,0,0-.638-.638.638.638,0,0,0-.638.638" transform="translate(172.295 -42.118)"/>
      </g>
      <g id="g1738" transform="translate(-219.304 26.602)">
        <path id="path1740" d="M-172.295,365.037a.638.638,0,0,0,.638.638.638.638,0,0,0,.638-.638.638.638,0,0,0-.638-.638.638.638,0,0,0-.638.638" transform="translate(172.295 -364.399)"/>
      </g>
      <g id="g1742" transform="translate(-219.294 33.94)">
        <path id="Trazado_726146" data-name="Trazado 726146" d="M-161.337,482.649h-10.155a.627.627,0,0,1-.627-.627.627.627,0,0,1,.627-.627h10.155a.627.627,0,0,1,.627.627A.627.627,0,0,1-161.337,482.649Z" transform="translate(172.12 -481.395)"/>
      </g>
      <g id="g1746" transform="translate(-219.294 37.44)">
        <path id="Trazado_726147" data-name="Trazado 726147" d="M-161.337,538.466h-10.155a.627.627,0,0,1-.627-.627.627.627,0,0,1,.627-.627h10.155a.627.627,0,0,1,.627.627A.627.627,0,0,1-161.337,538.466Z" transform="translate(172.12 -537.212)"/>
      </g>
      <g id="g1750" transform="translate(-217.203 40.941)">
        <path id="Trazado_726148" data-name="Trazado 726148" d="M-132.353,594.282h-5.807a.627.627,0,0,1-.627-.627.627.627,0,0,1,.627-.627h5.807a.627.627,0,0,1,.627.627A.627.627,0,0,1-132.353,594.282Z" transform="translate(138.787 -593.028)"/>
      </g>
      <g id="g1754" transform="translate(-222.45 24.274)">
        <path id="Trazado_726149" data-name="Trazado 726149" d="M-207.277,349.817h-12.358A2.818,2.818,0,0,1-222.45,347V330.093a2.8,2.8,0,0,1,.826-1.99,2.8,2.8,0,0,1,2-.826.627.627,0,0,1,.62.635.627.627,0,0,1-.627.62h-.024a1.54,1.54,0,0,0-1.078.459,1.516,1.516,0,0,0-.459,1.093V347a1.562,1.562,0,0,0,1.561,1.56h12.358a1.561,1.561,0,0,0,1.56-1.56V333.4a.627.627,0,0,1,.627-.627.627.627,0,0,1,.627.627V347A2.817,2.817,0,0,1-207.277,349.817Z" transform="translate(222.45 -327.277)"/>
      </g>
      <g id="g1758" transform="translate(-222.45 24.274)">
        <path id="Trazado_726150" data-name="Trazado 726150" d="M-210.153,333.33h-11.669a.627.627,0,0,1-.627-.627v-2.609a2.8,2.8,0,0,1,.826-1.991,2.8,2.8,0,0,1,1.992-.826h2.577a.627.627,0,0,1,.627.627.627.627,0,0,1-.627.627h-2.605a1.54,1.54,0,0,0-1.078.459,1.516,1.516,0,0,0-.459,1.093s0,0,0,.007v1.985h11.041a.627.627,0,0,1,.627.627A.627.627,0,0,1-210.153,333.33Z" transform="translate(222.449 -327.278)"/>
      </g>
    </g>
  </g>
</svg>
