<svg xmlns="http://www.w3.org/2000/svg" width="181" height="181" viewBox="0 0 181 181">
  <g id="Grupo_1026568" data-name="Grupo 1026568" transform="translate(-399 -2711)">
    <g id="Grupo_1004758" data-name="Grupo 1004758" transform="translate(0 1849)">
      <circle id="Elipse_8399" data-name="Elipse 8399" cx="90.5" cy="90.5" r="90.5" transform="translate(399 862)" fill="#fff"/>
    </g>
    <g id="Group_3_" data-name="Group (3)" transform="translate(436.608 2756.477)">
      <path id="Trazado_716427" data-name="Trazado 716427" d="M104.866,60.766l-36.8-.365-1.949-.019S31.231,38.718,50.055,14.357C61.443-.381,76.884-1.239,87.86,2.776c7.165,2.62,12.425,7.316,13.408,11.581,0,0,16.956-12.189,26.143-1.7C140.3,27.367,122.477,52.361,104.866,60.766Z" transform="translate(-26.028 0)"/>
      <path id="Trazado_716428" data-name="Trazado 716428" d="M73.24,47.317,68.061,60.4l-1.948-.019S31.232,38.718,50.056,14.357C61.444-.381,76.885-1.239,87.861,2.776c-7.253,1.461-22.866,6.066-24.138,18.78A30.5,30.5,0,0,0,73.24,47.317Z" transform="translate(-26.029 0)"/>
      <path id="Trazado_716429" data-name="Trazado 716429" d="M129.692,101v.279a12.183,12.183,0,0,1-10.875,12.111,30.321,30.321,0,0,1-59.563,0,12.182,12.182,0,0,1-10.873-12.111V101a8.086,8.086,0,0,1,8.086-8.086h2.252a52.962,52.962,0,0,0,16.8-3.311,69.425,69.425,0,0,0,26.092-16.626s5.307,14.959,17.741,19.937h2.253A8.086,8.086,0,0,1,129.692,101Z" transform="translate(-28.311 -42.285)" fill="#ffdfcf"/>
      <path id="Trazado_716430" data-name="Trazado 716430" d="M94.1,161.046a30.348,30.348,0,0,1-34.844-24.2,12.181,12.181,0,0,1-10.873-12.11v-.28a8.086,8.086,0,0,1,8.086-8.086h2.252a52.948,52.948,0,0,0,16.8-3.311v25.435A22.983,22.983,0,0,0,94.1,161.046Z" transform="translate(-28.311 -65.737)" fill="#ffcebf"/>
      <path id="Trazado_716431" data-name="Trazado 716431" d="M217.578,142.5a1.588,1.588,0,0,1-1.588-1.588v-3.006a5.371,5.371,0,0,1,5.365-5.365,1.588,1.588,0,1,1,0,3.177,2.191,2.191,0,0,0-2.189,2.189v3.005A1.588,1.588,0,0,1,217.578,142.5Z" transform="translate(-126.389 -77.14)" fill="#ffcebf"/>
      <path id="Trazado_716432" data-name="Trazado 716432" d="M134.5,180.6a1.589,1.589,0,0,1-.321-3.144,23.075,23.075,0,0,1,9.41,0,1.588,1.588,0,0,1-.644,3.111,19.9,19.9,0,0,0-8.121,0A1.638,1.638,0,0,1,134.5,180.6Z" transform="translate(-77.778 -103.14)"/>
      <path id="Trazado_716433" data-name="Trazado 716433" d="M110.238,148.061a9.056,9.056,0,0,1-6.423-2.657,1.588,1.588,0,1,1,2.246-2.246,5.915,5.915,0,0,0,8.354,0,1.588,1.588,0,1,1,2.246,2.246A9.055,9.055,0,0,1,110.238,148.061Z" transform="translate(-60.476 -83.081)"/>
      <path id="Trazado_716434" data-name="Trazado 716434" d="M163.1,148.061a9.057,9.057,0,0,1-6.424-2.657,1.588,1.588,0,1,1,2.246-2.246,5.915,5.915,0,0,0,8.354,0,1.588,1.588,0,1,1,2.246,2.246A9.055,9.055,0,0,1,163.1,148.061Z" transform="translate(-91.407 -83.081)"/>
      <path id="Trazado_716435" data-name="Trazado 716435" d="M18.468,11.381,13.846,6.759a1.588,1.588,0,0,0-2.246,0L6.978,11.381a1.588,1.588,0,1,0,2.246,2.246l1.91-1.911V20.75a1.588,1.588,0,1,0,3.177,0V11.716l1.911,1.911a1.588,1.588,0,1,0,2.246-2.246Z" transform="translate(-3.811 -3.265)" fill="#115089"/>
      <path id="Trazado_716436" data-name="Trazado 716436" d="M44.116,99.446V57.733a8.929,8.929,0,0,0-17.858,0V99.446a15.78,15.78,0,1,0,17.858,0Z" transform="translate(-11.356 -28.141)" fill="#fff1e1"/>
      <path id="Trazado_716437" data-name="Trazado 716437" d="M35.186,128.238a15.78,15.78,0,0,1-8.929-28.791V57.735A8.93,8.93,0,0,1,35.186,48.8c-.877,0-1.669,1-2.243,2.615a19.613,19.613,0,0,0-.927,6.315V99.447c-1.47,2.847-2.433,7.609-2.433,13.01C29.582,121.173,32.092,128.238,35.186,128.238Z" transform="translate(-11.356 -28.141)" fill="#ffddb6"/>
      <path id="Trazado_716438" data-name="Trazado 716438" d="M43.575,130.678a9.833,9.833,0,0,1-5.559-17.945l2.577-1.772V66.121a2.983,2.983,0,0,1,5.965,0v44.841l2.577,1.772a9.833,9.833,0,0,1-5.56,17.944Z" transform="translate(-19.744 -36.528)" fill="#ffa031"/>
      <path id="Trazado_716439" data-name="Trazado 716439" d="M37.97,189.941a38.765,38.765,0,0,0,.915,8.643,9.831,9.831,0,0,1-.87-16.752l.889-.612A38.572,38.572,0,0,0,37.97,189.941Z" transform="translate(-19.743 -105.626)" fill="#ff9212"/>
      <path id="Trazado_716440" data-name="Trazado 716440" d="M8.051,147.2H1.588a1.588,1.588,0,0,1,0-3.177H8.051a1.588,1.588,0,1,1,0,3.177Z" transform="translate(0 -83.858)" fill="#ffddb6"/>
      <path id="Trazado_716441" data-name="Trazado 716441" d="M8.051,121.173H1.588a1.588,1.588,0,0,1,0-3.177H8.051a1.588,1.588,0,1,1,0,3.177Z" transform="translate(0 -68.629)" fill="#ffddb6"/>
      <path id="Trazado_716442" data-name="Trazado 716442" d="M8.051,95.148H1.588a1.588,1.588,0,0,1,0-3.177H8.051a1.588,1.588,0,1,1,0,3.177Z" transform="translate(0 -53.401)" fill="#ffddb6"/>
      <path id="Trazado_716443" data-name="Trazado 716443" d="M8.051,69.123H1.588a1.588,1.588,0,1,1,0-3.177H8.051a1.588,1.588,0,1,1,0,3.177Z" transform="translate(0 -38.172)" fill="#ffddb6"/>
    </g>
  </g>
</svg>
