<svg xmlns="http://www.w3.org/2000/svg" width="400" height="286.343" viewBox="0 0 400 286.343">
  <g id="Group_11" data-name="Group 11" transform="translate(104.013 -0.998)">
    <g id="Grupo_1013376" data-name="Grupo 1013376" transform="translate(-104.013 0.998)" opacity="0.3">
      <path id="Trazado_718049" data-name="Trazado 718049" d="M226.587,4.63c-18.353,4.323-39.1,8.147-49.16,9.268-27.825,3.085-30.966-7.47-63.47-9.289-21.4-1.2-43.936,1.639-61.145,12.435C27.333,33.022,18.864,63.841,25.8,90.531c3.4,13.086,9.978,26.787,4.783,39.333-5.242,12.657-21.082,20.1-27.056,32.507C-.8,171.355.746,181.916,5.557,190.817s12.613,16.378,20.885,23.17c5.889,4.834,12.191,9.461,19.525,12.477,17.068,7.02,37.015,4.454,55.659,6.923,21.3,2.822,40.654,12.207,59.185,21.8s37.165,19.725,58.069,24.318,44.949,2.725,60.788-9.607c11.657-9.074,18.437-23.232,32.954-28.474,12.942-4.669,29.691-1.169,40.269-9.06,10.485-7.822,8.8-22.063,13.7-33.254,5.008-11.426,16.88-19.4,24.692-29.574,16.937-22.07,11.094-55.012-12.8-72.165-10.428-7.49-23.379-12-33.817-19.483-13.429-9.628-21.691-23.391-30.01-36.594-19.131-30.376-25.283-32.2-32.035-35.1C266.341-.792,246.3,1.1,241.611,1.636,236.125,2.258,232.964,3.13,226.587,4.63Z" transform="translate(-0.987 -0.998)" fill="#4db1f0"/>
    </g>
    <g id="Grupo_1027947" data-name="Grupo 1027947" transform="translate(-52.853)">
      <g id="Grupo_1013375" data-name="Grupo 1013375" transform="translate(204.134 116.314)" opacity="0.46">
        <path id="Trazado_718047" data-name="Trazado 718047" d="M294.71,180.59a9.343,9.343,0,0,1,4.039,1.183,11.28,11.28,0,0,1,5.312,6.522,9.316,9.316,0,0,1,.332,4.2,32.788,32.788,0,0,0-1.667-3.645,20.359,20.359,0,0,0-4.786-5.886A32.213,32.213,0,0,0,294.71,180.59Z" transform="translate(-294.71 -171.696)" fill="#3b223e"/>
        <path id="Trazado_718048" data-name="Trazado 718048" d="M298.97,167.73a22.843,22.843,0,0,1,7.158,3.1,26.28,26.28,0,0,1,10.015,11.951,22.822,22.822,0,0,1,1.8,7.587,49.82,49.82,0,0,0-3.092-6.972,36.527,36.527,0,0,0-1.957-3.2,29.477,29.477,0,0,0-2.255-2.974,31.655,31.655,0,0,0-2.531-2.746c-.878-.885-1.833-1.688-2.8-2.49a49.967,49.967,0,0,0-6.321-4.254Z" transform="translate(-296.024 -167.73)" fill="#3b223e"/>
      </g>
      <g id="Grupo_1013377" data-name="Grupo 1013377" transform="translate(56.942 116.695)" opacity="0.46">
        <path id="Trazado_718050" data-name="Trazado 718050" d="M95.347,198.427a9.3,9.3,0,0,1,.124-4.205,11.291,11.291,0,0,1,4.966-6.8,9.224,9.224,0,0,1,3.977-1.383,34.459,34.459,0,0,0-3.105,2.538,20.455,20.455,0,0,0-2.524,2.85,20.137,20.137,0,0,0-1.95,3.271,32.7,32.7,0,0,0-1.48,3.728Z" transform="translate(-85.983 -173.757)" fill="#3b223e"/>
        <path id="Trazado_718051" data-name="Trazado 718051" d="M81.9,192.356a22.924,22.924,0,0,1,1.176-7.7,26.246,26.246,0,0,1,9.012-12.712,22.758,22.758,0,0,1,6.882-3.659,49.884,49.884,0,0,0-5.955,4.758,35.387,35.387,0,0,0-2.594,2.7,29.484,29.484,0,0,0-2.31,2.933,29.953,29.953,0,0,0-2.013,3.147c-.629,1.079-1.169,2.206-1.7,3.341a49.153,49.153,0,0,0-2.511,7.2Z" transform="translate(-81.89 -168.28)" fill="#3b223e"/>
      </g>
      <path id="Trazado_718052" data-name="Trazado 718052" d="M182.263,168.327c-7.525-1.515-25.991-5.229-44.735,1.432-18.307,6.5-28.135,19.788-40.177,36.068-12.684,17.139-6.446,16.883-22.167,42.016-2.386,3.818-6.826,10.693-6.37,19.711.1,2.068.546,8.964,5.568,14.663,1.031,1.169,4.966,5.367,17.263,8.064,9.226,2.026,16.288,1.7,22.955,1.459,19.082-.692,28.627-1.037,32.721-.629,19.193,1.916,17.291,10.464,40.855,15.769,24.8,5.575,38.973-1.183,42.321-2.9a28.768,28.768,0,0,0,9.005-6.46c7.933-8.777,7.594-20.846,7.034-34.07a136.48,136.48,0,0,0-3.928-25.742c-2.766-11.433-5.07-20.977-11.274-32.022-4.482-7.981-13.023-22.741-30.459-31.455-7.186-3.59-13.141-4.793-18.6-5.893Z" transform="translate(-20.906 -50.857)" fill="#12263f"/>
      <path id="Trazado_718053" data-name="Trazado 718053" d="M160.18,251.019a77.169,77.169,0,0,1,5.81-20.064,24.041,24.041,0,0,1,5-7.836c5.422-5.173,13.8-5.229,21.288-4.883,4.1.187,8.376.456,11.924,2.518,5.7,3.32,7.981,10.257,9.807,16.592l4.966,17.208" transform="translate(-49.091 -66.952)" fill="#b0d3e9"/>
      <g id="Grupo_1013378" data-name="Grupo 1013378" transform="translate(111.373 151.189)" opacity="0.07">
        <path id="Trazado_718054" data-name="Trazado 718054" d="M160.59,251.059a77.17,77.17,0,0,1,5.81-20.064,24.041,24.041,0,0,1,5-7.836c5.422-5.173,13.8-5.229,21.288-4.883,4.1.187,8.376.456,11.924,2.518,5.7,3.32,7.981,10.257,9.807,16.592l4.966,17.208" transform="translate(-160.59 -218.154)" fill="#2b002b"/>
      </g>
      <path id="Trazado_718055" data-name="Trazado 718055" d="M215.525,205.4c-1.784,13.079,8.12,17.443,13.646,36.573,3.928,13.6.588,17.159,5.907,23.654,6.176,7.546,18.6,12.415,26.406,7.767,4.468-2.656,6.771-7.4,7.463-12.228,1.155-8.051,1.411-16.336-.5-24.235a81.655,81.655,0,0,0-4.835-13.348c-4.959-11.4-8.569-18.958-16.239-24.539-6.965-5.063-19.545-9.994-26.648-4.655C216.6,197.49,215.864,202.9,215.525,205.4Z" transform="translate(-66.092 -58.926)" fill="#12263f"/>
      <path id="Trazado_718056" data-name="Trazado 718056" d="M165.184,202.831c-.588,13.189-11.108,15.707-19.974,33.537-6.3,12.684-3.645,16.779-10.049,22.215-7.428,6.321-20.521,8.881-27.375,2.912-3.922-3.41-5.339-8.493-5.153-13.369.3-8.127,1.535-16.322,4.828-23.757A82.7,82.7,0,0,1,114.6,212.1c6.923-10.333,11.82-17.118,20.375-21.233,7.76-3.735,21.019-6.328,27.05.194,3.5,3.79,3.258,9.24,3.147,11.765Z" transform="translate(-31.34 -57.378)" fill="#12263f"/>
      <g id="Grupo_1013379" data-name="Grupo 1013379" transform="translate(160.32 128.355)" opacity="0.15">
        <path id="Trazado_718057" data-name="Trazado 718057" d="M232.69,210.026a38.21,38.21,0,0,1,6-3.666,49.548,49.548,0,0,1,13.321-4.433A38.3,38.3,0,0,1,259,201.27l-6.7,1.9c-2.213.65-4.413,1.314-6.591,2.054-2.186.712-4.343,1.5-6.508,2.3l-6.5,2.5Z" transform="translate(-231.77 -190.114)" fill="#3b223e"/>
        <path id="Trazado_718058" data-name="Trazado 718058" d="M243.968,213.717l-2.531-6.156c-.858-2.033-1.708-4.06-2.6-6.079-.865-2.033-1.764-4.046-2.6-6.1s-1.681-4.115-2.365-6.252a58.927,58.927,0,0,1,3.513,5.7c1.079,1.95,2.054,3.956,2.953,6a55.79,55.79,0,0,1,2.3,6.308,34.42,34.42,0,0,1,1.335,6.584Z" transform="translate(-232.134 -186.37)" fill="#3b223e"/>
        <path id="Trazado_718059" data-name="Trazado 718059" d="M251.846,211.207c-.712-2.22-1.328-4.419-2.186-6.515-.436-1.051-.858-2.109-1.321-3.168l-1.293-3.2c-.823-2.151-1.625-4.316-2.338-6.508s-1.39-4.406-1.909-6.674c1.148,2.026,2.151,4.108,3.1,6.211s1.819,4.233,2.67,6.377c.809,2.158,1.653,4.3,2.289,6.557a26.521,26.521,0,0,1,.982,6.923Z" transform="translate(-234.888 -185.14)" fill="#3b223e"/>
        <path id="Trazado_718060" data-name="Trazado 718060" d="M259.765,209.28l-1.93-5.948c-.657-1.964-1.293-3.928-1.971-5.886-.65-1.971-1.321-3.935-1.93-5.927a61.3,61.3,0,0,1-1.6-6.079,59.219,59.219,0,0,1,2.8,5.63c.851,1.909,1.6,3.866,2.282,5.851a51,51,0,0,1,1.653,6.086,31.36,31.36,0,0,1,.705,6.273Z" transform="translate(-237.827 -185.233)" fill="#3b223e"/>
        <path id="Trazado_718061" data-name="Trazado 718061" d="M231.367,200.109a18.041,18.041,0,0,1,5.153-3.659c.954-.477,1.95-.83,2.9-1.217.961-.36,1.86-.747,2.822-1.21l1.432-.629a14.359,14.359,0,0,1,1.535-.533,18.483,18.483,0,0,1,3.168-.581,28.608,28.608,0,0,1,6.3.145c-2.061.422-4.122.678-6.107,1.114a26.811,26.811,0,0,0-2.9.8c-.47.166-.927.325-1.39.533l-1.4.657a27.52,27.52,0,0,1-2.932,1.162c-1,.311-1.978.622-2.939.941a42.569,42.569,0,0,0-5.644,2.483Z" transform="translate(-231.36 -187.307)" fill="#3b223e"/>
        <path id="Trazado_718062" data-name="Trazado 718062" d="M239.19,221a40.284,40.284,0,0,1,5.415-3.278,29.906,29.906,0,0,1,5.969-2.289,26.265,26.265,0,0,1,3.168-.581c1.058-.111,2.116-.207,3.161-.242,2.1-.1,4.164-.118,6.28-.249a28.455,28.455,0,0,1-6.149,1.522c-2.068.346-4.1.616-6.059,1.141a57.681,57.681,0,0,0-5.865,1.874c-1.95.712-3.894,1.48-5.92,2.116Z" transform="translate(-233.775 -194.151)" fill="#3b223e"/>
      </g>
      <path id="Trazado_718063" data-name="Trazado 718063" d="M185.9,191.679a11.172,11.172,0,0,1,2.068,3.465,22.8,22.8,0,0,1,.948,3.845c1.134,6.121,2.269,12.373,1.411,18.543a2,2,0,0,0,.1,1.307,1.856,1.856,0,0,0,1.266.692,16.084,16.084,0,0,0,10.4-1.293,4.645,4.645,0,0,0,1.854-1.418,5.534,5.534,0,0,0,.664-3.161l.221-25.839-18.93,3.859Z" transform="translate(-57.022 -57.61)" fill="#ff9896"/>
      <g id="Grupo_1013380" data-name="Grupo 1013380" transform="translate(128.871 130.209)" opacity="0.16">
        <path id="Trazado_718064" data-name="Trazado 718064" d="M204.827,187.827l-.111,12.726a33.566,33.566,0,0,1-14.476,6.584c-.318-2.739-.823-5.45-1.328-8.154a21.623,21.623,0,0,0-.948-3.839,11.224,11.224,0,0,0-2.075-3.472l18.937-3.852Z" transform="translate(-185.89 -187.82)" fill="#2b002b"/>
      </g>
      <path id="Trazado_718065" data-name="Trazado 718065" d="M218.767,110.192c0,.173,0,.346-.014.5-.048,1.245-.1,2.414-.159,3.465-.09,1.528-.187,2.856-.242,3.942a55.562,55.562,0,0,1-1.577,11.516c-.062.228-.118.456-.187.685-2.614,8.832-9.185,16.226-17.242,20.707a44.725,44.725,0,0,1-10.706,4.205,55.238,55.238,0,0,1-15.956,1.528.788.788,0,0,1-.18-.014c-10-.484-20.1-3.569-27.7-10.091C137.155,140.1,132.4,129.8,133.9,119.854c.768-5.063,2.393-5.575,3.569-13.238,1.017-6.73.228-10.049.187-14.628-.014-1.017.021-2.1.111-3.292A41.689,41.689,0,0,1,144.8,68.743a25.569,25.569,0,0,1,7.158-6.515c16.751-10.547,47.93-8.265,59.169,7.089a27.094,27.094,0,0,1,4.122,8.832c1.286,4.461,1.971,9.7,2.808,16.06a92.048,92.048,0,0,1,.74,9.724c.062,2.255.042,4.343-.021,6.245Z" transform="translate(-40.901 -16.881)" fill="#ff9896"/>
      <path id="Trazado_718066" data-name="Trazado 718066" d="M268.666,144.07a20.017,20.017,0,0,1-16.412,4.205,19.267,19.267,0,0,1-3.6-1.072l1.591-10.748L251.652,127a27.657,27.657,0,0,1,2.614-4.392,16.645,16.645,0,0,1,5.45-4.924c3.679-1.992,8.583-2.061,11.772.629a11.928,11.928,0,0,1,3.6,6.536,17.433,17.433,0,0,1,.38,2.518,20,20,0,0,1-6.8,16.71Z" transform="translate(-76.372 -35.536)" fill="#ff9896"/>
      <g id="Grupo_1013381" data-name="Grupo 1013381" transform="translate(178.489 90.172)" opacity="0.24">
        <path id="Trazado_718067" data-name="Trazado 718067" d="M272.611,129.937c-1.487.865-2.891,1.653-4.233,2.531a44.166,44.166,0,0,0-3.845,2.773,45.979,45.979,0,0,0-3.527,3.168c-1.141,1.12-2.213,2.331-3.375,3.6a12.959,12.959,0,0,1,1.978-4.731,16.99,16.99,0,0,1,7.961-6.411A13.013,13.013,0,0,1,272.611,129.937Z" transform="translate(-257.63 -129.93)" fill="#3b223e"/>
        <path id="Trazado_718068" data-name="Trazado 718068" d="M263.01,139.3a3.044,3.044,0,0,1,2.386-.553,4.068,4.068,0,0,1,3.361,3.507,3.054,3.054,0,0,1-.657,2.365,15.557,15.557,0,0,0-1.051-1.805,10.644,10.644,0,0,0-1.037-1.286,9.771,9.771,0,0,0-1.238-1.1,15.4,15.4,0,0,0-1.757-1.127Z" transform="translate(-259.289 -132.637)" fill="#3b223e"/>
      </g>
      <path id="Trazado_718069" data-name="Trazado 718069" d="M202.622,109.72c-2.476-.609-2.773-.989-5.035-1.653-1.674-.491-3.292-.961-4.662-.152a3.687,3.687,0,0,0-1.757,3.2c.062,1.48,1.2,2.455,2.324,3.354a18.349,18.349,0,0,0,7.808,3.161,17.146,17.146,0,0,0,6.155.443c1.328-.207,4.454-.92,5.07-3.2a3.9,3.9,0,0,0-1.4-3.935c-.705-.512-.948-.2-5.014-.643a25.988,25.988,0,0,1-3.486-.574Z" transform="translate(-58.646 -32.835)"/>
      <path id="Trazado_718070" data-name="Trazado 718070" d="M154.225,111c2.206-.622,2.462-.982,4.482-1.653,1.494-.5,2.932-.968,4.184-.263a3.408,3.408,0,0,1,1.667,2.884c-.021,1.363-1.01,2.282-2,3.14a16.307,16.307,0,0,1-6.93,3.112,15.083,15.083,0,0,1-5.512.574c-1.2-.152-4.025-.726-4.641-2.8a3.627,3.627,0,0,1,1.148-3.652c.616-.484.844-.207,4.489-.726a22.032,22.032,0,0,0,3.119-.622Z" transform="translate(-44.519 -33.219)"/>
      <path id="Trazado_718071" data-name="Trazado 718071" d="M153.988,161.586c3.869-.057,6.968-2.6,6.923-5.678s-3.22-5.527-7.089-5.469-6.968,2.6-6.923,5.678S150.119,161.644,153.988,161.586Z" transform="translate(-44.995 -46.083)" fill="#ffa031" opacity="0.18"/>
      <path id="Trazado_718072" data-name="Trazado 718072" d="M154.75,157.166a3.644,3.644,0,0,1,.512-.339,4.975,4.975,0,0,1,2.186-1.342,11.387,11.387,0,0,1,4.461-1.577l-22.762-18.218a9.4,9.4,0,0,0-3.341-9.621,8.951,8.951,0,1,0-11.17,13.964,9.407,9.407,0,0,0,10.119,1.155l19.974,15.99A.1.1,0,0,0,154.75,157.166Z" transform="translate(-37.014 -37.912)" fill="#fffcff"/>
      <path id="Trazado_718073" data-name="Trazado 718073" d="M158.637,156.584a11.7,11.7,0,0,1,1.494-.768l-22.679-18.155.4-1.57a6.832,6.832,0,0,0-2.428-7,6.509,6.509,0,1,0-8.127,10.153,6.829,6.829,0,0,0,7.359.837l1.439-.733,21.855,17.491A5.8,5.8,0,0,1,158.637,156.584Z" transform="translate(-38.142 -39.024)" fill="#ffa031"/>
      <path id="Trazado_718074" data-name="Trazado 718074" d="M159.009,158.056a12.175,12.175,0,0,1,1.494-.768L137.735,139.07l.4-1.563a6.706,6.706,0,0,0-.823-5.187c-.429.678-.844,1.356-1.335,1.985a11.746,11.746,0,0,1-6.418,3.866,18.587,18.587,0,0,1-3.679.533,7.141,7.141,0,0,0,1.7,1.964,6.841,6.841,0,0,0,7.359.83l1.439-.733,21.932,17.554a5.477,5.477,0,0,1,.692-.256Z" transform="translate(-38.513 -40.496)" fill="#3b223e" opacity="0.27"/>
      <path id="Trazado_718075" data-name="Trazado 718075" d="M163.441,165.923a3.646,3.646,0,0,1,.512-.339,4.974,4.974,0,0,1,2.186-1.342,11.418,11.418,0,0,1,4.468-1.577L157.7,152.339a38.365,38.365,0,0,1-8.168,2.179c-.111.014-.221.028-.332.048l14.213,11.377s.014-.014.021-.014Z" transform="translate(-45.705 -46.669)" fill="#3b223e" opacity="0.13"/>
      <g id="Grupo_1013382" data-name="Grupo 1013382" transform="translate(87.875 89.661)" opacity="0.27">
        <path id="Trazado_718076" data-name="Trazado 718076" d="M136.568,129.765a5.745,5.745,0,0,0-5.775.443c-1.044.74-.042,2.476,1.01,1.729a3.732,3.732,0,0,1,3.756-.443C136.721,132.027,137.737,130.3,136.568,129.765Z" transform="translate(-127.767 -129.193)" fill="#fffcff"/>
        <path id="Trazado_718077" data-name="Trazado 718077" d="M127.58,135.079a1,1,0,0,0,0-2A1,1,0,0,0,127.58,135.079Z" transform="translate(-126.615 -130.391)" fill="#fffcff"/>
      </g>
      <path id="Trazado_718078" data-name="Trazado 718078" d="M177.12,117.439c-.055.021,5.955,17.263,3.078,18.674-.858.422-2.151-.74-3.8.062a3.983,3.983,0,0,0-1.937,2.552c-.443,2.02,1.01,3.88,2.331,4.731,1.66,1.065,4.191,1.231,5.519.3C187.536,140.111,177.182,117.418,177.12,117.439Z" transform="translate(-53.47 -35.907)" fill="#ffa031" opacity="0.18"/>
      <g id="Grupo_1013383" data-name="Grupo 1013383" transform="translate(119.969 81.325)" opacity="0.3">
        <path id="Trazado_718079" data-name="Trazado 718079" d="M176.547,117.14a63.628,63.628,0,0,1,3.472,9.026,48.309,48.309,0,0,1,1.2,4.731q.125.6.207,1.224t.145,1.266a5.11,5.11,0,0,1,.028.657,5.745,5.745,0,0,1-.014.685,4.943,4.943,0,0,1-.083.74c-.028.131-.048.256-.083.394-.055.152-.111.3-.173.45a2.51,2.51,0,0,1-.3.491,1.738,1.738,0,0,1-.526.456,2.059,2.059,0,0,1-1.238.263,12.613,12.613,0,0,1-1.3-.249,2.078,2.078,0,0,0-1.563.159,2.706,2.706,0,0,0-1.141,1.266,3.7,3.7,0,0,0-.166.415,2.876,2.876,0,0,0-.076.408,2.6,2.6,0,0,0,.028.892,4.419,4.419,0,0,0,.878,1.791,4.854,4.854,0,0,0,1.6,1.376,6.269,6.269,0,0,0,4.461.373,5.659,5.659,0,0,1-7.158-.74,5.673,5.673,0,0,1-1.494-2.331,4.572,4.572,0,0,1-.228-1.48,4.439,4.439,0,0,1,.09-.775,5.061,5.061,0,0,1,.221-.712,4.79,4.79,0,0,1,1.881-2.352,3.906,3.906,0,0,1,1.535-.56,4.927,4.927,0,0,1,1.542.048c.45.083.871.194,1.058.2.09,0,.021-.014-.083.035-.1.069-.1.09-.083.041a.537.537,0,0,1,.048-.111l.035-.194a2.659,2.659,0,0,0,.055-.45,7.709,7.709,0,0,0,0-1.058c-.028-.74-.131-1.5-.228-2.275-.2-1.542-.512-3.092-.8-4.655C177.7,123.468,177.031,120.335,176.547,117.14Z" transform="translate(-173.019 -117.14)" fill="#3b223e"/>
      </g>
      <g id="Grupo_1013384" data-name="Grupo 1013384" transform="translate(116.27 114.246)" opacity="0.36">
        <path id="Trazado_718080" data-name="Trazado 718080" d="M167.67,170.86a18.622,18.622,0,0,1,6.965-4.558,23.624,23.624,0,0,1,8.3-1.563,24.662,24.662,0,0,1,8.327,1.342,20.6,20.6,0,0,1,7.214,4.136,43.342,43.342,0,0,0-7.691-2.414,37.37,37.37,0,0,0-7.822-.775,34.045,34.045,0,0,0-7.781.968,34.518,34.518,0,0,0-7.5,2.863Z" transform="translate(-167.67 -164.738)" fill="#3b223e"/>
        <path id="Trazado_718081" data-name="Trazado 718081" d="M213.552,169.176a7.567,7.567,0,0,0-1.736,2.248,7.46,7.46,0,0,0-.733,2.739,3.7,3.7,0,0,1,2.462-4.994Z" transform="translate(-180.962 -166.105)" fill="#3b223e"/>
      </g>
      <g id="Grupo_1013385" data-name="Grupo 1013385" transform="translate(124.728 122.608)" opacity="0.16">
        <path id="Trazado_718082" data-name="Trazado 718082" d="M179.9,176.83a9.237,9.237,0,0,0,3.347,1.217,9.375,9.375,0,0,0,3.555-.145,5.459,5.459,0,0,1-6.9-1.072Z" transform="translate(-179.9 -176.83)" fill="#3b223e"/>
      </g>
      <path id="Trazado_718083" data-name="Trazado 718083" d="M204.21,130.647a15.034,15.034,0,0,0,2.379,5.651,5.915,5.915,0,0,0,3.769,2.317,3.157,3.157,0,0,0,.954-.007,4.58,4.58,0,0,0,1.031-.256,7.685,7.685,0,0,0,2.151-1.252,33.4,33.4,0,0,0,4.184-4.772,11.24,11.24,0,0,1-.076,3.569,9.793,9.793,0,0,1-1.363,3.52,8.6,8.6,0,0,1-2.995,2.829,7.781,7.781,0,0,1-2.1.8,7.339,7.339,0,0,1-2.338.111,7.984,7.984,0,0,1-6.432-5.249,8.37,8.37,0,0,1,.823-7.262Z" transform="translate(-62.267 -39.978)" fill="#3b223e"/>
      <g id="Grupo_1013386" data-name="Grupo 1013386" transform="translate(139.232 100.636)" opacity="0.19">
        <path id="Trazado_718084" data-name="Trazado 718084" d="M200.87,145.06a9.348,9.348,0,0,0,2.573,2.462,9.458,9.458,0,0,0,3.313,1.3,5.457,5.457,0,0,1-5.886-3.762Z" transform="translate(-200.87 -145.06)" fill="#3b223e"/>
      </g>
      <path id="Trazado_718085" data-name="Trazado 718085" d="M164.388,129.31a9.094,9.094,0,0,1,1.2,6.66,7.959,7.959,0,0,1-1.646,3.472,6.662,6.662,0,0,1-3.617,2.289,5.8,5.8,0,0,1-2.365.014,6.451,6.451,0,0,1-2.047-.844,7.753,7.753,0,0,1-2.621-2.863,10.949,10.949,0,0,1-1.065-6.64,47.877,47.877,0,0,0,3.749,4.71,6.671,6.671,0,0,0,1.888,1.321,2.946,2.946,0,0,0,.844.235,1.759,1.759,0,0,0,.712-.035,3.627,3.627,0,0,0,1.6-.885,7.065,7.065,0,0,0,1.452-1.84,21.815,21.815,0,0,0,1.909-5.588Z" transform="translate(-46.604 -39.567)" fill="#3b223e"/>
      <g id="Grupo_1013387" data-name="Grupo 1013387" transform="translate(115.481 99.632)" opacity="0.19">
        <path id="Trazado_718086" data-name="Trazado 718086" d="M171.392,143.609a4.973,4.973,0,0,1-1.694,2.884,4.136,4.136,0,0,1-3.168,1.044,6.87,6.87,0,0,0,2.829-1.439,9.82,9.82,0,0,0,2.033-2.483Z" transform="translate(-166.53 -143.609)" fill="#3b223e"/>
      </g>
      <path id="Trazado_718087" data-name="Trazado 718087" d="M217.569,161.452c4.736-.071,8.538-2.623,8.493-5.7s-3.922-5.517-8.659-5.447-8.538,2.623-8.493,5.7S212.833,161.523,217.569,161.452Z" transform="translate(-64.118 -46.041)" fill="#ffa031" opacity="0.18"/>
      <g id="Grupo_1013388" data-name="Grupo 1013388" transform="translate(96.749 45.36)" opacity="0.18">
        <path id="Trazado_718088" data-name="Trazado 718088" d="M186.777,72.416a32.452,32.452,0,0,1-5.962,13.9c-2.13,2.85-5.09,5.506-8.652,5.609-3.251.1-6.529-3.043-5.927-6.059a19.767,19.767,0,0,1-7.138,9.455,19.311,19.311,0,0,1-10.4,3.742,13.945,13.945,0,0,1-3.714-.284,9,9,0,0,1-3.237-1.335,7.237,7.237,0,0,1-2.3-2.545c-.014-1.017.021-2.1.111-3.292a41.689,41.689,0,0,1,7.034-19.954,25.569,25.569,0,0,1,7.158-6.515l33.032,7.276Z" transform="translate(-139.446 -65.14)" fill="#3b223e"/>
      </g>
      <g id="Grupo_1013389" data-name="Grupo 1013389" transform="translate(140.178 57.159)" opacity="0.18">
        <path id="Trazado_718089" data-name="Trazado 718089" d="M261.152,116.864a5.282,5.282,0,0,1-4.807-1.95c.941,3.576-2.85,6.985-6.543,7.117a11.6,11.6,0,0,1-4.738-.92,32.157,32.157,0,0,1-5.132-2.753c-.111-.083-.228-.152-.339-.221a3.111,3.111,0,0,1,.325.726,4.919,4.919,0,0,1-.159,3.465,6.31,6.31,0,0,1-3.119,3.361,5.233,5.233,0,0,1-.712.277,10.677,10.677,0,0,1-8.064-1.044,17.6,17.6,0,0,1-9.026-11.868c-2.386,1.9-6.2.277-7.649-2.414a2.363,2.363,0,0,1-.18-.38c-1.12-2.345-1.065-5.063-.858-7.691.028-.3.048-.595.076-.892a2.52,2.52,0,0,1-.685.83,4.27,4.27,0,0,1-5.45-.609,4.6,4.6,0,0,1-.574-.74,10.409,10.409,0,0,1-1.273-6.017A33.211,33.211,0,0,1,205.262,82.2L236.4,86.322c1.286,4.461,1.971,9.7,2.808,16.06a92.06,92.06,0,0,1,.74,9.724,16.645,16.645,0,0,1,5.45-4.924c3.679-1.992,8.583-2.061,11.771.629a11.928,11.928,0,0,1,3.6,6.536A17.434,17.434,0,0,1,261.152,116.864Z" transform="translate(-202.238 -82.2)" fill="#3b223e"/>
      </g>
      <path id="Trazado_718090" data-name="Trazado 718090" d="M179.283,66.9a32.332,32.332,0,0,1-5.962,13.9c-2.13,2.85-5.1,5.505-8.652,5.609s-7.145-3.679-5.651-6.909A20.014,20.014,0,0,1,141.2,93.544a11.46,11.46,0,0,1-6.958-1.618,6.373,6.373,0,0,1-2.919-6.211c-1.418,3.4-3.382,6.792-6.577,8.625s-7.871,1.48-9.9-1.591c-2.172-3.278-.519-7.636,1.169-11.191-4.364-2.393-6.411-8.023-5.263-12.871s5.063-8.763,9.676-10.644a25.141,25.141,0,0,1,14.69-.878" transform="translate(-33.751 -17.109)"/>
      <path id="Trazado_718091" data-name="Trazado 718091" d="M207.355,78.08a33.227,33.227,0,0,0-3.029,12.94c-.069,2.393.214,5,1.854,6.751s5.028,1.9,6.135-.221c-.263,3.043-.491,6.28.961,8.964s5.263,4.309,7.656,2.414a17.565,17.565,0,0,0,9.019,11.861c2.7,1.39,6.01,2.033,8.777.761s4.482-4.911,2.953-7.539c3.126,1.978,6.508,4.025,10.208,3.9s7.49-3.534,6.55-7.11c1.771,2.428,5.685,2.566,8.03.692a8.519,8.519,0,0,0,2.621-8.168,16.578,16.578,0,0,0-4.281-7.8c-4.572-5.111-10.623-8.618-16.571-12.035" transform="translate(-62.701 -23.77)"/>
      <g id="Grupo_1013391" data-name="Grupo 1013391" transform="translate(149.274 51.861)" opacity="0.12">
        <g id="Grupo_1013390" data-name="Grupo 1013390">
          <path id="Trazado_718092" data-name="Trazado 718092" d="M234.9,77.54a40.546,40.546,0,0,1,2.089,7.76,43.528,43.528,0,0,1,.553,7.746A67.518,67.518,0,0,1,237,100.5c-.3,2.435-.678,4.834-1.058,7.234a100.152,100.152,0,0,0-2.926-14.054,37.26,37.26,0,0,0-2.559-6.287,33.079,33.079,0,0,0-3.576-5.45Z" transform="translate(-218.933 -75.465)" fill="#3b223e"/>
          <path id="Trazado_718093" data-name="Trazado 718093" d="M237.276,75.45a44.854,44.854,0,0,1,6.709,7.483,61.5,61.5,0,0,1,4.938,8.265,147.246,147.246,0,0,1,6.923,17.221,144.813,144.813,0,0,0-10.734-14.69,44.35,44.35,0,0,0-13.093-10.8l5.263-7.483Z" transform="translate(-220.518 -74.821)" fill="#3b223e"/>
          <path id="Trazado_718094" data-name="Trazado 718094" d="M242.7,74.54a69.209,69.209,0,0,1,23.239,25.072,64.69,64.69,0,0,0-27.188-16.82l3.956-8.251Z" transform="translate(-222.594 -74.54)" fill="#3b223e"/>
          <path id="Trazado_718095" data-name="Trazado 718095" d="M232.98,80.449q-4.326,8.362-9.15,16.281.446-9.254.249-18.391l8.9,2.1Z" transform="translate(-217.993 -75.712)" fill="#3b223e"/>
          <path id="Trazado_718096" data-name="Trazado 718096" d="M226.712,84.258a21.746,21.746,0,0,0-11.322,8.03,26.336,26.336,0,0,1,5.851-15.368l5.471,7.331Z" transform="translate(-215.39 -75.274)" fill="#3b223e"/>
        </g>
      </g>
      <g id="Grupo_1013393" data-name="Grupo 1013393" transform="translate(86.772 39.62)" opacity="0.13">
        <g id="Grupo_1013392" data-name="Grupo 1013392">
          <path id="Trazado_718097" data-name="Trazado 718097" d="M172.425,68.825a31.443,31.443,0,0,0-21.185,13.6A36.052,36.052,0,0,1,169.43,60.18Z" transform="translate(-133.105 -57.87)" fill="#3b223e"/>
          <path id="Trazado_718098" data-name="Trazado 718098" d="M183.174,68.417a84.427,84.427,0,0,0-15.8,20.721,88.915,88.915,0,0,1,8.4-26.088l7.407,5.374Z" transform="translate(-138.08 -58.755)" fill="#3b223e"/>
          <path id="Trazado_718099" data-name="Trazado 718099" d="M157.8,69.7a46.039,46.039,0,0,0-7.891-.29,46.949,46.949,0,0,0-8.023,1.079,50.862,50.862,0,0,0-7.919,2.483c-2.621,1.037-5.208,2.255-7.795,3.465,2.179-1.854,4.35-3.714,6.667-5.457a54.067,54.067,0,0,1,7.435-4.772,53.107,53.107,0,0,1,8.32-3.534,54.011,54.011,0,0,1,8.991-2.116l.207,9.143Z" transform="translate(-125.375 -57.987)" fill="#3b223e"/>
          <path id="Trazado_718100" data-name="Trazado 718100" d="M153.8,65.872a66.97,66.97,0,0,1-7.836-.36c-1.286-.131-2.587-.311-3.825-.519s-2.345-.408-3.4-.5a11.35,11.35,0,0,0-3.188.145,31.647,31.647,0,0,0-3.437.865l-7.089,2.089,6.114-4.157a35.985,35.985,0,0,1,3.265-2.026,15.676,15.676,0,0,1,3.915-1.466c1.363-.318,2.684-.484,3.894-.664,1.19-.173,2.324-.38,3.472-.622a58.071,58.071,0,0,0,6.688-1.819l1.439,9.033Z" transform="translate(-125.02 -56.84)" fill="#3b223e"/>
          <path id="Trazado_718101" data-name="Trazado 718101" d="M186.131,62.237a26.237,26.237,0,0,1,2.241,21.06,21.6,21.6,0,0,0-9.192-15.112l6.944-5.955Z" transform="translate(-141.721 -58.502)" fill="#3b223e"/>
        </g>
      </g>
      <g id="Grupo_1013394" data-name="Grupo 1013394" transform="translate(90.144 21.266)" opacity="0.18">
        <path id="Trazado_718102" data-name="Trazado 718102" d="M174.931,66.065c-13.584-2.594-19.483,5.153-29.346,3.147-6.771-1.376-13.846-6.951-15.347-14.3-1.466-7.207,1.9-15.05,8.016-19.359,4.558-3.209,10.257-4.489,15.859-5.035a24.771,24.771,0,0,1,8.721.36c4.157,1.093,7.573,3.9,11.35,5.92,11.211,6.01,24.912,4.876,37.3,8.016,9.946,2.518,19.559,8.417,23.681,17.567s.913,21.607-8.431,25.763c-4.751,2.116-10.34,1.9-15.327.36a43.384,43.384,0,0,1-13.791-7.151c-7.836-5.92-8.977-10.409-16.8-13.591a29.785,29.785,0,0,0-5.886-1.688Z" transform="translate(-129.896 -30.302)" fill="#3b223e"/>
      </g>
      <path id="Trazado_718103" data-name="Trazado 718103" d="M176.651,59.045c-13.584-2.594-19.483,5.153-29.346,3.147-6.771-1.376-13.846-6.951-15.347-14.3-1.466-7.207,1.9-15.05,8.016-19.359,4.558-3.209,10.257-4.489,15.859-5.035a24.771,24.771,0,0,1,8.721.36c4.157,1.093,7.573,3.9,11.35,5.92,11.211,6.01,24.912,4.876,37.3,8.016,9.946,2.518,19.559,8.417,23.681,17.567s.913,21.607-8.431,25.763c-4.751,2.116-10.34,1.9-15.326.36a43.381,43.381,0,0,1-13.791-7.152c-7.836-5.92-8.977-10.409-16.8-13.591a29.785,29.785,0,0,0-5.886-1.688Z" transform="translate(-40.282 -6.872)" fill="#4db1f0"/>
      <path id="Trazado_718104" data-name="Trazado 718104" d="M223.994,45.181c.674-4.684-6.288-9.563-15.551-10.9s-17.319,1.384-17.993,6.068,6.288,9.563,15.551,10.9S223.32,49.865,223.994,45.181Z" transform="translate(-58.411 -10.16)" fill="#2b002b" opacity="0.05"/>
      <g id="Grupo_1013395" data-name="Grupo 1013395" transform="translate(92.381 41.598)" opacity="0.05">
        <path id="Trazado_718105" data-name="Trazado 718105" d="M229.488,92.352c-4.765,2.109-10.347,1.888-15.333.36a43.316,43.316,0,0,1-13.791-7.152c-7.843-5.927-8.984-10.409-16.8-13.591a29.3,29.3,0,0,0-5.886-1.688c-13.577-2.587-19.483,5.153-29.346,3.147-6.584-1.335-13.48-6.667-15.2-13.729a21.386,21.386,0,0,0,11.329,6.591c9.863,2.013,15.769-5.734,29.346-3.147a30.014,30.014,0,0,1,5.886,1.688c7.822,3.181,8.964,7.663,16.8,13.59a43.461,43.461,0,0,0,13.791,7.151c4.987,1.528,10.575,1.757,15.333-.36,8.645-3.852,12.034-14.815,9.219-23.7a24.092,24.092,0,0,1,3.078,5.063c4.115,9.15.9,21.607-8.431,25.763Z" transform="translate(-133.13 -59.7)" fill="#2b002b"/>
      </g>
      <g id="Grupo_1013396" data-name="Grupo 1013396" transform="translate(97.388 22.908)" opacity="0.13">
        <path id="Trazado_718106" data-name="Trazado 718106" d="M227.287,49.4a5.728,5.728,0,0,1,4.032.906,15.889,15.889,0,0,1,3.181,2.677,27.579,27.579,0,0,1,2.642,3.14,10.153,10.153,0,0,1,1.715,3.749,20.587,20.587,0,0,0-2.4-3.216c-.885-.989-1.826-1.937-2.767-2.912a26.5,26.5,0,0,0-2.863-2.725A7.465,7.465,0,0,0,227.28,49.4Z" transform="translate(-167.171 -37.808)" fill="#3b223e"/>
        <path id="Trazado_718107" data-name="Trazado 718107" d="M232.457,45.9a14.171,14.171,0,0,1,3.507-.138,15.336,15.336,0,0,1,3.472.671,11.762,11.762,0,0,1,3.2,1.577,8.036,8.036,0,0,1,2.414,2.58,18.58,18.58,0,0,0-2.863-1.84,19.978,19.978,0,0,0-3.092-1.259c-1.058-.353-2.151-.616-3.258-.871L232.45,45.9Z" transform="translate(-168.765 -36.696)" fill="#3b223e"/>
        <path id="Trazado_718108" data-name="Trazado 718108" d="M215.5,47.8a10.776,10.776,0,0,1,.961,2.78,14.867,14.867,0,0,1,.325,2.926,15.414,15.414,0,0,1-.256,2.933,10.859,10.859,0,0,1-.9,2.8c-.014-.989.021-1.943.041-2.891s.028-1.888.007-2.829c0-.941-.042-1.881-.076-2.829s-.1-1.9-.111-2.891Z" transform="translate(-163.535 -37.341)" fill="#3b223e"/>
        <path id="Trazado_718109" data-name="Trazado 718109" d="M207.509,49.837a15.493,15.493,0,0,1-.456,1.9c-.173.609-.367,1.2-.567,1.791s-.408,1.176-.643,1.764a15.889,15.889,0,0,1-.788,1.777,6.39,6.39,0,0,1-.048-1.985,9.041,9.041,0,0,1,.429-1.916,9.279,9.279,0,0,1,.823-1.784A6.489,6.489,0,0,1,207.5,49.83Z" transform="translate(-160.285 -37.967)" fill="#3b223e"/>
        <path id="Trazado_718110" data-name="Trazado 718110" d="M194.735,40.474c-1.307-.2-2.573-.45-3.845-.692s-2.531-.484-3.8-.705-2.531-.443-3.8-.671-2.552-.429-3.839-.7a21.4,21.4,0,0,1,3.935-.159,29.029,29.029,0,0,1,7.725,1.4,21.374,21.374,0,0,1,3.631,1.528Z" transform="translate(-152.421 -34.172)" fill="#3b223e"/>
        <path id="Trazado_718111" data-name="Trazado 718111" d="M195.719,44.572c-.92.173-1.8.325-2.663.512s-1.708.408-2.538.678-1.653.567-2.469.9-1.618.726-2.469,1.114a7.949,7.949,0,0,1,2.061-1.874,10.4,10.4,0,0,1,2.538-1.2,10.743,10.743,0,0,1,2.767-.477,7.968,7.968,0,0,1,2.767.346Z" transform="translate(-154.311 -36.236)" fill="#3b223e"/>
        <path id="Trazado_718112" data-name="Trazado 718112" d="M192.255,35.708c-.975-.166-1.916-.4-2.843-.65s-1.847-.519-2.76-.782c-.906-.284-1.805-.533-2.711-.733a12.176,12.176,0,0,0-2.822-.277,5.6,5.6,0,0,1,2.926-.581,12.139,12.139,0,0,1,2.926.533,22.924,22.924,0,0,1,2.739,1.031,14.638,14.638,0,0,1,2.552,1.459Z" transform="translate(-152.936 -32.677)" fill="#3b223e"/>
        <path id="Trazado_718113" data-name="Trazado 718113" d="M140.384,61.31a40.656,40.656,0,0,0,12.8,2.3c4.35.207,8.715.041,13.093.118,2.192.09,4.378.18,6.57.3a47.082,47.082,0,0,1,6.557.885,52.988,52.988,0,0,1,6.294,2.006,37.344,37.344,0,0,1,6.142,2.511c1.95,1.107,3.686,2.462,5.471,3.686,1.777,1.245,3.61,2.414,5.478,3.52A70.606,70.606,0,0,0,214.526,82.2a48.732,48.732,0,0,0,12.664,2.808,20.433,20.433,0,0,0,6.46-.249,9.51,9.51,0,0,0,2.995-1.183,6.079,6.079,0,0,0,2.206-2.338,6.256,6.256,0,0,1-2.109,2.483,9.849,9.849,0,0,1-3.022,1.328,20.561,20.561,0,0,1-6.564.5,48.987,48.987,0,0,1-12.906-2.545,64.39,64.39,0,0,1-11.965-5.505q-2.853-1.65-5.575-3.513c-1.826-1.231-3.555-2.552-5.415-3.6a35.823,35.823,0,0,0-5.955-2.476,52.092,52.092,0,0,0-6.162-2.02,44.864,44.864,0,0,0-6.411-.913l-6.515-.4c-4.35-.18-8.728-.1-13.106-.422a38.867,38.867,0,0,1-12.774-2.843Z" transform="translate(-140.37 -41.507)" fill="#3b223e"/>
        <path id="Trazado_718114" data-name="Trazado 718114" d="M265.177,91.629a6.385,6.385,0,0,1,.332,1.819,6.692,6.692,0,0,1-.152,1.847,5.165,5.165,0,0,1-.726,1.75A3.352,3.352,0,0,1,263.22,98.3a17.214,17.214,0,0,0,.636-1.639c.166-.533.3-1.065.422-1.611s.235-1.107.373-1.674a9.414,9.414,0,0,1,.533-1.736Z" transform="translate(-178.253 -50.856)" fill="#3b223e"/>
        <path id="Trazado_718115" data-name="Trazado 718115" d="M255.809,91.317a4.849,4.849,0,0,1,.422,1.805,6.84,6.84,0,0,1-.131,1.84,6.543,6.543,0,0,1-.616,1.743,4.936,4.936,0,0,1-1.114,1.487,16.714,16.714,0,0,1,.3-1.778l.346-1.681.36-1.681c.124-.567.242-1.141.436-1.743Z" transform="translate(-175.524 -50.758)" fill="#3b223e"/>
        <path id="Trazado_718116" data-name="Trazado 718116" d="M156.639,60.919c-.118.526-.263.975-.394,1.418l-.373,1.314-.346,1.314c-.111.45-.221.913-.38,1.425a3.18,3.18,0,0,1-.484-1.48,4.191,4.191,0,0,1,.138-1.549,4.245,4.245,0,0,1,.671-1.4,3.174,3.174,0,0,1,1.169-1.031Z" transform="translate(-144.77 -41.386)" fill="#3b223e"/>
        <path id="Trazado_718117" data-name="Trazado 718117" d="M164.6,60.18a5.671,5.671,0,0,1,.3,1.508,8.812,8.812,0,0,1,0,1.48c-.042.477-.1.92-.118,1.356a2.643,2.643,0,0,0,.249,1.335,1.644,1.644,0,0,1-1.107-1.2,4.041,4.041,0,0,1-.131-1.584,8.152,8.152,0,0,1,.249-1.459,5.615,5.615,0,0,1,.553-1.432Z" transform="translate(-147.588 -41.158)" fill="#3b223e"/>
      </g>
      <path id="Trazado_718118" data-name="Trazado 718118" d="M225.407,39.927c.674-4.684-6.288-9.563-15.551-10.9s-17.319,1.384-17.993,6.068,6.288,9.563,15.551,10.9S224.733,44.612,225.407,39.927Z" transform="translate(-58.847 -8.54)" fill="#fffcff"/>
      <path id="Trazado_718119" data-name="Trazado 718119" d="M225.861,42.493c-.726,4.668-8.818,7.359-18.086,6.01-7.255-1.072-13.079-4.3-14.9-7.912,2.753,2.469,7.38,4.489,12.823,5.291,9.261,1.363,17.36-1.335,18.072-6.01a4.894,4.894,0,0,0-.56-3.022c1.943,1.736,2.946,3.707,2.649,5.644Z" transform="translate(-59.171 -11.056)" fill="#2b002b" opacity="0.05"/>
      <g id="Grupo_1013397" data-name="Grupo 1013397" transform="translate(135.442 26.811)" opacity="0.16">
        <path id="Trazado_718120" data-name="Trazado 718120" d="M195.39,38.327a11.535,11.535,0,0,0,5.948,3.548,63.654,63.654,0,0,0,6.909,1.584,68.531,68.531,0,0,0,7.062.83c2.379.159,4.779.166,7.248.194a24.885,24.885,0,0,1-7.241,1.535,30.169,30.169,0,0,1-7.442-.373,29.629,29.629,0,0,1-7.151-2.165,13.161,13.161,0,0,1-3.23-2.033,6.93,6.93,0,0,1-2.1-3.126Z" transform="translate(-195.39 -38.32)" fill="#3b223e"/>
      </g>
      <g id="Grupo_1013398" data-name="Grupo 1013398" transform="translate(96.778 19.01)" opacity="0.2">
        <path id="Trazado_718121" data-name="Trazado 718121" d="M152.658,28.311a16.178,16.178,0,0,0-13.03,11.211c-1.065,3.41,4.281,4.869,5.346,1.473a10.829,10.829,0,0,1,9.157-7.338c1.494-.214,2.282-2.1,1.937-3.41A2.845,2.845,0,0,0,152.658,28.311Z" transform="translate(-139.488 -27.419)" fill="#fffcff"/>
        <path id="Trazado_718122" data-name="Trazado 718122" d="M169.377,32.58c3.569,0,3.569-5.54,0-5.54S165.808,32.58,169.377,32.58Z" transform="translate(-147.88 -27.04)" fill="#fffcff"/>
      </g>
      <g id="Grupo_1013400" data-name="Grupo 1013400" transform="translate(128.798 75.467)" opacity="0.2">
        <path id="Trazado_718123" data-name="Trazado 718123" d="M188.3,112.827a1.287,1.287,0,0,1-.124.622,1.334,1.334,0,0,1-1.238.809c-.622-.083-.941-.816-1-.948a1.553,1.553,0,0,1-.055-.166,3.776,3.776,0,0,1,.228-2.144,8.391,8.391,0,0,1,1.1-2.331,12.6,12.6,0,0,1,.878,2.552A6.717,6.717,0,0,1,188.3,112.827Z" transform="translate(-185.789 -108.67)" fill="#fff6ff"/>
        <g id="Grupo_1013399" data-name="Grupo 1013399" transform="translate(0 3.278)" opacity="0.09">
          <path id="Trazado_718124" data-name="Trazado 718124" d="M188.161,114.911a1.334,1.334,0,0,1-1.238.809c-.622-.083-.941-.816-1-.948a2.071,2.071,0,0,1-.125-1.044,1.554,1.554,0,0,0,.055.166c.055.131.373.865,1,.948a1.334,1.334,0,0,0,1.238-.809,1.313,1.313,0,0,0,.125-.622A2.484,2.484,0,0,1,188.161,114.911Z" transform="translate(-185.784 -113.41)" fill="#2b002b"/>
        </g>
      </g>
      <g id="Grupo_1013402" data-name="Grupo 1013402" transform="translate(119.337 83.262)" opacity="0.33">
        <path id="Trazado_718125" data-name="Trazado 718125" d="M174.607,124.1a1.287,1.287,0,0,1-.125.622,1.334,1.334,0,0,1-1.238.809c-.622-.083-.941-.816-1-.948a1.558,1.558,0,0,1-.055-.166,3.776,3.776,0,0,1,.228-2.144,8.392,8.392,0,0,1,1.1-2.331,12.6,12.6,0,0,1,.878,2.552A6.719,6.719,0,0,1,174.607,124.1Z" transform="translate(-172.106 -119.94)" fill="#fff6ff"/>
        <g id="Grupo_1013401" data-name="Grupo 1013401" transform="translate(0 3.278)" opacity="0.09">
          <path id="Trazado_718126" data-name="Trazado 718126" d="M174.481,126.181a1.334,1.334,0,0,1-1.238.809c-.622-.083-.941-.816-1-.948a2.071,2.071,0,0,1-.124-1.044,1.55,1.55,0,0,0,.055.166c.055.131.373.865,1,.948a1.334,1.334,0,0,0,1.238-.809,1.313,1.313,0,0,0,.124-.622A2.484,2.484,0,0,1,174.481,126.181Z" transform="translate(-172.104 -124.68)" fill="#2b002b"/>
        </g>
      </g>
      <g id="Grupo_1013404" data-name="Grupo 1013404" transform="translate(161.07 96.334)" opacity="0.28">
        <path id="Trazado_718127" data-name="Trazado 718127" d="M234.946,143a1.287,1.287,0,0,1-.124.622,1.334,1.334,0,0,1-1.238.809c-.622-.083-.941-.816-1-.948a1.551,1.551,0,0,1-.055-.166,3.776,3.776,0,0,1,.228-2.144,8.392,8.392,0,0,1,1.1-2.331,12.594,12.594,0,0,1,.878,2.552A6.718,6.718,0,0,1,234.946,143Z" transform="translate(-232.446 -138.84)" fill="#fff6ff"/>
        <g id="Grupo_1013403" data-name="Grupo 1013403" transform="translate(0 3.278)" opacity="0.09">
          <path id="Trazado_718128" data-name="Trazado 718128" d="M234.821,145.081a1.334,1.334,0,0,1-1.238.809c-.622-.083-.941-.816-1-.948a2.071,2.071,0,0,1-.124-1.044,1.558,1.558,0,0,0,.055.166c.055.131.373.865,1,.948a1.334,1.334,0,0,0,1.238-.809,1.313,1.313,0,0,0,.124-.622A2.484,2.484,0,0,1,234.821,145.081Z" transform="translate(-232.444 -143.58)" fill="#2b002b"/>
        </g>
      </g>
      <g id="Grupo_1013405" data-name="Grupo 1013405" transform="translate(123.976 102.745)" opacity="0.39">
        <path id="Trazado_718129" data-name="Trazado 718129" d="M179.5,149.542a.716.716,0,0,0,0-1.432A.716.716,0,0,0,179.5,149.542Z" transform="translate(-178.812 -148.11)" fill="#fff6ff"/>
        <path id="Trazado_718130" data-name="Trazado 718130" d="M228.922,155.072a.716.716,0,0,0,0-1.432A.716.716,0,0,0,228.922,155.072Z" transform="translate(-194.052 -149.815)" fill="#fff6ff"/>
        <path id="Trazado_718131" data-name="Trazado 718131" d="M231.642,158.542a.716.716,0,0,0,0-1.432A.716.716,0,0,0,231.642,158.542Z" transform="translate(-194.891 -150.885)" fill="#fff6ff"/>
      </g>
      <path id="Trazado_718132" data-name="Trazado 718132" d="M187.794,227.5c6.031,5.851,14.531,5.139,20.4-.692,3.05-3.022-1.183-8.327-4.205-5.319-3.922,3.894-9.247,3.32-13.03-.353C187.912,218.18,184.779,224.584,187.794,227.5Z" transform="translate(-57.229 -67.65)" fill="#b0d3e9"/>
      <g id="Grupo_1013407" data-name="Grupo 1013407" transform="translate(128.905 151.967)" opacity="0.19">
        <g id="Grupo_1013406" data-name="Grupo 1013406">
          <path id="Trazado_718133" data-name="Trazado 718133" d="M195.95,220.468a14.057,14.057,0,0,0-4.35,10.326.716.716,0,0,0,1.432,0,12.589,12.589,0,0,1,3.935-9.316c.664-.643-.346-1.653-1.01-1.01Z" transform="translate(-187.684 -219.581)" fill="#3b223e"/>
          <path id="Trazado_718134" data-name="Trazado 718134" d="M200.556,224.16c.546,3.693,1.01,7.477-.858,10.893-.443.809.8,1.529,1.231.719,2.068-3.776,1.611-7.891,1-11.993C201.8,222.874,200.417,223.261,200.556,224.16Z" transform="translate(-190.152 -220.507)" fill="#3b223e"/>
          <path id="Trazado_718135" data-name="Trazado 718135" d="M205.918,222.342a12.239,12.239,0,0,1,2.49,10.8c-.214.892,1.162,1.273,1.376.38a13.765,13.765,0,0,0-2.863-12.187c-.588-.705-1.6.3-1.01,1.01Z" transform="translate(-192.042 -219.837)" fill="#3b223e"/>
          <path id="Trazado_718136" data-name="Trazado 718136" d="M210.054,222.55c3.4.207,4.9,3.569,5.049,6.57.041.913,1.473.92,1.432,0-.18-3.845-2.241-7.739-6.481-8C209.134,221.063,209.141,222.495,210.054,222.55Z" transform="translate(-193.163 -219.845)" fill="#3b223e"/>
          <path id="Trazado_718137" data-name="Trazado 718137" d="M191.237,219.369c-3.361,1.777-4.613,5.339-5.284,8.867-.173.9,1.2,1.286,1.376.38.6-3.161,1.591-6.411,4.627-8.016C192.773,220.171,192.047,218.933,191.237,219.369Z" transform="translate(-185.938 -219.278)" fill="#3b223e"/>
        </g>
      </g>
      <path id="Trazado_718138" data-name="Trazado 718138" d="M196.335,325.789c-.539,6.826-1.017,12.878,1.743,19.1a13.4,13.4,0,0,0,3.548,5.263c2.172,1.854,5.07,2.559,7.864,3.126,4.758.954,9.655,1.646,14.448.913s9.524-3.064,12.235-7.089c2.974-4.413,3.119-10.084,3.161-15.4q.062-7.656.124-15.306a1.539,1.539,0,0,0-.124-.754,1.5,1.5,0,0,0-1.2-.553l-35.321-4.254a3.2,3.2,0,0,0-1.978.18,2.581,2.581,0,0,0-1.044,1.224,34.036,34.036,0,0,0-2.663,7.912,54.545,54.545,0,0,0-.782,5.651Z" transform="translate(-60.112 -95.521)" fill="#3d8dc0"/>
      <g id="Grupo_1013409" data-name="Grupo 1013409" transform="translate(142.363 208.785)" opacity="0.24">
        <g id="Grupo_1013408" data-name="Grupo 1013408">
          <path id="Trazado_718139" data-name="Trazado 718139" d="M208.968,307.173q-2.728,21.9-3.569,43.96c-.1,2.815,4.267,2.808,4.371,0q.84-22.046,3.569-43.96C213.685,304.385,209.307,304.413,208.968,307.173Z" transform="translate(-205.397 -302.559)" fill="#fffcff"/>
          <path id="Trazado_718140" data-name="Trazado 718140" d="M226.351,306.968c.768,7.456.353,14.981.194,22.457q-.249,11.754-.5,23.508c-.062,2.815,4.316,2.815,4.371,0q.249-11.754.5-23.508c.159-7.477.574-15-.194-22.457C230.438,304.194,226.06,304.167,226.351,306.968Z" transform="translate(-211.763 -302.493)" fill="#fffcff"/>
          <path id="Trazado_718141" data-name="Trazado 718141" d="M241.232,304.176a183.262,183.262,0,0,1,.892,52.114c-.346,2.787,4.032,2.76,4.371,0a187.1,187.1,0,0,0-1.051-53.276c-.45-2.773-4.669-1.6-4.219,1.162Z" transform="translate(-216.435 -301.43)" fill="#fffcff"/>
        </g>
      </g>
      <g id="Grupo_1013410" data-name="Grupo 1013410" transform="translate(135.809 215.239)" opacity="0.14">
        <path id="Trazado_718142" data-name="Trazado 718142" d="M196.335,325.789c-.539,6.826-1.017,12.878,1.743,19.1a13.4,13.4,0,0,0,3.548,5.263c2.172,1.854,5.07,2.559,7.864,3.126,4.758.954,9.655,1.646,14.448.913s9.524-3.064,12.235-7.089c2.974-4.413,3.119-10.084,3.161-15.4q.062-7.656.124-15.306a1.539,1.539,0,0,0-.124-.754,1.5,1.5,0,0,0-1.2-.553l-35.321-4.254a3.2,3.2,0,0,0-1.978.18,2.581,2.581,0,0,0-1.044,1.224,34.036,34.036,0,0,0-2.663,7.912,54.545,54.545,0,0,0-.782,5.651Z" transform="translate(-195.921 -310.761)" fill="#3b223e"/>
      </g>
      <path id="Trazado_718143" data-name="Trazado 718143" d="M225.142,252.46c-3.569,2.227-3.306,13.563-2.642,36.145a25.871,25.871,0,0,0,.858,6.225,28.375,28.375,0,0,0,8.915,13.784c9.123,7.809,23.827,10.043,27.063,5.505,1.563-2.192,1.84-7.912,1.95-10.312.041-.816.041-1.452.048-1.84.028-7.836.069-19.538-4.468-31.926-1.535-4.184-2.76-6.176-4.2-7.843-1.522-1.764-3.8-3.769-8.438-5.879-7.553-3.43-14.621-6.64-19.082-3.852Z" transform="translate(-68.184 -77.219)" fill="#12263f"/>
      <path id="Trazado_718144" data-name="Trazado 718144" d="M230.24,237.078a25.178,25.178,0,0,1,10.291-16.8,1.62,1.62,0,0,1,1.12-.408c.954.152.885,1.542.553,2.448-.567,1.563-1.134,3.119-1.7,4.682a3.23,3.23,0,0,0,3.188-.166,9.727,9.727,0,0,0,2.421-2.282q2.573-3.04,5.284-5.955a2.16,2.16,0,0,1,1.674-.941c1.2.131,1.293,1.867.92,3.022a20.135,20.135,0,0,1-3.424,6.4q1.629-2.614,3.251-5.229c.394-.636,1.031-1.363,1.736-1.127a1.451,1.451,0,0,1,.775,1.342c.187,2.414-1.515,4.523-3.112,6.342.892-1.2,1.784-2.4,2.677-3.6.221-.3.5-.636.878-.643.712-.021.892.989.754,1.688a10.812,10.812,0,0,1-3.569,6.079,8.389,8.389,0,0,1,1.363-1.674c.657-.629,1.376-1.321,1.847-1.114s.484,1.19.394,1.771a4.045,4.045,0,0,1-.92,1.9c-3,4.212-6.833,8.168-11.8,9.614-2.137.622-4.482.788-6.315,2.04" transform="translate(-70.695 -66.809)" fill="#ff9896"/>
      <g id="Grupo_1013411" data-name="Grupo 1013411" transform="translate(159.365 164.12)" opacity="0.08">
        <path id="Trazado_718145" data-name="Trazado 718145" d="M252.617,243.227a18.943,18.943,0,0,1-8.044,5.083c-2.13.629-4.482.788-6.315,2.047l-8.279-7.373a24.25,24.25,0,0,1,1.722-6.135c1.556,4.62,6.716,8.078,12.933,8.223a15.9,15.9,0,0,0,7.981-1.854Z" transform="translate(-229.98 -236.85)" fill="#2b002b"/>
      </g>
      <g id="Grupo_1013415" data-name="Grupo 1013415" transform="translate(177.825 155.932)" opacity="0.45">
        <g id="Grupo_1013412" data-name="Grupo 1013412" opacity="0.41">
          <path id="Trazado_718146" data-name="Trazado 718146" d="M261.435,225.01a27.257,27.257,0,0,1-1.826,3.721,10.26,10.26,0,0,1-1.314,1.618,8.624,8.624,0,0,1-1.625,1.293,19.027,19.027,0,0,0,1.418-1.48,16.3,16.3,0,0,0,1.217-1.625c.346-.581.678-1.183,1.044-1.757s.7-1.183,1.086-1.757Z" transform="translate(-256.67 -225.01)" fill="#3b223e"/>
        </g>
        <g id="Grupo_1013413" data-name="Grupo 1013413" transform="translate(1.84 1.784)" opacity="0.41">
          <path id="Trazado_718147" data-name="Trazado 718147" d="M264.925,227.6a20.5,20.5,0,0,1-2.206,3.949,9.4,9.4,0,0,1-3.389,2.974,12.742,12.742,0,0,0,1.681-1.48,17.78,17.78,0,0,0,1.418-1.715c.885-1.2,1.646-2.483,2.5-3.735Z" transform="translate(-259.33 -227.59)" fill="#3b223e"/>
        </g>
        <g id="Grupo_1013414" data-name="Grupo 1013414" transform="translate(3.472 7.02)" opacity="0.41">
          <path id="Trazado_718148" data-name="Trazado 718148" d="M265.729,235.167a8.279,8.279,0,0,1-1.674,2.379,8.065,8.065,0,0,1-1.114.948,7.355,7.355,0,0,1-1.252.74c.36-.325.726-.636,1.079-.961s.7-.65,1.031-.989c.678-.671,1.293-1.39,1.93-2.123Z" transform="translate(-261.69 -235.16)" fill="#3b223e"/>
        </g>
      </g>
      <g id="Grupo_1013419" data-name="Grupo 1013419" transform="translate(175.072 162.854)" opacity="0.19">
        <g id="Grupo_1013416" data-name="Grupo 1013416" opacity="0.41">
          <path id="Trazado_718149" data-name="Trazado 718149" d="M252.69,235.248a2.121,2.121,0,0,1,.92-.111,2.561,2.561,0,0,0,.858-.118.9.9,0,0,1-.851.477,2.3,2.3,0,0,1-.927-.256Z" transform="translate(-252.69 -235.02)" fill="#3b223e"/>
        </g>
        <g id="Grupo_1013417" data-name="Grupo 1013417" transform="translate(1.895 2.739)" opacity="0.41">
          <path id="Trazado_718150" data-name="Trazado 718150" d="M255.437,239.409l.74-.207.346-.1c.118-.035.242-.076.387-.118a.771.771,0,0,1-.249.36.96.96,0,0,1-.387.208.941.941,0,0,1-.844-.138Z" transform="translate(-255.43 -238.98)" fill="#3b223e"/>
        </g>
        <g id="Grupo_1013418" data-name="Grupo 1013418" transform="translate(3.79 5.09)" opacity="0.41">
          <path id="Trazado_718151" data-name="Trazado 718151" d="M258.17,242.816a4.513,4.513,0,0,1,.629-.27c.1-.028.2-.069.311-.09a2.423,2.423,0,0,1,.353-.076.811.811,0,0,1-.214.325,1,1,0,0,1-.332.194.865.865,0,0,1-.747-.076Z" transform="translate(-258.17 -242.38)" fill="#3b223e"/>
        </g>
      </g>
      <path id="Trazado_718152" data-name="Trazado 718152" d="M219.591,241.052c1.058-.463,2.995,3.043,6.259,5.969a22.819,22.819,0,0,0,5.747,3.742,1.025,1.025,0,0,1,.256,1.7c-2.614,2.379-3.32,6.584-4.579,10.084a22.862,22.862,0,0,1-9.9,11.875,2.607,2.607,0,0,1-1.771.5,2.816,2.816,0,0,1-1.314-.851A214.645,214.645,0,0,1,198.8,257.443a2.516,2.516,0,0,1-.657-1.162,2.332,2.332,0,0,1,.235-1.21c2.448-6.059,9.579-8.286,9.579-8.286,5.492-2,10.008-1.28,11.045-3.949C219.335,241.985,219.127,241.252,219.591,241.052Z" transform="translate(-60.793 -74.013)" fill="#b0d3e9"/>
      <g id="Grupo_1013420" data-name="Grupo 1013420" transform="translate(137.329 180.602)" opacity="0.07">
        <path id="Trazado_718153" data-name="Trazado 718153" d="M228.814,263.765c-.546,1.591-.989,3.244-1.542,4.772a22.921,22.921,0,0,1-9.9,11.875,2.723,2.723,0,0,1-1.777.5,2.764,2.764,0,0,1-1.314-.851A213.412,213.412,0,0,1,198.8,263.426a2.621,2.621,0,0,1-.664-1.162,2.389,2.389,0,0,1,.235-1.21c.055-.124.1-.256.166-.373,1.923,3.714,8.355,6.55,16.06,6.73,5.92.138,11.163-1.321,14.22-3.659Z" transform="translate(-198.119 -260.68)" fill="#2b002b"/>
      </g>
      <g id="Grupo_1013422" data-name="Grupo 1013422" transform="translate(156.122 167.484)" opacity="0.19">
        <g id="Grupo_1013421" data-name="Grupo 1013421">
          <path id="Trazado_718154" data-name="Trazado 718154" d="M225.387,245.268c3.085,4.731,9.033,9.4,14.462,11a.538.538,0,0,0,.284-1.037,27.637,27.637,0,0,1-13.826-10.5c-.373-.581-1.307-.042-.927.539Z" transform="translate(-225.291 -242.567)" fill="#3b223e"/>
          <path id="Trazado_718155" data-name="Trazado 718155" d="M231.16,249.058l3.382-3.956c.45-.526-.311-1.286-.761-.761L230.4,248.3C229.949,248.823,230.71,249.584,231.16,249.058Z" transform="translate(-226.824 -242.47)" fill="#3b223e"/>
          <path id="Trazado_718156" data-name="Trazado 718156" d="M234.941,252.1c1.031-1.162,2-2.379,2.912-3.638.408-.56-.526-1.1-.927-.539q-1.286,1.774-2.739,3.417c-.456.519.3,1.28.761.761Z" transform="translate(-227.99 -243.556)" fill="#3b223e"/>
          <path id="Trazado_718157" data-name="Trazado 718157" d="M238.124,254.64l3.064-3.832c.429-.533-.325-1.3-.761-.761l-3.064,3.832C236.934,254.412,237.688,255.18,238.124,254.64Z" transform="translate(-228.974 -244.227)" fill="#3b223e"/>
          <path id="Trazado_718158" data-name="Trazado 718158" d="M241.754,257.045a38.669,38.669,0,0,1,2.8-3.562c.456-.519-.3-1.28-.761-.761a42.141,42.141,0,0,0-2.967,3.776c-.394.567.533,1.107.927.539Z" transform="translate(-230.052 -245.055)" fill="#3b223e"/>
          <path id="Trazado_718159" data-name="Trazado 718159" d="M228.157,246.124a32.337,32.337,0,0,0,3.209-3.465c.429-.533-.325-1.3-.761-.761a33.062,33.062,0,0,1-3.209,3.465C226.891,245.833,227.652,246.594,228.157,246.124Z" transform="translate(-225.889 -241.714)" fill="#3b223e"/>
        </g>
      </g>
      <path id="Trazado_718160" data-name="Trazado 718160" d="M160.814,230.124a25.162,25.162,0,0,0-5.36-18.958,1.6,1.6,0,0,0-.968-.7c-.954-.111-1.266,1.245-1.2,2.206.125,1.653.249,3.313.373,4.966a3.214,3.214,0,0,1-3.022-1.024,9.731,9.731,0,0,1-1.715-2.856q-1.66-3.621-3.472-7.165c-.3-.595-.7-1.252-1.356-1.363-1.2-.2-1.75,1.445-1.7,2.656a20.3,20.3,0,0,0,1.563,7.082c-.574-1.971-1.141-3.942-1.715-5.913-.207-.719-.622-1.591-1.369-1.549-.546.028-.92.567-1.114,1.086-.837,2.275.235,4.758,1.28,6.944l-1.6-4.191c-.131-.353-.311-.747-.671-.858-.678-.214-1.127.705-1.183,1.418a10.838,10.838,0,0,0,1.791,6.819,8.685,8.685,0,0,0-.858-1.985c-.463-.788-.968-1.646-1.48-1.57s-.788,1.017-.865,1.6a3.959,3.959,0,0,0,.373,2.068c1.75,4.869,4.371,9.71,8.756,12.449,1.888,1.176,4.1,1.971,5.526,3.679" transform="translate(-41.681 -62.975)" fill="#ff9896"/>
      <g id="Grupo_1013423" data-name="Grupo 1013423" transform="translate(97.45 160.821)" opacity="0.08">
        <path id="Trazado_718161" data-name="Trazado 718161" d="M140.46,232.55a19.018,19.018,0,0,0,6.363,7.075c1.881,1.183,4.1,1.978,5.526,3.679l9.966-4.855a24.247,24.247,0,0,0,0-6.37c-2.746,4.025-8.652,5.962-14.676,4.42a15.926,15.926,0,0,1-7.179-3.942Z" transform="translate(-140.46 -232.08)" fill="#2b002b"/>
      </g>
      <g id="Grupo_1013427" data-name="Grupo 1013427" transform="translate(96.275 147.113)" opacity="0.45">
        <g id="Grupo_1013424" data-name="Grupo 1013424" transform="translate(4.551)" opacity="0.41">
          <path id="Trazado_718162" data-name="Trazado 718162" d="M145.34,212.26c.214.657.387,1.321.567,1.985s.353,1.321.533,1.978a15.33,15.33,0,0,0,.733,1.9,19.894,19.894,0,0,0,.968,1.812,9.137,9.137,0,0,1-1.217-1.681,10.025,10.025,0,0,1-.83-1.916A27.407,27.407,0,0,1,145.34,212.26Z" transform="translate(-145.34 -212.26)" fill="#3b223e"/>
        </g>
        <g id="Grupo_1013425" data-name="Grupo 1013425" transform="translate(1.501 0.989)" opacity="0.41">
          <path id="Trazado_718163" data-name="Trazado 718163" d="M140.93,213.7c.477,1.432.865,2.877,1.39,4.267a16.7,16.7,0,0,0,.906,2.033,12.591,12.591,0,0,0,1.217,1.874,9.36,9.36,0,0,1-2.462-3.783,20.583,20.583,0,0,1-1.051-4.4Z" transform="translate(-140.93 -213.69)" fill="#3b223e"/>
        </g>
        <g id="Grupo_1013426" data-name="Grupo 1013426" transform="translate(0 6.017)" opacity="0.41">
          <path id="Trazado_718164" data-name="Trazado 718164" d="M138.767,220.96c.415.878.816,1.736,1.286,2.566.228.415.477.823.719,1.231s.519.8.775,1.217a7.263,7.263,0,0,1-1.01-1.051,8.454,8.454,0,0,1-.809-1.217,8.312,8.312,0,0,1-.968-2.739Z" transform="translate(-138.76 -220.96)" fill="#3b223e"/>
        </g>
      </g>
      <g id="Grupo_1013431" data-name="Grupo 1013431" transform="translate(99.913 155.33)" opacity="0.19">
        <g id="Grupo_1013428" data-name="Grupo 1013428" transform="translate(4.558)" opacity="0.41">
          <path id="Trazado_718165" data-name="Trazado 718165" d="M152.263,224.839a2.366,2.366,0,0,1-.961-.007.9.9,0,0,1-.692-.692,2.463,2.463,0,0,0,.8.339A2.21,2.21,0,0,1,152.263,224.839Z" transform="translate(-150.61 -224.14)" fill="#3b223e"/>
        </g>
        <g id="Grupo_1013429" data-name="Grupo 1013429" transform="translate(2.275 2.199)" opacity="0.41">
          <path id="Trazado_718166" data-name="Trazado 718166" d="M148.624,228.136a.931.931,0,0,1-.851-.1,1.112,1.112,0,0,1-.318-.3.811.811,0,0,1-.145-.415c.131.076.235.152.346.214l.311.194.657.4Z" transform="translate(-147.31 -227.32)" fill="#3b223e"/>
        </g>
        <g id="Grupo_1013430" data-name="Grupo 1013430" transform="translate(0 4.005)" opacity="0.41">
          <path id="Trazado_718167" data-name="Trazado 718167" d="M145.147,230.7a.849.849,0,0,1-.74-.124.839.839,0,0,1-.263-.277.749.749,0,0,1-.124-.367,3.308,3.308,0,0,1,.318.173c.1.055.18.118.27.173a4.385,4.385,0,0,1,.533.429Z" transform="translate(-144.02 -229.93)" fill="#3b223e"/>
        </g>
      </g>
      <path id="Trazado_718168" data-name="Trazado 718168" d="M167.4,236.977c-.9-.733-3.707,2.116-7.643,4.053a22.892,22.892,0,0,1-6.543,2.047,1.026,1.026,0,0,0-.705,1.57c1.874,2.995,1.411,7.234,1.681,10.948a22.852,22.852,0,0,0,6.315,14.109,2.651,2.651,0,0,0,1.57.961,2.83,2.83,0,0,0,1.494-.463,213.588,213.588,0,0,0,19.414-11.813,2.525,2.525,0,0,0,.948-.941,2.319,2.319,0,0,0,.1-1.231c-.719-6.494-6.985-10.568-6.985-10.568-4.745-3.41-9.289-3.942-9.565-6.792-.09-.913.3-1.556-.083-1.874Z" transform="translate(-46.675 -72.732)" fill="#b0d3e9"/>
      <g id="Grupo_1013432" data-name="Grupo 1013432" transform="translate(107.334 177.766)" opacity="0.07">
        <path id="Trazado_718169" data-name="Trazado 718169" d="M154.75,256.587c.1,1.674.076,3.4.194,5.014a22.889,22.889,0,0,0,6.315,14.109,2.7,2.7,0,0,0,1.577.961,2.752,2.752,0,0,0,1.494-.463,215.225,215.225,0,0,0,19.414-11.82,2.575,2.575,0,0,0,.948-.941,2.446,2.446,0,0,0,.1-1.224c-.021-.138-.028-.277-.055-.408-2.856,3.05-9.821,4.039-17.277,2.13-5.734-1.466-10.388-4.288-12.7-7.366Z" transform="translate(-154.75 -256.58)" fill="#2b002b"/>
      </g>
      <g id="Grupo_1013434" data-name="Grupo 1013434" transform="translate(104.941 164.01)" opacity="0.19">
        <g id="Grupo_1013433" data-name="Grupo 1013433">
          <path id="Trazado_718170" data-name="Trazado 718170" d="M167.951,241.252a28.055,28.055,0,0,1-16.143,6.363.54.54,0,0,0,0,1.079,29.091,29.091,0,0,0,16.9-6.674c.526-.456-.242-1.21-.761-.761Z" transform="translate(-151.29 -238.056)" fill="#3b223e"/>
          <path id="Trazado_718171" data-name="Trazado 718171" d="M168.988,243.169l-2.186-4.724c-.29-.629-1.217-.083-.927.539l2.186,4.724C168.351,244.338,169.278,243.792,168.988,243.169Z" transform="translate(-155.77 -237.145)" fill="#3b223e"/>
          <path id="Trazado_718172" data-name="Trazado 718172" d="M164.75,245.139c-.636-1.314-1.2-2.663-1.708-4.032-.235-.643-1.28-.367-1.037.284.539,1.459,1.141,2.891,1.819,4.288C164.12,246.3,165.054,245.755,164.75,245.139Z" transform="translate(-154.583 -237.939)" fill="#3b223e"/>
          <path id="Trazado_718173" data-name="Trazado 718173" d="M160.911,246.69,159,242.174c-.27-.636-1.2-.09-.927.539l1.916,4.516C160.254,247.866,161.181,247.319,160.911,246.69Z" transform="translate(-153.365 -238.293)" fill="#3b223e"/>
          <path id="Trazado_718174" data-name="Trazado 718174" d="M156.933,248.3a42.818,42.818,0,0,0-1.833-4.44c-.3-.622-1.231-.076-.927.539a40.038,40.038,0,0,1,1.729,4.184c.228.65,1.266.373,1.037-.284Z" transform="translate(-152.161 -238.816)" fill="#3b223e"/>
          <path id="Trazado_718175" data-name="Trazado 718175" d="M172.736,241.179a32.972,32.972,0,0,1-2.151-4.205c-.27-.636-1.2-.09-.927.539a32.977,32.977,0,0,0,2.151,4.205C172.169,242.306,173.1,241.767,172.736,241.179Z" transform="translate(-156.939 -236.69)" fill="#3b223e"/>
        </g>
      </g>
      <path id="Trazado_718176" data-name="Trazado 718176" d="M133.523,337.269c1.764,6.411-1.459,13.556-6.114,18.2s-10.547,7.435-16.087,10.706c-2.234,1.321-4.7,3.182-4.834,5.907-.131,2.607,2.123,4.7,4.489,5.118a13.927,13.927,0,0,0,6.315-.823,166.949,166.949,0,0,0,20.133-7.463c2.58-1.148,5.27-2.49,6.854-4.987a17.206,17.206,0,0,0,1.957-6.135q1.919-10.385,3.845-20.777" transform="translate(-32.532 -103.619)" fill="#ff9896"/>
      <g id="Grupo_1013435" data-name="Grupo 1013435" transform="translate(100.999 233.4)" opacity="0.18">
        <path id="Trazado_718177" data-name="Trazado 718177" d="M162.141,337.02q-.986,5.322-1.971,10.672a20,20,0,0,1-14.545-2.939,15.118,15.118,0,0,0-.035-7.477l16.551-.249Z" transform="translate(-145.59 -337.02)" fill="#3b223e"/>
      </g>
      <path id="Trazado_718178" data-name="Trazado 718178" d="M149,316.829c8.258.484,12.38.726,15.084-1.812,1.21-1.134.705-1.418,3.3-14.822.657-3.389,1.764-8.874,3.576-15.368.062-.228.1-.374.118-.422a115.36,115.36,0,0,0,2.808-13.141,15.038,15.038,0,0,0,.207-4.911c-.871-5.125-5.395-9.323-10.1-10.914-6.121-2.068-11.564.533-12.927,1.183-7.629,3.652-10.554,11.4-12.643,16.945-1.556,4.129-2.123,9.275-3.2,19.4-1.805,17.1-.692,19.6.878,21.164,2.089,2.075,5.692,2.282,12.892,2.7Z" transform="translate(-41.109 -78.221)" fill="#3d8dc0"/>
      <g id="Grupo_1013437" data-name="Grupo 1013437" transform="translate(95.499 169.275)" opacity="0.24">
        <g id="Grupo_1013436" data-name="Grupo 1013436">
          <path id="Trazado_718179" data-name="Trazado 718179" d="M141.955,314.633a282.831,282.831,0,0,1,5.326-37.161c2.1-9.856,3.922-22.609,12.622-29.035,2.206-1.632.062-5.374-2.179-3.721-9.212,6.806-11.682,18.46-14.04,29.042a290.116,290.116,0,0,0-6.038,40.875C137.432,317.4,141.748,317.386,141.955,314.633Z" transform="translate(-137.639 -244.304)" fill="#fffcff"/>
          <path id="Trazado_718180" data-name="Trazado 718180" d="M166.013,248.609c-9.019,22.388-12.124,46.519-12.463,70.519-.042,2.773,4.274,2.773,4.309,0,.332-23.647,3.417-47.314,12.3-69.37,1.037-2.573-3.133-3.693-4.157-1.148Z" transform="translate(-142.545 -245.188)" fill="#fffcff"/>
          <path id="Trazado_718181" data-name="Trazado 718181" d="M171.958,318.216A293.028,293.028,0,0,1,183.2,248.922c.768-2.67-3.389-3.811-4.157-1.148a297.956,297.956,0,0,0-11.391,70.442C167.538,320.989,171.847,320.982,171.958,318.216Z" transform="translate(-146.892 -244.906)" fill="#fffcff"/>
        </g>
      </g>
      <g id="Grupo_1013438" data-name="Grupo 1013438" transform="translate(75.01 256.486)" opacity="0.07">
        <path id="Trazado_718182" data-name="Trazado 718182" d="M145.615,372.875c-2.365,1.522-16.952,10.865-26.13,13.736a10.19,10.19,0,0,1-6.979.1c-1.943-.789-4.613-2.732-4.489-5.125.138-2.718,2.607-4.586,4.834-5.906,3.009-1.778,6.128-3.417,9.095-5.284a27.316,27.316,0,0,0,14.261,4.164,26.583,26.583,0,0,0,9.4-1.694Z" transform="translate(-108.014 -370.399)" fill="#3b223e"/>
      </g>
      <path id="Trazado_718183" data-name="Trazado 718183" d="M143.325,376.3a271.133,271.133,0,0,1-28.177,14.275,31.345,31.345,0,0,1-11.1,2.407c-.622,0-1.162-.014-1.625-.042-2.822-.166-6.335-.38-9-2.988-3.679-3.6-3.942-9.939-1.985-14.261,1.7-3.769,5.395-5.7,12.788-9.558,3.382-1.771,5.111-2.642,6.529-2.393,4.309.775,6.819,7.041,10.167,15.382.138.339.263.671.387,1,5.664-2.87,10.354-5.263,13.694-6.985a62.8,62.8,0,0,0,5.63-3.022,1.135,1.135,0,0,1,.65-.214c1.1.007,2.026,1.9,2.3,3.271a5.846,5.846,0,0,1-.256,3.14Z" transform="translate(-27.519 -111.847)" fill="#1c466d"/>
      <g id="Grupo_1013443" data-name="Grupo 1013443" transform="translate(62.707 171.548)" opacity="0.12">
        <path id="Trazado_718184" data-name="Trazado 718184" d="M133.523,337.269c1.764,6.411-1.459,13.556-6.114,18.2s-10.547,7.435-16.087,10.706c-2.234,1.321-4.7,3.182-4.834,5.907-.131,2.607,2.123,4.7,4.489,5.118a13.927,13.927,0,0,0,6.315-.823,166.949,166.949,0,0,0,20.133-7.463c2.58-1.148,5.27-2.49,6.854-4.987a17.206,17.206,0,0,0,1.957-6.135q1.919-10.385,3.845-20.777" transform="translate(-95.239 -275.168)" fill="#3b223e"/>
        <g id="Grupo_1013439" data-name="Grupo 1013439" transform="translate(38.292 61.852)" opacity="0.18">
          <path id="Trazado_718185" data-name="Trazado 718185" d="M162.141,337.02q-.986,5.322-1.971,10.672a20,20,0,0,1-14.545-2.939,15.118,15.118,0,0,0-.035-7.477l16.551-.249Z" transform="translate(-145.59 -337.02)" fill="#3b223e"/>
        </g>
        <path id="Trazado_718186" data-name="Trazado 718186" d="M149,316.829c8.258.484,12.38.726,15.084-1.812,1.21-1.134.705-1.418,3.3-14.822.657-3.389,1.764-8.874,3.576-15.368.062-.228.1-.374.118-.422a115.36,115.36,0,0,0,2.808-13.141,15.038,15.038,0,0,0,.207-4.911c-.871-5.125-5.395-9.323-10.1-10.914-6.121-2.068-11.564.533-12.927,1.183-7.629,3.652-10.554,11.4-12.643,16.945-1.556,4.129-2.123,9.275-3.2,19.4-1.805,17.1-.692,19.6.878,21.164,2.089,2.075,5.692,2.282,12.892,2.7Z" transform="translate(-103.815 -249.769)" fill="#3b223e"/>
        <g id="Grupo_1013441" data-name="Grupo 1013441" transform="translate(30.48)" opacity="0.24">
          <path id="Trazado_718187" data-name="Trazado 718187" d="M149,316.829c8.258.484,12.38.726,15.084-1.812,1.21-1.134.705-1.418,3.3-14.822.657-3.389,1.764-8.874,3.576-15.368.062-.228.1-.374.118-.422a115.36,115.36,0,0,0,2.808-13.141,15.038,15.038,0,0,0,.207-4.911c-.871-5.125-5.395-9.323-10.1-10.914-6.121-2.068-11.564.533-12.927,1.183-7.629,3.652-10.554,11.4-12.643,16.945-1.556,4.129-2.123,9.275-3.2,19.4-1.805,17.1-.692,19.6.878,21.164,2.089,2.075,5.692,2.282,12.892,2.7Z" transform="translate(-134.296 -249.769)" fill="#3b223e"/>
          <g id="Grupo_1013440" data-name="Grupo 1013440" transform="translate(4.471)">
            <path id="Trazado_718188" data-name="Trazado 718188" d="M140.76,315.646a282.1,282.1,0,0,1,7.47-46.706c1.985-8.037,4.765-16.62,11.543-21.351" transform="translate(-140.76 -247.59)" fill="#3b223e"/>
            <path id="Trazado_718189" data-name="Trazado 718189" d="M169.06,250.08c-9.005,22.049-12.1,46.125-12.38,69.944Z" transform="translate(-145.669 -248.358)" fill="#3b223e"/>
            <path id="Trazado_718190" data-name="Trazado 718190" d="M170.77,319.148a290.69,290.69,0,0,1,11.315-69.868Z" transform="translate(-150.014 -248.111)" fill="#3b223e"/>
          </g>
        </g>
        <g id="Grupo_1013442" data-name="Grupo 1013442" transform="translate(12.303 84.938)" opacity="0.07">
          <path id="Trazado_718191" data-name="Trazado 718191" d="M145.615,372.875c-2.365,1.522-16.952,10.865-26.13,13.736a10.19,10.19,0,0,1-6.979.1c-1.943-.789-4.613-2.732-4.489-5.125.138-2.718,2.607-4.586,4.834-5.906,3.009-1.778,6.128-3.417,9.095-5.284a27.316,27.316,0,0,0,14.261,4.164,26.583,26.583,0,0,0,9.4-1.694Z" transform="translate(-108.014 -370.399)" fill="#3b223e"/>
        </g>
        <path id="Trazado_718192" data-name="Trazado 718192" d="M143.325,376.3a271.133,271.133,0,0,1-28.177,14.275,31.345,31.345,0,0,1-11.1,2.407c-.622,0-1.162-.014-1.625-.042-2.822-.166-6.335-.38-9-2.988-3.679-3.6-3.942-9.939-1.985-14.261,1.7-3.769,5.395-5.7,12.788-9.558,3.382-1.771,5.111-2.642,6.529-2.393,4.309.775,6.819,7.041,10.167,15.382.138.339.263.671.387,1,5.664-2.87,10.354-5.263,13.694-6.985a62.8,62.8,0,0,0,5.63-3.022,1.135,1.135,0,0,1,.65-.214c1.1.007,2.026,1.9,2.3,3.271a5.846,5.846,0,0,1-.256,3.14Z" transform="translate(-90.226 -283.395)" fill="#3b223e"/>
      </g>
      <path id="Trazado_718193" data-name="Trazado 718193" d="M173.465,345.329c1.791,6.5-1.48,13.736-6.2,18.439s-10.713,7.532-16.343,10.845c-2.269,1.335-4.772,3.223-4.911,5.983-.138,2.642,2.158,4.758,4.558,5.187a14.185,14.185,0,0,0,6.418-.83,170.193,170.193,0,0,0,20.451-7.56c2.614-1.162,5.353-2.518,6.965-5.049a17.18,17.18,0,0,0,1.985-6.211q1.95-10.53,3.9-21.053" transform="translate(-44.718 -106.105)" fill="#ff9896"/>
      <g id="Grupo_1013444" data-name="Grupo 1013444" transform="translate(128.76 238.975)" opacity="0.18">
        <path id="Trazado_718194" data-name="Trazado 718194" d="M202.537,345.08q-1,5.395-2,10.81a20.356,20.356,0,0,1-14.773-2.981,15.369,15.369,0,0,0-.035-7.58l16.814-.249Z" transform="translate(-185.73 -345.08)" fill="#3b223e"/>
      </g>
      <path id="Trazado_718195" data-name="Trazado 718195" d="M189.188,324.626c8.389.491,12.581.733,15.326-1.833,1.224-1.148.712-1.439,3.348-15.015.664-3.43,1.791-8.991,3.624-15.569.062-.235.1-.38.118-.422a115.136,115.136,0,0,0,2.85-13.314,15.7,15.7,0,0,0,.214-4.973c-.885-5.194-5.478-9.448-10.264-11.066-6.218-2.1-11.751.533-13.134,1.2-7.746,3.693-10.72,11.557-12.844,17.159-1.584,4.184-2.158,9.4-3.237,19.656-1.833,17.325-.7,19.857.9,21.44,2.123,2.1,5.782,2.317,13.1,2.746Z" transform="translate(-53.428 -80.374)" fill="#3d8dc0"/>
      <g id="Grupo_1013446" data-name="Grupo 1013446" transform="translate(123.165 174.002)" opacity="0.24">
        <g id="Grupo_1013445" data-name="Grupo 1013445">
          <path id="Trazado_718196" data-name="Trazado 718196" d="M182.025,322.391a285.012,285.012,0,0,1,5.54-38.3c2.116-9.807,4-22.388,12.671-28.758,2.248-1.653.062-5.45-2.206-3.776-9.178,6.743-11.737,18.245-14.109,28.772a293.637,293.637,0,0,0-6.273,42.065c-.214,2.808,4.157,2.794,4.371,0Z" transform="translate(-177.639 -251.137)" fill="#fffcff"/>
          <path id="Trazado_718197" data-name="Trazado 718197" d="M206.463,255.51c-9.157,22.672-12.3,47.128-12.643,71.445-.042,2.815,4.337,2.815,4.371,0,.332-23.958,3.458-47.937,12.484-70.283,1.051-2.607-3.175-3.742-4.219-1.162Z" transform="translate(-182.629 -252.037)" fill="#fffcff"/>
          <path id="Trazado_718198" data-name="Trazado 718198" d="M212.507,326.036a295.922,295.922,0,0,1,11.4-70.2c.782-2.711-3.437-3.866-4.219-1.162a301.379,301.379,0,0,0-11.557,71.362c-.111,2.815,4.26,2.808,4.371,0Z" transform="translate(-187.041 -251.753)" fill="#fffcff"/>
        </g>
      </g>
      <g id="Grupo_1013447" data-name="Grupo 1013447" transform="translate(102.364 262.359)" opacity="0.07">
        <path id="Trazado_718199" data-name="Trazado 718199" d="M185.753,381.4c-2.4,1.542-17.215,11-26.538,13.909a10.382,10.382,0,0,1-7.089.1c-1.971-.8-4.682-2.767-4.558-5.194.138-2.76,2.649-4.641,4.911-5.983,3.057-1.805,6.225-3.458,9.24-5.346a27.778,27.778,0,0,0,14.49,4.219A27.292,27.292,0,0,0,185.753,381.4Z" transform="translate(-147.564 -378.89)" fill="#3b223e"/>
      </g>
      <path id="Trazado_718200" data-name="Trazado 718200" d="M183.439,384.887a276.938,276.938,0,0,1-28.62,14.462,32,32,0,0,1-11.274,2.435c-.636,0-1.183-.014-1.653-.042-2.87-.166-6.432-.387-9.15-3.029-3.742-3.645-4.011-10.07-2.02-14.448,1.729-3.818,5.478-5.775,12.989-9.683,3.437-1.791,5.187-2.677,6.626-2.421,4.378.782,6.93,7.131,10.333,15.589.145.339.27.678.394,1,5.754-2.912,10.513-5.326,13.909-7.075a62.994,62.994,0,0,0,5.72-3.064,1.216,1.216,0,0,1,.664-.221c1.114.007,2.061,1.93,2.338,3.32a5.925,5.925,0,0,1-.256,3.181Z" transform="translate(-39.628 -114.442)" fill="#1c466d"/>
      <g id="Grupo_1013448" data-name="Grupo 1013448" transform="translate(189.292 202.955)" opacity="0.15">
        <path id="Trazado_718201" data-name="Trazado 718201" d="M282.87,295.037a37.842,37.842,0,0,1,4.081,5.72,49.425,49.425,0,0,1,3.14,6.294,50.662,50.662,0,0,1,2.22,6.674,37.951,37.951,0,0,1,1.148,6.93l-2.365-6.557c-.809-2.158-1.618-4.309-2.511-6.432-.865-2.13-1.805-4.226-2.76-6.328l-2.953-6.308Z" transform="translate(-276.217 -293.626)" fill="#3b223e"/>
        <path id="Trazado_718202" data-name="Trazado 718202" d="M273.257,306.273l5.962-2.96c1.964-1,3.935-1.992,5.886-3.022,1.964-1,3.915-2.04,5.9-3.029s3.984-1.964,6.066-2.8a60.972,60.972,0,0,1-5.436,3.908c-1.867,1.217-3.8,2.331-5.782,3.368a55.118,55.118,0,0,1-6.128,2.732,34.818,34.818,0,0,1-6.474,1.8Z" transform="translate(-273.25 -293.45)" fill="#3b223e"/>
        <path id="Trazado_718203" data-name="Trazado 718203" d="M275.617,313.952c2.165-.871,4.316-1.639,6.342-2.642,1.017-.5,2.04-1.01,3.064-1.535l3.105-1.515c2.089-.968,4.191-1.923,6.328-2.787s4.3-1.694,6.522-2.372c-1.937,1.293-3.949,2.435-5.983,3.527s-4.094,2.116-6.176,3.112c-2.1.954-4.164,1.95-6.377,2.746a26.875,26.875,0,0,1-6.833,1.473Z" transform="translate(-273.978 -296.115)" fill="#3b223e"/>
        <path id="Trazado_718204" data-name="Trazado 718204" d="M279.047,321.709l5.8-2.345c1.916-.788,3.832-1.57,5.734-2.386,1.916-.782,3.832-1.6,5.775-2.345s3.915-1.466,5.948-2.033a57.912,57.912,0,0,1-5.422,3.188c-1.847.982-3.749,1.867-5.678,2.69a52.763,52.763,0,0,1-5.955,2.082,31.506,31.506,0,0,1-6.211,1.148Z" transform="translate(-275.035 -299.044)" fill="#3b223e"/>
        <path id="Trazado_718205" data-name="Trazado 718205" d="M293.03,293a18.041,18.041,0,0,1,4.011,4.883c.546.92.968,1.888,1.418,2.808.429.934.878,1.805,1.411,2.725l.726,1.383a15.184,15.184,0,0,1,.643,1.494,18.284,18.284,0,0,1,.8,3.119,28.275,28.275,0,0,1,.3,6.294c-.567-2.026-.968-4.067-1.535-6.01a26.911,26.911,0,0,0-1-2.836c-.2-.456-.387-.9-.629-1.349l-.754-1.356a26.907,26.907,0,0,1-1.362-2.843c-.38-.982-.761-1.93-1.141-2.863a42.46,42.46,0,0,0-2.877-5.45Z" transform="translate(-279.35 -293)" fill="#3b223e"/>
        <path id="Trazado_718206" data-name="Trazado 718206" d="M273.32,302.22a40.807,40.807,0,0,1,3.652,5.173,29.856,29.856,0,0,1,2.7,5.789,28.685,28.685,0,0,1,.809,3.119c.187,1.051.36,2.1.463,3.14.242,2.089.408,4.143.692,6.245a28.365,28.365,0,0,1-1.95-6.024c-.491-2.04-.9-4.046-1.563-5.962a57.258,57.258,0,0,0-2.282-5.72C274.994,306.086,274.088,304.2,273.32,302.22Z" transform="translate(-273.272 -295.843)" fill="#3b223e"/>
      </g>
      <g id="Grupo_1013449" data-name="Grupo 1013449" transform="translate(72.69 168.539)" opacity="0.15">
        <path id="Trazado_718207" data-name="Trazado 718207" d="M117.132,243.247c-.768,1.252-1.542,2.435-2.289,3.631s-1.446,2.4-2.116,3.617-1.307,2.462-1.923,3.721l-1.854,3.866a15.313,15.313,0,0,1,.657-4.33A20.178,20.178,0,0,1,111.3,249.7a19.729,19.729,0,0,1,2.524-3.59,15.073,15.073,0,0,1,3.306-2.87Z" transform="translate(-105.983 -243.24)" fill="#3b223e"/>
        <path id="Trazado_718208" data-name="Trazado 718208" d="M125.305,246.17a32.69,32.69,0,0,0-2.684,3.126,33.331,33.331,0,0,0-2.172,3.375c-.657,1.169-1.266,2.372-1.86,3.6s-1.162,2.49-1.84,3.756a16,16,0,0,1,.636-4.205,17.766,17.766,0,0,1,1.639-3.956,14.4,14.4,0,0,1,2.642-3.417,10.061,10.061,0,0,1,3.631-2.282Z" transform="translate(-108.388 -244.144)" fill="#3b223e"/>
        <path id="Trazado_718209" data-name="Trazado 718209" d="M105.45,245.56a33.164,33.164,0,0,1,4.682-.1c.782.014,1.542.083,2.331.131a11.529,11.529,0,0,1,6.695,2.7,19.126,19.126,0,0,1,3.306,3.382c-1.4-.733-2.7-1.584-4.018-2.324a19.231,19.231,0,0,0-4.018-1.771c-1.349-.387-2.912-.539-4.433-.858a34.388,34.388,0,0,1-4.537-1.162Z" transform="translate(-104.904 -243.913)" fill="#3b223e"/>
        <path id="Trazado_718210" data-name="Trazado 718210" d="M104.667,254.057a8.355,8.355,0,0,1,3.79-.228,12.927,12.927,0,0,1,3.652,1.12,17.421,17.421,0,0,1,3.2,1.978,17.73,17.73,0,0,1,2.718,2.58,29.073,29.073,0,0,1-3.4-1.494c-1.086-.539-2.151-1.086-3.216-1.591s-2.144-.961-3.258-1.362a31.29,31.29,0,0,0-3.493-1Z" transform="translate(-104.66 -246.47)" fill="#3b223e"/>
      </g>
      <g id="Grupo_1013450" data-name="Grupo 1013450" transform="translate(155.713 219.367)" opacity="0.24">
        <path id="Trazado_718211" data-name="Trazado 718211" d="M224.707,316.744a43.222,43.222,0,0,0,7.228,9.621,25.861,25.861,0,0,0,4.662,3.548,23.294,23.294,0,0,0,5.353,2.317l5.817,1.854c1.937.664,3.88,1.307,5.789,2.061a99.757,99.757,0,0,1,11.225,4.994c-3.977-1.031-7.885-2.172-11.792-3.306s-7.795-2.213-11.744-3.43a24.417,24.417,0,0,1-5.789-2.656,23.652,23.652,0,0,1-4.807-4.157A29.252,29.252,0,0,1,224.7,316.73Z" transform="translate(-224.7 -316.73)" fill="#3b223e"/>
      </g>
      <g id="Grupo_1013451" data-name="Grupo 1013451" transform="translate(54.3 227.934)" opacity="0.24">
        <path id="Trazado_718212" data-name="Trazado 718212" d="M116.082,333.345a18.17,18.17,0,0,1-9.538,2.5,38.121,38.121,0,0,1-9.807-1.445c-3.168-.823-6.225-1.867-9.3-2.794a77.953,77.953,0,0,0-9.372-2.331,31.753,31.753,0,0,1,9.8.6c3.216.622,6.356,1.5,9.448,2.317a60.923,60.923,0,0,0,9.3,1.881,26.041,26.041,0,0,0,9.461-.726Z" transform="translate(-78.07 -329.116)" fill="#3b223e"/>
      </g>
      <path id="Trazado_718213" data-name="Trazado 718213" d="M111.592,124.237l-12.622-6.2,4.883-5.713,8.749,9.87-1.01,2.054Z" transform="translate(-30.215 -34.328)" fill="#ffa031"/>
      <path id="Trazado_718214" data-name="Trazado 718214" d="M111.386,135.225l-11.336,1.585c.228-2.026.45-4.054.678-6.08l10.4,2.649.256,1.847Z" transform="translate(-30.548 -40.006)" fill="#ffa031"/>
      <path id="Trazado_718215" data-name="Trazado 718215" d="M120.983,118l-4.143-10.955c2.075-.235,4.143-.463,6.218-.7l-.29,10.976Z" transform="translate(-35.726 -32.487)" fill="#ffa031"/>
      <g id="Grupo_1013452" data-name="Grupo 1013452" transform="translate(119.526 186.938)" opacity="0.37">
        <path id="Trazado_718216" data-name="Trazado 718216" d="M187.284,269.847a26.1,26.1,0,0,0-4.267,4.772,37.736,37.736,0,0,0-3.264,5.436,46.846,46.846,0,0,0-2.407,5.851,50.445,50.445,0,0,0-1.667,6.107c-.463,2.061-.8,4.164-1.058,6.273-.29,2.109-.45,4.24-.622,6.37-.311,4.274-.443,8.583-.775,12.9a103.866,103.866,0,0,1-.844-12.961c-.014-2.172.111-4.35.29-6.529a59.358,59.358,0,0,1,.982-6.494,48.038,48.038,0,0,1,1.854-6.328,37.913,37.913,0,0,1,2.829-5.962,30.641,30.641,0,0,1,3.9-5.3,20.27,20.27,0,0,1,5.049-4.136Z" transform="translate(-172.378 -269.84)" fill="#3b223e"/>
      </g>
      <g id="Grupo_1013453" data-name="Grupo 1013453" transform="translate(150.664 209.761)" opacity="0.37">
        <path id="Trazado_718217" data-name="Trazado 718217" d="M217.4,335.692c.29-2.815.782-5.581,1.342-8.327.263-1.376.595-2.739.892-4.1l.982-4.067c.657-2.7,1.328-5.374,1.819-8.085a58.1,58.1,0,0,0,.934-8.272,25.091,25.091,0,0,1,.671,8.472,49.964,49.964,0,0,1-1.411,8.376c-.7,2.732-1.466,5.415-2.331,8.078s-1.777,5.319-2.9,7.919Z" transform="translate(-217.4 -302.84)" fill="#3b223e"/>
      </g>
      <g id="Grupo_1013454" data-name="Grupo 1013454" transform="translate(13.817 22.273)" opacity="0.42">
        <path id="Trazado_718218" data-name="Trazado 718218" d="M24.554,268.134c6.674,0,6.688-10.374,0-10.374S17.865,268.134,24.554,268.134Z" transform="translate(-19.538 -101.452)" fill="#006f6e"/>
        <path id="Trazado_718219" data-name="Trazado 718219" d="M54.554,239.134c6.674,0,6.688-10.374,0-10.374S47.865,239.134,54.554,239.134Z" transform="translate(-28.789 -92.509)" fill="#006f6e"/>
        <path id="Trazado_718220" data-name="Trazado 718220" d="M41.554,109.134c6.674,0,6.688-10.375,0-10.375S34.865,109.134,41.554,109.134Z" transform="translate(-24.78 -52.421)" fill="#006f6e"/>
        <path id="Trazado_718221" data-name="Trazado 718221" d="M91.554,54.134c6.674,0,6.688-10.374,0-10.374S84.865,54.134,91.554,54.134Z" transform="translate(-40.198 -35.46)" fill="#006f6e"/>
        <path id="Trazado_718222" data-name="Trazado 718222" d="M340.554,258.134c6.674,0,6.688-10.374,0-10.374S333.865,258.134,340.554,258.134Z" transform="translate(-116.983 -98.368)" fill="#006f6e"/>
        <path id="Trazado_718223" data-name="Trazado 718223" d="M371.554,290.134c6.674,0,6.688-10.374,0-10.374S364.865,290.134,371.554,290.134Z" transform="translate(-126.542 -108.236)" fill="#006f6e"/>
        <path id="Trazado_718224" data-name="Trazado 718224" d="M354.553,141.134c6.674,0,6.688-10.374,0-10.374S347.865,141.134,354.553,141.134Z" transform="translate(-121.3 -62.289)" fill="#006f6e"/>
        <path id="Trazado_718225" data-name="Trazado 718225" d="M322.554,97.134c6.674,0,6.688-10.375,0-10.375S315.865,97.134,322.554,97.134Z" transform="translate(-111.432 -48.72)" fill="#006f6e"/>
        <path id="Trazado_718226" data-name="Trazado 718226" d="M53.045,271.218a1.73,1.73,0,0,0,0-3.458A1.73,1.73,0,0,0,53.045,271.218Z" transform="translate(-29.355 -104.535)" fill="#006f6e"/>
        <path id="Trazado_718227" data-name="Trazado 718227" d="M41.045,247.218a1.73,1.73,0,0,0,0-3.458A1.73,1.73,0,0,0,41.045,247.218Z" transform="translate(-25.655 -97.135)" fill="#006f6e"/>
        <path id="Trazado_718228" data-name="Trazado 718228" d="M69.045,100.218a1.73,1.73,0,0,0,0-3.458A1.73,1.73,0,0,0,69.045,100.218Z" transform="translate(-34.289 -51.804)" fill="#006f6e"/>
        <path id="Trazado_718229" data-name="Trazado 718229" d="M42.045,93.218a1.73,1.73,0,0,0,0-3.458A1.73,1.73,0,0,0,42.045,93.218Z" transform="translate(-25.963 -49.645)" fill="#006f6e"/>
        <path id="Trazado_718230" data-name="Trazado 718230" d="M95.045,35.218a1.73,1.73,0,0,0,0-3.458A1.73,1.73,0,0,0,95.045,35.218Z" transform="translate(-42.307 -31.76)" fill="#006f6e"/>
        <path id="Trazado_718231" data-name="Trazado 718231" d="M108.045,46.218a1.73,1.73,0,0,0,0-3.458A1.73,1.73,0,0,0,108.045,46.218Z" transform="translate(-46.316 -35.152)" fill="#006f6e"/>
        <path id="Trazado_718232" data-name="Trazado 718232" d="M312.045,103.218a1.73,1.73,0,0,0,0-3.458A1.73,1.73,0,0,0,312.045,103.218Z" transform="translate(-109.223 -52.729)" fill="#006f6e"/>
        <path id="Trazado_718233" data-name="Trazado 718233" d="M325.045,113.218a1.73,1.73,0,0,0,0-3.458A1.73,1.73,0,0,0,325.045,113.218Z" transform="translate(-113.232 -55.813)" fill="#006f6e"/>
        <path id="Trazado_718234" data-name="Trazado 718234" d="M339.045,91.218a1.73,1.73,0,0,0,0-3.458A1.73,1.73,0,0,0,339.045,91.218Z" transform="translate(-117.549 -49.029)" fill="#006f6e"/>
        <path id="Trazado_718235" data-name="Trazado 718235" d="M375.045,161.218a1.73,1.73,0,0,0,0-3.458A1.73,1.73,0,0,0,375.045,161.218Z" transform="translate(-128.651 -70.615)" fill="#006f6e"/>
        <path id="Trazado_718236" data-name="Trazado 718236" d="M358.045,270.218a1.73,1.73,0,0,0,0-3.458A1.73,1.73,0,0,0,358.045,270.218Z" transform="translate(-123.408 -104.227)" fill="#006f6e"/>
        <path id="Trazado_718237" data-name="Trazado 718237" d="M350.045,275.218a1.73,1.73,0,0,0,0-3.458A1.73,1.73,0,0,0,350.045,275.218Z" transform="translate(-120.941 -105.769)" fill="#006f6e"/>
        <path id="Trazado_718238" data-name="Trazado 718238" d="M327.045,244.218a1.73,1.73,0,0,0,0-3.458A1.73,1.73,0,0,0,327.045,244.218Z" transform="translate(-113.849 -96.209)" fill="#006f6e"/>
        <path id="Trazado_718239" data-name="Trazado 718239" d="M353.045,310.218a1.73,1.73,0,0,0,0-3.458A1.73,1.73,0,0,0,353.045,310.218Z" transform="translate(-121.867 -116.562)" fill="#006f6e"/>
      </g>
    </g>
  </g>
</svg>
