<svg xmlns="http://www.w3.org/2000/svg" width="88" height="88" viewBox="0 0 88 88">
  <g id="Grupo_1029689" data-name="Grupo 1029689" transform="translate(-224 -602)">
    <g id="Grupo_1013412" data-name="Grupo 1013412" transform="translate(0 193)">
      <path id="Trazado_710239" data-name="Trazado 710239" d="M44,0A44,44,0,1,1,0,44,44,44,0,0,1,44,0Z" transform="translate(224 409)" fill="#d2e1f1"/>
    </g>
    <g id="g4024" transform="translate(198.686 615.689)">
      <g id="g4030" transform="translate(87.683 0.908)">
        <path id="path4032" d="M543.484,13.208A3.208,3.208,0,1,1,540.276,10a3.209,3.209,0,0,1,3.208,3.208" transform="translate(-537.067 -10)" fill="#ffcec0"/>
      </g>
      <g id="g4034" transform="translate(89.511 0.908)">
        <path id="path4036" d="M561.8,13.213a3.21,3.21,0,0,1-4.588,2.9,3.211,3.211,0,0,0,0-5.795,3.21,3.21,0,0,1,4.588,2.9" transform="translate(-557.212 -10.004)" fill="#fdb0a0"/>
      </g>
      <g id="g4038" transform="translate(85.676 7.325)">
        <path id="path4040" d="M525.393,88.52l-.441-4.954a3.162,3.162,0,0,0-3.149-2.881h-3.244a3.162,3.162,0,0,0-3.149,2.881l-.441,4.954a.633.633,0,0,0,.63.688h1.5V96.1a1.265,1.265,0,0,0,1.265,1.265H522a1.265,1.265,0,0,0,1.265-1.265V89.209h1.5a.632.632,0,0,0,.63-.688" transform="translate(-514.966 -80.685)" fill="#1c96f9"/>
      </g>
      <g id="g4046" transform="translate(89.983 14.881)">
        <path id="Trazado_726868" data-name="Trazado 726868" d="M563.318,173.949a.908.908,0,0,1-.908-.908V164.83a.908.908,0,1,1,1.816,0v8.211A.908.908,0,0,1,563.318,173.949Z" transform="translate(-562.41 -163.922)"/>
      </g>
      <g id="g4050" transform="translate(86.775)">
        <path id="Trazado_726869" data-name="Trazado 726869" d="M531.183,8.233A4.116,4.116,0,1,1,535.3,4.116,4.121,4.121,0,0,1,531.183,8.233Zm0-6.417a2.3,2.3,0,1,0,2.3,2.3A2.3,2.3,0,0,0,531.183,1.816Z" transform="translate(-527.067)"/>
      </g>
      <g id="g4054" transform="translate(84.769 6.417)">
        <path id="Trazado_726870" data-name="Trazado 726870" d="M512.907,89.176h-3.633A2.175,2.175,0,0,1,507.1,87V81.024h-.593a1.54,1.54,0,0,1-1.534-1.677l.092-1.029a.908.908,0,0,1,1.809.161l-.065.729h1.2a.908.908,0,0,1,.908.908V87a.357.357,0,0,0,.357.357h3.633a.357.357,0,0,0,.357-.357V80.116a.908.908,0,0,1,.908-.908h1.2l-.414-4.654a2.242,2.242,0,0,0-2.245-2.054h-3.244a2.257,2.257,0,0,0-2.21,1.815.908.908,0,0,1-1.781-.351,4.077,4.077,0,0,1,3.992-3.279h3.244a4.049,4.049,0,0,1,4.054,3.709l.441,4.954a1.54,1.54,0,0,1-1.534,1.677h-.593V87A2.175,2.175,0,0,1,512.907,89.176Z" transform="translate(-504.968 -70.685)"/>
      </g>
      <g id="g4058" transform="translate(73.698 19.44)">
        <path id="path4060" d="M389.433,217.354a3.208,3.208,0,1,1-3.208-3.208,3.209,3.209,0,0,1,3.208,3.208" transform="translate(-383.016 -214.145)" fill="#c86f5c"/>
      </g>
      <g id="g4062" transform="translate(75.527 19.441)">
        <path id="path4064" d="M407.749,217.358a3.21,3.21,0,0,1-4.588,2.9,3.211,3.211,0,0,0,0-5.795,3.21,3.21,0,0,1,4.588,2.9" transform="translate(-403.161 -214.149)" fill="#ba5d4f"/>
      </g>
      <g id="g4066" transform="translate(71.691 25.857)">
        <path id="path4068" d="M371.342,292.665l-.441-4.954a3.162,3.162,0,0,0-3.149-2.881h-3.244a3.162,3.162,0,0,0-3.149,2.881l-.441,4.954a.632.632,0,0,0,.63.689h1.5v6.887a1.265,1.265,0,0,0,1.265,1.265h3.633a1.265,1.265,0,0,0,1.265-1.265v-6.887h1.5a.632.632,0,0,0,.63-.689" transform="translate(-360.915 -284.83)" fill="#fcb44d"/>
      </g>
      <g id="g4074" transform="translate(75.998 33.414)">
        <path id="Trazado_726871" data-name="Trazado 726871" d="M409.267,378.094a.908.908,0,0,1-.908-.908v-8.211a.908.908,0,0,1,1.816,0v8.211A.908.908,0,0,1,409.267,378.094Z" transform="translate(-408.359 -368.067)"/>
      </g>
      <g id="g4078" transform="translate(72.79 18.533)">
        <path id="Trazado_726872" data-name="Trazado 726872" d="M377.133,212.378a4.116,4.116,0,1,1,4.116-4.116A4.121,4.121,0,0,1,377.133,212.378Zm0-6.417a2.3,2.3,0,1,0,2.3,2.3A2.3,2.3,0,0,0,377.133,205.961Z" transform="translate(-373.017 -204.145)"/>
      </g>
      <g id="g4082" transform="translate(70.784 24.95)">
        <path id="Trazado_726873" data-name="Trazado 726873" d="M358.855,293.322h-3.633a2.175,2.175,0,0,1-2.172-2.173V285.17h-.593a1.54,1.54,0,0,1-1.534-1.677l.441-4.954a4.048,4.048,0,0,1,4.053-3.709h3.244a4.049,4.049,0,0,1,4.054,3.709l.441,4.954h0a1.54,1.54,0,0,1-1.534,1.677h-.593v5.979A2.175,2.175,0,0,1,358.855,293.322Zm-6.1-9.968h1.2a.908.908,0,0,1,.908.908v6.887a.357.357,0,0,0,.357.357h3.633a.357.357,0,0,0,.357-.357v-6.887a.908.908,0,0,1,.908-.908h1.2l-.414-4.654a2.242,2.242,0,0,0-2.245-2.054h-3.244a2.242,2.242,0,0,0-2.245,2.054Zm8.589.3h0Z" transform="translate(-350.916 -274.831)"/>
      </g>
      <g id="g4086" transform="translate(87.683 19.44)">
        <path id="path4088" d="M543.484,217.354a3.208,3.208,0,1,1-3.208-3.208,3.209,3.209,0,0,1,3.208,3.208" transform="translate(-537.067 -214.145)" fill="#c86f5c"/>
      </g>
      <g id="g4090" transform="translate(89.511 19.441)">
        <path id="path4092" d="M561.8,217.358a3.21,3.21,0,0,1-4.588,2.9,3.211,3.211,0,0,0,0-5.795,3.21,3.21,0,0,1,4.588,2.9" transform="translate(-557.212 -214.149)" fill="#ba5d4f"/>
      </g>
      <g id="g4094" transform="translate(85.676 25.857)">
        <path id="path4096" d="M525.393,292.665l-.441-4.954a3.162,3.162,0,0,0-3.149-2.881h-3.244a3.162,3.162,0,0,0-3.149,2.881l-.441,4.954a.633.633,0,0,0,.63.689h1.5v6.887a1.265,1.265,0,0,0,1.265,1.265H522a1.265,1.265,0,0,0,1.265-1.265v-6.887h1.5a.632.632,0,0,0,.63-.689" transform="translate(-514.966 -284.83)" fill="#fcb44d"/>
      </g>
      <g id="g4102" transform="translate(89.983 33.414)">
        <path id="Trazado_726874" data-name="Trazado 726874" d="M563.318,378.094a.908.908,0,0,1-.908-.908v-8.211a.908.908,0,1,1,1.816,0v8.211A.908.908,0,0,1,563.318,378.094Z" transform="translate(-562.41 -368.067)"/>
      </g>
      <g id="g4106" transform="translate(86.775 18.533)">
        <path id="Trazado_726875" data-name="Trazado 726875" d="M531.183,212.378a4.116,4.116,0,1,1,4.116-4.116A4.121,4.121,0,0,1,531.183,212.378Zm0-6.417a2.3,2.3,0,1,0,2.3,2.3A2.3,2.3,0,0,0,531.183,205.961Z" transform="translate(-527.067 -204.145)"/>
      </g>
      <g id="g4110" transform="translate(84.769 24.95)">
        <path id="Trazado_726876" data-name="Trazado 726876" d="M512.906,293.322h-3.633a2.175,2.175,0,0,1-2.172-2.173V285.17h-.593a1.54,1.54,0,0,1-1.534-1.677l.441-4.954a4.048,4.048,0,0,1,4.053-3.709h3.244a4.049,4.049,0,0,1,4.054,3.709l.441,4.954h0a1.54,1.54,0,0,1-1.534,1.677h-.593v5.979A2.175,2.175,0,0,1,512.906,293.322Zm-6.1-9.968h1.2a.908.908,0,0,1,.908.908v6.887a.357.357,0,0,0,.357.357h3.633a.357.357,0,0,0,.357-.357v-6.887a.908.908,0,0,1,.908-.908h1.2l-.414-4.654a2.242,2.242,0,0,0-2.245-2.054h-3.244a2.242,2.242,0,0,0-2.245,2.054Zm8.589.3h0Z" transform="translate(-504.967 -274.831)"/>
      </g>
      <g id="g4114" transform="translate(45.728 37.973)">
        <path id="path4116" d="M81.331,421.5a3.208,3.208,0,1,1-3.208-3.208,3.209,3.209,0,0,1,3.208,3.208" transform="translate(-74.914 -418.29)" fill="#fdb0a0"/>
      </g>
      <g id="g4118" transform="translate(47.556 37.973)">
        <path id="path4120" d="M99.646,421.5a3.21,3.21,0,0,1-4.588,2.9,3.211,3.211,0,0,0,0-5.795,3.21,3.21,0,0,1,4.588,2.9" transform="translate(-95.058 -418.294)" fill="#f89f8e"/>
      </g>
      <g id="g4122" transform="translate(43.721 44.39)">
        <path id="path4124" d="M63.24,496.811l-.441-4.954a3.162,3.162,0,0,0-3.149-2.881H56.406a3.162,3.162,0,0,0-3.149,2.881l-.441,4.954a.632.632,0,0,0,.63.688h1.5v6.887a1.265,1.265,0,0,0,1.265,1.265h3.633a1.265,1.265,0,0,0,1.265-1.265V497.5h1.5a.632.632,0,0,0,.63-.688" transform="translate(-52.813 -488.976)" fill="#afafaf"/>
      </g>
      <g id="g4130" transform="translate(48.028 51.946)">
        <path id="Trazado_726877" data-name="Trazado 726877" d="M101.164,582.24a.908.908,0,0,1-.908-.908v-8.211a.908.908,0,1,1,1.816,0v8.211A.908.908,0,0,1,101.164,582.24Z" transform="translate(-100.256 -572.213)"/>
      </g>
      <g id="g4134" transform="translate(44.82 37.065)">
        <path id="Trazado_726878" data-name="Trazado 726878" d="M69.03,416.523a4.116,4.116,0,1,1,4.116-4.116A4.121,4.121,0,0,1,69.03,416.523Zm0-6.417a2.3,2.3,0,1,0,2.3,2.3A2.3,2.3,0,0,0,69.03,410.106Z" transform="translate(-64.914 -408.29)"/>
      </g>
      <g id="g4138" transform="translate(42.814 43.482)">
        <path id="Trazado_726879" data-name="Trazado 726879" d="M50.753,497.467H47.12a2.175,2.175,0,0,1-2.172-2.173v-5.979h-.593a1.54,1.54,0,0,1-1.534-1.677l.441-4.954a4.049,4.049,0,0,1,4.053-3.709h3.244a4.049,4.049,0,0,1,4.054,3.709l.441,4.954a1.54,1.54,0,0,1-1.534,1.677h-.593v5.979A2.175,2.175,0,0,1,50.753,497.467Zm-6.1-9.968h1.2a.908.908,0,0,1,.908.908v6.887a.357.357,0,0,0,.357.357h3.633a.357.357,0,0,0,.357-.357v-6.887a.908.908,0,0,1,.908-.908h1.2l-.414-4.654a2.242,2.242,0,0,0-2.245-2.054H47.314a2.242,2.242,0,0,0-2.245,2.054Zm8.589.3Z" transform="translate(-42.814 -478.976)"/>
      </g>
      <g id="g4142" transform="translate(59.713 37.973)">
        <path id="path4144" d="M235.382,421.5a3.208,3.208,0,1,1-3.208-3.208,3.208,3.208,0,0,1,3.208,3.208" transform="translate(-228.965 -418.29)" fill="#fdb0a0"/>
      </g>
      <g id="g4146" transform="translate(61.541 37.973)">
        <path id="path4148" d="M253.7,421.5a3.21,3.21,0,0,1-4.588,2.9,3.211,3.211,0,0,0,0-5.795,3.21,3.21,0,0,1,4.588,2.9" transform="translate(-249.109 -418.294)" fill="#f89f8e"/>
      </g>
      <g id="g4150" transform="translate(57.706 44.39)">
        <path id="path4152" d="M217.291,496.811l-.441-4.954a3.162,3.162,0,0,0-3.149-2.881h-3.244a3.162,3.162,0,0,0-3.149,2.881l-.441,4.954a.632.632,0,0,0,.63.688H209v6.887a1.265,1.265,0,0,0,1.265,1.265H213.9a1.265,1.265,0,0,0,1.265-1.265V497.5h1.5a.632.632,0,0,0,.63-.688" transform="translate(-206.864 -488.976)" fill="#afafaf"/>
      </g>
      <g id="g4158" transform="translate(62.013 51.946)">
        <path id="Trazado_726880" data-name="Trazado 726880" d="M255.216,582.24a.908.908,0,0,1-.908-.908v-8.211a.908.908,0,1,1,1.816,0v8.211A.908.908,0,0,1,255.216,582.24Z" transform="translate(-254.308 -572.213)"/>
      </g>
      <g id="g4162" transform="translate(58.805 37.065)">
        <path id="Trazado_726881" data-name="Trazado 726881" d="M223.081,416.523a4.116,4.116,0,1,1,4.116-4.116A4.121,4.121,0,0,1,223.081,416.523Zm0-6.417a2.3,2.3,0,1,0,2.3,2.3A2.3,2.3,0,0,0,223.081,410.106Z" transform="translate(-218.965 -408.29)"/>
      </g>
      <g id="g4166" transform="translate(56.799 43.482)">
        <path id="Trazado_726882" data-name="Trazado 726882" d="M204.8,497.466h-3.633A2.175,2.175,0,0,1,199,495.294v-5.98h-.593a1.54,1.54,0,0,1-1.534-1.677l.441-4.954a4.048,4.048,0,0,1,4.053-3.709h3.244a4.1,4.1,0,0,1,3.895,2.891.908.908,0,1,1-1.738.525,2.268,2.268,0,0,0-2.157-1.6h-3.244a2.242,2.242,0,0,0-2.245,2.054l-.414,4.654h1.2a.908.908,0,0,1,.908.908v6.887a.357.357,0,0,0,.357.357H204.8a.357.357,0,0,0,.357-.357v-6.887a.908.908,0,0,1,.908-.908h1.2l-.092-1.033a.908.908,0,1,1,1.808-.161l.119,1.333a1.54,1.54,0,0,1-1.534,1.677h-.593v5.98A2.175,2.175,0,0,1,204.8,497.466Z" transform="translate(-196.866 -478.975)"/>
      </g>
      <g id="g4170" transform="translate(73.698 37.973)">
        <path id="path4172" d="M389.433,421.5a3.208,3.208,0,1,1-3.208-3.208,3.209,3.209,0,0,1,3.208,3.208" transform="translate(-383.016 -418.29)" fill="#fdb0a0"/>
      </g>
      <g id="g4174" transform="translate(75.527 37.973)">
        <path id="path4176" d="M407.749,421.5a3.21,3.21,0,0,1-4.588,2.9,3.211,3.211,0,0,0,0-5.795,3.21,3.21,0,0,1,4.588,2.9" transform="translate(-403.161 -418.294)" fill="#f89f8e"/>
      </g>
      <g id="g4178" transform="translate(71.691 44.39)">
        <path id="path4180" d="M371.342,496.811l-.441-4.954a3.162,3.162,0,0,0-3.149-2.881h-3.244a3.162,3.162,0,0,0-3.149,2.881l-.441,4.954a.632.632,0,0,0,.63.688h1.5v6.887a1.265,1.265,0,0,0,1.265,1.265h3.633a1.265,1.265,0,0,0,1.265-1.265V497.5h1.5a.632.632,0,0,0,.63-.688" transform="translate(-360.915 -488.976)" fill="#afafaf"/>
      </g>
      <g id="g4186" transform="translate(75.998 51.946)">
        <path id="Trazado_726883" data-name="Trazado 726883" d="M409.267,582.24a.908.908,0,0,1-.908-.908v-8.211a.908.908,0,1,1,1.816,0v8.211A.908.908,0,0,1,409.267,582.24Z" transform="translate(-408.359 -572.213)"/>
      </g>
      <g id="g4190" transform="translate(72.79 37.065)">
        <path id="Trazado_726884" data-name="Trazado 726884" d="M377.133,416.523a4.116,4.116,0,1,1,4.116-4.116A4.121,4.121,0,0,1,377.133,416.523Zm0-6.417a2.3,2.3,0,1,0,2.3,2.3A2.3,2.3,0,0,0,377.133,410.106Z" transform="translate(-373.017 -408.29)"/>
      </g>
      <g id="g4194" transform="translate(70.784 43.482)">
        <path id="Trazado_726885" data-name="Trazado 726885" d="M358.855,497.467h-3.633a2.175,2.175,0,0,1-2.172-2.173v-5.979h-.593a1.54,1.54,0,0,1-1.534-1.677l.441-4.954a4.048,4.048,0,0,1,4.053-3.709h3.244a4.049,4.049,0,0,1,4.054,3.709l.441,4.954h0a1.54,1.54,0,0,1-1.534,1.677h-.593v5.979A2.175,2.175,0,0,1,358.855,497.467Zm-6.1-9.968h1.2a.908.908,0,0,1,.908.908v6.887a.357.357,0,0,0,.357.357h3.633a.357.357,0,0,0,.357-.357v-6.887a.908.908,0,0,1,.908-.908h1.2l-.414-4.654a2.242,2.242,0,0,0-2.245-2.054h-3.244a2.242,2.242,0,0,0-2.245,2.054Zm8.589.3h0Z" transform="translate(-350.916 -478.976)"/>
      </g>
      <g id="g4198" transform="translate(87.683 37.973)">
        <path id="path4200" d="M543.484,421.5a3.208,3.208,0,1,1-3.208-3.208,3.209,3.209,0,0,1,3.208,3.208" transform="translate(-537.067 -418.29)" fill="#fdb0a0"/>
      </g>
      <g id="g4202" transform="translate(89.511 37.973)">
        <path id="path4204" d="M561.8,421.5a3.21,3.21,0,0,1-4.588,2.9,3.211,3.211,0,0,0,0-5.795,3.21,3.21,0,0,1,4.588,2.9" transform="translate(-557.212 -418.294)" fill="#f89f8e"/>
      </g>
      <g id="g4206" transform="translate(85.676 44.39)">
        <path id="path4208" d="M525.393,496.811l-.441-4.954a3.162,3.162,0,0,0-3.149-2.881h-3.244a3.162,3.162,0,0,0-3.149,2.881l-.441,4.954a.633.633,0,0,0,.63.688h1.5v6.887a1.265,1.265,0,0,0,1.265,1.265H522a1.265,1.265,0,0,0,1.265-1.265V497.5h1.5a.632.632,0,0,0,.63-.688" transform="translate(-514.966 -488.976)" fill="#afafaf"/>
      </g>
      <g id="g4214" transform="translate(89.983 51.946)">
        <path id="Trazado_726886" data-name="Trazado 726886" d="M563.318,582.24a.908.908,0,0,1-.908-.908v-8.211a.908.908,0,1,1,1.816,0v8.211A.908.908,0,0,1,563.318,582.24Z" transform="translate(-562.41 -572.213)"/>
      </g>
      <g id="g4218" transform="translate(86.775 37.065)">
        <path id="Trazado_726887" data-name="Trazado 726887" d="M531.183,416.523a4.116,4.116,0,1,1,4.116-4.116A4.121,4.121,0,0,1,531.183,416.523Zm0-6.417a2.3,2.3,0,1,0,2.3,2.3A2.3,2.3,0,0,0,531.183,410.106Z" transform="translate(-527.067 -408.29)"/>
      </g>
      <g id="g4222" transform="translate(84.769 43.482)">
        <path id="Trazado_726888" data-name="Trazado 726888" d="M512.906,497.467h-3.633a2.175,2.175,0,0,1-2.172-2.173v-5.979h-.593a1.54,1.54,0,0,1-1.534-1.677l.441-4.954a4.048,4.048,0,0,1,4.053-3.709h3.244a4.049,4.049,0,0,1,4.054,3.709l.441,4.954h0a1.54,1.54,0,0,1-1.534,1.677h-.593v5.979A2.175,2.175,0,0,1,512.906,497.467Zm-6.1-9.968h1.2a.908.908,0,0,1,.908.908v6.887a.357.357,0,0,0,.357.357h3.633a.357.357,0,0,0,.357-.357v-6.887a.908.908,0,0,1,.908-.908h1.2l-.414-4.654a2.242,2.242,0,0,0-2.245-2.054h-3.244a2.242,2.242,0,0,0-2.245,2.054Zm8.589.3h0Z" transform="translate(-504.967 -478.976)"/>
      </g>
      <g id="g4226" transform="translate(49.467 5.016)">
        <path id="Trazado_726889" data-name="Trazado 726889" d="M117.016,83.687a.908.908,0,0,1-.3-1.765h0a54.227,54.227,0,0,0,28.5-26.141.908.908,0,0,1,1.645.768,49.876,49.876,0,0,1-8.571,12.708,57.206,57.206,0,0,1-9.7,8.358,52.539,52.539,0,0,1-11.278,6.022A.9.9,0,0,1,117.016,83.687Z" transform="translate(-116.108 -55.257)"/>
      </g>
      <g id="g4230" transform="translate(76.173 3.661)">
        <path id="Trazado_726890" data-name="Trazado 726890" d="M415.149,44.923a.908.908,0,0,1-.835-.551l-.829-1.939-1.939.829a.908.908,0,1,1-.714-1.669l2.774-1.186a.908.908,0,0,1,1.192.478l1.186,2.774a.908.908,0,0,1-.834,1.265Z" transform="translate(-410.28 -40.333)"/>
      </g>
      <g id="g4234" transform="translate(46.142 3.329)">
        <path id="path4236" d="M98.5,46.179a9.512,9.512,0,1,1-9.512-9.512A9.512,9.512,0,0,1,98.5,46.179" transform="translate(-79.48 -36.667)" fill="#ffa031"/>
      </g>
      <g id="g4242" transform="translate(45.234 2.421)">
        <path id="Trazado_726891" data-name="Trazado 726891" d="M79.9,47.507a10.42,10.42,0,1,1,5.848-19.045.908.908,0,1,1-1.02,1.5,8.614,8.614,0,1,0,2.647,2.863.908.908,0,1,1,1.576-.9A10.418,10.418,0,0,1,79.9,47.507Z" transform="translate(-69.48 -26.667)"/>
      </g>
      <g id="g4246" transform="translate(50.894 8.081)">
        <path id="path4248" d="M140.133,91.932h-1.708V90.224a1.21,1.21,0,0,0-1.21-1.21h-1.264a1.21,1.21,0,0,0-1.21,1.21v1.708h-1.708a1.21,1.21,0,0,0-1.21,1.21v1.264a1.21,1.21,0,0,0,1.21,1.21h1.708v1.708a1.21,1.21,0,0,0,1.21,1.21h1.264a1.21,1.21,0,0,0,1.21-1.21V95.617h1.708a1.21,1.21,0,0,0,1.21-1.21V93.142a1.21,1.21,0,0,0-1.21-1.21" transform="translate(-131.823 -89.014)" fill="#f2eff2"/>
      </g>
      <g id="g4250" transform="translate(49.986 7.173)">
        <path id="Trazado_726892" data-name="Trazado 726892" d="M128.123,90.35h-1.264a2.121,2.121,0,0,1-2.118-2.118v-.8h-.8a2.121,2.121,0,0,1-2.118-2.118V84.05a2.121,2.121,0,0,1,2.118-2.118h.8v-.8a2.121,2.121,0,0,1,2.118-2.118h1.264a2.121,2.121,0,0,1,2.118,2.118v.8h.8a2.121,2.121,0,0,1,2.118,2.118v1.264a2.121,2.121,0,0,1-2.118,2.118h-.8v.8A2.121,2.121,0,0,1,128.123,90.35Zm-4.182-6.6a.3.3,0,0,0-.3.3v1.264a.3.3,0,0,0,.3.3h1.708a.908.908,0,0,1,.908.908v1.708a.3.3,0,0,0,.3.3h1.264a.3.3,0,0,0,.3-.3V86.525a.908.908,0,0,1,.908-.908h1.708a.3.3,0,0,0,.3-.3V84.05a.3.3,0,0,0-.3-.3h-1.708a.908.908,0,0,1-.908-.908V81.132a.3.3,0,0,0-.3-.3h-1.264a.3.3,0,0,0-.3.3V82.84a.908.908,0,0,1-.908.908Z" transform="translate(-121.823 -79.014)"/>
      </g>
    </g>
  </g>
</svg>
