<svg xmlns="http://www.w3.org/2000/svg" width="275" height="195.076" viewBox="0 0 275 195.076">
  <g id="Grupo_1029683" data-name="Grupo 1029683" transform="translate(-200 -11297.628)">
    <g id="Grupo_1029682" data-name="Grupo 1029682" transform="translate(10.166 1106.557)">
      <path id="Trazado_113636" data-name="Trazado 113636" d="M165.184,231.61a82.592,82.592,0,1,1-82.592-82.592,82.592,82.592,0,0,1,82.592,82.592" transform="translate(189.834 10057)" fill="#0078bb"/>
      <path id="Trazado_113637" data-name="Trazado 113637" d="M1107.932,498.327a59.847,59.847,0,1,1-59.847-59.847,59.847,59.847,0,0,1,59.847,59.847" transform="translate(-643.098 9813.028)" fill="#065958"/>
      <path id="Trazado_113638" data-name="Trazado 113638" d="M1159.419,561.615a48.046,48.046,0,1,1-48.046-48.046,48.046,48.046,0,0,1,48.046,48.046" transform="translate(-706.386 9749.739)" fill="#fff"/>
      <path id="Trazado_113639" data-name="Trazado 113639" d="M609.673,662.668a29.2,29.2,0,1,1-29.2-29.2,29.2,29.2,0,0,1,29.2,29.2" transform="translate(-274.797 9648.687)" fill="#fff"/>
      <path id="Trazado_113665" data-name="Trazado 113665" d="M127.167,379.974a1.846,1.846,0,1,1-1.846-1.846,1.846,1.846,0,0,1,1.846,1.846" transform="translate(85.763 9863.896)" fill="#fff"/>
      <path id="Trazado_113666" data-name="Trazado 113666" d="M178.842,379.974A1.846,1.846,0,1,1,177,378.128a1.846,1.846,0,0,1,1.846,1.846" transform="translate(42.209 9863.896)" fill="#fff"/>
      <path id="Trazado_113667" data-name="Trazado 113667" d="M230.517,379.974a1.846,1.846,0,1,1-1.846-1.846,1.846,1.846,0,0,1,1.846,1.846" transform="translate(-1.345 9863.896)" fill="#fff"/>
      <path id="Trazado_113668" data-name="Trazado 113668" d="M282.193,379.974a1.846,1.846,0,1,1-1.846-1.846,1.846,1.846,0,0,1,1.846,1.846" transform="translate(-44.899 9863.896)" fill="#fff"/>
      <path id="Trazado_113669" data-name="Trazado 113669" d="M333.867,379.974a1.846,1.846,0,1,1-1.846-1.846,1.846,1.846,0,0,1,1.846,1.846" transform="translate(-88.453 9863.896)" fill="#fff"/>
      <path id="Trazado_113670" data-name="Trazado 113670" d="M127.167,429.3a1.846,1.846,0,1,1-1.846-1.846,1.846,1.846,0,0,1,1.846,1.846" transform="translate(85.763 9822.321)" fill="#fff"/>
      <path id="Trazado_113671" data-name="Trazado 113671" d="M178.842,429.3A1.846,1.846,0,1,1,177,427.454a1.846,1.846,0,0,1,1.846,1.846" transform="translate(42.209 9822.321)" fill="#fff"/>
      <path id="Trazado_113672" data-name="Trazado 113672" d="M230.517,429.3a1.846,1.846,0,1,1-1.846-1.846,1.846,1.846,0,0,1,1.846,1.846" transform="translate(-1.345 9822.321)" fill="#fff"/>
      <path id="Trazado_113673" data-name="Trazado 113673" d="M282.193,429.3a1.846,1.846,0,1,1-1.846-1.846,1.846,1.846,0,0,1,1.846,1.846" transform="translate(-44.899 9822.321)" fill="#fff"/>
      <path id="Trazado_113674" data-name="Trazado 113674" d="M333.867,429.3a1.846,1.846,0,1,1-1.846-1.846,1.846,1.846,0,0,1,1.846,1.846" transform="translate(-88.453 9822.321)" fill="#fff"/>
      <path id="Trazado_113675" data-name="Trazado 113675" d="M127.167,478.626a1.846,1.846,0,1,1-1.846-1.845,1.846,1.846,0,0,1,1.846,1.845" transform="translate(85.763 9780.746)" fill="#fff"/>
      <path id="Trazado_113676" data-name="Trazado 113676" d="M178.842,478.626A1.846,1.846,0,1,1,177,476.781a1.846,1.846,0,0,1,1.846,1.845" transform="translate(42.209 9780.746)" fill="#fff"/>
      <path id="Trazado_113677" data-name="Trazado 113677" d="M230.517,478.626a1.846,1.846,0,1,1-1.846-1.845,1.846,1.846,0,0,1,1.846,1.845" transform="translate(-1.345 9780.746)" fill="#fff"/>
      <path id="Trazado_113678" data-name="Trazado 113678" d="M282.193,478.626a1.846,1.846,0,1,1-1.846-1.845,1.846,1.846,0,0,1,1.846,1.845" transform="translate(-44.899 9780.746)" fill="#fff"/>
      <path id="Trazado_113679" data-name="Trazado 113679" d="M333.867,478.626a1.846,1.846,0,1,1-1.846-1.845,1.846,1.846,0,0,1,1.846,1.845" transform="translate(-88.453 9780.746)" fill="#fff"/>
      <path id="Trazado_113680" data-name="Trazado 113680" d="M127.167,527.953a1.846,1.846,0,1,1-1.846-1.846,1.846,1.846,0,0,1,1.846,1.846" transform="translate(85.763 9739.173)" fill="#fff"/>
      <path id="Trazado_113681" data-name="Trazado 113681" d="M178.842,527.953A1.846,1.846,0,1,1,177,526.107a1.846,1.846,0,0,1,1.846,1.846" transform="translate(42.209 9739.173)" fill="#fff"/>
      <path id="Trazado_113682" data-name="Trazado 113682" d="M230.517,527.953a1.846,1.846,0,1,1-1.846-1.846,1.846,1.846,0,0,1,1.846,1.846" transform="translate(-1.345 9739.173)" fill="#fff"/>
      <path id="Trazado_113683" data-name="Trazado 113683" d="M282.193,527.953a1.846,1.846,0,1,1-1.846-1.846,1.846,1.846,0,0,1,1.846,1.846" transform="translate(-44.899 9739.173)" fill="#fff"/>
      <path id="Trazado_113684" data-name="Trazado 113684" d="M333.867,527.953a1.846,1.846,0,1,1-1.846-1.846,1.846,1.846,0,0,1,1.846,1.846" transform="translate(-88.453 9739.173)" fill="#fff"/>
      <path id="Trazado_113685" data-name="Trazado 113685" d="M127.167,577.279a1.846,1.846,0,1,1-1.846-1.846,1.846,1.846,0,0,1,1.846,1.846" transform="translate(85.763 9697.598)" fill="#fff"/>
      <path id="Trazado_113686" data-name="Trazado 113686" d="M178.842,577.279A1.846,1.846,0,1,1,177,575.433a1.846,1.846,0,0,1,1.846,1.846" transform="translate(42.209 9697.598)" fill="#fff"/>
      <path id="Trazado_113687" data-name="Trazado 113687" d="M230.517,577.279a1.846,1.846,0,1,1-1.846-1.846,1.846,1.846,0,0,1,1.846,1.846" transform="translate(-1.345 9697.598)" fill="#fff"/>
      <path id="Trazado_113688" data-name="Trazado 113688" d="M282.193,577.279a1.846,1.846,0,1,1-1.846-1.846,1.846,1.846,0,0,1,1.846,1.846" transform="translate(-44.899 9697.598)" fill="#fff"/>
      <path id="Trazado_113689" data-name="Trazado 113689" d="M333.867,577.279a1.846,1.846,0,1,1-1.846-1.846,1.846,1.846,0,0,1,1.846,1.846" transform="translate(-88.453 9697.598)" fill="#fff"/>
      <rect id="Rectángulo_33843" data-name="Rectángulo 33843" width="32.423" height="7.584" transform="translate(325.81 10212.938)" fill="#ffa031"/>
    </g>
    <g id="Group_15_" data-name="Group (15)" transform="translate(236 11297.045)">
      <path id="Trazado_718580" data-name="Trazado 718580" d="M224.394,235.78H58.986a6.578,6.578,0,0,1-6.578-6.578V141.665A6.58,6.58,0,0,1,55,136.433l82.7-63.045a6.579,6.579,0,0,1,7.976,0l82.7,63.045a6.579,6.579,0,0,1,2.59,5.232V229.2A6.578,6.578,0,0,1,224.394,235.78Z" transform="translate(-29.425 -40.121)" fill="#7dc3f0"/>
      <path id="Trazado_718581" data-name="Trazado 718581" d="M338.7,235.781a6.578,6.578,0,0,0,6.578-6.578V141.666a6.58,6.58,0,0,0-2.59-5.232l-82.7-63.045A6.569,6.569,0,0,0,256,72.043V235.781Z" transform="translate(-143.735 -40.122)" fill="#4db1f0"/>
      <path id="Trazado_718582" data-name="Trazado 718582" d="M224.4,88.583a20.173,20.173,0,0,0-7.5-13.613l-.128-.1L124.88,5.01a20.19,20.19,0,0,0-25.229,0L7.751,74.87l-.128.1a20.3,20.3,0,0,0,10.441,36.036,20.709,20.709,0,0,0,2.282.127,20.147,20.147,0,0,0,12.569-4.392l79.349-60,79.349,60A20.305,20.305,0,0,0,224.4,88.583Z" transform="translate(0 0)" fill="#ffa031"/>
      <path id="Trazado_718583" data-name="Trazado 718583" d="M335.349,106.741A20.3,20.3,0,0,0,360.641,74.97l-.128-.1-91.9-69.86A20.254,20.254,0,0,0,256,.583V46.745Z" transform="translate(-143.735)" fill="#ffa031"/>
      <path id="Trazado_718584" data-name="Trazado 718584" d="M151.987,338.226H97.479V261.082a6.578,6.578,0,0,1,6.578-6.578h41.352a6.578,6.578,0,0,1,6.578,6.578Z" transform="translate(-54.731 -142.568)" fill="#1c466d"/>
      <path id="Trazado_718585" data-name="Trazado 718585" d="M339.655,309.012H298.3a6.578,6.578,0,0,1-6.578-6.578V261.082A6.578,6.578,0,0,1,298.3,254.5h41.352a6.578,6.578,0,0,1,6.578,6.578v41.352A6.578,6.578,0,0,1,339.655,309.012Z" transform="translate(-163.794 -142.568)" fill="#1c466d"/>
    </g>
  </g>
</svg>
