<svg xmlns="http://www.w3.org/2000/svg" width="400" height="281.406" viewBox="0 0 400 281.406">
  <g id="Grupo_1026671" data-name="Grupo 1026671" transform="translate(60.088 -0.575)">
    <g id="OBJECTS" transform="translate(24.911 6.262)">
      <g id="Grupo_1026670" data-name="Grupo 1026670">
        <g id="Grupo_1026597" data-name="Grupo 1026597">
          <g id="Grupo_1026595" data-name="Grupo 1026595">
            <g id="Grupo_1026584" data-name="Grupo 1026584">
              <g id="Grupo_1026570" data-name="Grupo 1026570" transform="translate(-85 8.614)">
                <path id="Trazado_719571" data-name="Trazado 719571" d="M390.676,256.569H65.135c-9.107,0-17.669-2.886-22.865-7.764-18.394-17.265-22.405-40.758-10.908-60.6,8.223-14.19,24.061-26.414,29.069-41.228,4.582-13.551-.447-27.584-1.724-41.435s2.621-29.485,19.661-37.8c13.937-6.8,33.492-6.813,49.907-3.046s30.5,10.795,44.59,17.459,28.917,13.2,45.88,15.739c19.521,2.919,39.9.256,59.358-2.849s39.227-6.682,59.183-5.566,40.559,8.075,47.778,20.258c8.278,13.968-2.926,30.116,3.353,44.52,3.846,8.821,13.746,15.862,21.278,23.606,18.379,18.895,19.282,45.179,7.138,66.836C412.829,251.849,402.341,256.569,390.676,256.569Z" transform="translate(-24.911 -38.391)" fill="#dcf2ff"/>
                <path id="Trazado_719572" data-name="Trazado 719572" d="M246.1,72.828c5-.658,10.084-1.915,14.117-4.94,7.539-5.658,9.651-16.811,6.192-25.58s-11.564-15.134-20.462-18.246-18.557-3.315-27.955-2.579c-7.688.6-15.52,1.874-22.239,5.66-5.449,3.071-10.669,8.447-12.328,14.635-1.444,5.388,1.472,9.664,5.29,13.211,9.684,9,22.626,14.874,35.553,17.239A70.465,70.465,0,0,0,246.1,72.828Z" transform="translate(-18.924 -21.127)" fill="#dcf2ff"/>
              </g>
              <g id="Grupo_1026583" data-name="Grupo 1026583" transform="translate(44.339)">
                <g id="Grupo_1026572" data-name="Grupo 1026572" transform="translate(119.728 10.221)">
                  <path id="Trazado_719701" data-name="Trazado 719701" d="M22.966,0A22.967,22.967,0,1,1,0,22.967,22.966,22.966,0,0,1,22.966,0Z" transform="translate(0 0)" fill="#9ecdeb"/>
                  <g id="Grupo_1026571" data-name="Grupo 1026571" transform="translate(8.707 6.005)">
                    <path id="Trazado_719573" data-name="Trazado 719573" d="M315.006,66.514l-5.755,2.637a3.046,3.046,0,0,1-2.534,0l-5.755-2.637a12.4,12.4,0,0,1-7.237-11.276V44.858a3.015,3.015,0,0,1,1.534-2.627l11.244-6.34a3.015,3.015,0,0,1,2.962,0l11.244,6.34a3.015,3.015,0,0,1,1.534,2.627V55.237A12.4,12.4,0,0,1,315.006,66.514Z" transform="translate(-293.724 -35.502)" fill="#fff"/>
                    <path id="Trazado_719574" data-name="Trazado 719574" d="M318.772,52.191h-6.125V46.066h-5.842v6.125h-6.125v5.842h6.125v6.125h5.842V58.033h6.125Z" transform="translate(-295.467 -38.149)" fill="#115089"/>
                  </g>
                </g>
                <g id="Grupo_1026575" data-name="Grupo 1026575" transform="translate(195.81 46.3)">
                  <circle id="Elipse_8522" data-name="Elipse 8522" cx="28.341" cy="28.341" r="28.341" transform="translate(0)" fill="#9ecdeb"/>
                  <g id="Grupo_1026574" data-name="Grupo 1026574" transform="translate(2.699 12.799)">
                    <path id="Trazado_719575" data-name="Trazado 719575" d="M357.277,120.509a11.431,11.431,0,0,0-16.168,0l-2.534,2.533-2.533-2.533a11.432,11.432,0,0,0-16.169,0h0a11.433,11.433,0,0,0,0,16.168l2.534,2.533,16.168,16.169,16.169-16.169h0l2.533-2.533A11.433,11.433,0,0,0,357.277,120.509Z" transform="translate(-312.934 -117.16)" fill="#115089"/>
                    <g id="Grupo_1026573" data-name="Grupo 1026573" transform="translate(0 2.316)">
                      <path id="Trazado_719576" data-name="Trazado 719576" d="M335.938,151.428l-5.491-18.489-2.234,6.256H312.752v-2.25h13.875l4.017-11.248,4.493,15.127,2.944-21.23,4.343,17.522,3.119-11.663,3.924,11.492h14.567v2.25H347.857l-2.052-6.011-3.464,12.952-3.636-14.666Z" transform="translate(-312.752 -119.594)" fill="#fff"/>
                    </g>
                  </g>
                </g>
                <g id="Grupo_1026580" data-name="Grupo 1026580" transform="translate(-94 42.13)">
                  <circle id="Elipse_8523" data-name="Elipse 8523" cx="26.93" cy="26.93" r="26.93" transform="translate(0 38.085) rotate(-45)" fill="#9ecdeb"/>
                  <g id="Grupo_1026579" data-name="Grupo 1026579" transform="translate(22.429 21.505)">
                    <g id="Grupo_1026576" data-name="Grupo 1026576">
                      <path id="Trazado_719577" data-name="Trazado 719577" d="M125.736,115.748v8.277a7.242,7.242,0,0,0,14.485,0v-8.277Z" transform="translate(-125.736 -100.229)" fill="#fff"/>
                      <path id="Trazado_719578" data-name="Trazado 719578" d="M140.221,106.173a7.242,7.242,0,1,0-14.485,0v8.276h14.485Z" transform="translate(-125.736 -98.93)" fill="#115089"/>
                    </g>
                    <g id="Grupo_1026577" data-name="Grupo 1026577" transform="translate(1.821 8.872)">
                      <path id="Trazado_719579" data-name="Trazado 719579" d="M140.373,124.025v-8.277h-6.648l-2.935,2.936a10.557,10.557,0,0,0-2.6,10.629,7.234,7.234,0,0,0,12.179-5.288Z" transform="translate(-127.709 -109.101)" fill="#e4e4e0"/>
                    </g>
                    <g id="Grupo_1026578" data-name="Grupo 1026578" transform="translate(5.122 6.97)">
                      <path id="Trazado_719581" data-name="Trazado 719581" d="M139.26,115.124l-5.852,5.853a7.242,7.242,0,0,0,10.242,10.242l5.852-5.852Z" transform="translate(-131.286 -107.151)" fill="#fff"/>
                      <path id="Trazado_719582" data-name="Trazado 719582" d="M156.022,118.846A7.242,7.242,0,0,0,145.78,108.6l-5.853,5.852L150.169,124.7Z" transform="translate(-131.954 -106.483)" fill="#115089"/>
                    </g>
                  </g>
                </g>
                <g id="Grupo_1026582" data-name="Grupo 1026582" transform="translate(1.002 -5.688)">
                  <path id="Trazado_719700" data-name="Trazado 719700" d="M21.093,0A21.093,21.093,0,1,1,0,21.093,21.093,21.093,0,0,1,21.093,0Z" transform="translate(0 29.83) rotate(-45)" fill="#9ecdeb"/>
                  <g id="Grupo_1026581" data-name="Grupo 1026581" transform="translate(15.57 15.881)">
                    <rect id="Rectángulo_347437" data-name="Rectángulo 347437" width="6.773" height="17.81" transform="translate(18.526 4.582) rotate(45)" fill="#fff"/>
                    <rect id="Rectángulo_347438" data-name="Rectángulo 347438" width="15.803" height="4.766" transform="translate(21.896 9.371) rotate(135)" fill="#c7d2d7"/>
                    <rect id="Rectángulo_347439" data-name="Rectángulo 347439" width="11.539" height="1.296" transform="translate(4.247 15.491) rotate(45)" fill="#fff"/>
                    <rect id="Rectángulo_347440" data-name="Rectángulo 347440" width="3.177" height="1.965" transform="translate(21.186 4.464) rotate(45)" fill="#c7d2d7"/>
                    <path id="Trazado_719583" data-name="Trazado 719583" d="M214.981,33.351l-.621-.621,5.277-5.277h1.242Z" transform="translate(-192.361 -27.453)" fill="#99a3b0"/>
                    <rect id="Rectángulo_347441" data-name="Rectángulo 347441" width="2.592" height="5.769" transform="translate(6.494 19.57) rotate(45.001)" fill="#c7d2d7"/>
                    <rect id="Rectángulo_347442" data-name="Rectángulo 347442" width="7.54" height="0.941" transform="translate(0.665 21.9) rotate(45)" fill="#fff"/>
                    <rect id="Rectángulo_347443" data-name="Rectángulo 347443" width="2.592" height="1.928" transform="translate(6.494 19.57) rotate(44.999)" fill="#99a3b0"/>
                    <path id="Trazado_719584" data-name="Trazado 719584" d="M206.934,39.79l-6.178,6.178a1.713,1.713,0,0,1-2.424,0l-.946-.946-2.572,2.572,2.158,2.158,1.212,1.212,2.572-2.572,8.6-8.6h0A1.715,1.715,0,0,0,206.934,39.79Z" transform="translate(-187.463 -30.419)" fill="#115089"/>
                  </g>
                </g>
              </g>
            </g>
          </g>
          <g id="Grupo_1026596" data-name="Grupo 1026596" transform="translate(-54.866 223.133)">
            <path id="Trazado_719595" data-name="Trazado 719595" d="M384.487,399.286h0a1.55,1.55,0,0,0-1.44-1.642H33.527a1.55,1.55,0,0,0-1.44,1.642h0a1.551,1.551,0,0,0,1.44,1.642h27a1.551,1.551,0,0,1,1.44,1.642h0a1.551,1.551,0,0,1-1.44,1.642H54.794a1.55,1.55,0,0,0-1.439,1.642h0a1.551,1.551,0,0,0,1.439,1.642H371.913a1.551,1.551,0,0,0,1.439-1.642h0a1.55,1.55,0,0,0-1.439-1.642H314.881a1.551,1.551,0,0,1-1.44-1.642h0a1.551,1.551,0,0,1,1.44-1.642h68.166A1.551,1.551,0,0,0,384.487,399.286Z" transform="translate(-32.087 -397.644)" fill="#4db1f0"/>
            <rect id="Rectángulo_347444" data-name="Rectángulo 347444" width="5.414" height="2.064" rx="1.032" transform="translate(6.686 7.786)" fill="#4db1f0"/>
          </g>
        </g>
        <g id="Grupo_1026669" data-name="Grupo 1026669" transform="translate(19.299 39.227)">
          <g id="Grupo_1026630" data-name="Grupo 1026630" transform="translate(52.01)">
            <g id="Grupo_1026598" data-name="Grupo 1026598" transform="translate(0.805 108.133)">
              <path id="Trazado_719596" data-name="Trazado 719596" d="M173.258,264.706l-19.892-4.139-3.784,35.163a38.312,38.312,0,0,0-.2,5.39l1.3,38.878h18.992V298.591Z" transform="translate(-149.361 -260.567)" fill="#bd6c67"/>
              <path id="Trazado_719597" data-name="Trazado 719597" d="M156.036,260.567l19.892,4.139-.791,7.469-19.427-8.581Z" transform="translate(-152.031 -260.567)" fill="#a64f5a"/>
            </g>
            <g id="Grupo_1026599" data-name="Grupo 1026599" transform="translate(93.541 108.133)">
              <path id="Trazado_719598" data-name="Trazado 719598" d="M309.4,264.706l19.892-4.139,3.784,35.163a38.309,38.309,0,0,1,.2,5.39L331.979,340H312.986V298.591Z" transform="translate(-309.399 -260.567)" fill="#bd6c67"/>
              <path id="Trazado_719599" data-name="Trazado 719599" d="M329.291,260.567,309.4,264.706l.791,7.469,19.427-8.581Z" transform="translate(-309.399 -260.567)" fill="#a64f5a"/>
            </g>
            <g id="Grupo_1026612" data-name="Grupo 1026612" transform="translate(0 67.847)">
              <path id="Trazado_719600" data-name="Trazado 719600" d="M241.513,255.168c4.6-8.811,2.736-17.512,2.087-20.111l22.615-4.728L259.108,212.2A25.508,25.508,0,0,0,243,197.177l-19.546-6.133c-2.287,4.764-6.75,10.829-16.359,10.829s-14.073-6.065-16.359-10.829l-19.546,6.133a25.507,25.507,0,0,0-16.11,15.026l-7.107,18.126,22.615,4.728c-.65,2.6-2.511,11.3,2.087,20.111,0,0,2.215,16.611,2.215,25.187s-7.2,17.412-7.2,30.406H246.5c0-12.994-7.2-21.83-7.2-30.406S241.513,255.168,241.513,255.168Z" transform="translate(-147.972 -191.044)" fill="#ffa031"/>
              <path id="Trazado_719601" data-name="Trazado 719601" d="M170.587,259.06l1.754-6.5-21.934-4.444-2.436,6.213Z" transform="translate(-147.972 -215.046)" fill="#fff"/>
              <path id="Trazado_719602" data-name="Trazado 719602" d="M254.111,191.439l-1.26-.4c-2.287,4.764-6.75,10.829-16.359,10.829s-14.073-6.065-16.359-10.829l-1.26.4c-2.032,6.032-.756,12.994,2.077,18.693a36.6,36.6,0,0,0,9.234,11.434,2.415,2.415,0,0,0,3.941-1.469,85.4,85.4,0,0,1,2.367-10.157,85.4,85.4,0,0,1,2.367,10.157,2.415,2.415,0,0,0,3.941,1.469,36.6,36.6,0,0,0,9.234-11.434C254.866,204.434,256.143,197.471,254.111,191.439Z" transform="translate(-177.37 -191.044)" fill="#c77412"/>
              <path id="Trazado_719603" data-name="Trazado 719603" d="M254.432,191.439l-1.26-.4c-2.287,4.764-6.75,10.829-16.359,10.829s-14.073-6.065-16.359-10.829l-1.26.4a24.247,24.247,0,0,0,.835,13.226c1.233,3.455,4.876,8.039,8.341,11.344a3.122,3.122,0,0,0,5.073-1.121l3.37-8.7,3.37,8.7a3.122,3.122,0,0,0,5.073,1.121c3.465-3.305,7.109-7.889,8.341-11.344A24.247,24.247,0,0,0,254.432,191.439Z" transform="translate(-177.691 -191.044)" fill="#fff"/>
              <g id="Grupo_1026605" data-name="Grupo 1026605" transform="translate(18.794 28.187)">
                <g id="Grupo_1026600" data-name="Grupo 1026600" transform="translate(0.779 73.742)">
                  <path id="Trazado_719604" data-name="Trazado 719604" d="M221.3,384.88H181.75v-.145c0-7.173,2.273-13.308,3.933-17.788l.271.1c-2.126,5.738-3.888,11.024-3.914,17.542H221.3Z" transform="translate(-181.75 -366.947)" fill="#422c4f"/>
                </g>
                <g id="Grupo_1026601" data-name="Grupo 1026601" transform="translate(25.901 35.792)">
                  <path id="Trazado_719605" data-name="Trazado 719605" d="M225.248,307.822a.145.145,0,0,1-.016-.289c.606-.07,1.211-.158,1.8-.261,5.228-.917,9-2.958,10.634-5.745a.145.145,0,1,1,.25.146c-1.673,2.863-5.521,4.952-10.834,5.884-.6.1-1.207.193-1.817.264Z" transform="translate(-225.103 -301.455)" fill="#422c4f"/>
                </g>
                <g id="Grupo_1026602" data-name="Grupo 1026602">
                  <path id="Trazado_719606" data-name="Trazado 719606" d="M187.208,244.718a.143.143,0,0,1-.112-.053,16.691,16.691,0,0,0-6.59-4.694.145.145,0,1,1,.09-.275,17,17,0,0,1,6.724,4.786.144.144,0,0,1-.02.2A.143.143,0,0,1,187.208,244.718Z" transform="translate(-180.406 -239.688)" fill="#422c4f"/>
                </g>
                <g id="Grupo_1026603" data-name="Grupo 1026603" transform="translate(0 3.682)">
                  <path id="Trazado_719607" data-name="Trazado 719607" d="M186.733,249.131a.145.145,0,0,1-.141-.115c-.147-.7-2.424-2.685-5.973-2.685a.548.548,0,0,1-.068,0,.145.145,0,0,1,0-.29h.07c3.666,0,6.077,2.063,6.256,2.915a.145.145,0,0,1-.112.172Z" transform="translate(-180.406 -246.041)" fill="#422c4f"/>
                </g>
                <g id="Grupo_1026604" data-name="Grupo 1026604" transform="translate(2.75 0.795)">
                  <path id="Trazado_719608" data-name="Trazado 719608" d="M192.426,280.107a.141.141,0,0,1-.068-.017,9.631,9.631,0,0,1-4.177-3.82,28.9,28.9,0,0,1-2.1-20.214l4.057-14.891a.145.145,0,1,1,.279.076l-4.056,14.887a28.606,28.606,0,0,0,2.075,20.007,9.359,9.359,0,0,0,4.056,3.7.145.145,0,0,1-.068.272Z" transform="translate(-185.152 -241.059)" fill="#422c4f"/>
                </g>
              </g>
              <path id="Trazado_719609" data-name="Trazado 719609" d="M311.727,259.06l-1.754-6.5,21.934-4.444,2.436,6.213Z" transform="translate(-216.099 -215.046)" fill="#fff"/>
              <g id="Grupo_1026611" data-name="Grupo 1026611" transform="translate(59.122 28.187)">
                <g id="Grupo_1026606" data-name="Grupo 1026606" transform="translate(0 73.742)">
                  <path id="Trazado_719610" data-name="Trazado 719610" d="M250,384.88h39.548v-.145c0-7.173-2.273-13.308-3.933-17.788l-.271.1c2.126,5.738,3.888,11.024,3.914,17.542H250Z" transform="translate(-250 -366.947)" fill="#422c4f"/>
                </g>
                <g id="Grupo_1026607" data-name="Grupo 1026607" transform="translate(1.593 35.792)">
                  <path id="Trazado_719611" data-name="Trazado 719611" d="M265.438,307.822a.145.145,0,0,0,.017-.289c-.606-.07-1.211-.158-1.8-.261-5.228-.917-9-2.958-10.634-5.745a.145.145,0,1,0-.25.146c1.674,2.863,5.521,4.952,10.834,5.884.6.1,1.206.193,1.817.264Z" transform="translate(-252.75 -301.455)" fill="#422c4f"/>
                </g>
                <g id="Grupo_1026608" data-name="Grupo 1026608" transform="translate(33.38)">
                  <path id="Trazado_719612" data-name="Trazado 719612" d="M307.75,244.718a.144.144,0,0,0,.112-.053,16.691,16.691,0,0,1,6.59-4.694.145.145,0,1,0-.09-.275,17,17,0,0,0-6.724,4.786.144.144,0,0,0,.02.2A.143.143,0,0,0,307.75,244.718Z" transform="translate(-307.606 -239.688)" fill="#422c4f"/>
                </g>
                <g id="Grupo_1026609" data-name="Grupo 1026609" transform="translate(33.855 3.682)">
                  <path id="Trazado_719613" data-name="Trazado 719613" d="M308.57,249.131a.145.145,0,0,0,.141-.115c.147-.7,2.424-2.685,5.973-2.685a.548.548,0,0,0,.068,0,.145.145,0,0,0,0-.29h-.07c-3.666,0-6.077,2.063-6.256,2.915a.145.145,0,0,0,.112.172Z" transform="translate(-308.424 -246.041)" fill="#422c4f"/>
                </g>
                <g id="Grupo_1026610" data-name="Grupo 1026610" transform="translate(30.158 0.795)">
                  <path id="Trazado_719614" data-name="Trazado 719614" d="M302.19,280.107a.144.144,0,0,0,.068-.017,9.635,9.635,0,0,0,4.177-3.82,28.9,28.9,0,0,0,2.1-20.214l-4.057-14.891a.145.145,0,1,0-.279.076l4.056,14.887a28.606,28.606,0,0,1-2.075,20.007,9.36,9.36,0,0,1-4.056,3.7.145.145,0,0,0,.068.272Z" transform="translate(-302.045 -241.059)" fill="#422c4f"/>
                </g>
              </g>
            </g>
            <g id="Grupo_1026613" data-name="Grupo 1026613" transform="translate(42.762 56.457)">
              <path id="Trazado_719615" data-name="Trazado 719615" d="M254.487,182.777,248,180.743v-9.356h-19.75v9.356l-6.484,2.034c2.287,4.764,6.75,10.829,16.359,10.829h0C247.737,193.606,252.2,187.541,254.487,182.777Z" transform="translate(-221.768 -171.387)" fill="#bd6c67"/>
              <path id="Trazado_719616" data-name="Trazado 719616" d="M242.833,171.387h-9.875V173.4c2.274,4.544,7.5,6.1,9.875,6.1s7.6-1.559,9.875-6.1v-2.018Z" transform="translate(-226.474 -171.387)" fill="#4c1237"/>
            </g>
            <g id="Grupo_1026618" data-name="Grupo 1026618" transform="translate(17.651)">
              <circle id="Elipse_8525" data-name="Elipse 8525" cx="14.554" cy="14.554" r="14.554" transform="translate(0 47.614) rotate(-45)"/>
              <circle id="Elipse_8526" data-name="Elipse 8526" cx="14.554" cy="14.554" r="14.554" transform="matrix(0.389, -0.921, 0.921, 0.389, 43.291, 55.368)"/>
              <g id="Grupo_1026614" data-name="Grupo 1026614" transform="translate(12.468 36.572)">
                <circle id="Elipse_8527" data-name="Elipse 8527" cx="6.645" cy="6.645" r="6.645" transform="translate(0 13.192) rotate(-83.001)" fill="#a64f5a"/>
                <path id="Trazado_719617" data-name="Trazado 719617" d="M213.688,147.311a3.5,3.5,0,1,1-3.5-3.5A3.5,3.5,0,0,1,213.688,147.311Z" transform="translate(-202.784 -139.906)" fill="#8c404c"/>
              </g>
              <g id="Grupo_1026615" data-name="Grupo 1026615" transform="translate(55.079 35.988)">
                <circle id="Elipse_8528" data-name="Elipse 8528" cx="6.645" cy="6.645" r="6.645" transform="translate(0 3.039) rotate(-13.216)" fill="#a64f5a"/>
                <path id="Trazado_719618" data-name="Trazado 719618" d="M281.234,147.311a3.5,3.5,0,1,0,3.5-3.5A3.5,3.5,0,0,0,281.234,147.311Z" transform="translate(-276.744 -139.323)" fill="#8c404c"/>
              </g>
              <path id="Trazado_719619" data-name="Trazado 719619" d="M234.018,84.268h0A22.022,22.022,0,0,0,212,106.289V107.4a22.022,22.022,0,0,0,.578,5.013l3.2,13.682a15.841,15.841,0,0,0,6.941,9.771l2.427,1.539a16.576,16.576,0,0,0,8.877,2.577h0a16.576,16.576,0,0,0,8.877-2.577l2.427-1.539a15.841,15.841,0,0,0,6.941-9.771l3.2-13.682a22.023,22.023,0,0,0,.578-5.013v-1.107A22.021,22.021,0,0,0,234.018,84.268Z" transform="translate(-192.547 -78.293)" fill="#bd6c67"/>
              <g id="Grupo_1026616" data-name="Grupo 1026616" transform="translate(24.992 25.914)">
                <path id="Trazado_719620" data-name="Trazado 719620" d="M227.577,118.685a7.722,7.722,0,0,0-6.014,3.331l12.3-.548A7.723,7.723,0,0,0,227.577,118.685Z" transform="translate(-221.563 -118.678)"/>
              </g>
              <g id="Grupo_1026617" data-name="Grupo 1026617" transform="translate(45.648 25.914)">
                <path id="Trazado_719621" data-name="Trazado 719621" d="M263.5,118.685a7.724,7.724,0,0,1,6.015,3.331l-12.3-.548A7.723,7.723,0,0,1,263.5,118.685Z" transform="translate(-257.209 -118.678)"/>
              </g>
              <path id="Trazado_719622" data-name="Trazado 719622" d="M251.02,151.221h-7.437a11.061,11.061,0,0,0,1.876,1.362,3.853,3.853,0,0,0,2.256.558A6.588,6.588,0,0,0,251.02,151.221Z" transform="translate(-205.831 -106.45)" fill="#a64f5a"/>
              <path id="Trazado_719623" data-name="Trazado 719623" d="M251.857,167.337h-6.306a5.155,5.155,0,0,0,3.112,1.213A5.387,5.387,0,0,0,251.857,167.337Z" transform="translate(-206.659 -113.227)" fill="#a64f5a"/>
              <path id="Trazado_719624" data-name="Trazado 719624" d="M230.939,130.262a2.016,2.016,0,0,0-1.446.61,23.054,23.054,0,0,1-2.279-1.064,4.533,4.533,0,0,0,1.753,2.031,2.024,2.024,0,1,0,1.972-1.577Z" transform="translate(-198.947 -97.445)"/>
              <path id="Trazado_719625" data-name="Trazado 719625" d="M264.887,130.262a2.016,2.016,0,0,1,1.446.61,23.056,23.056,0,0,0,2.279-1.064,4.533,4.533,0,0,1-1.753,2.031,2.024,2.024,0,1,1-1.972-1.577Z" transform="translate(-213.938 -97.445)"/>
              <path id="Trazado_719626" data-name="Trazado 719626" d="M252.027,155.888a18.734,18.734,0,0,1-14.928.321c1.761,2.623,4.521,4.559,7.328,4.547S250.281,158.526,252.027,155.888Z" transform="translate(-203.104 -108.412)" fill="#fff"/>
              <path id="Trazado_719627" data-name="Trazado 719627" d="M252.734,83.047c-4.684-6.4-13.191-9.344-21.117-9.072-7.926-.272-16.433,2.673-21.118,9.072-3.912,5.343-4.793,12.434-3.823,18.984s3.977,13.171,6.6,19.254L210.4,105c2.785-3.129,2.06-8.114,4.2-11.714a11.092,11.092,0,0,1,7.572-4.8,34.609,34.609,0,0,1,9.445-.149,34.6,34.6,0,0,1,9.444.149,11.094,11.094,0,0,1,7.572,4.8c2.141,3.6,1.416,8.585,4.2,11.714l-2.874,16.28c2.62-6.083,5.627-12.7,6.6-19.254S256.646,88.39,252.734,83.047Z" transform="translate(-190.158 -73.957)"/>
            </g>
            <g id="Grupo_1026629" data-name="Grupo 1026629" transform="translate(38.18 72.297)">
              <g id="Grupo_1026619" data-name="Grupo 1026619" transform="translate(33.226 0.95)">
                <path id="Trazado_719628" data-name="Trazado 719628" d="M271.33,203.573a.13.13,0,0,1-.087-.227,17.648,17.648,0,0,0,2.61-2.929.13.13,0,1,1,.212.149,17.826,17.826,0,0,1-2.649,2.973A.13.13,0,0,1,271.33,203.573Z" transform="translate(-271.2 -200.361)" fill="#422c4f"/>
              </g>
              <g id="Grupo_1026620" data-name="Grupo 1026620" transform="translate(29.967 5.188)">
                <path id="Trazado_719629" data-name="Trazado 719629" d="M265.706,209a.13.13,0,0,1-.064-.243,18.9,18.9,0,0,0,1.646-1.055.129.129,0,0,1,.181.03.13.13,0,0,1-.03.181,19.115,19.115,0,0,1-1.668,1.069A.129.129,0,0,1,265.706,209Z" transform="translate(-265.576 -207.676)" fill="#422c4f"/>
              </g>
              <g id="Grupo_1026621" data-name="Grupo 1026621" transform="translate(11.481 6.078)">
                <path id="Trazado_719630" data-name="Trazado 719630" d="M243.143,212.109q-.263,0-.525-.008a18.524,18.524,0,0,1-8.881-2.646.13.13,0,0,1,.133-.224,17.8,17.8,0,0,0,15.946,1.327.13.13,0,0,1,.1.242A18.549,18.549,0,0,1,243.143,212.109Z" transform="translate(-233.673 -209.212)" fill="#422c4f"/>
              </g>
              <g id="Grupo_1026622" data-name="Grupo 1026622" transform="translate(5.257)">
                <path id="Trazado_719631" data-name="Trazado 719631" d="M226.446,202.986a.13.13,0,0,1-.086-.032,18.011,18.011,0,0,1-3.408-4.033.13.13,0,1,1,.221-.136,17.757,17.757,0,0,0,3.359,3.975.13.13,0,0,1-.086.227Z" transform="translate(-222.932 -198.723)" fill="#422c4f"/>
              </g>
              <g id="Grupo_1026623" data-name="Grupo 1026623" transform="translate(31.075 5.406)">
                <path id="Trazado_719632" data-name="Trazado 719632" d="M267.617,218.855a.13.13,0,0,1-.094-.22,24.5,24.5,0,0,0,5.942-10.489.13.13,0,0,1,.251.068,24.77,24.77,0,0,1-6,10.6A.129.129,0,0,1,267.617,218.855Z" transform="translate(-267.487 -208.052)" fill="#422c4f"/>
              </g>
              <g id="Grupo_1026624" data-name="Grupo 1026624" transform="translate(5.325 7.612)">
                <path id="Trazado_719633" data-name="Trazado 719633" d="M224.613,215.655a.132.132,0,0,1-.115-.07,19.1,19.1,0,0,1-1.443-3.56.13.13,0,1,1,.249-.073,18.9,18.9,0,0,0,1.424,3.512.129.129,0,0,1-.054.175A.126.126,0,0,1,224.613,215.655Z" transform="translate(-223.049 -211.859)" fill="#422c4f"/>
              </g>
              <g id="Grupo_1026625" data-name="Grupo 1026625" transform="translate(0 67.413)">
                <path id="Trazado_719634" data-name="Trazado 719634" d="M224.151,321.264a.13.13,0,0,1-.008-.26c8.97-.519,18.319-2.885,27.174-5.466a173.6,173.6,0,0,1-37.338.708.13.13,0,0,1-.118-.141.126.126,0,0,1,.141-.118,173.273,173.273,0,0,0,38.95-.928.13.13,0,0,1,.055.253c-9.344,2.765-19.307,5.4-28.849,5.952Z" transform="translate(-213.86 -315.059)" fill="#422c4f"/>
              </g>
              <g id="Grupo_1026626" data-name="Grupo 1026626" transform="translate(0.75 78.834)">
                <path id="Trazado_719635" data-name="Trazado 719635" d="M244.086,338.52a120.751,120.751,0,0,1-28.832-3.5.13.13,0,0,1,.062-.253,120.446,120.446,0,0,0,40.549,2.913.126.126,0,0,1,.142.117.13.13,0,0,1-.117.142Q249.986,338.521,244.086,338.52Z" transform="translate(-215.154 -334.769)" fill="#422c4f"/>
              </g>
              <g id="Grupo_1026627" data-name="Grupo 1026627" transform="translate(5.803 82.704)">
                <path id="Trazado_719636" data-name="Trazado 719636" d="M247.745,345.895a69.428,69.428,0,0,1-23.785-4.2.13.13,0,0,1-.078-.166.129.129,0,0,1,.167-.077,69.2,69.2,0,0,0,32.731,3.582.13.13,0,0,1,.035.258A68.853,68.853,0,0,1,247.745,345.895Z" transform="translate(-223.875 -341.448)" fill="#422c4f"/>
              </g>
              <g id="Grupo_1026628" data-name="Grupo 1026628" transform="translate(4.56 86.609)">
                <path id="Trazado_719637" data-name="Trazado 719637" d="M254.216,359.108a54.858,54.858,0,0,1-32.435-10.687.13.13,0,1,1,.155-.208,54.489,54.489,0,0,0,36.555,10.46.127.127,0,0,1,.14.119.129.129,0,0,1-.119.14Q256.371,359.11,254.216,359.108Z" transform="translate(-221.729 -348.187)" fill="#422c4f"/>
              </g>
            </g>
          </g>
          <g id="Grupo_1026631" data-name="Grupo 1026631" transform="translate(0 232.706)">
            <path id="Trazado_719638" data-name="Trazado 719638" d="M127.441,476.178h0a.631.631,0,0,0-.63-.631H58.847a.631.631,0,0,0-.631.631h0a.631.631,0,0,0,.631.631H70.675a.631.631,0,0,1,.631.631h0a.631.631,0,0,1-.631.63H68.164a.631.631,0,0,0-.63.631h0a.631.631,0,0,0,.63.631h53.768a.631.631,0,0,0,.631-.631h0a.631.631,0,0,0-.631-.631H96.947a.63.63,0,0,1-.63-.63h0a.63.63,0,0,1,.63-.631H126.81A.631.631,0,0,0,127.441,476.178Z" transform="translate(-58.216 -475.547)" fill="#4db1f0"/>
            <path id="Trazado_719639" data-name="Trazado 719639" d="M65.9,481.164h2.048a.631.631,0,0,0,.631-.631h0a.631.631,0,0,0-.631-.631H65.9a.631.631,0,0,0-.631.631h0A.631.631,0,0,0,65.9,481.164Z" transform="translate(-61.182 -477.378)" fill="#4db1f0"/>
          </g>
          <g id="Grupo_1026632" data-name="Grupo 1026632" transform="translate(163.364 232.706)">
            <path id="Trazado_719640" data-name="Trazado 719640" d="M409.365,476.178h0a.631.631,0,0,0-.631-.631H340.77a.631.631,0,0,0-.63.631h0a.631.631,0,0,0,.63.631H352.6a.63.63,0,0,1,.63.631h0a.63.63,0,0,1-.63.63h-2.511a.631.631,0,0,0-.631.631h0a.631.631,0,0,0,.631.631h53.768a.631.631,0,0,0,.631-.631h0a.631.631,0,0,0-.631-.631H378.871a.631.631,0,0,1-.631-.63h0a.631.631,0,0,1,.631-.631h29.863A.631.631,0,0,0,409.365,476.178Z" transform="translate(-340.14 -475.547)" fill="#4db1f0"/>
            <path id="Trazado_719641" data-name="Trazado 719641" d="M347.824,481.164h2.048a.631.631,0,0,0,.63-.631h0a.631.631,0,0,0-.63-.631h-2.048a.631.631,0,0,0-.63.631h0A.631.631,0,0,0,347.824,481.164Z" transform="translate(-343.106 -477.378)" fill="#4db1f0"/>
          </g>
          <g id="Grupo_1026655" data-name="Grupo 1026655" transform="translate(124.852 53.354)">
            <g id="Grupo_1026636" data-name="Grupo 1026636" transform="translate(45.484)">
              <path id="Trazado_719642" data-name="Trazado 719642" d="M367.922,193.927a5.666,5.666,0,0,1-5.258-1.069,9.341,9.341,0,0,1-2.951-4.658,27.852,27.852,0,0,1-.9-5.517c-.208-2.191-.373-4.574.829-6.419a8.172,8.172,0,0,1,4.867-3,10.052,10.052,0,0,1,6.122-.1,8.666,8.666,0,0,1,4.931,5.995,25.623,25.623,0,0,1,.464,8.012l-.266,5.619.825,3.653-7.861,1.148Z" transform="translate(-354.902 -168.846)" fill="#eba58e"/>
              <path id="Trazado_719643" data-name="Trazado 719643" d="M373.22,213.171l.526-2.663,9.414-1.3.642,2.417Z" transform="translate(-361.022 -184.189)" fill="#7dd3e9"/>
              <path id="Trazado_719644" data-name="Trazado 719644" d="M372.618,172.19a4.829,4.829,0,0,0-4.437-4.564c-1.691-.079-3.344.761-5.027.577-2-.218-3.616-1.826-5.6-2.125a4.866,4.866,0,0,0-5.078,3.1A5.546,5.546,0,0,0,354,175.045a6.752,6.752,0,0,0,6.174,1.307,4.541,4.541,0,0,0,1.748,4.264,5.1,5.1,0,0,0,1.212,4.718,4.644,4.644,0,0,1,1.164-3.375,1.926,1.926,0,0,1,2.341-.261,2.27,2.27,0,0,1,.807,1.606,4.23,4.23,0,0,1-2.943,4.535,10.454,10.454,0,0,0,8.526,2.137c1.845-.342,2.789-2.761,3.359-4.548a28.459,28.459,0,0,0,1-5.529,15.651,15.651,0,0,0,.121-3.451,5.394,5.394,0,0,0-1.321-3.133A4.178,4.178,0,0,0,372.618,172.19Z" transform="translate(-352.17 -166.032)"/>
              <g id="Grupo_1026635" data-name="Grupo 1026635" transform="translate(11.62 16.268)">
                <g id="Grupo_1026633" data-name="Grupo 1026633">
                  <path id="Trazado_719645" data-name="Trazado 719645" d="M372.784,198.475a.476.476,0,0,1-.159-.027c-.155-.056-.348-.22-.387-.684a4.628,4.628,0,0,1,.875-3.09,1.157,1.157,0,0,1,.849-.568.927.927,0,0,1,.819.525,2.541,2.541,0,0,1,.235.894.13.13,0,0,1-.258.034,2.3,2.3,0,0,0-.205-.8.7.7,0,0,0-.564-.39h-.017a.926.926,0,0,0-.65.463,4.365,4.365,0,0,0-.825,2.914c.015.18.065.407.217.461a.292.292,0,0,0,.271-.069.746.746,0,0,0,.194-.305,1.918,1.918,0,0,0,.057-1.238.13.13,0,0,1,.25-.072,2.183,2.183,0,0,1-.065,1.406,1.019,1.019,0,0,1-.267.408A.576.576,0,0,1,372.784,198.475Z" transform="translate(-372.223 -194.106)" fill="#422c4f"/>
                </g>
                <g id="Grupo_1026634" data-name="Grupo 1026634" transform="translate(0.415 1.033)">
                  <path id="Trazado_719646" data-name="Trazado 719646" d="M373.068,196.391a.126.126,0,0,1-.1-.049.13.13,0,0,1,.019-.183,1.276,1.276,0,0,1,1.363-.13.13.13,0,0,1-.122.229,1.009,1.009,0,0,0-1.078.1A.128.128,0,0,1,373.068,196.391Z" transform="translate(-372.938 -195.89)" fill="#422c4f"/>
                </g>
              </g>
            </g>
            <g id="Grupo_1026639" data-name="Grupo 1026639" transform="translate(0 31.686)">
              <g id="Grupo_1026637" data-name="Grupo 1026637">
                <path id="Trazado_719647" data-name="Trazado 719647" d="M288.512,230.192c0-4.688-2.666-8.572-6.165-9.335v-.145h-1.253c-4.1,0-7.418,4.244-7.418,9.479s3.321,9.48,7.418,9.48h1.253v-.145C285.846,238.764,288.512,234.881,288.512,230.192Z" transform="translate(-273.677 -220.713)" fill="#99a3b0"/>
                <ellipse id="Elipse_8529" data-name="Elipse 8529" cx="7.418" cy="9.48" rx="7.418" ry="9.48" transform="translate(1.253)" fill="#c7d2d7"/>
              </g>
              <g id="Grupo_1026638" data-name="Grupo 1026638" transform="translate(6.088 3.779)">
                <path id="Trazado_719648" data-name="Trazado 719648" d="M296.638,232.935c0-2.82-1.6-5.155-3.707-5.613v-.087h-4.287c-2.463,0-4.461,2.553-4.461,5.7s2,5.7,4.461,5.7h4.287v-.087C295.035,238.09,296.638,235.754,296.638,232.935Z" transform="translate(-284.183 -227.234)" fill="#99a3b0"/>
                <ellipse id="Elipse_8530" data-name="Elipse 8530" cx="4.461" cy="5.701" rx="4.461" ry="5.701" transform="translate(4.287 0)" fill="#c7d2d7"/>
              </g>
            </g>
            <g id="Grupo_1026641" data-name="Grupo 1026641" transform="translate(12.933 17.802)">
              <g id="Grupo_1026640" data-name="Grupo 1026640" transform="translate(0 0.472)">
                <path id="Trazado_719649" data-name="Trazado 719649" d="M296.028,222.712c3.174,9.015,3.363,18.839,7.063,27.689,2.678,6.4,7.736,12.623,14.87,14.06,6.626,1.335,13.482-1.946,15.512-8.582,1.227-4.012.924-8.363.962-12.5.041-4.446.145-8.894.413-13.333.65-10.79,2.238-21.677,6.524-31.676.26-.608-.634-1.139-.9-.525-6.188,14.437-6.955,30.47-7.082,45.969-.033,4.031.268,8.318-1.043,12.193a11.527,11.527,0,0,1-10.22,7.667c-8.22.7-14.6-5.909-17.733-12.853-4.045-8.981-4.113-19.143-7.366-28.382-.221-.627-1.225-.357-1,.276Z" transform="translate(-295.996 -197.568)" fill="#454f6b"/>
              </g>
              <circle id="Elipse_8531" data-name="Elipse 8531" cx="0.975" cy="0.975" r="0.975" transform="translate(44.049)" fill="#797c99"/>
            </g>
            <g id="Grupo_1026643" data-name="Grupo 1026643" transform="translate(59.929 87.433)">
              <path id="Trazado_719650" data-name="Trazado 719650" d="M405.44,326.6l-.862,76.128H418.56l5.729-85.811Z" transform="translate(-388.654 -316.918)" fill="#454f6b"/>
              <path id="Trazado_719651" data-name="Trazado 719651" d="M408.446,325.379l-.967,15.015-1.414.194v24.5l5.141-22.232a71.745,71.745,0,0,0,12.23-2.954l1.479-22.981Z" transform="translate(-389.28 -316.918)" fill="#422c4f"/>
              <path id="Trazado_719652" data-name="Trazado 719652" d="M377.96,326.6l-.862,76.128H391.08l5.729-85.811Z" transform="translate(-377.098 -316.918)" fill="#454f6b"/>
              <path id="Trazado_719653" data-name="Trazado 719653" d="M378.585,326.6v12.84a30.416,30.416,0,0,0,15.924,3.824q.618-.01,1.233-.041l1.149-17.846.545-8.461Z" transform="translate(-377.723 -316.918)" fill="#422c4f"/>
              <g id="Grupo_1026642" data-name="Grupo 1026642" transform="translate(14.091 31.034)">
                <path id="Trazado_719654" data-name="Trazado 719654" d="M401.545,421.67h-.008a.128.128,0,0,1-.121-.137L404.9,370.6a.125.125,0,0,1,.138-.122.129.129,0,0,1,.121.138l-3.484,50.933A.13.13,0,0,1,401.545,421.67Z" transform="translate(-401.415 -370.475)" fill="#422c4f"/>
              </g>
            </g>
            <g id="Grupo_1026654" data-name="Grupo 1026654" transform="translate(10.502 27.082)">
              <g id="Grupo_1026644" data-name="Grupo 1026644" transform="translate(0 8.371)">
                <path id="Trazado_719655" data-name="Trazado 719655" d="M305.434,238.134l-2.252-.823-3.024-6.383a4.594,4.594,0,0,0-1.389-1.7l-2.478-1.866a.713.713,0,0,0-.909.042h0a.714.714,0,0,0-.06,1l2.619,3.025-4.8-1.854a.755.755,0,0,0-.973.424h0a.755.755,0,0,0,.323.934l4.458,2.575-4.217-.4a.847.847,0,0,0-.919.727h0a.847.847,0,0,0,.635.939l4.327,1.073-3.528.307a.711.711,0,0,0-.64.819h0a.71.71,0,0,0,.71.6l3.024-.036a5.263,5.263,0,0,0,3.9,4.245l3.465,1.776Z" transform="translate(-291.801 -227.214)" fill="#eba58e"/>
                <path id="Trazado_719656" data-name="Trazado 719656" d="M311.793,245.63l-1.62-.592a5.564,5.564,0,0,0-3.251,4.4l3.138,1.608Z" transform="translate(-298.16 -234.71)" fill="#e78882"/>
              </g>
              <path id="Trazado_719657" data-name="Trazado 719657" d="M367.765,217.968a9.3,9.3,0,0,0-9.7-5.1L343.419,215a11.23,11.23,0,0,0-8.359,5.965l-8.846,17.153-14.986-7.276a9.012,9.012,0,0,0-3.292,8.23l16.2,8.889a7.816,7.816,0,0,0,10.611-3.086l4.812-8.749c10.265,12.17,9.1,49.463,7.926,56.48,7.629,3.429,17.519,3.164,25.021,2.189l1.895-16.617a92.78,92.78,0,0,1,1.264,16.147,77.322,77.322,0,0,0,7.942-1.72C388.152,254.1,373.292,229.246,367.765,217.968Z" transform="translate(-298.548 -212.767)" fill="#fff"/>
              <g id="Grupo_1026645" data-name="Grupo 1026645" transform="translate(9.298 17.369)">
                <path id="Trazado_719658" data-name="Trazado 719658" d="M339.658,245.473l-5.928,10.339a6.927,6.927,0,0,1-9.45,2.565l-16.307-9.335a7.851,7.851,0,0,0-.035,2.639l16.2,8.889a7.816,7.816,0,0,0,10.611-3.086l4.812-8.749,3.3-5.994A6.257,6.257,0,0,0,339.658,245.473Z" transform="translate(-307.846 -242.741)" fill="#e4e4e0"/>
                <path id="Trazado_719659" data-name="Trazado 719659" d="M367.926,254.036a30.589,30.589,0,0,0,13.2,4.97,39.033,39.033,0,0,1-15.644-10.316,12.4,12.4,0,0,0,.377-5.949l-3.3,5.994c5.3,6.28,7.548,19.246,8.327,31.292A41.088,41.088,0,0,0,367.926,254.036Z" transform="translate(-330.859 -242.741)" fill="#e4e4e0"/>
              </g>
              <g id="Grupo_1026646" data-name="Grupo 1026646" transform="translate(36.065 15.657)">
                <path id="Trazado_719660" data-name="Trazado 719660" d="M354.17,256.372a.128.128,0,0,1-.063-.016.13.13,0,0,1-.052-.176l8.978-16.324a.13.13,0,1,1,.227.125L354.283,256.3A.129.129,0,0,1,354.17,256.372Z" transform="translate(-354.04 -239.788)" fill="#422c4f"/>
              </g>
              <g id="Grupo_1026647" data-name="Grupo 1026647" transform="translate(59.389 4.251)">
                <path id="Trazado_719661" data-name="Trazado 719661" d="M402.419,241.136a.129.129,0,0,1-.126-.1,91.014,91.014,0,0,0-7.987-20.744.13.13,0,0,1,.229-.122,91.246,91.246,0,0,1,8.009,20.8.129.129,0,0,1-.094.158A.123.123,0,0,1,402.419,241.136Z" transform="translate(-394.291 -220.103)" fill="#422c4f"/>
              </g>
              <g id="Grupo_1026648" data-name="Grupo 1026648" transform="translate(26.045 16.931)">
                <path id="Trazado_719662" data-name="Trazado 719662" d="M336.878,253.432a.13.13,0,0,1-.116-.189l5.769-11.186a.13.13,0,0,1,.232.119l-5.769,11.186A.132.132,0,0,1,336.878,253.432Z" transform="translate(-336.747 -241.986)" fill="#422c4f"/>
              </g>
              <g id="Grupo_1026649" data-name="Grupo 1026649" transform="translate(51.842 77.808)">
                <path id="Trazado_719663" data-name="Trazado 719663" d="M394.511,349.2a46.264,46.264,0,0,1-13.15-1.9.13.13,0,0,1,.074-.249,45.986,45.986,0,0,0,18.8,1.531.128.128,0,0,1,.145.112.13.13,0,0,1-.112.145A45.545,45.545,0,0,1,394.511,349.2Z" transform="translate(-381.267 -347.043)" fill="#422c4f"/>
              </g>
              <g id="Grupo_1026650" data-name="Grupo 1026650" transform="translate(72.529 63.999)">
                <path id="Trazado_719664" data-name="Trazado 719664" d="M417.1,336.589l-.019,0a.129.129,0,0,1-.109-.147l1.937-13.116a.13.13,0,0,1,.257.038l-1.937,13.116A.13.13,0,0,1,417.1,336.589Z" transform="translate(-416.967 -323.213)" fill="#422c4f"/>
              </g>
              <g id="Grupo_1026651" data-name="Grupo 1026651" transform="translate(77.255 65.4)">
                <path id="Trazado_719665" data-name="Trazado 719665" d="M426.41,330.4a.129.129,0,0,1-.128-.105,38.042,38.042,0,0,0-1.153-4.49.131.131,0,0,1,.084-.164.132.132,0,0,1,.164.083,38.324,38.324,0,0,1,1.159,4.522.129.129,0,0,1-.1.152Z" transform="translate(-425.124 -325.63)" fill="#422c4f"/>
              </g>
              <g id="Grupo_1026652" data-name="Grupo 1026652" transform="translate(79.282 77.692)">
                <path id="Trazado_719666" data-name="Trazado 719666" d="M428.751,347.868a.13.13,0,0,1-.025-.257l3.823-.765a.13.13,0,1,1,.051.255l-3.823.764Z" transform="translate(-428.62 -346.843)" fill="#422c4f"/>
              </g>
              <path id="Trazado_719667" data-name="Trazado 719667" d="M399.591,268.3a22.561,22.561,0,0,1-.7,6.084c10.785-1.04,15.626-4.87,15.626-4.87Z" transform="translate(-336.838 -236.12)" fill="#e4e4e0"/>
              <g id="Grupo_1026653" data-name="Grupo 1026653" transform="translate(62.623 31.27)">
                <path id="Trazado_719668" data-name="Trazado 719668" d="M414.87,267.518a7.071,7.071,0,0,1,.156,1.43,102.685,102.685,0,0,1-14.2,3.7,17.5,17.5,0,0,0-.725-4.914q1.584-.4,3.174-.778" transform="translate(-399.966 -266.825)" fill="#fff"/>
                <path id="Trazado_719669" data-name="Trazado 719669" d="M400.727,272.684a.133.133,0,0,1-.082-.029.131.131,0,0,1-.048-.1,17.39,17.39,0,0,0-.719-4.877.128.128,0,0,1,.011-.1.126.126,0,0,1,.081-.062c1.049-.267,2.118-.529,3.176-.779a.128.128,0,0,1,.156.1.13.13,0,0,1-.1.156c-1.013.239-2.035.49-3.04.744a17.753,17.753,0,0,1,.69,4.664,102.005,102.005,0,0,0,13.945-3.633,7.008,7.008,0,0,0-.152-1.312.13.13,0,1,1,.254-.053,7.168,7.168,0,0,1,.158,1.457.13.13,0,0,1-.086.122,102.618,102.618,0,0,1-14.223,3.705Zm14.2-3.83h0Z" transform="translate(-399.872 -266.73)" fill="#422c4f"/>
              </g>
            </g>
            <path id="Trazado_719670" data-name="Trazado 719670" d="M375.8,471.114h5.529l-1.46-6.108h-7.957c-5.722,1.255-11.662,6.108-11.662,6.108h12.943l2.605-1.569Z" transform="translate(-310.084 -291.762)" fill="#422c4f"/>
            <path id="Trazado_719671" data-name="Trazado 719671" d="M405.238,471.114h5.529l-1.46-6.108h-7.957c-5.722,1.255-11.662,6.108-11.662,6.108h12.943l2.605-1.569Z" transform="translate(-322.464 -291.762)" fill="#422c4f"/>
          </g>
          <g id="Grupo_1026668" data-name="Grupo 1026668" transform="translate(4.913 42.849)">
            <g id="Grupo_1026657" data-name="Grupo 1026657" transform="translate(26.875 20.672)">
              <path id="Trazado_719672" data-name="Trazado 719672" d="M113.074,213.1l12.315-29.523,18.924,5.281L132,218.382Z" transform="translate(-113.074 -183.578)" fill="#a64f5a"/>
              <path id="Trazado_719673" data-name="Trazado 719673" d="M117.948,213.542l10.7-25.656,14.888,4.155-10.7,25.657Z" transform="translate(-115.124 -185.389)" fill="#fbeed1"/>
              <g id="Grupo_1026656" data-name="Grupo 1026656" transform="translate(17.168 0.31)">
                <path id="Trazado_719674" data-name="Trazado 719674" d="M150.269,190.262l.65-3.963-7.567-2.186-.65,3.963Z" transform="translate(-142.702 -184.113)" fill="#c7d2d7"/>
                <path id="Trazado_719675" data-name="Trazado 719675" d="M156.75,187.886l.825,1.381-1.006-.281Z" transform="translate(-148.534 -185.7)" fill="#99a3b0"/>
              </g>
              <path id="Trazado_719676" data-name="Trazado 719676" d="M142.7,190.365l7.567,2.186.358-2.186-.151.24a1.56,1.56,0,0,1-1.755.665l-5.886-1.715Z" transform="translate(-125.534 -186.092)" fill="#99a3b0"/>
            </g>
            <g id="Grupo_1026658" data-name="Grupo 1026658" transform="translate(4.096 97.938)">
              <path id="Trazado_719677" data-name="Trazado 719677" d="M90.219,326.6v74.51H78.013l-4.249-84.194Z" transform="translate(-73.764 -316.918)" fill="#454f6b"/>
              <path id="Trazado_719678" data-name="Trazado 719678" d="M88.14,325.379l.844,15.015,1.235.194v24.5l-3.45-17.09a61.988,61.988,0,0,1-11.4-2.493l-1.606-28.583Z" transform="translate(-73.764 -316.918)" fill="#422c4f"/>
              <path id="Trazado_719679" data-name="Trazado 719679" d="M118.691,326.6v74.51H106.429l-4.268-84.194Z" transform="translate(-85.706 -316.918)" fill="#454f6b"/>
              <path id="Trazado_719680" data-name="Trazado 719680" d="M118.691,326.6v18.215c-4.142,2.789-8.855,3.548-13.722,3.457q-.542-.01-1.081-.041l-1.25-22.854-.477-8.461Z" transform="translate(-85.706 -316.918)" fill="#422c4f"/>
            </g>
            <path id="Trazado_719681" data-name="Trazado 719681" d="M105.751,224.588l.472-.745a10.123,10.123,0,0,0,.9-9.059c-1.854-4.81-4.163-9.835-5.544-14.422H81.827c-4.2,2.141-6.525,7.444-6.971,12.139s.351,9.424.143,14.135c-.321,7.288-3.017,14.225-4.914,21.269a99.2,99.2,0,0,0-1.644,44.246,60.462,60.462,0,0,0,8.147,2.347l2.51-13.689,2.435,14.533a54.319,54.319,0,0,0,25-2.548c.783-20.468.35-40.945-2.328-61.238A10.494,10.494,0,0,1,105.751,224.588Z" transform="translate(-66.695 -169.964)" fill="#fff"/>
            <path id="Trazado_719682" data-name="Trazado 719682" d="M154.835,214.463l.617-2.274L154,210.631a2.616,2.616,0,0,1-.546-.894l-1.009-2.794a.773.773,0,0,1,.3-.906h0a.773.773,0,0,1,1.014.138l2.218,2.569,2.371-5.685.372.552a3.723,3.723,0,0,1,.635,2.08h0l1.275,2.526a2.09,2.09,0,0,1,.13,1.563l-2.217,7.118Z" transform="translate(-102.735 -171.099)" fill="#f0bf9c"/>
            <path id="Trazado_719683" data-name="Trazado 719683" d="M106.024,181.129l.26-4.489c2.273,0,4.349-1.927,5.12-4.066a7.957,7.957,0,0,0,.088-4.578,23.744,23.744,0,0,0-1.689-4.32L107,157.7c-1.12-2.39-4.374-3.212-7.009-3.054a8.039,8.039,0,0,0-6.473,3.962,9.946,9.946,0,0,0-.491,7.6,29.522,29.522,0,0,0,3.507,6.969l2.309,3.725-.445,4.223Z" transform="translate(-77.552 -150.731)" fill="#f0bf9c"/>
            <g id="Grupo_1026659" data-name="Grupo 1026659" transform="translate(15.694 41.322)">
              <path id="Trazado_719684" data-name="Trazado 719684" d="M94.546,241.723a.129.129,0,0,0,.083-.136,91.059,91.059,0,0,1,.188-22.228.13.13,0,0,0-.258-.034,91.285,91.285,0,0,0-.188,22.291.13.13,0,0,0,.144.114A.112.112,0,0,0,94.546,241.723Z" transform="translate(-93.779 -219.213)" fill="#422c4f"/>
            </g>
            <g id="Grupo_1026660" data-name="Grupo 1026660" transform="translate(17.232 121.458)">
              <path id="Trazado_719685" data-name="Trazado 719685" d="M102.3,359.666a46.237,46.237,0,0,0,13.15-1.9.13.13,0,0,0-.074-.249,46,46,0,0,1-18.8,1.531.127.127,0,0,0-.145.112.129.129,0,0,0,.112.145A45.538,45.538,0,0,0,102.3,359.666Z" transform="translate(-96.433 -357.508)" fill="#422c4f"/>
            </g>
            <g id="Grupo_1026661" data-name="Grupo 1026661" transform="translate(13.458 107.649)">
              <path id="Trazado_719686" data-name="Trazado 719686" d="M91.986,347.053l.019,0a.13.13,0,0,0,.11-.147l-1.937-13.116a.129.129,0,0,0-.147-.11.13.13,0,0,0-.11.147l1.937,13.116A.13.13,0,0,0,91.986,347.053Z" transform="translate(-89.92 -333.677)" fill="#422c4f"/>
            </g>
            <g id="Grupo_1026662" data-name="Grupo 1026662" transform="translate(9.513 109.05)">
              <path id="Trazado_719687" data-name="Trazado 719687" d="M83.241,340.86a.13.13,0,0,0,.127-.105,38.155,38.155,0,0,1,1.152-4.49.13.13,0,1,0-.247-.08,38.337,38.337,0,0,0-1.16,4.521.129.129,0,0,0,.1.152A.088.088,0,0,0,83.241,340.86Z" transform="translate(-83.111 -336.095)" fill="#422c4f"/>
            </g>
            <g id="Grupo_1026663" data-name="Grupo 1026663" transform="translate(4.819 121.342)">
              <path id="Trazado_719688" data-name="Trazado 719688" d="M78.964,358.332a.13.13,0,0,0,.025-.257l-3.823-.765a.13.13,0,0,0-.051.255l3.823.765Z" transform="translate(-75.011 -357.307)" fill="#422c4f"/>
            </g>
            <path id="Trazado_719689" data-name="Trazado 719689" d="M99.6,265.385a22.576,22.576,0,0,0,1.7,5.883c-10.807.776-16.22-2.192-16.22-2.192Z" transform="translate(-74.428 -197.309)" fill="#e4e4e0"/>
            <g id="Grupo_1026664" data-name="Grupo 1026664" transform="translate(10.434 67.71)">
              <path id="Trazado_719690" data-name="Trazado 719690" d="M84.931,267.468a7.074,7.074,0,0,0,.086,1.436A102.718,102.718,0,0,0,99.64,270.18a17.489,17.489,0,0,1-.105-4.967q-1.629-.131-3.26-.237" transform="translate(-84.796 -264.846)" fill="#fff"/>
              <path id="Trazado_719691" data-name="Trazado 719691" d="M99.541,270.216A102.588,102.588,0,0,1,84.9,268.938a.129.129,0,0,1-.105-.106,7.168,7.168,0,0,1-.087-1.463.13.13,0,0,1,.26.009,6.994,6.994,0,0,0,.07,1.32,102.029,102.029,0,0,0,14.356,1.253,17.752,17.752,0,0,1-.1-4.713c-1.034-.083-2.083-.159-3.122-.226a.129.129,0,0,1-.121-.138.127.127,0,0,1,.138-.121c1.085.07,2.183.15,3.262.237a.129.129,0,0,1,.09.048.126.126,0,0,1,.027.1,17.434,17.434,0,0,0,.105,4.928.131.131,0,0,1-.03.107.133.133,0,0,1-.076.042ZM84.92,268.81h0Z" transform="translate(-84.701 -264.752)" fill="#422c4f"/>
            </g>
            <path id="Trazado_719692" data-name="Trazado 719692" d="M130.333,235.491l.193-.3h0l-5.371-8.9a10.622,10.622,0,0,0,1.522,6.362,8.633,8.633,0,0,1,1.359,2.17,6.621,6.621,0,0,1-.283,3.653,25.735,25.735,0,0,0-.716,10.221,16.349,16.349,0,0,0,3.236,7.65q-.583-6.954-1.486-13.886A10.494,10.494,0,0,1,130.333,235.491Z" transform="translate(-91.277 -180.867)" fill="#e4e4e0"/>
            <path id="Trazado_719693" data-name="Trazado 719693" d="M124.451,200.362h0a6.008,6.008,0,0,1,5.487,3.56L137.47,220.8l3.68-8.644c3.615-.559,5.607,3.426,5.607,3.426l-4.877,14.136a5.1,5.1,0,0,1-4.825,3.439h0a5.1,5.1,0,0,1-4.369-2.466l-10.011-16.582A11.178,11.178,0,0,1,124.451,200.362Z" transform="translate(-89.568 -169.964)" fill="#fff"/>
            <path id="Trazado_719694" data-name="Trazado 719694" d="M150.843,228.548l-1.631,3.911,1.188,2.661C151.352,232.653,150.843,228.548,150.843,228.548Z" transform="translate(-101.396 -181.817)" fill="#e4e4e0"/>
            <g id="Grupo_1026667" data-name="Grupo 1026667" transform="translate(32.977 42.059)">
              <g id="Grupo_1026665" data-name="Grupo 1026665" transform="translate(0 1.955)">
                <path id="Trazado_719695" data-name="Trazado 719695" d="M133.745,240.7a.129.129,0,0,1-.111-.063l-10.011-16.582a.13.13,0,0,1,.223-.134L133.857,240.5a.129.129,0,0,1-.111.2Z" transform="translate(-123.605 -223.86)" fill="#422c4f"/>
              </g>
              <g id="Grupo_1026666" data-name="Grupo 1026666" transform="translate(10.936)">
                <path id="Trazado_719696" data-name="Trazado 719696" d="M147.9,232.6a.13.13,0,0,1-.119-.077l-5.29-11.854a.13.13,0,1,1,.238-.105l5.29,11.853a.13.13,0,0,1-.065.172A.133.133,0,0,1,147.9,232.6Z" transform="translate(-142.478 -220.486)" fill="#422c4f"/>
              </g>
            </g>
            <path id="Trazado_719697" data-name="Trazado 719697" d="M104.172,154.825a8.806,8.806,0,0,0-5.38-6.336,10.411,10.411,0,0,0-7.891.431,13,13,0,0,0-7.48,11.606c.006,2.709.874,5.341,1.143,8.037a18.309,18.309,0,0,1-1.039,8.123c-1.078,2.92-2.882,5.511-4.209,8.327s-2.172,6.079-1.184,9.03a9.57,9.57,0,0,0,5.981,5.714,15.756,15.756,0,0,0,8.453.293c3.351-.709,6.8-2.408,8.209-5.528a14.4,14.4,0,0,0,.807-6.273c0-5.048-.206-10.106-.308-15.154-.05-2.468-.276-5-.119-7.469a8.227,8.227,0,0,1,1.537-3.853A9.683,9.683,0,0,0,104.172,154.825Z" transform="translate(-71.323 -147.903)"/>
            <path id="Trazado_719698" data-name="Trazado 719698" d="M120.613,469.94H130.2a6.235,6.235,0,0,0-3.292-2.952l-.262-.1a6.236,6.236,0,0,1-2.732-2.061l-1.97-2.612h-6.881a7.736,7.736,0,0,0,1.014,7.726h2.511v-2.221Z" transform="translate(-86.782 -280.083)" fill="#422c4f"/>
            <path id="Trazado_719699" data-name="Trazado 719699" d="M92.113,469.94H101.7a6.235,6.235,0,0,0-3.293-2.952l-.262-.1a6.236,6.236,0,0,1-2.732-2.061l-1.97-2.612H86.563a7.736,7.736,0,0,0,1.014,7.726h2.511v-2.221Z" transform="translate(-74.797 -280.083)" fill="#422c4f"/>
          </g>
        </g>
      </g>
    </g>
  </g>
</svg>
