<svg xmlns="http://www.w3.org/2000/svg" width="505" height="415.526" viewBox="0 0 505 415.526">
  <g id="Grupo_1013772" data-name="Grupo 1013772" transform="translate(-120.342 -39.862)">
    <g id="Grupo_1013660" data-name="Grupo 1013660" transform="translate(120.342 39.862)">
      <path id="Trazado_719417" data-name="Trazado 719417" d="M256.116,439.882c78.945,22.419,208,24.923,295.1-22.272,80.46-43.587,97.02-203.844,41.8-294.744C553.777,58.269,478.594,32.5,406.5,41.654c-85.066,10.8-107.634,77.379-164.081,125.214C207.3,196.628,135.561,189.306,122.013,276.146,106.585,375.117,201.611,424.4,256.116,439.882Z" transform="translate(-120.342 -39.862)" fill="#dcf2ff"/>
    </g>
    <g id="Grupo_1013762" data-name="Grupo 1013762" transform="translate(187.746 105.598)">
      <g id="Grupo_1013728" data-name="Grupo 1013728" transform="translate(0 46.22)">
        <g id="Grupo_1013686" data-name="Grupo 1013686" transform="translate(0 11.058)">
          <g id="Grupo_1013666" data-name="Grupo 1013666" transform="translate(0.384 174.625)">
            <g id="Grupo_1013664" data-name="Grupo 1013664" transform="translate(0 14.743)">
              <rect id="Rectángulo_347430" data-name="Rectángulo 347430" width="72.6" height="6.75" transform="translate(6.652 67.258)" fill="#326894"/>
              <g id="Grupo_1013661" data-name="Grupo 1013661" transform="translate(0 0.726)">
                <path id="Trazado_719418" data-name="Trazado 719418" d="M208.209,361.621a4.483,4.483,0,0,1-.039.512l-1.123,9.3L197,454.324a3.953,3.953,0,0,1-4.405,3.518,4.022,4.022,0,0,1-3.469-4.011,4.486,4.486,0,0,1,.039-.512l9.914-81.883,1.242-10.3a3.953,3.953,0,0,1,7.884.483Z" transform="translate(-189.13 -357.586)" fill="#4d8ab3"/>
                <path id="Trazado_719419" data-name="Trazado 719419" d="M208.356,361.621a4.483,4.483,0,0,1-.039.512l-1.123,9.3H199.24l1.242-10.3a3.948,3.948,0,0,1,7.874.483Z" transform="translate(-189.277 -357.586)" fill="#326894"/>
              </g>
              <g id="Grupo_1013662" data-name="Grupo 1013662" transform="translate(39.99)">
                <path id="Trazado_719420" data-name="Trazado 719420" d="M237.614,360.91V453.8a3.99,3.99,0,0,1-3.942,4.05,3.88,3.88,0,0,1-2.789-1.192,4.085,4.085,0,0,1-1.153-2.868V360.9a4,4,0,0,1,3.942-4.05,3.847,3.847,0,0,1,2.789,1.192A4.139,4.139,0,0,1,237.614,360.91Z" transform="translate(-229.71 -356.85)" fill="#4d8ab3"/>
                <path id="Trazado_719421" data-name="Trazado 719421" d="M236.451,358.053a4.06,4.06,0,0,1,1.153,2.868v10.505H229.71V360.92a4,4,0,0,1,3.942-4.05A3.806,3.806,0,0,1,236.451,358.053Z" transform="translate(-229.71 -356.85)" fill="#326894"/>
              </g>
              <g id="Grupo_1013663" data-name="Grupo 1013663" transform="translate(68.5 0.708)">
                <path id="Trazado_719422" data-name="Trazado 719422" d="M277.709,453.811a4.009,4.009,0,0,1-3.459,4.021,3.967,3.967,0,0,1-4.405-3.518L259.8,371.426l-1.123-9.3a4.49,4.49,0,0,1-.039-.512,4.029,4.029,0,0,1,3.469-4.011,3.972,3.972,0,0,1,4.405,3.518l1.242,10.3,9.914,81.883A3.154,3.154,0,0,1,277.709,453.811Z" transform="translate(-258.64 -357.568)" fill="#4d8ab3"/>
                <path id="Trazado_719423" data-name="Trazado 719423" d="M267.766,371.426h-7.953l-1.123-9.3a4.483,4.483,0,0,1-.039-.512,4.029,4.029,0,0,1,3.469-4.011,3.972,3.972,0,0,1,4.405,3.518Z" transform="translate(-258.64 -357.568)" fill="#326894"/>
              </g>
            </g>
            <g id="Grupo_1013665" data-name="Grupo 1013665" transform="translate(3.558)">
              <path id="Trazado_719424" data-name="Trazado 719424" d="M283.935,350.217v2.631a8.323,8.323,0,0,1-8.327,8.327H201.067a8.323,8.323,0,0,1-8.327-8.327v-2.631a8.323,8.323,0,0,1,8.327-8.327h74.541A8.317,8.317,0,0,1,283.935,350.217Z" transform="translate(-192.74 -341.89)" fill="#994403"/>
              <path id="Trazado_719425" data-name="Trazado 719425" d="M284.037,350.217v2.631a8.323,8.323,0,0,1-8.327,8.327H208.047a8.323,8.323,0,0,1-8.327-8.327v-2.631a8.323,8.323,0,0,1,8.327-8.327H275.71A8.317,8.317,0,0,1,284.037,350.217Z" transform="translate(-192.841 -341.89)" fill="#852e03"/>
            </g>
          </g>
          <g id="Grupo_1013685" data-name="Grupo 1013685">
            <path id="Trazado_719426" data-name="Trazado 719426" d="M206.035,181.783c-.936,1.912-1.882,3.833-2.72,5.676a41.421,41.421,0,0,0,0,10,28.409,28.409,0,0,1-.562,9.963,11.163,11.163,0,0,1-6.327,7.49c-2.089.8-4.582.857-6.2,2.375-1.833,1.725-1.7,4.622-1.035,7.007a10.888,10.888,0,0,0,3.035,5.381c1.587,1.39,4.139,2.3,5.873,1.291a4.24,4.24,0,0,1,5.233,1.242c1.242,1.518,1.823,3.479,3.045,5.016a9.875,9.875,0,0,0,7.49,3.39c2.848.069,5.883-.335,7.785-1.518,4.07-2.552,9.145-4.247,13.314-1.853,2.2,1.261,3.932,3.272,6.307,4.178a7.75,7.75,0,0,0,6.277-.384c1.9-1.005,2.631-3.153,3.824-4.8,2.188-3.016,7.49-.581,11.156-1.577a8.046,8.046,0,0,0,5.647-9.234c-.916-3.853-5.184-5.223-8.987-5.795-2.612-.394-3.686-3.715-4.287-6.2a27.576,27.576,0,0,1-.384-7.647c.227-5.213,2.6-17.374,1.094-19.01a25.237,25.237,0,0,0-4.819-3.508q-7.421-3.385-14.841-6.78c-4.5-2.06-9.224-4.159-14.2-4.021C216.786,172.578,209.6,174.52,206.035,181.783Z" transform="translate(-188.74 -164.803)" fill="#732d02"/>
            <g id="Grupo_1013668" data-name="Grupo 1013668" transform="translate(9.888 51.225)">
              <path id="Trazado_719427" data-name="Trazado 719427" d="M223.328,229.55s-21.956,3.469-24.282,11.244,11.008,62.183,11.008,62.183l49.333-3.016s3.587-62.715-4.257-66.647S223.328,229.55,223.328,229.55Z" transform="translate(-198.774 -216.857)" fill="#ebf5ff"/>
              <g id="Grupo_1013667" data-name="Grupo 1013667" transform="translate(16.168)">
                <path id="Trazado_719428" data-name="Trazado 719428" d="M242.714,231.521s-3.2,10.909-9.017,13.294-18.517-12.161-18.517-12.161c2.562-1.626,3.528-5.538,3.843-9.106a39.681,39.681,0,0,0-.039-6.879l17.64,3.39c-.453,5.459,1.153,8.327,2.838,9.835A6.442,6.442,0,0,0,242.714,231.521Z" transform="translate(-215.18 -216.67)" fill="#fbbd9a"/>
                <path id="Trazado_719429" data-name="Trazado 719429" d="M239.518,229.9c-8.376,1.1-15.965-3.094-20.439-6.346a39.681,39.681,0,0,0-.039-6.879l17.64,3.39C236.217,225.52,237.833,228.4,239.518,229.9Z" transform="translate(-215.236 -216.67)" fill="#f0997f"/>
              </g>
            </g>
            <g id="Grupo_1013675" data-name="Grupo 1013675" transform="translate(10.821 128.761)">
              <g id="Grupo_1013670" data-name="Grupo 1013670" transform="translate(37.526 10.219)">
                <g id="Grupo_1013669" data-name="Grupo 1013669" transform="translate(18.103 97.995)">
                  <path id="Trazado_719430" data-name="Trazado 719430" d="M291.085,438.814c-1.9,3.163-34.915-17.187-34.915-20.695,0-2.286,4.306-5.6,7.3-7.608,1.606-1.084,2.828-1.8,2.828-1.8l7.706-3.538,3.469,1.863c5.055,8.712,9.884,17.788,12.3,24.1C291.213,434.862,291.795,437.641,291.085,438.814Z" transform="translate(-256.17 -405.16)" fill="#115089"/>
                  <path id="Trazado_719431" data-name="Trazado 719431" d="M289.892,431.127c-9.461.394-21.966-14.91-26.3-20.626,1.606-1.084,2.828-1.8,2.828-1.8l7.706-3.538,3.469,1.863C282.659,415.734,287.478,424.81,289.892,431.127Z" transform="translate(-256.278 -405.16)" fill="#f0997f"/>
                </g>
                <path id="Trazado_719432" data-name="Trazado 719432" d="M256.849,305.72s60.094,7.608,62.134,22.991-37.694,83.262-37.694,83.262L267,408.248l18.645-60.685-47.845-20.3,9.529-21.542Z" transform="translate(-237.8 -305.72)" fill="#002a42"/>
              </g>
              <g id="Grupo_1013674" data-name="Grupo 1013674">
                <g id="Grupo_1013671" data-name="Grupo 1013671" transform="translate(41.025 109.969)">
                  <path id="Trazado_719433" data-name="Trazado 719433" d="M276.265,440.594c-1.9,3.163-34.915-17.187-34.915-20.695,0-2.286,4.307-5.6,7.3-7.608,1.606-1.084,2.828-1.8,2.828-1.8l7.706-3.538,3.469,1.863c5.055,8.712,9.884,17.788,12.3,24.1C276.393,436.642,276.975,439.421,276.265,440.594Z" transform="translate(-241.35 -406.94)" fill="#115089"/>
                  <path id="Trazado_719434" data-name="Trazado 719434" d="M275.072,432.907c-9.461.394-21.966-14.91-26.3-20.626,1.606-1.084,2.828-1.8,2.828-1.8l7.706-3.538,3.469,1.863C267.839,417.514,272.658,426.59,275.072,432.907Z" transform="translate(-241.458 -406.94)" fill="#fbbd9a"/>
                </g>
                <g id="Grupo_1013673" data-name="Grupo 1013673">
                  <path id="Trazado_719435" data-name="Trazado 719435" d="M205.613,300.415s-20.823,41.173,15.817,45.617c26.618,3.232,44.257,2.582,44.809,4.06.907,2.375-17.315,59.867-17.315,59.867l17.945,5.676s37.142-79.774,35.122-86.721c-1.665-5.716-52.92-14.437-52.92-14.437,4.316-2.05,7.49-9.51,7.026-19.128Z" transform="translate(-199.72 -295.35)" fill="#06384f"/>
                  <g id="Grupo_1013672" data-name="Grupo 1013672" transform="translate(5.575 1.498)">
                    <path id="Trazado_719436" data-name="Trazado 719436" d="M211.47,296.87s-11.944,26.282-2.385,36.945c11.264,12.565,60.528,8.514,63.957,12.959,2.749,3.558-19.029,61.671-19.029,61.671" transform="translate(-205.378 -296.87)" fill="none" stroke="#27788f" stroke-linecap="round" stroke-miterlimit="10" stroke-width="1"/>
                    <line id="Línea_2514" data-name="Línea 2514" x2="17.364" y2="5.292" transform="translate(45.078 110.698)" fill="none" stroke="#27788f" stroke-linecap="round" stroke-miterlimit="10" stroke-width="1"/>
                  </g>
                </g>
              </g>
            </g>
            <g id="Grupo_1013679" data-name="Grupo 1013679" transform="translate(10.415)">
              <path id="Trazado_719437" data-name="Trazado 719437" d="M251.574,197.454c4.235-.48,7.952,1.639,8.3,4.732s-2.8,5.99-7.032,6.47-7.951-1.639-8.3-4.732S247.34,197.934,251.574,197.454Z" transform="translate(-199.965 -165.165)" fill="#f0997f"/>
              <g id="Grupo_1013676" data-name="Grupo 1013676" transform="translate(9.689 5.578)">
                <path id="Trazado_719438" data-name="Trazado 719438" d="M209.14,196.81c0-14.615,9.283-26.46,21.749-26.46s22.577,11.845,22.577,26.46S247.09,224,235.353,224.452C223.528,224.906,209.14,211.415,209.14,196.81Z" transform="translate(-209.14 -170.35)" fill="#fbbd9a"/>
                <path id="Trazado_719439" data-name="Trazado 719439" d="M210.37,200.238a26.314,26.314,0,0,0,13.747-14.467c3.242,3.656,7.972,5.726,12.772,6.622s9.727.729,14.339.6a8.67,8.67,0,0,1,2.9,5,29.421,29.421,0,0,0-1.35-12.939Q234.149,179.376,215.751,173C213.918,181.741,212.085,190.482,210.37,200.238Z" transform="translate(-209.158 -170.389)" fill="#f0997f"/>
              </g>
              <g id="Grupo_1013677" data-name="Grupo 1013677" transform="translate(3.889)">
                <path id="Trazado_719440" data-name="Trazado 719440" d="M222.2,178.96c2.671,5.036,7.834,8.386,13.264,10.121s11.2,2.01,16.98,2.178a38.281,38.281,0,0,1,1.094,10.14,35.256,35.256,0,0,0,3.2-12.368c.049-1.1.049-2.227.02-3.41-.286-8.041-3.617-12.614-8.081-16.043a25.286,25.286,0,0,0-15.6-4.888c-5.568,0-9.106,1.261-11.224,3.459a8.5,8.5,0,0,0-1.734,2.661C219.218,172.938,220.233,175.254,222.2,178.96Z" transform="translate(-203.494 -164.69)" fill="#8c4206"/>
                <path id="Trazado_719441" data-name="Trazado 719441" d="M203.4,201.945c-.187-7.145-.641-19.374,2.237-25.218,1.882-3.824,5.44-7.007,9.667-7.578s8.9,2.05,9.874,6.2a49.744,49.744,0,0,1-13.521,25.317C209.291,201.807,205.8,202.566,203.4,201.945Z" transform="translate(-203.254 -164.754)" fill="#8c4206"/>
                <path id="Trazado_719442" data-name="Trazado 719442" d="M221.88,168.159a28.3,28.3,0,0,1,24.065,4.849,31.047,31.047,0,0,1,10.83,16.034c.049-1.1.049-2.227.02-3.41-.286-8.041-3.617-12.614-8.081-16.043a25.285,25.285,0,0,0-15.6-4.888C227.537,164.7,224,165.961,221.88,168.159Z" transform="translate(-203.525 -164.69)" fill="#a66317"/>
              </g>
              <ellipse id="Elipse_8507" data-name="Elipse 8507" cx="5.637" cy="7.717" rx="5.637" ry="7.717" transform="matrix(0.248, -0.969, 0.969, 0.248, 0, 42.877)" fill="#fbbd9a"/>
              <g id="Grupo_1013678" data-name="Grupo 1013678" transform="translate(25.151 29.844)">
                <ellipse id="Elipse_8508" data-name="Elipse 8508" cx="1.173" cy="1.872" rx="1.173" ry="1.872" transform="translate(5.952 7.614)" fill="#2f344d"/>
                <ellipse id="Elipse_8509" data-name="Elipse 8509" cx="1.173" cy="1.872" rx="1.173" ry="1.872" transform="translate(22.262 7.624)" fill="#2f344d"/>
                <path id="Trazado_719443" data-name="Trazado 719443" d="M245.13,195.744a8.2,8.2,0,0,1,6.849.828" transform="translate(-225.125 -194.979)" fill="none" stroke="#8c4206" stroke-linecap="round" stroke-miterlimit="10" stroke-width="2"/>
                <path id="Trazado_719444" data-name="Trazado 719444" d="M232.96,195.532c-2.2-.976-6.228-.769-8.13,1.4" transform="translate(-224.83 -194.974)" fill="none" stroke="#8c4206" stroke-linecap="round" stroke-miterlimit="10" stroke-width="2"/>
                <path id="Trazado_719445" data-name="Trazado 719445" d="M240.523,203.45a10.311,10.311,0,0,1-.5,6.021" transform="translate(-225.051 -195.097)" fill="none" stroke="#d45e4e" stroke-linecap="round" stroke-miterlimit="10" stroke-width="2"/>
                <path id="Trazado_719446" data-name="Trazado 719446" d="M238.973,215.394c-2.6.512-7.312-.976-8.593-3.144" transform="translate(-224.911 -195.225)" fill="none" stroke="#d45e4e" stroke-linecap="round" stroke-miterlimit="10" stroke-width="2"/>
              </g>
            </g>
            <g id="Grupo_1013682" data-name="Grupo 1013682" transform="translate(50.612 64.48)">
              <g id="Grupo_1013681" data-name="Grupo 1013681" transform="translate(7.846 1.113)">
                <path id="Trazado_719447" data-name="Trazado 719447" d="M248.61,238.4l8.8-5.312s7.421.631,12.446,9.865c5,9.185,14.408,38.877,17.374,40.187s39.123,1.774,39.123,1.774l.493,10.594s-44.287,7.026-49.569,4.119-22.38-37.152-22.38-37.152Z" transform="translate(-248.068 -231.277)" fill="#fbbd9a"/>
                <path id="Trazado_719448" data-name="Trazado 719448" d="M248.06,237.183l1.7-5.933s9.717.414,14.684,4.307,9.037,14.477,9.037,14.477l-12.634,20.4Z" transform="translate(-248.06 -231.25)" fill="#4db1f0"/>
                <path id="Trazado_719449" data-name="Trazado 719449" d="M263.27,278.563s13.57-11.717,15.659-14.644c1.035-1.449,8.376,15.61,7.135,17.7-1.981,3.331-14.348,11.333-15.038,10.87S263.27,278.563,263.27,278.563Z" transform="translate(-248.281 -231.723)" fill="#163649"/>
                <path id="Trazado_719450" data-name="Trazado 719450" d="M259.65,267.645q6.134-9.741,12.259-19.473a3.1,3.1,0,0,1,.818-.966c1.015-.68,2.493.158,2.907,1.3a6.043,6.043,0,0,1-.2,3.607,2.586,2.586,0,0,1,2.651,2.385,6.556,6.556,0,0,1-1.025,3.784,35.321,35.321,0,0,1-17.62,16.014C259.1,272.07,258.418,269.6,259.65,267.645Z" transform="translate(-248.218 -231.478)" fill="#115089"/>
                <g id="Grupo_1013680" data-name="Grupo 1013680" transform="translate(72.698 44.089)">
                  <path id="Trazado_719451" data-name="Trazado 719451" d="M321.83,287.195c5.065-3.558,14.861-10.613,15.6-10.949.867-.394,6.819-.424,10.062.552s6.258,3.213,7.43,6.406c.325.9.414,2.089-.374,2.612a1.685,1.685,0,0,1-1.754-.089,6.592,6.592,0,0,1-1.35-1.271c-2.168-2.355-4.129-3.282-7.687-3.479,4.218.641,6.9,3.242,8.16,7.342.246.818.345,1.853-.315,2.385a1.651,1.651,0,0,1-1.872-.059,6.438,6.438,0,0,1-1.37-1.458,14.367,14.367,0,0,0-5.933-4.444,10.514,10.514,0,0,1,6.149,8,2.862,2.862,0,0,1-.089,1.527,1.183,1.183,0,0,1-1.2.769,1.8,1.8,0,0,1-.946-.68c-1.754-1.981-3.134-4.09-5.469-5.509,2.129,2.838,3.922,7.45,3.479,8.652-.138.365-1.045,1-2.06-.01-1.153-1.153-1.961-3.124-3.755-5.322a13.218,13.218,0,0,1-12.486,4C324.6,293.137,323.18,290.092,321.83,287.195Z" transform="translate(-321.83 -275.989)" fill="#fbbd9a"/>
                  <path id="Trazado_719452" data-name="Trazado 719452" d="M331.16,282.729a103.515,103.515,0,0,1,10.988-3.282,4.366,4.366,0,0,1,1.508-.177,1.548,1.548,0,0,1,1.232.779,1.5,1.5,0,0,1-.227,1.478,3.971,3.971,0,0,1-1.2,1.005,50.675,50.675,0,0,1-4.987,2.641,7.269,7.269,0,0,1-4.809,5.834" transform="translate(-321.966 -276.037)" fill="#fbbd9a" stroke="#d45e4e" stroke-linecap="round" stroke-miterlimit="10" stroke-width="1"/>
                </g>
              </g>
              <path id="Trazado_719453" data-name="Trazado 719453" d="M240.12,230.278c2.109,1.833,3.479,12.161,4.563,18.724,1.626,9.835,9.9,52.594,10.4,55.62.877,5.341,17.788,4.977,18.468,2.188.128-.512-4.937-2.868-5.745-6.277-.719-3.055-6.337-62.587-9.047-65.721C255.178,230.672,239.44,229.686,240.12,230.278Z" transform="translate(-240.098 -230.121)" fill="#4db1f0"/>
            </g>
            <g id="Grupo_1013684" data-name="Grupo 1013684" transform="translate(3.932 64.633)">
              <path id="Trazado_719454" data-name="Trazado 719454" d="M216.261,230.28c1.764.631,7.3,12.4,9.934,23.168,5.5,22.5,2.227,55.906,0,60.321s-23.809,6.356-27.475,5.184c-2.129-.68-4.444-68.027-2.976-76.482C196.729,236.833,215.729,230.093,216.261,230.28Z" transform="translate(-192.767 -230.276)" fill="#4db1f0"/>
              <path id="Trazado_719455" data-name="Trazado 719455" d="M249.364,306.547c4.553-1.665,17.729-5.134,19.552-4.947a6.806,6.806,0,0,1,4.888,2.385,10.423,10.423,0,0,1,1.449,3.449l1.685,5.913a5.218,5.218,0,0,1,.3,2.119,1.605,1.605,0,0,1-1.261,1.468c-.946.079-1.537-1.054-1.882-2.01-.887-2.454-1.774-4.908-2.651-7.312.581,3.025,1.153,6.061,1.734,9.086a5.213,5.213,0,0,1,.108,2.168,1.614,1.614,0,0,1-1.4,1.36c-1.005-.02-1.488-1.311-1.715-2.375a65.442,65.442,0,0,0-1.794-7.086,20.222,20.222,0,0,1,.434,10.4,3.067,3.067,0,0,1-.631,1.449,1,1,0,0,1-1.36.158,1.742,1.742,0,0,1-.384-1.123c-.305-3.055-.611-6.12-.917-9.175.3,3.222.581,6.543-.325,9.628a3.15,3.15,0,0,1-.779,1.478,1.133,1.133,0,0,1-1.468.138,2.043,2.043,0,0,1-.473-1.518c-.069-1.922-.138-3.843-.148-6.09a10.863,10.863,0,0,1-6.514,3.686,16.668,16.668,0,0,1-7.5-.966C248.527,315.249,248.734,311.662,249.364,306.547Z" transform="translate(-193.538 -231.312)" fill="#fbbd9a"/>
              <path id="Trazado_719456" data-name="Trazado 719456" d="M214.854,250.471c-1.38-6.376-7.1-16.714-11.757-14.575-2.671,1.232-10.367,3.8-10.367,20.665,0,22.794,3,52.742,10.367,57.758,3.745,2.552,44.7,5.055,44.7,5.055l3-14.674s-30.185-5.6-31.574-9.736C217.258,289.121,218.52,267.431,214.854,250.471Z" transform="translate(-192.73 -230.354)" fill="#4db1f0"/>
              <g id="Grupo_1013683" data-name="Grupo 1013683" transform="translate(4.543 16.619)">
                <path id="Trazado_719457" data-name="Trazado 719457" d="M211.56,247.14c5.065,17.127,6.13,46.268,6.879,48.022.68,1.6,4.533,2.267,7.559,3.3" transform="translate(-197.547 -247.14)" fill="none" stroke="#115089" stroke-linecap="round" stroke-miterlimit="10" stroke-width="1"/>
                <path id="Trazado_719458" data-name="Trazado 719458" d="M217.138,317.9c-5.617-.562-12.594-1.656-14.151-2.818-1.833-1.37-4.07-8.071-5.647-12.644" transform="translate(-197.34 -247.944)" fill="none" stroke="#115089" stroke-linecap="round" stroke-miterlimit="10" stroke-width="1"/>
                <path id="Trazado_719459" data-name="Trazado 719459" d="M216.6,275.715c2.02-2.533,2.848-6.731,3.016-11.845" transform="translate(-197.62 -247.383)" fill="none" stroke="#115089" stroke-linecap="round" stroke-miterlimit="10" stroke-width="1"/>
              </g>
            </g>
          </g>
        </g>
        <g id="Grupo_1013727" data-name="Grupo 1013727" transform="translate(93.344)">
          <g id="Grupo_1013724" data-name="Grupo 1013724" transform="translate(38.499)">
            <g id="Grupo_1013692" data-name="Grupo 1013692" transform="translate(38.525 185.683)">
              <g id="Grupo_1013690" data-name="Grupo 1013690" transform="translate(0 14.752)">
                <rect id="Rectángulo_347431" data-name="Rectángulo 347431" width="72.6" height="6.573" transform="translate(6.642 65.494)" fill="#326894"/>
                <g id="Grupo_1013687" data-name="Grupo 1013687" transform="translate(0 0.678)">
                  <path id="Trazado_719460" data-name="Trazado 719460" d="M380.7,361.492a4.32,4.32,0,0,1-.039.5l-1.123,9.056-10.042,80.72a3.952,3.952,0,0,1-7.874-.473,4.314,4.314,0,0,1,.039-.5l9.914-79.754,1.242-10.032a3.958,3.958,0,0,1,7.884.483Z" transform="translate(-361.62 -357.548)" fill="#4d8ab3"/>
                  <path id="Trazado_719461" data-name="Trazado 719461" d="M380.846,361.492a4.32,4.32,0,0,1-.039.5l-1.123,9.056H371.73l1.242-10.032a3.952,3.952,0,0,1,7.874.473Z" transform="translate(-361.767 -357.548)" fill="#326894"/>
                </g>
                <g id="Grupo_1013688" data-name="Grupo 1013688" transform="translate(39.99)">
                  <path id="Trazado_719462" data-name="Trazado 719462" d="M410.094,360.8v90.466a3.942,3.942,0,1,1-7.884,0V360.8a3.941,3.941,0,0,1,3.942-3.942,3.937,3.937,0,0,1,3.942,3.942Z" transform="translate(-402.2 -356.86)" fill="#4d8ab3"/>
                  <path id="Trazado_719463" data-name="Trazado 719463" d="M408.941,358.013a3.908,3.908,0,0,1,1.153,2.789v10.239H402.2V360.8a3.951,3.951,0,0,1,6.741-2.789Z" transform="translate(-402.2 -356.86)" fill="#326894"/>
                </g>
                <g id="Grupo_1013689" data-name="Grupo 1013689" transform="translate(68.5 0.688)">
                  <path id="Trazado_719464" data-name="Trazado 719464" d="M450.2,451.288a3.947,3.947,0,0,1-7.864.493l-10.042-80.72L431.169,362a4.308,4.308,0,0,1-.039-.5,3.952,3.952,0,0,1,7.874-.473l1.242,10.032,9.914,79.754A2.554,2.554,0,0,1,450.2,451.288Z" transform="translate(-431.13 -357.558)" fill="#4d8ab3"/>
                  <path id="Trazado_719465" data-name="Trazado 719465" d="M440.256,371.051H432.3l-1.123-9.056a4.32,4.32,0,0,1-.039-.5,3.952,3.952,0,0,1,7.874-.473Z" transform="translate(-431.13 -357.558)" fill="#326894"/>
                </g>
              </g>
              <g id="Grupo_1013691" data-name="Grupo 1013691" transform="translate(3.558)">
                <path id="Trazado_719466" data-name="Trazado 719466" d="M456.425,350.217v2.631a8.323,8.323,0,0,1-8.327,8.327H373.557a8.323,8.323,0,0,1-8.327-8.327v-2.631a8.323,8.323,0,0,1,8.327-8.327H448.1A8.317,8.317,0,0,1,456.425,350.217Z" transform="translate(-365.23 -341.89)" fill="#994403"/>
                <path id="Trazado_719467" data-name="Trazado 719467" d="M456.527,350.217v2.631a8.323,8.323,0,0,1-8.327,8.327H380.547a8.323,8.323,0,0,1-8.327-8.327v-2.631a8.323,8.323,0,0,1,8.327-8.327H448.2A8.317,8.317,0,0,1,456.527,350.217Z" transform="translate(-365.332 -341.89)" fill="#852e03"/>
              </g>
            </g>
            <g id="Grupo_1013699" data-name="Grupo 1013699" transform="translate(16.731 57.758)">
              <g id="Grupo_1013698" data-name="Grupo 1013698">
                <g id="Grupo_1013694" data-name="Grupo 1013694">
                  <g id="Grupo_1013693" data-name="Grupo 1013693">
                    <path id="Trazado_719468" data-name="Trazado 719468" d="M358.421,229.3c1.5-2.454.039-5.647.512-8.485a3.352,3.352,0,0,1,1.084-2.089,1.712,1.712,0,0,1,2.2-.01c.7.68.463,1.823.453,2.8-.02,1.754.818,3.38,1.183,5.095.887,4.159-1.321,7.578-3.429,11.165a20.532,20.532,0,0,1-8.445,3.341c-1.4.138-8.564-3.814-11.362-12.309-1.409-4.257-1.242-6.021-.769-6.6a1.53,1.53,0,0,1,2-.4,2.259,2.259,0,0,1,.68,1.143c.9,2.552,1.784,5.1,2.661,7.756a16.412,16.412,0,0,1-5.115-12.762c.049-.907.325-2,1.192-2.267a1.632,1.632,0,0,1,1.587.493,4.964,4.964,0,0,1,.916,1.478c1.242,2.69,2.493,5.371,4.238,8.564a12.422,12.422,0,0,1-3.39-11.973c.187-.71.611-1.537,1.35-1.547s1.192.818,1.459,1.527q1.892,5.07,3.784,10.15a14.371,14.371,0,0,1-2.129-9.579c.158-1.2.769-2.651,1.991-2.7a2.01,2.01,0,0,1,1.7,1.035,6.71,6.71,0,0,1,.68,1.961C354.391,218.939,356.105,222.6,358.421,229.3Z" transform="translate(-339.505 -212.079)" fill="#fdbd9b"/>
                    <path id="Trazado_719469" data-name="Trazado 719469" d="M340.62,222.029c1.123-.305,1.912.089,2.345,1.715.611,2.3,2.237,7.618,3.912,8.8" transform="translate(-339.521 -212.222)" fill="none" stroke="#b0514a" stroke-linecap="round" stroke-miterlimit="10" stroke-width="0.5"/>
                  </g>
                  <path id="Trazado_719470" data-name="Trazado 719470" d="M360.918,236.02l4.129,9.628-10.919,6.613L349.27,239.41Z" transform="translate(-339.647 -212.427)" fill="#fdbd9b"/>
                </g>
                <g id="Grupo_1013697" data-name="Grupo 1013697" transform="translate(3.945 3.835)">
                  <g id="Grupo_1013695" data-name="Grupo 1013695" transform="translate(0 0.088)">
                    <path id="Trazado_719471" data-name="Trazado 719471" d="M360.381,224.4c-.788-4.405-4.109-7.628-7.9-8.032l-.059-.305s-1.981.355-2.641.5c-4.316.966-6.987,5.8-6.1,10.811s5.075,8.613,9.461,8.032c.67-.089,2.651-.443,2.651-.443l-.059-.306C359.159,232.981,361.17,228.812,360.381,224.4Z" transform="translate(-343.508 -216.06)" fill="#316382"/>
                  </g>
                  <path id="Trazado_719472" data-name="Trazado 719472" d="M352.284,216.088c4.608-.822,9.1,2.747,10.031,7.971s-2.049,10.126-6.657,10.948-9.1-2.746-10.031-7.971S347.676,216.91,352.284,216.088Z" transform="translate(-343.536 -215.971)" fill="#407c91"/>
                  <g id="Grupo_1013696" data-name="Grupo 1013696" transform="translate(3.861 2.215)">
                    <path id="Trazado_719473" data-name="Trazado 719473" d="M360.409,224.438c-.719-4.011-4.178-6.76-7.726-6.13a1.267,1.267,0,0,0-.187.039c-3.439.719-5.647,4.435-4.937,8.376s4.05,6.672,7.539,6.159a1.234,1.234,0,0,0,.187-.03C358.822,232.233,361.128,228.459,360.409,224.438Z" transform="translate(-347.425 -218.219)" fill="#ebf5ff"/>
                  </g>
                </g>
              </g>
              <path id="Trazado_719474" data-name="Trazado 719474" d="M394.381,233.335l-6.721-5.115a17.944,17.944,0,0,0-6.721,7.677c-2.336,5.193-5.43,22.528-5.43,22.528l-12.555-20.853L346.96,248.925s17.738,44.9,28.421,45.44,18.2-9.352,18.2-9.352Z" transform="translate(-339.613 -212.313)" fill="#fff"/>
            </g>
            <g id="Grupo_1013706" data-name="Grupo 1013706" transform="translate(0 143.958)">
              <g id="Grupo_1013701" data-name="Grupo 1013701" transform="translate(0 127.825)">
                <path id="Trazado_719475" data-name="Trazado 719475" d="M341.32,430.275l2.04,12.86,8.416,3.42,9.667-4.622-1.754-12.673Z" transform="translate(-322.8 -429.26)" fill="#fbbd9a"/>
                <g id="Grupo_1013700" data-name="Grupo 1013700" transform="translate(0 11.53)">
                  <path id="Trazado_719476" data-name="Trazado 719476" d="M366.61,459.083l-43.627-.631a11.093,11.093,0,0,1-.414-2.217,7.856,7.856,0,0,1,2.7-7.115c3.666-2.848,9.49-3.242,13.274-4.711a8.431,8.431,0,0,0,3.636-3.114l6.208.355s.512,3.459,2.818,3.252,9.924-3.942,9.924-3.942a38.379,38.379,0,0,1,5.41,15.275A15.653,15.653,0,0,1,366.61,459.083Z" transform="translate(-322.527 -440.96)" fill="#502202"/>
                  <path id="Trazado_719477" data-name="Trazado 719477" d="M366.611,459.308l-43.627-.631a11.093,11.093,0,0,1-.414-2.217h43.962A15.251,15.251,0,0,1,366.611,459.308Z" transform="translate(-322.528 -441.185)" fill="#855321"/>
                </g>
              </g>
              <g id="Grupo_1013705" data-name="Grupo 1013705" transform="translate(11.206)">
                <g id="Grupo_1013703" data-name="Grupo 1013703" transform="translate(40.965 127.825)">
                  <path id="Trazado_719478" data-name="Trazado 719478" d="M394.26,430.275l2.04,12.86,8.416,3.42,9.667-4.622-1.754-12.673Z" transform="translate(-375.74 -429.26)" fill="#fbbd9a"/>
                  <g id="Grupo_1013702" data-name="Grupo 1013702" transform="translate(0 11.53)">
                    <path id="Trazado_719479" data-name="Trazado 719479" d="M419.55,459.083l-43.627-.631a11.093,11.093,0,0,1-.414-2.217,7.856,7.856,0,0,1,2.7-7.115c3.666-2.848,9.49-3.242,13.274-4.711a8.431,8.431,0,0,0,3.636-3.114l6.208.355s.512,3.459,2.818,3.252,9.924-3.942,9.924-3.942a38.379,38.379,0,0,1,5.41,15.275A15.653,15.653,0,0,1,419.55,459.083Z" transform="translate(-375.467 -440.96)" fill="#502202"/>
                    <path id="Trazado_719480" data-name="Trazado 719480" d="M419.551,459.308l-43.627-.631a11.093,11.093,0,0,1-.414-2.217h43.962A15.251,15.251,0,0,1,419.551,459.308Z" transform="translate(-375.468 -441.185)" fill="#855321"/>
                  </g>
                </g>
                <g id="Grupo_1013704" data-name="Grupo 1013704">
                  <path id="Trazado_719481" data-name="Trazado 719481" d="M390.821,301.29l-7.145,11.579s-40.907,6.228-47.529,16.25c-6.11,9.244,2.168,102.942,2.168,102.942h28.1s-2.148-69.209,0-75.615,66.568-6.041,70.264-14.733,4.927-39.192,4.927-39.192" transform="translate(-333.898 -299.575)" fill="#112c45"/>
                  <path id="Trazado_719482" data-name="Trazado 719482" d="M443.346,314.628s1.587,25.08-6.652,31.082c-7.155,5.213-25.346,6.573-25.346,6.573l3.508,78.01-26.864,1.754S374.649,341,375.28,332.268s26.47-15.048,24.706-16.29c0,0-19.916-6.76-12.535-14.191.168-.168.355-.345.542-.512,1.715-1.518,22.7.049,22.7.049l19.345-1.774,7.657,8.682Z" transform="translate(-334.499 -299.55)" fill="#163a4a"/>
                </g>
              </g>
            </g>
            <path id="Trazado_719483" data-name="Trazado 719483" d="M442.529,322.57c-.168,1.232-.355,2.552-.552,3.893-3.311-4.208-8.662-10.367-13.383-12.959-9.786-5.381-41.065-9.056-41.065-9.056l.118-2.671c.168-.168.355-.345.542-.512,1.715-1.518,22.7.049,22.7.049l19.345-1.774,7.657,8.682Z" transform="translate(-323.472 -155.592)" fill="#112c45"/>
            <g id="Grupo_1013716" data-name="Grupo 1013716" transform="translate(58.781)">
              <g id="Grupo_1013707" data-name="Grupo 1013707" transform="translate(15.842 50.437)">
                <path id="Trazado_719484" data-name="Trazado 719484" d="M429.726,220.417s-11.52,14.881-18.694,14.122-12.782-8.7-12.782-8.7,2.878-1.064,4.119-5.765c.729-2.71.9-6.632-.345-12.259l21.326-3.163a29.534,29.534,0,0,0,.8,7.391C424.956,215.313,426.553,218.8,429.726,220.417Z" transform="translate(-398.25 -204.65)" fill="#fdbd9b"/>
                <path id="Trazado_719485" data-name="Trazado 719485" d="M402.425,220.083c.729-2.71.9-6.632-.345-12.259l21.326-3.163a29.534,29.534,0,0,0,.8,7.391A36.211,36.211,0,0,1,402.425,220.083Z" transform="translate(-398.306 -204.65)" fill="#f0997f"/>
              </g>
              <g id="Grupo_1013715" data-name="Grupo 1013715">
                <g id="Grupo_1013709" data-name="Grupo 1013709" transform="translate(0 36.515)">
                  <path id="Trazado_719486" data-name="Trazado 719486" d="M382.2,195c.326-2.883,3.791-4.856,7.739-4.409s6.884,3.147,6.556,6.028-3.791,4.856-7.739,4.409S381.872,197.877,382.2,195Z" transform="translate(-382.175 -190.523)" fill="#f0997f"/>
                  <g id="Grupo_1013708" data-name="Grupo 1013708" transform="translate(3.74 3.446)">
                    <path id="Trazado_719487" data-name="Trazado 719487" d="M390.355,195.814v-.079a1.716,1.716,0,0,0-1.715-1.715h-.956a1.716,1.716,0,0,0-1.715,1.715v.079a1.716,1.716,0,0,0,1.715,1.715h.956A1.716,1.716,0,0,0,390.355,195.814Z" transform="translate(-385.97 -194.02)" fill="#4b8394"/>
                    <rect id="Rectángulo_347432" data-name="Rectángulo 347432" width="1.439" height="3.942" transform="translate(0 1.754)" fill="#4b8394"/>
                  </g>
                </g>
                <g id="Grupo_1013710" data-name="Grupo 1013710" transform="translate(5.632 8.86)">
                  <path id="Trazado_719488" data-name="Trazado 719488" d="M430.429,187.126c0-13.619-9.421-24.666-21.05-24.666s-21.05,7.273-21.05,24.666c0,13.619,5.282,25.435,17.8,26.263C417.727,214.148,430.429,200.755,430.429,187.126Z" transform="translate(-387.896 -162.46)" fill="#fdbd9b"/>
                  <path id="Trazado_719489" data-name="Trazado 719489" d="M427.939,193.642a29.607,29.607,0,0,1-8.11-13.708,6.42,6.42,0,0,1-5.647-.857,15.66,15.66,0,0,1-13.225-.759,11.018,11.018,0,0,1-9.805-.305,20.915,20.915,0,0,0-3.262,6.691q.443-7.036.907-14.082,16.659-2.35,33.467-3.272a3.656,3.656,0,0,1,1.872.227,3.612,3.612,0,0,1,1.478,2.326C427.979,177.687,429.181,185.827,427.939,193.642Z" transform="translate(-387.89 -162.531)" fill="#f0997f"/>
                </g>
                <g id="Grupo_1013711" data-name="Grupo 1013711" transform="translate(3.949)">
                  <path id="Trazado_719490" data-name="Trazado 719490" d="M433.266,168.912c-.463,7-.916,16.024-1.38,22.932-.65,2.375-2.69,2.286-5.46,3.173a68.485,68.485,0,0,1-5.1-18.685,13.566,13.566,0,0,1-8.357-.552,17.83,17.83,0,0,1-13.018-.03,15.025,15.025,0,0,1-9.677.177c-1.133,3.439-1.685,8.662-1.981,12.328-.394-3.36-1.7-13.757-2.02-20.882a24.053,24.053,0,0,1,.246-6.553c1.321-3.873,5.6-2.621,6.741-1.291A6.41,6.41,0,0,1,397.6,155.9a7.049,7.049,0,0,1,5.755,1.37,7.345,7.345,0,0,1,6.179-3.794,6.119,6.119,0,0,1,5.923,3.784,12.9,12.9,0,0,1,3.715-1.5,5.419,5.419,0,0,1,3.883.6,4.188,4.188,0,0,1,1.36,1.449,5.975,5.975,0,0,1,.759,2.217,3.93,3.93,0,0,1,4.918-.916,6.4,6.4,0,0,1,3.016,4.356A18.62,18.62,0,0,1,433.266,168.912Z" transform="translate(-386.183 -153.469)" fill="#502202"/>
                  <path id="Trazado_719491" data-name="Trazado 719491" d="M424.416,157.816a7.266,7.266,0,0,0-4.474-.434,6.68,6.68,0,0,0-4.494,3.449,6.141,6.141,0,0,0-5.883-3.883c-2.513.128-4.839,2-5.992,4.937a6.505,6.505,0,0,0-5.617-2.217,6.192,6.192,0,0,0-4.927,3.666,2.8,2.8,0,0,0-3.065-.621,5.411,5.411,0,0,0-2.464,2.168,11.94,11.94,0,0,0-1.242,2.483,24.053,24.053,0,0,1,.246-6.553c1.321-3.873,5.6-2.621,6.741-1.291a6.41,6.41,0,0,1,4.346-3.627,7.049,7.049,0,0,1,5.755,1.37,7.345,7.345,0,0,1,6.179-3.794,6.119,6.119,0,0,1,5.923,3.784,12.9,12.9,0,0,1,3.715-1.5,5.419,5.419,0,0,1,3.883.6A4.241,4.241,0,0,1,424.416,157.816Z" transform="translate(-386.182 -153.469)" fill="#6b4019"/>
                </g>
                <g id="Grupo_1013712" data-name="Grupo 1013712" transform="translate(9.249 32.303)">
                  <path id="Trazado_719492" data-name="Trazado 719492" d="M396.911,186.427a6.848,6.848,0,0,0-5.351.976" transform="translate(-391.56 -186.248)" fill="none" stroke="#502202" stroke-linecap="round" stroke-miterlimit="10" stroke-width="2"/>
                  <path id="Trazado_719493" data-name="Trazado 719493" d="M411.1,186.782a6.484,6.484,0,0,1,6.149.6" transform="translate(-391.844 -186.249)" fill="none" stroke="#502202" stroke-linecap="round" stroke-miterlimit="10" stroke-width="2"/>
                  <path id="Trazado_719494" data-name="Trazado 719494" d="M402.54,194.43a41.051,41.051,0,0,0,.572,5.814" transform="translate(-391.72 -186.367)" fill="none" stroke="#b0514a" stroke-linecap="round" stroke-miterlimit="10" stroke-width="2"/>
                  <path id="Trazado_719495" data-name="Trazado 719495" d="M405.33,205.795a9.178,9.178,0,0,0,6.494-2.4" transform="translate(-391.76 -186.497)" fill="none" stroke="#b0514a" stroke-linecap="round" stroke-miterlimit="10" stroke-width="2"/>
                  <path id="Trazado_719496" data-name="Trazado 719496" d="M411.863,193.992c.6-.105,1.188.44,1.325,1.217a1.3,1.3,0,0,1-.829,1.6c-.6.1-1.188-.441-1.325-1.218A1.3,1.3,0,0,1,411.863,193.992Z" transform="translate(-391.843 -186.361)" fill="#2d3a5e"/>
                  <path id="Trazado_719497" data-name="Trazado 719497" d="M395.122,194.221c.6-.105,1.188.44,1.325,1.217a1.3,1.3,0,0,1-.829,1.6c-.6.1-1.188-.441-1.325-1.217A1.3,1.3,0,0,1,395.122,194.221Z" transform="translate(-391.599 -186.364)" fill="#2d3a5e"/>
                </g>
                <g id="Grupo_1013714" data-name="Grupo 1013714" transform="translate(39.904 36.483)">
                  <path id="Trazado_719498" data-name="Trazado 719498" d="M429.112,190.584c3.936-.543,7.447,1.346,7.844,4.22s-2.474,5.644-6.409,6.186-7.447-1.346-7.843-4.22S425.176,191.126,429.112,190.584Z" transform="translate(-422.667 -190.491)" fill="#fdbd9b"/>
                  <g id="Grupo_1013713" data-name="Grupo 1013713" transform="translate(6.221 3.478)">
                    <path id="Trazado_719499" data-name="Trazado 719499" d="M428.98,195.814v-.079a1.716,1.716,0,0,1,1.715-1.715h.956a1.716,1.716,0,0,1,1.715,1.715v.079a1.716,1.716,0,0,1-1.715,1.715h-.956A1.716,1.716,0,0,1,428.98,195.814Z" transform="translate(-428.98 -194.02)" fill="#4b8394"/>
                    <rect id="Rectángulo_347433" data-name="Rectángulo 347433" width="1.439" height="3.942" transform="translate(2.947 1.754)" fill="#4b8394"/>
                  </g>
                </g>
              </g>
            </g>
            <g id="Grupo_1013717" data-name="Grupo 1013717" transform="translate(64.719 62.764)">
              <path id="Trazado_719500" data-name="Trazado 719500" d="M426.959,217.34s-11.678,7.056-13.708,9.589a15.272,15.272,0,0,0-2.651,6.011s-2.8-5.9-3.429-6.4-5.529-5.134-5.529-5.134l-5.745,4.356-7.7,4,.325,73.93,52.052,3.528L441.918,227Z" transform="translate(-388.2 -217.162)" fill="#ffa031"/>
              <path id="Trazado_719501" data-name="Trazado 719501" d="M410.794,233.61c-2.464,20.734,1.813,56.97-5.134,71.042" transform="translate(-388.454 -217.398)" fill="none" stroke="#3e7c8a" stroke-linecap="round" stroke-miterlimit="10" stroke-width="0.5"/>
              <path id="Trazado_719502" data-name="Trazado 719502" d="M411.89,229.863s.877-3.272,2.9-4.888,12.437-7.746,12.713-7.815,5.391,3.5,5.391,3.5l-7.726,10.968s-7.923-5.568-9.776-5.095C413.615,226.995,411.89,229.863,411.89,229.863Z" transform="translate(-388.544 -217.159)" fill="#d57c14"/>
              <path id="Trazado_719503" data-name="Trazado 719503" d="M409.238,229.921a11.537,11.537,0,0,0-1.656-3.607c-1.222-1.508-5.262-5.864-5.676-5.834s-4.513,2.483-5.243,3.971-.315,8.524-.315,8.524,6.918-6.583,9.618-5.834C407.76,227.644,409.238,229.921,409.238,229.921Z" transform="translate(-388.317 -217.207)" fill="#d57c14"/>
            </g>
            <g id="Grupo_1013718" data-name="Grupo 1013718" transform="translate(96.285 63.801)">
              <path id="Trazado_719504" data-name="Trazado 719504" d="M431.908,219.41s-9.037,8.495-10.4,17.118-.838,53.994,7.529,69.091c7.253,13.1,7.943,54.812,7.943,74.176l25.386-8.751s-.108-34.738-8.308-66.9c-6.356-24.932-.256-70.491-3.893-74.945C447.636,226.082,431.908,219.41,431.908,219.41Z" transform="translate(-420.243 -218.229)" fill="#fff"/>
              <path id="Trazado_719505" data-name="Trazado 719505" d="M421.186,267.809s-2.1-23.967-.069-31.683,7.9-17.522,9.49-17.867c2.621-.562,8.485,3.981,8.485,3.981a57.876,57.876,0,0,0-6.149,20.685c-.128,1.123-9.441,4.563-9.441,4.563s7.273,5.322,7.174,5.844C430.568,253.874,421.186,267.809,421.186,267.809Z" transform="translate(-420.232 -218.211)" fill="#dae8f7"/>
            </g>
            <g id="Grupo_1013721" data-name="Grupo 1013721" transform="translate(70.71 69.078)">
              <g id="Grupo_1013719" data-name="Grupo 1013719" transform="translate(0 75.676)">
                <ellipse id="Elipse_8510" data-name="Elipse 8510" cx="9.865" cy="6.139" rx="9.865" ry="6.139" transform="translate(0 3.342)" fill="#407c91"/>
                <path id="Trazado_719506" data-name="Trazado 719506" d="M417.727,301.8l-10.052-1.33a4.84,4.84,0,0,0-2.68.158,3.618,3.618,0,0,0-1.754,3.173c1.675.148,3.351.286,5.046.562A33.064,33.064,0,0,1,400.9,311.7a8.116,8.116,0,0,0-1.764,1.508,2.39,2.39,0,0,0-.5,2.178,2.279,2.279,0,0,0,1.744,1.37,19.388,19.388,0,0,0,2.444.069,2.667,2.667,0,0,0,1.291,2.907,3.2,3.2,0,0,0,3.351-.434,3.567,3.567,0,0,0,2.592,1.823,7.946,7.946,0,0,0,3.183-.5,4.207,4.207,0,0,0,3.2,1.439,5.33,5.33,0,0,0,3.37-1.468,25.924,25.924,0,0,0,6.711-9.431A71.939,71.939,0,0,1,417.727,301.8Z" transform="translate(-394.342 -300.358)" fill="#fbbd9a"/>
              </g>
              <g id="Grupo_1013720" data-name="Grupo 1013720" transform="translate(18.921)">
                <path id="Trazado_719507" data-name="Trazado 719507" d="M434.185,238.391c-.246-4.76,2.168-13.718,5.6-14.654,5.341-1.449,14.417,6.573,16.8,12.959s9.589,45.519,7.568,50.85c-2.769,7.273-39.34,26.834-39.34,26.834L413.48,297.815s25.356-13.757,26.864-18.133C441.28,276.943,434.766,249.557,434.185,238.391Z" transform="translate(-413.48 -223.566)" fill="#fff"/>
                <path id="Trazado_719508" data-name="Trazado 719508" d="M446.635,230.29s-4.09,5.351-4.09,14.989,2.365,32.461,1.813,33.3S425.94,291,425.94,291" transform="translate(-413.661 -223.664)" fill="none" stroke="#b8c8e3" stroke-linecap="round" stroke-miterlimit="10" stroke-width="1"/>
                <path id="Trazado_719509" data-name="Trazado 719509" d="M443.01,260.09a25.053,25.053,0,0,1-5.4-10.85" transform="translate(-413.831 -223.939)" fill="none" stroke="#b8c8e3" stroke-linecap="round" stroke-miterlimit="10" stroke-width="1"/>
                <path id="Trazado_719510" data-name="Trazado 719510" d="M433.24,311.551c5.8-3.163,14.2-8.1,19.256-12.131" transform="translate(-413.767 -224.668)" fill="none" stroke="#b8c8e3" stroke-linecap="round" stroke-miterlimit="10" stroke-width="1"/>
              </g>
            </g>
            <g id="Grupo_1013723" data-name="Grupo 1013723" transform="translate(43.708 66.027)">
              <path id="Trazado_719511" data-name="Trazado 719511" d="M399.874,221.12s-1.537,5.913-1.537,16.191c0,17.246-2.247,65.2-11.323,72.284-7.135,5.568-16.073,5.213-20.133,5.213,0,0,8.445-4.494,11.6-9.707,3.508-5.795,4.1-24.213,4.563-33.811.493-10.17,1.409-38.2,2.572-40.641C388.137,225.377,399.874,221.12,399.874,221.12Z" transform="translate(-366.88 -220.479)" fill="#fff"/>
              <path id="Trazado_719512" data-name="Trazado 719512" d="M397.219,269.31s2.06-16.231,2.06-27.514a100.979,100.979,0,0,1,2.079-21.326s-7.174,2.276-7.963,3.439-4.5,7.834-6.406,20.478c-.315,2.089,8.16,3.814,8.16,3.814s-6.534,5.075-6.534,6.346C388.626,257.011,397.219,269.31,397.219,269.31Z" transform="translate(-367.172 -220.47)" fill="#dae8f7"/>
              <g id="Grupo_1013722" data-name="Grupo 1013722" transform="translate(14.437 15.186)">
                <path id="Trazado_719513" data-name="Trazado 719513" d="M385.436,235.88c0,27.495-2.493,49.49-3.7,57.128" transform="translate(-381.533 -235.88)" fill="none" stroke="#b8c8e3" stroke-linecap="round" stroke-miterlimit="10" stroke-width="1"/>
                <path id="Trazado_719514" data-name="Trazado 719514" d="M381.53,245.88c.71,3.942,2.424,7.834,3.479,9.027" transform="translate(-381.53 -236.025)" fill="none" stroke="#b8c8e3" stroke-linecap="round" stroke-miterlimit="10" stroke-width="1"/>
              </g>
            </g>
          </g>
          <g id="Grupo_1013726" data-name="Grupo 1013726" transform="translate(0 45.549)">
            <path id="Trazado_719515" data-name="Trazado 719515" d="M386.67,199.739s1.35,31.722,20.37,32.934C423.093,233.7,432,213.969,432,199.69" transform="translate(-284.96 -199.69)" fill="none" stroke="#163649" stroke-miterlimit="10" stroke-width="1"/>
            <g id="Grupo_1013725" data-name="Grupo 1013725" transform="translate(0 33.378)">
              <path id="Trazado_719516" data-name="Trazado 719516" d="M406.75,233.56s-11.7,42.75-44.149,50.476c-39.714,9.461-78.631-1.173-78.631-1.173" transform="translate(-283.467 -233.56)" fill="none" stroke="#163649" stroke-linecap="round" stroke-miterlimit="10" stroke-width="1"/>
              <path id="Trazado_719517" data-name="Trazado 719517" d="M354.3,234.79s4.484,25.918-15.61,39.34c-17.8,11.895-54.723,8.219-54.723,8.219" transform="translate(-283.467 -233.578)" fill="none" stroke="#163649" stroke-linecap="round" stroke-miterlimit="10" stroke-width="1"/>
              <path id="Trazado_719518" data-name="Trazado 719518" d="M393.34,309.439s-72.787.148-109.88-25.849" transform="translate(-283.46 -234.287)" fill="none" stroke="#163649" stroke-linecap="round" stroke-miterlimit="10" stroke-width="1"/>
            </g>
          </g>
        </g>
      </g>
      <g id="Grupo_1013761" data-name="Grupo 1013761" transform="translate(272.502)">
        <path id="Trazado_719519" data-name="Trazado 719519" d="M549.59,124.387a16.895,16.895,0,0,1,32.176-8.12c2.818,6.031,1.853,13.1.493,19.621s-3.035,13.274-1.488,19.749c1.311,5.45,4.829,10.259,5.529,15.817a16.613,16.613,0,0,1-11.885,17.531c-4.218,1.094-9.668-.256-11.008-4.405-1.242-3.843,1.6-7.933,1.025-11.924-.483-3.351-3.213-5.834-5.46-8.357C550.693,154.976,550.575,141.544,549.59,124.387Z" transform="translate(-466.485 -106.567)" fill="#381b07"/>
        <g id="Grupo_1013730" data-name="Grupo 1013730" transform="translate(0 76.357)">
          <path id="Trazado_719520" data-name="Trazado 719520" d="M476.062,223.74c-3.774-4.307-6.534-12.062-6.534-14.674,0-3.085-.493-6.248.591-9.135a22.911,22.911,0,0,1,2.276-4.178c.976-1.527,1.941-3.055,2.917-4.582a3.083,3.083,0,0,1,1.587-1.5c1.212-.325,2.326,1.045,2.267,2.306s-.9,2.316-2.326,3.429a13.592,13.592,0,0,1,3.321-6.159,1.834,1.834,0,0,1,1.606-.769c1,.237.966,1.656.7,2.641-.67,2.474-1.33,4.947-1.863,7.076,2.109,4.021,1.922,8.79,1.961,13.324s.483,9.441,3.479,12.851C483.167,225.632,479.777,220.606,476.062,223.74Z" transform="translate(-465.32 -184.114)" fill="#db8e62"/>
          <path id="Trazado_719521" data-name="Trazado 719521" d="M475.72,223.551s10,34.176,17.561,34.876c9.145.857,16.576-7.6,16.576-7.6l5.972-30.609-13.54-8.11-7.47,24.528-10.663-12.052Z" transform="translate(-465.412 -184.458)" fill="#db8e62"/>
          <path id="Trazado_719522" data-name="Trazado 719522" d="M521.1,224.917c-7.45-2.818-14.93-5.578-22.37-8.436,2.03-9.727,4.849-21.385,7.312-25.11A16.536,16.536,0,0,1,518.1,184.05l3.4,10.062-.4,30.6Z" transform="translate(-465.746 -184.05)" fill="#e8e8e8"/>
          <g id="Grupo_1013729" data-name="Grupo 1013729" transform="translate(0 4.366)">
            <path id="Trazado_719523" data-name="Trazado 719523" d="M513.745,244.78l-21.779-56.3-26.706,6.928,24.716,62.686Z" transform="translate(-465.26 -188.48)" fill="#115089"/>
            <path id="Trazado_719524" data-name="Trazado 719524" d="M510.17,241.731,490.549,191.62l-21.779,5.9,21.454,54.832Z" transform="translate(-465.311 -188.526)" fill="#ebf5ff"/>
            <path id="Trazado_719525" data-name="Trazado 719525" d="M483.642,190.24l1.36,3.636-8.544,2.375-1.527-3.715Z" transform="translate(-465.401 -188.506)" fill="#678ca8"/>
          </g>
        </g>
        <g id="Grupo_1013734" data-name="Grupo 1013734" transform="translate(35.615 153.351)">
          <g id="Grupo_1013733" data-name="Grupo 1013733" transform="translate(0 148.707)">
            <g id="Grupo_1013732" data-name="Grupo 1013732">
              <g id="Grupo_1013731" data-name="Grupo 1013731" transform="translate(0 17.64)">
                <path id="Trazado_719526" data-name="Trazado 719526" d="M501.4,451.8c.079,3.7,38.837,2.444,40.582-.6,1.133-1.991-.956-7-2.552-10.239-.847-1.744-1.557-2.976-1.557-2.976l-4.927-6.9-3.932-.108c-8.721,5.036-17.413,10.515-22.656,14.8C503.263,448.324,501.37,450.433,501.4,451.8Z" transform="translate(-501.4 -430.98)" fill="#115089"/>
                <path id="Trazado_719527" data-name="Trazado 719527" d="M506.43,445.792c8.012,5.046,26.47-2.01,33.072-4.819-.847-1.744-1.557-2.976-1.557-2.976l-4.927-6.9-3.932-.108C520.365,436.026,511.663,441.5,506.43,445.792Z" transform="translate(-501.473 -430.98)" fill="#db8e62"/>
              </g>
              <path id="Trazado_719528" data-name="Trazado 719528" d="M518.5,415.524l1.37,15.107.493,5.42.345,3.725,15.679-1.646.128-2.631v-.01l.128-2.759.867-17.857.089-1.794-9.549,1.222Z" transform="translate(-501.648 -413.08)" fill="#db8e62"/>
            </g>
            <path id="Trazado_719529" data-name="Trazado 719529" d="M518.5,415.542l1.37,15.107,7.844.976h.01l6.613.838,2.306.286.867-17.857-9.46-.572Z" transform="translate(-501.648 -413.098)" fill="#cf6e4a"/>
          </g>
          <path id="Trazado_719530" data-name="Trazado 719530" d="M507.178,262.18s-6.741,18.645-5.41,45.154S514.273,426.29,514.273,426.29l27.849-1.311-4.77-119.34-6.721-36.955" transform="translate(-501.402 -262.18)" fill="#fff"/>
        </g>
        <g id="Grupo_1013739" data-name="Grupo 1013739" transform="translate(37.389 147.35)">
          <g id="Grupo_1013737" data-name="Grupo 1013737" transform="translate(57.374 140.203)">
            <g id="Grupo_1013736" data-name="Grupo 1013736">
              <g id="Grupo_1013735" data-name="Grupo 1013735" transform="translate(9.861 16.379)">
                <path id="Trazado_719531" data-name="Trazado 719531" d="M572.1,451.2c2.454,2.759,31.141-23.336,30.5-26.775-.424-2.247-5.262-4.7-8.583-6.13-1.774-.769-3.114-1.252-3.114-1.252l-8.229-2.05-3.065,2.464c-3.37,9.49-6.435,19.305-7.637,25.957C571.253,447.333,571.193,450.171,572.1,451.2Z" transform="translate(-571.426 -414.98)" fill="#115089"/>
                <path id="Trazado_719532" data-name="Trazado 719532" d="M571.98,443.4c9.372-1.36,18.842-18.7,22.045-25.12-1.774-.769-3.114-1.252-3.114-1.252l-8.229-2.05-3.065,2.464C576.247,426.934,573.182,436.739,571.98,443.4Z" transform="translate(-571.434 -414.98)" fill="#db8e62"/>
              </g>
              <path id="Trazado_719533" data-name="Trazado 719533" d="M561.42,412.61l6.514,6.376,8.209,8.032,2.68,2.611,10.87-11.412-1.616-2.1-4.7-6.09-9.007-11.668Z" transform="translate(-561.42 -398.36)" fill="#db8e62"/>
            </g>
            <path id="Trazado_719534" data-name="Trazado 719534" d="M561.42,412.61l6.514,6.376,15.442-8.958-9.007-11.668Z" transform="translate(-561.42 -398.36)" fill="#cf6e4a"/>
          </g>
          <g id="Grupo_1013738" data-name="Grupo 1013738">
            <path id="Trazado_719535" data-name="Trazado 719535" d="M503.5,279.613c2.71,7.529,23.119,20.793,23.119,20.793s-.2,52.555.562,65.8,28.2,56.487,28.2,56.487L581.1,399.86s-19.936-33.338-21.306-41.173,7.253-49.037,7.253-65.81a64.757,64.757,0,0,0-.759-9.47,118.134,118.134,0,0,0-4.582-18.911c-1.646-5.075-3.035-8.406-3.035-8.406a253.576,253.576,0,0,0-27.928,5.933c-12.772,3.567-25.494,8.721-27.435,15.294A3.71,3.71,0,0,0,503.5,279.613Z" transform="translate(-503.201 -256.09)" fill="#e8e8e8"/>
            <path id="Trazado_719536" data-name="Trazado 719536" d="M503.5,279.7a165.688,165.688,0,0,0,21.178,10.564,31.833,31.833,0,0,1,1.537-3.636c.641,1.39,1.291,2.759,2.079,4.642,12.575-3.154,25.267-5.824,38.01-7.775a118.127,118.127,0,0,0-4.582-18.911q-15.462-1.449-30.963-2.474c-12.772,3.567-25.494,8.721-27.435,15.294A3.632,3.632,0,0,0,503.5,279.7Z" transform="translate(-503.201 -256.177)" fill="#afafaf"/>
          </g>
        </g>
        <path id="Trazado_719537" data-name="Trazado 719537" d="M574.857,192.14c-.976-5.913-23.356-13.511-30.963-12.821-16.339,1.488-28.175,4.454-31.9,6.79s-7.125,24.154-7.125,30.234c0,7.194,2.474,21.316,1.813,27.012C505.4,254.4,498.7,277.8,498.7,277.8l24.627,8.633,3.055-5.381,2.789,6.819,40.7-9.332s-3.114-32.412-3.114-38.1C566.766,234.989,576.118,199.768,574.857,192.14Z" transform="translate(-465.746 -107.624)" fill="#fff"/>
        <g id="Grupo_1013741" data-name="Grupo 1013741" transform="translate(60.596 88.379)">
          <path id="Trazado_719538" data-name="Trazado 719538" d="M537.245,196.25c-8.179,42.6-8.633,54.8-10.5,84.731" transform="translate(-526.75 -196.25)" fill="none" stroke="#afafaf" stroke-linecap="round" stroke-miterlimit="10" stroke-width="1"/>
          <g id="Grupo_1013740" data-name="Grupo 1013740" transform="translate(2.769 7.066)">
            <circle id="Elipse_8511" data-name="Elipse 8511" cx="1.37" cy="1.37" r="1.37" transform="translate(7.44)" fill="#136d94"/>
            <circle id="Elipse_8512" data-name="Elipse 8512" cx="1.37" cy="1.37" r="1.37" transform="translate(4.011 18.635)" fill="#136d94"/>
            <circle id="Elipse_8513" data-name="Elipse 8513" cx="1.37" cy="1.37" r="1.37" transform="translate(1.37 38.276)" fill="#136d94"/>
            <circle id="Elipse_8514" data-name="Elipse 8514" cx="1.37" cy="1.37" r="1.37" transform="translate(0 60.794)" fill="#136d94"/>
          </g>
        </g>
        <g id="Grupo_1013750" data-name="Grupo 1013750" transform="translate(23.592 78.362)">
          <g id="Grupo_1013749" data-name="Grupo 1013749" transform="translate(0 23.657)">
            <g id="Grupo_1013747" data-name="Grupo 1013747">
              <g id="Grupo_1013746" data-name="Grupo 1013746">
                <g id="Grupo_1013743" data-name="Grupo 1013743" transform="translate(0 0.201)">
                  <path id="Trazado_719539" data-name="Trazado 719539" d="M489.2,222.825l4.08.325.315.03L520.952,216a3,3,0,0,0,1.744-3.784,3.1,3.1,0,0,0-3.952-1.734l-26.1,9.224-.266.237Z" transform="translate(-489.2 -210.294)" fill="#136d94"/>
                  <g id="Grupo_1013742" data-name="Grupo 1013742" transform="translate(0 9.644)">
                    <path id="Trazado_719540" data-name="Trazado 719540" d="M489.2,222.967l1.123.089,2.956.237a1.908,1.908,0,0,1-.266-.227,1.351,1.351,0,0,1-.4-1.321c.059-.2.177-.4.1-.591a.948.948,0,0,0-.177-.217.981.981,0,0,1-.158-.857l-2.336,2.129Z" transform="translate(-489.2 -220.08)" fill="#d68a5a"/>
                    <path id="Trazado_719541" data-name="Trazado 719541" d="M489.2,223l1.123.089a1.1,1.1,0,0,1-.246-.443,1.108,1.108,0,0,1-.039-.4Z" transform="translate(-489.2 -220.111)" fill="#24151a"/>
                  </g>
                </g>
                <g id="Grupo_1013745" data-name="Grupo 1013745" transform="translate(7.258)">
                  <path id="Trazado_719542" data-name="Trazado 719542" d="M521.63,228.9c-2.69-4.986-5.371-9.973-8.239-14.969a27.125,27.125,0,0,0-6.967-3.843,19.388,19.388,0,0,0-7.913,5.036c-.552.581-1.133,1.4-.877,2.178a1.268,1.268,0,0,0,1.33.808,3.8,3.8,0,0,0,1.547-.621c1.488-.867,2.976-1.744,4.7-2.582a12.612,12.612,0,0,1,1.33,1.252,11.274,11.274,0,0,0-3.213.374,50.674,50.674,0,0,0-5.627,3.1,2.061,2.061,0,0,0-1.133,1.409,1.31,1.31,0,0,0,.7,1.242,2.445,2.445,0,0,0,1.38.2,9.1,9.1,0,0,0,4.829-1.8,6.333,6.333,0,0,1,1.577.611,8.017,8.017,0,0,0-2.168.621,3.013,3.013,0,0,0-1.419,4.277,1.141,1.141,0,0,0-.591,1.123,3.171,3.171,0,0,0,.414,1.271A25.2,25.2,0,0,0,502.68,231a4.416,4.416,0,0,0,1.794,1.744,1.772,1.772,0,0,0,2.257-.857,10.059,10.059,0,0,0,9.52,5.174A30.543,30.543,0,0,0,521.63,228.9Z" transform="translate(-496.565 -210.09)" fill="#db8e62"/>
                  <g id="Grupo_1013744" data-name="Grupo 1013744" transform="translate(5.041 5.992)">
                    <path id="Trazado_719543" data-name="Trazado 719543" d="M510.055,216.82a10.766,10.766,0,0,0-3.065-.65" transform="translate(-501.757 -216.17)" fill="none" stroke="#a8473e" stroke-linecap="round" stroke-miterlimit="10" stroke-width="0.5"/>
                    <path id="Trazado_719544" data-name="Trazado 719544" d="M508.05,221.2a11.269,11.269,0,0,0-2.69.079" transform="translate(-501.733 -216.242)" fill="none" stroke="#a8473e" stroke-linecap="round" stroke-miterlimit="10" stroke-width="0.5"/>
                    <path id="Trazado_719545" data-name="Trazado 719545" d="M501.68,226.1a9.752,9.752,0,0,1,5.193-1" transform="translate(-501.68 -216.299)" fill="none" stroke="#a8473e" stroke-linecap="round" stroke-miterlimit="10" stroke-width="0.5"/>
                    <path id="Trazado_719546" data-name="Trazado 719546" d="M506.434,231.9a10.465,10.465,0,0,1-1.094-2.956" transform="translate(-501.733 -216.356)" fill="none" stroke="#a8473e" stroke-linecap="round" stroke-miterlimit="10" stroke-width="0.5"/>
                    <path id="Trazado_719547" data-name="Trazado 719547" d="M505.634,230.57a8.9,8.9,0,0,1-1.774.138" transform="translate(-501.712 -216.379)" fill="none" stroke="#a8473e" stroke-linecap="round" stroke-miterlimit="10" stroke-width="0.5"/>
                  </g>
                </g>
              </g>
            </g>
            <g id="Grupo_1013748" data-name="Grupo 1013748" transform="translate(25.287 3.883)">
              <path id="Trazado_719548" data-name="Trazado 719548" d="M514.86,235.848s34.058,28.884,43.252,25.632c3.656-1.3,7.283-11.9,9.914-21.779,2.424-9.076,4-17.522,4-17.522l-19.3-8.15s-1.291,8.751-2.592,15.866c-.857,4.8-1.725,8.85-2.188,8.968-1.971.552-26.972-10.574-26.972-10.574Z" transform="translate(-514.86 -214.03)" fill="#db8e62"/>
              <path id="Trazado_719549" data-name="Trazado 719549" d="M550.66,229.906c4.6,3.016,11.836,7.46,17.876,9.805,2.424-9.076,4-17.522,4-17.522l-19.3-8.15S551.961,222.791,550.66,229.906Z" transform="translate(-515.38 -214.03)" fill="#cf6e4a"/>
            </g>
          </g>
          <path id="Trazado_719550" data-name="Trazado 719550" d="M572.518,232.052c-8.445-1.606-15.147-3-23.218-5.883,1.143-9.48,3.814-26.627,5.982-31.909,1.537-3.745,7.578-10.328,14.388-7.48s9.421,7.342,8.7,19.2C578.105,210.195,574.094,223.469,572.518,232.052Z" transform="translate(-490.073 -186.085)" fill="#f6f6f6"/>
        </g>
        <g id="Grupo_1013760" data-name="Grupo 1013760" transform="translate(46.643 4.827)">
          <g id="Grupo_1013753" data-name="Grupo 1013753" transform="translate(16.899 50.677)">
            <g id="Grupo_1013751" data-name="Grupo 1013751" transform="translate(1.322)">
              <path id="Trazado_719551" data-name="Trazado 719551" d="M531.08,183.4s1.981,8.968,5.8,11.589,18.3-13.5,18.3-13.5c-2.493-2.326-3.094-6.888-3.065-10.929a46.833,46.833,0,0,1,.719-7.667l-17.64,5.095a35.4,35.4,0,0,1-.729,9.756C533.268,182.639,531.08,183.4,531.08,183.4Z" transform="translate(-531.08 -162.89)" fill="#db8e62"/>
              <path id="Trazado_719552" data-name="Trazado 719552" d="M534.53,177.741c8.13,1.725,14.348-3.449,17.64-7.184a46.833,46.833,0,0,1,.719-7.667l-17.64,5.095A35.047,35.047,0,0,1,534.53,177.741Z" transform="translate(-531.13 -162.89)" fill="#cf6e4a"/>
            </g>
            <g id="Grupo_1013752" data-name="Grupo 1013752" transform="translate(0 13.538)">
              <path id="Trazado_719553" data-name="Trazado 719553" d="M537.63,195.5c-.227-.039.907-6.09,1.478-6.612s14.477-12.7,15.3-12.249c1.212.65,3.213,4.513,3.213,4.513a50.936,50.936,0,0,1-8.248,8.248C545.671,192.407,539.758,195.866,537.63,195.5Z" transform="translate(-529.853 -176.627)" fill="#afafaf"/>
              <path id="Trazado_719554" data-name="Trazado 719554" d="M537.515,195.5c.305-.305-.315-6.307-.67-6.859-1.153-1.823-3.1-6.573-3.1-9.805,0,0-3.508,1.33-3.942,2.1s1.478,6.465,2.947,9.175C535.239,194.676,537.269,195.751,537.515,195.5Z" transform="translate(-529.739 -176.66)" fill="#afafaf"/>
            </g>
          </g>
          <g id="Grupo_1013759" data-name="Grupo 1013759">
            <g id="Grupo_1013756" data-name="Grupo 1013756">
              <ellipse id="Elipse_8515" data-name="Elipse 8515" cx="5.361" cy="7.341" rx="5.361" ry="7.341" transform="matrix(0.113, -0.994, 0.994, 0.113, 0, 46.471)" fill="#cf6e4a"/>
              <g id="Grupo_1013754" data-name="Grupo 1013754" transform="translate(6.755 8.371)">
                <path id="Trazado_719555" data-name="Trazado 719555" d="M562.377,145.119c0-13.9-9.608-25.159-21.464-25.159s-21.464,11.264-21.464,25.159,5.923,27.711,17.936,27.219C549.221,171.845,562.377,159.014,562.377,145.119Z" transform="translate(-519.445 -119.96)" fill="#db8e62"/>
                <path id="Trazado_719556" data-name="Trazado 719556" d="M557.617,151.093c-2.493-2.71-4.07-7.825-4.454-10a11.741,11.741,0,0,1-6.721-6.061c-3.636,3.636-17.453,5.686-22.065,4.484-3.282,4.05-3.38,6.061-4.543,11.234a56.569,56.569,0,0,1,.976-18.97,203.3,203.3,0,0,0,25.3-10.072c1.4-.67,3.075-1.35,4.415-.562a5.21,5.21,0,0,1,1.744,2.375,30.14,30.14,0,0,0,7.746,9.845c.838.7,1.794,1.488,1.833,2.572a3.9,3.9,0,0,1-.69,1.981C559.608,140.765,559.874,147.614,557.617,151.093Z" transform="translate(-519.445 -119.972)" fill="#cf6e4a"/>
              </g>
              <g id="Grupo_1013755" data-name="Grupo 1013755" transform="translate(3.113)">
                <path id="Trazado_719557" data-name="Trazado 719557" d="M515.75,136.481c-.069,5.262,4.218,16.191,4.218,16.191s.03-9,4.129-14.841c8.485,0,17.886-.394,23.09-5.223a11.52,11.52,0,0,0,7.223,7.1c-.1,4.77,2.089,9.234,3.459,13.245,2.671-1.626,4.681-.936,6.859-3.508,1.261-4.661,2.6-11.944,2.217-16.447a22.673,22.673,0,0,0-3.272-10.338,16.036,16.036,0,0,0-1.577-2.079c-3.035-3.36-7.825-5.322-12.21-4.228a14.029,14.029,0,0,0-9.9-4.849,19.693,19.693,0,0,0-10.722,2.828c-6.356,3.617-11.323,9.214-12.949,17A27.068,27.068,0,0,0,515.75,136.481Z" transform="translate(-515.749 -111.466)" fill="#412408"/>
                <path id="Trazado_719558" data-name="Trazado 719558" d="M515.75,136.481a20.71,20.71,0,0,1,.641-2.01,28.605,28.605,0,0,1,5.45-8.652c3.42-3.922,7.667-7.3,12.683-8.7s10.84-.512,14.585,3.1a14.464,14.464,0,0,1,14.555,2.424,16.025,16.025,0,0,0-1.577-2.079c-3.035-3.36-7.825-5.322-12.21-4.228a14.029,14.029,0,0,0-9.9-4.849,19.693,19.693,0,0,0-10.722,2.828c-6.356,3.617-11.323,9.214-12.949,17A28.079,28.079,0,0,0,515.75,136.481Z" transform="translate(-515.749 -111.466)" fill="#664216"/>
              </g>
              <path id="Trazado_719559" data-name="Trazado 719559" d="M561.6,148.871c3.928-1.005,7.707.5,8.442,3.373s-1.855,6.009-5.783,7.015-7.708-.5-8.443-3.373S557.667,149.878,561.6,148.871Z" transform="translate(-513.217 -112.005)" fill="#db8e62"/>
            </g>
            <g id="Grupo_1013758" data-name="Grupo 1013758" transform="translate(9.716 33.383)">
              <g id="Grupo_1013757" data-name="Grupo 1013757">
                <ellipse id="Elipse_8516" data-name="Elipse 8516" cx="0.936" cy="1.498" rx="0.936" ry="1.498" transform="translate(19.029 7.951)" fill="#411f00"/>
                <ellipse id="Elipse_8517" data-name="Elipse 8517" cx="0.936" cy="1.498" rx="0.936" ry="1.498" transform="translate(1.833 7.951)" fill="#411f00"/>
                <path id="Trazado_719560" data-name="Trazado 719560" d="M527.979,145.714a6.98,6.98,0,0,0-5.529.443" transform="translate(-522.45 -145.341)" fill="none" stroke="#412408" stroke-linecap="round" stroke-miterlimit="10" stroke-width="2"/>
                <path id="Trazado_719561" data-name="Trazado 719561" d="M541.23,146.5a6.609,6.609,0,0,1,6.268.611" transform="translate(-522.723 -145.351)" fill="none" stroke="#412408" stroke-linecap="round" stroke-miterlimit="10" stroke-width="2"/>
                <path id="Trazado_719562" data-name="Trazado 719562" d="M531.788,156.09a18.2,18.2,0,0,0,.02,4.208" transform="translate(-522.584 -145.497)" fill="none" stroke="#a8473e" stroke-linecap="round" stroke-miterlimit="10" stroke-width="2"/>
              </g>
              <path id="Trazado_719563" data-name="Trazado 719563" d="M532.86,164.555c2.612,1.035,5.341.473,6.75-1.665" transform="translate(-522.601 -145.596)" fill="none" stroke="#a8473e" stroke-linecap="round" stroke-miterlimit="10" stroke-width="2"/>
            </g>
          </g>
        </g>
      </g>
    </g>
    <g id="Grupo_1013771" data-name="Grupo 1013771" transform="translate(187.756 47.497)">
      <g id="Grupo_1013764" data-name="Grupo 1013764" transform="translate(0 11.826)">
        <path id="Trazado_719570" data-name="Trazado 719570" d="M36.157,0A36.157,36.157,0,1,1,0,36.157,36.157,36.157,0,0,1,36.157,0Z" fill="#94d0f5"/>
        <g id="Grupo_1013763" data-name="Grupo 1013763" transform="translate(9.924 18.537)">
          <path id="Trazado_719564" data-name="Trazado 719564" d="M201.456,83.88c7.913-14.743,23.563,5.046,23.563,5.046S240.7,72.014,248.581,83c8.189,11.4-23.563,37.96-23.563,37.96S194.725,96.425,201.456,83.88Z" transform="translate(-198.844 -78.421)" fill="#115089"/>
          <path id="Trazado_719565" data-name="Trazado 719565" d="M198.82,100.476l10.968.118,3.41-13.343,7.026,25.366,5.558-30.727,6.041,27.672L235.43,89.5l3.863,10.525,11.993.325" transform="translate(-198.82 -78.471)" fill="none" stroke="#fff" stroke-linecap="round" stroke-miterlimit="10" stroke-width="1"/>
        </g>
      </g>
      <g id="Grupo_1013766" data-name="Grupo 1013766" transform="translate(99.286 67.377)">
        <circle id="Elipse_8519" data-name="Elipse 8519" cx="36.955" cy="36.955" r="36.955" transform="translate(0 0)" fill="#94d0f5"/>
        <g id="Grupo_1013765" data-name="Grupo 1013765" transform="translate(11.592 17.636)">
          <path id="Trazado_719566" data-name="Trazado 719566" d="M346.345,154.831l-28.283,16.2a11.221,11.221,0,1,1-11.156-19.473l28.283-16.2a11.218,11.218,0,0,1,16.4,12.683A11.113,11.113,0,0,1,346.345,154.831Z" transform="translate(-301.263 -133.876)" fill="#fff"/>
          <path id="Trazado_719567" data-name="Trazado 719567" d="M346.637,154.831l-14.151,8.1L321.33,143.459l14.151-8.1a11.218,11.218,0,0,1,16.4,12.683A11.113,11.113,0,0,1,346.637,154.831Z" transform="translate(-301.554 -133.876)" fill="#115089"/>
        </g>
      </g>
      <g id="Grupo_1013770" data-name="Grupo 1013770" transform="translate(194.068)">
        <circle id="Elipse_8520" data-name="Elipse 8520" cx="36.157" cy="36.157" r="36.157" fill="#94d0f5"/>
        <g id="Grupo_1013769" data-name="Grupo 1013769" transform="translate(17.719 12.772)">
          <g id="Grupo_1013767" data-name="Grupo 1013767">
            <path id="Trazado_719568" data-name="Trazado 719568" d="M440.526,65.813V90.6a17.945,17.945,0,0,1-8.179,15.028L422.1,111.607l-9.4-6.1a17.993,17.993,0,0,1-9.037-15.561V65.813l18.31-5.243.128.039Z" transform="translate(-403.66 -60.57)" fill="#fff"/>
            <path id="Trazado_719569" data-name="Trazado 719569" d="M440.8,65.813V90.6a17.945,17.945,0,0,1-8.179,15.028l-10.249,5.982v-51Z" transform="translate(-403.932 -60.571)" fill="#f2e4e5"/>
          </g>
          <g id="Grupo_1013768" data-name="Grupo 1013768" transform="translate(4.426 11.51)">
            <rect id="Rectángulo_347434" data-name="Rectángulo 347434" width="8.505" height="28.007" transform="translate(9.755)" fill="#115089"/>
            <rect id="Rectángulo_347435" data-name="Rectángulo 347435" width="28.007" height="8.505" transform="translate(0 9.754)" fill="#115089"/>
          </g>
        </g>
      </g>
    </g>
  </g>
</svg>
