<svg xmlns="http://www.w3.org/2000/svg" width="248" height="161.336" viewBox="0 0 248 161.336">
  <g id="Group_23_" data-name="Group (23)" transform="translate(-0.882 -0.024)">
    <path id="Trazado_718998" data-name="Trazado 718998" d="M16.409,163.33A15.527,15.527,0,1,0,.882,147.8,15.527,15.527,0,0,0,16.409,163.33Z" transform="translate(0 -67.191)" fill="#ffa031"/>
    <path id="Trazado_718999" data-name="Trazado 718999" d="M259.966,163.774H61.974a1.968,1.968,0,1,1,0-3.936H259.966a1.968,1.968,0,1,1,0,3.936Z" transform="translate(-30.038 -81.194)" fill="#265e91"/>
    <path id="Trazado_719000" data-name="Trazado 719000" d="M466.47,146.426v15.125a1.972,1.972,0,0,0,2.859,1.761l15.01-7.563a1.972,1.972,0,0,0,0-3.522l-15.01-7.563A1.973,1.973,0,0,0,466.47,146.426Z" transform="translate(-236.543 -73.376)" fill="#4671c6"/>
    <path id="Trazado_719001" data-name="Trazado 719001" d="M138.193.024H96.541a5.9,5.9,0,0,0-5.9,5.9V34.788a5.9,5.9,0,0,0,5.9,5.9H109.6a1.972,1.972,0,0,0,.162.358l5.945,9.429a1.968,1.968,0,0,0,3.33,0l5.945-9.429a1.969,1.969,0,0,0,.162-.358h13.054a5.9,5.9,0,0,0,5.9-5.9V5.927A5.9,5.9,0,0,0,138.193.024Z" transform="translate(-45.601 0)" fill="#ffa031"/>
    <path id="Trazado_719002" data-name="Trazado 719002" d="M216.806,274.922h41.651a5.9,5.9,0,0,0,5.9-5.9V240.157a5.9,5.9,0,0,0-5.9-5.9H245.4a1.971,1.971,0,0,0-.162-.358l-5.945-9.429a1.968,1.968,0,0,0-3.329,0l-5.945,9.429a1.971,1.971,0,0,0-.162.358H216.805a5.9,5.9,0,0,0-5.9,5.9v28.861A5.905,5.905,0,0,0,216.806,274.922Z" transform="translate(-106.701 -113.562)" fill="#b0d3e9"/>
    <path id="Trazado_719003" data-name="Trazado 719003" d="M378.727.024H337.075a5.9,5.9,0,0,0-5.9,5.9V34.788a5.9,5.9,0,0,0,5.9,5.9H350.13a1.967,1.967,0,0,0,.162.358l5.945,9.429a1.968,1.968,0,0,0,3.33,0l5.945-9.429a1.971,1.971,0,0,0,.162-.358h13.054a5.9,5.9,0,0,0,5.9-5.9V5.927A5.9,5.9,0,0,0,378.727.024Z" transform="translate(-167.804 0)" fill="#95c5c5"/>
    <path id="Trazado_719004" data-name="Trazado 719004" d="M131.151,163.4a13.381,13.381,0,1,0-13.381-13.381A13.381,13.381,0,0,0,131.151,163.4Z" transform="translate(-59.385 -69.407)" fill="#b0d3e9"/>
    <path id="Trazado_719005" data-name="Trazado 719005" d="M251.419,163.4a13.381,13.381,0,1,0-13.381-13.381A13.381,13.381,0,0,0,251.419,163.4Z" transform="translate(-120.487 -69.407)" fill="#b0d3e9"/>
    <path id="Trazado_719006" data-name="Trazado 719006" d="M371.687,163.4a13.381,13.381,0,1,0-13.381-13.381A13.381,13.381,0,0,0,371.687,163.4Z" transform="translate(-181.59 -69.407)" fill="#b0d3e9"/>
    <path id="Trazado_719007" data-name="Trazado 719007" d="M142.574,29.27h-22.3a1.968,1.968,0,0,1,0-3.936h22.3a1.968,1.968,0,0,1,0,3.936Z" transform="translate(-59.656 -12.859)" fill="#265e91"/>
    <path id="Trazado_719008" data-name="Trazado 719008" d="M142.574,49.27h-22.3a1.968,1.968,0,0,1,0-3.936h22.3a1.968,1.968,0,0,1,0,3.936Z" transform="translate(-59.656 -23.02)" fill="#265e91"/>
    <path id="Trazado_719009" data-name="Trazado 719009" d="M383.108,29.27h-22.3a1.968,1.968,0,0,1,0-3.936h22.3a1.968,1.968,0,1,1,0,3.936Z" transform="translate(-181.86 -12.859)" fill="#265e91"/>
    <path id="Trazado_719010" data-name="Trazado 719010" d="M383.108,49.27h-22.3a1.968,1.968,0,0,1,0-3.936h22.3a1.968,1.968,0,1,1,0,3.936Z" transform="translate(-181.86 -23.02)" fill="#265e91"/>
    <path id="Trazado_719011" data-name="Trazado 719011" d="M262.842,278.28h-22.3a1.968,1.968,0,0,1,0-3.936h22.3a1.968,1.968,0,0,1,0,3.936Z" transform="translate(-120.759 -139.369)" fill="#265e91"/>
    <path id="Trazado_719012" data-name="Trazado 719012" d="M262.842,298.28h-22.3a1.968,1.968,0,0,1,0-3.936h22.3a1.968,1.968,0,0,1,0,3.936Z" transform="translate(-120.759 -149.53)" fill="#265e91"/>
    <path id="Trazado_719013" data-name="Trazado 719013" d="M381.119,163.667a1.968,1.968,0,0,1-1.968-1.968v-2.511h-4.3a1.968,1.968,0,0,1-1.968-1.968v-.9a8.247,8.247,0,0,1,8.237-8.237,1.968,1.968,0,0,1,1.968,1.968V161.7A1.968,1.968,0,0,1,381.119,163.667Zm-4.167-8.414h2.2V152.5A4.324,4.324,0,0,0,376.952,155.253Z" transform="translate(-188.995 -75.224)" fill="#265e91"/>
    <path id="Trazado_719014" data-name="Trazado 719014" d="M29.483,163.71a1.969,1.969,0,0,1-1.968-1.968v-9.279a1.968,1.968,0,0,1-2.072-3.238l2.649-2.649a1.968,1.968,0,0,1,3.359,1.391v13.775A1.969,1.969,0,0,1,29.483,163.71Z" transform="translate(-12.185 -74.163)" fill="#265e91"/>
    <path id="Trazado_719015" data-name="Trazado 719015" d="M142.991,163.668h-6.269a1.968,1.968,0,0,1-1.968-1.968v-4.926a4.211,4.211,0,0,1,4.207-4.206h1.792a.271.271,0,0,0,0-.542h-4.031a1.968,1.968,0,0,1,0-3.936h4.031a4.207,4.207,0,0,1,0,8.413h-1.792a.272.272,0,0,0-.272.271v2.959h4.3a1.968,1.968,0,1,1,0,3.936Z" transform="translate(-68.014 -75.225)" fill="#265e91"/>
    <path id="Trazado_719016" data-name="Trazado 719016" d="M260.864,156.659h-1.791a1.968,1.968,0,1,1,0-3.936h1.791a.271.271,0,1,0,0-.542h-4.03a1.968,1.968,0,1,1,0-3.936h4.03a4.207,4.207,0,1,1,0,8.413Z" transform="translate(-129.037 -75.304)" fill="#265e91"/>
    <path id="Trazado_719017" data-name="Trazado 719017" d="M260.864,168.449h-4.03a1.968,1.968,0,1,1,0-3.936h4.03a.272.272,0,0,0,.272-.272v-2.686a.271.271,0,0,0-.272-.271h-1.791a1.968,1.968,0,1,1,0-3.936h1.791a4.211,4.211,0,0,1,4.207,4.206v2.686A4.212,4.212,0,0,1,260.864,168.449Z" transform="translate(-129.037 -79.93)" fill="#265e91"/>
  </g>
</svg>
