<svg xmlns="http://www.w3.org/2000/svg" width="181" height="181" viewBox="0 0 181 181">
  <g id="Grupo_1026567" data-name="Grupo 1026567" transform="translate(-1020 -2711)">
    <g id="Grupo_1004760" data-name="Grupo 1004760" transform="translate(0 1849)">
      <g id="Grupo_1004759" data-name="Grupo 1004759" transform="translate(621)">
        <circle id="Elipse_8399" data-name="Elipse 8399" cx="90.5" cy="90.5" r="90.5" transform="translate(399 862)" fill="#fff"/>
      </g>
    </g>
    <g id="Group_2_" data-name="Group (2)" transform="translate(1061.602 2740.241)">
      <path id="Trazado_716406" data-name="Trazado 716406" d="M111.537,52.587a1.821,1.821,0,0,0-2.488.667c-1.622,2.81-7.174,3.632-14.851,2.2-8.525-1.592-18.77-5.673-28.846-11.49S46.619,31.312,40.977,24.725c-5.08-5.932-7.144-11.15-5.522-13.96A1.821,1.821,0,1,0,32.3,8.943c-2.5,4.334-.4,10.78,5.91,18.151,5.9,6.893,14.9,14,25.32,20.021s21.078,10.25,30,11.917a40.5,40.5,0,0,0,7.368.753c5.592,0,9.512-1.6,11.307-4.711A1.822,1.822,0,0,0,111.537,52.587Z" transform="translate(-16.233 -4.233)" fill="#3d8dc0"/>
      <path id="Trazado_716407" data-name="Trazado 716407" d="M150.176,125.356a48.724,48.724,0,0,1-1.869-13.367V93.149a26.283,26.283,0,0,0-5.216-15.8,42.554,42.554,0,0,0-4.816-5.389,7.959,7.959,0,0,0-5.924-2.125,5.488,5.488,0,0,0-2.818-4.238,42.4,42.4,0,0,0-9.519-3.809H114.9v80.9a63.182,63.182,0,0,0,34.226-14.014A3.17,3.17,0,0,0,150.176,125.356Z" transform="translate(-60.301 -32.562)"/>
      <path id="Trazado_716408" data-name="Trazado 716408" d="M49.447,59.354A42.48,42.48,0,0,0,22.435,75.809a26.252,26.252,0,0,0-5.175,15.745v18.839a48.736,48.736,0,0,1-1.869,13.367,3.169,3.169,0,0,0,1.052,3.323c12.628,10.32,29,15.79,47.482,13.854v-77.8a29.534,29.534,0,0,0,3.59-2.935A42.861,42.861,0,0,0,49.447,59.354Z" transform="translate(-7.802 -30.967)"/>
      <path id="Trazado_716409" data-name="Trazado 716409" d="M89.875,213.168a18.675,18.675,0,0,0-12.935,2.051l-5.49,4.7L74.8,234.65H97.481l3.35-14.723a19.148,19.148,0,0,0-5.494-4.708A18.55,18.55,0,0,0,89.875,213.168Z" transform="translate(-37.406 -112.132)" fill="#f6921d"/>
      <path id="Trazado_716410" data-name="Trazado 716410" d="M86.137,212.793a18.573,18.573,0,0,0-9.2,2.426,19.069,19.069,0,0,0-5.49,4.7l3.345,14.73V231.78a18.994,18.994,0,0,1,15.08-18.611A18.67,18.67,0,0,0,86.137,212.793Z" transform="translate(-37.405 -112.133)" fill="#ffa031"/>
      <path id="Trazado_716411" data-name="Trazado 716411" d="M66.845,227.862a19,19,0,0,0-4.134,11.859v2.87H70.19v-6.514A11.7,11.7,0,0,0,66.845,227.862Z" transform="translate(-32.8 -120.073)" fill="#ffbf9d"/>
      <path id="Trazado_716412" data-name="Trazado 716412" d="M129.829,227.875a11.687,11.687,0,0,0-3.35,8.209V242.6h7.479v-2.871a19,19,0,0,0-4.13-11.853Z" transform="translate(-66.404 -120.08)" fill="#ffd4bd"/>
      <path id="Trazado_716413" data-name="Trazado 716413" d="M89.017,128.079H18.585a8.5,8.5,0,0,0,0,17H89.017a8.5,8.5,0,1,0,0-17Z" transform="translate(-5.069 -67.492)" fill="#ffbf9d"/>
      <path id="Trazado_716414" data-name="Trazado 716414" d="M42.148,85.677l-.729,1.432v39.773l.729,1.076a35.245,35.245,0,0,0,34.03,13.585V72.09A35.2,35.2,0,0,0,42.148,85.677Z" transform="translate(-21.581 -37.73)" fill="#ffbf9d"/>
      <path id="Trazado_716415" data-name="Trazado 716415" d="M82.148,72.637a35.21,35.21,0,0,0,0,69.454q1.7-.285,3.334-.728a35.222,35.222,0,0,0-3.334-68.727Z" transform="translate(-27.551 -38.276)" fill="#ffd4bd"/>
      <path id="Trazado_716416" data-name="Trazado 716416" d="M53.713,158.212c-3.937,0-7.129,2.542-7.129,5.677s3.192,5.677,7.129,5.677,7.129-2.542,7.129-5.677S57.65,158.212,53.713,158.212Z" transform="translate(-24.302 -83.371)" fill="#ffa49e"/>
      <path id="Trazado_716417" data-name="Trazado 716417" d="M135.4,158.212c-3.938,0-7.13,2.542-7.13,5.677s3.192,5.677,7.13,5.677,7.129-2.542,7.129-5.677S139.341,158.212,135.4,158.212Z" transform="translate(-67.349 -83.371)" fill="#ffa49e"/>
      <path id="Trazado_716418" data-name="Trazado 716418" d="M71.707,68H61.435l-31.4,31.4,11.188,11.187a21.441,21.441,0,0,1,5.539-4.712A84.762,84.762,0,0,0,69.677,86.023,27.526,27.526,0,0,0,98.5,96.42l1.981-1.981A37.727,37.727,0,0,0,71.707,68Z" transform="translate(-15.584 -35.833)"/>
      <path id="Trazado_716419" data-name="Trazado 716419" d="M62.215,66.469A37.7,37.7,0,0,0,26.051,93.633l1.981,1.981a35.492,35.492,0,0,0,0,17l.008,0-.006,0a35.071,35.071,0,0,0,6.016,12.642v-1.447a21.888,21.888,0,0,1,5.076-14.032A35.314,35.314,0,0,1,62.489,70.8,28.98,28.98,0,0,0,69.6,67.193,37.942,37.942,0,0,0,62.215,66.469Z" transform="translate(-13.482 -35.026)"/>
      <path id="Trazado_716420" data-name="Trazado 716420" d="M93.3,161.842a9.721,9.721,0,0,0-7.929,4.453,1.822,1.822,0,0,0,2.991,2.08,5.664,5.664,0,0,1,9.877,0,1.822,1.822,0,1,0,2.991-2.08A9.721,9.721,0,0,0,93.3,161.842Z" transform="translate(-44.571 -85.284)"/>
      <path id="Trazado_716421" data-name="Trazado 716421" d="M68.015,152.178a1.822,1.822,0,0,0-2.57.176,3.664,3.664,0,0,1-5.53,0,1.822,1.822,0,0,0-2.747,2.394,7.309,7.309,0,0,0,11.023,0A1.821,1.821,0,0,0,68.015,152.178Z" transform="translate(-29.644 -79.955)"/>
      <path id="Trazado_716422" data-name="Trazado 716422" d="M134.377,152.178a1.822,1.822,0,0,0-2.57.176,3.664,3.664,0,0,1-5.53,0,1.822,1.822,0,1,0-2.746,2.394,7.309,7.309,0,0,0,11.023,0A1.822,1.822,0,0,0,134.377,152.178Z" transform="translate(-64.614 -79.955)"/>
      <path id="Trazado_716423" data-name="Trazado 716423" d="M81.4,4.711C78.9.377,72.264-1.029,62.724.753c-8.921,1.666-19.575,5.9-30,11.917S13.308,25.8,7.4,32.691c-6.313,7.372-8.412,13.818-5.91,18.152,3.231,5.6,12.357,5.138,18.675,3.957,8.921-1.666,19.575-5.9,30-11.917s19.416-13.129,25.32-20.021C81.8,15.49,83.9,9.044,81.4,4.711ZM72.721,20.492c-5.642,6.587-14.3,13.419-24.374,19.236C26.664,52.247,7.927,54.7,4.649,49.022c-3.264-5.653,8.212-20.677,29.9-33.2,21.605-12.474,40.4-15,43.7-9.293C79.866,9.342,77.8,14.561,72.721,20.492Z" transform="translate(0 0)" fill="#3d8dc0"/>
      <path id="Trazado_716424" data-name="Trazado 716424" d="M60.037,92.308l-2.738-.4-1.224-2.495a2.582,2.582,0,0,0-4.64,0L50.21,91.908l-2.738.4a2.606,2.606,0,0,0-1.434,4.439l1.981,1.942-.468,2.742a2.59,2.59,0,0,0,3.754,2.743l2.449-1.295,2.449,1.295a2.59,2.59,0,0,0,3.754-2.743l-.468-2.742,1.981-1.942A2.606,2.606,0,0,0,60.037,92.308Z" transform="translate(-23.601 -46.353)" fill="#ffa031"/>
      <path id="Trazado_716425" data-name="Trazado 716425" d="M107.167,32.691c-5.9-6.893-14.9-14-25.32-20.021S60.769,2.42,51.847.754C42.307-1.028,35.675.377,33.173,4.711a1.821,1.821,0,1,0,3.155,1.822C37.95,3.722,43.5,2.9,51.179,4.334c8.526,1.593,18.77,5.673,28.846,11.491,21.685,12.52,33.16,27.544,29.9,33.2a1.821,1.821,0,1,0,3.155,1.821C115.579,46.509,113.48,40.063,107.167,32.691Z" transform="translate(-17.106 0)" fill="#3d8dc0"/>
      <path id="Trazado_716426" data-name="Trazado 716426" d="M133.052,19.52l-1.76-.256-.787-1.6a1.663,1.663,0,0,0-2.983,0l-.787,1.6-1.76.256a1.665,1.665,0,0,0-.922,2.839l1.273,1.242-.3,1.754a1.664,1.664,0,0,0,2.413,1.755l1.574-.828,1.574.828A1.663,1.663,0,0,0,133,25.355l-.3-1.754,1.273-1.242A1.664,1.664,0,0,0,133.052,19.52Z" transform="translate(-64.86 -8.822)" fill="#ffa031"/>
    </g>
  </g>
</svg>
