<svg xmlns="http://www.w3.org/2000/svg" xmlns:xlink="http://www.w3.org/1999/xlink" width="387.271" height="353.15" viewBox="0 0 387.271 353.15">
  <defs>
    <clipPath id="clip-path">
      <rect id="Rectángulo_33845" data-name="Rectángulo 33845" width="387.271" height="265.602" transform="translate(0 0)" fill="none"/>
    </clipPath>
    <clipPath id="clip-path-2">
      <rect id="Rectángulo_33841" data-name="Rectángulo 33841" width="334.205" height="273.37" fill="none"/>
    </clipPath>
  </defs>
  <g id="Grupo_1027265" data-name="Grupo 1027265" transform="translate(-176 -10657.584)">
    <g id="Grupo_1002335" data-name="Grupo 1002335" transform="translate(176 10695)">
      <g id="Grupo_80327" data-name="Grupo 80327" transform="translate(0 0)" clip-path="url(#clip-path)">
        <path id="Trazado_113636" data-name="Trazado 113636" d="M232.622,265.329A116.311,116.311,0,1,1,116.311,149.018,116.311,116.311,0,0,1,232.622,265.329" transform="translate(0 -116.039)" fill="#0078bb"/>
        <path id="Trazado_113637" data-name="Trazado 113637" d="M1156.8,522.76a84.28,84.28,0,1,1-84.28-84.28,84.28,84.28,0,0,1,84.28,84.28" transform="translate(-769.527 -341.438)" fill="#065958"/>
        <path id="Trazado_113638" data-name="Trazado 113638" d="M1198.65,581.231a67.661,67.661,0,1,1-67.662-67.662,67.661,67.661,0,0,1,67.662,67.662" transform="translate(-827.998 -399.909)" fill="#fff"/>
        <path id="Trazado_113639" data-name="Trazado 113639" d="M633.519,674.591a41.127,41.127,0,1,1-41.127-41.127,41.127,41.127,0,0,1,41.127,41.127" transform="translate(-429.262 -493.27)" fill="#fff"/>
        <path id="Trazado_113665" data-name="Trazado 113665" d="M128.674,380.727a2.6,2.6,0,1,1-2.6-2.6,2.6,2.6,0,0,1,2.6,2.6" transform="translate(-96.149 -294.443)" fill="#fff"/>
        <path id="Trazado_113666" data-name="Trazado 113666" d="M180.349,380.727a2.6,2.6,0,1,1-2.6-2.6,2.6,2.6,0,0,1,2.6,2.6" transform="translate(-136.388 -294.443)" fill="#fff"/>
        <path id="Trazado_113667" data-name="Trazado 113667" d="M232.025,380.727a2.6,2.6,0,1,1-2.6-2.6,2.6,2.6,0,0,1,2.6,2.6" transform="translate(-176.626 -294.443)" fill="#fff"/>
        <path id="Trazado_113668" data-name="Trazado 113668" d="M283.7,380.727a2.6,2.6,0,1,1-2.6-2.6,2.6,2.6,0,0,1,2.6,2.6" transform="translate(-216.865 -294.443)" fill="#fff"/>
        <path id="Trazado_113669" data-name="Trazado 113669" d="M335.374,380.727a2.6,2.6,0,1,1-2.6-2.6,2.6,2.6,0,0,1,2.6,2.6" transform="translate(-257.103 -294.443)" fill="#fff"/>
        <path id="Trazado_113670" data-name="Trazado 113670" d="M128.674,430.053a2.6,2.6,0,1,1-2.6-2.6,2.6,2.6,0,0,1,2.6,2.6" transform="translate(-96.149 -332.853)" fill="#fff"/>
        <path id="Trazado_113671" data-name="Trazado 113671" d="M180.349,430.053a2.6,2.6,0,1,1-2.6-2.6,2.6,2.6,0,0,1,2.6,2.6" transform="translate(-136.388 -332.853)" fill="#fff"/>
        <path id="Trazado_113672" data-name="Trazado 113672" d="M232.025,430.053a2.6,2.6,0,1,1-2.6-2.6,2.6,2.6,0,0,1,2.6,2.6" transform="translate(-176.626 -332.853)" fill="#fff"/>
        <path id="Trazado_113673" data-name="Trazado 113673" d="M283.7,430.053a2.6,2.6,0,1,1-2.6-2.6,2.6,2.6,0,0,1,2.6,2.6" transform="translate(-216.865 -332.853)" fill="#fff"/>
        <path id="Trazado_113674" data-name="Trazado 113674" d="M335.374,430.053a2.6,2.6,0,1,1-2.6-2.6,2.6,2.6,0,0,1,2.6,2.6" transform="translate(-257.103 -332.853)" fill="#fff"/>
        <path id="Trazado_113675" data-name="Trazado 113675" d="M128.674,479.38a2.6,2.6,0,1,1-2.6-2.6,2.6,2.6,0,0,1,2.6,2.6" transform="translate(-96.149 -371.263)" fill="#fff"/>
        <path id="Trazado_113676" data-name="Trazado 113676" d="M180.349,479.38a2.6,2.6,0,1,1-2.6-2.6,2.6,2.6,0,0,1,2.6,2.6" transform="translate(-136.388 -371.263)" fill="#fff"/>
        <path id="Trazado_113677" data-name="Trazado 113677" d="M232.025,479.38a2.6,2.6,0,1,1-2.6-2.6,2.6,2.6,0,0,1,2.6,2.6" transform="translate(-176.626 -371.263)" fill="#fff"/>
        <path id="Trazado_113678" data-name="Trazado 113678" d="M283.7,479.38a2.6,2.6,0,1,1-2.6-2.6,2.6,2.6,0,0,1,2.6,2.6" transform="translate(-216.865 -371.263)" fill="#fff"/>
        <path id="Trazado_113679" data-name="Trazado 113679" d="M335.374,479.38a2.6,2.6,0,1,1-2.6-2.6,2.6,2.6,0,0,1,2.6,2.6" transform="translate(-257.103 -371.263)" fill="#fff"/>
        <path id="Trazado_113680" data-name="Trazado 113680" d="M128.674,528.706a2.6,2.6,0,1,1-2.6-2.6,2.6,2.6,0,0,1,2.6,2.6" transform="translate(-96.149 -409.672)" fill="#fff"/>
        <path id="Trazado_113681" data-name="Trazado 113681" d="M180.349,528.706a2.6,2.6,0,1,1-2.6-2.6,2.6,2.6,0,0,1,2.6,2.6" transform="translate(-136.388 -409.672)" fill="#fff"/>
        <path id="Trazado_113682" data-name="Trazado 113682" d="M232.025,528.706a2.6,2.6,0,1,1-2.6-2.6,2.6,2.6,0,0,1,2.6,2.6" transform="translate(-176.626 -409.672)" fill="#fff"/>
        <path id="Trazado_113683" data-name="Trazado 113683" d="M283.7,528.706a2.6,2.6,0,1,1-2.6-2.6,2.6,2.6,0,0,1,2.6,2.6" transform="translate(-216.865 -409.672)" fill="#fff"/>
        <path id="Trazado_113684" data-name="Trazado 113684" d="M335.374,528.706a2.6,2.6,0,1,1-2.6-2.6,2.6,2.6,0,0,1,2.6,2.6" transform="translate(-257.103 -409.672)" fill="#fff"/>
        <path id="Trazado_113685" data-name="Trazado 113685" d="M128.674,578.032a2.6,2.6,0,1,1-2.6-2.6,2.6,2.6,0,0,1,2.6,2.6" transform="translate(-96.149 -448.082)" fill="#fff"/>
        <path id="Trazado_113686" data-name="Trazado 113686" d="M180.349,578.032a2.6,2.6,0,1,1-2.6-2.6,2.6,2.6,0,0,1,2.6,2.6" transform="translate(-136.388 -448.082)" fill="#fff"/>
        <path id="Trazado_113687" data-name="Trazado 113687" d="M232.025,578.032a2.6,2.6,0,1,1-2.6-2.6,2.6,2.6,0,0,1,2.6,2.6" transform="translate(-176.626 -448.082)" fill="#fff"/>
        <path id="Trazado_113688" data-name="Trazado 113688" d="M283.7,578.032a2.6,2.6,0,1,1-2.6-2.6,2.6,2.6,0,0,1,2.6,2.6" transform="translate(-216.865 -448.082)" fill="#fff"/>
        <path id="Trazado_113689" data-name="Trazado 113689" d="M335.374,578.032a2.6,2.6,0,1,1-2.6-2.6,2.6,2.6,0,0,1,2.6,2.6" transform="translate(-257.103 -448.082)" fill="#fff"/>
        <rect id="Rectángulo_33843" data-name="Rectángulo 33843" width="45.66" height="10.681" transform="translate(191.49 42.726)" fill="#ffa031"/>
      </g>
    </g>
    <g id="Grupo_1002336" data-name="Grupo 1002336" transform="translate(207.462 10717.363)" opacity="0.251">
      <g id="Grupo_80323" data-name="Grupo 80323" transform="translate(0 0)" clip-path="url(#clip-path-2)">
        <path id="Trazado_113615" data-name="Trazado 113615" d="M213.553,269.069c-3.157-.24-6.378-.377-9.677-.352-17.454.129-34.525,4.826-52.087,4.645-37.21-.384-75.507-4.241-107.666-28.073-71.249-52.8-47.894-165.906,11.17-212.34C86.678,8.275,125.769.731,163.222.033c48.213-.9,110.053,14.352,144.6,54.938,24.067,28.278,30.051,94.162,24.425,131.493-4.478,29.715-21.285,57.737-42.517,74.048-26.478,20.341-48.928,10.624-76.174,8.556" transform="translate(0 0.004)" fill="#e0f4fe"/>
      </g>
    </g>
    <g id="Grupo_1027266" data-name="Grupo 1027266" transform="translate(-2675.77 9816.116)">
      <g id="Grupo_1027274" data-name="Grupo 1027274" transform="translate(2936.77 841.468)">
        <g id="Grupo_1027266-2" data-name="Grupo 1027266" transform="translate(74.256 107.264)">
          <path id="Trazado_720369" data-name="Trazado 720369" d="M3122.216,1237.483l-.716,74.934c-.08,8.342,102.269,9.314,102.348.972l.716-74.934Zm55.971,40.328-.2,21.238a5.178,5.178,0,1,1-10.355-.1l.2-21.286a12.591,12.591,0,1,1,10.354.146Z" transform="translate(-3121.5 -1185.561)" fill="#fff"/>
          <path id="Trazado_720370" data-name="Trazado 720370" d="M3230.137,1155.782l-10.36-.1.048-5.045a31.854,31.854,0,0,0-63.7-.6l-.048,5.045-10.36-.1.048-5.046a42.215,42.215,0,0,1,84.424.8Z" transform="translate(-3135.98 -1108.313)" fill="#fff"/>
        </g>
        <g id="Grupo_1027273" data-name="Grupo 1027273">
          <g id="Grupo_1027271" data-name="Grupo 1027271">
            <g id="Grupo_1027270" data-name="Grupo 1027270">
              <g id="Grupo_1027268" data-name="Grupo 1027268">
                <g id="Grupo_1027267" data-name="Grupo 1027267" transform="translate(3.521 5.173)">
                  <path id="Trazado_720371" data-name="Trazado 720371" d="M3069.921,854.556c-.068-.074-.142-.146-.209-.22-28.7,30.423-74.373,55.24-123.162,65.66-.032,3.255-.207,21.287-1.013,104.4C2944.46,1135.269,3049.7,1190,3066.035,1198.4,3018.927,1003.333,3057.246,885.7,3069.921,854.556Z" transform="translate(-2945.528 -854.336)" fill="#ffa031"/>
                  <path id="Trazado_720372" data-name="Trazado 720372" d="M3215.218,854.884c-12.675,31.14-50.993,148.777-3.885,343.847,15.91-7.223,123.045-60.76,124.12-171.633.807-83.114.982-101.146,1.014-104.4C3288,911.359,3243.335,885.758,3215.218,854.884Z" transform="translate(-3090.825 -854.664)" fill="#ffa031"/>
                </g>
                <path id="Trazado_720373" data-name="Trazado 720373" d="M3060.7,1194.618l-1.515-.779a267.6,267.6,0,0,1-67.676-49.234c-16.328-16.546-29.218-34.581-38.313-53.6a167.13,167.13,0,0,1-16.421-74.335l1.039-107.221,2.759-.589c47.333-10.108,92.692-34.27,121.336-64.632l2.6-2.756,2.587,2.823c.063.065.126.13.186.2l0,0c28.124,30.882,72.777,55.837,119.447,66.755l2.749.643-.029,2.822c-.033,3.22-.194,19.807-1.014,104.4-1.113,114.728-113.387,168.995-126.186,174.8Zm-115.9-279.48-.985,101.6c-.944,97.3,80.313,150.848,117.065,170.051,17.93-8.453,119.477-61.046,120.512-167.745.688-71.03.912-94.114.986-101.6a267.087,267.087,0,0,1-66.433-26.282c-19.917-11.213-37.657-24.789-51.522-39.4C3035.325,881.261,2991.08,904.719,2944.805,915.139Z" transform="translate(-2936.77 -841.468)" fill="#fff"/>
              </g>
              <g id="Grupo_1027269" data-name="Grupo 1027269" transform="translate(18.842 28.248)">
                <path id="Trazado_720374" data-name="Trazado 720374" d="M3090.647,1212.176l-3.428-.213a233.167,233.167,0,0,1-55.059-40.695c-32.6-32.788-48.917-70.543-48.511-112.226l.894-91.8,3.087-.781c39.481-9.959,75.548-28.447,101.56-52.056l2.924-2.661,2.782,2.812-2.708,3.114,2.828-3.008c25.544,24.029,61.166,43.132,100.306,53.819l3.071.828-.894,91.8c-.406,41.683-17.452,79.113-50.666,111.256a234.692,234.692,0,0,1-54.279,38.844Zm-97.911-238.5-.83,85.44c-.38,39.4,15.133,75.163,46.106,106.318a224.945,224.945,0,0,0,51.177,38.223,226.143,226.143,0,0,0,51.9-37.218c31.574-30.557,47.775-66.021,48.154-105.4l.831-85.456c-37.936-10.815-72.554-29.343-98.163-52.544C3065.868,945.711,3030.91,963.574,2992.736,973.675Z" transform="translate(-2983.643 -911.743)" fill="#fff"/>
              </g>
            </g>
          </g>
          <g id="Grupo_1027272" data-name="Grupo 1027272" transform="translate(76.913 109.934)">
            <path id="Trazado_720375" data-name="Trazado 720375" d="M3128.492,1240.933l-.381,72.777c-.042,8.1,98.9,8.619,98.945.518l.381-72.777Zm54.275,38.932-.108,20.627a5.005,5.005,0,1,1-10.01-.053l.108-20.673a12.172,12.172,0,1,1,10.01.1Z" transform="translate(-3128.111 -1190.294)" fill="#12263f"/>
            <path id="Trazado_720376" data-name="Trazado 720376" d="M3232.3,1160.88l-10.016-.052.026-4.9a30.793,30.793,0,1,0-61.585-.322l-.026,4.9-10.016-.052.026-4.9a40.809,40.809,0,1,1,81.617.427Z" transform="translate(-3141.613 -1114.957)" fill="#12263f"/>
          </g>
        </g>
      </g>
    </g>
  </g>
</svg>
