<svg xmlns="http://www.w3.org/2000/svg" xmlns:xlink="http://www.w3.org/1999/xlink" width="481.632" height="488.177" viewBox="0 0 481.632 488.177">
  <defs>
    <clipPath id="clip-path">
      <path id="Trazado_726472" data-name="Trazado 726472" d="M78.395,285.94A211.063,211.063,0,0,0,205.831,478.4c107,46.185,231.189-3.12,277.374-110.125a210.341,210.341,0,0,0,17.322-82.339Z" transform="translate(-78.395 -285.94)" fill="none"/>
    </clipPath>
    <linearGradient id="linear-gradient" x1="-158.398" y1="-262.82" x2="-158.348" y2="-261.821" gradientUnits="objectBoundingBox">
      <stop offset="0" stop-color="#e0a295"/>
      <stop offset="1" stop-color="#e0a295" stop-opacity="0"/>
    </linearGradient>
    <linearGradient id="linear-gradient-2" x1="-211.076" y1="-230.599" x2="-211.009" y2="-229.725" xlink:href="#linear-gradient"/>
    <linearGradient id="linear-gradient-3" x1="-944.14" y1="0.162" x2="-944.032" y2="0.765" gradientUnits="objectBoundingBox">
      <stop offset="0" stop-color="#a66948"/>
      <stop offset="1" stop-color="#a66948" stop-opacity="0"/>
    </linearGradient>
  </defs>
  <g id="Grupo_1027942" data-name="Grupo 1027942" transform="translate(-56.471 -78.584)">
    <path id="Trazado_726448" data-name="Trazado 726448" d="M342.531,410.847c28.745,2.679,58.382-3.412,84.556-15.589,13.01-6.053,25.746-15.412,29.92-29.141,1.961-6.454,1.854-13.337,2.964-19.992,6.464-38.8,50.047-59.084,69.685-93.166,4.922-8.543,8.351-18.549,6.4-28.214-2.384-11.81-12.274-20.709-22.8-26.569s-22.191-9.6-32.327-16.109c-13.831-8.889-26.31-22.461-28.833-38.707-4.747-30.565-4.191-92.895-77.651-103.469-66.38-9.554-133.689,67.014-162.5,77.911-63.89,24.166-138.21,16.973-153.9,79.274C39.32,271.409,111.886,308.168,128.463,319.26s22.17,34.611,16.587,53.761c-14.851,50.939,51.234,48.44,116.055,24.788S304.963,407.345,342.531,410.847Z" transform="translate(1.493 41.763)" fill="#d8ecf8"/>
    <g id="Grupo_1027918" data-name="Grupo 1027918" transform="translate(306.328 174.155)">
      <path id="Trazado_726450" data-name="Trazado 726450" d="M256.554,148.464c13.26-3.971,35.2.011,40.137,27.077s10.969,34,10.969,34-15.791,4.832-37.42-22.751C258.442,171.746,256.554,148.464,256.554,148.464Z" transform="translate(-256.554 -147.154)" fill="#7aa651"/>
      <g id="Grupo_1027915" data-name="Grupo 1027915" transform="translate(2.04 1.126)">
        <path id="Trazado_726451" data-name="Trazado 726451" d="M290.563,192.578l.353-.006a14.879,14.879,0,0,0,4.75-1.035c.089.218.177.438.264.645a15.9,15.9,0,0,1-4.643,1.071,22.4,22.4,0,0,0,1.318,5.6c-.26-.05-.524-.1-.8-.162a21.227,21.227,0,0,1-1.233-5.761Z" transform="translate(-250.448 -137.65)" fill="#9bbe4f"/>
        <path id="Trazado_726452" data-name="Trazado 726452" d="M284.659,186.055l.071-.214.223-.022A54.472,54.472,0,0,0,294,183.676c.066.228.129.445.193.667a56.037,56.037,0,0,1-8.942,2.141c-1.1,3.559-.708,8.374-.407,10.768q-.374-.2-.755-.421C283.784,194.207,283.5,189.565,284.659,186.055Z" transform="translate(-252.064 -139.533)" fill="#9bbe4f"/>
        <path id="Trazado_726453" data-name="Trazado 726453" d="M281.027,178.173l.084-.1.13-.02c3.814-.615,9.745-2.271,12.089-2.945.047.226.1.459.143.681-2.364.679-8.165,2.3-11.991,2.928a24.153,24.153,0,0,0-5.1,13.065c-.213-.192-.428-.389-.643-.589A24.82,24.82,0,0,1,281.027,178.173Z" transform="translate(-253.998 -141.586)" fill="#9bbe4f"/>
        <path id="Trazado_726454" data-name="Trazado 726454" d="M277.565,168.49l.113-.019a137.346,137.346,0,0,0,14.745-3.353c.071.219.14.439.208.662a138.218,138.218,0,0,1-14.728,3.357c-6.618,6.851-8.811,12.656-9.4,14.607-.175-.217-.351-.441-.527-.662.777-2.372,3.124-7.923,9.511-14.51Z" transform="translate(-255.859 -143.978)" fill="#9bbe4f"/>
        <path id="Trazado_726455" data-name="Trazado 726455" d="M271.886,158.508l.121-.015a67.894,67.894,0,0,0,15.095-3.35c.162.185.326.367.485.558a67.189,67.189,0,0,1-15.374,3.466,48.217,48.217,0,0,0-9.957,14.3c-.128-.286-.258-.573-.381-.86A50.273,50.273,0,0,1,271.8,158.6Z" transform="translate(-257.32 -146.367)" fill="#9bbe4f"/>
        <path id="Trazado_726456" data-name="Trazado 726456" d="M264.582,151.939l.076-.069.1-.017a24.722,24.722,0,0,0,9.094-3.789c.293.079.585.159.876.248a25.37,25.37,0,0,1-9.749,4.206,33.355,33.355,0,0,0-6.535,8.7c-.083-.336-.166-.673-.244-1A33.592,33.592,0,0,1,264.582,151.939Z" transform="translate(-258.2 -148.063)" fill="#9bbe4f"/>
      </g>
      <g id="Grupo_1027916" data-name="Grupo 1027916" transform="translate(0 1.223)" opacity="0.42" style="mix-blend-mode: multiply;isolation: isolate">
        <path id="Trazado_726457" data-name="Trazado 726457" d="M283.743,179.931c6.18,15.893,16.856,26.378,23.883,29.387-.769.214-16.3,4.129-37.386-22.76-11.8-15.048-13.686-38.33-13.686-38.33.1-.031.211-.057.315-.087C268.9,151.539,277.423,163.676,283.743,179.931Z" transform="translate(-256.554 -148.141)" fill="#5d8e5a"/>
      </g>
      <g id="Grupo_1027917" data-name="Grupo 1027917" transform="translate(0 1.223)">
        <path id="Trazado_726458" data-name="Trazado 726458" d="M256.554,148.228c.1-.031.211-.057.315-.087,12.035,3.4,20.554,15.535,26.874,31.79,6.18,15.893,16.856,26.378,23.883,29.387" transform="translate(-256.554 -148.141)" fill="none" stroke="#4e6756" stroke-miterlimit="10" stroke-width="1.119"/>
      </g>
    </g>
    <ellipse id="Elipse_8550" data-name="Elipse 8550" cx="108.526" cy="11.954" rx="108.526" ry="11.954" transform="translate(188.037 542.852)" fill="#eaf2e8"/>
    <g id="Grupo_1027922" data-name="Grupo 1027922" transform="translate(85.496 346.183)">
      <g id="Grupo_1027921" data-name="Grupo 1027921" transform="translate(0)" clip-path="url(#clip-path)">
        <g id="Grupo_1027920" data-name="Grupo 1027920" transform="translate(-87.376 -299.722)">
          <circle id="Elipse_8551" data-name="Elipse 8551" cx="211.026" cy="211.026" r="211.026" transform="translate(0 298.437) rotate(-45)" fill="#7fd6e6"/>
          <g id="Grupo_1027919" data-name="Grupo 1027919" transform="translate(115.941 87.37)">
            <path id="Trazado_726459" data-name="Trazado 726459" d="M319.485,133.777c2.867,1.424,6.573,2.115,7.912,5.024a4.829,4.829,0,0,1-2.677,6.31,3.7,3.7,0,0,0-1.48.673c-.658.661-.441,1.768-.1,2.636,1.3,3.3,3.756,6.158,4.439,9.642s-1.754,7.981-5.251,7.362a14.044,14.044,0,0,1-3.089-1.321,8.549,8.549,0,0,0-10.856,4.206c-.864,1.962-.933,4.185-1.656,6.2s-2.515,3.976-4.642,3.716a9.5,9.5,0,0,1-2.413-.881c-4.662-1.932-10.119.331-13.812,3.768s-6.217,7.932-9.517,11.748c-2.231,2.581-5.966,4.978-8.807,3.091-2.215-1.471-2.363-4.671-1.831-7.275s1.5-5.313.688-7.844c-1.293-4.026-6.474-5.717-7.953-9.677-1.278-3.424.716-7.228,3.255-9.855s5.709-4.7,7.655-7.8c4.191-6.652.149-16.865-7.459-18.851a8.506,8.506,0,0,1-3.535-1.31c-2.025-1.73-.941-5.35,1.36-6.693s5.164-1.09,7.808-.755,5.475.676,7.849-.535c2.768-1.413,4.2-4.685,4.23-7.793,0-.289-.012-.575-.028-.861a210.62,210.62,0,0,1,36.548,9.236C313.424,128.973,316.974,132.529,319.485,133.777Z" transform="translate(-64.11 -114.123)" fill="#5fa76e"/>
            <path id="Trazado_726460" data-name="Trazado 726460" d="M294.043,114.89l-.006.016c-4.187,6.071-17.567,5.114-22.547,11.352-4.083,5.112-.533,12.56,3.052,18.033l-7.432,3.35c-.32,5.464,8.02,7.8,8.886,13.2.871,5.446-6.262,8.6-11.763,8.2s-11.622-2.169-16.119,1.023a19.139,19.139,0,0,1,7.21-17.759,8.425,8.425,0,0,1-6.291-7.86c-.036-3,1.5-6.335-.2-8.815-2.307-3.37-7.805-1.283-10.293,1.956s-4.16,7.55-7.955,9.061c-2.344.932-4.969.542-7.492.553a23.188,23.188,0,0,0-16.908,7.57c-1.838,2.041-3.375,4.471-5.767,5.822-2.416,1.365-5.407,1.447-7.778,2.886-4.041,2.454-4.729,8.954-1.29,12.2,2.728-2.581,7.829-1.028,9.274,2.438s-.384,7.718-3.543,9.75c2.615,4.321,8.9,5.267,13.469,3.1s7.612-6.636,9.66-11.254c1.4-3.151,3.719-7.178,7.042-6.262l3.493,5.062c1.794-3.279,6.626-6.716,8.415-3.433.573,1.051.374,2.377.87,3.467,1.389,3.054,5.872,1.682,9.172,1.081,4-.729,8.481.742,10.767,4.1s1.772,8.517-1.5,10.923c-.843.62-1.875,1.112-2.31,2.064-1.344,2.946,3.959,4.456,5.237,7.432,1.367,3.186-2.946,6.317-6.324,5.539s-5.782-3.645-8.4-5.916c-4.441-3.854-10.728-6.291-16.259-4.294a5.175,5.175,0,0,0-2.677,1.868c-1.575,2.427.564,5.578,2.879,7.314s5.195,3.446,5.577,6.315c.6,4.472-5.272,6.924-9.767,6.546s-9.5-1.857-13.182.745c-4.736,3.345-5.786,12.437-11.554,11.844-1.435-.149-2.724-.985-4.156-1.169-4.4-.561-6.97,4.7-8.232,8.946s-4.123,9.451-8.466,8.571c-2.871-.581-5-3.847-7.9-3.438-2.1.295-3.388,2.395-4.374,4.274q-3.815,7.257-7.628,14.515l-6.411-16.629c-1.76,3.8-8,2.162-10.059-1.486s-1.839-8.159-3.369-12.058-6.608-7.143-9.765-4.39c-4.539,3.96,2.175,12.784-2.028,17.1-1.461,1.5-3.738,1.78-5.6,2.748-6.506,3.389-5.495,12.87-3.528,19.938q2.51,9.016,5.018,18.03a5.639,5.639,0,0,0,1.65,3.122c3.707,2.836,8.684-5.373,12.725-3.038,5.07,2.931-4.674,12.483.061,15.929,1.857,1.351,4.958.47,6.333,2.312,1.769,2.371-1.656,5.568-1.106,8.476.471,2.489,3.505,3.494,4.98,5.554,1.443,2.016,1.274,4.9,2.853,6.812,4.192,5.075,12.446-2.645,18.725-.671,7.362,2.313,5.57,15.032,12.442,18.54,5.042,2.573,11.019-1.65,16.647-1.044,6.593.709,10.5,7.48,13.636,13.324s8,12.32,14.605,11.718c4.834-.44,10.548-4.44,13.757-.8,1.055,1.2,1.328,2.871,1.957,4.336,2.033,4.73,7.414,6.811,11.816,9.479,5.081,3.077,9.486,7.731,10.94,13.49s-.679,12.6-5.867,15.5c-1.315.734-2.856,1.272-3.671,2.537-.853,1.324-.649,3.032-.823,4.6a9.422,9.422,0,0,1-9.021,8.1c-2.22.006-4.866-.651-6.343,1.008-1.07,1.2-.9,3.011-1.085,4.609-.534,4.584-4.314,8.011-7.84,10.987-7.888,6.657-13.886,16.669-23.666,19.975-12.922,4.367-11.676,6.331-11.457,11.352a24.579,24.579,0,0,0,8.887,18.121c2.287,1.813,5.279,4.271,4.126,6.951-.647,1.5-2.4,2.193-4.027,2.392a12.256,12.256,0,0,1-11.806-5.88c-3.406-5.886-1.92-14.638-7.5-18.518-3.126-2.174-7.839-2.159-9.864-5.383-1.067-1.7-1.038-3.839-.973-5.844q.658-20.409,1.314-40.819c.11-3.429.187-7.022-1.351-10.087-2.655-5.293-9.047-7.255-13.906-10.639a25.194,25.194,0,0,1-10.287-23.876c.555-3.7,1.878-7.783-.125-10.94-1.632-2.571-5.143-3.8-6.046-6.7-.844-2.716,1.07-5.548,3.319-7.288s4.961-2.941,6.794-5.117c4.617-5.476-.434-15.571-7.585-15.161a10.05,10.05,0,0,1-3.251.026c-3.623-1-2.836-6.283-3.955-9.87-2.237-7.169-13.961-9.143-14.08-16.652-.051-3.193,2.079-6.986-.226-9.2-2.266-2.177-6.1-.011-9.123-.875-3.08-.881-4.346-4.6-4.39-7.8s.625-6.542-.549-9.523c-1.3-3.3-4.535-5.355-6.825-8.064-4.011-4.744-4.979-11.414-4.426-17.6s2.438-12.173,3.476-18.3a95.93,95.93,0,0,0,.382-25.539,211.3,211.3,0,0,1,188.629-98.214c-.01.015-.021.029-.032.043Z" transform="translate(-101.44 -114.622)" fill="#5fa76e"/>
            <path id="Trazado_726461" data-name="Trazado 726461" d="M261.177,114.851c-2.279,8.508-17.043,4.46-22.547,11.352C243.61,119.965,256.99,120.922,261.177,114.851Z" transform="translate(-68.58 -114.568)" fill="#5fa76e"/>
            <path id="Trazado_726462" data-name="Trazado 726462" d="M433.912,373.481c-.767-1.121-1.9-1.95-2.681-3.06-2.7-3.841-.322-9.051,1.838-13.221s3.818-9.921.294-13.026c-3.153-2.781-8.561-.926-10.718,2.682s-1.883,8.15-1.1,12.281,2,8.29,1.51,12.465c-1.1,9.341-10.251,15.811-12.819,24.86-1.306,4.6-.8,9.5-1.283,14.262s-2.37,9.9-6.661,12.01c-2.077,1.023-4.46,1.2-6.665,1.91-5.844,1.879-9.966,7.461-11.421,13.425-.654,2.688-.91,5.62-2.619,7.794-2.646,3.367-7.586,3.578-11.43,5.466-7.262,3.564-11.327,13.488-19.413,13.682a21.508,21.508,0,0,0-9.352,1.9c-18.158,8.725-16.006,3.773-25.017,3.112l-9.013-.662c-1.719-2.482.17-5.976,2.654-7.691s5.567-2.568,7.711-4.693c4.834-4.788,3.612-14.589,9.88-17.237,4.239-1.791,10.19.833,13.158-2.684,3.474-4.115-1.888-11.355,1.528-15.519,2.294-2.8,6.991-2.082,9.722-4.456,5.165-4.49-1.624-13.177.557-19.664.583-1.73,1.821-3.292,1.835-5.117.033-4.34-6.362-5.486-10.229-3.517s-7.167,5.574-11.5,5.764c-9.285.405-12.311-13.972-21.217-16.627-5.852-1.744-14.171,1.391-17.02-4.011a8.456,8.456,0,0,1-.721-4.4,21.7,21.7,0,0,1,10.406-17.243c2.428-1.442,5.532-2.958,5.656-5.777a9.557,9.557,0,0,0-.718-3.157,14.672,14.672,0,0,1,6.473-16.517c5.538-3.2,14.214-3.876,15.218-10.2.419-2.63-.869-5.465.177-7.914.94-2.2,3.431-3.267,5.756-3.838,7.045-1.73,14.563-.858,21.544-2.833,4.347-1.231,8.341-3.53,12.71-4.68s9.553-.9,12.719,2.325c-2.048,1.848,1.678,4.786,4.373,4.2s5.748-2.266,7.928-.576c2.369,1.836,1.1,5.513.5,8.449-1.79,8.771,6.462,18.064,15.382,17.324a10.5,10.5,0,0,1,.5-8.366c3.7,1.662,6.04,5.328,9.186,7.891s8.442,3.685,10.857.423c3.412-4.613-2.848-12.075.719-16.57-4.162,2.1-9.946-1.539-9.86-6.2.028-1.551.586-3.073.469-4.62s-1.332-3.224-2.865-2.982c-2.442.386-2.327,4.628-4.684,5.37-5.1-2.825-.734-11.318-3.759-16.3-.937-1.543-2.52-2.586-3.586-4.045-1.564-2.138-1.859-4.925-2.836-7.388s-3.281-4.881-5.875-4.342c-3.136.652-3.9,4.938-2.9,7.981s3.047,5.848,3.016,9.05-4.035,6.367-6.323,4.126a5.763,5.763,0,0,1-1.218-2.255q-1-2.768-2-5.534c-1.434-3.98-3.018-8.173-6.339-10.795s-8.951-2.788-11.234.775c-1.627,2.54-1.247,6.312-3.66,8.121-2.455,1.842-6.071.343-8.964,1.365-2.567.907-4.068,3.6-6.437,4.943-4.144,2.351-10.229-1.142-10.291-5.905-.038-3.016,1.882-6.017.992-8.9-.549-1.776-2.049-3.057-3.2-4.516-2.024-2.557-2.931-6.508-.8-8.979,2.216-2.574,6.391-2.126,9.424-.6s5.689,3.907,8.988,4.72,7.635-.946,7.756-4.341c.143-4.033-5.572-6.865-4.628-10.789.583-2.426,3.476-3.515,5.969-3.515s5.028.679,7.451.088c6.172-1.506,7.587-9.6,7.2-15.937-.082-1.328-.14-2.809.728-3.816,1.223-1.42,3.664-1.007,5,.306s1.89,3.2,2.515,4.967c1.763,4.987,5.145,10.115,10.359,11s10.8-5.6,7.469-9.713a6.154,6.154,0,0,1-1.411-1.937c-.865-2.933,4.759-3.619,5.58-6.564.93-3.328-4.382-4.414-6.695-6.981-3.907-4.336,1.241-13.277-3.756-16.3-2.853-1.725-6.754.7-7.8,3.865s-.13,6.608.777,9.817a4.515,4.515,0,0,1,.14,3c-.977,2.231-4.442,1.412-6.2-.276s-3.4-4.059-5.837-4.023c-2.458.037-4.451,2.644-6.884,2.3-1.908-.27-3.1-2.325-3.231-4.248-.635-9.59,16.363-13.728,14.778-23.209-.852-5.094-7.106-10.049-3.949-14.136,2.329-3.013,7.4-1.186,9.661,1.88s3.249,7.055,6.054,9.631a9.732,9.732,0,0,0,9.184,1.939,212.12,212.12,0,0,1,35.541,82.167l-1.932.533c-1.786.495-4.01,1.646-3.639,3.463.136.663.626,1.216.746,1.883.191,1.055-.574,2.023-1.3,2.812-1.829,1.994-4.609,4.074-6.969,2.752-2.035-1.14-2.583-4.369-4.876-4.8-1.632-.3-3.158,1.2-3.5,2.822a9.734,9.734,0,0,0,.662,4.881,3.043,3.043,0,0,0,.559,1.156c.55.606,1.468.662,2.222.977,3.1,1.3,3.358,6.819,6.716,7.023,1.725.105,3.057-1.392,4.3-2.6s3.2-2.25,4.594-1.223c1.438,1.059,1.116,3.59,2.619,4.553.948.607,2.033.283,3.146-.162a209.987,209.987,0,0,1-15.342,97.273,14.585,14.585,0,0,1,.58-7.267C434.667,381.066,436.127,376.719,433.912,373.481Z" transform="translate(-55.392 -100.501)" fill="#5fa76e"/>
            <path id="Trazado_726463" data-name="Trazado 726463" d="M356.245,219.385c4.242,4.351,9.544,3.583,5.741,6.592s-5.713-.855-11.267,3.724-9.516,2.154-5.445-3.96S352.03,215.062,356.245,219.385Z" transform="translate(-43.437 -89.937)" fill="#5fa76e"/>
            <path id="Trazado_726464" data-name="Trazado 726464" d="M344.089,201.2s7.717,1.184,7.618,5.972,1.6,6.236,1.6,6.236c.963,2.742-2.891,8.77-5.29,2.726s-.8-7.68-6.592-11.252S344.089,201.2,344.089,201.2Z" transform="translate(-44.443 -93.886)" fill="#5fa76e"/>
            <path id="Trazado_726465" data-name="Trazado 726465" d="M340.536,211.3c2.406,3.543,5.9,1.655,4.88,5.684-1.088,4.285-.03,3.385-5.1,4.775s-6.56,1.1-5.163-5.448S338.131,207.756,340.536,211.3Z" transform="translate(-45.58 -91.881)" fill="#5fa76e"/>
            <path id="Trazado_726466" data-name="Trazado 726466" d="M316.6,170.869c3.328,5.551,6.734,5.948,10.1,5.611s3.3-.186,3.746,2.511c1.034,6.252-2.976,8.554-10.794,4.285s-1.9-7.617-7.712-11.557S313.267,165.318,316.6,170.869Z" transform="translate(-51.55 -101.926)" fill="#5fa76e"/>
            <path id="Trazado_726467" data-name="Trazado 726467" d="M179.223,277.859c-10.779,2.408-5.851-7.882-13.192-6.667s-5.614-9-.715-7.37C173.381,266.5,190,275.45,179.223,277.859Z" transform="translate(-87.156 -78.928)" fill="#5fa76e"/>
            <path id="Trazado_726468" data-name="Trazado 726468" d="M154.583,264.215c-4.152-6.175-5.636-11.2-11.683-11.861s-4.333-4.062,1.563-2.491,11.131,9.189,15.847,12.928C164.247,265.912,158.735,270.39,154.583,264.215Z" transform="translate(-92.415 -82.328)" fill="#5fa76e"/>
            <path id="Trazado_726469" data-name="Trazado 726469" d="M132.377,249.238c-4.1-3.474.017-6.81,2.91-1.666C137.5,251.514,136.477,252.714,132.377,249.238Z" transform="translate(-94.443 -83.413)" fill="#5fa76e"/>
            <path id="Trazado_726470" data-name="Trazado 726470" d="M237.6,209.889c-10.035-2.139-5.852-7.882-11.551-5.96s-9.423-.171-3.747-4.295,7.556-4.53,12.982-2.433C244.819,200.888,247.639,212.029,237.6,209.889Z" transform="translate(-73.166 -95.14)" fill="#5fa76e"/>
          </g>
          <path id="Trazado_726471" data-name="Trazado 726471" d="M205.535,435.172c52.207,22.533,108.685,19.537,156.731-2.152,61.617-27.816,127.31-80.286,137.665-116.964a210.747,210.747,0,0,1-16.722,67.58c-46.185,107.005-170.37,156.31-277.375,110.125-105.2-45.4-154.623-166.2-112.378-271.941C76.125,308.615,121,398.687,205.535,435.172Z" transform="translate(8.978 -1.576)" fill="#7fd6e6" opacity="0.66" style="mix-blend-mode: multiply;isolation: isolate"/>
        </g>
      </g>
    </g>
    <ellipse id="Elipse_8552" data-name="Elipse 8552" cx="211.088" cy="11.374" rx="211.088" ry="11.374" transform="translate(85.476 334.833)" fill="#3c6c6c"/>
    <path id="Trazado_726473" data-name="Trazado 726473" d="M500.553,285.959c0,6.282-94.506,11.374-211.087,11.374S78.378,292.241,78.378,285.959" transform="translate(7.097 60.248)" fill="none" stroke="#e3ebc4" stroke-miterlimit="10" stroke-width="2.397"/>
    <path id="Trazado_726474" data-name="Trazado 726474" d="M211.586,299.58s169.853,5.6,252.508-9.6C440.859,307.935,255.288,302.906,211.586,299.58Z" transform="translate(39.004 61.212)" fill="#d6e7df" opacity="0.75"/>
    <g id="Grupo_1027926" data-name="Grupo 1027926" transform="translate(137.45 126.625)">
      <path id="Trazado_726475" data-name="Trazado 726475" d="M289.344,157.592c-7.9-28.577-40.131-63.844-94.853-41.954s-74.182,18.849-74.182,18.849,9.229,34.151,83.909,41.954C244.958,180.7,289.344,157.592,289.344,157.592Z" transform="translate(-120.309 -108.809)" fill="#a1c26a"/>
      <g id="Grupo_1027923" data-name="Grupo 1027923" transform="translate(7.981 0.604)">
        <path id="Trazado_726476" data-name="Trazado 726476" d="M140.46,138.817l-.392-.648a31.853,31.853,0,0,1-3.534-9.8c-.5.089-1,.177-1.47.257a34.111,34.111,0,0,0,3.348,9.643,48.041,48.041,0,0,1-11.664,3.994c.384.415.78.834,1.2,1.259a45.527,45.527,0,0,0,11.857-4.33Z" transform="translate(-126.748 -104.727)" fill="#c1d483"/>
        <path id="Trazado_726477" data-name="Trazado 726477" d="M160.991,143.871l.307-.371-.213-.431c-2.821-5.7-5.388-14.91-6.422-18.851-.487.143-.954.274-1.432.41,1.02,3.906,3.487,12.77,6.308,18.661-5.2,6.05-14.386,10.826-19.07,13.006q.8.446,1.625.89C147.2,154.747,155.946,149.978,160.991,143.871Z" transform="translate(-123.462 -105.722)" fill="#c1d483"/>
        <path id="Trazado_726478" data-name="Trazado 726478" d="M180.428,144.076l.09-.269-.11-.259c-3.231-7.621-6.986-20.266-8.434-25.285-.462.17-.94.35-1.4.516,1.461,5.061,5.14,17.428,8.352,25.087A51.734,51.734,0,0,1,161.038,168c.591.167,1.195.332,1.8.5A53.147,53.147,0,0,0,180.428,144.076Z" transform="translate(-118.535 -107.148)" fill="#c1d483"/>
        <path id="Trazado_726479" data-name="Trazado 726479" d="M202.6,141.727l-.1-.224a293.794,293.794,0,0,1-10.718-30.569c-.478.121-.957.244-1.439.374a296.42,296.42,0,0,0,10.692,30.543c-4.887,19.813-12.918,30.4-15.782,33.7.592.069,1.2.134,1.8.2,3.419-4.111,10.815-14.695,15.484-33.787Z" transform="translate(-112.734 -108.904)" fill="#c1d483"/>
        <path id="Trazado_726480" data-name="Trazado 726480" d="M227.036,140.977l-.113-.238c-7.353-15.6-10.172-26.652-11.121-31.2-.519-.083-1.036-.172-1.563-.243.845,4.243,3.593,15.586,11.229,31.837-4.638,18.811-11.6,30.113-14.589,34.352.666-.1,1.334-.186,1.994-.29,3.393-5.083,9.78-16.294,14.1-33.963Z" transform="translate(-106.597 -109.296)" fill="#c1d483"/>
        <path id="Trazado_726481" data-name="Trazado 726481" d="M245.434,143.589l.04-.214-.082-.2A52.951,52.951,0,0,1,241.9,122.36c-.477-.44-.954-.88-1.448-1.308a54.357,54.357,0,0,0,3.478,22.476A71.515,71.515,0,0,1,235.6,165.3c.705-.233,1.409-.466,2.095-.7A71.979,71.979,0,0,0,245.434,143.589Z" transform="translate(-100.676 -106.48)" fill="#c1d483"/>
      </g>
      <g id="Grupo_1027924" data-name="Grupo 1027924" transform="translate(0.021 25.747)" opacity="0.42" style="mix-blend-mode: multiply;isolation: isolate">
        <path id="Trazado_726482" data-name="Trazado 726482" d="M200.849,139.42c-35.873,6.9-67.058-.522-80.523-9.839.487,1.64,11.089,34.279,83.888,41.885,40.739,4.257,85.125-18.849,85.125-18.849-.061-.221-.136-.446-.2-.668C269.262,133.99,237.538,132.364,200.849,139.42Z" transform="translate(-120.326 -129.581)" fill="#669c63"/>
      </g>
      <g id="Grupo_1027925" data-name="Grupo 1027925" transform="translate(0.021 25.747)">
        <path id="Trazado_726483" data-name="Trazado 726483" d="M289.34,152.616c-.061-.221-.136-.446-.2-.668-19.877-17.958-51.6-19.584-88.29-12.528-35.873,6.9-67.058-.522-80.523-9.839" transform="translate(-120.326 -129.581)" fill="none" stroke="#4e6756" stroke-miterlimit="10" stroke-width="2.397"/>
      </g>
    </g>
    <g id="Grupo_1027930" data-name="Grupo 1027930" transform="translate(300.211 78.688)">
      <path id="Trazado_726484" data-name="Trazado 726484" d="M258.03,167.079c-10.465-18.325-12.109-52.287,26.392-68.941s46.726-28,46.726-28,12.616,21.791-20.9,63.414C291.962,156.256,258.03,167.079,258.03,167.079Z" transform="translate(-251.619 -70.135)" fill="#a1c26a"/>
      <g id="Grupo_1027927" data-name="Grupo 1027927" transform="translate(0.046 7.642)">
        <path id="Trazado_726485" data-name="Trazado 726485" d="M311.314,84.135l-.131-.523a22.659,22.659,0,0,0-3.174-6.7c.3-.207.589-.414.868-.614a24.278,24.278,0,0,1,3.191,6.527,34.2,34.2,0,0,0,7.867-3.886c.016.4.029.812.033,1.237a32.438,32.438,0,0,1-8.134,3.815Z" transform="translate(-238.158 -76.3)" fill="#c1d483"/>
        <path id="Trazado_726486" data-name="Trazado 726486" d="M304,96.588l-.342-.031-.11-.324a83.226,83.226,0,0,0-6.3-12.7c.316-.175.617-.346.925-.518a85.234,85.234,0,0,1,6.26,12.546c5.663.407,12.682-1.834,16.132-3.106q-.173.625-.366,1.267C316.406,95.08,309.609,97.1,304,96.588Z" transform="translate(-240.736 -74.691)" fill="#c1d483"/>
        <path id="Trazado_726487" data-name="Trazado 726487" d="M294.033,106.81l-.181-.089-.076-.186c-2.227-5.454-6.729-13.692-8.538-16.941.319-.149.648-.3.961-.447,1.823,3.277,6.222,11.338,8.478,16.8a36.82,36.82,0,0,0,21.162,3.07c-.213.383-.433.77-.653,1.158A37.818,37.818,0,0,1,294.033,106.81Z" transform="translate(-243.612 -73.223)" fill="#c1d483"/>
        <path id="Trazado_726488" data-name="Trazado 726488" d="M281.3,117.275l-.067-.161a209.514,209.514,0,0,0-10.059-20.745c.3-.181.6-.361.911-.538a210.943,210.943,0,0,1,10.059,20.719c12.456,7.469,21.832,8.726,24.934,8.934-.262.335-.534.673-.8,1.009-3.79-.336-12.844-1.909-24.826-9.128Z" transform="translate(-246.981 -71.622)" fill="#c1d483"/>
        <path id="Trazado_726489" data-name="Trazado 726489" d="M268.484,129.443l-.063-.176c-4.188-11.536-8.356-18.5-10.177-21.265.218-.3.433-.61.661-.911,1.719,2.556,6.069,9.632,10.445,21.64,11.824,7.094,21.026,9.244,24.663,9.864-.382.288-.762.579-1.147.861-4.268-.838-13.133-3.235-24.223-9.916Z" transform="translate(-250.078 -68.925)" fill="#c1d483"/>
        <path id="Trazado_726490" data-name="Trazado 726490" d="M260.605,139.9l-.129-.088-.06-.141a37.686,37.686,0,0,0-8.761-12.2c.017-.461.035-.923.066-1.387a38.686,38.686,0,0,1,9.605,13.03,50.885,50.885,0,0,0,15.172,6.711c-.471.239-.942.477-1.4.707A51.222,51.222,0,0,1,260.605,139.9Z" transform="translate(-251.656 -64.377)" fill="#c1d483"/>
      </g>
      <g id="Grupo_1027928" data-name="Grupo 1027928" transform="translate(6.175 0.046)" opacity="0.42" style="mix-blend-mode: multiply;isolation: isolate">
        <path id="Trazado_726491" data-name="Trazado 726491" d="M294.559,115.768c21.477-14.654,33.372-34.123,35.421-45.6.584,1.068,11.747,22.794-20.927,63.369-18.285,22.706-52.216,33.529-52.216,33.529-.081-.141-.156-.293-.237-.436C257.5,147.589,272.594,130.754,294.559,115.768Z" transform="translate(-256.6 -70.172)" fill="#669c63"/>
      </g>
      <g id="Grupo_1027929" data-name="Grupo 1027929" transform="translate(6.175 0.046)">
        <path id="Trazado_726492" data-name="Trazado 726492" d="M256.837,167.07c-.081-.141-.156-.293-.237-.436.9-19.045,15.994-35.88,37.959-50.866,21.477-14.654,33.372-34.123,35.421-45.6" transform="translate(-256.6 -70.172)" fill="none" stroke="#4e6756" stroke-miterlimit="10" stroke-width="1.706"/>
      </g>
    </g>
    <path id="Trazado_726493" data-name="Trazado 726493" d="M252.4,313.6s4.077-139.514,4.05-164.428c0-1.774,1.864-2.225,1.864.222,0,6.359.265,149.018,1.677,160.786C261.642,317.711,252.111,322.669,252.4,313.6Z" transform="translate(48.779 27.131)" fill="#3c6c6c"/>
    <path id="Trazado_726494" data-name="Trazado 726494" d="M266.644,255.909c-2.136,11.032-28.033,21.326-62.275,27.188-13.969,2.391-9.865,4.895,21.424,7.034,62.224,4.254,126.315-4.529,101.2-7-24.277-2.391-51.911-16.636-54.5-26.936C270.6,248.706,267.009,254.018,266.644,255.909Z" transform="translate(35.446 52.188)" fill="#3c6c6c"/>
    <path id="Trazado_726495" data-name="Trazado 726495" d="M215.529,257.172" transform="translate(39.948 53.353)" fill="#829eb6"/>
    <g id="Grupo_1027937" data-name="Grupo 1027937" transform="translate(156.92 193.299)">
      <path id="Trazado_726496" data-name="Trazado 726496" d="M226.067,277.333a95.259,95.259,0,0,0,11.049,2.184c3.469.257,3.6,2.955,3.341,3.213s-23.127.513-27.11-.129-.129-8.608-.129-8.608Z" transform="translate(-117.927 -135.918)" fill="#363b53"/>
      <path id="Trazado_726497" data-name="Trazado 726497" d="M158.757,275.069c-1.78-.187-3.279-2.81-6.276-.843s-7.776,9.086-13.677,10.3c-4.214.843-3.184,1.686,0,1.5s14.988-2.623,20.89-3S158.757,275.069,158.757,275.069Z" transform="translate(-136.017 -136.036)" fill="#363b53"/>
      <g id="Grupo_1027931" data-name="Grupo 1027931" transform="translate(77.034 56.844)">
        <path id="Trazado_726498" data-name="Trazado 726498" d="M207.793,230.958c2.767,5.932,10.263,13.275,13.881,16.324,7.262,6.123,12.16-2.8,7.8-7.547S219.2,228.8,215.049,221.289C213.042,217.656,205.026,225.024,207.793,230.958Z" transform="translate(-195.996 -205.617)" fill="#d6a491"/>
        <path id="Trazado_726499" data-name="Trazado 726499" d="M199.78,222.54c-2.984-7.691-1.742-13.131,2.96-14.009s12.828,6.385,18.963,18.075c-3.892,11.89-13.991,9.855-13.991,9.855S202.139,228.624,199.78,222.54Z" transform="translate(-198.165 -208.459)" fill="#c0832c"/>
        <path id="Trazado_726500" data-name="Trazado 726500" d="M226.721,236.159c4.794,3.438,15.744,8.392,28.647,9.626,2.384.387,3.344,7.307-2.1,8.157s-22.107-1-32.692-9.37C215.86,239.947,221.925,232.721,226.721,236.159Z" transform="translate(-193.205 -202.039)" fill="#d6a491"/>
        <path id="Trazado_726501" data-name="Trazado 726501" d="M248.107,245.912c1.745-.713,4.766-2.665,5.108-5.671s2.431-5.4,2.935-4.154c.588,1.449.566,9.386-.927,13.063-2.182,5.371-2.691,4.419-8.178,4.675S248.107,245.912,248.107,245.912Z" transform="translate(-186.982 -201.922)" fill="#d6a491"/>
      </g>
      <path id="Trazado_726502" data-name="Trazado 726502" d="M229.588,239.554c.078,5.75-4.147,33.242-5.47,43-2.8,2.692-9.634,1.968-12.948.207-1.148-2.713,2.6-30.677,3.849-34.85S229.588,239.554,229.588,239.554Z" transform="translate(-118.068 -144.167)" fill="#6588a1"/>
      <path id="Trazado_726503" data-name="Trazado 726503" d="M201.539,245.22c5.874-2.529,20.735-7.814,26.66-9.729,6.781-2.19,11.856,8.994.275,17.862-9.47,7.252-24.349,12.673-36.935,16.458S201.539,245.22,201.539,245.22Z" transform="translate(-123.632 -145.207)" fill="#6588a1"/>
      <path id="Trazado_726504" data-name="Trazado 726504" d="M210.9,242.578c.827,13.845,2.732,22.784-12.214,27.326-13.322,4.05-24.66.454-32.933-2.593-6.128-2.257-6.315-8.654-5.792-14.31C160.3,249.331,210.9,242.578,210.9,242.578Z" transform="translate(-130.327 -143.442)" fill="#829eb6"/>
      <path id="Trazado_726505" data-name="Trazado 726505" d="M224.341,202.877c-4.787-5.763-22.592-4.54-35.527,5.774-12.684,10.112-27.62,23.949-29.02,56.289,11.637,1.719,41.059,2.693,51.517-6.7-1.153-21.27,4.4-27.691,13.027-40.5C227.262,213.4,229.3,208.841,224.341,202.877Z" transform="translate(-130.322 -153.773)" fill="#e4ba34"/>
      <path id="Trazado_726506" data-name="Trazado 726506" d="M206.063,269.995c-20.365.1-45.823,3.462-51.117,3.768-3.055,3.054-3.565,10.386,3.462,12.422,42.156-.509,70.158,2.138,75.25-1.833s3.9-9.875-.713-12.321C229.484,270.2,206.063,269.995,206.063,269.995Z" transform="translate(-131.994 -136.875)" fill="#6588a1"/>
      <path id="Trazado_726507" data-name="Trazado 726507" d="M161.5,260.173c1.929,9.621,52.842,25.992,61.954,28.124,14.5,3.394,17-8.926,9.267-15.07-7.433-5.906-31.568-15.612-31.568-15.612S159.424,249.834,161.5,260.173Z" transform="translate(-129.932 -140.514)" fill="#829eb6"/>
      <path id="Trazado_726508" data-name="Trazado 726508" d="M201.637,235.333c2.988,6.81,11.428,15.4,15.519,18.988,8.213,7.205,14.258-2.676,9.371-8.211s-11.535-12.761-16.07-21.405C208.261,220.522,198.649,228.523,201.637,235.333Z" transform="translate(-120.436 -148)" fill="#eebdae"/>
      <path id="Trazado_726509" data-name="Trazado 726509" d="M192.886,225.524c-3.069-8.8-1.456-14.894,3.886-15.7s14.237,7.709,20.714,21.145c-4.856,13.275-16.181,10.587-16.181,10.587S195.315,232.486,192.886,225.524Z" transform="translate(-122.765 -151.301)" fill="#d99d33"/>
      <path id="Trazado_726510" data-name="Trazado 726510" d="M223.44,241.971c5.446,4.074,17.994,10.1,32.958,12.015,2.76.532,3.609,8.384-2.759,9.128s-25.683-2.017-37.675-11.887C210.657,245.815,217.995,237.9,223.44,241.971Z" transform="translate(-117.308 -143.857)" fill="#eebdae"/>
      <path id="Trazado_726511" data-name="Trazado 726511" d="M248.029,253.792c2.058-.735,5.647-2.817,6.163-6.2s3.037-6,3.576-4.573c.627,1.66.295,10.62-1.585,14.714-2.747,5.977-3.3,4.881-9.7,4.953S248.029,253.792,248.029,253.792Z" transform="translate(-110.154 -143.432)" fill="#eebdae"/>
      <g id="Grupo_1027936" data-name="Grupo 1027936" transform="translate(84.737 0)">
        <g id="Grupo_1027935" data-name="Grupo 1027935">
          <path id="Trazado_726512" data-name="Trazado 726512" d="M231.183,220.842s15.7-3.37,25.414-16.5c10.538-14.247,6.157-26.536-4.673-34.547-11.9-8.8-20.3-8.837-29.621-3.823-8.382,4.511-12.315,12.437-14.232,20.892C205.1,199.968,213.09,208.518,231.183,220.842Z" transform="translate(-203.641 -162.599)"/>
          <path id="Trazado_726513" data-name="Trazado 726513" d="M212.816,196.619s-4.617,3.425-7.769,5.822,5.655,14.25,9.875,11.322c2.225-1.544,5.682-4.08,5.682-4.08Z" transform="translate(-204.38 -154.451)" fill="#d69e8e"/>
          <path id="Trazado_726514" data-name="Trazado 726514" d="M254.1,200.787c-8.9,12.41-10.646,17.4-15.22,19.579-4.306,2.051-13.213,2.746-23.866-9.806-7.631-8.99-4.847-17.812-4.847-17.812a5.936,5.936,0,0,1-3.219-1.523,4.374,4.374,0,0,1-.187-5.966c2.579-3.117,4.8-3.022,6.313-2.467,2.695.989,2.68,4.209,2.68,4.209a81.569,81.569,0,0,1,6.406-7.809c3.019-3.09,6.215-6.313,23.343,4.442,4.232,2.658,9.791,6.491,11.221,9.086C258.051,195.122,256.5,197.449,254.1,200.787Z" transform="translate(-204.068 -159.339)" fill="#eebdae"/>
          <g id="Grupo_1027932" data-name="Grupo 1027932" transform="translate(34.598 44.97)">
            <path id="Trazado_726515" data-name="Trazado 726515" d="M232.609,198.879c3.933.575,4.373,4.28-.317,3.947" transform="translate(-232.292 -198.879)" fill="none" stroke="#936053" stroke-miterlimit="10" stroke-width="0.317"/>
          </g>
          <path id="Trazado_726516" data-name="Trazado 726516" d="M223.825,200c-.953.672-2.306,5.263,4.238,6.345" transform="translate(-199.915 -153.642)" fill="none" stroke="#936053" stroke-miterlimit="10" stroke-width="0.408"/>
          <g id="Grupo_1027933" data-name="Grupo 1027933" transform="translate(30.126 34.614)">
            <path id="Trazado_726517" data-name="Trazado 726517" d="M237.307,192.352c-.721,1.694-2.6,6.791-6.747,5.133s-.124-6.613-.124-6.613A52.26,52.26,0,0,1,237.307,192.352Z" transform="translate(-228.685 -190.441)" fill="url(#linear-gradient)"/>
            <path id="Trazado_726518" data-name="Trazado 726518" d="M236.343,191.71c-4.714-1.972-8.352-1.2-5.471.254S239.452,193.01,236.343,191.71Z" transform="translate(-228.406 -190.524)" fill="#29444c"/>
            <path id="Trazado_726519" data-name="Trazado 726519" d="M232.314,197.608c.559-2.111-1.17-2.936-2.871-1.549" transform="translate(-228.503 -189.362)" fill="none" stroke="#452f20" stroke-miterlimit="10" stroke-width="0.529"/>
          </g>
          <g id="Grupo_1027934" data-name="Grupo 1027934" transform="translate(38.623 39.397)">
            <path id="Trazado_726520" data-name="Trazado 726520" d="M239.939,194.439c-1.145.881-5.21,4.133-3.172,7.044s5.9-2.267,5.9-2.267S240.845,195.793,239.939,194.439Z" transform="translate(-235.38 -194.37)" fill="url(#linear-gradient-2)"/>
            <path id="Trazado_726521" data-name="Trazado 726521" d="M240.032,194.833c2.552,2.8,2.772,6.386.609,3.631S238.7,193.372,240.032,194.833Z" transform="translate(-234.705 -194.383)" fill="#29444c"/>
            <path id="Trazado_726522" data-name="Trazado 726522" d="M237.982,201.061c1-2.39-1.072-3.441-2.443-2" transform="translate(-235.539 -193.42)" fill="none" stroke="#452f20" stroke-miterlimit="10" stroke-width="0.529"/>
          </g>
        </g>
        <path id="Trazado_726523" data-name="Trazado 726523" d="M226.274,166.109c10.683-9.1,30.122,3.686,30.122,3.686,14.259,1.081,4.993,6.132,4.993,6.132,20.877,5.966,2.237,15.256,2.237,15.256,6.307,4.192-4.111,5.53-4.111,5.53s-14.573-2.582-18.225-4.642-12.917-18.837-12.917-18.837Z" transform="translate(-199.135 -162.542)"/>
      </g>
    </g>
    <g id="Grupo_1027941" data-name="Grupo 1027941" transform="translate(309.066 155.288)">
      <path id="Trazado_726524" data-name="Trazado 726524" d="M366.6,144.245c7.652-8.927,20.742-17.431,31.75-8.564,6.872,5.536,10.124,13.666,2.9,33.222s-.638,37.838,8.077,41.664c-11.478,3.4-33.373,5.1-31.034-23.809s-1.275-35.711-7.016-32.948C367.658,151.26,366.6,144.245,366.6,144.245Z" transform="translate(-232.935 -131.933)"/>
      <path id="Trazado_726525" data-name="Trazado 726525" d="M374.5,280.9c1.161.857,14.8,3.728,26.438,3.95,2.881.128,2.552-1.233-1.336-2.3-4.814-1.323-7.071-2.923-10.734-5.479-4.2-2.929-6.2-5.145-7.616-5.175a52.661,52.661,0,0,0-5.921.8Z" transform="translate(-231.042 -98.409)" fill="#253e4b"/>
      <path id="Trazado_726526" data-name="Trazado 726526" d="M296.224,285.936c28.184.056,88.315-3.706,99.591-1.724,2.924.508,3.721-9.02.972-9.6s-36.443-5.81-51.248-8.444c-26.578-4.729-33.178-3.135-46.294,1.976S288.486,285.351,296.224,285.936Z" transform="translate(-251.302 -100.456)" fill="#5b798e"/>
      <path id="Trazado_726527" data-name="Trazado 726527" d="M335.74,193.344c-3.517,3.658-8.185,27.35-20.841,49.594-3.249,5.711,2.61,16.108,10.046,7.994,10.38-11.324,24.913-40.2,31.284-51.251C360.23,192.74,340.977,187.894,335.74,193.344Z" transform="translate(-245.537 -117.786)" fill="#d9b684"/>
      <path id="Trazado_726528" data-name="Trazado 726528" d="M371.888,159.45c3.787-1.341,3.72-6.3,1.733-11.417-2.437-6.286-6.94-9.489-10.569-6.255C368.889,147.143,371.888,159.45,371.888,159.45Z" transform="translate(-233.784 -129.881)" fill="#115089"/>
      <path id="Trazado_726529" data-name="Trazado 726529" d="M374.146,284.508c1.186.823,14.9,3.308,26.539,3.2,2.883.046,2.516-1.305-1.4-2.263-4.85-1.185-7.151-2.721-10.884-5.173-4.279-2.81-6.343-4.968-7.759-4.957a52.593,52.593,0,0,0-5.9.967Z" transform="translate(-231.126 -97.59)" fill="#35586b"/>
      <path id="Trazado_726530" data-name="Trazado 726530" d="M296.012,291.894c28.174-.742,88.173-6.2,99.5-4.543,2.936.425,3.464-9.122.7-9.62s-36.594-4.776-51.467-6.99c-26.7-3.975-33.254-2.194-46.218,3.286S288.26,291.529,296.012,291.894Z" transform="translate(-251.4 -99.201)" fill="#6e90a9"/>
      <path id="Trazado_726531" data-name="Trazado 726531" d="M337.739,244.379c-14.211,8.085-38.223,19.111-49.653,27.1-9.128,6.381-2.148,21.654,6.938,18.025s51.36-19.883,51.36-19.883Z" transform="translate(-252.764 -105)" fill="#6e90a9"/>
      <path id="Trazado_726532" data-name="Trazado 726532" d="M368.978,283.965c-12.487,2.992-66.427,11.3-72.682,12.166s-12.674-12.556-3.105-18.5c13.821-8.592,50.819-26.724,50.819-26.724Z" transform="translate(-251.684 -103.438)" fill="#829eb6"/>
      <path id="Trazado_726533" data-name="Trazado 726533" d="M365.124,242.212c3.246,5.8,9.91,14.652,10.954,25.842s-7.4,20.774-24.689,17.438c-19.338-3.733-26.506-12.69-26.524-21.231-.016-7.085,3.147-21.038,3.147-21.038Z" transform="translate(-242.93 -105.519)" fill="#829eb6"/>
      <path id="Trazado_726534" data-name="Trazado 726534" d="M315.982,243.642c-2.729-3.5-5.873-10.542-7.855-14.222-2.237-4.155-.689-10.353,4.161-5.3,4.238,4.413,14.122,15.446,13.4,19.267C325.138,246.289,319.657,248.356,315.982,243.642Z" transform="translate(-247.18 -110.307)" fill="#dbbd98"/>
      <path id="Trazado_726535" data-name="Trazado 726535" d="M333.289,194.36c.288,3.023-1.288,8.773-3.167,11.8-2.5,4.027-7.052,10.65-7.771,14.1s2.734,10.938,3.6,14.823a129.6,129.6,0,0,1,2.323,21.294c0,6.764,36.847,6.012,37.478-.935,2.692-29.6,11.146-30.722,13.593-38.637s4.032-20.56-1.583-23.459C368.836,188.747,355.02,181.119,333.289,194.36Z" transform="translate(-243.556 -118.756)" fill="#115089"/>
      <path id="Trazado_726536" data-name="Trazado 726536" d="M346.071,210.749c10.628,1.46,17.28-6.9,22.875-20.094-7.252-3.29-16.954-5.953-30.006-.829C334.307,198.589,335.442,209.288,346.071,210.749Z" transform="translate(-240.179 -118.754)" fill="#dbbd98"/>
      <g id="Grupo_1027939" data-name="Grupo 1027939" transform="translate(79.425 9.936)">
        <path id="Trazado_726537" data-name="Trazado 726537" d="M355.958,199.47c1.361-1.029,2.477-.909,3.606-2.12l2.912-28.482-11.951-.162-4.693,28.43C348.465,200.015,352.284,202.24,355.958,199.47Z" transform="translate(-317.333 -133.061)" fill="#dbbd98"/>
        <path id="Trazado_726538" data-name="Trazado 726538" d="M362.3,168.868l-2,19.54a39.1,39.1,0,0,1-13.754,3.318l3.8-23.02Z" transform="translate(-317.161 -133.061)" fill="#c89673"/>
        <path id="Trazado_726539" data-name="Trazado 726539" d="M365.179,186.479c-3.668,7.908-23.665,13.181-30.365,9.662-3.247-1.706-4.534-5.618-5.927-10.568-2.339-8.317-2.879-19.43-.708-26.668,3.585-11.959,18.214-22.32,29.628-17.926S369.6,176.951,365.179,186.479Z" transform="translate(-321.889 -139.949)" fill="#dbbd98"/>
        <path id="Trazado_726540" data-name="Trazado 726540" d="M333.844,164.318c.024-.014.032-.016.06-.03l-.566-1.539c-3.239,3.473-7.024,5.9-10.5,8.509,6.847,7.057,14.162,1.077,12.73-7.312a4.646,4.646,0,0,0-1.725.372C333.43,164.539,333.5,164.464,333.844,164.318Z" transform="translate(-322.84 -134.488)" fill="#dbbd98"/>
        <g id="Grupo_1027938" data-name="Grupo 1027938" transform="translate(7.037 23.91)">
          <path id="Trazado_726541" data-name="Trazado 726541" d="M329.077,159.442c-.428,1.547-1.843,7.137,2.54,8.118s4.041-6.075,4.041-6.075S331.074,159.927,329.077,159.442Z" transform="translate(-328.517 -159.19)" opacity="0.4" fill="url(#linear-gradient-3)"/>
          <path id="Trazado_726542" data-name="Trazado 726542" d="M330.062,159.263c4.8.523,7.922,3.354,3.54,2.593S327.554,158.99,330.062,159.263Z" transform="translate(-328.428 -159.238)"/>
          <path id="Trazado_726543" data-name="Trazado 726543" d="M332.994,166.091c-.941-2.7-3.85-2.107-4.049.064" transform="translate(-328.415 -158.029)" fill="none" stroke="#452f20" stroke-miterlimit="10" stroke-width="0.626"/>
        </g>
      </g>
      <path id="Trazado_726544" data-name="Trazado 726544" d="M328.206,218.268c2.146.081,25.705,2.679,28.1,3.489s-11.221,2.226-17.49,1.812C333.651,223.229,325.911,218.181,328.206,218.268Z" transform="translate(-242.229 -111.254)" fill="#1c5c96"/>
      <path id="Trazado_726545" data-name="Trazado 726545" d="M331.431,154.213c7.991,12.059,19.386,15.986,22,15.919,2.91,13.005,4.781,19.943,12.783,22.149,5.5-1.872,9.345-8.227,11.994-13.4,2.108-4.115,8.022-19.456-1.892-33.017s-27.541-10.335-32.466-7.634-8.316,5.957-12.3,10.361c-3.607,3.98-6.033,7.334-7.6,6.193C328.862,160.421,331.431,154.213,331.431,154.213Z" transform="translate(-243.152 -130.999)"/>
      <path id="Trazado_726546" data-name="Trazado 726546" d="M346.138,168.86c-.729,3.959,1.324,7.657,4.587,8.258s6.5-2.121,7.229-6.081-1.324-7.657-4.587-8.258S346.868,164.9,346.138,168.86Z" transform="translate(-237.87 -124.565)" fill="#dbbd98"/>
      <path id="Trazado_726547" data-name="Trazado 726547" d="M348.035,159.441c5.3,6.687-5.409,15.387-3.358,26.019-1.958-4.01-1.786-7.081.615-12.9C349.1,163.319,348.035,159.441,348.035,159.441Z" transform="translate(-238.506 -125.345)"/>
      <path id="Trazado_726548" data-name="Trazado 726548" d="M347.419,159.886c3.152,4.985-4.848,10.176-4.219,17.632-1.051-2.9-.707-5,1.371-8.822C347.866,162.629,347.419,159.886,347.419,159.886Z" transform="translate(-238.677 -125.238)"/>
      <path id="Trazado_726549" data-name="Trazado 726549" d="M337.413,173.486c.444,3.995-2.949,6.117-6.657,5.19" transform="translate(-241.519 -121.98)" fill="none" stroke="#6e3f3c" stroke-miterlimit="10" stroke-width="0.433"/>
      <path id="Trazado_726550" data-name="Trazado 726550" d="M365.752,263.273c-.092.709-7.805,7.588-7.805,7.588l-8.356,8.173,1.135,1.707,9.026-5.867-.5,9.753-1.412,10.717,2.239.564,3.349-12.172-.642,12.5,1.116-.029,2.891-11.348,1,9.189,1.578-.508.678-8.52.219,4.948,1.113-.592.083-11.209L371.2,265.8l1-3.707-3.914-4.232Z" transform="translate(-237.008 -101.77)" fill="#dbbd98"/>
      <path id="Trazado_726551" data-name="Trazado 726551" d="M384.97,235.56c-3.081,7.778-15.083,37.044-16.6,41.592-3.288.268-7.164-3.438-7.606-4.228,0,0,10.633-35.775,11.751-38.907.022-.062.042-.143.064-.21C376.875,225.665,386.582,229.194,384.97,235.56Z" transform="translate(-234.332 -108.667)" fill="#dbbd98"/>
      <path id="Trazado_726552" data-name="Trazado 726552" d="M368.445,192.517c10.843,3.4,12.982,27.546,13.536,31.266s2.058,14.96,2.137,17.73a9.112,9.112,0,0,1,0,1.884c-.713,6.6-10.8,6.943-12.016,2.565-1.158-4.183-3.357-13.086-4.444-17.509C366.545,223.941,361.955,202.174,368.445,192.517Z" transform="translate(-233.307 -117.422)" fill="#dbbd98"/>
      <g id="Grupo_1027940" data-name="Grupo 1027940" transform="translate(0 105.255)">
        <path id="Trazado_726553" data-name="Trazado 726553" d="M282.9,247.841c-7.147,2.953-14.069-.383-17.616-5.492a24.274,24.274,0,0,0-6.007,3.676s6.863,12.891,24.815,5.33A7.909,7.909,0,0,0,282.9,247.841Z" transform="translate(-258.639 -210.742)" fill="#207583"/>
        <path id="Trazado_726554" data-name="Trazado 726554" d="M258.763,246.5a63.234,63.234,0,0,1,7.207-4.451" transform="translate(-258.763 -210.813)" fill="none" stroke="#16535d" stroke-linecap="round" stroke-miterlimit="10" stroke-width="1.083"/>
        <path id="Trazado_726555" data-name="Trazado 726555" d="M280,246.78a14.24,14.24,0,0,1-5.346,1.1,11.882,11.882,0,0,1-3.245,4.765,27.877,27.877,0,0,0,9.784-2.354A7.91,7.91,0,0,0,280,246.78Z" transform="translate(-255.734 -209.68)" fill="#1b626d"/>
        <path id="Trazado_726556" data-name="Trazado 726556" d="M272.346,233.372c2.25,7.8,5.777,19.348,9.236,26.688.808,1.717,2.125,4.278,6.393,3.514,4.989-.892,21.8-8.322,25.718-11.542,2.737-2.251,2.54-3.332.563-7.412-3.137-6.475-9.486-18.813-13.976-24.435-1.777-2.225-2.826-2.467-5.458-1.58-3.759,1.267-17.89,7.169-20.121,8.582S271.461,229.737,272.346,233.372Z" transform="translate(-255.586 -216.544)" fill="#207583"/>
        <path id="Trazado_726557" data-name="Trazado 726557" d="M307.336,247.572l-1.921-3.539,9.329-5.065L305.089,220.9l-10.722,4.7-1.616-3.688,10.819-4.742.052-.022a3.931,3.931,0,0,1,4.969,1.763l9.756,18.254a3.921,3.921,0,0,1-1.582,5.28Z" transform="translate(-250.622 -216.849)" fill="#207583"/>
        <path id="Trazado_726558" data-name="Trazado 726558" d="M312.426,244.618c-3.137-6.475-9.486-18.813-13.976-24.435-1.5-1.875-2.489-2.33-4.336-1.9,7.191,9.984,14.264,37.626-14.45,41.583.03.063.059.13.088.192.809,1.717,2.125,4.278,6.394,3.514,4.989-.892,21.8-8.322,25.718-11.542C314.6,249.779,314.4,248.7,312.426,244.618Z" transform="translate(-253.757 -216.542)" fill="#1b626d"/>
      </g>
      <path id="Trazado_726559" data-name="Trazado 726559" d="M305.393,224.9c1.021.364,3.5-.766,3.9-1.189-.532-.971-.848-1.6-.848-1.6s2.939-1.016,5.065,3.077,3.148,6.772-.183,8.648-6.517,1.521-7.995-1.037-3.376-8.051-.739-9.415C304.85,223.948,305.393,224.9,305.393,224.9Z" transform="translate(-248.102 -110.359)" fill="#dbbd98"/>
    </g>
    <path id="Trazado_726564" data-name="Trazado 726564" d="M418.651,246.877c-15.065,12.078-25.949,34.674-10.291,26.4S444.6,226.073,418.651,246.877Z" transform="translate(84.304 49.439)" fill="#e2eff0"/>
    <circle id="Elipse_8555" data-name="Elipse 8555" cx="4.316" cy="4.316" r="4.316" transform="translate(104.854 317.743)" fill="#e2eff0"/>
  </g>
</svg>
