<svg xmlns="http://www.w3.org/2000/svg" width="305.134" height="347.801" viewBox="0 0 305.134 347.801">
  <g id="g9847" transform="translate(-41.868 0.002)">
    <g id="g9853" transform="translate(218.653 213.237)">
      <path id="path9855" d="M388.865,465.25q14.616,7.025,29.243,14.028l34.987-39.1a12.98,12.98,0,0,0-18.59-18.087Z" transform="translate(-388.865 -418.547)" fill="#f89f8e"/>
    </g>
    <g id="g9857" transform="translate(213.557 208.139)">
      <path id="Trazado_726334" data-name="Trazado 726334" d="M413.2,479.465a5.08,5.08,0,0,1-2.2-.5q-14.632-7-29.251-14.032a5.095,5.095,0,0,1-1.293-8.294l45.64-43.154a18.075,18.075,0,0,1,25.887,25.187L417,477.768A5.094,5.094,0,0,1,413.2,479.465Zm-20.36-20.509q9.555,4.59,19.114,9.168l32.439-36.247a7.884,7.884,0,0,0-1.2-11.61,7.883,7.883,0,0,0-10.089.623Z" transform="translate(-378.864 -408.542)"/>
    </g>
    <g id="g9861" transform="translate(239.913 226.06)">
      <path id="path9863" d="M430.6,487.833q14.273,7.7,28.556,15.379l36.775-37.419A12.979,12.979,0,0,0,478.2,446.858Z" transform="translate(-430.595 -443.716)" fill="#fdb0a0"/>
    </g>
    <g id="g9865" transform="translate(234.818 220.962)">
      <path id="Trazado_726335" data-name="Trazado 726335" d="M454.244,503.4a5.087,5.087,0,0,1-2.41-.607q-14.289-7.678-28.564-15.383a5.095,5.095,0,0,1-.9-8.345l47.608-40.975a18.074,18.074,0,0,1,24.681,26.368l-36.776,37.419A5.089,5.089,0,0,1,454.244,503.4Zm-19.619-21.443q9.331,5.031,18.666,10.051l34.1-34.693a7.886,7.886,0,0,0-.661-11.654,7.881,7.881,0,0,0-10.106.151Z" transform="translate(-420.595 -433.71)"/>
    </g>
    <g id="g9869" transform="translate(69.522 26.286)">
      <path id="path9871" d="M325.392,166.218A114.622,114.622,0,1,1,210.77,51.6,114.622,114.622,0,0,1,325.392,166.218" transform="translate(-96.148 -51.596)" fill="#4db1f0"/>
    </g>
    <g id="g9873" transform="translate(172.744 26.282)">
      <path id="path9875" d="M424.776,166.214A114.624,114.624,0,0,1,310.159,280.839c-3.847,0-7.655-.187-11.4-.56a114.636,114.636,0,0,0,0-228.13c3.749-.373,7.557-.559,11.4-.559A114.624,114.624,0,0,1,424.776,166.214" transform="translate(-298.755 -51.589)" fill="#31a7fb"/>
    </g>
    <g id="g9877" transform="translate(115.933 26.973)">
      <path id="path9879" d="M370.075,166.877a114.08,114.08,0,0,1-20.488,65.417l-33.525-11.166A6.792,6.792,0,0,0,308.2,223.9L301,235.092a6.794,6.794,0,0,1-2.841,2.481l-19.48,9.084a6.792,6.792,0,0,1-6.777-.6l-24.007-16.876a6.791,6.791,0,0,1-2.317-8.278l3.579-8.188a6.794,6.794,0,0,1,4.571-3.868l26.119-6.556a6.794,6.794,0,0,0,4.392-3.491l8.834-17.243a6.792,6.792,0,0,0-.251-6.64l-9.5-15.543a6.792,6.792,0,0,0-5.8-3.25h-7.54a6.792,6.792,0,0,0-5.716,3.124L251.1,179.757a6.794,6.794,0,0,1-7.688,2.831l-10.646-3.227a6.792,6.792,0,0,0-6.817,1.741l-5.992,6.1a6.793,6.793,0,0,1-8.6.906l-13.28-8.788a6.8,6.8,0,0,1-2.541-3.1l-7.789-19.072a6.789,6.789,0,0,1,.454-6.048l11.94-20.02a6.793,6.793,0,0,1,7.961-2.972l20.192,6.656a6.79,6.79,0,0,0,5.237-.413l31.743-16.35a6.793,6.793,0,0,0,3.666-6.5l-.961-14.123a6.792,6.792,0,0,0-3.191-5.307l-6.9-4.291a6.792,6.792,0,0,1-2.522-8.743l12.7-26.1a114.638,114.638,0,0,1,102,113.931" transform="translate(-187.245 -52.946)" fill="#065958"/>
    </g>
    <g id="g9885" transform="translate(110.845 21.877)">
      <path id="Trazado_726336" data-name="Trazado 726336" d="M270.915,247.478a11.9,11.9,0,0,1-6.844-2.159l-24.007-16.875a11.926,11.926,0,0,1-4.055-14.487l3.579-8.188a11.967,11.967,0,0,1,8-6.769l26.119-6.556a1.7,1.7,0,0,0,1.1-.875l8.833-17.24a1.708,1.708,0,0,0-.063-1.661l-9.5-15.542a1.707,1.707,0,0,0-1.449-.813h-7.54a1.693,1.693,0,0,0-1.43.782L250.487,177.6a11.935,11.935,0,0,1-13.453,4.954l-10.647-3.228a1.691,1.691,0,0,0-1.7.436l-5.992,6.1a11.906,11.906,0,0,1-15.043,1.585l-13.28-8.788a11.837,11.837,0,0,1-4.446-5.42l-7.789-19.07a11.944,11.944,0,0,1,.8-10.586l11.94-20.018a11.817,11.817,0,0,1,13.931-5.2l20.191,6.655a1.709,1.709,0,0,0,1.308-.1l31.744-16.351a1.7,1.7,0,0,0,.916-1.624L258,92.825a1.7,1.7,0,0,0-.8-1.326l-6.9-4.29a11.859,11.859,0,0,1-4.413-15.3l12.7-26.1a5.095,5.095,0,0,1,9.162,4.46l-12.7,26.1a1.7,1.7,0,0,0,.631,2.186l6.9,4.29a11.915,11.915,0,0,1,5.584,9.288l.961,14.124a11.875,11.875,0,0,1-6.416,11.376l-31.743,16.35a11.957,11.957,0,0,1-9.164.723l-20.193-6.656a1.688,1.688,0,0,0-1.989.742l-11.941,20.02a1.706,1.706,0,0,0-.114,1.512l7.79,19.073a1.687,1.687,0,0,0,.634.774l13.281,8.788a1.7,1.7,0,0,0,2.148-.227l5.993-6.1a11.852,11.852,0,0,1,11.931-3.049l10.646,3.227a1.706,1.706,0,0,0,1.923-.707l13.167-20.51a11.839,11.839,0,0,1,10-5.466h7.54a11.96,11.96,0,0,1,10.143,5.688l9.5,15.542a11.961,11.961,0,0,1,.437,11.622l-8.834,17.243a11.89,11.89,0,0,1-7.686,6.109l-26.119,6.556a1.711,1.711,0,0,0-1.143.969l-3.579,8.187a1.7,1.7,0,0,0,.579,2.07l24.008,16.876a1.7,1.7,0,0,0,1.694.15l19.48-9.085a1.7,1.7,0,0,0,.711-.622l7.2-11.193a11.879,11.879,0,0,1,13.753-4.847L346.3,222.554a5.095,5.095,0,0,1-3.22,9.667l-33.525-11.166a1.7,1.7,0,0,0-1.964.693l-7.2,11.194a11.874,11.874,0,0,1-4.973,4.341l-19.48,9.084A11.861,11.861,0,0,1,270.915,247.478Z" transform="translate(-177.257 -42.943)"/>
    </g>
    <g id="g9889" transform="translate(261.6 99.244)">
      <path id="path9891" d="M510.33,236.464a114.468,114.468,0,0,1-6.609,38.447c-11.809-3.086-34.1-14.964-30.078-42.771,3.413-23.558,18.391-33.267,27.726-37.087a3.4,3.4,0,0,1,1.148-.252,114.226,114.226,0,0,1,7.812,41.663" transform="translate(-473.164 -194.801)" fill="#136969"/>
    </g>
    <g id="g9893" transform="translate(79.716 182.499)">
      <path id="path9895" d="M175.083,390.976a14.72,14.72,0,0,0-14.808,3.725c-3.434,3.236-6.846,7.758-11.34,11.389a114.909,114.909,0,0,1-32.777-42.153c6.445-4.331,14.923-6.826,25.876-5.241,23.564,3.413,33.274,18.39,37.087,27.732a3.39,3.39,0,0,1-4.038,4.549" transform="translate(-116.158 -358.216)" fill="#31a7fb"/>
    </g>
    <g id="g9897" transform="translate(87.297 33.887)">
      <path id="path9899" d="M174.25,122.144c-21.438,5.4-35.626-2.97-43.213-9.939A115,115,0,0,1,186.76,66.516q2.6.317,5.351.715a12.065,12.065,0,0,1,2.76.734,11.854,11.854,0,0,1,7.323,9.07c1.924,11.639.082,38.046-27.943,45.11" transform="translate(-131.037 -66.516)" fill="#31a7fb"/>
    </g>
    <g id="g9901" transform="translate(64.427 21.19)">
      <path id="Trazado_726337" data-name="Trazado 726337" d="M205.865,281.029a119.717,119.717,0,0,1,0-239.434,118.507,118.507,0,0,1,73.823,25.467,5.095,5.095,0,1,1-6.289,8.017,108.412,108.412,0,0,0-67.534-23.3,109.533,109.533,0,1,0,83.175,38.27,5.094,5.094,0,0,1,7.734-6.633,119.714,119.714,0,0,1-90.909,197.607Z" transform="translate(-86.148 -41.595)"/>
    </g>
    <g id="g9905" transform="translate(62.275 232.739)">
      <path id="path9907" d="M359.315,472.062a12.978,12.978,0,0,0-16-4.571l-44.091,19.55a17.3,17.3,0,0,0-17.1-14.7h-37.3a68.051,68.051,0,0,1-21.605-3.521l-31.477-10.537a28.179,28.179,0,0,0-16.823-.335l-20.44,5.949a28.184,28.184,0,0,0-17.131,14.062,57.565,57.565,0,0,1-19.788,21.768L81.924,522.806l43.986,43.986L171.815,531.7l88.536,5.952a26.753,26.753,0,0,0,14.637-3.224l79.821-43.686a12.979,12.979,0,0,0,4.506-18.679" transform="translate(-81.924 -456.827)" fill="#ffcec0"/>
    </g>
    <g id="g9909" transform="translate(92.392 242.448)">
      <path id="path9911" d="M383.806,500.085l-79.821,43.686A26.764,26.764,0,0,1,289.351,547l-88.542-5.954-45.9,35.093L141.037,562.27l47.926-36.634a4.772,4.772,0,0,1,3.218-.969l86.745,5.831a26.785,26.785,0,0,0,14.639-3.224l79.821-43.685a12.923,12.923,0,0,0,6.216-7.7,12.977,12.977,0,0,1,4.2,24.2" transform="translate(-141.037 -475.884)" fill="#fdb0a0"/>
    </g>
    <g id="g9913" transform="translate(57.18 227.637)">
      <path id="Trazado_726338" data-name="Trazado 726338" d="M77.024,522.989a5.095,5.095,0,0,1-2.774-9.371l35.634-23.076A52.567,52.567,0,0,0,127.921,470.7a33.43,33.43,0,0,1,20.228-16.6l20.439-5.95a33.134,33.134,0,0,1,19.866.4l31.477,10.537a62.838,62.838,0,0,0,19.988,3.257h37.3a22.388,22.388,0,0,1,0,44.776H232.28a92.419,92.419,0,0,0-21.567,2.555,5.1,5.1,0,0,1-2.38-9.908,102.647,102.647,0,0,1,23.948-2.836h44.942a12.2,12.2,0,0,0,0-24.4h-37.3a73.006,73.006,0,0,1-23.223-3.784L185.22,458.2a23,23,0,0,0-13.784-.275L151,463.879a23.189,23.189,0,0,0-14.034,11.52,62.782,62.782,0,0,1-21.54,23.7L79.788,522.17A5.07,5.07,0,0,1,77.024,522.989Z" transform="translate(-71.923 -446.813)"/>
    </g>
    <g id="g9917" transform="translate(101.166 237.19)">
      <path id="Trazado_726339" data-name="Trazado 726339" d="M163.358,576.171a5.095,5.095,0,0,1-3.1-9.142l45.905-35.091A5.1,5.1,0,0,1,209.6,530.9l88.535,5.951a21.627,21.627,0,0,0,11.85-2.61l79.821-43.686a7.885,7.885,0,0,0,2.737-11.346,7.881,7.881,0,0,0-9.719-2.778l-44.09,19.55a5.095,5.095,0,1,1-4.13-9.315l44.091-19.55a18.074,18.074,0,0,1,16,32.377l-79.821,43.686a31.809,31.809,0,0,1-17.425,3.837L210.83,541.2l-44.382,33.926A5.075,5.075,0,0,1,163.358,576.171Z" transform="translate(-158.259 -465.563)"/>
    </g>
    <g id="g9921" transform="translate(56.981 168.702)">
      <path id="path9923" d="M75.151,373.858a11.865,11.865,0,0,1-3.317-11.175c2.657-11.494,14.41-35.211,43.016-31.069,23.563,3.41,33.271,18.39,37.087,27.727a3.39,3.39,0,0,1-4.038,4.55,14.727,14.727,0,0,0-14.809,3.725c-9.9,9.324-19.593,29.34-55.667,7.972a12.148,12.148,0,0,1-2.272-1.73" transform="translate(-71.532 -331.134)" fill="#065958"/>
    </g>
    <g id="g9925" transform="translate(56.983 183.889)">
      <path id="path9927" d="M147.9,378.514a14.737,14.737,0,0,0-14.811,3.722c-9.893,9.329-19.587,29.342-55.664,7.972a11.922,11.922,0,0,1-5.811-11.617c34.227,19.219,43.715-.146,53.408-9.277a14.714,14.714,0,0,1,14.811-3.721,3.393,3.393,0,0,0,4.037-4.553c-.011-.032-.029-.066-.039-.1a45.186,45.186,0,0,1,8.106,13.02,3.389,3.389,0,0,1-4.037,4.551" transform="translate(-71.537 -360.943)" fill="#136969"/>
    </g>
    <g id="g9929" transform="translate(51.892 163.618)">
      <path id="Trazado_726340" data-name="Trazado 726340" d="M100.326,385.309c-7.905,0-17.781-2.758-30.4-10.232a17.248,17.248,0,0,1-3.224-2.457,17.05,17.05,0,0,1-4.732-15.978c3-12.955,14.934-35.005,40.681-35.485h.1a5.095,5.095,0,0,1,.093,10.188c-19.474.363-28.613,17.515-30.943,27.592a6.8,6.8,0,0,0,1.9,6.371,6.983,6.983,0,0,0,1.319,1c27.661,16.386,36.61,6.627,45.265-2.811,1.463-1.6,2.845-3.1,4.313-4.485a19.881,19.881,0,0,1,16.276-5.6,38.228,38.228,0,0,0-18.264-17.745,5.095,5.095,0,1,1,4.3-9.238,48.567,48.567,0,0,1,24.743,26.092,8.484,8.484,0,0,1-10.14,11.38,9.693,9.693,0,0,0-9.93,2.531c-1.2,1.127-2.456,2.5-3.79,3.955C122.009,376.8,114.207,385.308,100.326,385.309Z" transform="translate(-61.544 -321.155)"/>
    </g>
    <g id="g9933" transform="translate(41.868 184.06)">
      <path id="Trazado_726341" data-name="Trazado 726341" d="M46.958,403.114a5.1,5.1,0,0,1-4.213-7.953c19.5-28.775,47.182-33.579,61.949-33.882h.106a5.095,5.095,0,0,1,.1,10.188c-12.8.262-36.8,4.432-53.722,29.41A5.09,5.09,0,0,1,46.958,403.114Z" transform="translate(-41.868 -361.278)"/>
    </g>
    <g id="g9937" transform="translate(81.091 17.203)">
      <path id="path9939" d="M185.31,35.52a11.864,11.864,0,0,1,7.322,9.071c1.92,11.639.082,38.044-27.945,45.108-23.087,5.818-37.768-4.337-44.852-11.518a3.389,3.389,0,0,1,2-5.744,14.729,14.729,0,0,0,12.276-9.083c5.6-12.392,6.945-34.591,48.438-28.569a12.2,12.2,0,0,1,2.76.734Z" transform="translate(-118.857 -33.769)" fill="#065958"/>
    </g>
    <g id="g9941" transform="translate(88.269 17.462)">
      <path id="path9943" d="M171.6,89.945c-17.7,4.467-30.472-.469-38.651-6.255a49.433,49.433,0,0,0,23.211-.639C184.181,75.987,186.024,49.58,184.1,37.94a11.892,11.892,0,0,0-1.251-3.664c2.081.171,4.284.415,6.616.755a12.548,12.548,0,0,1,2.76.734,11.861,11.861,0,0,1,7.316,9.077c1.924,11.639.088,38.039-27.943,45.1" transform="translate(-132.946 -34.276)" fill="#136969"/>
    </g>
    <g id="g9945" transform="translate(75.993 12.12)">
      <path id="Trazado_726342" data-name="Trazado 726342" d="M146.457,91.63A48.869,48.869,0,0,1,111.3,76.863a8.484,8.484,0,0,1,5.044-14.383,9.7,9.7,0,0,0,8.218-6.121c.678-1.5,1.319-3.248,2-5.1,4.7-12.829,11.815-32.216,51.814-26.411a17.3,17.3,0,0,1,3.913,1.043l0,0a17.048,17.048,0,0,1,10.458,12.973,51.918,51.918,0,0,1-3.066,27.058c-5.052,12.131-14.963,20.367-28.66,23.819A59.482,59.482,0,0,1,146.457,91.63ZM120.924,71.936c7.577,6.6,19.77,12.422,37.61,7.927,10.607-2.674,17.923-8.681,21.744-17.856A41.608,41.608,0,0,0,182.7,40.525a6.8,6.8,0,0,0-4.185-5.169,7.06,7.06,0,0,0-1.6-.424c-31.814-4.618-36.375,7.813-40.784,19.835-.745,2.032-1.449,3.952-2.28,5.79A19.886,19.886,0,0,1,120.924,71.936Z" transform="translate(-108.849 -23.79)"/>
    </g>
    <g id="g9949" transform="translate(110.06 -0.002)">
      <path id="Trazado_726343" data-name="Trazado 726343" d="M180.816,61.472a5.1,5.1,0,0,1-2.038-9.766c11.735-5.116,32.337-18.108,38.476-47.649a5.095,5.095,0,0,1,9.976,2.074c-7.072,34.031-30.841,49.014-44.381,54.916A5.077,5.077,0,0,1,180.816,61.472Z" transform="translate(-175.717 0.002)"/>
    </g>
    <g id="g9953" transform="translate(271.785 86.1)">
      <path id="path9955" d="M535.879,246.045a11.866,11.866,0,0,1-11.175,3.317c-11.5-2.657-35.211-14.411-31.07-43.016,3.41-23.563,18.39-33.272,27.728-37.087a3.389,3.389,0,0,1,4.549,4.038,14.729,14.729,0,0,0,3.725,14.809c9.325,9.9,29.341,19.592,7.973,55.667a12.164,12.164,0,0,1-1.73,2.272" transform="translate(-493.155 -169.001)" fill="#065958"/>
    </g>
    <g id="g9957" transform="translate(286.971 86.101)">
      <path id="path9959" d="M540.534,173.3a14.737,14.737,0,0,0,3.721,14.81c9.33,9.894,29.343,19.587,7.973,55.664a11.917,11.917,0,0,1-11.618,5.812c19.219-34.228-.145-43.716-9.276-53.408a14.716,14.716,0,0,1-3.721-14.811,3.392,3.392,0,0,0-4.552-4.037c-.032.01-.066.029-.1.039a45.162,45.162,0,0,1,13.021-8.106,3.389,3.389,0,0,1,4.551,4.037" transform="translate(-522.962 -169.002)" fill="#136969"/>
    </g>
    <g id="g9961" transform="translate(266.697 81.003)">
      <path id="Trazado_726344" data-name="Trazado 726344" d="M522.412,249.845a16.667,16.667,0,0,1-3.754-.426c-8.409-1.944-20.061-7.527-27.549-17.366a5.095,5.095,0,0,1,8.109-6.171c5.845,7.68,15.059,12.065,21.735,13.609a6.8,6.8,0,0,0,6.372-1.9,7.078,7.078,0,0,0,1-1.319c16.385-27.663,6.626-36.612-2.812-45.266-1.6-1.462-3.1-2.844-4.485-4.312a19.879,19.879,0,0,1-5.6-16.281c-8.984,4.5-19.014,13.552-21.651,31.758a40.429,40.429,0,0,0-.42,5.288,5.1,5.1,0,0,1-5.093,5.035H488.2a5.094,5.094,0,0,1-5.034-5.154,50.6,50.6,0,0,1,.524-6.628c3.812-26.328,20.961-37.035,30.843-41.074a8.484,8.484,0,0,1,11.381,10.138,9.694,9.694,0,0,0,2.529,9.931c1.128,1.2,2.5,2.456,3.955,3.789,10.072,9.235,25.292,23.192,4.693,57.967a17,17,0,0,1-14.681,8.383Z" transform="translate(-483.168 -158.996)"/>
    </g>
    <g id="g9965" transform="translate(287.143 113.851)">
      <path id="Trazado_726345" data-name="Trazado 726345" d="M560.035,291.5a5.068,5.068,0,0,1-2.853-.877c-28.776-19.5-33.579-47.183-33.881-61.949a5.095,5.095,0,1,1,10.187-.208c.261,12.8,4.429,36.8,29.409,53.722a5.095,5.095,0,0,1-2.862,9.313Z" transform="translate(-523.3 -223.47)"/>
    </g>
  </g>
</svg>
