<svg xmlns="http://www.w3.org/2000/svg" width="319.6" height="332.58" viewBox="0 0 319.6 332.58">
  <g id="Layer_50" data-name="Layer 50" transform="translate(-9.996 -0.006)">
    <path id="Trazado_726236" data-name="Trazado 726236" d="M243.786,365.026l-.065-62.9-28.629.029.02,19.74-64.334.066a12.442,12.442,0,0,0-12.434,12.45v.008l.032,30.709a30.2,30.2,0,0,0,30.229,30.17h0l45-.046a30.207,30.207,0,0,0,30.178-30.231Z" transform="translate(-44.976 -105.871)" fill="#81bbdf"/>
    <path id="Trazado_726237" data-name="Trazado 726237" d="M166.639,396.959A33.789,33.789,0,0,1,132.851,363.2l-.032-30.709a16.053,16.053,0,0,1,16.019-16.052l60.745-.06-.016-16.151a3.588,3.588,0,0,1,3.585-3.593h0l28.629-.029h0a3.589,3.589,0,0,1,3.589,3.585l.065,62.9a33.8,33.8,0,0,1-33.762,33.825l-45,.046Zm50.111-93.148.016,16.15a3.589,3.589,0,0,1-3.585,3.593h0l-64.334.067A8.869,8.869,0,0,0,140,332.487l.032,30.709a26.611,26.611,0,0,0,26.611,26.584h.029l45-.046a26.619,26.619,0,0,0,26.592-26.64l-.06-59.306Z" transform="translate(-43.04 -103.937)"/>
    <path id="Trazado_726238" data-name="Trazado 726238" d="M230.663,437.465a21.241,21.241,0,0,0-21.242-20.384l-5.664.006a21.235,21.235,0,0,0-21.2,20.428Z" transform="translate(-60.469 -146.153)" fill="#efcdb1"/>
    <path id="Trazado_726239" data-name="Trazado 726239" d="M180.62,439.167a3.589,3.589,0,0,1-3.592-3.586c0-.046,0-.092,0-.137a24.742,24.742,0,0,1,24.783-23.883l5.664-.006h.026a24.742,24.742,0,0,1,24.806,23.832,3.589,3.589,0,0,1-3.445,3.728c-.045,0-.09,0-.136,0l-48.106.051Zm26.886-20.434h-.019l-5.663.006a17.586,17.586,0,0,0-17.083,13.246l39.857-.041a17.587,17.587,0,0,0-17.092-13.21Z" transform="translate(-58.532 -144.216)"/>
    <path id="Trazado_726240" data-name="Trazado 726240" d="M217.589,399.34A3.589,3.589,0,0,1,214,395.755l-.026-24.847a3.588,3.588,0,0,1,3.585-3.593h0a3.588,3.588,0,0,1,3.589,3.585l.026,24.847a3.589,3.589,0,0,1-3.586,3.593h0Z" transform="translate(-71.479 -128.714)"/>
    <path id="Trazado_726241" data-name="Trazado 726241" d="M230.69,464.875l-.016-15.579c0-.281-.008-.555-.022-.838l-48.106.051c-.014.281-.02.554-.02.837l.016,15.578A21.239,21.239,0,0,0,203.8,486.145h.009l5.664-.006A21.243,21.243,0,0,0,230.69,464.875Z" transform="translate(-60.459 -157.148)" fill="#8a5d3b"/>
    <path id="Trazado_726242" data-name="Trazado 726242" d="M201.844,487.8a24.825,24.825,0,0,1-24.831-24.805L177,447.415c0-.342.008-.676.024-1.017a3.589,3.589,0,0,1,3.582-3.41l48.107-.053h0a3.59,3.59,0,0,1,3.584,3.4c.017.342.027.676.027,1.017l.016,15.578a24.832,24.832,0,0,1-24.805,24.857l-5.664.006ZM184.179,450.16l.013,12.826a17.65,17.65,0,0,0,17.652,17.635h.019l5.664-.006a17.653,17.653,0,0,0,17.635-17.671l-.014-12.825Z" transform="translate(-58.521 -155.213)"/>
    <path id="Trazado_726243" data-name="Trazado 726243" d="M256.532,337.212l.027,26.369" transform="translate(-86.392 -118.165)" fill="#272d33"/>
    <path id="Trazado_726244" data-name="Trazado 726244" d="M254.623,365.234a3.589,3.589,0,0,1-3.589-3.585l-.027-26.368a3.589,3.589,0,0,1,3.584-3.593h0a3.589,3.589,0,0,1,3.589,3.586l.027,26.368a3.588,3.588,0,0,1-3.584,3.593Z" transform="translate(-84.456 -116.229)"/>
    <path id="Trazado_726245" data-name="Trazado 726245" d="M285.114,289.9l-.016-15.667a7.012,7.012,0,0,0-7.019-7.005h0l-14.6.015a7.017,7.017,0,0,0-7.006,7.02l.017,15.666Z" transform="translate(-86.37 -93.641)" fill="#efcdb1"/>
    <path id="Trazado_726246" data-name="Trazado 726246" d="M254.549,291.582A3.589,3.589,0,0,1,250.96,288l-.017-15.667a10.614,10.614,0,0,1,10.587-10.613l14.6-.015h.01a10.614,10.614,0,0,1,10.606,10.593l.016,15.667a3.589,3.589,0,0,1-3.586,3.593h0l-28.629.029Zm21.6-22.7h0l-14.6.015a3.429,3.429,0,0,0-3.421,3.427l.012,12.078,21.452-.022-.012-12.078a3.427,3.427,0,0,0-3.427-3.42Z" transform="translate(-84.433 -91.705)"/>
    <path id="Trazado_726247" data-name="Trazado 726247" d="M380.129,259.411l-59.2-21.244-9.67,26.947,18.582,6.667-21.729,60.554a12.442,12.442,0,0,0,7.5,15.915l.007,0,28.9,10.372A30.2,30.2,0,0,0,383.153,340.4h0l15.2-42.356A30.207,30.207,0,0,0,380.129,259.411Z" transform="translate(-104.209 -83.457)" fill="#ffa031"/>
    <path id="Trazado_726248" data-name="Trazado 726248" d="M352.761,362.055a33.634,33.634,0,0,1-11.381-1.988l-28.9-10.372a16.054,16.054,0,0,1-9.677-20.509l20.518-57.175-15.2-5.455a3.589,3.589,0,0,1-2.166-4.59l9.67-26.947a3.59,3.59,0,0,1,4.59-2.166l59.2,21.243A33.831,33.831,0,0,1,399.8,297.32l-15.2,42.356a33.85,33.85,0,0,1-31.838,22.379ZM313.917,261.012l15.2,5.454a3.59,3.59,0,0,1,2.166,4.591h0l-21.73,60.554a8.868,8.868,0,0,0,5.345,11.328l28.9,10.372a26.642,26.642,0,0,0,34.037-16.06l15.2-42.355a26.646,26.646,0,0,0-16.056-34.041l-55.821-20.031Z" transform="translate(-102.275 -81.521)"/>
    <path id="Trazado_726249" data-name="Trazado 726249" d="M435.1,328.557a21.241,21.241,0,0,0-26.374,13.081l-1.914,5.331a21.234,21.234,0,0,0,12.039,26.866Z" transform="translate(-138.613 -114.786)" fill="#efcdb1"/>
    <path id="Trazado_726250" data-name="Trazado 726250" d="M416.9,375.476a3.592,3.592,0,0,1-1.341-.26,24.743,24.743,0,0,1-14.077-31.408l1.914-5.33a24.744,24.744,0,0,1,30.834-15.292,3.589,3.589,0,0,1,2.344,4.5c-.014.045-.029.09-.045.135L420.281,373.1a3.589,3.589,0,0,1-3.378,2.377Zm9.81-46.277a17.59,17.59,0,0,0-16.56,11.7l-1.914,5.331a17.586,17.586,0,0,0,6.676,20.56l13.459-37.514q-.828-.079-1.657-.079Z" transform="translate(-136.665 -112.838)"/>
    <path id="Trazado_726251" data-name="Trazado 726251" d="M388.76,348.439a3.6,3.6,0,0,1-1.212-.212l-23.389-8.393a3.589,3.589,0,0,1,2.425-6.756l23.389,8.393a3.589,3.589,0,0,1-1.213,6.968Z" transform="translate(-123.274 -116.642)"/>
    <path id="Trazado_726252" data-name="Trazado 726252" d="M457.725,334.608l-14.663-5.264c-.265-.095-.525-.179-.794-.262L426.02,374.36c.259.108.516.208.778.3l14.663,5.264a21.238,21.238,0,0,0,27.166-12.812l0-.008,1.914-5.331a21.243,21.243,0,0,0-12.818-27.165Z" transform="translate(-145.785 -115.316)" fill="#8a5d3b"/>
    <path id="Trazado_726253" data-name="Trazado 726253" d="M446.721,382.846a24.864,24.864,0,0,1-8.407-1.474l-14.662-5.264c-.323-.116-.633-.236-.947-.367a3.588,3.588,0,0,1-2-4.526l16.247-45.276a3.589,3.589,0,0,1,4.421-2.222c.327.1.644.2.966.319L457,329.3a24.862,24.862,0,0,1,14.985,31.76l-1.914,5.33a24.874,24.874,0,0,1-23.353,16.458Zm-18.054-12.562,12.072,4.332a17.646,17.646,0,0,0,22.573-10.64l0-.013,1.914-5.33a17.674,17.674,0,0,0-10.653-22.579l-12.072-4.331Z" transform="translate(-143.848 -113.382)"/>
    <path id="Trazado_726254" data-name="Trazado 726254" d="M346.334,291.483l24.819,8.906" transform="translate(-117.861 -102.14)" fill="#272d33"/>
    <path id="Trazado_726255" data-name="Trazado 726255" d="M369.24,302.051a3.582,3.582,0,0,1-1.211-.212l-24.819-8.906a3.589,3.589,0,0,1,2.424-6.756l24.82,8.906a3.589,3.589,0,0,1-1.213,6.968Z" transform="translate(-115.949 -100.213)"/>
    <path id="Trazado_726256" data-name="Trazado 726256" d="M312.559,235.088,297.813,229.8a7.012,7.012,0,0,0-8.971,4.226l0,.006-4.933,13.746a7.017,7.017,0,0,0,4.232,8.969l14.747,5.292Z" transform="translate(-95.84 -80.379)" fill="#efcdb1"/>
    <path id="Trazado_726257" data-name="Trazado 726257" d="M300.957,263.689a3.585,3.585,0,0,1-1.212-.211L285,258.186a10.606,10.606,0,0,1-6.4-13.559l4.932-13.746a10.612,10.612,0,0,1,13.559-6.4l14.747,5.292a3.589,3.589,0,0,1,2.166,4.59l-9.67,26.947a3.59,3.59,0,0,1-3.378,2.377Zm-7.441-32.65a3.429,3.429,0,0,0-3.226,2.268l-4.933,13.745a3.428,3.428,0,0,0,2.066,4.379l11.365,4.079,7.245-20.191-11.366-4.079A3.4,3.4,0,0,0,293.516,231.039Z" transform="translate(-93.906 -78.443)"/>
    <path id="Trazado_726258" data-name="Trazado 726258" d="M319.3,116.1l-37.189,50.725,23.09,16.928,11.672-15.92,51.883,38.04a12.442,12.442,0,0,0,17.392-2.671l0-.007,18.158-24.764a30.2,30.2,0,0,0-6.5-42.213l-36.291-26.607A30.208,30.208,0,0,0,319.3,116.1Z" transform="translate(-95.356 -36.359)" fill="#fdc00f"/>
    <path id="Trazado_726259" data-name="Trazado 726259" d="M374.143,209.946a15.909,15.909,0,0,1-9.451-3.108L315.7,170.921l-9.549,13.026a3.589,3.589,0,0,1-5.017.772h0L278.046,167.79a3.589,3.589,0,0,1-.772-5.017h0l37.189-50.725a33.833,33.833,0,0,1,47.237-7.266l36.3,26.611a33.79,33.79,0,0,1,7.271,47.23l-18.158,24.764a15.935,15.935,0,0,1-10.489,6.367,16.281,16.281,0,0,1-2.476.191Zm-59.207-47.631a3.57,3.57,0,0,1,2.12.7l51.883,38.039a8.853,8.853,0,0,0,12.376-1.9l.006-.009,18.158-24.764a26.612,26.612,0,0,0-5.725-37.2h0l-36.291-26.607a26.646,26.646,0,0,0-37.2,5.722l-35.067,47.827,17.3,12.682,9.55-13.026a3.583,3.583,0,0,1,2.9-1.465Z" transform="translate(-93.417 -34.428)"/>
    <path id="Trazado_726260" data-name="Trazado 726260" d="M402.218,108.952a21.242,21.242,0,0,0,5.045,29l4.568,3.35a21.236,21.236,0,0,0,29.18-3.909Z" transform="translate(-136.171 -38.177)" fill="#efcdb1"/>
    <path id="Trazado_726261" data-name="Trazado 726261" d="M422.454,147.1a24.785,24.785,0,0,1-14.7-4.835l-4.567-3.35a24.742,24.742,0,0,1-5.9-33.908,3.59,3.59,0,0,1,4.984-.965c.038.026.075.052.112.079l38.8,28.444a3.589,3.589,0,0,1,.772,5.017c-.027.037-.055.073-.084.11a24.726,24.726,0,0,1-19.416,9.408Zm-20.986-34.75a17.586,17.586,0,0,0,5.966,20.777l4.568,3.35a17.587,17.587,0,0,0,21.609-.559Z" transform="translate(-134.217 -36.241)"/>
    <path id="Trazado_726262" data-name="Trazado 726262" d="M387.37,182.711A3.589,3.589,0,0,1,384.478,177l14.692-20.039a3.59,3.59,0,1,1,5.788,4.247h0l-14.691,20.039a3.586,3.586,0,0,1-2.9,1.465Z" transform="translate(-130.984 -54.487)"/>
    <path id="Trazado_726263" data-name="Trazado 726263" d="M413.864,83.87l-9.212,12.562c-.166.227-.323.452-.479.687l38.8,28.444c.179-.218.345-.435.511-.661l9.212-12.562a21.235,21.235,0,0,0-4.56-29.683l-.011-.008-4.568-3.35a21.243,21.243,0,0,0-29.69,4.571Z" transform="translate(-138.129 -26.345)" fill="#8a5d3b"/>
    <path id="Trazado_726264" data-name="Trazado 726264" d="M441.034,127.224a3.577,3.577,0,0,1-2.12-.694l-38.8-28.444a3.589,3.589,0,0,1-.874-4.87c.188-.285.377-.559.58-.833l9.212-12.562a24.861,24.861,0,0,1,34.708-5.343l4.568,3.349a24.828,24.828,0,0,1,5.347,34.7l0,.006L444.443,125.1c-.2.275-.406.538-.622.805a3.583,3.583,0,0,1-2.787,1.323ZM407.24,94.4l33.041,24.226,7.584-10.343a17.674,17.674,0,0,0-3.8-24.675l-4.567-3.35a17.674,17.674,0,0,0-24.675,3.8Z" transform="translate(-136.194 -24.416)"/>
    <path id="Trazado_726265" data-name="Trazado 726265" d="M338.371,187.179l15.591-21.266" transform="translate(-115.07 -58.138)" fill="#272d33"/>
    <path id="Trazado_726266" data-name="Trazado 726266" d="M336.432,188.832a3.589,3.589,0,0,1-2.891-5.711l15.591-21.266a3.59,3.59,0,1,1,5.788,4.247l-15.591,21.263A3.583,3.583,0,0,1,336.432,188.832Z" transform="translate(-113.134 -56.202)"/>
    <path id="Trazado_726267" data-name="Trazado 726267" d="M276.382,200.848l-9.264,12.635a7.012,7.012,0,0,0,1.508,9.8h0L280.4,231.92a7.017,7.017,0,0,0,9.8-1.509l9.264-12.635Z" transform="translate(-89.626 -70.38)" fill="#efcdb1"/>
    <path id="Trazado_726268" data-name="Trazado 726268" d="M282.591,234.931a10.519,10.519,0,0,1-6.244-2.053l-11.777-8.634a10.6,10.6,0,0,1-2.282-14.818v0l9.262-12.634a3.589,3.589,0,0,1,5.017-.772h0l23.089,16.928a3.589,3.589,0,0,1,.772,5.017h0L291.167,230.6a10.536,10.536,0,0,1-6.939,4.208A10.782,10.782,0,0,1,282.591,234.931Zm-7.373-31-7.141,9.741a3.422,3.422,0,0,0,.733,4.783l0,0,11.778,8.635a3.427,3.427,0,0,0,4.785-.737l7.141-9.74Z" transform="translate(-87.69 -68.443)"/>
    <path id="Trazado_726269" data-name="Trazado 726269" d="M118.027,261.85,176.388,238.4l-10.673-26.565L147.4,219.195l-23.986-59.7a12.442,12.442,0,0,0-16.182-6.911l-.008,0L78.727,164.037A30.2,30.2,0,0,0,61.963,203.32h0l16.776,41.756a30.209,30.209,0,0,0,39.288,16.775Z" transform="translate(-17.445 -53.152)" fill="#4db1f0"/>
    <path id="Trazado_726270" data-name="Trazado 726270" d="M104.837,265.7a33.872,33.872,0,0,1-31.356-21.217L56.7,202.73a33.829,33.829,0,0,1,18.757-43.952l28.494-11.448a16.055,16.055,0,0,1,20.858,8.9L147.46,212.6l14.987-6.022a3.589,3.589,0,0,1,4.666,1.992l10.674,26.565a3.589,3.589,0,0,1-1.993,4.666l-58.361,23.448a33.767,33.767,0,0,1-12.6,2.456Zm5.085-112.351a8.812,8.812,0,0,0-3.29.639L78.137,165.439a26.643,26.643,0,0,0-14.772,34.615l16.777,41.755a26.618,26.618,0,0,0,34.617,14.779l55.031-22.11-8-19.9-14.986,6.021a3.589,3.589,0,0,1-4.666-1.992l-23.986-59.7a8.873,8.873,0,0,0-8.231-5.553Z" transform="translate(-15.515 -51.221)"/>
    <path id="Trazado_726271" data-name="Trazado 726271" d="M77.439,274.044a21.242,21.242,0,0,0,11.023-27.3L86.35,241.49A21.235,21.235,0,0,0,59.5,229.406Z" transform="translate(-17.349 -79.952)" fill="#efcdb1"/>
    <path id="Trazado_726272" data-name="Trazado 726272" d="M75.5,275.684a3.589,3.589,0,0,1-3.33-2.251L54.237,228.8a3.589,3.589,0,0,1,1.992-4.668c.043-.018.086-.034.129-.049A24.745,24.745,0,0,1,87.744,238.2l2.112,5.255a24.743,24.743,0,0,1-12.891,31.914,3.589,3.589,0,0,1-1.462.312ZM62.435,229.947l14.86,36.982a17.586,17.586,0,0,0,5.9-20.795l-2.112-5.255a17.586,17.586,0,0,0-18.648-10.932Z" transform="translate(-15.412 -78.004)"/>
    <path id="Trazado_726273" data-name="Trazado 726273" d="M106.081,247.137a3.589,3.589,0,0,1-1.339-6.921l23.055-9.263a3.589,3.589,0,0,1,2.676,6.661l-23.055,9.263A3.585,3.585,0,0,1,106.081,247.137Z" transform="translate(-32.412 -80.839)"/>
    <path id="Trazado_726274" data-name="Trazado 726274" d="M46.8,280.852l14.455-5.808c.261-.105.513-.214.768-.331L44.092,230.075c-.266.092-.522.188-.784.293l-14.453,5.807a21.239,21.239,0,0,0-11.8,27.623l0,.008,2.112,5.256A21.243,21.243,0,0,0,46.8,280.852Z" transform="translate(-1.937 -80.622)" fill="#8a5d3b"/>
    <path id="Trazado_726275" data-name="Trazado 726275" d="M36.944,284.05a24.889,24.889,0,0,1-23.037-15.587l-2.112-5.256a24.824,24.824,0,0,1,13.771-32.293l.013-.005L40.034,225.1c.316-.127.628-.244.952-.355a3.59,3.59,0,0,1,4.5,2.055L63.42,271.439a3.589,3.589,0,0,1-1.829,4.6c-.31.142-.615.274-.931.4L46.2,282.245a24.811,24.811,0,0,1-9.261,1.805Zm3.212-51.264-11.9,4.782a17.649,17.649,0,0,0-9.8,22.956l0,.007,2.112,5.255a17.653,17.653,0,0,0,22.961,9.8h0l11.9-4.782Z" transform="translate(0 -78.685)"/>
    <path id="Trazado_726276" data-name="Trazado 726276" d="M177.155,257.349l-24.468,9.831" transform="translate(-50.002 -90.179)" fill="#272d33"/>
    <path id="Trazado_726277" data-name="Trazado 726277" d="M150.751,268.833a3.589,3.589,0,0,1-1.339-6.92l24.465-9.831a3.589,3.589,0,0,1,2.676,6.661h0l-24.465,9.83a3.572,3.572,0,0,1-1.337.26Z" transform="translate(-48.065 -88.242)"/>
    <path id="Trazado_726278" data-name="Trazado 726278" d="M233.538,267.426l14.536-5.841a7.012,7.012,0,0,0,3.893-9.12h0l-5.443-13.551a7.016,7.016,0,0,0-9.121-3.892l-14.536,5.841Z" transform="translate(-74.594 -82.177)" fill="#efcdb1"/>
    <path id="Trazado_726279" data-name="Trazado 726279" d="M231.6,269.082a3.589,3.589,0,0,1-3.331-2.252l-10.676-26.566a3.589,3.589,0,0,1,1.992-4.665l14.536-5.841a10.616,10.616,0,0,1,13.791,5.885l5.443,13.551a10.614,10.614,0,0,1-5.885,13.79l-14.536,5.841a3.583,3.583,0,0,1-1.334.257Zm-6.007-28.163,8,19.9,11.208-4.5a3.427,3.427,0,0,0,1.9-4.453l-5.443-13.551a3.428,3.428,0,0,0-4.452-1.9Z" transform="translate(-72.657 -80.243)"/>
    <path id="Trazado_726280" data-name="Trazado 726280" d="M162.623,109.045,197.475,161.4l23.832-15.865L210.368,129.1l53.553-35.651A12.442,12.442,0,0,0,267.39,76.2l0-.007L250.369,50.635a30.2,30.2,0,0,0-41.876-8.406h0L171.034,67.166a30.208,30.208,0,0,0-8.411,41.88Z" transform="translate(-51.71 -13.022)" fill="#115089"/>
    <path id="Trazado_726281" data-name="Trazado 726281" d="M195.539,163.063a3.59,3.59,0,0,1-2.991-1.6L157.7,109.107a33.8,33.8,0,0,1,9.41-46.856l37.459-24.937a33.828,33.828,0,0,1,46.85,9.4l17.017,25.563a16.031,16.031,0,0,1-4.455,22.229l-.007,0-50.566,33.66,8.95,13.445a3.59,3.59,0,0,1-1,4.976l-23.832,15.865a3.6,3.6,0,0,1-1.988.6ZM223.252,38.839a26.451,26.451,0,0,0-14.706,4.452L171.084,68.226a26.619,26.619,0,0,0-7.41,36.9L196.537,154.5l17.854-11.887-8.95-13.445a3.59,3.59,0,0,1,1-4.976l53.553-35.651a8.854,8.854,0,0,0,2.47-12.274l-.005-.007L245.444,50.695A26.608,26.608,0,0,0,223.252,38.839Z" transform="translate(-49.774 -11.094)"/>
    <path id="Trazado_726282" data-name="Trazado 726282" d="M174.66,67.83a21.241,21.241,0,0,0,28.973,5.228l4.714-3.138a21.236,21.236,0,0,0,6.358-28.746Z" transform="translate(-57.702 -14.426)" fill="#efcdb1"/>
    <path id="Trazado_726283" data-name="Trazado 726283" d="M189.906,78.3A24.73,24.73,0,0,1,169.814,68a3.589,3.589,0,0,1,.808-5.011c.037-.027.075-.053.113-.079L210.78,36.249a3.589,3.589,0,0,1,4.976,1c.025.038.05.077.074.116A24.744,24.744,0,0,1,208.4,70.971l-4.715,3.138A24.79,24.79,0,0,1,189.906,78.3Zm-11.76-11.7a17.586,17.586,0,0,0,21.562,1.538L204.422,65a17.586,17.586,0,0,0,6.9-20.485Z" transform="translate(-55.766 -12.49)"/>
    <path id="Trazado_726284" data-name="Trazado 726284" d="M238.054,115.164a3.589,3.589,0,0,1-2.991-1.6L221.294,92.88A3.589,3.589,0,1,1,227.27,88.9l13.768,20.683a3.589,3.589,0,0,1-2.984,5.579Z" transform="translate(-73.833 -30.591)"/>
    <path id="Trazado_726285" data-name="Trazado 726285" d="M158.709,41.689l8.632,12.968c.156.234.314.458.479.684l40.048-26.657c-.144-.24-.29-.474-.446-.708l-8.632-12.968a21.238,21.238,0,0,0-29.448-5.916l-.007,0-4.714,3.139A21.242,21.242,0,0,0,158.709,41.689Z" transform="translate(-50.864 -1.937)" fill="#8a5d3b"/>
    <path id="Trazado_726286" data-name="Trazado 726286" d="M165.889,56.993A3.585,3.585,0,0,1,163,55.539c-.2-.274-.394-.546-.583-.829l-8.633-12.97A24.833,24.833,0,0,1,160.7,7.31l4.715-3.139a24.824,24.824,0,0,1,34.422,6.9l.008.011,8.632,12.966c.189.284.366.566.539.859a3.589,3.589,0,0,1-1.094,4.826L167.874,56.392a3.572,3.572,0,0,1-1.986.6ZM179.136,7.18a17.538,17.538,0,0,0-9.751,2.965l-4.71,3.141a17.653,17.653,0,0,0-4.912,24.477l7.106,10.676,34.105-22.7L193.866,15.06a17.538,17.538,0,0,0-11.222-7.527A17.868,17.868,0,0,0,179.136,7.18Z" transform="translate(-48.928 0)"/>
    <path id="Trazado_726287" data-name="Trazado 726287" d="M228.4,162.993l-14.612-21.95" transform="translate(-71.412 -49.423)" fill="#272d33"/>
    <path id="Trazado_726288" data-name="Trazado 726288" d="M226.463,164.647a3.587,3.587,0,0,1-2.991-1.6L208.86,141.1a3.589,3.589,0,0,1,5.975-3.977l14.612,21.951a3.589,3.589,0,0,1-2.984,5.578Z" transform="translate(-69.476 -47.487)"/>
    <path id="Trazado_726289" data-name="Trazado 726289" d="M219.007,219.864l8.682,13.04a7.012,7.012,0,0,0,9.722,1.952h0l12.156-8.092a7.017,7.017,0,0,0,1.952-9.724L242.839,204Z" transform="translate(-73.242 -71.484)" fill="#efcdb1"/>
    <path id="Trazado_726290" data-name="Trazado 726290" d="M231.606,237.682a10.6,10.6,0,0,1-8.842-4.726l-8.682-13.04a3.589,3.589,0,0,1,1-4.976h0l23.833-15.864a3.589,3.589,0,0,1,4.976,1l8.682,13.04a10.605,10.605,0,0,1-2.951,14.7l-12.157,8.093A10.538,10.538,0,0,1,231.606,237.682Zm-9.56-18.755,6.694,10.054a3.429,3.429,0,0,0,4.748.953l12.156-8.092a3.427,3.427,0,0,0,.952-4.747L239.9,207.04Z" transform="translate(-71.306 -69.548)"/>
  </g>
</svg>
