<svg id="Group_21_" data-name="Group (21)" xmlns="http://www.w3.org/2000/svg" width="140.256" height="140.256" viewBox="0 0 140.256 140.256">
  <path id="Trazado_718969" data-name="Trazado 718969" d="M70.128,140.256A70.128,70.128,0,1,0,0,70.128,70.128,70.128,0,0,0,70.128,140.256Z" fill="#95c5c5"/>
  <path id="Trazado_718970" data-name="Trazado 718970" d="M244.775,0c-1.422,0-2.833.047-4.235.131,36.758,2.19,64.093,32.689,64.093,70s-27.335,67.807-64.093,70c1.4.084,2.813.131,4.235.131A70.128,70.128,0,0,0,244.775,0Z" transform="translate(-174.647)" fill="#95c5c5"/>
  <path id="Trazado_718971" data-name="Trazado 718971" d="M97.347,157.206A59.858,59.858,0,1,0,37.489,97.347,59.858,59.858,0,0,0,97.347,157.206Z" transform="translate(-27.22 -27.22)" fill="#065958"/>
  <path id="Trazado_718972" data-name="Trazado 718972" d="M244.776,37.489c-1.424,0-2.836.053-4.235.151a59.857,59.857,0,0,1,0,119.414c1.4.1,2.811.151,4.235.151a59.858,59.858,0,1,0,0-119.716Z" transform="translate(-174.648 -27.22)" fill="#006f6e"/>
  <path id="Trazado_718973" data-name="Trazado 718973" d="M191.776,167.339l-38.208,38.21a10.371,10.371,0,0,1-14.666,0l-19.54-19.54a5.744,5.744,0,0,1,0-8.128l5.695-5.695v0l1.93-1.93a5.749,5.749,0,0,1,8.128,0l9.778,9.778a2.689,2.689,0,0,0,3.807,0l27.885-27.885a5.748,5.748,0,0,1,8.127,0l7.063,7.064A5.743,5.743,0,0,1,191.776,167.339Z" transform="translate(-85.442 -109.247)" fill="#95c5c5"/>
  <path id="Trazado_718974" data-name="Trazado 718974" d="M168.26,228.023l-3.237,3.237a3.289,3.289,0,0,1-4.634.02l-9.9-9.717a5.736,5.736,0,0,0-5.875-1.386v0l1.93-1.93a5.749,5.749,0,0,1,8.127,0l9.778,9.778A2.689,2.689,0,0,0,168.26,228.023Z" transform="translate(-105.001 -157.238)" fill="#95c5c5"/>
  <path id="Trazado_718975" data-name="Trazado 718975" d="M248.469,159.212l-7.064-7.064a5.747,5.747,0,0,0-8.127,0l-1.827,1.826a5.734,5.734,0,0,1,4.6,1.658l3.948,3.58a5.746,5.746,0,0,1,0,8.127l-35.041,35.5a10.357,10.357,0,0,1-9.2,2.866,10.368,10.368,0,0,0,14.5-.157l38.21-38.21A5.747,5.747,0,0,0,248.469,159.212Z" transform="translate(-142.133 -109.247)" fill="#95c5c5"/>
</svg>
