<svg id="Group_18_" data-name="Group (18)" xmlns="http://www.w3.org/2000/svg" width="141.4" height="141.4" viewBox="0 0 141.4 141.4">
  <path id="Trazado_718819" data-name="Trazado 718819" d="M393.107,58.167h-35.5a4.143,4.143,0,0,1-4.143-4.143V36.275a4.143,4.143,0,0,1,4.143-4.143h35.5a4.143,4.143,0,0,1,4.143,4.143V54.024A4.143,4.143,0,0,1,393.107,58.167Z" transform="translate(-255.849 -23.259)" fill="#ffa031"/>
  <path id="Trazado_718820" data-name="Trazado 718820" d="M346.589,49.882H319.376a4.143,4.143,0,0,1-4.143-4.143V36.275a4.143,4.143,0,0,0-4.143-4.143H293.343a4.143,4.143,0,0,0-4.143,4.143V138.33a4.143,4.143,0,0,0,4.143,4.143h53.246a4.143,4.143,0,0,0,4.143-4.143V54.024A4.143,4.143,0,0,0,346.589,49.882Z" transform="translate(-209.331 -23.259)" fill="#ffb359"/>
  <path id="Trazado_718821" data-name="Trazado 718821" d="M200.307,26.034h-35.5a4.143,4.143,0,0,1-4.143-4.143V4.143A4.143,4.143,0,0,1,164.81,0h35.5a4.143,4.143,0,0,1,4.143,4.143V21.891A4.143,4.143,0,0,1,200.307,26.034Z" transform="translate(-116.295)" fill="#d0d6eb"/>
  <path id="Trazado_718822" data-name="Trazado 718822" d="M84.011,141.4H4.143A4.143,4.143,0,0,1,0,137.257V4.143A4.143,4.143,0,0,1,4.143,0H48.514a4.143,4.143,0,0,1,4.143,4.143v9.464A4.143,4.143,0,0,0,56.8,17.749H84.011a4.143,4.143,0,0,1,4.143,4.143V137.257A4.143,4.143,0,0,1,84.011,141.4Z" fill="#eaedff"/>
  <path id="Trazado_718823" data-name="Trazado 718823" d="M202.9,137.257V21.891a4.143,4.143,0,0,0-4.143-4.143H171.55a4.143,4.143,0,0,1-4.143-4.143V4.143A4.143,4.143,0,0,0,163.265,0h-4.732V141.4h40.229A4.143,4.143,0,0,0,202.9,137.257Z" transform="translate(-114.751)" fill="#e3e7f4"/>
  <path id="Trazado_718824" data-name="Trazado 718824" d="M328.84,224.933h-35.5a4.143,4.143,0,1,0,0,8.285h35.5a4.143,4.143,0,1,0,0-8.285Z" transform="translate(-209.331 -162.813)" fill="#1c466d"/>
  <path id="Trazado_718825" data-name="Trazado 718825" d="M328.84,289.2h-35.5a4.143,4.143,0,0,0,0,8.285h35.5a4.143,4.143,0,0,0,0-8.285Z" transform="translate(-209.331 -209.331)" fill="#1c466d"/>
  <path id="Trazado_718826" data-name="Trazado 718826" d="M293.343,168.952h35.5a4.143,4.143,0,0,0,0-8.285h-35.5a4.143,4.143,0,0,0,0,8.285Z" transform="translate(-209.331 -116.295)" fill="#1c466d"/>
  <path id="Trazado_718827" data-name="Trazado 718827" d="M117.218,128.533H68.41a4.143,4.143,0,0,0-4.143,4.143V159.3a4.143,4.143,0,0,0,4.143,4.143h48.809a4.143,4.143,0,0,0,4.143-4.143V132.676A4.143,4.143,0,0,0,117.218,128.533Z" transform="translate(-46.518 -93.036)" fill="#ffb359"/>
  <path id="Trazado_718828" data-name="Trazado 718828" d="M117.218,297.485H68.41a4.143,4.143,0,0,1,0-8.285h48.809a4.143,4.143,0,0,1,0,8.285Z" transform="translate(-46.518 -209.331)" fill="#1c466d"/>
  <path id="Trazado_718829" data-name="Trazado 718829" d="M112.781,426.018H68.41a4.143,4.143,0,0,1,0-8.285h44.372a4.143,4.143,0,0,1,0,8.285Z" transform="translate(-46.518 -302.367)" fill="#1c466d"/>
  <path id="Trazado_718830" data-name="Trazado 718830" d="M117.218,361.752H68.41a4.143,4.143,0,0,1,0-8.285h48.809a4.143,4.143,0,0,1,0,8.285Z" transform="translate(-46.518 -255.849)" fill="#1c466d"/>
  <path id="Trazado_718831" data-name="Trazado 718831" d="M185.157,421.876a4.143,4.143,0,0,0-4.143-4.143h-22.48v8.285h22.48A4.143,4.143,0,0,0,185.157,421.876Z" transform="translate(-114.751 -302.367)" fill="#1c466d"/>
  <path id="Trazado_718832" data-name="Trazado 718832" d="M189.593,357.61a4.143,4.143,0,0,0-4.143-4.143H158.533v8.285h26.918A4.143,4.143,0,0,0,189.593,357.61Z" transform="translate(-114.751 -255.849)" fill="#1c466d"/>
  <path id="Trazado_718833" data-name="Trazado 718833" d="M185.451,128.533H158.533v34.908h26.918a4.143,4.143,0,0,0,4.143-4.143V132.676A4.143,4.143,0,0,0,185.451,128.533Z" transform="translate(-114.751 -93.036)" fill="#ffa031"/>
  <path id="Trazado_718834" data-name="Trazado 718834" d="M333.42,339.278l-11.7-11.7a4.143,4.143,0,0,1,5.858-5.858l11.7,11.7a4.143,4.143,0,1,1-5.858,5.858Z" transform="translate(-231.991 -231.991)" fill="#265e91"/>
  <path id="Trazado_718835" data-name="Trazado 718835" d="M396.048,377.639,375.7,357.29A13.017,13.017,0,0,0,357.291,375.7l20.349,20.349a4.142,4.142,0,0,0,5.858,0l12.55-12.55A4.142,4.142,0,0,0,396.048,377.639Z" transform="translate(-255.862 -255.862)" fill="#4db1f0"/>
  <path id="Trazado_718836" data-name="Trazado 718836" d="M406.025,377.639,385.676,357.29a13.032,13.032,0,0,0-18.409,0l32.482,32.483,6.275-6.275A4.142,4.142,0,0,0,406.025,377.639Z" transform="translate(-265.838 -255.862)" fill="#3088e6"/>
  <path id="Trazado_718837" data-name="Trazado 718837" d="M163.736,198.939a35.2,35.2,0,1,0-35.2-35.2A35.2,35.2,0,0,0,163.736,198.939Z" transform="translate(-93.036 -93.036)" fill="#4db1f0"/>
  <path id="Trazado_718838" data-name="Trazado 718838" d="M190.79,128.533a35.093,35.093,0,0,0-24.88,10.322l49.761,49.761a35.186,35.186,0,0,0-24.88-60.083Z" transform="translate(-120.09 -93.036)" fill="#4db1f0"/>
  <path id="Trazado_718839" data-name="Trazado 718839" d="M185.451,212.368a26.918,26.918,0,1,0-26.918-26.918A26.917,26.917,0,0,0,185.451,212.368Z" transform="translate(-114.751 -114.751)" fill="#f6f7fd"/>
  <path id="Trazado_718840" data-name="Trazado 718840" d="M206.138,158.533a26.835,26.835,0,0,0-19.025,7.893l38.049,38.049a26.9,26.9,0,0,0-19.025-45.942Z" transform="translate(-135.438 -114.751)" fill="#e3e7f4"/>
</svg>
