<svg id="Group_16" data-name="Group 16" xmlns="http://www.w3.org/2000/svg" width="126.388" height="127.109" viewBox="0 0 126.388 127.109">
  <path id="Trazado_718981" data-name="Trazado 718981" d="M54.052,69.887V15.773a3.84,3.84,0,0,0-1.165-2.811l-11.8-11.8A3.84,3.84,0,0,0,38.279,0H.389V69.887Z" transform="translate(-0.389 -0.001)" fill="#ceecff" fill-rule="evenodd"/>
  <path id="Trazado_718982" data-name="Trazado 718982" d="M.389,0H2.222V69.886H.389Z" transform="translate(-0.389)" fill="#4db1f0"/>
  <path id="Trazado_718983" data-name="Trazado 718983" d="M146.385,1.164A3.84,3.84,0,0,0,143.573,0h-1.009a3.992,3.992,0,0,1,2.471,3.679v8.086a2.549,2.549,0,0,0,2.544,2.545h8.086a3.992,3.992,0,0,1,3.679,2.471V15.772a3.841,3.841,0,0,0-1.164-2.811Z" transform="translate(-105.683)" fill="#4db1f0" fill-rule="evenodd"/>
  <path id="Trazado_718984" data-name="Trazado 718984" d="M151.014,1.287a3.821,3.821,0,0,0-2.2-1.122,3.972,3.972,0,0,1,1.435,3.052V11.3a2.549,2.549,0,0,0,2.545,2.545h8.086a3.974,3.974,0,0,1,3.052,1.435,3.823,3.823,0,0,0-1.122-2.2Z" transform="translate(-110.312 -0.122)" fill="#4db1f0" fill-rule="evenodd"/>
  <path id="Trazado_718985" data-name="Trazado 718985" d="M340.678,436.61c0,2.274-11.521,4.117-25.733,4.117s-25.733-1.843-25.733-4.117V423.469h51.465Z" transform="translate(-214.29 -313.619)" fill="#1c466d" fill-rule="evenodd"/>
  <path id="Trazado_718986" data-name="Trazado 718986" d="M340.678,385.951c0,2.274-11.521,4.117-25.733,4.117s-25.733-1.843-25.733-4.117V372.81h51.465Z" transform="translate(-214.29 -276.101)" fill="#265e91" fill-rule="evenodd"/>
  <path id="Trazado_718987" data-name="Trazado 718987" d="M340.678,335.292c0,2.274-11.521,4.117-25.733,4.117s-25.733-1.843-25.733-4.117V322.151h51.465Z" transform="translate(-214.29 -238.583)" fill="#115089" fill-rule="evenodd"/>
  <path id="Trazado_718988" data-name="Trazado 718988" d="M295.373,337.966c-3.84-.719-6.16-1.652-6.16-2.672V322.152h6.16v15.814Z" transform="translate(-214.29 -238.584)" fill="#4ca2d9" fill-rule="evenodd"/>
  <path id="Trazado_718989" data-name="Trazado 718989" d="M340.678,284.633c0,2.274-11.521,4.117-25.733,4.117s-25.733-1.843-25.733-4.117V271.492h51.465Z" transform="translate(-214.29 -201.065)" fill="#4db1f0" fill-rule="evenodd"/>
  <path id="Trazado_718990" data-name="Trazado 718990" d="M295.373,287.306c-3.84-.719-6.16-1.652-6.16-2.673V271.492h6.16Z" transform="translate(-214.29 -201.065)" fill="#9999db" fill-rule="evenodd"/>
  <path id="Trazado_718991" data-name="Trazado 718991" d="M314.946,263.855c14.212,0,25.733-1.843,25.733-4.117s-11.521-4.117-25.733-4.117-25.733,1.843-25.733,4.117S300.734,263.855,314.946,263.855Z" transform="translate(-214.29 -189.311)" fill="#72c8ff"/>
  <path id="Trazado_718992" data-name="Trazado 718992" d="M295.373,262.535c-3.84-.719-6.16-1.653-6.16-2.673,0-2.07,9.544-3.782,21.974-4.073Q295.623,256.628,295.373,262.535Z" transform="translate(-214.29 -189.436)" fill="#acace8" fill-rule="evenodd"/>
  <path id="Trazado_718993" data-name="Trazado 718993" d="M49.269,49.165a1.556,1.556,0,0,1,0,3.113H31.23a1.556,1.556,0,0,1,0-3.113ZM34.711,82.478a1.556,1.556,0,1,1,0,3.113h-3.48a1.556,1.556,0,1,1,0-3.113Zm4.8-8.328a1.556,1.556,0,0,1,0,3.113H31.231a1.556,1.556,0,1,1,0-3.113Zm21.465-8.328a1.556,1.556,0,0,1,0,3.113H31.23a1.556,1.556,0,0,1,0-3.113H60.971Zm5.616-8.328a1.556,1.556,0,0,1,0,3.113H31.23a1.556,1.556,0,1,1,0-3.113H66.587Z" transform="translate(-22.077 -36.411)" fill="#115089" fill-rule="evenodd"/>
  <path id="Trazado_718994" data-name="Trazado 718994" d="M109.945,124.986,115.885,121l9.5,9.5-3.984,5.941,4.032,9.73,7.017,1.384v13.429l-7.017,1.383L121.4,172.1l3.984,5.941-9.5,9.5-5.941-3.984-9.73,4.031L98.831,194.6H85.4l-1.384-7.017-9.73-4.031-5.941,3.984-9.5-9.5,3.984-5.941-4.031-9.73-7.017-1.383V147.553l7.017-1.384,4.032-9.73L58.85,130.5l9.5-9.5,5.941,3.984,9.73-4.031,1.384-7.017h13.43l1.383,7.017Z" transform="translate(-38.453 -84.382)" fill="#ffa031" fill-rule="evenodd"/>
  <path id="Trazado_718995" data-name="Trazado 718995" d="M123.459,125.982l5.1-3.418,7.934,7.934-3.984,5.941,4.032,9.73,7.017,1.384v13.429l-7.017,1.383-4.032,9.731,3.984,5.941-7.934,7.934-5.1-3.418-2.405,1-9.73,4.031L109.94,194.6H100.4l-1.384-7.017-12.135-5.028-5.1,3.418-7.934-7.934,3.984-5.941-4.031-9.73-7.017-1.383V147.553l7.017-1.384,4.031-9.73L73.85,130.5l7.934-7.934,5.1,3.419,12.135-5.028,1.384-7.017h9.539l1.383,7.017Z" transform="translate(-49.562 -84.382)" fill="#ffa031" fill-rule="evenodd"/>
  <path id="Trazado_718996" data-name="Trazado 718996" d="M150.846,230.292A20.941,20.941,0,1,0,126.807,213,20.941,20.941,0,0,0,150.846,230.292Z" transform="translate(-93.809 -139.735)" fill="#72c8ff"/>
  <path id="Trazado_718997" data-name="Trazado 718997" d="M160.527,189.035a20.94,20.94,0,0,1,0,41.7,20.94,20.94,0,0,1,0-41.7Z" transform="translate(-104.919 -139.998)" fill="#ceecff" fill-rule="evenodd"/>
</svg>
