<svg id="Group_22_" data-name="Group (22)" xmlns="http://www.w3.org/2000/svg" width="130.374" height="128.803" viewBox="0 0 130.374 128.803">
  <path id="Trazado_718976" data-name="Trazado 718976" d="M73.424,3.676l8.28,6.2a13.188,13.188,0,0,0,7.473,2.72l10.327.574a13.576,13.576,0,0,1,12.619,10.588l2.359,10.071a13.185,13.185,0,0,0,3.976,6.887L126,47.793a13.577,13.577,0,0,1,2.86,16.222l-4.666,9.231a13.187,13.187,0,0,0-1.381,7.831l1.228,10.27a13.577,13.577,0,0,1-8.236,14.265l-9.508,4.072a13.185,13.185,0,0,0-6.092,5.111l-5.661,8.656a13.577,13.577,0,0,1-15.479,5.634l-9.9-2.992a13.186,13.186,0,0,0-7.952,0l-9.9,2.992a13.577,13.577,0,0,1-15.479-5.634L30.172,114.8a13.188,13.188,0,0,0-6.092-5.111l-9.509-4.073A13.577,13.577,0,0,1,6.335,91.347l1.228-10.27a13.187,13.187,0,0,0-1.381-7.831L1.516,64.014a13.577,13.577,0,0,1,2.86-16.222l7.542-7.078a13.185,13.185,0,0,0,3.976-6.887l2.359-10.071A13.577,13.577,0,0,1,30.872,13.168L41.2,12.594a13.186,13.186,0,0,0,7.473-2.72l8.28-6.2A13.577,13.577,0,0,1,73.424,3.676Z" transform="translate(-0.002 -0.893)" fill="#ffc43b" fill-rule="evenodd"/>
  <path id="Trazado_718977" data-name="Trazado 718977" d="M192.842,3.677l8.28,6.2a13.188,13.188,0,0,0,7.473,2.72l10.327.574a13.576,13.576,0,0,1,12.619,10.588L233.9,33.828a13.185,13.185,0,0,0,3.976,6.887l7.542,7.078a13.577,13.577,0,0,1,2.86,16.222l-4.666,9.231a13.187,13.187,0,0,0-1.381,7.831l1.228,10.27a13.577,13.577,0,0,1-8.236,14.265l-9.508,4.072a13.185,13.185,0,0,0-6.092,5.111l-5.661,8.656a13.553,13.553,0,0,1-14.131,5.971,13.621,13.621,0,0,0,8.7-5.971l5.661-8.656a13.183,13.183,0,0,1,6.092-5.111l9.508-4.072a13.577,13.577,0,0,0,8.236-14.265L236.8,81.078a13.187,13.187,0,0,1,1.381-7.831l4.666-9.231a13.577,13.577,0,0,0-2.86-16.222l-7.542-7.078a13.187,13.187,0,0,1-3.976-6.887l-2.359-10.071A13.577,13.577,0,0,0,213.49,13.169l-10.327-.574a13.186,13.186,0,0,1-7.473-2.72l-8.28-6.2a13.894,13.894,0,0,0-5.52-2.505A13.6,13.6,0,0,1,192.842,3.677ZM181.89,125.77q-.625.132-1.26.324l-9.9,2.992a13.832,13.832,0,0,1-6.779.337q.674-.135,1.347-.337l9.9-2.992A13.1,13.1,0,0,1,181.89,125.77Z" transform="translate(-119.42 -0.893)" fill="#ffa031" fill-rule="evenodd"/>
  <path id="Trazado_718978" data-name="Trazado 718978" d="M156.534,154.589a42.242,42.242,0,1,0-59.739,0A42.242,42.242,0,0,0,156.534,154.589Z" transform="translate(-61.493 -60.318)" fill="#ffa031"/>
  <path id="Trazado_718979" data-name="Trazado 718979" d="M126.7,82.454c.913,0,1.818.032,2.716.089a42.246,42.246,0,0,0,0,84.318c-.9.057-1.8.089-2.716.089a42.248,42.248,0,0,1,0-84.5Z" transform="translate(-61.516 -60.301)" fill="#ffa031" fill-rule="evenodd"/>
  <path id="Trazado_718980" data-name="Trazado 718980" d="M169.148,193.378l19.555-19.75a5.953,5.953,0,1,1,8.448,8.391c-7.93,8-15.806,16.059-23.772,24.026a5.966,5.966,0,0,1-8.436,0l-13.217-13.217a5.965,5.965,0,1,1,8.436-8.436Z" transform="translate(-109.243 -125.43)" fill="#eceff1" fill-rule="evenodd"/>
</svg>
