<svg id="Group_13_3_" data-name="Group 13 (3)" xmlns="http://www.w3.org/2000/svg" width="141" height="141" viewBox="0 0 141 141">
  <path id="Trazado_718876" data-name="Trazado 718876" d="M54.8,200.31a24.1,24.1,0,0,0-1.842-4.336l5.388-5.388-9.724-9.724-5.388,5.388a24.1,24.1,0,0,0-4.336-1.841V176H24.31v8.408a24.1,24.1,0,0,0-4.336,1.841l-5.388-5.388-9.724,9.724,5.388,5.388a24.108,24.108,0,0,0-1.842,4.336H0V214.9H8.408a24.11,24.11,0,0,0,1.842,4.336l-5.388,5.388,9.724,9.724,5.388-5.388A24.107,24.107,0,0,0,24.31,230.8v8.408H38.9V230.8a24.1,24.1,0,0,0,4.336-1.842l5.388,5.388,9.724-9.724-5.388-5.388A24.1,24.1,0,0,0,54.8,214.9h8.408V200.31Z" transform="translate(0 -122.517)" fill="#4db1f0"/>
  <path id="Trazado_718877" data-name="Trazado 718877" d="M65.017,258.035A17.017,17.017,0,1,0,48,241.017,17.017,17.017,0,0,0,65.017,258.035Z" transform="translate(-33.414 -155.931)" fill="#e9eef2"/>
  <path id="Trazado_718878" data-name="Trazado 718878" d="M87.293,270.586A7.293,7.293,0,1,0,80,263.293,7.293,7.293,0,0,0,87.293,270.586Z" transform="translate(-55.69 -178.207)" fill="#2978b8"/>
  <path id="Trazado_718879" data-name="Trazado 718879" d="M209.241,141a9.725,9.725,0,0,0,9.724-9.724V0H112V141Z" transform="translate(-77.966 0)" fill="#dfebf4"/>
  <path id="Trazado_718880" data-name="Trazado 718880" d="M212.155,44.862h-9.724a2.431,2.431,0,1,1,0-4.862h9.724a2.431,2.431,0,1,1,0,4.862Z" transform="translate(-139.224 -27.845)" fill="#a5bed4"/>
  <path id="Trazado_718881" data-name="Trazado 718881" d="M220.466,76.862H186.431a2.431,2.431,0,1,1,0-4.862h34.034a2.431,2.431,0,1,1,0,4.862Z" transform="translate(-128.086 -50.121)" fill="#a5bed4"/>
  <path id="Trazado_718882" data-name="Trazado 718882" d="M220.466,140.862H186.431a2.431,2.431,0,1,1,0-4.862h34.034a2.431,2.431,0,1,1,0,4.862Z" transform="translate(-128.086 -94.672)" fill="#a5bed4"/>
  <path id="Trazado_718883" data-name="Trazado 718883" d="M220.466,172.862H186.431a2.431,2.431,0,1,1,0-4.862h34.034a2.431,2.431,0,1,1,0,4.862Z" transform="translate(-128.086 -116.948)" fill="#a5bed4"/>
  <path id="Trazado_718884" data-name="Trazado 718884" d="M196.155,108.862h-9.724a2.431,2.431,0,1,1,0-4.862h9.724a2.431,2.431,0,1,1,0,4.862Z" transform="translate(-128.086 -72.397)" fill="#a5bed4"/>
  <path id="Trazado_718885" data-name="Trazado 718885" d="M276.155,44.862h-9.724a2.431,2.431,0,1,1,0-4.862h9.724a2.431,2.431,0,1,1,0,4.862Z" transform="translate(-183.776 -27.845)" fill="#a5bed4"/>
  <path id="Trazado_718886" data-name="Trazado 718886" d="M265.017,108.862H250.431a2.431,2.431,0,1,1,0-4.862h14.586a2.431,2.431,0,1,1,0,4.862Z" transform="translate(-172.638 -72.397)" fill="#a5bed4"/>
  <path id="Trazado_718887" data-name="Trazado 718887" d="M62.135,46.311a19.452,19.452,0,0,0-5.011-8.635l-35.1-35.1a8.8,8.8,0,0,0-12.449,0l-7,7a8.8,8.8,0,0,0,0,12.45l35.1,35.1a19.45,19.45,0,0,0,8.635,5.011l21.758,5.933Z" transform="translate(0 0)" fill="#fbe9d8"/>
  <path id="Trazado_718888" data-name="Trazado 718888" d="M9.577,2.578l-7,7a8.8,8.8,0,0,0,0,12.45l7.146,7.146L29.172,9.724,22.027,2.578a8.8,8.8,0,0,0-12.45,0Z" transform="translate(0 0)" fill="#eb423f"/>
  <path id="Trazado_718889" data-name="Trazado 718889" d="M80,384h97.241v14.586a9.725,9.725,0,0,0,9.724,9.724H89.724A9.724,9.724,0,0,1,80,398.586Z" transform="translate(-55.69 -267.31)" fill="#c9d9e5"/>
  <path id="Trazado_718890" data-name="Trazado 718890" d="M257.328,198.586h-38.9a2.431,2.431,0,1,1,0-4.862H254.9v-7.293a2.431,2.431,0,1,1,4.862,0v9.724a2.431,2.431,0,0,1-2.431,2.431Z" transform="translate(-150.362 -128.086)" fill="#c3c6c7"/>
  <path id="Trazado_718891" data-name="Trazado 718891" d="M344,48h21.879V91.759H344Z" transform="translate(-239.466 -33.414)" fill="#a5bed4"/>
  <path id="Trazado_718892" data-name="Trazado 718892" d="M263.6,284.862H234.431a2.431,2.431,0,1,1,0-4.862H263.6a2.431,2.431,0,1,1,0,4.862Z" transform="translate(-161.5 -194.914)" fill="#c3c6c7"/>
  <path id="Trazado_718893" data-name="Trazado 718893" d="M282.431,315.448A2.431,2.431,0,0,1,280,313.017V298.431a2.431,2.431,0,1,1,4.862,0v14.586a2.431,2.431,0,0,1-2.431,2.431Z" transform="translate(-194.914 -206.052)" fill="#c3c6c7"/>
  <path id="Trazado_718894" data-name="Trazado 718894" d="M173.72,184.83,189,189,184.83,173.72Z" transform="translate(-120.93 -120.93)" fill="#1c466d"/>
  <path id="Trazado_718895" data-name="Trazado 718895" d="M32,51.448,59.951,79.4l.006.006L79.405,59.957l-.006-.006L51.448,32Z" transform="translate(-22.276 -22.276)" fill="#4db1f0"/>
  <path id="Trazado_718896" data-name="Trazado 718896" d="M47.981,55.3l7.292-7.292L84.441,77.178,77.149,84.47Z" transform="translate(-33.401 -33.42)" fill="#2978b8"/>
  <path id="Trazado_718897" data-name="Trazado 718897" d="M276.862,281.724A4.862,4.862,0,1,0,272,276.862,4.862,4.862,0,0,0,276.862,281.724Z" transform="translate(-189.345 -189.345)" fill="#4db1f0"/>
  <path id="Trazado_718898" data-name="Trazado 718898" d="M160,256h24.31v19.448H160Z" transform="translate(-111.379 -178.207)" fill="#eb423f"/>
  <path id="Trazado_718899" data-name="Trazado 718899" d="M336,256h24.31v19.448H336Z" transform="translate(-233.897 -178.207)" fill="#065958"/>
  <path id="Trazado_718900" data-name="Trazado 718900" d="M248,352h24.31v9.724H248Z" transform="translate(-172.638 -245.035)" fill="#ffa031"/>
  <path id="Trazado_718901" data-name="Trazado 718901" d="M15.989,35.451,35.434,16.006,40.3,20.867,20.85,40.312Z" transform="translate(-11.13 -11.142)" fill="#ffa031"/>
</svg>
