<svg id="Icons_1_" data-name="Icons (1)" xmlns="http://www.w3.org/2000/svg" width="130.374" height="152.103" viewBox="0 0 130.374 152.103">
  <path id="Trazado_718951" data-name="Trazado 718951" d="M129.78,91.161A27.192,27.192,0,0,1,102.619,64H32V194.374h97.78a10.865,10.865,0,0,0,10.864-10.864V88.877A26.969,26.969,0,0,1,129.78,91.161Z" transform="translate(-21.136 -42.271)" fill="#4db1f0"/>
  <path id="Trazado_718952" data-name="Trazado 718952" d="M96,64V91.161L106.864,80.3l10.864,10.864V64Z" transform="translate(-63.407 -42.271)" fill="#265e91"/>
  <path id="Trazado_718953" data-name="Trazado 718953" d="M32,64H42.864V194.374H32Z" transform="translate(-21.136 -42.271)" fill="#3d8dc0"/>
  <path id="Trazado_718954" data-name="Trazado 718954" d="M5.432,122.864H16.3A5.432,5.432,0,1,0,16.3,112H5.432a5.432,5.432,0,0,0,0,10.864Z" transform="translate(0 -73.974)" fill="#265e91"/>
  <path id="Trazado_718955" data-name="Trazado 718955" d="M5.432,186.865H16.3A5.432,5.432,0,0,0,16.3,176H5.432a5.432,5.432,0,0,0,0,10.865Z" transform="translate(0 -116.245)" fill="#265e91"/>
  <path id="Trazado_718956" data-name="Trazado 718956" d="M5.432,250.865H16.3A5.432,5.432,0,0,0,16.3,240H5.432a5.432,5.432,0,0,0,0,10.865Z" transform="translate(0 -158.516)" fill="#265e91"/>
  <path id="Trazado_718957" data-name="Trazado 718957" d="M5.432,314.865H16.3A5.432,5.432,0,0,0,16.3,304H5.432a5.432,5.432,0,0,0,0,10.865Z" transform="translate(0 -200.787)" fill="#265e91"/>
  <path id="Trazado_718958" data-name="Trazado 718958" d="M5.432,378.865H16.3A5.432,5.432,0,0,0,16.3,368H5.432a5.432,5.432,0,0,0,0,10.865Z" transform="translate(0 -243.058)" fill="#265e91"/>
  <path id="Trazado_718959" data-name="Trazado 718959" d="M5.432,117.432A5.431,5.431,0,0,1,10.864,112H5.432a5.432,5.432,0,0,0,0,10.864h5.432A5.431,5.431,0,0,1,5.432,117.432Z" transform="translate(0 -73.974)" fill="#1c466d"/>
  <path id="Trazado_718960" data-name="Trazado 718960" d="M5.432,181.432A5.431,5.431,0,0,1,10.864,176H5.432a5.432,5.432,0,0,0,0,10.865h5.432A5.431,5.431,0,0,1,5.432,181.432Z" transform="translate(0 -116.245)" fill="#1c466d"/>
  <path id="Trazado_718961" data-name="Trazado 718961" d="M5.432,245.432A5.431,5.431,0,0,1,10.864,240H5.432a5.432,5.432,0,0,0,0,10.865h5.432A5.431,5.431,0,0,1,5.432,245.432Z" transform="translate(0 -158.516)" fill="#1c466d"/>
  <path id="Trazado_718962" data-name="Trazado 718962" d="M5.432,309.432A5.431,5.431,0,0,1,10.864,304H5.432a5.432,5.432,0,0,0,0,10.865h5.432A5.431,5.431,0,0,1,5.432,309.432Z" transform="translate(0 -200.787)" fill="#1c466d"/>
  <path id="Trazado_718963" data-name="Trazado 718963" d="M5.432,373.432A5.431,5.431,0,0,1,10.864,368H5.432a5.432,5.432,0,0,0,0,10.865h5.432A5.431,5.431,0,0,1,5.432,373.432Z" transform="translate(0 -243.058)" fill="#1c466d"/>
  <path id="Trazado_718964" data-name="Trazado 718964" d="M277.729,43.458A21.729,21.729,0,1,0,256,21.729,21.729,21.729,0,0,0,277.729,43.458Z" transform="translate(-169.084)" fill="#ffa031"/>
  <path id="Trazado_718965" data-name="Trazado 718965" d="M261.432,21.729A21.72,21.72,0,0,1,280.445.187a21.721,21.721,0,1,0-2.716,43.271,21.855,21.855,0,0,0,2.716-.187A21.72,21.72,0,0,1,261.432,21.729Z" transform="translate(-169.084)" fill="#dc9600"/>
  <path id="Trazado_718966" data-name="Trazado 718966" d="M314.865,53.432V48H304v5.432h2.716V64.3H304v5.432h10.865V64.3h-2.716V53.432Z" transform="translate(-200.787 -31.703)" fill="#f0f0f0"/>
  <path id="Trazado_718967" data-name="Trazado 718967" d="M314.716,21.432a2.716,2.716,0,1,1,2.716-2.716A2.717,2.717,0,0,1,314.716,21.432Z" transform="translate(-206.071 -10.568)" fill="#f0f0f0"/>
  <path id="Trazado_718968" data-name="Trazado 718968" d="M112,176h54.322v27.161H112Z" transform="translate(-73.974 -116.245)" fill="#3d8dc0"/>
</svg>
